# Blender 4.5.3 LTS
# www.blender.org
mtllib octagon.mtl
o Cylinder
v 0.574025 1.385819 0.011252
v 0.574025 1.385819 -0.011252
v -0.574025 1.385819 0.011252
v -0.574025 1.385819 -0.011252
v -1.385819 0.574025 0.011252
v -1.385819 0.574025 -0.011252
v -1.385819 -0.574025 0.011252
v -1.385819 -0.574025 -0.011252
v -0.574025 -1.385819 0.011252
v -0.574025 -1.385819 -0.011252
v 0.574025 -1.385819 0.011252
v 0.574025 -1.385819 -0.011252
v 1.385819 -0.574025 0.011252
v 1.385819 -0.574025 -0.011252
v 1.385819 0.574025 0.011252
v 1.385819 0.574025 -0.011252
v 0.516623 1.247237 0.011252
v 0.516623 1.247237 -0.011252
v -0.516623 1.247237 0.011252
v -0.516623 1.247237 -0.011252
v -1.247237 0.516623 0.011252
v -1.247237 0.516623 -0.011252
v -1.247237 -0.516623 0.011252
v -1.247237 -0.516623 -0.011252
v -0.516623 -1.247237 0.011252
v -0.516623 -1.247237 -0.011252
v 0.516623 -1.247237 0.011252
v 0.516623 -1.247237 -0.011252
v 1.247237 -0.516623 0.011252
v 1.247237 -0.516623 -0.011252
v 1.247237 0.516623 0.011252
v 1.247237 0.516623 -0.011252
vn -0.0000 1.0000 -0.0000
vn -0.7071 0.7071 -0.0000
vn -1.0000 -0.0000 -0.0000
vn -0.7071 -0.7071 -0.0000
vn -0.0000 -1.0000 -0.0000
vn 0.7071 -0.7071 -0.0000
vn 1.0000 -0.0000 -0.0000
vn 0.7071 0.7071 -0.0000
vn -0.0000 -0.0000 1.0000
vn -0.0000 -0.0000 -1.0000
vt 1.000000 1.000000
vt 0.875000 0.000000
vt 1.000000 0.000000
vt 0.875000 1.000000
vt 0.750000 0.000000
vt 0.750000 1.000000
vt 0.625000 0.000000
vt 0.625000 1.000000
vt 0.500000 0.000000
vt 0.500000 1.000000
vt 0.375000 0.000000
vt 0.375000 1.000000
vt 0.250000 0.000000
vt 0.250000 1.000000
vt 0.125000 0.000000
vt 0.125000 1.000000
vt 0.000000 0.000000
vt 0.000000 1.000000
s 0
usemtl material_1
f 2/1/1 3/2/1 1/3/1
f 4/4/2 5/5/2 3/2/2
f 6/6/3 7/7/3 5/5/3
f 8/8/4 9/9/4 7/7/4
f 10/10/5 11/11/5 9/9/5
f 12/12/6 13/13/6 11/11/6
f 14/14/7 15/15/7 13/13/7
f 16/16/8 1/17/8 15/15/8
f 19/2/5 18/1/5 17/3/5
f 21/5/6 20/4/6 19/2/6
f 23/7/7 22/6/7 21/5/7
f 25/9/8 24/8/8 23/7/8
f 27/11/1 26/10/1 25/9/1
f 29/13/2 28/12/2 27/11/2
f 31/15/3 30/14/3 29/13/3
f 17/17/4 32/16/4 31/15/4
f 3/2/9 17/3/9 1/3/9
f 2/1/10 20/4/10 4/4/10
f 5/5/9 19/2/9 3/2/9
f 4/4/10 22/6/10 6/6/10
f 7/7/9 21/5/9 5/5/9
f 6/6/10 24/8/10 8/8/10
f 9/9/9 23/7/9 7/7/9
f 8/8/10 26/10/10 10/10/10
f 11/11/9 25/9/9 9/9/9
f 10/10/10 28/12/10 12/12/10
f 13/13/9 27/11/9 11/11/9
f 12/12/10 30/14/10 14/14/10
f 15/15/9 29/13/9 13/13/9
f 14/14/10 32/16/10 16/16/10
f 1/17/9 31/15/9 15/15/9
f 16/16/10 18/18/10 2/18/10
f 2/1/1 4/4/1 3/2/1
f 4/4/2 6/6/2 5/5/2
f 6/6/3 8/8/3 7/7/3
f 8/8/4 10/10/4 9/9/4
f 10/10/5 12/12/5 11/11/5
f 12/12/6 14/14/6 13/13/6
f 14/14/7 16/16/7 15/15/7
f 16/16/8 2/18/8 1/17/8
f 19/2/5 20/4/5 18/1/5
f 21/5/6 22/6/6 20/4/6
f 23/7/7 24/8/7 22/6/7
f 25/9/8 26/10/8 24/8/8
f 27/11/1 28/12/1 26/10/1
f 29/13/2 30/14/2 28/12/2
f 31/15/3 32/16/3 30/14/3
f 17/17/4 18/18/4 32/16/4
f 3/2/9 19/2/9 17/3/9
f 2/1/10 18/1/10 20/4/10
f 5/5/9 21/5/9 19/2/9
f 4/4/10 20/4/10 22/6/10
f 7/7/9 23/7/9 21/5/9
f 6/6/10 22/6/10 24/8/10
f 9/9/9 25/9/9 23/7/9
f 8/8/10 24/8/10 26/10/10
f 11/11/9 27/11/9 25/9/9
f 10/10/10 26/10/10 28/12/10
f 13/13/9 29/13/9 27/11/9
f 12/12/10 28/12/10 30/14/10
f 15/15/9 31/15/9 29/13/9
f 14/14/10 30/14/10 32/16/10
f 1/17/9 17/17/9 31/15/9
f 16/16/10 32/16/10 18/18/10
