# Blender 4.5.4 LTS
# www.blender.org
o Circle
v -0.226703 -0.038100 -0.191135
v -0.234074 -0.037368 -0.191135
v -0.241162 -0.035200 -0.191135
v -0.247694 -0.031679 -0.191135
v -0.253420 -0.026941 -0.191135
v -0.258119 -0.021167 -0.191135
v -0.261610 -0.014580 -0.191135
v -0.263760 -0.007433 -0.191135
v -0.264486 0.000000 -0.191135
v -0.263760 0.007433 -0.191135
v -0.261610 0.014580 -0.191135
v -0.258119 0.021167 -0.191135
v -0.253420 0.026941 -0.191135
v -0.247694 0.031679 -0.191135
v -0.241162 0.035200 -0.191135
v -0.234074 0.037368 -0.191135
v -0.226703 0.038100 -0.191135
v -0.000000 -0.038100 -0.191135
v -0.000000 0.038100 -0.191135
v 0.007371 0.037368 -0.191135
v 0.014459 0.035200 -0.191135
v 0.020991 0.031679 -0.191135
v 0.026717 0.026941 -0.191135
v 0.031416 0.021167 -0.191135
v 0.034908 0.014580 -0.191135
v 0.037058 0.007433 -0.191135
v 0.037784 0.000000 -0.191135
v 0.037058 -0.007433 -0.191135
v 0.034908 -0.014580 -0.191135
v 0.031416 -0.021167 -0.191135
v 0.026717 -0.026941 -0.191135
v 0.020991 -0.031679 -0.191135
v 0.014459 -0.035200 -0.191135
v 0.007371 -0.037368 -0.191135
v -0.226703 -0.038100 -0.187960
v -0.234074 -0.037368 -0.187960
v -0.241162 -0.035200 -0.187960
v -0.247694 -0.031679 -0.187960
v -0.253420 -0.026941 -0.187960
v -0.258119 -0.021167 -0.187960
v -0.261610 -0.014580 -0.187960
v -0.263760 -0.007433 -0.187960
v -0.264486 0.000000 -0.187960
v -0.263760 0.007433 -0.187960
v -0.261610 0.014580 -0.187960
v -0.258119 0.021167 -0.187960
v -0.253420 0.026941 -0.187960
v -0.247694 0.031679 -0.187960
v -0.241162 0.035200 -0.187960
v -0.234074 0.037368 -0.187960
v -0.226703 0.038100 -0.187960
v -0.000000 -0.038100 -0.187960
v -0.000000 0.038100 -0.187960
v 0.007371 0.037368 -0.187960
v 0.014459 0.035200 -0.187960
v 0.020991 0.031679 -0.187960
v 0.026717 0.026941 -0.187960
v 0.031416 0.021167 -0.187960
v 0.034908 0.014580 -0.187960
v 0.037058 0.007433 -0.187960
v 0.037784 0.000000 -0.187960
v 0.037058 -0.007433 -0.187960
v 0.034908 -0.014580 -0.187960
v 0.031416 -0.021167 -0.187960
v 0.026717 -0.026941 -0.187960
v 0.020991 -0.031679 -0.187960
v 0.014459 -0.035200 -0.187960
v 0.007371 -0.037368 -0.187960
vn -0.0000 -0.0000 1.0000
vn -0.0000 -0.0000 -1.0000
vn -0.8835 0.4684 -0.0000
vn 0.4745 -0.8803 -0.0000
vn 0.0988 0.9951 -0.0000
vn -0.7756 0.6312 -0.0000
vn 0.2925 -0.9563 -0.0000
vn 0.2925 0.9563 -0.0000
vn -0.6375 0.7704 -0.0000
vn 0.0988 -0.9951 -0.0000
vn 0.4745 0.8803 -0.0000
vn -0.4745 0.8803 -0.0000
vn -0.0988 -0.9951 -0.0000
vn 0.6375 0.7704 -0.0000
vn -0.2925 0.9563 -0.0000
vn -0.2925 -0.9563 -0.0000
vn 0.7756 0.6312 -0.0000
vn -0.0988 0.9951 -0.0000
vn -0.4745 -0.8803 -0.0000
vn 0.8836 0.4683 -0.0000
vn -0.0000 -1.0000 -0.0000
vn -0.6375 -0.7704 -0.0000
vn 0.9576 0.2881 -0.0000
vn -0.0000 1.0000 -0.0000
vn -0.7756 -0.6312 -0.0000
vn 0.9953 0.0972 -0.0000
vn -0.8835 -0.4684 -0.0000
vn 0.9953 -0.0972 -0.0000
vn -0.9576 -0.2881 -0.0000
vn 0.9576 -0.2881 -0.0000
vn -0.9953 -0.0972 -0.0000
vn 0.8836 -0.4683 -0.0000
vn -0.9953 0.0972 -0.0000
vn 0.7756 -0.6312 -0.0000
vn -0.9576 0.2881 -0.0000
vn 0.6375 -0.7704 -0.0000
vt 0.000000 0.000000
s 1
f 34/1/1 17/1/1 9/1/1
f 39/1/2 56/1/2 64/1/2
f 30/1/3 63/1/3 29/1/3
f 15/1/4 48/1/4 14/1/4
f 2/1/5 35/1/5 1/1/5
f 31/1/6 64/1/6 30/1/6
f 16/1/7 49/1/7 15/1/7
f 3/1/8 36/1/8 2/1/8
f 32/1/9 65/1/9 31/1/9
f 17/1/10 50/1/10 16/1/10
f 4/1/11 37/1/11 3/1/11
f 33/1/12 66/1/12 32/1/12
f 20/1/13 53/1/13 19/1/13
f 5/1/14 38/1/14 4/1/14
f 34/1/15 67/1/15 33/1/15
f 21/1/16 54/1/16 20/1/16
f 6/1/17 39/1/17 5/1/17
f 18/1/18 68/1/18 34/1/18
f 22/1/19 55/1/19 21/1/19
f 7/1/20 40/1/20 6/1/20
f 19/1/21 51/1/21 17/1/21
f 23/1/22 56/1/22 22/1/22
f 8/1/23 41/1/23 7/1/23
f 1/1/24 52/1/24 18/1/24
f 24/1/25 57/1/25 23/1/25
f 9/1/26 42/1/26 8/1/26
f 25/1/27 58/1/27 24/1/27
f 10/1/28 43/1/28 9/1/28
f 26/1/29 59/1/29 25/1/29
f 11/1/30 44/1/30 10/1/30
f 27/1/31 60/1/31 26/1/31
f 12/1/32 45/1/32 11/1/32
f 28/1/33 61/1/33 27/1/33
f 13/1/34 46/1/34 12/1/34
f 29/1/35 62/1/35 28/1/35
f 14/1/36 47/1/36 13/1/36
f 3/1/1 2/1/1 1/1/1
f 1/1/1 18/1/1 34/1/1
f 34/1/1 33/1/1 32/1/1
f 32/1/1 31/1/1 30/1/1
f 30/1/1 29/1/1 28/1/1
f 28/1/1 27/1/1 26/1/1
f 26/1/1 25/1/1 24/1/1
f 24/1/1 23/1/1 22/1/1
f 22/1/1 21/1/1 20/1/1
f 20/1/1 19/1/1 17/1/1
f 17/1/1 16/1/1 15/1/1
f 15/1/1 14/1/1 13/1/1
f 13/1/1 12/1/1 11/1/1
f 11/1/1 10/1/1 9/1/1
f 9/1/1 8/1/1 7/1/1
f 7/1/1 6/1/1 5/1/1
f 5/1/1 4/1/1 3/1/1
f 3/1/1 1/1/1 34/1/1
f 34/1/1 32/1/1 30/1/1
f 30/1/1 28/1/1 26/1/1
f 26/1/1 24/1/1 22/1/1
f 22/1/1 20/1/1 17/1/1
f 17/1/1 15/1/1 13/1/1
f 13/1/1 11/1/1 9/1/1
f 9/1/1 7/1/1 5/1/1
f 5/1/1 3/1/1 34/1/1
f 34/1/1 30/1/1 26/1/1
f 26/1/1 22/1/1 17/1/1
f 17/1/1 13/1/1 9/1/1
f 9/1/1 5/1/1 34/1/1
f 34/1/1 26/1/1 17/1/1
f 35/1/2 36/1/2 37/1/2
f 37/1/2 38/1/2 39/1/2
f 39/1/2 40/1/2 41/1/2
f 41/1/2 42/1/2 43/1/2
f 43/1/2 44/1/2 45/1/2
f 45/1/2 46/1/2 47/1/2
f 47/1/2 48/1/2 49/1/2
f 49/1/2 50/1/2 51/1/2
f 51/1/2 53/1/2 54/1/2
f 54/1/2 55/1/2 56/1/2
f 56/1/2 57/1/2 58/1/2
f 58/1/2 59/1/2 60/1/2
f 60/1/2 61/1/2 62/1/2
f 62/1/2 63/1/2 64/1/2
f 64/1/2 65/1/2 66/1/2
f 66/1/2 67/1/2 68/1/2
f 68/1/2 52/1/2 35/1/2
f 35/1/2 37/1/2 39/1/2
f 39/1/2 41/1/2 43/1/2
f 43/1/2 45/1/2 47/1/2
f 47/1/2 49/1/2 51/1/2
f 51/1/2 54/1/2 56/1/2
f 56/1/2 58/1/2 60/1/2
f 60/1/2 62/1/2 64/1/2
f 64/1/2 66/1/2 68/1/2
f 68/1/2 35/1/2 39/1/2
f 39/1/2 43/1/2 47/1/2
f 47/1/2 51/1/2 56/1/2
f 56/1/2 60/1/2 64/1/2
f 64/1/2 68/1/2 39/1/2
f 39/1/2 47/1/2 56/1/2
f 30/1/3 64/1/3 63/1/3
f 15/1/4 49/1/4 48/1/4
f 2/1/5 36/1/5 35/1/5
f 31/1/6 65/1/6 64/1/6
f 16/1/7 50/1/7 49/1/7
f 3/1/8 37/1/8 36/1/8
f 32/1/9 66/1/9 65/1/9
f 17/1/10 51/1/10 50/1/10
f 4/1/11 38/1/11 37/1/11
f 33/1/12 67/1/12 66/1/12
f 20/1/13 54/1/13 53/1/13
f 5/1/14 39/1/14 38/1/14
f 34/1/15 68/1/15 67/1/15
f 21/1/16 55/1/16 54/1/16
f 6/1/17 40/1/17 39/1/17
f 18/1/18 52/1/18 68/1/18
f 22/1/19 56/1/19 55/1/19
f 7/1/20 41/1/20 40/1/20
f 19/1/21 53/1/21 51/1/21
f 23/1/22 57/1/22 56/1/22
f 8/1/23 42/1/23 41/1/23
f 1/1/24 35/1/24 52/1/24
f 24/1/25 58/1/25 57/1/25
f 9/1/26 43/1/26 42/1/26
f 25/1/27 59/1/27 58/1/27
f 10/1/28 44/1/28 43/1/28
f 26/1/29 60/1/29 59/1/29
f 11/1/30 45/1/30 44/1/30
f 27/1/31 61/1/31 60/1/31
f 12/1/32 46/1/32 45/1/32
f 28/1/33 62/1/33 61/1/33
f 13/1/34 47/1/34 46/1/34
f 29/1/35 63/1/35 62/1/35
f 14/1/36 48/1/36 47/1/36
o Circle.001_Circle.003
v 0.226703 0.038100 -0.187960
v 0.234074 0.037368 -0.187960
v 0.241162 0.035200 -0.187960
v 0.247694 0.031679 -0.187960
v 0.253420 0.026941 -0.187960
v 0.258119 0.021167 -0.187960
v 0.261610 0.014580 -0.187960
v 0.263760 0.007433 -0.187960
v 0.264486 0.000000 -0.187960
v 0.263760 -0.007433 -0.187960
v 0.261610 -0.014581 -0.187960
v 0.258119 -0.021167 -0.187960
v 0.253420 -0.026941 -0.187960
v 0.247694 -0.031679 -0.187960
v 0.241162 -0.035200 -0.187960
v 0.234074 -0.037368 -0.187960
v 0.226703 -0.038100 -0.187960
v -0.000000 0.038100 -0.187960
v -0.000000 -0.038100 -0.187960
v -0.007371 -0.037368 -0.187960
v -0.014459 -0.035200 -0.187960
v -0.020991 -0.031679 -0.187960
v -0.026717 -0.026941 -0.187960
v -0.031416 -0.021167 -0.187960
v -0.034907 -0.014580 -0.187960
v -0.037058 -0.007433 -0.187960
v -0.037784 0.000000 -0.187960
v -0.037058 0.007433 -0.187960
v -0.034907 0.014581 -0.187960
v -0.031416 0.021167 -0.187960
v -0.026717 0.026941 -0.187960
v -0.020991 0.031679 -0.187960
v -0.014459 0.035200 -0.187960
v -0.007371 0.037368 -0.187960
v 0.226703 0.038100 -0.184785
v 0.234074 0.037368 -0.184785
v 0.241162 0.035200 -0.184785
v 0.247694 0.031679 -0.184785
v 0.253420 0.026941 -0.184785
v 0.258119 0.021167 -0.184785
v 0.261610 0.014580 -0.184785
v 0.263760 0.007433 -0.184785
v 0.264486 0.000000 -0.184785
v 0.263760 -0.007433 -0.184785
v 0.261610 -0.014581 -0.184785
v 0.258119 -0.021167 -0.184785
v 0.253420 -0.026941 -0.184785
v 0.247694 -0.031679 -0.184785
v 0.241162 -0.035200 -0.184785
v 0.234074 -0.037368 -0.184785
v 0.226703 -0.038100 -0.184785
v -0.000000 0.038100 -0.184785
v -0.000000 -0.038100 -0.184785
v -0.007371 -0.037368 -0.184785
v -0.014459 -0.035200 -0.184785
v -0.020991 -0.031679 -0.184785
v -0.026717 -0.026941 -0.184785
v -0.031416 -0.021167 -0.184785
v -0.034907 -0.014580 -0.184785
v -0.037058 -0.007433 -0.184785
v -0.037784 0.000000 -0.184785
v -0.037058 0.007433 -0.184785
v -0.034907 0.014581 -0.184785
v -0.031416 0.021167 -0.184785
v -0.026717 0.026941 -0.184785
v -0.020991 0.031679 -0.184785
v -0.014459 0.035200 -0.184785
v -0.007371 0.037368 -0.184785
vn -0.0000 -0.0000 1.0000
vn -0.0000 -0.0000 -1.0000
vn 0.8835 -0.4683 -0.0000
vn 0.8836 -0.4683 -0.0000
vn -0.4745 0.8803 -0.0000
vn -0.0988 -0.9951 -0.0000
vn 0.7756 -0.6312 -0.0000
vn -0.2925 0.9563 -0.0000
vn -0.2925 -0.9563 -0.0000
vn 0.6375 -0.7704 -0.0000
vn -0.0988 0.9951 -0.0000
vn -0.4745 -0.8803 -0.0000
vn 0.4745 -0.8803 -0.0000
vn 0.0988 0.9951 -0.0000
vn -0.6375 -0.7704 -0.0000
vn 0.2925 -0.9563 -0.0000
vn 0.2925 0.9563 -0.0000
vn -0.7756 -0.6312 -0.0000
vn 0.0988 -0.9951 -0.0000
vn 0.4745 0.8803 -0.0000
vn -0.8836 -0.4683 -0.0000
vn -0.0000 1.0000 -0.0000
vn 0.6375 0.7704 -0.0000
vn -0.9576 -0.2881 -0.0000
vn -0.0000 -1.0000 -0.0000
vn 0.7756 0.6312 -0.0000
vn -0.9953 -0.0972 -0.0000
vn 0.8836 0.4683 -0.0000
vn -0.9953 0.0972 -0.0000
vn 0.9576 0.2882 -0.0000
vn -0.9576 0.2880 -0.0000
vn 0.9953 0.0972 -0.0000
vn -0.8835 0.4683 -0.0000
vn -0.8836 0.4683 -0.0000
vn 0.9953 -0.0972 -0.0000
vn -0.7756 0.6312 -0.0000
vn 0.9576 -0.2882 -0.0000
vn -0.6375 0.7704 -0.0000
vt 0.000000 0.000000
s 1
f 102/2/37 85/2/37 77/2/37
f 107/2/38 124/2/38 132/2/38
f 98/2/39 131/2/40 97/2/40
f 83/2/41 116/2/41 82/2/41
f 70/2/42 103/2/42 69/2/42
f 99/2/43 132/2/43 98/2/43
f 84/2/44 117/2/44 83/2/44
f 71/2/45 104/2/45 70/2/45
f 100/2/46 133/2/46 99/2/46
f 85/2/47 118/2/47 84/2/47
f 72/2/48 105/2/48 71/2/48
f 101/2/49 134/2/49 100/2/49
f 88/2/50 121/2/50 87/2/50
f 73/2/51 106/2/51 72/2/51
f 102/2/52 135/2/52 101/2/52
f 89/2/53 122/2/53 88/2/53
f 74/2/54 107/2/54 73/2/54
f 86/2/55 136/2/55 102/2/55
f 90/2/56 123/2/56 89/2/56
f 75/2/57 108/2/57 74/2/57
f 87/2/58 119/2/58 85/2/58
f 91/2/59 124/2/59 90/2/59
f 76/2/60 109/2/60 75/2/60
f 69/2/61 120/2/61 86/2/61
f 92/2/62 125/2/62 91/2/62
f 77/2/63 110/2/63 76/2/63
f 93/2/64 126/2/64 92/2/64
f 78/2/65 111/2/65 77/2/65
f 94/2/66 127/2/66 93/2/66
f 79/2/67 112/2/67 78/2/67
f 95/2/68 128/2/68 94/2/68
f 80/2/69 113/2/70 79/2/70
f 96/2/71 129/2/71 95/2/71
f 81/2/72 114/2/72 80/2/72
f 97/2/73 130/2/73 96/2/73
f 82/2/74 115/2/74 81/2/74
f 71/2/37 70/2/37 69/2/37
f 69/2/37 86/2/37 102/2/37
f 102/2/37 101/2/37 100/2/37
f 100/2/37 99/2/37 98/2/37
f 98/2/37 97/2/37 96/2/37
f 96/2/37 95/2/37 94/2/37
f 94/2/37 93/2/37 92/2/37
f 92/2/37 91/2/37 90/2/37
f 90/2/37 89/2/37 88/2/37
f 88/2/37 87/2/37 85/2/37
f 85/2/37 84/2/37 83/2/37
f 83/2/37 82/2/37 81/2/37
f 81/2/37 80/2/37 79/2/37
f 79/2/37 78/2/37 77/2/37
f 77/2/37 76/2/37 75/2/37
f 75/2/37 74/2/37 73/2/37
f 73/2/37 72/2/37 71/2/37
f 71/2/37 69/2/37 102/2/37
f 102/2/37 100/2/37 98/2/37
f 98/2/37 96/2/37 94/2/37
f 94/2/37 92/2/37 90/2/37
f 90/2/37 88/2/37 85/2/37
f 85/2/37 83/2/37 81/2/37
f 81/2/37 79/2/37 77/2/37
f 77/2/37 75/2/37 73/2/37
f 73/2/37 71/2/37 102/2/37
f 102/2/37 98/2/37 94/2/37
f 94/2/37 90/2/37 85/2/37
f 85/2/37 81/2/37 77/2/37
f 77/2/37 73/2/37 102/2/37
f 102/2/37 94/2/37 85/2/37
f 103/2/38 104/2/38 105/2/38
f 105/2/38 106/2/38 107/2/38
f 107/2/38 108/2/38 109/2/38
f 109/2/38 110/2/38 111/2/38
f 111/2/38 112/2/38 113/2/38
f 113/2/38 114/2/38 115/2/38
f 115/2/38 116/2/38 117/2/38
f 117/2/38 118/2/38 119/2/38
f 119/2/38 121/2/38 122/2/38
f 122/2/38 123/2/38 124/2/38
f 124/2/38 125/2/38 126/2/38
f 126/2/38 127/2/38 128/2/38
f 128/2/38 129/2/38 130/2/38
f 130/2/38 131/2/38 132/2/38
f 132/2/38 133/2/38 134/2/38
f 134/2/38 135/2/38 136/2/38
f 136/2/38 120/2/38 103/2/38
f 103/2/38 105/2/38 107/2/38
f 107/2/38 109/2/38 111/2/38
f 111/2/38 113/2/38 115/2/38
f 115/2/38 117/2/38 119/2/38
f 119/2/38 122/2/38 124/2/38
f 124/2/38 126/2/38 128/2/38
f 128/2/38 130/2/38 132/2/38
f 132/2/38 134/2/38 136/2/38
f 136/2/38 103/2/38 107/2/38
f 107/2/38 111/2/38 115/2/38
f 115/2/38 119/2/38 124/2/38
f 124/2/38 128/2/38 132/2/38
f 132/2/38 136/2/38 107/2/38
f 107/2/38 115/2/38 124/2/38
f 98/2/39 132/2/39 131/2/40
f 83/2/41 117/2/41 116/2/41
f 70/2/42 104/2/42 103/2/42
f 99/2/43 133/2/43 132/2/43
f 84/2/44 118/2/44 117/2/44
f 71/2/45 105/2/45 104/2/45
f 100/2/46 134/2/46 133/2/46
f 85/2/47 119/2/47 118/2/47
f 72/2/48 106/2/48 105/2/48
f 101/2/49 135/2/49 134/2/49
f 88/2/50 122/2/50 121/2/50
f 73/2/51 107/2/51 106/2/51
f 102/2/52 136/2/52 135/2/52
f 89/2/53 123/2/53 122/2/53
f 74/2/54 108/2/54 107/2/54
f 86/2/55 120/2/55 136/2/55
f 90/2/56 124/2/56 123/2/56
f 75/2/57 109/2/57 108/2/57
f 87/2/58 121/2/58 119/2/58
f 91/2/59 125/2/59 124/2/59
f 76/2/60 110/2/60 109/2/60
f 69/2/61 103/2/61 120/2/61
f 92/2/62 126/2/62 125/2/62
f 77/2/63 111/2/63 110/2/63
f 93/2/64 127/2/64 126/2/64
f 78/2/65 112/2/65 111/2/65
f 94/2/66 128/2/66 127/2/66
f 79/2/67 113/2/67 112/2/67
f 95/2/68 129/2/68 128/2/68
f 80/2/69 114/2/69 113/2/70
f 96/2/71 130/2/71 129/2/71
f 81/2/72 115/2/72 114/2/72
f 97/2/73 131/2/73 130/2/73
f 82/2/74 116/2/74 115/2/74
