# Blender 4.5.4 LTS
# www.blender.org
o Bin_Cube.003
v 0.152400 -0.304800 0.003175
v 0.152400 -0.304800 -0.003175
v 0.152400 0.304800 0.003175
v 0.152400 0.304800 -0.003175
v -0.152400 -0.304800 0.003175
v -0.152400 -0.304800 -0.003175
v -0.152400 0.304800 0.003175
v -0.152400 0.304800 -0.003175
v -0.158750 0.304800 -0.003175
v -0.158750 0.304800 0.003175
v -0.158750 -0.304800 0.003175
v -0.158750 -0.304800 -0.003175
v 0.152400 -0.311150 0.003175
v 0.152400 -0.311150 -0.003175
v -0.152400 -0.311150 -0.003175
v -0.152400 -0.311150 0.003175
v -0.158750 -0.311150 -0.003175
v -0.158750 -0.311150 0.003175
v 0.158750 0.304800 0.003175
v 0.158750 -0.304800 0.003175
v 0.158750 -0.304800 -0.003175
v 0.158750 0.304800 -0.003175
v 0.158750 -0.311150 0.003175
v 0.158750 -0.311150 -0.003175
v 0.152400 0.311150 -0.003175
v 0.158750 0.311150 -0.003175
v 0.152400 0.311150 0.003175
v -0.152400 0.311150 0.003175
v -0.152400 0.311150 -0.003175
v -0.158750 0.311150 -0.003175
v -0.158750 0.311150 0.003175
v 0.158750 0.311150 0.003175
v 0.152400 0.304800 -0.149225
v 0.158750 0.304800 -0.149225
v 0.152400 -0.304800 -0.149225
v 0.158750 0.311150 -0.149225
v -0.152400 0.304800 -0.149225
v 0.152400 0.311150 -0.149225
v -0.152400 -0.304800 -0.149225
v -0.158750 0.304800 -0.149225
v -0.158750 -0.304800 -0.149225
v -0.152400 -0.311150 -0.149225
v 0.152400 -0.311150 -0.149225
v -0.158750 -0.311150 -0.149225
v 0.158750 -0.304800 -0.149225
v 0.158750 -0.311150 -0.149225
v -0.152400 0.311150 -0.149225
v -0.158750 0.311150 -0.149225
vn -0.0000 -0.0000 1.0000
vn 1.0000 -0.0000 -0.0000
vn -0.0000 -0.0000 -1.0000
vn -1.0000 -0.0000 -0.0000
vn -0.0000 -1.0000 -0.0000
vn -0.0000 1.0000 -0.0000
vt 0.125000 0.750000
vt 0.125000 0.500000
vt 0.625000 0.250000
vt 0.375000 0.750000
vt 0.375000 0.500000
vt 0.875000 0.500000
vt 0.625000 0.750000
vt 0.625000 0.500000
vt 0.375000 1.000000
vt 0.875000 0.750000
vt 0.625000 0.000000
vt 0.375000 0.250000
vt 0.375000 0.000000
vt 0.625000 1.000000
s 1
f 1/1/1 19/2/1 3/2/1
f 19/2/1 27/2/1 3/2/1
f 22/3/2 36/3/2 26/3/2
f 5/4/1 13/1/1 1/1/1
f 7/5/1 1/1/1 3/2/1
f 4/6/3 6/7/3 8/8/3
f 9/8/4 11/4/4 10/5/4
f 10/5/4 30/8/4 9/8/4
f 17/7/5 42/7/5 15/7/5
f 7/5/1 11/4/1 5/4/1
f 15/7/5 13/9/5 16/4/5
f 16/4/5 17/7/5 15/7/5
f 11/4/1 16/4/1 5/4/1
f 12/7/4 18/4/4 11/4/4
f 25/3/6 47/8/6 29/8/6
f 4/6/4 35/10/4 2/10/4
f 21/11/2 19/12/2 20/13/2
f 20/13/2 24/11/2 21/11/2
f 14/14/5 23/9/5 13/9/5
f 13/1/1 20/1/1 1/1/1
f 24/11/2 45/11/2 21/11/2
f 15/7/5 43/14/5 14/14/5
f 25/3/6 28/5/6 27/12/6
f 29/8/6 31/5/6 28/5/6
f 27/12/6 26/3/6 25/3/6
f 6/7/2 37/8/2 8/8/2
f 3/2/1 28/5/1 7/5/1
f 22/3/2 32/12/2 19/12/2
f 7/5/1 31/5/1 10/5/1
f 12/7/4 44/7/4 17/7/4
f 39/7/3 40/8/3 37/8/3
f 33/6/3 45/10/3 35/10/3
f 35/10/3 42/7/3 39/7/3
f 39/7/3 44/7/3 41/7/3
f 35/10/3 46/10/3 43/10/3
f 33/6/3 36/6/3 34/6/3
f 40/8/3 47/8/3 37/8/3
f 37/8/3 38/6/3 33/6/3
f 30/8/4 40/8/4 9/8/4
f 2/10/6 39/7/6 6/7/6
f 21/11/2 34/3/2 22/3/2
f 8/8/5 33/6/5 4/6/5
f 14/14/5 46/14/5 24/14/5
f 29/8/6 48/8/6 30/8/6
f 9/8/4 41/7/4 12/7/4
f 26/3/6 38/3/6 25/3/6
f 1/1/1 20/1/1 19/2/1
f 19/2/1 32/2/1 27/2/1
f 22/3/2 34/3/2 36/3/2
f 5/4/1 16/4/1 13/1/1
f 7/5/1 5/4/1 1/1/1
f 4/6/3 2/10/3 6/7/3
f 9/8/4 12/7/4 11/4/4
f 10/5/4 31/5/4 30/8/4
f 17/7/5 44/7/5 42/7/5
f 7/5/1 10/5/1 11/4/1
f 15/7/5 14/14/5 13/9/5
f 16/4/5 18/4/5 17/7/5
f 11/4/1 18/4/1 16/4/1
f 12/7/4 17/7/4 18/4/4
f 25/3/6 38/3/6 47/8/6
f 4/6/4 33/6/4 35/10/4
f 21/11/2 22/3/2 19/12/2
f 20/13/2 23/13/2 24/11/2
f 14/14/5 24/14/5 23/9/5
f 13/1/1 23/1/1 20/1/1
f 24/11/2 46/11/2 45/11/2
f 15/7/5 42/7/5 43/14/5
f 25/3/6 29/8/6 28/5/6
f 29/8/6 30/8/6 31/5/6
f 27/12/6 32/12/6 26/3/6
f 6/7/2 39/7/2 37/8/2
f 3/2/1 27/2/1 28/5/1
f 22/3/2 26/3/2 32/12/2
f 7/5/1 28/5/1 31/5/1
f 12/7/4 41/7/4 44/7/4
f 39/7/3 41/7/3 40/8/3
f 33/6/3 34/6/3 45/10/3
f 35/10/3 43/10/3 42/7/3
f 39/7/3 42/7/3 44/7/3
f 35/10/3 45/10/3 46/10/3
f 33/6/3 38/6/3 36/6/3
f 40/8/3 48/8/3 47/8/3
f 37/8/3 47/8/3 38/6/3
f 30/8/4 48/8/4 40/8/4
f 2/10/6 35/10/6 39/7/6
f 21/11/2 45/11/2 34/3/2
f 8/8/5 37/8/5 33/6/5
f 14/14/5 43/14/5 46/14/5
f 29/8/6 47/8/6 48/8/6
f 9/8/4 40/8/4 41/7/4
f 26/3/6 36/3/6 38/3/6
