# Blender 5.1.2
# www.blender.org
o Baskets_X.002_Baskets_X.003
v 0.359605 0.147021 -0.700087
v 0.359605 -0.127287 -0.700087
v 0.573305 0.184600 -0.843098
v 0.573305 -0.164866 -0.843098
v 0.333856 0.184602 -0.843098
v 0.333856 -0.164868 -0.843098
v 0.547557 0.147021 -0.700087
v 0.547557 -0.127287 -0.700087
v 0.362249 0.144538 -0.703529
v 0.362249 -0.124804 -0.703529
v 0.570004 0.181157 -0.844597
v 0.570004 -0.161423 -0.844597
v 0.337157 0.181159 -0.844597
v 0.337157 -0.161425 -0.844597
v 0.544913 0.144538 -0.703529
v 0.544913 -0.124804 -0.703529
vn -0.0000 -0.0000 1.0000
vn -0.6960 0.6537 0.2971
vn -0.6458 -0.6693 -0.3675
vn -0.6960 -0.6537 0.2971
vn 0.6458 -0.6693 -0.3675
vn 0.6458 0.6693 -0.3675
vn 0.6960 -0.6537 0.2971
vn -0.6458 0.6693 -0.3675
vn 0.6960 0.6537 0.2971
vn -0.0000 -0.0000 -1.0000
vn 0.6964 -0.6547 -0.2938
vn 0.6964 0.6547 -0.2938
vn 0.0696 0.0910 -0.9934
vn -0.0696 0.0911 -0.9934
vn -0.0696 -0.0911 -0.9934
vn -0.6964 0.6547 -0.2938
vn 0.0696 -0.0910 -0.9934
vn -0.6964 -0.6547 -0.2938
vt 0.000000 1.000000
vt 1.000000 1.000000
vt 0.000000 0.000000
s 1
f 2/1/1 7/2/1 1/1/1
f 1/1/2 6/3/3 2/1/4
f 4/3/5 2/1/4 6/3/3
f 2/1/1 8/2/1 7/2/1
f 3/3/6 8/2/7 4/3/5
f 1/1/2 3/3/6 5/3/8
f 1/1/2 5/3/8 6/3/3
f 4/3/5 8/2/7 2/1/4
f 3/3/6 7/2/9 8/2/7
f 1/1/2 7/2/9 3/3/6
f 10/1/10 9/1/10 15/2/10
f 9/1/11 10/1/12 14/3/13
f 12/3/14 14/3/13 10/1/12
f 10/1/10 15/2/10 16/2/10
f 11/3/15 12/3/14 16/2/16
f 9/1/11 13/3/17 11/3/15
f 9/1/11 14/3/13 13/3/17
f 12/3/14 10/1/12 16/2/16
f 11/3/15 16/2/16 15/2/18
f 9/1/11 11/3/15 15/2/18
f 4/3/5 14/3/13 12/3/14
f 3/3/6 12/3/14 11/3/15
f 3/3/6 13/3/17 5/3/8
f 6/3/3 13/3/17 14/3/13
f 4/3/5 6/3/3 14/3/13
f 3/3/6 4/3/5 12/3/14
f 3/3/6 11/3/15 13/3/17
f 6/3/3 5/3/8 13/3/17
