# Blender 5.1.2
# www.blender.org
o Baskets_X.001
v -0.552319 0.147021 -0.700087
v -0.552319 -0.127287 -0.700087
v -0.338618 0.184600 -0.843098
v -0.338618 -0.164866 -0.843098
v -0.578068 0.184602 -0.843098
v -0.578068 -0.164868 -0.843098
v -0.364367 0.147021 -0.700087
v -0.364367 -0.127287 -0.700087
v -0.549675 0.144538 -0.703529
v -0.549675 -0.124804 -0.703529
v -0.341919 0.181157 -0.844597
v -0.341919 -0.161423 -0.844597
v -0.574767 0.181159 -0.844597
v -0.574767 -0.161425 -0.844597
v -0.367011 0.144538 -0.703529
v -0.367011 -0.124804 -0.703529
vn -0.0000 -0.0000 1.0000
vn -0.6960 0.6537 0.2971
vn 0.6458 0.6693 -0.3675
vn -0.6458 0.6693 -0.3675
vn 0.6458 -0.6693 -0.3675
vn -0.6960 -0.6537 0.2971
vn -0.6458 -0.6693 -0.3675
vn 0.6960 -0.6537 0.2971
vn 0.6960 0.6537 0.2971
vn -0.0000 -0.0000 -1.0000
vn 0.6964 -0.6547 -0.2938
vn 0.0696 -0.0910 -0.9934
vn -0.0696 -0.0911 -0.9934
vn -0.0696 0.0911 -0.9934
vn 0.0696 0.0910 -0.9934
vn 0.6964 0.6547 -0.2938
vn -0.6964 0.6547 -0.2938
vn -0.6964 -0.6547 -0.2938
vt 0.000000 1.000000
vt 1.000000 1.000000
vt 0.999795 1.000000
vt -0.000008 1.000000
vt 0.000000 0.000000
vt -0.000010 1.000000
s 1
f 2/1/1 7/2/1 1/1/1
f 1/1/2 3/3/3 5/4/4
f 4/5/5 2/1/6 6/6/7
f 2/1/1 8/2/1 7/2/1
f 3/3/3 8/2/8 4/5/5
f 1/1/2 6/6/7 2/1/6
f 1/1/2 7/2/9 3/3/3
f 4/5/5 8/2/8 2/1/6
f 3/3/3 7/2/9 8/2/8
f 1/1/2 5/4/4 6/6/7
f 10/1/10 9/1/10 15/2/10
f 9/1/11 13/4/12 11/3/13
f 12/5/14 14/6/15 10/1/16
f 10/1/10 15/2/10 16/2/10
f 11/3/13 12/5/14 16/2/17
f 9/1/11 10/1/16 14/6/15
f 9/1/11 11/3/13 15/2/18
f 12/5/14 10/1/16 16/2/17
f 11/3/13 16/2/17 15/2/18
f 9/1/11 14/6/15 13/4/12
f 3/3/3 13/4/12 5/4/4
f 4/5/5 14/6/15 12/5/14
f 3/3/3 12/5/14 11/3/13
f 5/4/4 14/6/15 6/6/7
f 3/3/3 11/3/13 13/4/12
f 4/5/5 6/6/7 14/6/15
f 3/3/3 4/5/5 12/5/14
f 5/4/4 13/4/12 14/6/15
