# Blender 4.5.4 LTS
# www.blender.org
o servo_mount.003
v 0.049069 0.311470 0.156307
v 0.045504 0.311470 0.155370
v 0.042313 0.311470 0.151687
v 0.116360 0.311470 0.155517
v 0.119964 0.311470 0.151297
v 0.042860 0.311470 0.152801
v 0.120230 0.311470 0.150191
v 0.047833 0.318470 0.156201
v 0.046633 0.318470 0.155885
v 0.120232 0.318470 0.125187
v 0.114203 0.318470 0.156218
v 0.117330 0.318470 0.154922
v 0.118934 0.318470 0.153318
v 0.119529 0.318470 0.152348
v 0.045504 0.318470 0.155370
v 0.042313 0.318470 0.151687
v 0.044480 0.318470 0.154669
v 0.043590 0.318470 0.153805
v 0.047833 0.311470 0.156201
v 0.046633 0.311470 0.155885
v 0.044480 0.311470 0.154669
v 0.043590 0.311470 0.153805
v 0.041963 0.311470 0.150496
v 0.042860 0.318470 0.152801
v 0.041822 0.311470 0.149264
v 0.120232 0.311470 0.125187
v 0.120319 0.311470 0.126307
v 0.120319 0.318470 0.149057
v 0.120319 0.318470 0.126307
v 0.120319 0.311470 0.149057
v 0.119964 0.318470 0.151297
v 0.120230 0.318470 0.150191
v 0.118934 0.311470 0.153318
v 0.118196 0.311470 0.154184
v 0.118196 0.318470 0.154184
v 0.119529 0.311470 0.152348
v 0.115309 0.318470 0.155952
v 0.115309 0.311470 0.155952
v 0.116360 0.318470 0.155517
v 0.117330 0.311470 0.154922
v 0.114203 0.311470 0.156218
v 0.113069 0.318470 0.156307
v 0.049069 0.318470 0.156307
v 0.113069 0.311470 0.156307
v 0.093319 0.367070 0.136284
v 0.093285 0.367070 0.135937
v 0.092866 0.367070 0.137575
v 0.093062 0.367070 0.137287
v 0.093292 0.367070 0.136632
v 0.093206 0.367070 0.136970
v 0.057794 0.370870 0.136307
v 0.055957 0.370870 0.134877
v 0.057126 0.370870 0.135072
v 0.056441 0.370870 0.134837
v 0.055320 0.370870 0.135222
v 0.055512 0.370870 0.135072
v 0.055022 0.370870 0.135605
v 0.057483 0.370870 0.137213
v 0.054864 0.370870 0.136064
v 0.057126 0.370870 0.137542
v 0.055022 0.370870 0.137009
v 0.056441 0.370870 0.137777
v 0.056681 0.370870 0.137737
v 0.055320 0.370870 0.137392
v 0.055512 0.370870 0.137542
v 0.055727 0.370870 0.137658
v 0.055957 0.370870 0.137737
v 0.055155 0.370870 0.137213
v 0.056681 0.370870 0.134877
v 0.056197 0.370870 0.134837
v 0.055727 0.370870 0.134956
v 0.056197 0.370870 0.137777
v 0.054864 0.370870 0.136550
v 0.054924 0.370870 0.136786
v 0.056912 0.370870 0.137658
v 0.057318 0.370870 0.137392
v 0.057714 0.370870 0.136786
v 0.057616 0.370870 0.137009
v 0.057774 0.370870 0.136550
v 0.057714 0.370870 0.135828
v 0.057774 0.370870 0.136064
v 0.057483 0.370870 0.135401
v 0.057318 0.370870 0.135222
v 0.057616 0.370870 0.135605
v 0.056912 0.370870 0.134956
v 0.055155 0.370870 0.135401
v 0.054924 0.370870 0.135828
v 0.054844 0.370870 0.136307
v 0.038319 0.357870 0.136307
v 0.038541 0.357870 0.139123
v 0.045739 0.364870 0.150869
v 0.048147 0.364870 0.152345
v 0.050757 0.364870 0.153426
v 0.056319 0.364870 0.154307
v 0.041757 0.364870 0.146887
v 0.038541 0.364870 0.139123
v 0.039200 0.357870 0.141869
v 0.038319 0.364870 0.136307
v 0.109319 0.364870 0.136307
v 0.108438 0.364870 0.141869
v 0.109097 0.364870 0.139123
v 0.101899 0.364870 0.150869
v 0.096881 0.364870 0.153426
v 0.094135 0.364870 0.154085
v 0.091319 0.364870 0.154307
v 0.099491 0.364870 0.152345
v 0.104047 0.364870 0.149035
v 0.053503 0.364870 0.154085
v 0.043591 0.364870 0.149035
v 0.040281 0.364870 0.144479
v 0.039200 0.364870 0.141869
v 0.105881 0.364870 0.146887
v 0.107357 0.364870 0.144479
v 0.038319 0.311470 0.032460
v 0.038319 0.316470 0.032460
v 0.038319 0.364870 0.105060
v 0.038319 0.311470 0.110059
v 0.109319 0.311470 0.032460
v 0.109319 0.316470 0.032460
v 0.109319 0.364870 0.105060
v 0.104185 0.361527 0.100044
v 0.097879 0.316472 0.032462
v 0.044524 0.318862 0.036048
v 0.048114 0.316647 0.032725
v 0.049179 0.316499 0.032503
v 0.049738 0.316473 0.032464
v 0.099521 0.316647 0.032725
v 0.103330 0.319184 0.036531
v 0.104300 0.322540 0.041564
v 0.091141 0.233720 0.142001
v 0.090268 0.233720 0.142533
v 0.088839 0.233720 0.143079
v 0.088724 0.234356 0.143762
v 0.088193 0.234346 0.143849
v 0.087834 0.233720 0.143265
v 0.087660 0.234335 0.143899
v 0.086302 0.233720 0.143265
v 0.086054 0.234304 0.143823
v 0.085526 0.234293 0.143721
v 0.085298 0.233720 0.143079
v 0.082633 0.234228 0.142363
v 0.084006 0.234260 0.143197
v 0.084331 0.233720 0.142749
v 0.084499 0.234271 0.143407
v 0.082215 0.234217 0.142021
v 0.081855 0.233720 0.140977
v 0.082210 0.233720 0.141345
v 0.081466 0.234196 0.141256
v 0.081230 0.233720 0.140168
v 0.080964 0.233720 0.139732
v 0.080833 0.234174 0.140391
v 0.079760 0.234107 0.137378
v 0.080366 0.233720 0.138322
v 0.080236 0.233720 0.137827
v 0.091657 0.234421 0.142492
v 0.092487 0.234441 0.141808
v 0.093212 0.234462 0.141018
v 0.093531 0.234472 0.140589
v 0.092906 0.233720 0.140171
v 0.093173 0.233720 0.139734
v 0.093823 0.234483 0.140135
v 0.093406 0.233720 0.139280
v 0.093606 0.233720 0.138809
v 0.094496 0.234515 0.138676
v 0.093772 0.233720 0.138325
v 0.093994 0.233720 0.137327
v 0.094901 0.234556 0.136573
v 0.094069 0.233720 0.136307
v 0.094911 0.234567 0.136037
v 0.093994 0.233720 0.135287
v 0.093902 0.233720 0.134787
v 0.093773 0.233720 0.134292
v 0.094722 0.234597 0.134440
v 0.093408 0.233720 0.133338
v 0.094418 0.234618 0.133412
v 0.093975 0.234639 0.132432
v 0.092610 0.233720 0.132029
v 0.091548 0.233720 0.130927
v 0.090716 0.233720 0.130332
v 0.090271 0.233720 0.130083
v 0.087836 0.233720 0.129349
v 0.088342 0.233720 0.129424
v 0.084332 0.233720 0.129864
v 0.084811 0.233720 0.129681
v 0.082593 0.233720 0.130925
v 0.081232 0.233720 0.132443
v 0.081529 0.233720 0.132029
v 0.080238 0.234031 0.133702
v 0.080532 0.233720 0.133805
v 0.080732 0.233720 0.133334
v 0.080237 0.233720 0.134783
v 0.079910 0.234053 0.134718
v 0.080144 0.233720 0.135287
v 0.080088 0.233720 0.135794
v 0.093406 0.234660 0.131523
v 0.080531 0.233720 0.138807
v 0.092908 0.233720 0.132446
v 0.089807 0.233720 0.129865
v 0.092284 0.233720 0.131637
v 0.089331 0.233720 0.129683
v 0.088840 0.233720 0.129535
v 0.087326 0.233720 0.129312
v 0.086815 0.233720 0.129312
v 0.091143 0.233720 0.130615
v 0.086304 0.233720 0.129349
v 0.091928 0.233720 0.131269
v 0.085299 0.233720 0.129535
v 0.085800 0.233720 0.129423
v 0.093174 0.233720 0.132882
v 0.093608 0.233720 0.133807
v 0.083870 0.233720 0.130081
v 0.083424 0.233720 0.130331
v 0.082997 0.233720 0.130613
v 0.081857 0.233720 0.131634
v 0.094050 0.233720 0.136820
v 0.080965 0.233720 0.132880
v 0.093901 0.233720 0.137831
v 0.092609 0.233720 0.140585
v 0.080144 0.233720 0.137327
v 0.091927 0.233720 0.141347
v 0.080730 0.233720 0.139276
v 0.088339 0.233720 0.143191
v 0.089806 0.233720 0.142750
v 0.089327 0.233720 0.142933
v 0.085796 0.233720 0.143190
v 0.087323 0.233720 0.143302
v 0.083867 0.233720 0.142531
v 0.082995 0.233720 0.141999
v 0.082590 0.233720 0.141687
v 0.084807 0.233720 0.142931
v 0.083422 0.233720 0.142282
v 0.086812 0.233720 0.143302
v 0.081529 0.233720 0.140585
v 0.090714 0.233720 0.142283
v 0.080088 0.233720 0.136820
v 0.080069 0.233720 0.136307
v 0.091545 0.233720 0.141689
v 0.092281 0.233720 0.140980
v 0.080366 0.233720 0.134289
v 0.082211 0.233720 0.131267
v 0.094050 0.233720 0.135794
v 0.093077 0.234670 0.131101
v 0.093706 0.234650 0.131968
v 0.094213 0.234629 0.132914
v 0.094587 0.234608 0.133920
v 0.094821 0.234587 0.134966
v 0.094884 0.234577 0.135500
v 0.094854 0.234547 0.137108
v 0.094771 0.234536 0.137637
v 0.094651 0.234526 0.138163
v 0.094305 0.234504 0.139177
v 0.094080 0.234494 0.139665
v 0.092863 0.234452 0.141426
v 0.092085 0.234431 0.142164
v 0.091211 0.234410 0.142787
v 0.090743 0.234400 0.143051
v 0.090259 0.234389 0.143281
v 0.089759 0.234378 0.143477
v 0.089245 0.234367 0.143638
v 0.087123 0.234325 0.143911
v 0.086586 0.234314 0.143886
v 0.085009 0.234282 0.143583
v 0.083529 0.234249 0.142952
v 0.083070 0.234238 0.142673
v 0.081828 0.234206 0.141653
v 0.081134 0.234185 0.140835
v 0.080563 0.234163 0.139923
v 0.079971 0.234130 0.138432
v 0.079846 0.234119 0.137909
v 0.080055 0.234042 0.134205
v 0.088506 0.235450 0.144177
v 0.087956 0.235433 0.144258
v 0.086845 0.235401 0.144304
v 0.086290 0.235385 0.144269
v 0.085740 0.235368 0.144196
v 0.086523 0.253923 0.149173
v 0.087065 0.253966 0.149189
v 0.059363 0.254800 0.138053
v 0.059339 0.254833 0.138059
v 0.059139 0.254833 0.136897
v 0.059139 0.254833 0.135717
v 0.059363 0.254800 0.134561
v 0.059339 0.254833 0.134555
v 0.055170 0.261519 0.124789
v 0.055372 0.261279 0.124855
v 0.055284 0.261280 0.125219
v 0.055073 0.261521 0.125186
v 0.054906 0.261789 0.125159
v 0.054844 0.261844 0.125592
v 0.054740 0.262103 0.125592
v 0.054983 0.261602 0.125592
v 0.107232 0.261789 0.125159
v 0.107130 0.261787 0.124737
v 0.107353 0.262074 0.125140
v 0.107427 0.262363 0.125128
v 0.107294 0.261843 0.125592
v 0.107398 0.262102 0.125592
v 0.054844 0.261844 0.147022
v 0.056383 0.261797 0.149493
v 0.056112 0.261523 0.149127
v 0.056013 0.261793 0.149264
v 0.055372 0.261279 0.147759
v 0.055284 0.261280 0.147395
v 0.055402 0.261788 0.148649
v 0.055175 0.261787 0.148279
v 0.055302 0.262072 0.148721
v 0.055539 0.261520 0.148550
v 0.055326 0.261519 0.148202
v 0.056784 0.261802 0.149662
v 0.056747 0.262089 0.149777
v 0.056724 0.262380 0.149847
v 0.056294 0.262373 0.149667
v 0.056327 0.262083 0.149602
v 0.057177 0.262389 0.149957
v 0.055683 0.261790 0.148981
v 0.055803 0.261521 0.148861
v 0.054983 0.261602 0.147022
v 0.055073 0.261521 0.147428
v 0.055008 0.261787 0.147877
v 0.054906 0.261789 0.147455
v 0.054892 0.262071 0.147915
v 0.054785 0.262074 0.147474
v 0.054740 0.262103 0.147022
v 0.055711 0.261279 0.148425
v 0.055170 0.261519 0.147825
v 0.055516 0.261279 0.148105
v 0.055065 0.262071 0.148335
v 0.054998 0.262359 0.148369
v 0.055941 0.262078 0.149363
v 0.055953 0.261280 0.148710
v 0.055597 0.262074 0.149067
v 0.055544 0.262363 0.149120
v 0.055897 0.262367 0.149423
v 0.056460 0.261527 0.149342
v 0.057207 0.261808 0.149767
v 0.057188 0.262096 0.149886
v 0.057642 0.262130 0.149932
v 0.057642 0.262404 0.149996
v 0.104496 0.262133 0.149933
v 0.104496 0.262411 0.149997
v 0.106125 0.261793 0.149264
v 0.105755 0.261797 0.149493
v 0.106197 0.262078 0.149363
v 0.106737 0.261788 0.148649
v 0.106963 0.261787 0.148279
v 0.106455 0.261790 0.148981
v 0.106836 0.262072 0.148721
v 0.107130 0.261787 0.147877
v 0.107247 0.262071 0.147915
v 0.107140 0.262359 0.148369
v 0.107073 0.262071 0.148335
v 0.105392 0.262089 0.149777
v 0.104950 0.262096 0.149886
v 0.104961 0.262389 0.149957
v 0.105414 0.262380 0.149847
v 0.105811 0.262083 0.149602
v 0.105844 0.262373 0.149667
v 0.106241 0.262367 0.149423
v 0.106542 0.262074 0.149067
v 0.106595 0.262363 0.149120
v 0.107232 0.261789 0.147455
v 0.107353 0.262074 0.147474
v 0.107294 0.261843 0.147022
v 0.107398 0.262102 0.147022
v 0.087764 0.253966 0.149170
v 0.087404 0.235417 0.144300
vn 0.1229 -0.5270 0.8409
vn 0.0695 -0.5817 0.8104
vn 0.0773 -0.7071 0.7029
vn -0.3064 -0.6304 0.7133
vn -0.2755 -0.7085 0.6497
vn -0.2879 -0.6397 0.7127
vn -0.5096 -0.8024 0.3105
vn -0.2363 -0.9610 0.1436
vn -0.6048 -0.7071 0.3664
vn 0.7075 -0.7063 0.0246
vn 0.7063 -0.7076 0.0197
vn 0.7084 -0.7058 0.0006
vn 0.4651 -0.8767 -0.1229
vn 0.6869 -0.7071 -0.1675
vn 0.3814 -0.9207 -0.0824
vn -0.3890 -0.9195 -0.0560
vn -0.6966 -0.7035 -0.1408
vn -0.5835 -0.8017 -0.1300
vn -0.7965 -0.5947 0.1094
vn -0.7802 -0.6184 0.0935
vn -0.7483 -0.6504 0.1304
vn -0.7424 -0.6401 -0.1980
vn -0.7204 -0.6687 -0.1842
vn -0.7882 -0.5983 -0.1439
vn -0.7193 -0.6757 -0.1614
vn -0.4069 -0.4590 0.7898
vn -0.5203 -0.4632 0.7174
vn -0.4796 -0.5429 0.6894
vn -0.6471 -0.5998 0.4706
vn -0.7157 -0.4655 0.5206
vn -0.7127 -0.6000 0.3633
vn -0.3028 -0.2037 0.9310
vn -0.4341 -0.2200 0.8736
vn -0.4304 -0.3187 0.8445
vn -0.6256 -0.4654 0.6261
vn -0.5914 -0.5812 0.5590
vn -0.8415 -0.4660 0.2732
vn -0.8991 -0.3258 0.2924
vn -0.8742 -0.4654 0.1387
vn -0.8455 -0.5339 0.0086
vn -0.7967 -0.5887 0.1369
vn -0.7208 -0.6735 0.1638
vn -0.7607 -0.5998 0.2482
vn -0.8426 -0.3250 0.4295
vn -0.7874 -0.4670 0.4023
vn -0.6967 -0.6769 0.2374
vn -0.9335 -0.3259 0.1497
vn -0.8792 -0.2587 0.4002
vn -0.5568 -0.3219 0.7657
vn -0.6668 -0.6729 0.3203
vn -0.6700 -0.3223 0.6688
vn -0.6941 -0.2416 0.6781
vn -0.7529 -0.3339 0.5672
vn -0.3995 -0.5507 0.7329
vn -0.2921 -0.3170 0.9023
vn -0.1795 -0.3008 0.9366
vn -0.2926 -0.4363 0.8509
vn -0.2030 -0.3993 0.8941
vn 0.7435 -0.4290 0.5129
vn 0.7692 -0.3381 0.5422
vn 0.6503 -0.3951 0.6488
vn 0.8543 -0.4371 0.2813
vn 0.8991 -0.3399 0.2758
vn 0.7978 -0.4441 0.4078
vn 0.2977 -0.2025 0.9329
vn 0.1767 -0.2176 0.9599
vn 0.1549 -0.2389 0.9586
vn 0.3203 -0.3001 0.8985
vn 0.5965 -0.2384 0.7664
vn 0.4235 -0.2281 0.8767
vn 0.4294 -0.3189 0.8450
vn 0.5569 -0.3220 0.7656
vn 0.6693 -0.3232 0.6690
vn 0.6593 -0.2471 0.7101
vn 0.8424 -0.3251 0.4298
vn 0.8382 -0.2547 0.4823
vn 0.9077 -0.4197 0.0059
vn 0.9353 -0.3485 0.0611
vn 0.9219 -0.3468 0.1728
vn 0.8924 -0.4247 0.1526
vn -0.0000 -0.0000 -1.0000
vn 0.2338 -0.0000 0.9723
vn -0.7350 0.0267 0.6775
vn -0.8028 -0.1204 0.5840
vn -0.7515 -0.1194 0.6488
vn 0.2249 -0.3337 0.9155
vn 0.2242 -0.3350 0.9152
vn 0.5010 -0.4475 0.7408
vn 0.5008 -0.4479 0.7407
vn 0.5022 -0.4467 0.7405
vn 0.9641 -0.1295 0.2318
vn -0.7054 -0.6991 0.1167
vn -0.6988 -0.7058 0.1164
vn -0.7011 -0.7034 0.1169
vn 0.3359 -0.5587 0.7583
vn 0.2844 -0.5472 0.7872
vn -0.5624 -0.2318 0.7937
vn -0.4921 -0.1027 0.8645
vn -0.6311 -0.1122 0.7675
vn 0.9969 -0.0000 0.0782
vn -0.9948 -0.0503 0.0889
vn 0.2144 0.3945 0.8935
vn 0.0201 0.9924 0.1211
vn 0.1147 0.6404 0.7594
vn 0.0369 0.9725 0.2299
vn -0.0289 0.5665 0.8236
vn 0.6490 0.5989 0.4691
vn 0.7523 0.1519 0.6411
vn 0.8010 0.1483 0.5801
vn -0.0000 0.9400 0.3412
vn 0.9163 -0.3974 -0.0501
vn 0.9274 -0.3725 -0.0335
vn -0.0000 0.8320 -0.5547
vn 0.0009 0.8320 -0.5548
vn 0.7787 -0.6160 -0.1191
vn 0.4497 -0.8906 -0.0684
vn -0.0097 -0.1292 0.9916
vn -0.0059 -0.1979 0.9802
vn 0.5238 0.0043 0.8518
vn -0.0185 -0.1349 0.9907
vn 0.1064 0.9943 -0.0088
vn -0.6204 -0.6871 0.3781
vn -0.6217 -0.6878 0.3747
vn -0.6180 -0.6891 0.3784
vn -0.0084 -0.2544 0.9671
vn 0.0269 -0.1500 0.9883
vn 0.0649 -0.2239 0.9724
vn 0.0681 -0.2267 0.9716
vn 0.0697 -0.2246 0.9720
vn -0.3338 0.9385 0.0889
vn -0.3314 0.9397 0.0843
vn -0.3262 0.9415 0.0847
vn 0.0445 0.0332 0.9985
vn -0.0000 -0.0000 1.0000
vn 0.0391 -0.0000 0.9992
vn 0.0754 0.9804 0.1820
vn 0.0682 0.9776 0.1992
vn -0.0000 1.0000 -0.0015
vn -0.0000 1.0000 -0.0000
vn -0.0000 1.0000 0.0005
vn -0.0000 1.0000 -0.0001
vn 0.0318 0.9994 0.0140
vn 0.0555 0.9983 0.0170
vn 0.0890 0.9957 0.0264
vn -0.0000 1.0000 0.0001
vn -0.0046 1.0000 -0.0015
vn 0.0354 0.9993 -0.0117
vn 0.0536 0.9983 -0.0225
vn 0.0481 0.9983 -0.0314
vn 0.0431 0.9983 -0.0387
vn 0.0481 0.9981 -0.0387
vn -0.0038 1.0000 0.0014
vn 0.0235 0.9973 -0.0692
vn 0.0197 0.9985 -0.0520
vn -0.0014 1.0000 0.0012
vn -0.0586 0.9955 -0.0750
vn -0.0493 0.9968 -0.0631
vn 0.0052 1.0000 -0.0006
vn -0.0025 1.0000 0.0049
vn -0.0000 1.0000 -0.0002
vn -0.0053 1.0000 -0.0015
vn -0.0776 0.9921 0.0984
vn -0.1003 0.9831 0.1535
vn -0.0728 0.9834 0.1664
vn -0.0413 0.9919 0.1198
vn -0.0000 1.0000 0.0003
vn -0.0000 1.0000 0.0015
vn 0.8459 -0.1232 0.5189
vn 0.8426 0.1511 0.5169
vn 0.6497 -0.7079 -0.2771
vn 0.3929 -0.7081 0.5867
vn 0.4120 -0.6107 0.6763
vn 0.3669 -0.7088 0.6024
vn -0.0561 0.9400 0.3365
vn 0.3558 -0.9043 0.2360
vn 0.6434 -0.6085 0.4645
vn 0.5744 -0.7073 0.4121
vn 0.9644 -0.2517 -0.0804
vn 0.9645 -0.2514 -0.0804
vn -0.0567 -0.2289 0.9718
vn -0.0390 -0.2272 0.9731
vn -0.0581 -0.2270 0.9722
vn -0.0470 -0.2547 0.9659
vn -0.0595 -0.2553 0.9650
vn 0.4313 -0.7086 0.5585
vn 0.4306 -0.7098 0.5575
vn -0.8663 -0.4900 -0.0973
vn -0.8568 -0.5110 -0.0683
vn -0.9054 -0.4243 -0.0143
vn 0.8761 -0.4569 0.1541
vn 0.8834 -0.4507 0.1287
vn -0.0533 -0.2611 0.9638
vn -0.0511 -0.2937 0.9545
vn -0.0489 -0.3225 0.9453
vn 0.9654 0.2497 0.0758
vn 0.0807 -0.2546 0.9637
vn 0.0779 -0.2531 0.9643
vn 0.0811 -0.2528 0.9641
vn 0.0793 -0.2525 0.9643
vn 0.0803 -0.2546 0.9637
vn 0.0794 -0.2558 0.9635
vn 0.1203 -0.3187 0.9402
vn 0.1489 -0.3050 0.9406
vn 0.1473 -0.2950 0.9441
vn 0.1888 -0.3161 0.9297
vn 0.1881 -0.3154 0.9301
vn 0.1874 -0.3166 0.9299
vn 0.0330 0.9757 -0.2167
vn 0.0329 0.9755 -0.2176
vn -0.9969 -0.0000 0.0786
vn 0.1178 0.9922 0.0404
vn 0.1208 0.9922 0.0307
vn 0.0889 0.9854 0.1450
vn 0.0847 0.9840 0.1565
vn -0.3371 0.0393 0.9406
vn -0.3383 -0.0913 0.9366
vn -0.5408 -0.8092 0.2294
vn -0.0846 -0.1416 0.9863
vn 0.5082 -0.7081 0.4902
vn -0.1682 -0.5561 0.8139
vn -0.1363 -0.6075 0.7825
vn -0.1638 -0.3675 0.9155
vn -0.1629 -0.3689 0.9151
vn -0.1611 -0.3706 0.9147
vn -0.1148 -0.3226 0.9396
vn -0.1154 -0.3223 0.9396
vn -0.1161 -0.3205 0.9401
vn -0.0758 -0.2840 0.9558
vn -0.0756 -0.2834 0.9560
vn -0.0732 -0.2844 0.9559
vn -0.3137 -0.9489 -0.0352
vn -0.6549 -0.6164 -0.4373
vn 0.2278 -0.6249 0.7468
vn -0.5023 -0.6338 0.5882
vn -0.5021 -0.6354 0.5867
vn -0.5003 -0.6347 0.5889
vn -0.9013 -0.2561 0.3493
vn -0.9660 -0.1950 0.1695
vn 0.4019 -0.3937 0.8267
vn 0.5907 -0.4728 0.6538
vn 0.5903 -0.4736 0.6536
vn 0.3226 -0.7087 0.6274
vn 0.2609 -0.7454 0.6135
vn 0.7910 -0.6033 -0.1017
vn -0.9723 -0.0145 0.2333
vn -0.0025 -0.9580 0.2868
vn -0.0095 -0.6090 0.7931
vn -0.0288 -0.5144 0.8571
vn 0.7433 -0.2406 0.6241
vn 0.7461 -0.2325 0.6240
vn 0.7434 -0.2399 0.6244
vn 0.1788 -0.7072 0.6840
vn 0.1575 -0.6026 0.7824
vn 0.9635 0.1340 0.2317
vn 0.9641 -0.1295 0.2319
vn 0.9617 0.1473 0.2313
vn -0.1576 -0.7066 0.6898
vn -0.2064 -0.5393 0.8164
vn 0.3825 -0.0000 0.9240
vn 0.3809 -0.0900 0.9202
vn -0.2884 0.4134 0.8636
vn 0.2306 -0.1657 0.9588
vn -0.4771 -0.7064 0.5229
vn -0.2817 -0.9567 0.0738
vn -0.6902 -0.7012 0.1787
vn -0.5419 -0.8283 0.1423
vn -0.5383 -0.8425 0.0195
vn -0.7564 -0.6541 -0.0050
vn -0.7983 -0.6023 0.0004
vn 0.0982 0.9885 0.1150
vn -0.2781 -0.4698 0.8378
vn -0.2788 -0.4708 0.8371
vn -0.2803 -0.4707 0.8366
vn -0.8518 0.0438 0.5221
vn -0.1120 -0.3564 0.9276
vn -0.1126 -0.3583 0.9268
vn -0.1120 -0.3580 0.9270
vn -0.2541 0.0380 0.9664
vn -0.2327 0.0727 0.9698
vn 0.8924 -0.2552 0.3722
vn 0.8959 -0.2515 0.3662
vn 0.8923 -0.2549 0.3727
vn 0.0250 -0.7200 0.6936
vn 0.7048 -0.7090 -0.0261
vn 0.7033 -0.7104 -0.0259
vn 0.3845 -0.5697 0.7264
vn 0.3749 0.1982 0.9056
vn 0.5463 -0.4617 0.6988
vn 0.5459 -0.4625 0.6986
vn 0.8516 -0.4706 -0.2310
vn 0.8503 -0.4734 -0.2301
vn -0.0000 -1.0000 -0.0000
vn 0.0006 -1.0000 -0.0023
vn -0.0000 -1.0000 0.0003
vn -0.0000 -1.0000 -0.0003
vn -0.1809 -0.9183 0.3521
vn -0.2029 -0.9210 0.3326
vn -0.2267 -0.9210 0.3168
vn -0.3964 -0.7629 0.5107
vn -0.1912 -0.9643 0.1831
vn -0.4936 -0.7487 0.4425
vn -0.0000 -1.0000 0.0001
vn 0.0007 -1.0000 -0.0010
vn -0.0000 -1.0000 -0.0001
vn 0.0005 -1.0000 -0.0007
vn -0.2622 -0.9586 0.1113
vn -0.2951 -0.9549 0.0326
vn -0.3324 -0.9429 0.0207
vn -0.4192 -0.8938 -0.1596
vn -0.4919 -0.8452 -0.2089
vn -0.1923 -0.9716 -0.1380
vn -0.3681 -0.8915 -0.2641
vn -0.1769 -0.9693 -0.1706
vn -0.2970 -0.9109 -0.2865
vn -0.1459 -0.9643 -0.2209
vn -0.1648 -0.9489 -0.2690
vn -0.1731 -0.9353 -0.3087
vn -0.1044 -0.9567 -0.2716
vn -0.1189 -0.9429 -0.3112
vn -0.0684 -0.9495 -0.3061
vn -0.0570 -0.9465 -0.3175
vn -0.0335 -0.9446 -0.3265
vn -0.0135 -0.9825 -0.1858
vn 0.0471 -0.9471 -0.3175
vn 0.0463 -0.9424 -0.3313
vn 0.0020 -1.0000 0.0018
vn 0.0986 -0.9398 -0.3271
vn 0.1089 -0.9423 -0.3166
vn 0.1098 -0.9516 -0.2870
vn 0.1879 -0.9234 -0.3346
vn 0.1409 -0.9568 -0.2545
vn 0.0014 -1.0000 0.0018
vn 0.3320 -0.8869 -0.3212
vn 0.1961 -0.9621 -0.1897
vn 0.3782 -0.8965 -0.2307
vn 0.2920 -0.9397 -0.1780
vn -0.0007 -1.0000 0.0020
vn 0.4874 -0.8569 0.1678
vn 0.3644 -0.9211 0.1373
vn 0.3538 -0.9207 0.1647
vn 0.3401 -0.9208 0.1909
vn 0.1299 -0.9152 0.3816
vn -0.0004 -1.0000 -0.0029
vn -0.0000 -1.0000 -0.0002
vn -0.0028 -1.0000 0.0002
vn -0.0000 -1.0000 0.0002
vn 0.0001 -1.0000 -0.0025
vn 0.1280 -0.7089 0.6936
vn -0.2536 -0.0885 0.9633
vn 0.6984 -0.6372 0.3259
vn 0.7077 -0.6417 0.2957
vn -0.4444 -0.6578 0.6081
vn -0.4043 -0.6470 0.6465
vn -0.9724 -0.0000 0.2334
vn -0.0785 0.0552 0.9954
vn 0.3364 -0.1192 0.9342
vn 0.1138 0.9917 0.0596
vn 0.4176 0.8746 0.2464
vn 0.6625 -0.6393 0.3904
vn 0.6621 -0.6039 0.4437
vn -0.5736 -0.7084 0.4113
vn 0.6939 -0.7054 0.1449
vn 0.6947 -0.7045 0.1449
vn 0.6956 -0.7038 0.1442
vn -0.3722 -0.5473 0.7496
vn -0.3728 -0.5458 0.7504
vn -0.2517 -0.7094 0.6583
vn 0.6242 0.2716 0.7325
vn -1.0000 -0.0000 -0.0000
vn 0.7052 -0.7083 0.0322
vn 0.7080 -0.7044 0.0509
vn 0.7025 -0.7052 0.0955
vn 0.7029 -0.7050 0.0944
vn 0.7023 -0.7053 0.0966
vn 0.6314 -0.4818 0.6076
vn 0.6309 -0.4828 0.6073
vn 0.4706 -0.7086 0.5257
vn -0.7589 0.0645 0.6480
vn 0.5229 -0.0000 0.8524
vn -0.4738 0.5939 0.6502
vn 0.1055 0.9906 0.0866
vn 0.9944 0.1056 -0.0000
vn 1.0000 -0.0000 -0.0000
vn 0.9915 0.1298 -0.0000
vn 0.7011 -0.7089 -0.0774
vn 0.1064 0.9943 0.0082
vn 0.5796 -0.7063 -0.4066
vn -0.4647 -0.6599 0.5905
vn 0.1058 0.9918 0.0720
vn -0.3550 -0.6752 0.6466
vn 0.1427 0.0803 0.9865
vn 0.2314 0.1443 0.9621
vn 0.9516 -0.3060 0.0279
vn 0.9635 -0.2556 0.0801
vn 0.9638 -0.2548 0.0788
vn 0.6663 -0.7072 0.2365
vn -0.5602 -0.6640 0.4953
vn -0.5923 -0.6655 0.4542
vn 0.6486 -0.0000 0.7611
vn -0.3422 0.9390 0.0332
vn -0.3410 0.9397 0.0281
vn -0.3448 0.9384 0.0247
vn -0.2511 0.9399 0.2314
vn -0.7772 0.5407 0.3219
vn -0.7330 0.6088 0.3036
vn -0.9237 0.0190 0.3826
vn -0.9532 -0.0000 0.3022
vn 0.9099 -0.4148 0.0098
vn 0.9339 -0.3566 0.0251
vn 0.9097 -0.4151 0.0075
vn -0.8242 -0.2496 0.5083
vn 0.4955 0.8592 0.1271
vn 0.6214 0.7691 0.1491
vn 0.5407 -0.3942 0.7431
vn -0.5445 -0.7074 0.4507
vn -0.5438 -0.6960 0.4690
vn -0.5619 -0.6868 0.4611
vn -0.5543 -0.6616 0.5050
vn -0.3648 0.5949 0.7163
vn 0.6319 -0.2257 0.7415
vn 0.6823 -0.7057 0.1910
vn 0.7687 -0.4919 0.4088
vn 0.6677 -0.7060 -0.2360
vn 0.9674 -0.2532 -0.0000
vn 0.6288 -0.7074 -0.3227
vn 0.0782 -0.0000 0.9969
vn -0.2862 0.9399 0.1864
vn -0.0000 -0.7798 -0.6260
vn 0.1362 0.9906 0.0106
vn -0.0854 -0.0000 0.9963
vn -0.9498 -0.3129 0.0010
vn -0.9830 -0.1452 0.1125
vn -0.5988 -0.6803 0.4227
vn -0.5960 -0.6813 0.4250
vn -0.5479 -0.6582 0.5162
vn -0.5457 -0.6591 0.5175
vn 0.8831 0.2937 0.3658
vn 0.9931 -0.0000 -0.1169
vn 0.8227 -0.4817 0.3018
vn 0.8218 -0.4828 0.3026
vn 0.8214 -0.4835 0.3024
vn -0.5179 0.6031 0.6066
vn 0.9240 -0.0000 0.3824
vn -0.3134 0.9405 0.1316
vn -0.3128 0.9398 0.1376
vn -0.9925 -0.0454 0.1136
vn -0.6315 0.0409 0.7743
vn -0.6989 -0.6934 0.1755
vn -0.6975 -0.6953 0.1733
vn -0.6902 -0.7005 0.1815
vn -0.6957 -0.6943 0.1840
vn -0.6750 -0.6961 0.2447
vn -0.6746 -0.6958 0.2465
vn -0.6725 -0.6981 0.2457
vn -0.6511 -0.6941 0.3072
vn -0.6490 -0.6963 0.3065
vn -0.6058 -0.7063 0.3662
vn 0.5437 -0.7074 0.4515
vn 0.8567 -0.4695 0.2135
vn -0.0703 -0.7028 0.7079
vn -0.0704 -0.7046 0.7061
vn -0.0690 -0.7053 0.7055
vn 0.9232 -0.3602 -0.1343
vn 0.9039 -0.4109 -0.1185
vn 0.0782 -0.1406 0.9870
vn -0.4917 0.0422 0.8697
vn 0.8209 -0.0856 0.5647
vn 0.1362 0.9907 -0.0000
vn 0.1147 0.9933 -0.0112
vn 0.0102 -0.1162 0.9932
vn -0.9629 -0.2559 0.0860
vn 0.5037 -0.2053 0.8391
vn 0.5099 -0.2086 0.8346
vn 0.5124 -0.2009 0.8349
vn -0.8988 -0.4330 0.0677
vn -0.2997 0.9537 -0.0249
vn -0.3413 0.9400 -0.0000
vn -0.3461 0.9382 -0.0013
vn -0.0000 0.0204 0.9998
vn -0.0000 0.0431 0.9991
vn -0.6699 -0.7066 0.2280
vn -0.6712 -0.7053 0.2282
vn -0.6291 -0.7074 0.3222
vn -0.6284 -0.7079 0.3225
vn -0.6955 -0.7070 0.1280
vn -0.8976 -0.0000 0.4407
vn 0.8972 -0.4356 0.0726
vn 0.8976 -0.4351 0.0716
vn 0.9228 -0.3754 0.0871
vn 0.9730 0.2307 -0.0000
vn -0.2178 -0.7049 0.6751
vn -0.2166 -0.7056 0.6747
vn -0.1285 -0.7089 0.6935
vn 0.9775 0.1970 -0.0759
vn 0.1049 0.9904 0.0895
vn -0.0000 0.9803 -0.1975
vn 0.0256 0.9878 -0.1538
vn 0.0253 0.9875 -0.1555
vn 0.0425 0.9913 -0.1247
vn 0.0554 0.9932 -0.1020
vn 0.0658 0.9942 -0.0845
vn 0.0662 0.9939 -0.0885
vn 0.0875 0.9950 -0.0474
vn 0.1063 0.9942 -0.0156
vn 0.9768 0.1782 -0.1188
vn 0.7135 0.5830 -0.3887
vn 0.8052 0.4934 -0.3290
vn 0.0001 0.8321 -0.5547
vn -0.0001 0.8326 -0.5539
vn -0.9489 -0.3156 -0.0000
vn 0.9970 -0.0000 -0.0774
vn 0.9970 0.0003 -0.0774
vn -0.9454 -0.3223 0.0478
vn -0.9260 -0.3718 0.0660
vn -0.9280 -0.3726 -0.0000
vn -0.8522 -0.5232 -0.0000
vn -0.8542 -0.5200 0.0047
vn -0.8643 -0.5001 0.0540
vn -0.2381 0.9694 -0.0604
vn -0.1946 0.9771 -0.0856
vn -0.1608 0.9814 -0.1047
vn -0.1317 0.9838 -0.1216
vn -0.1063 0.9850 -0.1360
vn -0.0812 0.9853 -0.1505
vn -0.0566 0.9847 -0.1646
vn -0.0300 0.9832 -0.1801
vn 0.6693 -0.4877 0.5605
vn 0.6688 -0.4887 0.5603
vn -0.6598 -0.7072 -0.2540
vn -0.6767 -0.7074 -0.2040
vn -0.6775 -0.7070 -0.2027
vn -0.7079 -0.7027 0.0712
vn -0.7036 -0.7070 0.0712
vn -0.7026 -0.7074 0.0776
vn 0.5503 -0.7060 -0.4458
vn 0.9016 -0.4289 -0.0552
vn 0.9014 -0.4297 -0.0533
vn 0.9011 -0.4305 -0.0530
vn 0.5075 0.2410 0.8273
vn 0.6043 -0.7069 -0.3675
vn 0.6046 -0.7068 -0.3673
vn -0.8671 -0.4981 -0.0000
vn -0.0000 0.8058 -0.5922
vn -0.0000 0.7106 -0.7036
vn 0.0579 0.7664 -0.6398
vn -0.0000 0.8324 -0.5542
vn -0.0000 0.8321 -0.5547
vn -0.0001 0.8320 -0.5548
vn 0.0002 0.8320 -0.5548
vn -0.0879 -0.7977 -0.5967
vn -0.1690 -0.8076 -0.5650
vn -0.2093 -0.8101 -0.5477
vn -0.2488 -0.8109 -0.5297
vn -0.3059 -0.8091 -0.5018
vn -0.3638 -0.8036 -0.4710
vn -0.4021 -0.7978 -0.4492
vn -0.4413 -0.7900 -0.4256
vn -0.4816 -0.7798 -0.3999
vn -0.5207 -0.7677 -0.3735
vn -0.5623 -0.7522 -0.3436
vn -0.6051 -0.7331 -0.3105
vn -0.6500 -0.7091 -0.2733
vn -0.6718 -0.6958 -0.2541
vn -0.6720 -0.6957 -0.2539
vn -0.8401 -0.5262 -0.1320
vn -0.9395 -0.3413 0.0310
vn 0.0166 -0.3375 0.9412
vn 0.0165 -0.3393 0.9405
vn -0.8064 -0.5887 -0.0568
vn -0.8090 -0.5840 -0.0670
vn -0.8068 -0.5875 -0.0616
vn -0.0000 0.8321 -0.5546
vn -0.0000 0.8320 -0.5548
vn -0.7522 -0.6383 -0.1636
vn -0.7222 -0.6800 -0.1265
vn -0.7096 -0.7042 -0.0263
vn -0.7047 -0.7090 -0.0263
vn 0.9611 -0.2502 -0.1171
vn 0.9621 -0.2514 -0.1058
vn 0.9634 -0.2425 -0.1138
vn 0.9615 -0.2506 -0.1132
vn 0.9184 -0.3568 -0.1707
vn 0.8711 -0.4597 -0.1727
vn 0.8698 -0.4625 -0.1718
vn 0.8787 -0.4286 -0.2103
vn 0.8458 -0.4738 0.2450
vn 0.8501 -0.4718 -0.2340
vn 0.8504 -0.4714 -0.2336
vn 0.8062 -0.5221 -0.2785
vn 0.7547 -0.5710 -0.3233
vn 0.7051 -0.6104 -0.3609
vn 0.6547 -0.6445 -0.3949
vn 0.6065 -0.6725 -0.4240
vn 0.5573 -0.6971 -0.4510
vn 0.5346 -0.7073 -0.4626
vn 0.4971 -0.7223 -0.4809
vn 0.4513 -0.7382 -0.5014
vn 0.4019 -0.7526 -0.5217
vn 0.3569 -0.7633 -0.5385
vn 0.3581 -0.7618 -0.5398
vn 0.3102 -0.7722 -0.5545
vn 0.2668 -0.7786 -0.5680
vn 0.2001 -0.7848 -0.5865
vn 0.1342 -0.7871 -0.6021
vn 0.1359 -0.7856 -0.6036
vn 0.0906 -0.7864 -0.6110
vn 0.0449 -0.7840 -0.6192
vn -0.0000 0.8323 -0.5544
vn -0.0000 0.8326 -0.5539
vn 0.0087 0.7156 -0.6985
vn -0.6798 -0.6957 -0.2322
vn -0.6798 -0.6956 -0.2325
vn -0.6967 -0.6939 -0.1820
vn -0.6990 -0.6934 -0.1749
vn 0.6820 -0.7057 -0.1920
vn -0.1788 -0.2088 0.9615
vn 0.0142 -0.2546 0.9669
vn -0.0239 0.3198 0.9472
vn -0.5116 -0.7072 0.4880
vn -0.8088 -0.0000 0.5881
vn 0.2209 -0.3318 0.9171
vn 0.2201 -0.3327 0.9170
vn 0.2223 -0.3321 0.9167
vn 0.4697 -0.4379 0.7666
vn 0.4689 -0.4381 0.7669
vn 0.4697 -0.4383 0.7663
vn -0.7040 -0.6982 0.1298
vn -0.6974 -0.7048 0.1297
vn -0.9955 -0.0532 0.0785
vn 0.7276 0.2908 0.6213
vn 0.0006 0.8317 -0.5553
vn 0.1064 0.9943 -0.0104
vn -0.6219 -0.6875 0.3749
vn -0.6195 -0.6902 0.3741
vn -0.3376 0.9378 0.0810
vn -0.3328 0.9396 0.0799
vn 0.6488 -0.7065 -0.2827
vn 0.4032 -0.7052 0.5832
vn -0.0799 0.9396 0.3329
vn 0.9649 -0.2518 -0.0749
vn 0.9815 -0.1758 -0.0754
vn 0.9650 -0.2515 -0.0750
vn 0.4414 -0.7056 0.5544
vn 0.4417 -0.7064 0.5530
vn 0.9653 0.2498 0.0761
vn -0.1472 0.8859 -0.4398
vn -0.1479 0.8856 -0.4403
vn -0.0783 -0.1406 0.9870
vn 0.5149 -0.7058 0.4865
vn -0.5184 -0.6424 0.5644
vn -0.5203 -0.6416 0.5636
vn 0.5726 -0.4688 0.6726
vn 0.5716 -0.4690 0.6733
vn 0.5724 -0.4696 0.6722
vn -0.9594 -0.0047 0.2820
vn 0.7389 -0.2400 0.6297
vn 0.7390 -0.2395 0.6297
vn 0.7408 -0.2316 0.6305
vn -0.4720 -0.7086 0.5244
vn 0.0959 0.9878 0.1230
vn -0.8971 0.0348 0.4405
vn -0.1018 -0.3591 0.9277
vn -0.1030 -0.3601 0.9272
vn -0.1031 -0.3607 0.9270
vn 0.8934 -0.2553 0.3698
vn 0.8953 -0.2477 0.3703
vn 0.7074 -0.7051 -0.0487
vn 0.7062 -0.7063 -0.0499
vn 0.3751 0.1983 0.9056
vn 0.8602 -0.4665 -0.2057
vn 0.8602 -0.4669 -0.2052
vn 0.8587 -0.4684 -0.2078
vn -0.0853 0.0558 0.9948
vn 0.1126 0.9907 0.0765
vn -0.5778 -0.7063 0.4091
vn -0.5774 -0.7067 0.4090
vn 0.6935 -0.7090 0.1280
vn 0.6938 -0.7085 0.1290
vn 0.6249 0.2717 0.7319
vn 0.7012 -0.7087 0.0774
vn 0.7020 -0.7080 0.0769
vn 0.4794 -0.7058 0.5215
vn -0.8073 0.0604 0.5870
vn -0.8684 -0.2531 0.4264
vn 0.1063 0.9943 0.0088
vn 0.1098 0.9939 0.0054
vn 0.5747 -0.7078 -0.4107
vn 0.1058 0.9920 0.0689
vn 0.9422 -0.3256 0.0785
vn 0.9639 -0.2554 0.0757
vn -0.3461 0.9378 0.0275
vn -0.3412 0.9396 0.0269
vn -0.2603 0.9396 0.2223
vn 0.9114 -0.4115 -0.0003
vn 0.9102 -0.4142 0.0003
vn 0.9259 -0.3743 0.0516
vn 0.6318 -0.2257 0.7415
vn 0.6827 -0.7087 0.1782
vn 0.6685 -0.7081 -0.2274
vn 0.6284 -0.7068 -0.3249
vn -0.2918 0.9396 0.1789
vn 0.1362 0.9906 0.0107
vn 0.8832 0.2937 0.3656
vn 0.5463 -0.7065 0.4500
vn -0.0489 -0.7090 0.7035
vn -0.0510 -0.7100 0.7024
vn 0.0775 -0.1405 0.9870
vn -0.0269 0.9396 0.3412
vn -0.0000 -0.1276 0.9918
vn 0.5130 -0.2008 0.8346
vn 0.5113 -0.2088 0.8336
vn -0.6958 -0.7066 0.1287
vn -0.8976 -0.0000 0.4408
vn -0.2034 -0.7096 0.6746
vn -0.2054 -0.7085 0.6752
vn -0.1053 -0.7085 0.6978
vn 0.7611 -0.0000 0.6486
vn 0.1034 0.9901 0.0954
vn 0.9970 -0.0000 -0.0771
vn -0.9256 -0.3717 -0.0716
vn -0.9459 -0.3209 -0.0482
vn -0.9103 -0.4109 -0.0509
vn 0.6642 -0.4871 0.5671
vn 0.6640 -0.4875 0.5670
vn 0.6639 -0.4881 0.5666
vn 0.5430 -0.7080 -0.4515
vn 0.5072 0.2410 0.8275
vn 0.0812 -0.3294 0.9407
vn 0.0290 -0.3408 0.9397
vn 0.0273 -0.3417 0.9394
vn 0.0262 -0.2543 0.9668
vn -0.3878 0.1422 0.9107
s 1
f 134//1 136//2 135//3
f 142//4 143//5 144//6
f 150//7 149//8 151//9
f 167//10 168//11 169//12
f 172//13 173//14 171//15
f 193//16 192//17 191//18
f 278//19 279//20 280//21
f 284//22 285//23 287//24
f 285//23 286//25 287//24
f 299//26 301//27 300//28
f 307//29 304//30 308//31
f 311//32 312//33 313//34
f 315//35 307//29 316//36
f 319//37 321//38 320//39
f 320//39 317//40 318//41
f 303//42 325//43 318//41
f 327//44 319//37 305//45
f 302//46 325//43 303//42
f 308//31 304//30 305//45
f 325//43 302//46 308//31
f 320//39 321//38 322//47
f 327//44 328//48 321//38
f 301//27 329//49 315//35
f 304//30 307//29 315//35
f 326//50 308//31 302//46
f 319//37 327//44 321//38
f 331//51 332//52 306//53
f 300//28 334//54 299//26
f 299//26 313//34 301//27
f 315//35 329//49 331//51
f 301//27 313//34 329//49
f 310//55 311//32 313//34
f 336//56 310//55 309//57
f 335//58 336//56 309//57
f 344//59 347//60 346//61
f 348//62 349//63 345//64
f 355//65 354//66 353//67
f 352//68 355//65 353//67
f 358//69 357//70 356//71
f 343//72 358//69 356//71
f 359//73 360//74 343//72
f 343//72 360//74 358//69
f 346//61 347//60 359//73
f 351//75 350//76 347//60
f 351//75 345//64 349//63
f 363//77 364//78 362//79
f 363//77 362//79 361//80
s 0
f 119//81 114//81 115//81
f 11//82 38//82 37//82
s 1
f 18//83 6//84 22//85
s 0
f 259//86 353//87 133//86
f 155//88 342//89 255//90
s 1
f 362//79 5//91 349//63
s 0
f 152//92 278//93 280//94
s 1
f 257//95 352//68 258//96
f 333//97 2//98 21//99
s 0
f 32//100 30//100 28//100
f 25//101 89//101 117//101
s 1
f 103//102 63//103 104//104
f 63//103 62//105 104//104
f 62//105 105//106 104//104
f 112//107 35//108 13//109
s 0
f 62//110 94//110 105//110
s 1
f 364//78 296//111 297//112
s 0
f 123//113 121//114 129//113
s 1
f 171//15 246//115 170//116
s 0
f 338//117 276//117 1//117
s 1
f 276//118 277//119 1//120
s 0
f 51//121 46//121 81//121
f 267//122 324//123 326//124
s 1
f 276//118 273//125 277//119
f 327//44 304//30 306//53
s 0
f 365//126 340//126 277//126
s 1
f 365//127 339//128 340//129
s 0
f 73//130 111//131 74//132
s 1
f 42//133 1//134 44//135
f 332//52 6//84 306//53
s 0
f 106//136 75//136 103//136
f 75//137 63//137 103//137
f 75//138 60//138 76//138
f 75//139 76//139 58//139
f 75//140 58//140 78//140
s 1
f 75//141 78//142 77//143
f 75//141 77//143 79//144
s 0
f 75//145 79//146 51//145
f 75//141 51//141 81//141
s 1
f 75//139 81//147 80//148
f 75//139 80//148 84//149
f 75//139 84//149 82//150
f 75//139 82//150 83//151
s 0
f 75//139 83//152 53//139
f 75//139 53//139 85//139
s 1
f 75//139 85//153 69//154
s 0
f 75//139 69//155 54//139
f 75//139 54//139 70//139
f 75//139 70//139 52//139
f 75//145 52//145 71//145
f 75//141 71//141 56//141
s 1
f 75//139 56//156 55//157
s 0
f 75//139 55//139 86//139
f 75//139 86//139 57//139
f 75//145 57//145 87//145
f 75//139 87//139 59//139
f 75//139 59//139 88//139
s 1
f 75//139 88//139 73//158
f 75//139 73//158 74//159
s 0
f 75//160 74//161 61//160
s 1
f 75//139 61//141 68//141
f 75//139 68//141 64//162
f 75//139 64//162 65//163
f 75//139 65//163 66//164
f 75//139 66//164 67//165
s 0
f 75//166 67//166 72//166
f 75//139 72//139 62//139
s 1
f 75//167 62//105 63//103
f 13//109 36//168 14//169
s 0
f 174//170 175//170 210//170
s 1
f 130//171 255//172 234//173
s 0
f 67//174 108//174 72//174
s 1
f 159//175 157//176 218//177
s 0
f 26//178 297//179 294//179
s 1
f 337//180 276//181 338//182
s 0
f 337//183 273//183 276//184
f 237//185 155//186 130//185
s 1
f 333//97 313//34 312//33
f 288//187 291//188 289//189
f 363//77 249//190 248//191
f 337//192 274//193 273//194
s 0
f 28//195 101//195 32//195
f 272//196 365//196 366//196
f 353//197 339//198 365//199
f 272//200 353//201 365//200
s 1
f 272//202 271//203 353//204
s 0
f 271//205 133//206 353//207
f 54//208 121//209 116//208
f 96//210 89//210 90//210
s 1
f 79//144 50//211 49//212
s 0
f 102//213 60//213 106//213
f 60//214 75//214 106//214
s 1
f 9//215 2//98 20//216
f 196//217 326//50 302//46
s 0
f 314//218 1//218 19//218
f 238//219 156//219 220//219
s 1
f 335//58 139//220 336//56
f 139//220 138//221 336//56
s 0
f 138//222 275//223 336//224
s 1
f 275//225 274//226 336//227
s 0
f 274//228 337//229 336//230
s 1
f 194//231 282//232 193//16
f 259//233 258//96 352//68
s 0
f 265//234 300//235 316//236
s 1
f 322//47 3//237 23//238
f 257//95 342//239 356//71
s 0
f 156//240 341//241 254//240
s 1
f 131//242 257//95 223//243
f 246//115 296//111 247//244
s 0
f 23//245 97//245 90//245
s 1
f 232//246 260//247 261//248
s 0
f 33//249 360//250 347//251
s 1
f 132//252 259//233 133//253
f 31//254 7//255 32//256
f 140//257 139//220 262//258
f 335//58 262//258 139//220
f 37//259 4//260 39//259
f 66//164 93//261 67//165
f 355//65 41//262 354//66
s 0
f 147//263 145//263 265//263
s 1
f 153//264 269//265 154//266
f 236//267 280//268 281//269
s 0
f 76//270 102//270 107//270
f 144//271 262//272 309//273
f 16//274 95//274 110//274
f 138//275 274//276 275//277
s 1
f 93//261 8//278 108//279
s 0
f 5//280 350//281 349//282
s 1
f 226//283 136//2 260//247
s 0
f 241//284 169//285 168//284
s 1
f 256//286 342//239 257//95
f 256//286 255//172 342//239
s 0
f 106//287 37//287 39//287
s 1
f 361//80 349//63 348//62
s 0
f 155//288 254//288 341//289
f 245//290 292//291 173//290
f 225//292 140//293 230//292
f 225//294 230//294 143//294
f 225//295 143//295 227//295
s 1
f 225//292 227//296 231//297
f 225//292 231//297 228//298
f 225//292 228//298 229//299
s 0
f 225//292 229//292 147//292
s 1
f 225//292 147//300 146//301
s 0
f 225//302 146//303 233//302
f 225//304 233//304 149//304
s 1
f 225//302 149//8 150//7
s 0
f 225//304 150//305 221//304
s 1
f 225//302 221//306 196//217
s 0
f 225//292 196//292 153//292
s 1
f 225//302 153//264 154//266
s 0
f 225//304 154//304 219//304
s 1
f 225//292 219//307 235//308
f 225//292 235//308 236//267
s 0
f 225//292 236//292 194//292
s 1
f 225//292 194//231 193//16
f 225//292 193//16 191//18
s 0
f 225//292 191//292 239//292
f 225//292 239//292 189//292
s 1
f 225//292 189//309 190//310
s 0
f 225//292 190//292 216//292
f 225//292 216//292 186//292
s 1
f 225//292 186//311 187//312
s 0
f 225//292 187//292 214//292
s 1
f 225//292 214//313 240//314
s 0
f 225//292 240//292 185//292
f 225//292 185//292 213//292
s 1
f 225//292 213//315 212//316
f 225//292 212//316 211//317
s 0
f 225//292 211//292 183//292
s 1
f 225//292 183//318 184//319
s 0
f 225//292 184//292 207//292
s 1
f 225//292 207//320 208//321
f 225//292 208//321 205//322
f 225//292 205//322 203//323
f 225//292 203//323 202//292
s 0
f 225//292 202//292 181//292
s 1
f 225//292 181//324 182//325
s 0
f 225//292 182//326 201//292
s 1
f 225//292 201//327 200//328
f 225//292 200//328 198//329
s 0
f 225//292 198//292 180//292
s 1
f 225//292 180//330 179//331
s 0
f 225//292 179//332 204//292
f 225//292 204//292 178//292
f 225//292 178//292 206//292
s 1
f 225//292 206//333 199//334
s 0
f 225//292 199//292 177//292
f 225//292 177//292 197//292
s 1
f 225//292 197//335 209//336
s 0
f 225//292 209//292 174//292
f 225//292 174//292 210//292
f 225//292 210//292 172//292
s 1
f 225//292 172//13 171//15
f 225//292 171//15 170//116
s 0
f 225//292 170//337 241//292
f 225//292 241//292 168//292
f 225//292 168//292 215//292
f 225//292 215//292 166//292
f 225//292 166//292 217//292
f 225//292 217//292 165//292
s 1
f 225//292 165//338 163//339
f 225//292 163//339 162//340
f 225//292 162//340 160//341
f 225//292 160//341 159//175
s 0
f 225//292 159//292 218//292
s 1
f 225//292 218//304 238//292
f 225//292 238//292 220//292
f 225//292 220//292 237//292
s 0
f 225//292 237//292 130//292
f 225//302 130//302 234//302
f 225//304 234//304 131//304
f 225//292 131//292 223//292
s 1
f 225//292 223//243 224//342
s 0
f 225//304 224//304 132//343
f 225//344 132//345 222//344
f 225//346 222//346 135//346
f 225//304 135//304 226//304
s 1
f 225//292 226//283 232//246
s 0
f 225//292 232//292 137//347
s 1
f 222//348 134//1 135//3
f 8//278 20//216 19//349
f 348//62 252//350 251//351
f 334//54 141//352 264//353
f 111//354 90//354 97//354
s 0
f 108//355 43//355 94//355
s 1
f 357//70 38//356 355//65
f 48//357 112//107 113//358
f 161//359 344//59 158//360
s 0
f 266//361 149//361 233//361
s 1
f 334//54 142//4 299//26
s 0
f 217//362 249//363 250//364
f 334//365 263//366 142//366
s 1
f 143//5 230//367 144//6
s 0
f 107//368 12//368 35//368
f 117//369 115//369 114//369
s 1
f 359//73 347//60 360//74
f 215//370 167//10 248//371
s 0
f 166//372 248//373 249//374
f 156//375 253//375 346//376
f 220//377 254//377 237//377
f 24//378 109//378 95//378
s 1
f 228//298 264//353 141//352
s 0
f 39//379 40//379 12//379
s 1
f 332//52 329//49 333//97
f 64//162 91//380 65//163
s 0
f 47//381 58//381 112//381
s 1
f 142//4 309//57 299//26
f 28//382 27//383 29//384
f 170//116 247//244 241//385
f 328//48 3//237 321//38
s 0
f 51//386 49//386 45//386
f 197//387 195//387 243//387
s 1
f 77//143 48//357 50//211
f 145//388 141//352 300//28
s 0
f 78//389 47//389 48//389
s 1
f 264//353 263//390 334//54
f 332//52 21//99 22//85
f 103//102 11//391 37//392
s 0
f 364//393 7//394 362//395
s 1
f 157//176 158//360 344//59
f 357//70 352//68 356//71
f 164//396 163//339 165//338
f 330//397 307//29 324//398
s 0
f 12//399 34//399 35//399
f 88//400 96//401 73//402
f 68//403 109//403 64//403
s 1
f 104//104 42//133 11//391
f 110//404 111//405 16//406
s 0
f 111//407 97//407 3//407
f 111//407 3//407 16//407
f 169//408 363//409 167//410
f 328//411 306//411 6//411
s 1
f 49//212 100//412 101//413
f 328//48 327//44 306//53
f 343//72 342//239 341//414
f 233//415 148//416 266//417
f 324//398 308//31 326//50
f 330//397 265//418 316//36
f 65//163 92//419 66//164
f 360//74 40//420 358//69
s 0
f 165//421 250//421 164//421
s 1
f 222//348 133//253 134//1
f 351//75 349//63 350//76
s 0
f 161//422 252//422 345//422
f 245//423 210//423 175//423
f 27//424 364//424 297//424
s 1
f 113//358 13//109 14//169
s 0
f 209//425 244//425 174//425
s 1
f 42//133 41//426 11//391
f 312//33 20//216 2//98
s 0
f 61//427 95//427 68//427
s 1
f 223//243 258//96 224//342
s 0
f 203//428 118//428 202//428
s 1
f 359//73 341//414 346//61
s 0
f 49//429 99//429 45//429
f 43//430 19//430 1//430
s 1
f 323//431 23//238 25//432
f 32//256 100//412 31//254
s 0
f 151//433 266//433 324//434
s 1
f 224//342 259//233 132//252
s 0
f 148//435 265//435 330//436
f 113//437 31//437 100//437
f 119//438 26//438 118//438
s 1
f 351//75 344//59 345//64
s 0
f 251//439 164//440 348//441
s 1
f 234//173 256//286 131//242
f 92//419 9//215 93//261
f 18//83 91//380 109//442
s 0
f 14//443 5//443 31//443
s 1
f 134//1 271//203 272//202
f 74//444 110//404 61//445
f 50//211 113//358 100//412
f 300//28 315//35 316//36
f 90//446 25//432 23//238
f 339//128 354//66 340//129
f 17//447 22//85 21//99
f 17//447 92//419 91//380
f 303//42 278//19 302//46
s 0
f 278//448 269//448 302//449
s 1
f 269//265 268//450 302//451
s 0
f 268//452 196//453 302//454
s 1
f 325//43 305//45 319//37
s 0
f 221//455 267//455 326//456
s 1
f 267//457 150//7 151//9
s 0
f 218//458 253//458 238//458
s 1
f 162//340 251//351 252//350
f 306//53 315//35 331//51
f 250//459 249//190 361//80
s 0
f 137//460 261//461 138//462
s 1
f 294//463 296//111 292//464
s 0
f 354//465 44//465 340//465
s 1
f 15//466 21//99 2//98
f 350//76 33//467 347//60
s 0
f 120//468 45//468 99//468
f 120//469 46//469 45//469
f 72//110 94//110 62//110
f 340//470 1//470 277//470
f 117//471 323//471 25//471
f 358//472 4//473 357//474
s 1
f 298//475 317//40 320//39
s 0
f 59//476 116//476 88//476
f 116//477 98//477 88//478
s 1
f 43//479 105//106 94//480
s 0
f 116//369 117//369 89//369
f 116//369 89//369 98//369
s 1
f 317//40 280//21 318//41
f 280//21 279//20 318//41
f 279//20 303//42 318//41
f 279//20 278//19 303//42
f 227//296 142//4 263//390
f 160//341 252//350 161//359
f 336//56 311//32 310//55
s 0
f 153//481 196//481 268//482
f 150//483 267//484 221//484
f 154//485 152//485 219//485
f 24//486 3//486 6//486
f 248//487 167//488 363//489
s 1
f 99//490 29//384 120//490
s 0
f 230//491 262//491 144//492
s 1
f 225//493 138//221 139//220
f 35//108 33//467 13//109
s 0
f 10//494 120//494 29//494
f 58//495 107//495 112//495
f 116//496 70//496 54//496
f 54//497 69//498 120//497
s 1
f 69//154 85//153 120//499
s 0
f 85//500 53//500 120//500
f 53//501 83//502 120//501
s 1
f 83//151 82//150 120//503
f 82//150 84//149 120//503
f 84//149 80//148 120//503
f 80//148 81//147 120//503
s 0
f 81//504 46//504 120//504
s 1
f 10//505 119//506 120//507
f 119//506 129//508 120//507
f 129//508 121//509 120//507
s 0
f 114//510 290//510 323//510
f 114//510 323//510 117//510
f 29//511 26//512 10//511
f 323//513 289//514 298//515
s 1
f 291//516 281//269 280//268
s 0
f 291//516 280//517 317//518
f 87//519 116//519 59//519
f 87//520 57//520 116//520
f 57//521 86//521 116//521
f 86//522 55//522 116//522
s 1
f 55//157 56//156 116//523
s 0
f 56//524 71//524 116//524
f 71//525 52//525 116//525
f 52//526 70//526 116//526
f 157//527 346//528 253//527
s 1
f 123//113 115//113 116//113
f 188//529 239//530 270//531
s 0
f 235//532 152//532 280//533
s 1
f 235//308 219//307 152//534
s 0
f 177//535 242//535 195//535
s 1
f 298//475 322//47 323//431
s 0
f 169//536 247//537 296//538
f 102//539 39//539 12//539
s 1
f 272//202 136//2 134//1
f 209//336 243//540 176//541
s 0
f 298//542 291//542 317//542
f 115//543 126//543 122//543
s 1
f 115//544 122//545 119//546
f 122//545 127//546 119//546
s 0
f 127//547 128//547 119//547
f 128//548 129//548 119//548
f 128//549 127//549 129//549
f 127//113 124//113 129//113
f 124//547 123//547 129//547
s 1
f 330//397 266//417 148//416
f 203//323 205//322 114//550
f 205//322 208//321 114//550
f 208//321 207//320 114//550
s 0
f 207//551 184//551 114//551
s 1
f 184//319 183//318 114//552
s 0
f 183//553 211//553 114//553
s 1
f 211//317 212//316 114//554
f 212//316 213//315 114//554
s 0
f 213//555 185//555 114//555
f 185//556 240//556 114//556
s 1
f 240//314 214//313 114//557
s 0
f 214//558 187//558 114//558
s 1
f 187//312 186//311 114//559
s 0
f 186//560 216//560 114//560
f 216//561 190//561 114//561
s 1
f 190//310 189//309 114//562
f 189//309 188//529 114//562
s 0
f 188//563 285//564 114//564
s 1
f 285//23 284//22 114//565
f 284//22 287//24 114//565
f 287//24 288//187 114//565
f 288//187 289//189 114//565
f 289//189 290//566 114//565
s 0
f 260//567 366//568 273//568
f 287//569 281//570 291//571
f 124//547 115//547 123//547
f 124//572 125//572 115//572
f 125//573 126//573 115//573
s 1
f 287//24 283//574 281//575
f 283//574 282//232 281//575
f 231//297 263//390 264//353
s 0
f 194//576 236//576 281//577
s 1
f 294//463 295//578 26//579
s 0
f 295//580 118//581 26//581
s 1
f 292//464 118//582 294//463
f 118//582 295//578 294//463
s 0
f 246//583 173//583 292//584
s 1
f 261//248 273//194 274//193
f 293//585 118//582 292//464
f 361//80 164//586 250//459
s 0
f 293//587 245//588 118//588
f 245//589 175//589 118//589
f 175//590 244//590 118//590
f 244//591 176//591 118//591
f 176//592 243//592 118//592
f 243//593 195//593 118//593
f 195//594 242//594 118//594
f 242//595 199//595 118//595
s 1
f 199//334 206//333 118//596
s 0
f 206//597 178//597 118//597
f 178//598 204//598 118//598
f 204//599 179//600 118//599
s 1
f 179//331 180//330 118//601
s 0
f 180//602 198//602 118//602
s 1
f 198//329 200//328 118//603
f 200//328 201//327 118//603
s 0
f 201//604 182//605 118//604
s 1
f 182//325 181//324 118//606
s 0
f 181//607 202//607 118//607
f 126//608 125//608 122//608
f 125//609 127//609 122//610
f 125//572 124//572 127//572
s 1
f 318//41 319//37 320//39
s 0
f 270//611 285//611 188//612
f 270//613 192//613 285//613
f 192//614 283//614 285//614
s 1
f 283//574 286//25 285//23
f 286//25 283//574 287//24
f 192//17 282//232 283//574
f 192//17 193//16 282//232
f 311//32 19//349 20//216
f 172//13 245//615 173//14
f 229//299 141//352 145//388
f 337//180 314//616 336//56
s 0
f 366//617 277//618 273//617
s 1
f 159//175 161//359 158//360
f 191//18 270//531 239//530
f 146//301 265//619 148//416
f 309//57 313//34 299//26
s 0
f 119//81 118//81 114//81
f 11//82 41//82 38//82
s 1
f 18//83 24//620 6//84
s 0
f 259//621 352//622 353//623
f 155//624 341//625 342//626
s 1
f 362//79 7//255 5//91
s 0
f 152//627 269//627 278//628
s 1
f 257//95 356//71 352//68
f 333//97 312//33 2//98
s 0
f 32//100 7//100 30//100
f 25//629 90//629 89//629
s 1
f 112//107 107//630 35//108
f 364//78 363//77 296//111
s 0
f 123//113 116//113 121//631
s 1
f 171//15 173//14 246//115
s 0
f 51//632 45//632 46//632
f 267//633 151//633 324//634
s 1
f 327//44 305//45 304//30
s 0
f 73//635 96//636 111//636
s 1
f 42//133 43//479 1//134
f 332//52 22//85 6//84
f 13//109 33//467 36//168
s 0
f 174//637 244//637 175//637
s 1
f 130//171 155//638 255//172
s 0
f 67//639 93//639 108//639
s 1
f 159//175 158//360 157//176
s 0
f 26//640 27//641 297//642
f 237//643 254//643 155//644
s 1
f 333//97 329//49 313//34
f 288//187 287//24 291//188
f 363//77 361//80 249//190
s 0
f 28//645 99//645 101//645
f 54//646 120//646 121//647
f 96//210 98//210 89//210
s 1
f 79//144 77//143 50//211
f 9//215 15//466 2//98
f 196//217 221//306 326//50
s 0
f 314//648 338//648 1//648
f 238//649 253//649 156//649
s 1
f 194//231 281//575 282//232
s 0
f 265//650 145//650 300//651
s 1
f 322//47 321//38 3//237
s 0
f 156//652 346//653 341//654
s 1
f 131//242 256//286 257//95
f 246//115 292//464 296//111
s 0
f 23//655 3//655 97//655
s 1
f 232//246 226//283 260//247
s 0
f 33//656 34//657 360//658
s 1
f 31//254 5//91 7//255
f 140//257 225//493 139//220
f 335//58 309//57 262//258
f 37//259 38//356 4//260
f 66//164 92//419 93//261
f 355//65 38//356 41//262
s 0
f 147//659 229//659 145//659
s 1
f 153//264 268//450 269//265
f 236//267 235//308 280//268
s 0
f 76//660 60//660 102//660
f 16//661 24//661 95//661
f 138//662 261//663 274//664
s 1
f 93//261 9//215 8//278
s 0
f 5//665 36//665 350//666
s 1
f 226//283 135//3 136//2
s 0
f 241//667 247//667 169//668
f 106//669 103//669 37//669
s 1
f 361//80 362//79 349//63
s 0
f 245//670 293//671 292//672
s 1
f 8//278 9//215 20//216
f 348//62 345//64 252//350
f 334//54 300//28 141//352
f 111//354 96//354 90//354
s 0
f 108//673 8//673 43//673
s 1
f 357//70 4//260 38//356
f 48//357 47//674 112//107
f 161//359 345//64 344//59
s 0
f 266//675 151//676 149//675
f 217//677 166//677 249//678
f 107//679 102//679 12//679
f 117//369 116//369 115//369
s 1
f 215//370 168//11 167//10
s 0
f 166//680 215//680 248//681
f 220//682 156//682 254//682
f 24//683 18//683 109//683
s 1
f 228//298 231//297 264//353
s 0
f 39//379 4//379 40//379
s 1
f 332//52 331//51 329//49
f 64//162 109//442 91//380
f 142//4 144//6 309//57
f 28//382 30//383 27//383
f 170//116 246//115 247//244
f 328//48 6//684 3//237
s 0
f 51//685 79//686 49//685
f 197//687 177//687 195//687
s 1
f 77//143 78//142 48//357
s 0
f 78//688 58//688 47//688
s 1
f 332//52 333//97 21//99
f 103//102 104//104 11//391
s 0
f 364//689 30//690 7//690
s 1
f 357//70 355//65 352//68
f 164//396 251//351 163//339
f 330//397 316//36 307//29
s 0
f 12//399 40//399 34//399
f 88//691 98//692 96//692
f 68//693 95//693 109//693
s 1
f 104//104 105//106 42//133
s 0
f 169//694 296//695 363//696
s 1
f 49//212 50//211 100//412
f 343//72 356//71 342//239
f 233//415 146//301 148//416
f 324//398 307//29 308//31
f 65//163 91//380 92//419
f 360//74 34//697 40//420
s 0
f 165//698 217//698 250//698
s 1
f 222//348 132//252 133//253
s 0
f 245//699 172//699 210//699
f 27//424 30//424 364//424
s 1
f 113//358 112//107 13//109
s 0
f 209//700 176//700 244//700
s 1
f 42//133 44//135 41//426
f 312//33 311//32 20//216
s 0
f 61//701 110//701 95//701
s 1
f 223//243 257//95 258//96
s 0
f 203//428 114//428 118//428
s 1
f 359//73 343//72 341//414
s 0
f 49//702 101//702 99//702
f 43//430 8//430 19//430
s 1
f 323//431 322//47 23//238
f 32//256 101//413 100//412
f 224//342 258//96 259//233
s 0
f 113//703 14//703 31//703
f 119//438 10//438 26//438
s 1
f 351//75 347//60 344//59
f 234//173 255//172 256//286
f 92//419 15//466 9//215
f 18//83 17//447 91//380
s 0
f 14//443 36//443 5//443
s 1
f 134//1 133//253 271//203
f 74//444 111//405 110//404
f 50//211 48//357 113//358
f 300//28 301//27 315//35
f 339//128 353//67 354//66
f 17//447 18//83 22//85
f 17//447 15//466 92//419
f 325//43 308//31 305//45
s 0
f 218//704 157//704 253//704
s 1
f 162//340 163//339 251//351
f 306//53 304//30 315//35
s 0
f 137//705 232//706 261//706
s 1
f 294//463 297//112 296//111
s 0
f 354//707 41//707 44//707
s 1
f 15//466 17//447 21//99
f 350//76 36//168 33//467
s 0
f 72//708 108//708 94//708
f 340//709 44//709 1//709
f 358//710 40//711 4//711
s 1
f 43//479 42//133 105//106
f 227//296 143//5 142//4
f 160//341 162//340 252//350
f 336//56 314//616 311//32
s 0
f 154//712 269//712 152//712
f 24//713 16//713 3//713
s 1
f 99//490 28//382 29//384
s 0
f 230//714 140//715 262//714
s 1
f 225//493 137//716 138//221
f 35//108 34//717 33//467
s 0
f 58//718 76//718 107//718
f 29//511 27//383 26//719
f 323//720 290//721 289//722
f 157//723 344//724 346//725
s 1
f 188//529 189//309 239//530
s 0
f 177//726 199//726 242//726
s 1
f 298//475 320//39 322//47
s 0
f 102//727 106//727 39//727
s 1
f 272//202 366//728 136//2
f 209//336 197//335 243//540
s 0
f 298//542 289//542 291//542
s 1
f 330//397 324//398 266//417
s 0
f 260//729 136//730 366//730
s 1
f 231//297 227//296 263//390
f 261//248 260//247 273//194
f 361//80 348//62 164//586
f 318//41 325//43 319//37
f 311//32 314//616 19//349
f 229//299 228//298 141//352
f 337//180 338//182 314//616
s 0
f 366//731 365//731 277//732
s 1
f 159//175 160//341 161//359
f 191//18 192//17 270//531
f 146//301 147//300 265//619
f 309//57 310//55 313//34
