# Blender 5.1.2
# www.blender.org
o BC_Lane_Line
v -0.000004 -11.353800 -0.000001
v 0.000004 11.353800 0.000001
v 0.012385 -11.353800 0.001219
v 0.012392 11.353800 0.001222
v 0.024297 -11.353800 0.004832
v 0.024304 11.353800 0.004835
v 0.035275 -11.353800 0.010700
v 0.035282 11.353800 0.010703
v 0.044898 -11.353800 0.018597
v 0.044905 11.353800 0.018600
v 0.052795 -11.353800 0.028220
v 0.052802 11.353800 0.028223
v 0.058663 -11.353800 0.039198
v 0.058670 11.353800 0.039201
v 0.062276 -11.353800 0.051110
v 0.062284 11.353800 0.051113
v 0.063496 -11.353800 0.063499
v 0.063504 11.353800 0.063502
v 0.062276 -11.353800 0.075887
v 0.062284 11.353800 0.075890
v 0.058663 -11.353800 0.087799
v 0.058670 11.353800 0.087802
v 0.052795 -11.353800 0.098777
v 0.052802 11.353800 0.098780
v 0.044898 -11.353800 0.108400
v 0.044905 11.353800 0.108403
v 0.035275 -11.353800 0.116297
v 0.035282 11.353800 0.116300
v 0.024297 -11.353800 0.122165
v 0.024304 11.353800 0.122168
v 0.012385 -11.353800 0.125778
v 0.012392 11.353800 0.125781
v -0.000004 -11.353800 0.126998
v 0.000004 11.353800 0.127002
v -0.012392 -11.353800 0.125778
v -0.012385 11.353800 0.125781
v -0.024304 -11.353800 0.122165
v -0.024297 11.353800 0.122168
v -0.035282 -11.353800 0.116297
v -0.035275 11.353800 0.116300
v -0.044905 -11.353800 0.108400
v -0.044898 11.353800 0.108403
v -0.052802 -11.353800 0.098777
v -0.052795 11.353800 0.098780
v -0.058670 -11.353800 0.087799
v -0.058663 11.353800 0.087802
v -0.062284 -11.353800 0.075887
v -0.062276 11.353800 0.075890
v -0.063504 -11.353800 0.063499
v -0.063496 11.353800 0.063502
v -0.062284 -11.353800 0.051110
v -0.062276 11.353800 0.051113
v -0.058670 -11.353800 0.039198
v -0.058663 11.353800 0.039201
v -0.052802 -11.353800 0.028220
v -0.052795 11.353800 0.028223
v -0.044905 -11.353800 0.018597
v -0.044898 11.353800 0.018600
v -0.035282 -11.353800 0.010700
v -0.035275 11.353800 0.010703
v -0.024304 -11.353800 0.004832
v -0.024297 11.353800 0.004835
v -0.012392 -11.353800 0.001219
v -0.012385 11.353800 0.001222
vn 0.0981 -0.0000 -0.9952
vn 0.0980 -0.0000 -0.9952
vn 0.2903 -0.0000 -0.9570
vn 0.4714 -0.0000 -0.8819
vn 0.6344 -0.0000 -0.7730
vn 0.7730 -0.0000 -0.6344
vn 0.8819 -0.0000 -0.4714
vn 0.9569 -0.0000 -0.2903
vn 0.9570 -0.0000 -0.2903
vn 0.9952 -0.0000 -0.0980
vn 0.9952 -0.0000 0.0980
vn 0.9569 -0.0000 0.2903
vn 0.9570 -0.0000 0.2903
vn 0.8819 -0.0000 0.4714
vn 0.7730 -0.0000 0.6344
vn 0.6344 -0.0000 0.7730
vn 0.4714 -0.0000 0.8819
vn 0.2903 -0.0000 0.9570
vn 0.0980 -0.0000 0.9952
vn 0.0981 -0.0000 0.9952
vn -0.0981 -0.0000 0.9952
vn -0.0980 -0.0000 0.9952
vn -0.2903 -0.0000 0.9570
vn -0.4714 -0.0000 0.8819
vn -0.6344 -0.0000 0.7730
vn -0.7730 -0.0000 0.6344
vn -0.8819 -0.0000 0.4714
vn -0.9570 -0.0000 0.2903
vn -0.9569 -0.0000 0.2903
vn -0.9952 -0.0000 0.0980
vn -0.9952 -0.0000 -0.0980
vn -0.9570 -0.0000 -0.2903
vn -0.9569 -0.0000 -0.2903
vn -0.8819 -0.0000 -0.4714
vn -0.7730 -0.0000 -0.6344
vn -0.6344 -0.0000 -0.7730
vn -0.4714 -0.0000 -0.8819
vn -0.0000 1.0000 -0.0001
vn -0.0000 1.0000 -0.0000
vn -0.2903 -0.0000 -0.9570
vn -0.0981 -0.0000 -0.9952
vn -0.0980 -0.0000 -0.9952
vn -0.0000 -1.0000 -0.0000
vn -0.0000 1.0000 -0.0010
vn -0.0000 1.0000 0.0020
vn -0.0000 1.0000 0.0001
vn -0.0000 1.0000 -0.0005
vn -0.0000 1.0000 0.0002
vn -0.0000 1.0000 0.0005
vn -0.0000 1.0000 -0.0002
vn -0.0000 1.0000 -0.0020
vn -0.0000 1.0000 0.0010
vn -0.0000 -1.0000 0.0001
vn -0.0000 -1.0000 -0.0002
vn -0.0000 -1.0000 0.0010
vn -0.0000 -1.0000 0.0002
vn -0.0000 -1.0000 -0.0010
vt 1.000000 1.000000
vt 0.968750 0.500000
vt 1.000000 0.500000
vt 0.968750 1.000000
vt 0.937500 0.500000
vt 0.937500 1.000000
vt 0.906250 0.500000
vt 0.906250 1.000000
vt 0.875000 0.500000
vt 0.875000 1.000000
vt 0.843750 0.500000
vt 0.843750 1.000000
vt 0.812500 0.500000
vt 0.812500 1.000000
vt 0.781250 0.500000
vt 0.750000 1.000000
vt 0.750000 0.500000
vt 0.718750 1.000000
vt 0.718750 0.500000
vt 0.687500 0.500000
vt 0.656250 1.000000
vt 0.656250 0.500000
vt 0.625000 0.500000
vt 0.625000 1.000000
vt 0.593750 0.500000
vt 0.593750 1.000000
vt 0.562500 0.500000
vt 0.531250 1.000000
vt 0.531250 0.500000
vt 0.500000 1.000000
vt 0.500000 0.500000
vt 0.468750 0.500000
vt 0.468750 1.000000
vt 0.437500 0.500000
vt 0.437500 1.000000
vt 0.406250 0.500000
vt 0.406250 1.000000
vt 0.375000 0.500000
vt 0.375000 1.000000
vt 0.343750 0.500000
vt 0.343750 1.000000
vt 0.312500 0.500000
vt 0.312500 1.000000
vt 0.281250 0.500000
vt 0.281250 1.000000
vt 0.250000 0.500000
vt 0.250000 1.000000
vt 0.218750 0.500000
vt 0.218750 1.000000
vt 0.187500 0.500000
vt 0.187500 1.000000
vt 0.156250 0.500000
vt 0.125000 1.000000
vt 0.125000 0.500000
vt 0.093750 0.500000
vt 0.093750 1.000000
vt 0.062500 0.500000
vt 0.158156 0.028269
vt 0.471731 0.158156
vt 0.341844 0.471731
vt 0.062500 1.000000
vt 0.031250 0.500000
vt 0.031250 1.000000
vt 0.000000 0.500000
vt 0.796822 0.014612
vt 0.514612 0.203178
vt 0.703178 0.485388
vt 0.781250 1.000000
vt 0.687500 1.000000
vt 0.562500 1.000000
vt 0.156250 1.000000
vt 0.296822 0.485388
vt 0.250000 0.490000
vt 0.203178 0.485388
vt 0.158156 0.471731
vt 0.116663 0.449553
vt 0.080294 0.419706
vt 0.050447 0.383337
vt 0.028269 0.341844
vt 0.014612 0.296822
vt 0.010000 0.250000
vt 0.014612 0.203178
vt 0.028269 0.158156
vt 0.050447 0.116663
vt 0.080294 0.080294
vt 0.116663 0.050447
vt 0.203178 0.014612
vt 0.250000 0.010000
vt 0.296822 0.014612
vt 0.341844 0.028269
vt 0.383337 0.050447
vt 0.419706 0.080294
vt 0.449553 0.116663
vt 0.485388 0.203178
vt 0.490000 0.250000
vt 0.485388 0.296822
vt 0.471731 0.341844
vt 0.449553 0.383337
vt 0.419706 0.419706
vt 0.383337 0.449553
vt 0.000000 1.000000
vt 0.750000 0.490000
vt 0.796822 0.485388
vt 0.841844 0.471731
vt 0.883337 0.449553
vt 0.919706 0.419706
vt 0.949553 0.383337
vt 0.971731 0.341844
vt 0.985388 0.296822
vt 0.990000 0.250000
vt 0.985388 0.203178
vt 0.971731 0.158156
vt 0.949553 0.116663
vt 0.919706 0.080294
vt 0.883337 0.050447
vt 0.841844 0.028269
vt 0.750000 0.010000
vt 0.703178 0.014612
vt 0.658156 0.028269
vt 0.616663 0.050447
vt 0.580294 0.080294
vt 0.550447 0.116663
vt 0.528269 0.158156
vt 0.510000 0.250000
vt 0.514612 0.296822
vt 0.528269 0.341844
vt 0.550447 0.383337
vt 0.580294 0.419706
vt 0.616663 0.449553
vt 0.658156 0.471731
s 1
f 2/1/1 3/2/2 1/3/2
f 4/4/3 5/5/3 3/2/3
f 6/6/4 7/7/4 5/5/4
f 8/8/5 9/9/5 7/7/5
f 10/10/6 11/11/6 9/9/6
f 12/12/7 13/13/7 11/11/7
f 14/14/8 15/15/9 13/13/9
f 15/15/10 18/16/10 17/17/10
f 17/17/11 20/18/11 19/19/11
f 20/18/12 21/20/13 19/19/13
f 21/20/14 24/21/14 23/22/14
f 24/21/15 25/23/15 23/22/15
f 26/24/16 27/25/16 25/23/16
f 28/26/17 29/27/17 27/25/17
f 29/27/18 32/28/18 31/29/18
f 31/29/19 34/30/20 33/31/19
f 34/30/21 35/32/22 33/31/22
f 36/33/23 37/34/23 35/32/23
f 38/35/24 39/36/24 37/34/24
f 40/37/25 41/38/25 39/36/25
f 42/39/26 43/40/26 41/38/26
f 44/41/27 45/42/27 43/40/27
f 46/43/28 47/44/29 45/42/29
f 48/45/30 49/46/30 47/44/30
f 50/47/31 51/48/31 49/46/31
f 52/49/32 53/50/33 51/48/33
f 54/51/34 55/52/34 53/50/34
f 55/52/35 58/53/35 57/54/35
f 58/53/36 59/55/36 57/54/36
f 60/56/37 61/57/37 59/55/37
f 38/58/38 22/59/39 6/60/39
f 62/61/40 63/62/40 61/57/40
f 64/63/41 1/64/42 63/62/42
f 31/65/43 47/66/43 63/67/43
f 2/1/1 4/4/1 3/2/2
f 4/4/3 6/6/3 5/5/3
f 6/6/4 8/8/4 7/7/4
f 8/8/5 10/10/5 9/9/5
f 10/10/6 12/12/6 11/11/6
f 12/12/7 14/14/7 13/13/7
f 14/14/8 16/68/8 15/15/9
f 15/15/10 16/68/10 18/16/10
f 17/17/11 18/16/11 20/18/11
f 20/18/12 22/69/12 21/20/13
f 21/20/14 22/69/14 24/21/14
f 24/21/15 26/24/15 25/23/15
f 26/24/16 28/26/16 27/25/16
f 28/26/17 30/70/17 29/27/17
f 29/27/18 30/70/18 32/28/18
f 31/29/19 32/28/20 34/30/20
f 34/30/21 36/33/21 35/32/22
f 36/33/23 38/35/23 37/34/23
f 38/35/24 40/37/24 39/36/24
f 40/37/25 42/39/25 41/38/25
f 42/39/26 44/41/26 43/40/26
f 44/41/27 46/43/27 45/42/27
f 46/43/28 48/45/28 47/44/29
f 48/45/30 50/47/30 49/46/30
f 50/47/31 52/49/31 51/48/31
f 52/49/32 54/51/32 53/50/33
f 54/51/34 56/71/34 55/52/34
f 55/52/35 56/71/35 58/53/35
f 58/53/36 60/56/36 59/55/36
f 60/56/37 62/61/37 61/57/37
f 6/60/39 4/72/44 2/73/39
f 2/73/39 64/74/45 62/75/46
f 62/75/46 60/76/47 58/77/48
f 58/77/48 56/78/49 54/79/39
f 54/79/39 52/80/38 50/81/39
f 50/81/39 48/82/39 46/83/39
f 46/83/39 44/84/47 42/85/50
f 42/85/50 40/86/49 38/58/38
f 38/58/38 36/87/51 34/88/39
f 34/88/39 32/89/52 30/90/39
f 30/90/39 28/91/49 26/92/50
f 26/92/50 24/93/47 22/59/39
f 22/59/39 20/94/46 18/95/39
f 18/95/39 16/96/39 14/97/39
f 14/97/39 12/98/49 10/99/48
f 10/99/48 8/100/47 6/60/39
f 6/60/39 2/73/39 62/75/46
f 62/75/46 58/77/48 54/79/39
f 54/79/39 50/81/39 46/83/39
f 46/83/39 42/85/50 38/58/38
f 38/58/38 34/88/39 30/90/39
f 30/90/39 26/92/50 22/59/39
f 22/59/39 18/95/39 14/97/39
f 14/97/39 10/99/48 6/60/39
f 6/60/39 62/75/46 54/79/39
f 54/79/39 46/83/39 38/58/38
f 38/58/38 30/90/39 22/59/39
f 22/59/39 14/97/39 6/60/39
f 6/60/39 54/79/39 38/58/38
f 62/61/40 64/63/40 63/62/40
f 64/63/41 2/101/41 1/64/42
f 63/67/43 1/102/43 3/103/43
f 3/103/43 5/104/43 7/105/43
f 7/105/43 9/106/43 11/107/53
f 11/107/53 13/108/43 15/109/43
f 15/109/43 17/110/43 19/111/43
f 19/111/43 21/112/43 23/113/43
f 23/113/43 25/114/43 27/115/54
f 27/115/54 29/116/43 31/65/43
f 31/65/43 33/117/43 35/118/43
f 35/118/43 37/119/55 39/120/43
f 39/120/43 41/121/43 43/122/43
f 43/122/43 45/123/43 47/66/43
f 47/66/43 49/124/43 51/125/43
f 51/125/43 53/126/43 55/127/43
f 55/127/43 57/128/43 59/129/56
f 59/129/56 61/130/57 63/67/43
f 63/67/43 3/103/43 7/105/43
f 7/105/43 11/107/53 15/109/43
f 15/109/43 19/111/43 23/113/43
f 23/113/43 27/115/54 31/65/43
f 31/65/43 35/118/43 39/120/43
f 39/120/43 43/122/43 47/66/43
f 47/66/43 51/125/43 55/127/43
f 55/127/43 59/129/56 63/67/43
f 63/67/43 7/105/43 15/109/43
f 15/109/43 23/113/43 31/65/43
f 31/65/43 39/120/43 47/66/43
f 47/66/43 55/127/43 63/67/43
f 63/67/43 15/109/43 31/65/43
