# Blender 4.5.4 LTS
# www.blender.org
o Pool
v -24.999996 11.353807 0.000007
v 25.000006 11.353790 -0.000005
v -25.000004 -11.353790 0.000005
v 24.999998 -11.353807 -0.000007
v -24.999996 11.353807 2.146307
v 25.000006 11.353790 2.146295
v -25.000004 -11.353790 2.146305
v 24.999998 -11.353807 2.146293
v -25.152397 11.423020 0.000007
v 25.152403 11.423003 -0.000005
v -25.152405 -11.423005 0.000005
v 25.152395 -11.423022 -0.000007
v -25.152395 11.423019 2.286007
v 25.152403 11.423002 2.285995
v -25.152403 -11.423005 2.286005
v 25.152395 -11.423022 2.285993
vn -0.0000 -0.0000 -1.0000
vn -0.0000 1.0000 -0.0000
vn -0.0000 -1.0000 -0.0000
vn -1.0000 -0.0000 -0.0000
vn 1.0000 -0.0000 -0.0000
vn -0.0000 -0.0000 1.0000
vt 1.000000 0.000000
vt 0.000000 1.000000
vt 0.000000 0.000000
vt 1.000000 1.000000
s 1
f 6/1/1 7/2/1 5/3/1
f 3/2/2 8/4/2 4/4/2
f 2/1/3 5/3/3 1/3/3
f 2/1/4 8/4/4 6/1/4
f 1/3/5 7/2/5 3/2/5
f 15/2/6 14/1/6 13/3/6
f 16/4/3 11/2/3 12/4/3
f 13/3/2 10/1/2 9/3/2
f 14/1/5 12/4/5 10/1/5
f 15/2/4 9/3/4 11/2/4
f 3/2/1 9/3/1 1/3/1
f 1/3/1 10/1/1 2/1/1
f 2/1/1 12/4/1 4/4/1
f 4/4/1 11/2/1 3/2/1
f 6/1/1 8/4/1 7/2/1
f 3/2/2 7/2/2 8/4/2
f 2/1/3 6/1/3 5/3/3
f 2/1/4 4/4/4 8/4/4
f 1/3/5 5/3/5 7/2/5
f 15/2/6 16/4/6 14/1/6
f 16/4/3 15/2/3 11/2/3
f 13/3/2 14/1/2 10/1/2
f 14/1/5 16/4/5 12/4/5
f 15/2/4 13/3/4 9/3/4
f 3/2/1 11/2/1 9/3/1
f 1/3/1 9/3/1 10/1/1
f 2/1/1 10/1/1 12/4/1
f 4/4/1 12/4/1 11/2/1
