# Blender 5.1.2
# www.blender.org
o Plane
v 0.001210 -0.321581 -1.092773
v 0.001210 -0.321581 -0.452773
v 0.001210 0.318419 -1.092773
v 0.001210 0.318419 -0.452773
v -0.001290 0.318419 -1.092773
v -0.001290 -0.321581 -1.092773
v -0.001290 -0.321581 -0.452773
v -0.001290 0.318419 -0.452773
v 0.003710 0.318419 -1.092773
v 0.003710 -0.321581 -1.092773
v 0.003710 -0.321581 -0.452773
v 0.003710 0.318419 -0.452773
v -0.001290 -0.206443 -0.897033
v -0.001290 -0.218617 -0.895834
v -0.001290 -0.194269 -0.895834
v -0.001290 -0.241111 -0.886516
v -0.001290 -0.171775 -0.886516
v -0.001290 -0.230322 -0.892283
v -0.001290 -0.182564 -0.892283
v -0.001290 -0.258327 -0.869300
v -0.001290 -0.154559 -0.869300
v -0.001290 -0.267644 -0.846806
v -0.001290 -0.145242 -0.846806
v -0.001290 -0.264093 -0.858512
v -0.001290 -0.148793 -0.858512
v -0.001290 -0.268843 -0.834633
v -0.001290 -0.250566 -0.878756
v -0.001290 -0.162319 -0.878756
v -0.001290 -0.267644 -0.822459
v -0.001290 -0.145242 -0.822459
v -0.001290 -0.258327 -0.799965
v -0.001290 -0.154559 -0.799965
v -0.001290 -0.264093 -0.810753
v -0.001290 -0.148793 -0.810753
v -0.001290 -0.241111 -0.782749
v -0.001290 -0.171775 -0.782749
v -0.001290 -0.206443 -0.772233
v -0.001290 -0.218617 -0.773432
v -0.001290 -0.223736 -0.774985
v -0.001290 -0.194269 -0.773432
v -0.001290 -0.230322 -0.776983
v -0.001290 -0.182564 -0.776983
v -0.001290 -0.250566 -0.790509
v -0.001290 -0.162319 -0.790509
v -0.001290 -0.144043 -0.834633
v 0.003710 -0.206443 -0.897033
v 0.003710 -0.218617 -0.895834
v 0.003710 -0.194269 -0.895834
v 0.003710 -0.241111 -0.886516
v 0.003710 -0.171775 -0.886516
v 0.003710 -0.230322 -0.892283
v 0.003710 -0.182564 -0.892283
v 0.003710 -0.258327 -0.869300
v 0.003710 -0.154559 -0.869300
v 0.003710 -0.267644 -0.846806
v 0.003710 -0.145242 -0.846806
v 0.003710 -0.264093 -0.858512
v 0.003710 -0.148793 -0.858512
v 0.003710 -0.268843 -0.834633
v 0.003710 -0.250566 -0.878756
v 0.003710 -0.162319 -0.878756
v 0.003710 -0.267644 -0.822459
v 0.003710 -0.145242 -0.822459
v 0.003710 -0.258327 -0.799965
v 0.003710 -0.154559 -0.799965
v 0.003710 -0.264093 -0.810753
v 0.003710 -0.148793 -0.810753
v 0.003710 -0.241111 -0.782749
v 0.003710 -0.171775 -0.782749
v 0.003710 -0.206443 -0.772233
v 0.003710 -0.218617 -0.773432
v 0.003710 -0.223707 -0.774976
v 0.003710 -0.194269 -0.773432
v 0.003710 -0.230322 -0.776983
v 0.003710 -0.182564 -0.776983
v 0.003710 -0.250566 -0.790509
v 0.003710 -0.162319 -0.790509
v 0.003710 -0.144043 -0.834633
v -0.001290 -0.001763 -1.010875
v -0.001290 -0.011459 -1.009920
v -0.001290 0.007933 -1.009920
v -0.001290 -0.020783 -1.007092
v -0.001290 0.017256 -1.007092
v -0.001290 -0.029375 -1.002499
v -0.001290 0.025849 -1.002499
v -0.001290 -0.036906 -0.996318
v -0.001290 0.033380 -0.996318
v -0.001290 -0.047680 -0.980194
v -0.001290 -0.051463 -0.961175
v -0.001290 -0.050508 -0.970871
v -0.001290 -0.043087 -0.988787
v -0.001290 0.039561 -0.988787
v -0.001290 -0.050508 -0.951479
v -0.001290 0.044154 -0.980194
v -0.001290 -0.047680 -0.942155
v -0.001290 -0.046186 -0.939360
v -0.001290 -0.043087 -0.933563
v -0.001290 -0.042049 -0.932298
v -0.001290 0.046982 -0.970871
v -0.001290 -0.036906 -0.926032
v -0.001290 0.047937 -0.961175
v -0.001290 -0.029375 -0.919851
v -0.001290 0.046982 -0.951479
v -0.001290 -0.020783 -0.915258
v -0.001290 0.033380 -0.926032
v -0.001290 0.025849 -0.919851
v -0.001290 0.017256 -0.915258
v -0.001290 0.044154 -0.942155
v -0.001290 -0.011459 -0.912430
v -0.001290 0.039561 -0.933563
v -0.001290 0.007933 -0.912430
v -0.001290 -0.001763 -0.911475
v 0.003710 -0.001763 -1.010875
v 0.003710 -0.011459 -1.009920
v 0.003710 0.007933 -1.009920
v 0.003710 -0.020783 -1.007092
v 0.003710 0.025849 -1.002499
v 0.003710 -0.029375 -1.002499
v 0.003710 0.017256 -1.007092
v 0.003710 -0.036906 -0.996318
v 0.003710 0.039561 -0.988787
v 0.003710 -0.050508 -0.970871
v 0.003710 -0.047680 -0.980194
v 0.003710 0.046982 -0.970871
v 0.003710 -0.043087 -0.988787
v 0.003710 0.044154 -0.980194
v 0.003710 0.033380 -0.996318
v 0.003710 -0.050508 -0.951479
v 0.003710 0.046982 -0.951479
v 0.003710 -0.043087 -0.933563
v 0.003710 0.039561 -0.933563
v 0.003710 -0.047680 -0.942155
v 0.003710 0.044154 -0.942155
v 0.003710 -0.029375 -0.919851
v 0.003710 0.025849 -0.919851
v 0.003710 -0.001763 -0.911475
v 0.003710 0.007933 -0.912430
v 0.003710 -0.011459 -0.912430
v 0.003710 0.017256 -0.915258
v 0.003710 -0.020783 -0.915258
v 0.003710 0.033380 -0.926032
v 0.003710 -0.036906 -0.926032
v 0.003710 -0.051463 -0.961175
v 0.003710 0.047937 -0.961175
v -0.001290 -0.004763 -0.625135
v -0.001290 -0.014459 -0.624180
v -0.001290 0.004933 -0.624180
v -0.001290 -0.032375 -0.616760
v -0.001290 0.022849 -0.616760
v -0.001290 -0.023783 -0.621352
v -0.001290 0.014256 -0.621352
v -0.001290 -0.046087 -0.603047
v -0.001290 0.036561 -0.603047
v -0.001290 -0.053508 -0.585131
v -0.001290 0.043982 -0.585131
v -0.001290 -0.050680 -0.594455
v -0.001290 0.041154 -0.594455
v -0.001290 -0.039906 -0.610579
v -0.001290 0.030380 -0.610579
v -0.001290 -0.053508 -0.565739
v -0.001290 0.043982 -0.565739
v -0.001290 -0.046087 -0.547824
v -0.001290 0.036561 -0.547824
v -0.001290 -0.050680 -0.556416
v -0.001290 0.041154 -0.556416
v -0.001290 -0.032375 -0.534111
v -0.001290 0.022849 -0.534111
v -0.001290 -0.004763 -0.525735
v -0.001290 -0.014459 -0.526690
v -0.001290 0.004933 -0.526690
v -0.001290 -0.023783 -0.529519
v -0.001290 0.014256 -0.529519
v -0.001290 -0.039906 -0.540292
v -0.001290 0.030380 -0.540292
v -0.001290 0.044937 -0.575435
v -0.001290 -0.054463 -0.575435
v 0.003710 -0.004763 -0.625135
v 0.003710 -0.014459 -0.624180
v 0.003710 0.004933 -0.624180
v 0.003710 -0.032375 -0.616760
v 0.003710 0.022849 -0.616760
v 0.003710 -0.023783 -0.621352
v 0.003710 0.014256 -0.621352
v 0.003710 -0.046087 -0.603047
v 0.003710 0.036561 -0.603047
v 0.003710 -0.053508 -0.585131
v 0.003710 0.043982 -0.585131
v 0.003710 -0.050680 -0.594455
v 0.003710 0.041154 -0.594455
v 0.003710 -0.039906 -0.610579
v 0.003710 0.030380 -0.610579
v 0.003710 -0.053508 -0.565739
v 0.003710 0.043982 -0.565739
v 0.003710 -0.046087 -0.547824
v 0.003710 0.036561 -0.547824
v 0.003710 -0.050680 -0.556416
v 0.003710 0.041154 -0.556416
v 0.003710 -0.032375 -0.534111
v 0.003710 0.022849 -0.534111
v 0.003710 -0.004763 -0.525735
v 0.003710 -0.014459 -0.526690
v 0.003710 0.004933 -0.526690
v 0.003710 -0.023783 -0.529519
v 0.003710 0.014256 -0.529519
v 0.003710 -0.039906 -0.540292
v 0.003710 0.030380 -0.540292
v 0.003710 0.044937 -0.575435
v 0.003710 -0.054463 -0.575435
v -0.001290 0.176564 -0.507982
v -0.001290 0.187352 -0.502216
v -0.001290 0.199058 -0.498665
v -0.001290 0.167108 -0.515742
v -0.001290 0.211232 -0.497466
v -0.001290 0.211232 -0.622266
v -0.001290 0.199058 -0.621067
v -0.001290 0.223405 -0.621067
v -0.001290 0.187352 -0.617516
v -0.001290 0.235111 -0.617516
v -0.001290 0.245899 -0.611749
v -0.001290 0.167108 -0.603989
v -0.001290 0.255355 -0.603989
v -0.001290 0.153582 -0.583745
v -0.001290 0.268882 -0.583745
v -0.001290 0.159348 -0.594533
v -0.001290 0.263115 -0.594533
v -0.001290 0.176564 -0.611749
v -0.001290 0.273632 -0.559866
v -0.001290 0.150031 -0.547692
v -0.001290 0.268882 -0.535986
v -0.001290 0.149356 -0.565190
v -0.001290 0.148832 -0.559866
v -0.001290 0.272433 -0.547692
v -0.001290 0.255355 -0.515742
v -0.001290 0.159348 -0.525198
v -0.001290 0.235111 -0.502216
v -0.001290 0.223405 -0.498665
v -0.001290 0.245899 -0.507982
v -0.001290 0.263115 -0.525198
v -0.001290 0.153582 -0.535986
v -0.001290 0.272433 -0.572039
v -0.001290 0.150031 -0.572039
v 0.003710 0.176564 -0.507982
v 0.003710 0.187352 -0.502216
v 0.003710 0.199058 -0.498665
v 0.003710 0.167108 -0.515742
v 0.003710 0.211232 -0.497466
v 0.003710 0.235111 -0.617516
v 0.003710 0.255355 -0.603989
v 0.003710 0.245899 -0.611749
v 0.003710 0.263115 -0.594533
v 0.003710 0.272433 -0.572039
v 0.003710 0.268882 -0.583745
v 0.003710 0.272433 -0.547692
v 0.003710 0.273632 -0.559866
v 0.003710 0.211232 -0.622266
v 0.003710 0.187352 -0.617516
v 0.003710 0.176564 -0.611749
v 0.003710 0.199058 -0.621067
v 0.003710 0.159348 -0.594533
v 0.003710 0.167108 -0.603989
v 0.003710 0.153582 -0.583745
v 0.003710 0.148832 -0.559866
v 0.003710 0.149353 -0.565159
v 0.003710 0.150031 -0.572039
v 0.003710 0.150031 -0.547692
v 0.003710 0.159348 -0.525198
v 0.003710 0.153582 -0.535986
v 0.003710 0.245899 -0.507982
v 0.003710 0.255355 -0.515742
v 0.003710 0.223405 -0.498665
v 0.003710 0.235111 -0.502216
v 0.003710 0.263115 -0.525198
v 0.003710 0.268882 -0.535986
v 0.003710 0.223405 -0.621067
vn -0.0000 -1.0000 -0.0000
vn -1.0000 -0.0000 -0.0000
vn -0.0000 1.0000 -0.0000
vn -0.0000 -0.0000 1.0000
vn -0.0000 -0.0000 -1.0000
vn 1.0000 -0.0000 -0.0000
vn -0.0000 -0.9952 -0.0980
vn -0.0000 -0.9569 -0.2903
vn -0.0000 -0.8819 -0.4714
vn -0.0000 -0.7730 -0.6344
vn -0.0000 -0.6344 -0.7730
vn -0.0000 -0.4713 -0.8820
vn -0.0000 -0.2903 -0.9569
vn -0.0000 -0.0980 -0.9952
vn -0.0000 0.0980 -0.9952
vn -0.0000 0.2903 -0.9569
vn -0.0000 0.4713 -0.8820
vn -0.0000 0.6344 -0.7730
vn -0.0000 0.7730 -0.6344
vn -0.0000 0.8819 -0.4714
vn -0.0000 0.9569 -0.2903
vn -0.0000 0.9952 -0.0980
vn -0.0000 0.9952 0.0980
vn -0.0000 0.9569 0.2903
vn -0.0000 0.8819 0.4714
vn -0.0000 0.7730 0.6344
vn -0.0000 0.6344 0.7730
vn -0.0000 0.4714 0.8819
vn -0.0000 0.2903 0.9569
vn -0.0000 0.0980 0.9952
vn -0.0000 -0.0980 0.9952
vn -0.0000 -0.2903 0.9569
vn -0.0000 -0.4714 0.8819
vn -0.0000 -0.6344 0.7730
vn -0.0000 -0.7730 0.6344
vn -0.0000 -0.8819 0.4714
vn -0.0000 -0.9569 0.2903
vn -0.0000 -0.9952 0.0980
vn -0.0000 -0.9570 -0.2902
vn -0.0000 -0.4714 -0.8819
vn -0.0000 0.2902 -0.9570
vn -0.0000 0.4714 -0.8819
vn -0.0000 0.9570 -0.2902
vn -0.0000 0.2902 0.9570
vn -0.0000 -0.2904 -0.9569
vn -0.0000 0.9570 0.2902
vn -0.0000 -0.4713 0.8820
vn -0.0000 -0.9570 0.2902
vn -0.0000 0.7731 -0.6343
vn -0.0000 0.9952 0.0981
vn -0.0000 0.9952 0.0979
vt 0.000000 0.000000
vt 1.000000 0.000000
vt 0.403344 0.082403
vt 0.384323 0.084277
vt 0.248766 0.435147
vt 0.334401 0.248846
vt 0.250742 0.436768
vt 0.498971 0.198924
vt 0.500844 0.179903
vt 0.823490 0.418864
vt 0.838058 0.566773
vt 0.922746 0.795208
vt 0.913736 0.778352
vt 1.000000 1.000000
vt 0.885996 0.495028
vt 0.000000 1.000000
vt 0.307718 0.160882
vt 0.205622 0.422059
vt 0.220772 0.423551
vt 0.901611 0.763577
vt 0.913736 0.778351
vt 0.127966 0.499715
vt 0.422365 0.084277
vt 0.968750 0.718686
vt 1.000000 0.717436
vt 0.968750 0.717436
vt 0.937500 0.718686
vt 0.937500 0.717436
vt 0.906250 0.718686
vt 0.906250 0.717436
vt 0.875000 0.718686
vt 0.875000 0.717436
vt 0.843750 0.717436
vt 0.843750 0.718686
vt 0.812500 0.717436
vt 0.812500 0.718686
vt 0.781250 0.717436
vt 0.781250 0.718686
vt 0.750000 0.717436
vt 0.750000 0.718686
vt 0.718750 0.717436
vt 0.718750 0.718686
vt 0.705160 0.717436
vt 0.705082 0.718686
vt 0.687500 0.718686
vt 0.656250 0.717436
vt 0.656250 0.718686
vt 0.625000 0.717436
vt 0.625000 0.718686
vt 0.593750 0.717436
vt 0.593750 0.718686
vt 0.562500 0.717436
vt 0.562500 0.718686
vt 0.531250 0.717436
vt 0.531250 0.718686
vt 0.500000 0.717436
vt 0.500000 0.718686
vt 0.468750 0.717436
vt 0.468750 0.718686
vt 0.437500 0.717436
vt 0.437500 0.718686
vt 0.406250 0.717436
vt 0.406250 0.718686
vt 0.375000 0.717436
vt 0.375000 0.718686
vt 0.343750 0.718686
vt 0.343750 0.717436
vt 0.312500 0.718686
vt 0.312500 0.717436
vt 0.281250 0.718686
vt 0.281250 0.717436
vt 0.250000 0.718686
vt 0.250000 0.717436
vt 0.218750 0.718686
vt 0.218750 0.717436
vt 0.187500 0.718686
vt 0.187500 0.717436
vt 0.156250 0.718686
vt 0.156250 0.717436
vt 0.125000 0.718686
vt 0.125000 0.717436
vt 0.093750 0.718686
vt 0.093750 0.717436
vt 0.062500 0.718686
vt 0.062500 0.717436
vt 0.031250 0.718686
vt 0.031250 0.717436
vt 0.000000 0.718686
vt 0.000000 0.717436
vt 0.968750 0.710080
vt 1.000000 0.708830
vt 0.968750 0.708830
vt 0.937500 0.710080
vt 0.937500 0.708830
vt 0.906250 0.710080
vt 0.906250 0.708830
vt 0.875000 0.710080
vt 0.875000 0.708830
vt 0.843750 0.708830
vt 0.843750 0.710080
vt 0.812500 0.708830
vt 0.812500 0.710080
vt 0.781250 0.708830
vt 0.781250 0.710080
vt 0.750000 0.708830
vt 0.750000 0.710080
vt 0.718750 0.708830
vt 0.718750 0.710080
vt 0.687500 0.708830
vt 0.687500 0.710080
vt 0.656250 0.708830
vt 0.656250 0.710080
vt 0.625000 0.708830
vt 0.625000 0.710080
vt 0.593750 0.708830
vt 0.598997 0.710080
vt 0.562500 0.708830
vt 0.572666 0.710080
vt 0.593750 0.710080
vt 0.562500 0.710080
vt 0.531250 0.708830
vt 0.531250 0.710080
vt 0.500000 0.708830
vt 0.500000 0.710080
vt 0.468750 0.708830
vt 0.468750 0.710080
vt 0.437500 0.708830
vt 0.437500 0.710080
vt 0.406250 0.708830
vt 0.406250 0.710080
vt 0.375000 0.708830
vt 0.375000 0.710080
vt 0.343750 0.710080
vt 0.343750 0.708830
vt 0.312500 0.710080
vt 0.312500 0.708830
vt 0.281250 0.710080
vt 0.281250 0.708830
vt 0.250000 0.710080
vt 0.250000 0.708830
vt 0.218750 0.710080
vt 0.218750 0.708830
vt 0.187500 0.710080
vt 0.187500 0.708830
vt 0.156250 0.710080
vt 0.156250 0.708830
vt 0.125000 0.710080
vt 0.125000 0.708830
vt 0.093750 0.710080
vt 0.093750 0.708830
vt 0.062500 0.710080
vt 0.062500 0.708830
vt 0.031250 0.710080
vt 0.031250 0.708830
vt 0.000000 0.710080
vt 0.000000 0.708830
vt 0.687500 0.717436
vt 0.486332 0.718686
vt 0.486410 0.717436
vt 0.322276 0.125735
vt 0.313266 0.142592
vt 0.496544 0.152882
vt 0.493422 0.142592
vt 0.484412 0.125735
vt 0.334401 0.110960
vt 0.349176 0.098835
vt 0.472287 0.110960
vt 0.457512 0.098835
vt 0.366033 0.089825
vt 0.440656 0.089825
vt 0.239708 0.430305
vt 0.349176 0.260971
vt 0.886836 0.913588
vt 0.901611 0.901463
vt 0.305844 0.179903
vt 0.869980 0.922598
vt 0.851689 0.928146
vt 0.307718 0.198924
vt 0.313266 0.217215
vt 0.832668 0.930020
vt 0.813647 0.928146
vt 0.322276 0.234071
vt 0.235340 0.427970
vt 0.795356 0.922598
vt 0.778500 0.913588
vt 0.763725 0.901463
vt 0.190472 0.423551
vt 0.751600 0.886688
vt 0.742590 0.869831
vt 0.175904 0.427970
vt 0.162479 0.435147
vt 0.737042 0.851541
vt 0.735168 0.832519
vt 0.150711 0.444804
vt 0.141054 0.456572
vt 0.737041 0.813498
vt 0.742590 0.795208
vt 0.133877 0.469998
vt 0.129458 0.484565
vt 0.751600 0.778351
vt 0.763725 0.763577
vt 0.778500 0.751452
vt 0.795356 0.742441
vt 0.129458 0.514865
vt 0.133877 0.529433
vt 0.141053 0.542859
vt 0.150711 0.554627
vt 0.162479 0.564284
vt 0.175905 0.571460
vt 0.190472 0.575879
vt 0.205622 0.577371
vt 0.220772 0.575880
vt 0.808340 0.572684
vt 0.824349 0.735839
vt 0.813647 0.736893
vt 0.235340 0.571460
vt 0.793190 0.571192
vt 0.778622 0.566773
vt 0.248766 0.564284
vt 0.260534 0.554627
vt 0.765196 0.559597
vt 0.753429 0.549939
vt 0.270191 0.542859
vt 0.277367 0.529433
vt 0.743771 0.538171
vt 0.736595 0.524746
vt 0.281786 0.514866
vt 0.283278 0.499715
vt 0.281786 0.484565
vt 0.732176 0.510178
vt 0.277367 0.469998
vt 0.730684 0.495028
vt 0.270191 0.456572
vt 0.732176 0.479878
vt 0.260534 0.444804
vt 0.736595 0.465310
vt 0.366033 0.269981
vt 0.384323 0.275530
vt 0.743771 0.451884
vt 0.753429 0.440116
vt 0.403344 0.277403
vt 0.422365 0.275530
vt 0.765197 0.430459
vt 0.778622 0.423283
vt 0.440656 0.269981
vt 0.457512 0.260971
vt 0.793190 0.418864
vt 0.808340 0.417372
vt 0.472287 0.248846
vt 0.838058 0.423283
vt 0.484412 0.234071
vt 0.498971 0.160882
vt 0.493422 0.217215
vt 0.832668 0.735020
vt 0.823490 0.571192
vt 0.851689 0.736893
vt 0.913736 0.886688
vt 0.922747 0.869832
vt 0.869980 0.742442
vt 0.928295 0.851541
vt 0.930168 0.832519
vt 0.886836 0.751452
vt 0.928294 0.813498
vt 0.851483 0.430459
vt 0.851483 0.559597
vt 0.863251 0.549939
vt 0.863251 0.440117
vt 0.872909 0.451884
vt 0.872909 0.538171
vt 0.880085 0.524746
vt 0.880085 0.465310
vt 0.884504 0.479878
vt 0.884504 0.510178
vt 0.824396 0.735834
vt 0.795357 0.742441
vt 0.778500 0.751451
vt 0.751600 0.778352
vt 0.737042 0.813498
vt 0.735168 0.832520
vt 0.496558 0.152928
vt 0.765196 0.430459
vt 0.753429 0.440117
vt 0.737041 0.851541
vt 0.901611 0.901462
vt 0.190472 0.575880
vt 0.175904 0.571460
vt 0.205622 0.577372
vt 0.869979 0.922598
vt 0.220772 0.575879
vt 0.813646 0.928146
vt 0.778499 0.913588
vt 0.281786 0.514865
vt 0.283279 0.499715
vt 0.175905 0.427970
vt 0.930168 0.832520
vt 0.869980 0.742441
vt 0.886836 0.751451
vt 0.851484 0.430459
vt 0.863251 0.440116
vt 0.141053 0.456572
vt 1.000000 0.718686
vt 1.000000 0.710080
s 1
f 1/1/1 11/2/1 2/2/1
f 7/2/2 26/3/2 22/4/2
f 97/5/2 28/6/2 98/7/2
f 40/8/2 37/9/2 160/10/2
f 165/11/2 210/12/2 209/13/2
f 7/2/2 8/14/2 168/15/2
f 3/16/3 8/14/3 4/14/3
f 2/2/1 6/1/1 1/1/1
f 4/14/4 7/2/4 2/2/4
f 1/1/5 5/16/5 3/16/5
f 47/17/6 143/18/6 128/19/6
f 197/11/6 245/20/6 242/21/6
f 12/14/6 11/2/6 200/15/6
f 10/1/6 9/16/6 113/22/6
f 11/2/6 10/1/6 62/23/6
f 2/2/4 12/14/4 4/14/4
f 3/16/5 10/1/5 1/1/5
f 4/14/3 9/16/3 3/16/3
f 30/24/7 78/25/7 63/26/7
f 34/27/8 63/26/8 67/28/8
f 32/29/9 67/28/9 65/30/9
f 44/31/10 65/30/10 77/32/10
f 44/31/11 69/33/11 36/34/11
f 36/34/12 75/35/12 42/36/12
f 42/36/13 73/37/13 40/38/13
f 40/38/14 70/39/14 37/40/14
f 37/40/15 71/41/15 38/42/15
f 72/43/16 39/44/16 71/41/16
f 41/45/17 68/46/17 35/47/17
f 35/47/18 76/48/18 43/49/18
f 43/49/19 64/50/19 31/51/19
f 31/51/20 66/52/20 33/53/20
f 33/53/21 62/54/21 29/55/21
f 29/55/22 59/56/22 26/57/22
f 26/57/23 55/58/23 22/59/23
f 22/59/24 57/60/24 24/61/24
f 24/61/25 53/62/25 20/63/25
f 20/63/26 60/64/26 27/65/26
f 16/66/27 60/64/27 49/67/27
f 18/68/28 49/67/28 51/69/28
f 14/70/29 51/69/29 47/71/29
f 13/72/30 47/71/30 46/73/30
f 15/74/31 46/73/31 48/75/31
f 19/76/32 48/75/32 52/77/32
f 17/78/33 52/77/33 50/79/33
f 28/80/34 50/79/34 61/81/34
f 21/82/35 61/81/35 54/83/35
f 25/84/36 54/83/36 58/85/36
f 23/86/37 58/85/37 56/87/37
f 45/88/38 56/87/38 78/89/38
f 103/90/7 144/91/7 129/92/7
f 108/93/39 129/92/39 133/94/39
f 110/95/9 133/94/9 131/96/9
f 105/97/10 131/96/10 141/98/10
f 105/97/11 135/99/11 106/100/11
f 106/100/40 139/101/40 107/102/40
f 107/102/13 137/103/13 111/104/13
f 111/104/14 136/105/14 112/106/14
f 112/106/15 138/107/15 109/108/15
f 109/108/41 140/109/41 104/110/41
f 104/110/42 134/111/42 102/112/42
f 102/112/18 142/113/18 100/114/18
f 130/115/19 98/116/19 100/114/19
f 132/117/20 96/118/20 97/119/20
f 95/120/43 128/121/43 93/122/43
f 93/122/22 143/123/22 89/124/22
f 89/124/23 122/125/23 90/126/23
f 90/126/24 123/127/24 88/128/24
f 88/128/25 125/129/25 91/130/25
f 91/130/26 120/131/26 86/132/26
f 84/133/27 120/131/27 118/134/27
f 82/135/28 118/134/28 116/136/28
f 80/137/44 116/136/44 114/138/44
f 79/139/30 114/138/30 113/140/30
f 81/141/31 113/140/31 115/142/31
f 83/143/32 115/142/32 119/144/32
f 85/145/33 119/144/33 117/146/33
f 87/147/34 117/146/34 127/148/34
f 92/149/35 127/148/35 121/150/35
f 94/151/36 121/150/36 126/152/36
f 99/153/37 126/152/37 124/154/37
f 101/155/38 124/154/38 144/156/38
f 161/90/7 207/91/7 193/92/7
f 165/93/8 193/92/8 197/94/8
f 163/95/9 197/94/9 195/96/9
f 174/97/10 195/96/10 206/98/10
f 174/97/11 199/99/11 167/100/11
f 167/100/12 204/101/12 172/102/12
f 172/102/45 202/103/45 170/104/45
f 170/104/14 200/105/14 168/106/14
f 168/106/15 201/107/15 169/108/15
f 169/108/16 203/109/16 171/110/16
f 171/110/42 198/111/42 166/112/42
f 166/112/18 205/113/18 173/114/18
f 173/114/19 194/115/19 162/119/19
f 162/119/20 196/117/20 164/120/20
f 164/120/21 192/121/21 160/122/21
f 160/122/22 208/123/22 176/124/22
f 176/124/23 186/125/23 154/126/23
f 154/126/46 188/127/46 156/128/46
f 156/128/25 184/129/25 152/130/25
f 152/130/26 190/131/26 158/132/26
f 148/133/27 190/131/27 180/134/27
f 150/135/28 180/134/28 182/136/28
f 146/137/44 182/136/44 178/138/44
f 145/139/30 178/138/30 177/140/30
f 147/141/31 177/140/31 179/142/31
f 151/143/32 179/142/32 183/144/32
f 149/145/47 183/144/47 181/146/47
f 159/147/34 181/146/34 191/148/34
f 153/149/35 191/148/35 185/150/35
f 157/151/36 185/150/36 189/152/36
f 155/153/48 189/152/48 187/154/48
f 175/155/38 187/154/38 207/156/38
f 232/24/7 254/25/7 253/26/7
f 229/27/8 253/26/8 273/28/8
f 238/29/9 273/28/9 272/30/9
f 233/31/10 272/30/10 269/32/10
f 233/31/11 268/33/11 237/34/11
f 237/34/40 271/35/40 235/36/40
f 235/36/13 270/37/13 236/38/13
f 236/38/14 246/39/14 213/40/14
f 213/40/15 244/41/15 211/42/15
f 211/42/16 243/157/16 210/45/16
f 210/45/42 242/46/42 209/47/42
f 209/47/18 245/48/18 212/49/18
f 212/49/19 266/50/19 234/51/19
f 234/51/20 267/52/20 239/53/20
f 239/53/21 265/54/21 228/55/21
f 228/55/22 262/56/22 231/57/22
f 230/158/23 262/56/23 263/159/23
f 241/59/24 261/60/24 222/61/24
f 222/61/25 259/62/25 224/63/25
f 224/63/26 260/64/26 220/65/26
f 226/66/27 260/64/27 257/67/27
f 217/68/28 257/67/28 256/69/28
f 215/70/29 256/69/29 258/71/29
f 214/72/30 258/71/30 255/73/30
f 216/74/31 255/73/31 274/75/31
f 218/76/32 274/75/32 247/77/32
f 219/78/33 247/77/33 249/79/33
f 221/80/34 249/79/34 248/81/34
f 225/82/35 248/81/35 250/83/35
f 223/84/36 250/83/36 252/85/36
f 240/86/37 252/85/37 251/87/37
f 227/88/38 251/87/38 254/89/38
f 1/1/1 10/1/1 11/2/1
f 16/160/2 18/161/2 6/1/2
f 7/2/2 39/162/2 41/163/2
f 7/2/2 41/163/2 35/164/2
f 27/165/2 16/160/2 6/1/2
f 20/166/2 27/165/2 6/1/2
f 7/2/2 35/164/2 43/167/2
f 7/2/2 43/167/2 31/168/2
f 24/169/2 20/166/2 6/1/2
f 22/4/2 24/169/2 6/1/2
f 7/2/2 31/168/2 33/170/2
f 7/2/2 33/170/2 29/23/2
f 22/4/2 6/1/2 7/2/2
f 7/2/2 29/23/2 26/3/2
f 97/5/2 96/171/2 28/6/2
f 28/6/2 21/172/2 98/7/2
f 238/173/2 233/174/2 8/14/2
f 6/1/2 18/161/2 14/17/2
f 6/1/2 14/17/2 13/175/2
f 229/176/2 238/173/2 8/14/2
f 232/177/2 229/176/2 8/14/2
f 6/1/2 13/175/2 15/178/2
f 6/1/2 15/178/2 19/179/2
f 227/180/2 232/177/2 8/14/2
f 240/181/2 227/180/2 8/14/2
f 6/1/2 19/179/2 17/182/2
f 17/182/2 28/6/2 96/171/2
f 17/182/2 96/171/2 95/183/2
f 240/181/2 8/14/2 5/16/2
f 223/184/2 240/181/2 5/16/2
f 6/1/2 17/182/2 95/183/2
f 6/1/2 95/183/2 93/19/2
f 225/185/2 223/184/2 5/16/2
f 221/186/2 225/185/2 5/16/2
f 6/1/2 93/19/2 89/18/2
f 6/1/2 89/18/2 90/187/2
f 219/188/2 221/186/2 5/16/2
f 218/189/2 219/188/2 5/16/2
f 6/1/2 90/187/2 88/190/2
f 6/1/2 88/190/2 91/191/2
f 216/192/2 218/189/2 5/16/2
f 214/193/2 216/192/2 5/16/2
f 6/1/2 91/191/2 86/194/2
f 6/1/2 86/194/2 84/195/2
f 215/196/2 214/193/2 5/16/2
f 217/197/2 215/196/2 5/16/2
f 6/1/2 84/195/2 82/198/2
f 6/1/2 82/198/2 80/199/2
f 226/200/2 217/197/2 5/16/2
f 220/201/2 226/200/2 5/16/2
f 5/16/2 6/1/2 80/199/2
f 5/16/2 80/199/2 79/22/2
f 224/202/2 220/201/2 5/16/2
f 222/203/2 224/202/2 5/16/2
f 5/16/2 79/22/2 81/204/2
f 5/16/2 81/204/2 83/205/2
f 5/16/2 83/205/2 85/206/2
f 5/16/2 85/206/2 87/207/2
f 5/16/2 87/207/2 92/208/2
f 5/16/2 92/208/2 94/209/2
f 5/16/2 94/209/2 99/210/2
f 5/16/2 99/210/2 101/211/2
f 222/203/2 5/16/2 101/211/2
f 222/203/2 101/211/2 103/212/2
f 175/213/2 230/214/2 241/215/2
f 241/215/2 222/203/2 103/212/2
f 241/215/2 103/212/2 108/216/2
f 155/217/2 175/213/2 241/215/2
f 157/218/2 155/217/2 241/215/2
f 241/215/2 108/216/2 110/219/2
f 241/215/2 110/219/2 105/220/2
f 153/221/2 157/218/2 241/215/2
f 159/222/2 153/221/2 241/215/2
f 241/215/2 105/220/2 106/223/2
f 241/215/2 106/223/2 107/224/2
f 149/225/2 159/222/2 241/215/2
f 151/226/2 149/225/2 241/215/2
f 241/215/2 107/224/2 111/227/2
f 241/215/2 111/227/2 112/228/2
f 151/226/2 241/215/2 112/228/2
f 151/226/2 112/228/2 109/229/2
f 147/230/2 151/226/2 109/229/2
f 147/230/2 109/229/2 104/231/2
f 145/232/2 147/230/2 104/231/2
f 145/232/2 104/231/2 102/233/2
f 146/234/2 145/232/2 102/233/2
f 100/235/2 98/7/2 21/172/2
f 146/234/2 102/233/2 100/235/2
f 150/236/2 146/234/2 100/235/2
f 100/235/2 21/172/2 25/237/2
f 100/235/2 25/237/2 23/238/2
f 148/239/2 150/236/2 100/235/2
f 158/240/2 148/239/2 100/235/2
f 100/235/2 23/238/2 45/241/2
f 100/235/2 45/241/2 30/242/2
f 152/243/2 158/240/2 100/235/2
f 156/244/2 152/243/2 100/235/2
f 100/235/2 30/242/2 34/245/2
f 100/235/2 34/245/2 32/246/2
f 154/247/2 156/244/2 100/235/2
f 176/248/2 154/247/2 100/235/2
f 100/235/2 32/246/2 44/249/2
f 176/248/2 100/235/2 44/249/2
f 7/2/2 164/250/2 160/10/2
f 160/10/2 176/248/2 44/249/2
f 160/10/2 44/249/2 36/251/2
f 39/162/2 7/2/2 160/10/2
f 38/252/2 39/162/2 160/10/2
f 160/10/2 36/251/2 42/253/2
f 160/10/2 42/253/2 40/8/2
f 37/9/2 38/252/2 160/10/2
f 231/254/2 230/214/2 175/213/2
f 231/254/2 175/213/2 161/255/2
f 228/256/2 231/254/2 161/255/2
f 8/14/2 233/174/2 237/257/2
f 8/14/2 237/257/2 235/258/2
f 228/256/2 161/255/2 165/11/2
f 239/259/2 228/256/2 165/11/2
f 8/14/2 235/258/2 236/260/2
f 8/14/2 236/260/2 213/261/2
f 234/262/2 239/259/2 165/11/2
f 212/20/2 234/262/2 165/11/2
f 8/14/2 213/261/2 211/263/2
f 8/14/2 211/263/2 210/12/2
f 209/13/2 212/20/2 165/11/2
f 165/11/2 8/14/2 210/12/2
f 162/264/2 164/250/2 7/2/2
f 8/14/2 165/11/2 163/265/2
f 8/14/2 163/265/2 174/266/2
f 173/267/2 162/264/2 7/2/2
f 166/268/2 173/267/2 7/2/2
f 8/14/2 174/266/2 167/269/2
f 8/14/2 167/269/2 172/270/2
f 171/271/2 166/268/2 7/2/2
f 169/272/2 171/271/2 7/2/2
f 8/14/2 172/270/2 170/273/2
f 168/15/2 169/272/2 7/2/2
f 8/14/2 170/273/2 168/15/2
f 3/16/3 5/16/3 8/14/3
f 2/2/1 7/2/1 6/1/1
f 4/14/4 8/14/4 7/2/4
f 1/1/5 6/1/5 5/16/5
f 264/215/6 263/274/6 207/213/6
f 264/215/6 207/213/6 187/217/6
f 261/275/6 264/215/6 187/217/6
f 261/275/6 187/217/6 189/218/6
f 259/276/6 261/275/6 189/218/6
f 259/276/6 189/218/6 185/221/6
f 260/201/6 259/276/6 185/221/6
f 260/201/6 185/221/6 191/222/6
f 257/277/6 260/201/6 191/222/6
f 257/277/6 191/222/6 181/225/6
f 256/197/6 257/277/6 181/225/6
f 256/197/6 181/225/6 183/226/6
f 258/278/6 256/197/6 183/226/6
f 258/278/6 183/226/6 179/230/6
f 255/279/6 258/278/6 179/230/6
f 255/279/6 179/230/6 177/232/6
f 192/10/6 196/250/6 11/2/6
f 11/2/6 72/280/6 71/252/6
f 11/2/6 71/252/6 70/9/6
f 208/248/6 192/10/6 11/2/6
f 186/247/6 208/248/6 11/2/6
f 11/2/6 70/9/6 73/8/6
f 11/2/6 73/8/6 75/253/6
f 188/244/6 186/247/6 11/2/6
f 184/281/6 188/244/6 11/2/6
f 11/2/6 75/253/6 69/251/6
f 11/2/6 69/251/6 77/249/6
f 190/282/6 184/281/6 11/2/6
f 180/239/6 190/282/6 11/2/6
f 11/2/6 77/249/6 65/246/6
f 11/2/6 65/246/6 67/245/6
f 180/239/6 11/2/6 67/245/6
f 180/239/6 67/245/6 63/242/6
f 182/236/6 180/239/6 63/242/6
f 182/236/6 63/242/6 78/241/6
f 178/234/6 182/236/6 78/241/6
f 178/234/6 78/241/6 56/238/6
f 177/232/6 178/234/6 56/238/6
f 177/232/6 56/238/6 58/237/6
f 255/279/6 177/232/6 58/237/6
f 255/279/6 58/237/6 54/172/6
f 274/283/6 255/279/6 54/172/6
f 274/283/6 54/172/6 61/6/6
f 247/189/6 274/283/6 61/6/6
f 247/189/6 61/6/6 50/182/6
f 249/188/6 247/189/6 50/182/6
f 12/14/6 269/284/6 272/173/6
f 124/285/6 126/286/6 9/16/6
f 144/287/6 124/285/6 9/16/6
f 12/14/6 272/173/6 273/288/6
f 12/14/6 273/288/6 253/177/6
f 129/289/6 144/287/6 9/16/6
f 133/216/6 129/289/6 9/16/6
f 12/14/6 253/177/6 254/180/6
f 12/14/6 254/180/6 251/290/6
f 131/219/6 133/216/6 9/16/6
f 141/220/6 131/219/6 9/16/6
f 9/16/6 12/14/6 251/290/6
f 9/16/6 251/290/6 252/184/6
f 135/223/6 141/220/6 9/16/6
f 9/16/6 252/184/6 250/291/6
f 9/16/6 250/291/6 248/186/6
f 135/223/6 9/16/6 248/186/6
f 135/223/6 248/186/6 249/188/6
f 139/224/6 135/223/6 249/188/6
f 137/292/6 139/224/6 249/188/6
f 136/293/6 137/292/6 249/188/6
f 136/293/6 249/188/6 50/182/6
f 138/229/6 136/293/6 50/182/6
f 138/229/6 50/182/6 52/179/6
f 140/231/6 138/229/6 52/179/6
f 140/231/6 52/179/6 48/178/6
f 134/233/6 140/231/6 48/178/6
f 134/233/6 48/178/6 46/175/6
f 142/235/6 134/233/6 46/175/6
f 47/17/6 51/161/6 10/1/6
f 142/235/6 46/175/6 47/17/6
f 130/5/6 142/235/6 47/17/6
f 47/17/6 10/1/6 123/294/6
f 47/17/6 123/294/6 122/187/6
f 132/183/6 130/5/6 47/17/6
f 128/19/6 132/183/6 47/17/6
f 47/17/6 122/187/6 143/18/6
f 268/257/6 269/284/6 12/14/6
f 193/255/6 207/213/6 263/274/6
f 193/255/6 263/274/6 262/254/6
f 271/258/6 268/257/6 12/14/6
f 270/260/6 271/258/6 12/14/6
f 197/11/6 193/255/6 262/254/6
f 197/11/6 262/254/6 265/256/6
f 246/295/6 270/260/6 12/14/6
f 244/263/6 246/295/6 12/14/6
f 197/11/6 265/256/6 267/296/6
f 197/11/6 267/296/6 266/297/6
f 243/12/6 244/263/6 12/14/6
f 243/12/6 12/14/6 197/11/6
f 197/11/6 266/297/6 245/20/6
f 242/21/6 243/12/6 197/11/6
f 195/265/6 197/11/6 12/14/6
f 11/2/6 196/250/6 194/298/6
f 11/2/6 194/298/6 205/299/6
f 206/266/6 195/265/6 12/14/6
f 199/269/6 206/266/6 12/14/6
f 11/2/6 205/299/6 198/268/6
f 11/2/6 198/268/6 203/271/6
f 204/270/6 199/269/6 12/14/6
f 202/273/6 204/270/6 12/14/6
f 11/2/6 203/271/6 201/272/6
f 200/15/6 202/273/6 12/14/6
f 11/2/6 201/272/6 200/15/6
f 125/191/6 123/294/6 10/1/6
f 9/16/6 126/286/6 121/208/6
f 9/16/6 121/208/6 127/207/6
f 120/194/6 125/191/6 10/1/6
f 118/300/6 120/194/6 10/1/6
f 9/16/6 127/207/6 117/206/6
f 9/16/6 117/206/6 119/205/6
f 116/198/6 118/300/6 10/1/6
f 114/199/6 116/198/6 10/1/6
f 9/16/6 119/205/6 115/204/6
f 113/22/6 114/199/6 10/1/6
f 9/16/6 115/204/6 113/22/6
f 74/163/6 72/280/6 11/2/6
f 10/1/6 51/161/6 49/160/6
f 10/1/6 49/160/6 60/165/6
f 68/164/6 74/163/6 11/2/6
f 76/167/6 68/164/6 11/2/6
f 10/1/6 60/165/6 53/166/6
f 10/1/6 53/166/6 57/169/6
f 64/168/6 76/167/6 11/2/6
f 66/170/6 64/168/6 11/2/6
f 10/1/6 57/169/6 55/4/6
f 10/1/6 55/4/6 59/3/6
f 62/23/6 66/170/6 11/2/6
f 10/1/6 59/3/6 62/23/6
f 2/2/4 11/2/4 12/14/4
f 3/16/5 9/16/5 10/1/5
f 4/14/3 12/14/3 9/16/3
f 30/24/7 45/301/7 78/25/7
f 34/27/8 30/24/8 63/26/8
f 32/29/9 34/27/9 67/28/9
f 44/31/10 32/29/10 65/30/10
f 44/31/11 77/32/11 69/33/11
f 36/34/12 69/33/12 75/35/12
f 42/36/13 75/35/13 73/37/13
f 40/38/14 73/37/14 70/39/14
f 37/40/15 70/39/15 71/41/15
f 72/43/16 74/157/16 41/45/16
f 39/44/16 38/42/16 71/41/16
f 72/43/16 41/45/16 39/44/16
f 41/45/17 74/157/17 68/46/17
f 35/47/18 68/46/18 76/48/18
f 43/49/19 76/48/19 64/50/19
f 31/51/20 64/50/20 66/52/20
f 33/53/21 66/52/21 62/54/21
f 29/55/22 62/54/22 59/56/22
f 26/57/23 59/56/23 55/58/23
f 22/59/24 55/58/24 57/60/24
f 24/61/25 57/60/25 53/62/25
f 20/63/26 53/62/26 60/64/26
f 16/66/27 27/65/27 60/64/27
f 18/68/28 16/66/28 49/67/28
f 14/70/29 18/68/29 51/69/29
f 13/72/30 14/70/30 47/71/30
f 15/74/31 13/72/31 46/73/31
f 19/76/32 15/74/32 48/75/32
f 17/78/33 19/76/33 52/77/33
f 28/80/34 17/78/34 50/79/34
f 21/82/35 28/80/35 61/81/35
f 25/84/36 21/82/36 54/83/36
f 23/86/37 25/84/37 58/85/37
f 45/88/38 23/86/38 56/87/38
f 103/90/7 101/302/7 144/91/7
f 108/93/39 103/90/39 129/92/39
f 110/95/9 108/93/9 133/94/9
f 105/97/10 110/95/10 131/96/10
f 105/97/11 141/98/11 135/99/11
f 106/100/40 135/99/40 139/101/40
f 107/102/13 139/101/13 137/103/13
f 111/104/14 137/103/14 136/105/14
f 112/106/15 136/105/15 138/107/15
f 109/108/41 138/107/41 140/109/41
f 104/110/42 140/109/42 134/111/42
f 102/112/18 134/111/18 142/113/18
f 100/114/19 142/113/19 130/115/19
f 130/115/19 97/119/49 98/116/19
f 97/119/20 130/115/20 132/117/20
f 132/117/20 95/120/20 96/118/20
f 95/120/43 132/117/43 128/121/43
f 93/122/22 128/121/22 143/123/22
f 89/124/23 143/123/23 122/125/23
f 90/126/24 122/125/24 123/127/24
f 88/128/25 123/127/25 125/129/25
f 91/130/26 125/129/26 120/131/26
f 84/133/27 86/132/27 120/131/27
f 82/135/28 84/133/28 118/134/28
f 80/137/44 82/135/44 116/136/44
f 79/139/30 80/137/30 114/138/30
f 81/141/31 79/139/31 113/140/31
f 83/143/32 81/141/32 115/142/32
f 85/145/33 83/143/33 119/144/33
f 87/147/34 85/145/34 117/146/34
f 92/149/35 87/147/35 127/148/35
f 94/151/36 92/149/36 121/150/36
f 99/153/37 94/151/37 126/152/37
f 101/155/38 99/153/38 124/154/38
f 161/90/7 175/302/7 207/91/7
f 165/93/8 161/90/8 193/92/8
f 163/95/9 165/93/9 197/94/9
f 174/97/10 163/95/10 195/96/10
f 174/97/11 206/98/11 199/99/11
f 167/100/12 199/99/12 204/101/12
f 172/102/45 204/101/45 202/103/45
f 170/104/14 202/103/14 200/105/14
f 168/106/15 200/105/15 201/107/15
f 169/108/16 201/107/16 203/109/16
f 171/110/42 203/109/42 198/111/42
f 166/112/18 198/111/18 205/113/18
f 173/114/19 205/113/19 194/115/19
f 162/119/20 194/115/20 196/117/20
f 164/120/21 196/117/21 192/121/21
f 160/122/22 192/121/22 208/123/22
f 176/124/23 208/123/23 186/125/23
f 154/126/46 186/125/46 188/127/46
f 156/128/25 188/127/25 184/129/25
f 152/130/26 184/129/26 190/131/26
f 148/133/27 158/132/27 190/131/27
f 150/135/28 148/133/28 180/134/28
f 146/137/44 150/135/44 182/136/44
f 145/139/30 146/137/30 178/138/30
f 147/141/31 145/139/31 177/140/31
f 151/143/32 147/141/32 179/142/32
f 149/145/47 151/143/47 183/144/47
f 159/147/34 149/145/34 181/146/34
f 153/149/35 159/147/35 191/148/35
f 157/151/36 153/149/36 185/150/36
f 155/153/48 157/151/48 189/152/48
f 175/155/38 155/153/38 187/154/38
f 232/24/7 227/301/7 254/25/7
f 229/27/8 232/24/8 253/26/8
f 238/29/9 229/27/9 273/28/9
f 233/31/10 238/29/10 272/30/10
f 233/31/11 269/32/11 268/33/11
f 237/34/40 268/33/40 271/35/40
f 235/36/13 271/35/13 270/37/13
f 236/38/14 270/37/14 246/39/14
f 213/40/15 246/39/15 244/41/15
f 211/42/16 244/41/16 243/157/16
f 210/45/42 243/157/42 242/46/42
f 209/47/18 242/46/18 245/48/18
f 212/49/19 245/48/19 266/50/19
f 234/51/20 266/50/20 267/52/20
f 239/53/21 267/52/21 265/54/21
f 228/55/22 265/54/22 262/56/22
f 264/58/50 241/59/50 230/158/23
f 230/158/23 231/57/51 262/56/23
f 263/159/23 264/58/50 230/158/23
f 241/59/24 264/58/24 261/60/24
f 222/61/25 261/60/25 259/62/25
f 224/63/26 259/62/26 260/64/26
f 226/66/27 220/65/27 260/64/27
f 217/68/28 226/66/28 257/67/28
f 215/70/29 217/68/29 256/69/29
f 214/72/30 215/70/30 258/71/30
f 216/74/31 214/72/31 255/73/31
f 218/76/32 216/74/32 274/75/32
f 219/78/33 218/76/33 247/77/33
f 221/80/34 219/78/34 249/79/34
f 225/82/35 221/80/35 248/81/35
f 223/84/36 225/82/36 250/83/36
f 240/86/37 223/84/37 252/85/37
f 227/88/38 240/86/38 251/87/38
