# Blender 5.1.2
# www.blender.org
o Plane
v 0.002500 -0.299200 -1.072142
v 0.002500 -0.299200 -0.472142
v 0.002500 0.300800 -1.072142
v 0.002500 0.300800 -0.472142
v -0.000000 -0.299200 -1.072142
v -0.000000 -0.299200 -0.472142
v -0.000000 0.300800 -1.072142
v -0.000000 0.300800 -0.472142
v 0.005000 0.300800 -1.072142
v 0.005000 -0.299200 -1.072142
v 0.005000 -0.299200 -0.472142
v 0.005000 0.300800 -0.472142
v -0.000000 0.148832 -0.559865
v -0.000000 0.150031 -0.547692
v -0.000000 0.150031 -0.572039
v -0.000000 0.159348 -0.525198
v -0.000000 0.159348 -0.594533
v -0.000000 0.167108 -0.515742
v -0.000000 0.153582 -0.535986
v -0.000000 0.153582 -0.583745
v -0.000000 0.167108 -0.603989
v -0.000000 0.176564 -0.507982
v -0.000000 0.199058 -0.498664
v -0.000000 0.187352 -0.502215
v -0.000000 0.235111 -0.502215
v -0.000000 0.223405 -0.498664
v -0.000000 0.255355 -0.515742
v -0.000000 0.245899 -0.507982
v -0.000000 0.211232 -0.497465
v -0.000000 0.176564 -0.611749
v -0.000000 0.199058 -0.621066
v -0.000000 0.187352 -0.617516
v -0.000000 0.223405 -0.621066
v -0.000000 0.245899 -0.611749
v -0.000000 0.235111 -0.617516
v -0.000000 0.211232 -0.622265
v -0.000000 0.263115 -0.525198
v -0.000000 0.263115 -0.594533
v -0.000000 0.273632 -0.559865
v -0.000000 0.272433 -0.547692
v -0.000000 0.272433 -0.572039
v -0.000000 0.268882 -0.535986
v -0.000000 0.268882 -0.583745
v -0.000000 0.255355 -0.603989
v 0.005000 0.176564 -0.611749
v 0.005000 0.199058 -0.621066
v 0.005000 0.187352 -0.617516
v 0.005000 0.223405 -0.621066
v 0.005000 0.245899 -0.611749
v 0.005000 0.235111 -0.617516
v 0.005000 0.211232 -0.622265
v 0.005000 0.263115 -0.525198
v 0.005000 0.263115 -0.594533
v 0.005000 0.273632 -0.559865
v 0.005000 0.272433 -0.547692
v 0.005000 0.272433 -0.572039
v 0.005000 0.268882 -0.535986
v 0.005000 0.268882 -0.583745
v 0.005000 0.255355 -0.603989
v 0.005000 0.148832 -0.559865
v 0.005000 0.150031 -0.547692
v 0.005000 0.150031 -0.572039
v 0.005000 0.159348 -0.525198
v 0.005000 0.159348 -0.594533
v 0.005000 0.167108 -0.515742
v 0.005000 0.153582 -0.535986
v 0.005000 0.153582 -0.583745
v 0.005000 0.167108 -0.603989
v 0.005000 0.176564 -0.507982
v 0.005000 0.199058 -0.498664
v 0.005000 0.187352 -0.502215
v 0.005000 0.235111 -0.502215
v 0.005000 0.223405 -0.498664
v 0.005000 0.255355 -0.515742
v 0.005000 0.245899 -0.507982
v 0.005000 0.211232 -0.497465
v -0.000000 -0.268843 -0.834633
v -0.000000 -0.267644 -0.822459
v -0.000000 -0.267644 -0.846806
v -0.000000 -0.264093 -0.810753
v -0.000000 -0.258327 -0.869300
v -0.000000 -0.258327 -0.799965
v -0.000000 -0.264093 -0.858512
v -0.000000 -0.250566 -0.790509
v -0.000000 -0.241111 -0.886516
v -0.000000 -0.218617 -0.773432
v -0.000000 -0.230322 -0.776983
v -0.000000 -0.218617 -0.895834
v -0.000000 -0.241111 -0.782749
v -0.000000 -0.230322 -0.892283
v -0.000000 -0.250566 -0.878756
v -0.000000 -0.194269 -0.773432
v -0.000000 -0.194269 -0.895834
v -0.000000 -0.171775 -0.782749
v -0.000000 -0.171775 -0.886516
v -0.000000 -0.182564 -0.776983
v -0.000000 -0.182564 -0.892283
v -0.000000 -0.154559 -0.799965
v -0.000000 -0.154559 -0.869300
v -0.000000 -0.144043 -0.834633
v -0.000000 -0.145242 -0.846806
v -0.000000 -0.145242 -0.822459
v -0.000000 -0.148793 -0.858512
v -0.000000 -0.148793 -0.810753
v -0.000000 -0.162320 -0.878756
v -0.000000 -0.162320 -0.790509
v -0.000000 -0.206443 -0.772233
v -0.000000 -0.206443 -0.897033
v 0.005000 -0.268843 -0.834633
v 0.005000 -0.267644 -0.822459
v 0.005000 -0.267644 -0.846806
v 0.005000 -0.264093 -0.810753
v 0.005000 -0.258327 -0.869300
v 0.005000 -0.258327 -0.799965
v 0.005000 -0.264093 -0.858512
v 0.005000 -0.250566 -0.790509
v 0.005000 -0.241111 -0.886516
v 0.005000 -0.218617 -0.773432
v 0.005000 -0.230322 -0.776983
v 0.005000 -0.218617 -0.895834
v 0.005000 -0.241111 -0.782749
v 0.005000 -0.230322 -0.892283
v 0.005000 -0.250566 -0.878756
v 0.005000 -0.194269 -0.773432
v 0.005000 -0.194269 -0.895834
v 0.005000 -0.171775 -0.782749
v 0.005000 -0.171775 -0.886516
v 0.005000 -0.182564 -0.776983
v 0.005000 -0.182564 -0.892283
v 0.005000 -0.154559 -0.799965
v 0.005000 -0.154559 -0.869300
v 0.005000 -0.144043 -0.834633
v 0.005000 -0.145242 -0.846806
v 0.005000 -0.145242 -0.822459
v 0.005000 -0.148793 -0.858512
v 0.005000 -0.148793 -0.810753
v 0.005000 -0.162320 -0.878756
v 0.005000 -0.162320 -0.790509
v 0.005000 -0.206443 -0.772233
v 0.005000 -0.206443 -0.897033
v -0.000000 -0.051463 -0.961175
v -0.000000 -0.050508 -0.970871
v -0.000000 -0.043087 -0.988787
v -0.000000 -0.029375 -1.002499
v -0.000000 -0.036906 -0.996318
v -0.000000 -0.047680 -0.980194
v -0.000000 -0.020783 -1.007092
v -0.000000 -0.011459 -1.009920
v -0.000000 0.007933 -1.009920
v -0.000000 -0.001763 -1.010875
v -0.000000 0.025849 -1.002499
v -0.000000 0.039561 -0.988787
v -0.000000 0.033380 -0.996318
v -0.000000 0.017256 -1.007092
v -0.000000 -0.050508 -0.951479
v -0.000000 0.044154 -0.980194
v -0.000000 -0.047680 -0.942155
v -0.000000 -0.044634 -0.936457
v -0.000000 -0.043087 -0.933563
v -0.000000 -0.040020 -0.929825
v -0.000000 0.046982 -0.970871
v -0.000000 -0.036906 -0.926032
v -0.000000 0.047937 -0.961175
v -0.000000 -0.029375 -0.919851
v -0.000000 -0.020783 -0.915258
v -0.000000 0.046982 -0.951479
v -0.000000 -0.001763 -0.911475
v -0.000000 -0.011459 -0.912430
v -0.000000 0.044154 -0.942155
v -0.000000 0.039561 -0.933563
v -0.000000 0.007933 -0.912430
v -0.000000 0.017256 -0.915258
v -0.000000 0.025849 -0.919851
v -0.000000 0.033380 -0.926032
v 0.005000 -0.051463 -0.961175
v 0.005000 -0.050508 -0.970871
v 0.005000 -0.043087 -0.988787
v 0.005000 -0.029375 -1.002499
v 0.005000 -0.036906 -0.996318
v 0.005000 -0.047680 -0.980194
v 0.005000 -0.020783 -1.007092
v 0.005000 -0.011459 -1.009920
v 0.005000 0.007933 -1.009920
v 0.005000 -0.001763 -1.010875
v 0.005000 0.025849 -1.002499
v 0.005000 0.039561 -0.988787
v 0.005000 0.033380 -0.996318
v 0.005000 0.017256 -1.007092
v 0.005000 -0.050508 -0.951479
v 0.005000 0.044154 -0.980194
v 0.005000 -0.047680 -0.942155
v 0.005000 -0.044634 -0.936457
v 0.005000 -0.043087 -0.933563
v 0.005000 -0.040020 -0.929825
v 0.005000 0.046982 -0.970871
v 0.005000 -0.036906 -0.926032
v 0.005000 0.047937 -0.961175
v 0.005000 -0.029375 -0.919851
v 0.005000 -0.020783 -0.915258
v 0.005000 0.046982 -0.951479
v 0.005000 -0.001763 -0.911475
v 0.005000 -0.011459 -0.912430
v 0.005000 0.044154 -0.942155
v 0.005000 0.039561 -0.933563
v 0.005000 0.007933 -0.912430
v 0.005000 0.017256 -0.915258
v 0.005000 0.025849 -0.919851
v 0.005000 0.033380 -0.926032
v -0.000000 -0.014459 -0.526690
v -0.000000 -0.004763 -0.525735
v -0.000000 0.004933 -0.526690
v -0.000000 0.014256 -0.529519
v -0.000000 0.024588 -0.535539
v -0.000000 0.022849 -0.534111
v -0.000000 -0.053508 -0.565739
v -0.000000 -0.054463 -0.575435
v -0.000000 -0.053508 -0.585131
v -0.000000 -0.050680 -0.556416
v -0.000000 -0.050680 -0.594455
v -0.000000 -0.046087 -0.547824
v -0.000000 -0.046087 -0.603047
v -0.000000 -0.039906 -0.540292
v -0.000000 -0.039906 -0.610579
v -0.000000 -0.023783 -0.529519
v -0.000000 -0.023783 -0.621352
v -0.000000 -0.032375 -0.534111
v -0.000000 -0.032375 -0.616759
v -0.000000 0.004933 -0.624180
v -0.000000 -0.004763 -0.625135
v -0.000000 0.022849 -0.616759
v -0.000000 0.030380 -0.610579
v -0.000000 0.014256 -0.621352
v -0.000000 0.036561 -0.547824
v -0.000000 0.044937 -0.575435
v -0.000000 0.044536 -0.571368
v -0.000000 0.043982 -0.565739
v -0.000000 0.043982 -0.585131
v -0.000000 0.041154 -0.556416
v -0.000000 0.041154 -0.594455
v -0.000000 0.036561 -0.603047
v -0.000000 0.030380 -0.540292
v -0.000000 -0.014459 -0.624180
v 0.005000 -0.014459 -0.526690
v 0.005000 -0.004763 -0.525735
v 0.005000 0.004933 -0.526690
v 0.005000 0.014256 -0.529519
v 0.005000 0.024588 -0.535539
v 0.005000 0.022849 -0.534111
v 0.005000 -0.053508 -0.565739
v 0.005000 -0.054463 -0.575435
v 0.005000 -0.053508 -0.585131
v 0.005000 -0.050680 -0.556416
v 0.005000 -0.050680 -0.594455
v 0.005000 -0.046087 -0.547824
v 0.005000 -0.046087 -0.603047
v 0.005000 -0.039906 -0.540292
v 0.005000 -0.039906 -0.610579
v 0.005000 -0.023783 -0.529519
v 0.005000 -0.023783 -0.621352
v 0.005000 -0.032375 -0.534111
v 0.005000 -0.032375 -0.616759
v 0.005000 0.004933 -0.624180
v 0.005000 -0.004763 -0.625135
v 0.005000 0.022849 -0.616759
v 0.005000 0.030380 -0.610579
v 0.005000 0.014256 -0.621352
v 0.005000 0.036561 -0.547824
v 0.005000 0.044937 -0.575435
v 0.005000 0.044539 -0.571392
v 0.005000 0.043982 -0.565739
v 0.005000 0.043982 -0.585131
v 0.005000 0.041154 -0.556416
v 0.005000 0.041154 -0.594455
v 0.005000 0.036561 -0.603047
v 0.005000 0.030380 -0.540292
v 0.005000 -0.014459 -0.624180
vn -0.0000 -0.0000 1.0000
vn -1.0000 -0.0000 -0.0000
vn -1.0000 -0.0000 -0.0023
vn -1.0000 -0.0000 -0.0021
vn -0.0000 1.0000 -0.0000
vn -0.0000 -1.0000 -0.0000
vn -0.0000 -0.0000 -1.0000
vn 1.0000 -0.0000 -0.0000
vn -0.0000 -0.9952 -0.0980
vn -0.0000 -0.9569 -0.2903
vn -0.0000 -0.8819 -0.4714
vn -0.0000 -0.7730 -0.6344
vn -0.0000 -0.6344 -0.7730
vn -0.0000 -0.4714 -0.8819
vn -0.0000 -0.2903 -0.9569
vn -0.0000 -0.0980 -0.9952
vn -0.0000 0.0980 -0.9952
vn -0.0000 0.2903 -0.9569
vn -0.0000 0.4714 -0.8819
vn -0.0000 0.6344 -0.7730
vn -0.0000 0.7730 -0.6344
vn -0.0000 0.8819 -0.4714
vn -0.0000 0.9569 -0.2903
vn -0.0000 0.9952 -0.0980
vn -0.0000 0.9952 0.0980
vn -0.0000 0.9569 0.2903
vn -0.0000 0.8819 0.4714
vn -0.0000 0.7730 0.6344
vn -0.0000 0.6344 0.7730
vn -0.0000 0.4714 0.8819
vn -0.0000 0.2902 0.9570
vn -0.0000 0.0980 0.9952
vn -0.0000 -0.0980 0.9952
vn -0.0000 -0.2902 0.9570
vn -0.0000 -0.4714 0.8819
vn -0.0000 -0.6344 0.7730
vn -0.0000 -0.7730 0.6344
vn -0.0000 -0.8819 0.4714
vn -0.0000 -0.9569 0.2903
vn -0.0000 -0.9952 0.0980
vn -0.0000 -0.4713 -0.8820
vn -0.0000 0.4713 -0.8820
vn -0.0000 0.2903 0.9569
vn -0.0000 -0.2903 0.9569
vn -0.0000 -0.9570 -0.2902
vn -0.0000 0.2902 -0.9570
vn 0.0001 0.7729 -0.6345
vn 0.0001 0.7730 -0.6344
vn -0.0000 0.9570 -0.2902
vn 0.0001 -0.9952 -0.0980
vn -0.0000 -0.6345 -0.7729
vn -0.0001 -0.6345 -0.7729
vn -0.0000 -0.2904 -0.9569
vn -0.0000 0.9570 0.2902
vn -0.0000 -0.9570 0.2902
vn -1.0000 -0.0000 -0.0015
vn -0.0000 0.7731 -0.6343
vn -0.0000 -0.9810 -0.1941
vn -0.0000 -0.9810 -0.1942
vn -0.0000 -0.9952 -0.0979
vn -0.0000 -0.9952 -0.0981
vn -0.0000 -0.6346 -0.7728
vn 1.0000 -0.0078 -0.0058
vt 1.000000 0.000000
vt 1.000000 1.000000
vt 0.957794 0.850719
vt 0.955796 0.830430
vt 0.910677 0.490728
vt 0.909086 0.474568
vt 0.853794 0.746719
vt 0.873864 0.559601
vt 0.886416 0.549300
vt 0.230965 0.426855
vt 0.322310 0.228134
vt 0.237195 0.431967
vt 0.000000 0.000000
vt 0.395849 0.050595
vt 0.000000 1.000000
vt 0.416138 0.052593
vt 0.116072 0.541748
vt 0.108417 0.527427
vt 0.874084 0.748718
vt 0.859544 0.567256
vt 0.844004 0.571970
vt 0.338070 0.241068
vt 0.226142 0.424276
vt 0.949878 0.810920
vt 1.000000 0.718363
vt 0.968750 0.717113
vt 0.968750 0.718363
vt 0.937500 0.717113
vt 0.937500 0.718363
vt 0.906250 0.717113
vt 0.906250 0.718363
vt 0.875000 0.718363
vt 0.875000 0.717113
vt 0.843750 0.718363
vt 0.843750 0.717113
vt 0.812500 0.717113
vt 0.812500 0.718363
vt 0.781250 0.717113
vt 0.781250 0.718363
vt 0.750000 0.717113
vt 0.750000 0.718363
vt 0.718750 0.718363
vt 0.718750 0.717113
vt 0.687500 0.718363
vt 0.687500 0.717113
vt 0.656250 0.718363
vt 0.656250 0.717113
vt 0.625000 0.718363
vt 0.593750 0.718363
vt 0.625000 0.717113
vt 0.593750 0.717113
vt 0.562500 0.718363
vt 0.562500 0.717113
vt 0.531250 0.718363
vt 0.531250 0.717113
vt 0.500000 0.718363
vt 0.500000 0.717113
vt 0.468750 0.718363
vt 0.468750 0.717113
vt 0.437500 0.718363
vt 0.437500 0.717113
vt 0.406250 0.718363
vt 0.406250 0.717113
vt 0.375000 0.718363
vt 0.375000 0.717113
vt 0.343750 0.718363
vt 0.343750 0.717113
vt 0.312500 0.718363
vt 0.312500 0.717113
vt 0.281250 0.718363
vt 0.281250 0.717113
vt 0.250000 0.718363
vt 0.250000 0.717113
vt 0.218750 0.718363
vt 0.218750 0.717113
vt 0.187500 0.718363
vt 0.187500 0.717113
vt 0.156250 0.718363
vt 0.156250 0.717113
vt 0.125000 0.718363
vt 0.093750 0.717113
vt 0.093750 0.718363
vt 0.062500 0.717113
vt 0.062500 0.718363
vt 0.031250 0.717113
vt 0.031250 0.718363
vt 0.000000 0.717113
vt 0.000000 0.718363
vt 0.968750 0.709758
vt 1.000000 0.708508
vt 0.968750 0.708508
vt 0.937500 0.709758
vt 0.937500 0.708508
vt 0.906250 0.708508
vt 0.906250 0.709758
vt 0.875000 0.709758
vt 0.875000 0.708508
vt 0.843750 0.708508
vt 0.843750 0.709758
vt 0.812500 0.708508
vt 0.812500 0.709758
vt 0.781250 0.708508
vt 0.781250 0.709758
vt 0.750000 0.708508
vt 0.750000 0.709758
vt 0.718750 0.709758
vt 0.718750 0.708508
vt 0.687500 0.709758
vt 0.656250 0.708508
vt 0.656250 0.709758
vt 0.625000 0.709758
vt 0.625000 0.708508
vt 0.609259 0.708508
vt 0.593750 0.709758
vt 0.562500 0.708508
vt 0.583224 0.709758
vt 0.593750 0.708508
vt 0.531250 0.709758
vt 0.562500 0.709758
vt 0.500000 0.709758
vt 0.531250 0.708508
vt 0.500000 0.708508
vt 0.468750 0.709758
vt 0.468750 0.708508
vt 0.437500 0.708508
vt 0.406250 0.708508
vt 0.437500 0.709758
vt 0.375000 0.708508
vt 0.406250 0.709758
vt 0.343750 0.708508
vt 0.375000 0.709758
vt 0.312500 0.709758
vt 0.312500 0.708508
vt 0.281250 0.709758
vt 0.281250 0.708508
vt 0.250000 0.708508
vt 0.218750 0.709758
vt 0.250000 0.709758
vt 0.218750 0.708508
vt 0.187500 0.709758
vt 0.187500 0.708508
vt 0.156250 0.709758
vt 0.156250 0.708508
vt 0.125000 0.709758
vt 0.093750 0.709758
vt 0.125000 0.708508
vt 0.093750 0.708508
vt 0.062500 0.709758
vt 0.062500 0.708508
vt 0.031250 0.709758
vt 0.031250 0.708508
vt 0.000000 0.709758
vt 0.000000 0.708508
vt 0.986890 0.709758
vt 0.986968 0.708508
vt 0.850968 0.708508
vt 0.687500 0.708508
vt 0.343750 0.709758
vt 0.893593 0.754636
vt 0.927333 0.924258
vt 0.940267 0.908499
vt 0.949878 0.890518
vt 0.911574 0.764247
vt 0.927333 0.777180
vt 0.955796 0.871009
vt 0.940267 0.792940
vt 0.299765 0.114796
vt 0.293847 0.134306
vt 0.291849 0.154595
vt 0.911574 0.937192
vt 0.893593 0.946803
vt 0.293847 0.174884
vt 0.299765 0.194394
vt 0.874084 0.952721
vt 0.853794 0.954719
vt 0.309376 0.212374
vt 0.216644 0.419200
vt 0.833505 0.952721
vt 0.201105 0.414486
vt 0.813995 0.946803
vt 0.796015 0.937192
vt 0.184945 0.412895
vt 0.168785 0.414486
vt 0.780255 0.924258
vt 0.767321 0.908499
vt 0.153247 0.419200
vt 0.138926 0.426854
vt 0.757711 0.890518
vt 0.751793 0.871009
vt 0.126373 0.437156
vt 0.116072 0.449708
vt 0.749794 0.850719
vt 0.751793 0.830430
vt 0.108417 0.464029
vt 0.103704 0.479568
vt 0.757711 0.810920
vt 0.767321 0.792940
vt 0.102112 0.495728
vt 0.780255 0.777180
vt 0.796015 0.764246
vt 0.103704 0.511888
vt 0.813995 0.754636
vt 0.834624 0.572894
vt 0.833505 0.748718
vt 0.126373 0.554300
vt 0.827845 0.573561
vt 0.138926 0.564601
vt 0.153247 0.572256
vt 0.811684 0.571970
vt 0.796145 0.567256
vt 0.168785 0.576970
vt 0.184946 0.578561
vt 0.781825 0.559601
vt 0.769272 0.549300
vt 0.201105 0.576970
vt 0.216644 0.572256
vt 0.758971 0.536748
vt 0.751316 0.522427
vt 0.230965 0.564601
vt 0.243517 0.554300
vt 0.746603 0.506888
vt 0.745011 0.490728
vt 0.253819 0.541748
vt 0.746603 0.474568
vt 0.261473 0.527427
vt 0.751316 0.459029
vt 0.266187 0.511888
vt 0.758971 0.444708
vt 0.267779 0.495728
vt 0.769273 0.432156
vt 0.266187 0.479568
vt 0.781825 0.421855
vt 0.261473 0.464029
vt 0.796145 0.414200
vt 0.253819 0.449708
vt 0.811684 0.409486
vt 0.243518 0.437156
vt 0.338069 0.241068
vt 0.827845 0.407895
vt 0.356050 0.250679
vt 0.375559 0.256597
vt 0.395849 0.258595
vt 0.844004 0.409486
vt 0.416138 0.256597
vt 0.859543 0.414200
vt 0.435648 0.250679
vt 0.453628 0.241068
vt 0.469388 0.228134
vt 0.482322 0.212374
vt 0.491932 0.194394
vt 0.873864 0.421855
vt 0.497851 0.174884
vt 0.499849 0.154595
vt 0.497850 0.134306
vt 0.894339 0.539647
vt 0.896718 0.536748
vt 0.904372 0.522427
vt 0.886417 0.432156
vt 0.909086 0.506888
vt 0.896718 0.444708
vt 0.904372 0.459029
vt 0.844005 0.571970
vt 0.859543 0.567256
vt 0.309376 0.096816
vt 0.491932 0.114796
vt 0.482322 0.096816
vt 0.322310 0.081056
vt 0.338069 0.068122
vt 0.469388 0.081056
vt 0.453628 0.068122
vt 0.356050 0.058512
vt 0.375559 0.052593
vt 0.435648 0.058512
vt 0.894338 0.539647
vt 0.497850 0.174884
vt 0.904373 0.522427
vt 0.886416 0.432156
vt 0.859544 0.414200
vt 0.827844 0.407895
vt 0.796146 0.414200
vt 0.781824 0.421855
vt 0.243517 0.437156
vt 0.769272 0.432156
vt 0.746602 0.474568
vt 0.243518 0.554300
vt 0.781825 0.559602
vt 0.201106 0.576970
vt 0.184945 0.578561
vt 0.834583 0.572898
vt 0.911573 0.764246
vt 1.000000 0.717113
vt 0.125000 0.717113
vt 1.000000 0.709758
vt 0.609259 0.709758
vt 0.583224 0.708508
vt 0.850968 0.709758
s 1
f 2/1/1 12/2/1 4/2/1
f 6/1/2 29/3/2 23/4/2
f 6/1/2 210/5/2 209/6/2
f 13/7/2 233/8/2 241/9/2
f 159/10/3 105/11/2 160/12/4
f 5/13/2 6/1/2 77/14/2
f 3/15/5 8/2/5 4/2/5
f 2/1/6 5/13/6 1/13/6
f 4/2/1 6/1/1 2/1/1
f 1/13/7 7/15/7 3/15/7
f 11/1/8 10/13/8 110/16/8
f 185/17/8 188/18/8 9/15/8
f 61/19/8 272/20/8 270/21/8
f 193/10/8 131/22/8 192/23/8
f 11/1/8 71/24/8 70/4/8
f 3/15/7 10/13/7 1/13/7
f 4/2/5 9/15/5 3/15/5
f 1/13/6 11/1/6 2/1/6
f 39/25/9 55/26/9 40/27/9
f 40/27/10 57/28/10 42/29/10
f 42/29/11 52/30/11 37/31/11
f 27/32/12 52/30/12 74/33/12
f 28/34/13 74/33/13 75/35/13
f 28/34/14 72/36/14 25/37/14
f 25/37/15 73/38/15 26/39/15
f 26/39/16 76/40/16 29/41/16
f 76/40/17 23/42/17 29/41/17
f 70/43/18 24/44/18 23/42/18
f 71/45/19 22/46/19 24/44/19
f 69/47/20 18/48/20 22/46/20
f 16/49/21 65/50/21 63/51/21
f 19/52/22 63/51/22 66/53/22
f 14/54/23 66/53/23 61/55/23
f 13/56/24 61/55/24 60/57/24
f 15/58/25 60/57/25 62/59/25
f 20/60/26 62/59/26 67/61/26
f 17/62/27 67/61/27 64/63/27
f 21/64/28 64/63/28 68/65/28
f 30/66/29 68/65/29 45/67/29
f 32/68/30 45/67/30 47/69/30
f 31/70/31 47/69/31 46/71/31
f 36/72/32 46/71/32 51/73/32
f 51/73/33 33/74/33 36/72/33
f 48/75/34 35/76/34 33/74/34
f 50/77/35 34/78/35 35/76/35
f 49/79/36 44/80/36 34/78/36
f 44/80/37 53/81/37 38/82/37
f 38/82/38 58/83/38 43/84/38
f 43/84/39 56/85/39 41/86/39
f 41/86/40 54/87/40 39/88/40
f 100/25/9 134/26/9 102/27/9
f 102/27/10 136/28/10 104/29/10
f 104/29/11 130/30/11 98/31/11
f 106/32/12 130/30/12 138/33/12
f 106/32/13 126/35/13 94/34/13
f 94/34/41 128/36/41 96/37/41
f 96/37/15 124/38/15 92/39/15
f 92/39/16 139/40/16 107/41/16
f 139/40/17 86/42/17 107/41/17
f 118/43/18 87/44/18 86/42/18
f 119/45/42 89/46/42 87/44/42
f 121/47/20 84/48/20 89/46/20
f 82/49/21 116/50/21 114/51/21
f 112/53/22 82/49/22 114/51/22
f 110/55/23 80/52/23 112/53/23
f 77/56/24 110/55/24 109/57/24
f 79/58/25 109/57/25 111/59/25
f 115/61/26 79/58/26 111/59/26
f 81/62/27 115/61/27 113/63/27
f 91/64/28 113/63/28 123/65/28
f 85/66/29 123/65/29 117/67/29
f 90/68/30 117/67/30 122/69/30
f 88/70/43 122/69/43 120/71/43
f 108/72/32 120/71/32 140/73/32
f 140/73/33 93/74/33 108/72/33
f 125/75/44 97/76/44 93/74/44
f 129/77/35 95/78/35 97/76/35
f 127/79/36 105/80/36 95/78/36
f 105/80/37 131/81/37 99/82/37
f 99/82/38 135/83/38 103/84/38
f 103/84/39 133/85/39 101/86/39
f 101/86/40 132/87/40 100/88/40
f 166/89/9 197/90/9 200/91/9
f 169/92/45 200/91/45 203/93/45
f 169/92/11 204/94/11 170/95/11
f 174/96/12 204/94/12 208/97/12
f 174/96/13 207/98/13 173/99/13
f 173/99/14 206/100/14 172/101/14
f 172/101/15 205/102/15 171/103/15
f 171/103/16 201/104/16 167/105/16
f 201/104/17 168/106/17 167/105/17
f 202/107/46 165/108/46 168/106/46
f 165/108/19 198/109/19 164/110/19
f 162/111/20 198/109/20 196/112/20
f 162/111/47 194/113/48 159/114/48
f 191/115/22 158/116/22 193/117/22
f 191/115/49 155/118/49 157/119/49
f 141/120/24 189/121/24 175/122/24
f 142/123/25 175/122/25 176/124/25
f 180/125/26 142/123/26 176/124/26
f 177/126/27 146/127/27 180/125/27
f 179/128/28 143/129/28 177/126/28
f 178/130/29 145/131/29 179/128/29
f 147/132/30 178/130/30 181/133/30
f 148/134/31 181/133/31 182/135/31
f 184/136/32 148/134/32 182/135/32
f 184/136/33 149/137/33 150/138/33
f 183/139/44 154/140/44 149/137/44
f 188/141/35 151/142/35 154/140/35
f 185/143/36 153/144/36 151/142/36
f 152/145/37 187/146/37 186/147/37
f 156/148/38 186/147/38 190/149/38
f 161/150/39 190/149/39 195/151/39
f 163/152/40 195/151/40 197/153/40
f 235/154/50 268/90/50 269/155/50
f 236/89/10 272/93/10 238/92/10
f 233/95/11 272/93/11 267/94/11
f 233/95/12 275/97/12 241/96/12
f 247/156/51 214/99/52 241/96/13
f 214/99/41 246/100/41 212/101/41
f 211/103/53 246/100/53 245/102/53
f 211/103/16 244/104/16 210/105/16
f 244/104/17 209/106/17 210/105/17
f 243/107/18 224/108/18 209/106/18
f 258/157/19 226/110/19 224/108/19
f 260/109/20 222/111/20 226/110/20
f 220/114/21 256/112/21 254/117/21
f 218/119/22 254/117/22 252/115/22
f 249/121/23 218/119/23 252/115/23
f 216/120/24 249/121/24 250/122/24
f 217/123/25 250/122/25 251/124/25
f 253/125/54 217/123/54 251/124/54
f 255/126/27 219/127/27 253/125/27
f 257/128/28 221/129/28 255/126/28
f 227/158/29 257/128/29 261/130/29
f 225/132/30 261/130/30 259/133/30
f 242/134/31 259/133/31 276/135/31
f 229/138/32 276/135/32 263/136/32
f 263/136/33 228/137/33 229/138/33
f 262/139/44 232/140/44 228/137/44
f 266/141/35 230/142/35 232/140/35
f 264/143/36 231/144/36 230/142/36
f 240/145/37 265/146/37 274/147/37
f 239/148/38 274/147/38 273/149/38
f 239/148/55 271/151/55 237/150/55
f 237/150/40 268/153/40 234/152/40
f 2/1/1 11/1/1 12/2/1
f 19/159/2 14/19/2 6/1/2
f 8/2/2 27/160/2 28/161/2
f 8/2/2 28/161/2 25/162/2
f 16/163/2 19/159/2 6/1/2
f 18/164/2 16/163/2 6/1/2
f 8/2/2 25/162/2 26/165/2
f 8/2/2 26/165/2 29/3/2
f 22/166/2 18/164/2 6/1/2
f 24/24/2 22/166/2 6/1/2
f 6/1/2 8/2/2 29/3/2
f 23/4/2 24/24/2 6/1/2
f 5/13/2 90/167/2 88/168/2
f 5/13/2 88/168/2 108/169/2
f 37/170/2 27/160/2 8/2/2
f 42/171/2 37/170/2 8/2/2
f 5/13/2 108/169/2 93/172/2
f 5/13/2 93/172/2 97/173/2
f 40/174/2 42/171/2 8/2/2
f 39/175/2 40/174/2 8/2/2
f 5/13/2 97/173/2 95/176/2
f 95/176/2 105/11/2 158/23/2
f 95/176/2 158/23/2 157/177/2
f 39/175/2 8/2/2 7/15/2
f 41/178/2 39/175/2 7/15/2
f 5/13/2 95/176/2 157/177/2
f 5/13/2 157/177/2 155/179/2
f 43/180/2 41/178/2 7/15/2
f 38/181/2 43/180/2 7/15/2
f 5/13/2 155/179/2 141/182/2
f 5/13/2 141/182/2 142/183/2
f 44/184/2 38/181/2 7/15/2
f 34/185/2 44/184/2 7/15/2
f 5/13/2 142/183/2 146/186/2
f 5/13/2 146/186/2 143/187/2
f 35/188/2 34/185/2 7/15/2
f 33/189/2 35/188/2 7/15/2
f 5/13/2 143/187/2 145/190/2
f 5/13/2 145/190/2 144/191/2
f 36/192/2 33/189/2 7/15/2
f 31/193/2 36/192/2 7/15/2
f 5/13/2 144/191/2 147/194/2
f 5/13/2 147/194/2 148/195/2
f 32/196/2 31/193/2 7/15/2
f 30/197/2 32/196/2 7/15/2
f 7/15/2 5/13/2 148/195/2
f 7/15/2 148/195/2 150/198/2
f 21/199/2 30/197/2 7/15/2
f 17/200/2 21/199/2 7/15/2
f 7/15/2 150/198/2 149/201/2
f 7/15/2 149/201/2 154/18/2
f 20/202/2 17/200/2 7/15/2
f 235/203/2 13/7/2 15/204/2
f 15/204/2 20/202/2 7/15/2
f 7/15/2 154/18/2 151/17/2
f 7/15/2 151/17/2 153/205/2
f 235/203/2 15/204/2 7/15/2
f 234/206/2 235/203/2 7/15/2
f 7/15/2 153/205/2 152/207/2
f 7/15/2 152/207/2 156/208/2
f 237/209/2 234/206/2 7/15/2
f 239/210/2 237/209/2 7/15/2
f 7/15/2 156/208/2 161/211/2
f 7/15/2 161/211/2 163/212/2
f 240/213/2 239/210/2 7/15/2
f 231/214/2 240/213/2 7/15/2
f 7/15/2 163/212/2 166/215/2
f 7/15/2 166/215/2 169/216/2
f 230/217/2 231/214/2 7/15/2
f 232/218/2 230/217/2 7/15/2
f 7/15/2 169/216/2 170/219/2
f 7/15/2 170/219/2 174/220/2
f 228/221/2 232/218/2 7/15/2
f 229/222/2 228/221/2 7/15/2
f 7/15/2 174/220/2 173/223/2
f 229/222/2 7/15/2 173/223/2
f 242/224/2 229/222/2 173/223/2
f 242/224/2 173/223/2 172/225/2
f 225/226/2 242/224/2 172/225/2
f 225/226/2 172/225/2 171/227/2
f 227/228/2 225/226/2 171/227/2
f 227/228/2 171/227/2 167/229/2
f 223/230/2 227/228/2 167/229/2
f 223/230/2 167/229/2 168/231/2
f 221/232/2 223/230/2 168/231/2
f 221/232/2 168/231/2 165/233/2
f 219/234/2 221/232/2 165/233/2
f 219/234/2 165/233/2 164/235/2
f 217/236/2 219/234/2 164/235/2
f 162/237/56 160/12/4 99/238/2
f 217/236/2 164/235/2 162/237/56
f 216/239/2 217/236/2 162/237/56
f 162/237/56 99/238/2 103/240/2
f 162/237/56 103/240/2 101/241/2
f 216/239/2 162/237/56 101/241/2
f 216/239/2 101/241/2 100/242/2
f 215/243/2 216/239/2 100/242/2
f 215/243/2 100/242/2 102/244/2
f 218/245/2 215/243/2 102/244/2
f 218/245/2 102/244/2 104/246/2
f 218/245/2 104/246/2 98/247/2
f 218/245/2 98/247/2 106/248/2
f 218/245/2 106/248/2 94/249/2
f 218/245/2 94/249/2 96/250/2
f 220/251/2 218/245/2 96/250/2
f 220/251/2 96/250/2 92/252/2
f 220/251/2 92/252/2 107/253/2
f 107/253/2 86/254/2 6/1/2
f 14/19/2 213/255/2 214/256/2
f 14/19/2 214/256/2 212/257/2
f 220/251/2 107/253/2 6/1/2
f 222/258/2 220/251/2 6/1/2
f 14/19/2 212/257/2 211/259/2
f 6/1/2 14/19/2 211/259/2
f 226/260/2 222/258/2 6/1/2
f 224/261/2 226/260/2 6/1/2
f 6/1/2 211/259/2 210/5/2
f 209/6/2 224/261/2 6/1/2
f 213/255/2 14/19/2 13/7/2
f 13/7/2 235/203/2 236/262/2
f 13/7/2 236/262/2 238/263/2
f 241/9/2 213/255/2 13/7/2
f 13/7/2 238/263/2 233/8/2
f 159/10/3 158/23/2 105/11/2
f 105/11/2 99/238/2 160/12/4
f 85/264/2 90/167/2 5/13/2
f 6/1/2 86/254/2 87/265/2
f 6/1/2 87/265/2 89/266/2
f 91/267/2 85/264/2 5/13/2
f 81/268/2 91/267/2 5/13/2
f 6/1/2 89/266/2 84/269/2
f 6/1/2 84/269/2 82/270/2
f 83/271/2 81/268/2 5/13/2
f 79/272/2 83/271/2 5/13/2
f 6/1/2 82/270/2 80/273/2
f 6/1/2 80/273/2 78/16/2
f 77/14/2 79/272/2 5/13/2
f 6/1/2 78/16/2 77/14/2
f 3/15/5 7/15/5 8/2/5
f 2/1/6 6/1/6 5/13/6
f 4/2/1 8/2/1 6/1/1
f 1/13/7 5/13/7 7/15/7
f 119/265/8 118/254/8 11/1/8
f 10/13/8 122/167/8 117/264/8
f 10/13/8 117/264/8 123/267/8
f 121/266/8 119/265/8 11/1/8
f 116/269/8 121/266/8 11/1/8
f 10/13/8 123/267/8 113/268/8
f 10/13/8 113/268/8 115/271/8
f 114/270/8 116/269/8 11/1/8
f 112/273/8 114/270/8 11/1/8
f 10/13/8 115/271/8 111/272/8
f 10/13/8 111/272/8 109/14/8
f 110/16/8 112/273/8 11/1/8
f 10/13/8 109/14/8 110/16/8
f 248/256/8 247/274/8 61/19/8
f 11/1/8 118/254/8 139/253/8
f 11/1/8 139/253/8 124/275/8
f 246/276/8 248/256/8 61/19/8
f 245/259/8 246/276/8 61/19/8
f 11/1/8 124/275/8 128/250/8
f 11/1/8 128/250/8 126/249/8
f 245/259/8 61/19/8 11/1/8
f 244/5/8 245/259/8 11/1/8
f 11/1/8 126/249/8 138/248/8
f 11/1/8 138/248/8 130/247/8
f 243/6/8 244/5/8 11/1/8
f 258/261/8 243/6/8 11/1/8
f 11/1/8 130/247/8 136/246/8
f 260/260/8 258/261/8 11/1/8
f 256/277/8 260/260/8 11/1/8
f 254/251/8 256/277/8 11/1/8
f 252/278/8 254/251/8 11/1/8
f 252/278/8 11/1/8 136/246/8
f 249/243/8 252/278/8 136/246/8
f 249/243/8 136/246/8 134/244/8
f 250/279/8 249/243/8 134/244/8
f 250/279/8 134/244/8 132/242/8
f 251/236/8 250/279/8 132/242/8
f 251/236/8 132/242/8 133/241/8
f 253/280/8 251/236/8 133/241/8
f 135/240/8 131/22/8 194/12/8
f 253/280/8 133/241/8 135/240/8
f 255/281/8 253/280/8 135/240/8
f 135/240/8 194/12/8 196/282/8
f 135/240/8 196/282/8 198/235/8
f 257/283/8 255/281/8 135/240/8
f 261/228/8 257/283/8 135/240/8
f 135/240/8 198/235/8 199/233/8
f 135/240/8 199/233/8 202/231/8
f 259/226/8 261/228/8 135/240/8
f 276/284/8 259/226/8 135/240/8
f 135/240/8 202/231/8 201/229/8
f 135/240/8 201/229/8 205/227/8
f 263/222/8 276/284/8 135/240/8
f 262/221/8 263/222/8 135/240/8
f 135/240/8 205/227/8 206/225/8
f 262/221/8 135/240/8 206/225/8
f 266/218/8 262/221/8 206/225/8
f 266/218/8 206/225/8 207/223/8
f 264/217/8 266/218/8 207/223/8
f 264/217/8 207/223/8 208/285/8
f 265/214/8 264/217/8 208/285/8
f 265/214/8 208/285/8 204/219/8
f 274/286/8 265/214/8 204/219/8
f 274/286/8 204/219/8 203/216/8
f 273/210/8 274/286/8 203/216/8
f 273/210/8 203/216/8 200/287/8
f 271/209/8 273/210/8 200/287/8
f 271/209/8 200/287/8 197/288/8
f 60/7/8 269/289/8 268/206/8
f 268/206/8 271/209/8 197/288/8
f 60/7/8 268/206/8 197/288/8
f 62/204/8 60/7/8 197/288/8
f 62/204/8 197/288/8 195/211/8
f 67/202/8 62/204/8 195/211/8
f 64/200/8 67/202/8 195/211/8
f 68/199/8 64/200/8 195/211/8
f 68/199/8 195/211/8 190/208/8
f 45/197/8 68/199/8 190/208/8
f 47/196/8 45/197/8 190/208/8
f 46/193/8 47/196/8 190/208/8
f 51/192/8 46/193/8 190/208/8
f 48/189/8 51/192/8 190/208/8
f 50/188/8 48/189/8 190/208/8
f 49/185/8 50/188/8 190/208/8
f 49/185/8 190/208/8 186/207/8
f 59/184/8 49/185/8 186/207/8
f 53/181/8 59/184/8 186/207/8
f 191/177/8 192/23/8 137/11/8
f 191/177/8 137/11/8 127/176/8
f 189/179/8 191/177/8 127/176/8
f 189/179/8 127/176/8 129/173/8
f 175/182/8 189/179/8 129/173/8
f 175/182/8 129/173/8 125/172/8
f 176/183/8 175/182/8 125/172/8
f 176/183/8 125/172/8 140/169/8
f 180/186/8 176/183/8 140/169/8
f 120/168/8 122/167/8 10/13/8
f 180/186/8 140/169/8 120/168/8
f 177/187/8 180/186/8 120/168/8
f 12/2/8 74/160/8 52/170/8
f 12/2/8 52/170/8 57/171/8
f 177/187/8 120/168/8 10/13/8
f 179/190/8 177/187/8 10/13/8
f 12/2/8 57/171/8 55/174/8
f 12/2/8 55/174/8 54/175/8
f 178/191/8 179/190/8 10/13/8
f 181/194/8 178/191/8 10/13/8
f 9/15/8 12/2/8 54/175/8
f 9/15/8 54/175/8 56/178/8
f 182/195/8 181/194/8 10/13/8
f 184/198/8 182/195/8 10/13/8
f 9/15/8 56/178/8 58/180/8
f 9/15/8 58/180/8 53/181/8
f 184/198/8 10/13/8 9/15/8
f 183/201/8 184/198/8 9/15/8
f 9/15/8 53/181/8 186/207/8
f 9/15/8 186/207/8 187/205/8
f 188/18/8 183/201/8 9/15/8
f 9/15/8 187/205/8 185/17/8
f 269/289/8 60/7/8 61/19/8
f 61/19/8 247/274/8 275/9/8
f 61/19/8 275/9/8 267/8/8
f 270/21/8 269/289/8 61/19/8
f 61/19/8 267/8/8 272/20/8
f 193/10/8 194/12/8 131/22/8
f 131/22/8 137/11/8 192/23/8
f 75/161/8 74/160/8 12/2/8
f 11/1/8 61/19/8 66/159/8
f 11/1/8 66/159/8 63/290/8
f 72/162/8 75/161/8 12/2/8
f 73/165/8 72/162/8 12/2/8
f 11/1/8 63/290/8 65/164/8
f 11/1/8 65/164/8 69/166/8
f 76/3/8 73/165/8 12/2/8
f 70/4/8 76/3/8 12/2/8
f 11/1/8 69/166/8 71/24/8
f 70/4/8 12/2/8 11/1/8
f 3/15/7 9/15/7 10/13/7
f 4/2/5 12/2/5 9/15/5
f 1/13/6 10/13/6 11/1/6
f 39/25/9 54/291/9 55/26/9
f 40/27/10 55/26/10 57/28/10
f 42/29/11 57/28/11 52/30/11
f 27/32/12 37/31/12 52/30/12
f 28/34/13 27/32/13 74/33/13
f 28/34/14 75/35/14 72/36/14
f 25/37/15 72/36/15 73/38/15
f 26/39/16 73/38/16 76/40/16
f 76/40/17 70/43/17 23/42/17
f 70/43/18 71/45/18 24/44/18
f 71/45/19 69/47/19 22/46/19
f 69/47/20 65/50/20 18/48/20
f 16/49/21 18/48/21 65/50/21
f 19/52/22 16/49/22 63/51/22
f 14/54/23 19/52/23 66/53/23
f 13/56/24 14/54/24 61/55/24
f 15/58/25 13/56/25 60/57/25
f 20/60/26 15/58/26 62/59/26
f 17/62/27 20/60/27 67/61/27
f 21/64/28 17/62/28 64/63/28
f 30/66/29 21/64/29 68/65/29
f 32/68/30 30/66/30 45/67/30
f 31/70/31 32/68/31 47/69/31
f 36/72/32 31/70/32 46/71/32
f 51/73/33 48/75/33 33/74/33
f 48/75/34 50/77/34 35/76/34
f 50/77/35 49/79/35 34/78/35
f 49/79/36 59/292/36 44/80/36
f 44/80/37 59/292/37 53/81/37
f 38/82/38 53/81/38 58/83/38
f 43/84/39 58/83/39 56/85/39
f 41/86/40 56/85/40 54/87/40
f 100/25/9 132/291/9 134/26/9
f 102/27/10 134/26/10 136/28/10
f 104/29/11 136/28/11 130/30/11
f 106/32/12 98/31/12 130/30/12
f 106/32/13 138/33/13 126/35/13
f 94/34/41 126/35/41 128/36/41
f 96/37/15 128/36/15 124/38/15
f 92/39/16 124/38/16 139/40/16
f 139/40/17 118/43/17 86/42/17
f 118/43/18 119/45/18 87/44/18
f 119/45/42 121/47/42 89/46/42
f 121/47/20 116/50/20 84/48/20
f 82/49/21 84/48/21 116/50/21
f 112/53/22 80/52/22 82/49/22
f 110/55/23 78/54/23 80/52/23
f 77/56/24 78/54/24 110/55/24
f 79/58/25 77/56/25 109/57/25
f 115/61/26 83/60/26 79/58/26
f 81/62/27 83/60/27 115/61/27
f 91/64/28 81/62/28 113/63/28
f 85/66/29 91/64/29 123/65/29
f 90/68/30 85/66/30 117/67/30
f 88/70/43 90/68/43 122/69/43
f 108/72/32 88/70/32 120/71/32
f 140/73/33 125/75/33 93/74/33
f 125/75/44 129/77/44 97/76/44
f 129/77/35 127/79/35 95/78/35
f 127/79/36 137/292/36 105/80/36
f 105/80/37 137/292/37 131/81/37
f 99/82/38 131/81/38 135/83/38
f 103/84/39 135/83/39 133/85/39
f 101/86/40 133/85/40 132/87/40
f 166/89/9 163/293/9 197/90/9
f 169/92/45 166/89/45 200/91/45
f 169/92/11 203/93/11 204/94/11
f 174/96/12 170/95/12 204/94/12
f 174/96/13 208/97/13 207/98/13
f 173/99/14 207/98/14 206/100/14
f 172/101/15 206/100/15 205/102/15
f 171/103/16 205/102/16 201/104/16
f 201/104/17 202/107/17 168/106/17
f 202/107/46 199/157/46 165/108/46
f 165/108/19 199/157/19 198/109/19
f 162/111/20 164/110/20 198/109/20
f 159/114/3 160/294/4 162/111/56
f 162/111/47 196/112/57 194/113/48
f 194/113/48 193/117/57 159/114/48
f 193/117/58 192/295/59 191/115/59
f 191/115/22 157/119/22 158/116/22
f 158/116/22 159/114/22 193/117/22
f 191/115/49 189/121/49 155/118/49
f 141/120/24 155/118/24 189/121/24
f 142/123/25 141/120/25 175/122/25
f 180/125/26 146/127/26 142/123/26
f 177/126/27 143/129/27 146/127/27
f 179/128/28 145/131/28 143/129/28
f 178/130/29 144/158/29 145/131/29
f 147/132/30 144/158/30 178/130/30
f 148/134/31 147/132/31 181/133/31
f 184/136/32 150/138/32 148/134/32
f 184/136/33 183/139/33 149/137/33
f 183/139/44 188/141/44 154/140/44
f 188/141/35 185/143/35 151/142/35
f 185/143/36 187/146/36 153/144/36
f 152/145/37 153/144/37 187/146/37
f 156/148/38 152/145/38 186/147/38
f 161/150/39 156/148/39 190/149/39
f 163/152/40 161/150/40 195/151/40
f 270/91/50 236/89/60 235/154/50
f 235/154/50 234/293/61 268/90/50
f 269/155/50 270/91/50 235/154/50
f 236/89/10 270/91/10 272/93/10
f 233/95/11 238/92/11 272/93/11
f 233/95/12 267/94/12 275/97/12
f 247/156/51 248/98/62 214/99/52
f 214/99/63 213/296/63 241/96/63
f 241/96/13 275/97/13 247/156/51
f 214/99/41 248/98/41 246/100/41
f 211/103/53 212/101/53 246/100/53
f 211/103/16 245/102/16 244/104/16
f 244/104/17 243/107/17 209/106/17
f 243/107/18 258/157/18 224/108/18
f 258/157/19 260/109/19 226/110/19
f 260/109/20 256/112/20 222/111/20
f 220/114/21 222/111/21 256/112/21
f 218/119/22 220/114/22 254/117/22
f 249/121/23 215/118/23 218/119/23
f 216/120/24 215/118/24 249/121/24
f 217/123/25 216/120/25 250/122/25
f 253/125/54 219/127/54 217/123/54
f 255/126/27 221/129/27 219/127/27
f 257/128/28 223/131/28 221/129/28
f 227/158/29 223/131/29 257/128/29
f 225/132/30 227/158/30 261/130/30
f 242/134/31 225/132/31 259/133/31
f 229/138/32 242/134/32 276/135/32
f 263/136/33 262/139/33 228/137/33
f 262/139/44 266/141/44 232/140/44
f 266/141/35 264/143/35 230/142/35
f 264/143/36 265/146/36 231/144/36
f 240/145/37 231/144/37 265/146/37
f 239/148/38 240/145/38 274/147/38
f 239/148/55 273/149/55 271/151/55
f 237/150/40 271/151/40 268/153/40
