# Blender 4.5.4 LTS
# www.blender.org
o Object.116
v -0.047189 -0.322353 -0.334909
v -0.064253 -0.322353 -0.325675
v -0.045914 -0.322353 -0.332002
v 0.062512 -0.322354 -0.323017
v 0.064252 -0.322354 -0.325675
v 0.047189 -0.322353 -0.334909
v 0.045914 -0.322353 -0.332002
v 0.028838 -0.322353 -0.341209
v 0.079562 -0.322354 -0.313758
v 0.077412 -0.322354 -0.311422
v 0.028059 -0.322353 -0.338131
v 0.009701 -0.322353 -0.344402
v 0.090202 -0.322354 -0.297533
v 0.092702 -0.322354 -0.299483
v -0.009701 -0.322353 -0.344402
v 0.009439 -0.322353 -0.341238
v 0.100522 -0.322354 -0.281729
v 0.103312 -0.322354 -0.283241
v -0.028838 -0.322353 -0.341209
v -0.009439 -0.322353 -0.341238
v 0.111112 -0.322354 -0.265473
v 0.108102 -0.322354 -0.264442
v -0.028059 -0.322353 -0.338131
v 0.112742 -0.322354 -0.208516
v 0.108102 -0.322354 -0.190216
v 0.111112 -0.322354 -0.189184
v -0.079564 -0.322353 -0.313758
v -0.092704 -0.322353 -0.299483
v -0.077413 -0.322353 -0.311422
v -0.111110 -0.322353 -0.265473
v -0.112741 -0.322353 -0.246142
v -0.108107 -0.322353 -0.264442
v -0.112741 -0.322353 -0.208516
v -0.115873 -0.322353 -0.207993
v -0.108107 -0.322353 -0.190216
v 0.079562 -0.322354 -0.140900
v 0.092702 -0.322354 -0.155173
v 0.077412 -0.322354 -0.143235
v -0.092704 -0.322353 -0.155174
v -0.077413 -0.322353 -0.143235
v -0.090199 -0.322353 -0.157124
v 0.047189 -0.322353 -0.119748
v 0.028059 -0.322353 -0.116526
v 0.028838 -0.322353 -0.113448
v -0.045914 -0.322353 -0.122656
v -0.047189 -0.322353 -0.119748
v -0.028838 -0.322353 -0.113448
v -0.028059 -0.322353 -0.116526
v -0.009701 -0.322353 -0.110255
v -0.079564 -0.322353 -0.140900
v -0.062516 -0.322353 -0.131641
v -0.064253 -0.322353 -0.128983
v -0.009439 -0.322353 -0.113419
v 0.009701 -0.322353 -0.110255
v -0.100524 -0.322353 -0.172928
v -0.103316 -0.322353 -0.171417
v 0.009439 -0.322353 -0.113419
v 0.045914 -0.322353 -0.122656
v 0.064252 -0.322354 -0.128982
v -0.111110 -0.322353 -0.189185
v -0.117475 -0.322353 -0.227329
v -0.114300 -0.322353 -0.227329
v 0.062512 -0.322353 -0.131641
v 0.100522 -0.322354 -0.172928
v 0.090202 -0.322354 -0.157124
v -0.115873 -0.322353 -0.246664
v -0.100524 -0.322353 -0.281729
v -0.103316 -0.322353 -0.283241
v 0.103312 -0.322354 -0.171417
v 0.112742 -0.322354 -0.246142
v 0.115872 -0.322354 -0.246664
v -0.090199 -0.322353 -0.297533
v -0.062516 -0.322353 -0.323017
v 0.115872 -0.322354 -0.207993
v 0.117472 -0.322354 -0.227328
v 0.114302 -0.322354 -0.227328
v -0.047188 0.338047 -0.334909
v -0.045913 0.338047 -0.332002
v -0.064252 0.338047 -0.325675
v 0.062522 0.338047 -0.323017
v 0.047190 0.338047 -0.334909
v 0.064252 0.338047 -0.325675
v 0.045915 0.338047 -0.332002
v 0.028840 0.338047 -0.341209
v 0.079562 0.338046 -0.313758
v 0.077412 0.338046 -0.311422
v 0.028060 0.338047 -0.338131
v 0.009702 0.338047 -0.344402
v 0.092702 0.338046 -0.299483
v 0.090202 0.338046 -0.297533
v -0.009700 0.338047 -0.344402
v 0.009440 0.338047 -0.341238
v 0.100522 0.338046 -0.281729
v 0.103322 0.338046 -0.283241
v -0.009438 0.338047 -0.341238
v -0.028837 0.338047 -0.341209
v 0.111112 0.338046 -0.265473
v 0.108112 0.338046 -0.264441
v -0.028058 0.338047 -0.338131
v 0.112742 0.338046 -0.208515
v 0.111112 0.338046 -0.189184
v 0.108112 0.338046 -0.190215
v -0.079563 0.338047 -0.313758
v -0.077412 0.338047 -0.311422
v -0.092703 0.338047 -0.299483
v -0.111109 0.338047 -0.265473
v -0.108106 0.338047 -0.264442
v -0.112740 0.338047 -0.246142
v -0.112740 0.338047 -0.208516
v -0.108106 0.338047 -0.190216
v -0.115872 0.338047 -0.207993
v 0.079562 0.338046 -0.140900
v 0.077412 0.338046 -0.143235
v 0.092702 0.338046 -0.155173
v -0.092703 0.338047 -0.155173
v -0.090198 0.338047 -0.157124
v -0.077412 0.338047 -0.143235
v 0.047190 0.338047 -0.119748
v 0.028840 0.338047 -0.113448
v 0.028060 0.338047 -0.116526
v -0.045913 0.338047 -0.122656
v -0.028837 0.338047 -0.113448
v -0.047188 0.338047 -0.119748
v -0.028058 0.338047 -0.116526
v -0.009700 0.338047 -0.110255
v -0.062515 0.338047 -0.131641
v -0.079563 0.338047 -0.140900
v -0.064252 0.338047 -0.128982
v -0.009438 0.338047 -0.113419
v 0.009702 0.338047 -0.110255
v -0.103315 0.338047 -0.171417
v -0.100523 0.338047 -0.172928
v 0.009440 0.338047 -0.113419
v 0.045915 0.338047 -0.122656
v 0.064252 0.338047 -0.128982
v -0.111109 0.338047 -0.189184
v -0.117474 0.338047 -0.227328
v -0.114299 0.338047 -0.227328
v 0.062522 0.338047 -0.131641
v 0.090202 0.338046 -0.157124
v 0.100522 0.338046 -0.172927
v -0.115872 0.338047 -0.246664
v -0.103315 0.338047 -0.283241
v -0.100523 0.338047 -0.281729
v 0.103322 0.338046 -0.171417
v 0.115872 0.338046 -0.246663
v 0.112742 0.338046 -0.246141
v -0.090198 0.338047 -0.297533
v -0.062515 0.338047 -0.323017
v 0.115872 0.338046 -0.207993
v 0.114302 0.338046 -0.227328
v 0.117472 0.338046 -0.227328
v 0.009701 -0.322353 -0.344402
v -0.009700 0.338047 -0.344402
v -0.009701 -0.322353 -0.344402
v 0.117472 0.338046 -0.227328
v 0.115872 -0.322354 -0.207993
v 0.115872 0.338046 -0.207993
v -0.028837 0.338047 -0.341209
v -0.028838 -0.322353 -0.341209
v -0.047189 -0.322353 -0.334909
v -0.047188 0.338047 -0.334909
v -0.064252 0.338047 -0.325675
v -0.064253 -0.322353 -0.325675
v -0.079563 0.338047 -0.313758
v -0.079564 -0.322353 -0.313758
v -0.092704 -0.322353 -0.299483
v -0.092703 0.338047 -0.299483
v -0.103315 0.338047 -0.283241
v -0.103316 -0.322353 -0.283241
v -0.111109 0.338047 -0.265473
v -0.111110 -0.322353 -0.265473
v -0.115873 -0.322353 -0.246664
v -0.115872 0.338047 -0.246664
v -0.117474 0.338047 -0.227328
v -0.117475 -0.322353 -0.227329
v 0.009702 0.338047 -0.344402
v 0.028838 -0.322353 -0.341209
v 0.047189 -0.322353 -0.334909
v 0.028840 0.338047 -0.341209
v 0.064252 -0.322354 -0.325675
v 0.047190 0.338047 -0.334909
v 0.064252 0.338047 -0.325675
v 0.079562 -0.322354 -0.313758
v 0.092702 -0.322354 -0.299483
v 0.079562 0.338046 -0.313758
v 0.103312 -0.322354 -0.283241
v 0.092702 0.338046 -0.299483
v 0.103322 0.338046 -0.283241
v 0.111112 -0.322354 -0.265473
v 0.115872 -0.322354 -0.246664
v 0.111112 0.338046 -0.265473
v 0.117472 -0.322354 -0.227328
v 0.115872 0.338046 -0.246663
v 0.103312 -0.322354 -0.171417
v 0.111112 0.338046 -0.189184
v 0.111112 -0.322354 -0.189184
v 0.064252 -0.322354 -0.128982
v 0.079562 0.338046 -0.140900
v 0.079562 -0.322354 -0.140900
v 0.092702 -0.322354 -0.155173
v 0.092702 0.338046 -0.155173
v 0.103322 0.338046 -0.171417
v 0.028838 -0.322353 -0.113448
v 0.009701 -0.322353 -0.110255
v 0.028840 0.338047 -0.113448
v 0.064252 0.338047 -0.128982
v 0.047189 -0.322353 -0.119748
v 0.047190 0.338047 -0.119748
v -0.028837 0.338047 -0.113448
v -0.028838 -0.322353 -0.113448
v -0.047189 -0.322353 -0.119748
v -0.009700 0.338047 -0.110255
v 0.009702 0.338047 -0.110255
v -0.009701 -0.322353 -0.110255
v -0.092704 -0.322353 -0.155174
v -0.079563 0.338047 -0.140900
v -0.079564 -0.322353 -0.140900
v -0.064253 -0.322353 -0.128983
v -0.064252 0.338047 -0.128982
v -0.047188 0.338047 -0.119748
v -0.092703 0.338047 -0.155173
v -0.103316 -0.322353 -0.171417
v -0.111110 -0.322353 -0.189185
v -0.103315 0.338047 -0.171417
v -0.115873 -0.322353 -0.207993
v -0.111109 0.338047 -0.189184
v -0.115872 0.338047 -0.207993
v -0.009439 -0.322353 -0.341238
v -0.009438 0.338047 -0.341238
v 0.009440 0.338047 -0.341238
v 0.112742 0.338046 -0.208515
v 0.114302 -0.322354 -0.227328
v 0.114302 0.338046 -0.227328
v -0.028059 -0.322353 -0.338131
v -0.028058 0.338047 -0.338131
v -0.045913 0.338047 -0.332002
v -0.045914 -0.322353 -0.332002
v -0.062516 -0.322353 -0.323017
v -0.062515 0.338047 -0.323017
v -0.077413 -0.322353 -0.311422
v -0.077412 0.338047 -0.311422
v -0.090198 0.338047 -0.297533
v -0.090199 -0.322353 -0.297533
v -0.100524 -0.322353 -0.281729
v -0.100523 0.338047 -0.281729
v -0.108107 -0.322353 -0.264442
v -0.108106 0.338047 -0.264442
v -0.112740 0.338047 -0.246142
v -0.112741 -0.322353 -0.246142
v -0.114300 -0.322353 -0.227329
v -0.114299 0.338047 -0.227328
v 0.009439 -0.322353 -0.341238
v 0.028060 0.338047 -0.338131
v 0.028059 -0.322353 -0.338131
v 0.045915 0.338047 -0.332002
v 0.045914 -0.322353 -0.332002
v 0.062512 -0.322354 -0.323017
v 0.062522 0.338047 -0.323017
v 0.077412 0.338046 -0.311422
v 0.077412 -0.322354 -0.311422
v 0.090202 0.338046 -0.297533
v 0.090202 -0.322354 -0.297533
v 0.100522 -0.322354 -0.281729
v 0.100522 0.338046 -0.281729
v 0.108112 0.338046 -0.264441
v 0.108102 -0.322354 -0.264442
v 0.112742 0.338046 -0.246141
v 0.112742 -0.322354 -0.246142
v 0.090202 0.338046 -0.157124
v 0.100522 -0.322354 -0.172928
v 0.100522 0.338046 -0.172927
v 0.108112 0.338046 -0.190215
v 0.108102 -0.322354 -0.190216
v 0.112742 -0.322354 -0.208516
v 0.062512 -0.322353 -0.131641
v 0.062522 0.338047 -0.131641
v 0.045915 0.338047 -0.122656
v 0.090202 -0.322354 -0.157124
v 0.077412 0.338046 -0.143235
v 0.077412 -0.322354 -0.143235
v 0.009440 0.338047 -0.113419
v -0.009438 0.338047 -0.113419
v 0.009439 -0.322353 -0.113419
v 0.028060 0.338047 -0.116526
v 0.028059 -0.322353 -0.116526
v 0.045914 -0.322353 -0.122656
v -0.062515 0.338047 -0.131641
v -0.045914 -0.322353 -0.122656
v -0.045913 0.338047 -0.122656
v -0.028059 -0.322353 -0.116526
v -0.009439 -0.322353 -0.113419
v -0.028058 0.338047 -0.116526
v -0.090199 -0.322353 -0.157124
v -0.077413 -0.322353 -0.143235
v -0.090198 0.338047 -0.157124
v -0.062516 -0.322353 -0.131641
v -0.077412 0.338047 -0.143235
v -0.100523 0.338047 -0.172928
v -0.100524 -0.322353 -0.172928
v -0.108106 0.338047 -0.190216
v -0.108107 -0.322353 -0.190216
v -0.112741 -0.322353 -0.208516
v -0.112740 0.338047 -0.208516
vn -0.0000 -1.0000 -0.0000
vn -0.0002 -1.0000 -0.0002
vn -0.0000 1.0000 -0.0000
vn 0.0826 -0.0000 -0.9966
vn -0.0826 -0.0000 -0.9966
vn 1.0000 -0.0000 -0.0000
vn 0.9864 -0.0000 0.1645
vn -0.2455 -0.0000 -0.9694
vn -0.4017 -0.0000 -0.9158
vn -0.5469 -0.0000 -0.8372
vn -0.6773 -0.0000 -0.7357
vn -0.7891 -0.0000 -0.6142
vn -0.8795 -0.0000 -0.4760
vn -0.9458 -0.0000 -0.3247
vn -0.9864 -0.0000 -0.1646
vn -1.0000 -0.0000 -0.0000
vn 0.2455 -0.0000 -0.9694
vn 0.4017 -0.0000 -0.9158
vn 0.5470 -0.0000 -0.8372
vn 0.6773 -0.0000 -0.7357
vn 0.7892 -0.0000 -0.6142
vn 0.8794 -0.0000 -0.4761
vn 0.7893 -0.0000 -0.6140
vn 0.8794 -0.0000 -0.4760
vn 0.9458 -0.0000 -0.3248
vn 0.9459 -0.0000 -0.3245
vn 0.9864 -0.0000 -0.1645
vn 0.8794 -0.0000 0.4760
vn 0.9458 -0.0000 0.3248
vn 0.9459 -0.0000 0.3246
vn 0.5470 -0.0000 0.8371
vn 0.6773 -0.0000 0.7357
vn 0.7892 -0.0000 0.6142
vn 0.7890 -0.0000 0.6143
vn 0.2455 -0.0000 0.9694
vn 0.0826 -0.0000 0.9966
vn 0.4017 -0.0000 0.9158
vn -0.2455 -0.0000 0.9694
vn -0.4017 -0.0000 0.9158
vn -0.0826 -0.0000 0.9966
vn -0.7891 -0.0000 0.6142
vn -0.6773 -0.0000 0.7357
vn -0.5470 -0.0000 0.8372
vn -0.8795 -0.0000 0.4760
vn -0.8795 -0.0000 0.4759
vn -0.9458 -0.0000 0.3247
vn -0.9864 -0.0000 0.1646
vn -0.9864 -0.0000 -0.1645
vn 0.5470 -0.0000 0.8372
vn 0.7891 -0.0000 0.6142
vn 0.8795 -0.0000 0.4759
vn 0.9458 -0.0000 0.3247
vn 0.9864 -0.0000 0.1646
vn -0.4016 -0.0000 0.9158
vn -0.5470 -0.0000 0.8371
vn -0.6772 -0.0000 0.7358
vn -0.7892 -0.0000 0.6142
vn -0.8796 -0.0000 0.4758
vn -0.9458 -0.0000 0.3248
vn -0.9863 -0.0000 0.1648
vn -0.9864 -0.0000 0.1645
vn -0.7892 -0.0000 -0.6142
vn -0.8794 -0.0000 -0.4760
vn -0.8796 -0.0000 -0.4758
vn -0.9458 -0.0000 -0.3248
vn -0.9863 -0.0000 -0.1648
vn -0.5470 -0.0000 -0.8371
vn -0.6772 -0.0000 -0.7358
vn -0.4018 -0.0000 -0.9157
vn 0.5469 -0.0000 -0.8372
vn 0.7891 -0.0000 -0.6142
vn 0.8795 -0.0000 -0.4759
vn 0.9458 -0.0000 -0.3247
vn 0.9864 -0.0000 -0.1646
s 1
f 1//1 3//1 2//1
f 4//1 6//1 5//1
f 7//1 8//1 6//1
f 9//1 10//1 4//1
f 11//1 12//1 8//1
f 10//1 14//1 13//1
f 15//1 12//1 16//1
f 17//1 13//1 18//1
f 15//1 20//1 19//1
f 21//1 22//1 17//1
f 23//1 1//1 19//1
f 24//1 26//1 25//1
f 27//1 29//1 28//1
f 30//1 32//1 31//1
f 33//1 35//1 34//1
f 36//1 38//1 37//1
f 39//1 41//1 40//1
f 42//1 44//1 43//1
f 45//1 47//1 46//1
f 48//1 49//1 47//1
f 40//1 51//1 50//1
f 46//1 52//1 51//1
f 53//1 54//1 49//1
f 41//1 56//1 55//1
f 44//1 54//1 57//1
f 58//1 59//2 42//1
f 55//1 60//1 35//1
f 61//1 62//1 33//1
f 59//2 63//2 36//1
f 37//1 65//1 64//1
f 66//1 31//1 62//1
f 32//1 68//1 67//1
f 25//1 69//1 64//1
f 22//1 71//1 70//1
f 28//1 72//1 67//1
f 2//1 73//1 27//1
f 74//1 76//1 75//1
f 75//1 70//1 71//1
f 26//1 24//1 74//1
f 74//1 24//1 76//1
f 69//1 25//1 26//1
f 37//1 64//1 69//1
f 37//1 38//1 65//1
f 36//1 63//2 38//1
f 59//2 58//1 63//2
f 42//1 43//1 58//1
f 44//1 57//1 43//1
f 54//1 53//1 57//1
f 49//1 48//1 53//1
f 47//1 45//1 48//1
f 46//1 51//1 45//1
f 50//1 51//1 52//1
f 39//1 40//1 50//1
f 56//1 41//1 39//1
f 60//1 55//1 56//1
f 34//1 35//1 60//1
f 61//1 33//1 34//1
f 66//1 62//1 61//1
f 30//1 31//1 66//1
f 68//1 32//1 30//1
f 28//1 67//1 68//1
f 28//1 29//1 72//1
f 27//1 73//1 29//1
f 2//1 3//1 73//1
f 1//1 23//1 3//1
f 19//1 20//1 23//1
f 15//1 16//1 20//1
f 12//1 11//1 16//1
f 8//1 7//1 11//1
f 6//1 4//1 7//1
f 9//1 4//1 5//1
f 14//1 10//1 9//1
f 18//1 13//1 14//1
f 21//1 17//1 18//1
f 71//1 22//1 21//1
f 75//1 76//1 70//1
f 77//3 79//3 78//3
f 80//3 82//3 81//3
f 83//3 81//3 84//3
f 85//3 80//3 86//3
f 87//3 84//3 88//3
f 86//3 90//3 89//3
f 91//3 92//3 88//3
f 93//3 94//3 90//3
f 91//3 96//3 95//3
f 97//3 93//3 98//3
f 99//3 96//3 77//3
f 100//3 102//3 101//3
f 103//3 105//3 104//3
f 106//3 108//3 107//3
f 109//3 111//3 110//3
f 112//3 114//3 113//3
f 115//3 117//3 116//3
f 118//3 120//3 119//3
f 121//3 123//3 122//3
f 124//3 122//3 125//3
f 117//3 127//3 126//3
f 123//3 126//3 128//3
f 129//3 125//3 130//3
f 116//3 132//3 131//3
f 119//3 133//3 130//3
f 134//3 118//3 135//3
f 132//3 110//3 136//3
f 137//3 109//3 138//3
f 135//3 112//3 139//3
f 114//3 141//3 140//3
f 142//3 138//3 108//3
f 107//3 144//3 143//3
f 102//3 141//3 145//3
f 98//3 147//3 146//3
f 105//3 144//3 148//3
f 79//3 103//3 149//3
f 150//3 152//3 151//3
f 152//3 146//3 147//3
f 101//3 150//3 100//3
f 150//3 151//3 100//3
f 145//3 101//3 102//3
f 114//3 145//3 141//3
f 114//3 140//3 113//3
f 112//3 113//3 139//3
f 135//3 139//3 134//3
f 118//3 134//3 120//3
f 119//3 120//3 133//3
f 130//3 133//3 129//3
f 125//3 129//3 124//3
f 122//3 124//3 121//3
f 123//3 121//3 126//3
f 127//3 128//3 126//3
f 115//3 127//3 117//3
f 131//3 115//3 116//3
f 136//3 131//3 132//3
f 111//3 136//3 110//3
f 137//3 111//3 109//3
f 142//3 137//3 138//3
f 106//3 142//3 108//3
f 143//3 106//3 107//3
f 105//3 143//3 144//3
f 105//3 148//3 104//3
f 103//3 104//3 149//3
f 79//3 149//3 78//3
f 77//3 78//3 99//3
f 96//3 99//3 95//3
f 91//3 95//3 92//3
f 88//3 92//3 87//3
f 84//3 87//3 83//3
f 81//3 83//3 80//3
f 85//3 82//3 80//3
f 89//3 85//3 86//3
f 94//3 89//3 90//3
f 97//3 94//3 93//3
f 146//3 97//3 98//3
f 152//3 147//3 151//3
f 153//4 155//5 154//5
f 156//6 158//7 157//7
f 159//8 155//5 160//8
f 155//5 159//8 154//5
f 161//9 162//9 160//8
f 159//8 160//8 162//9
f 161//9 164//10 163//10
f 163//10 162//9 161//9
f 165//11 164//10 166//11
f 164//10 165//11 163//10
f 167//12 168//12 166//11
f 165//11 166//11 168//12
f 167//12 170//13 169//13
f 169//13 168//12 167//12
f 171//14 170//13 172//14
f 170//13 171//14 169//13
f 173//15 174//15 172//14
f 171//14 172//14 174//15
f 173//15 176//16 175//16
f 175//16 174//15 173//15
f 177//4 178//17 153//4
f 153//4 154//5 177//4
f 178//17 180//17 179//18
f 180//17 178//17 177//4
f 181//19 179//18 182//18
f 180//17 182//18 179//18
f 183//19 184//20 181//19
f 181//19 182//18 183//19
f 184//20 186//20 185//21
f 186//20 184//20 183//19
f 187//22 185//21 188//23
f 186//20 188//23 185//21
f 189//24 190//25 187//22
f 187//22 188//23 189//24
f 190//25 192//26 191//27
f 192//26 190//25 189//24
f 193//6 191//27 194//27
f 192//26 194//27 191//27
f 195//28 197//29 196//30
f 193//6 194//27 156//6
f 198//31 200//32 199//32
f 201//33 203//28 202//34
f 204//35 206//35 205//36
f 207//31 209//37 208//37
f 210//38 212//39 211//38
f 213//40 215//40 214//36
f 216//41 218//42 217//42
f 219//43 221//39 220//43
f 222//41 223//44 216//41
f 216//41 217//42 222//41
f 223//44 225//45 224//46
f 225//45 223//44 222//41
f 226//47 224//46 227//46
f 225//45 227//46 224//46
f 228//47 176//16 226//47
f 226//47 227//46 228//47
f 175//16 176//16 228//47
f 218//42 220//43 217//42
f 219//43 212//39 221//39
f 218//42 219//43 220//43
f 210//38 211//38 213//40
f 221//39 212//39 210//38
f 214//36 215//40 205//36
f 213//40 211//38 215//40
f 209//37 206//35 204//35
f 206//35 214//36 205//36
f 198//31 207//31 208//37
f 208//37 209//37 204//35
f 200//32 202//34 199//32
f 198//31 199//32 207//31
f 201//33 195//28 203//28
f 200//32 201//33 202//34
f 196//30 197//29 158//7
f 203//28 195//28 196//30
f 156//6 157//7 193//6
f 158//7 197//29 157//7
f 229//36 231//40 230//36
f 232//48 234//16 233//16
f 230//36 236//35 235//35
f 235//35 229//36 230//36
f 237//37 238//37 236//35
f 235//35 236//35 238//37
f 239//49 237//37 240//49
f 237//37 239//49 238//37
f 240//49 242//32 241//32
f 241//32 239//49 240//49
f 243//50 244//50 242//32
f 241//32 242//32 244//50
f 245//51 243//50 246//51
f 243//50 245//51 244//50
f 246//51 248//52 247//52
f 247//52 245//51 246//51
f 249//53 250//53 248//52
f 247//52 248//52 250//53
f 251//6 249//53 252//6
f 249//53 251//6 250//53
f 229//36 253//40 231//40
f 254//38 253//40 255//38
f 253//40 254//38 231//40
f 255//38 257//39 256//54
f 256//54 254//38 255//38
f 258//43 259//55 257//39
f 256//54 257//39 259//55
f 260//42 258//43 261//56
f 258//43 260//42 259//55
f 261//56 263//57 262//57
f 262//57 260//42 261//56
f 264//58 265//44 263//57
f 262//57 263//57 265//44
f 266//46 264//58 267//59
f 264//58 266//46 265//44
f 267//59 269//60 268//61
f 268//61 266//46 267//59
f 268//61 269//60 234//16
f 269//60 233//16 234//16
f 270//62 272//63 271//64
f 273//65 275//66 274//65
f 276//10 278//9 277//67
f 279//62 281//68 280//11
f 282//5 284//5 283//4
f 285//8 287//69 286//8
f 288//70 290//18 289//18
f 291//17 293//17 292//4
f 294//71 296//71 295//20
f 297//70 295//20 298//20
f 299//72 294//71 300//72
f 294//71 299//72 296//71
f 300//72 302//73 301//73
f 301//73 299//72 300//72
f 303//74 304//74 302//73
f 301//73 302//73 304//74
f 252//6 303//74 251//6
f 303//74 252//6 304//74
f 288//70 297//70 298//20
f 295//20 296//71 298//20
f 289//18 290//18 291//17
f 297//70 288//70 289//18
f 293//17 283//4 292//4
f 290//18 293//17 291//17
f 282//5 286//8 284//5
f 283//4 284//5 292//4
f 278//9 287//69 285//8
f 285//8 286//8 282//5
f 281//68 276//10 277//67
f 276//10 287//69 278//9
f 279//62 280//11 270//62
f 281//68 277//67 280//11
f 271//64 272//63 274//65
f 279//62 270//62 271//64
f 273//65 232//48 275//66
f 272//63 273//65 274//65
f 233//16 275//66 232//48
