# Convex collision hull of the torpedo mounting, clipped at y >= -0.348 (base_link_ned)
# so the loaded torpedoes, whose tails sit at y = -0.35, do not start inside it.
o torpedo_mounting_collision
v 0.032424 -0.345127 0.051459
v -0.032856 -0.344837 0.051462
v 0.012625 -0.261074 0.036222
v -0.013087 -0.261074 0.036219
v -0.012740 -0.269259 0.017183
v -0.012512 -0.269014 0.067847
v 0.012278 -0.269259 0.017183
v 0.012050 -0.269014 0.067847
v -0.000231 -0.261939 0.064278
v -0.005549 -0.241337 0.035348
v 0.002153 -0.241083 0.042422
v 0.007083 -0.241434 0.038051
v 0.004624 -0.241342 0.031710
v 0.011821 -0.316342 0.078486
v 0.010233 -0.327652 0.005482
v -0.012394 -0.317904 0.006476
v 0.011614 -0.343242 0.078915
v -0.012076 -0.343242 0.078915
v -0.012282 -0.316342 0.078486
v 0.012295 -0.342242 0.006489
v -0.012608 -0.341873 0.006422
v 0.012162 -0.317027 0.006606
v -0.031942 -0.348000 0.052078
v 0.031639 -0.348000 0.051008
v 0.009563 -0.348000 0.009197
v -0.013589 -0.348000 0.076067
v -0.032017 -0.348000 0.051030
v 0.013194 -0.348000 0.075939
v -0.012457 -0.348000 0.077063
v -0.014527 -0.348000 0.013241
v 0.031627 -0.348000 0.051942
v -0.011290 -0.348000 0.009285
v 0.011092 -0.348000 0.009231
v 0.014068 -0.348000 0.012850
v 0.012077 -0.348000 0.077022
v 0.008012 -0.348000 0.077063
f 8 14 1
f 8 1 3
f 20 34 33
f 16 2 5
f 7 3 1
f 6 11 10
f 17 1 14
f 23 2 27
f 25 20 33
f 21 15 20
f 21 16 15
f 21 32 30
f 21 2 16
f 4 5 2
f 4 10 5
f 4 2 6
f 4 6 10
f 22 1 20
f 22 7 1
f 22 20 15
f 22 15 16
f 22 16 5
f 22 5 7
f 12 3 7
f 12 11 8
f 12 8 3
f 19 6 2
f 9 6 8
f 9 8 11
f 9 11 6
f 36 35 17
f 24 1 31
f 28 17 35
f 13 12 7
f 13 5 10
f 13 7 5
f 13 10 11
f 13 11 12
f 18 26 29
f 18 19 2
f 21 25 32
f 21 20 25
f 21 30 27
f 21 27 2
f 19 8 6
f 19 14 8
f 24 20 1
f 24 34 20
f 28 34 24
f 28 32 25
f 28 33 34
f 28 30 32
f 28 36 29
f 28 27 30
f 28 23 27
f 28 29 26
f 28 25 33
f 28 35 36
f 28 26 23
f 28 24 31
f 28 1 17
f 28 31 1
f 18 29 36
f 18 36 17
f 18 14 19
f 18 17 14
f 18 23 26
f 18 2 23
