# Split from bins_v2.obj
# Blender 5.1.2
# www.blender.org
mtllib bins_v2.mtl
o mesh0
s 1
o mesh0.001
s 1
o mesh0.002
s 1
o mesh0.003
s 1
o mesh0.004
s 1
o mesh0.005
s 1
o mesh0.006
s 1
o mesh0.007
s 1
o mesh0.008
s 1
o mesh0.009
s 1
o mesh0.010
s 1
o mesh0.011
s 1
o mesh0.012
s 1
o mesh0.013
s 1
o mesh0.014
s 1
o mesh0.015
s 1
o mesh0.016
s 1
o mesh0.017
s 1
o mesh0.018
s 1
o mesh0.019
s 1
o mesh1
s 1
o mesh1.001
s 1
o mesh1.002
s 1
o mesh1.003
s 1
o mesh1.004
s 1
o mesh1.005
s 1
o mesh1.006
s 1
o mesh1.007
s 1
o mesh1.008
s 1
o mesh1.009
s 1
o mesh1.010
s 1
o mesh1.011
s 1
o mesh1.012
s 1
o mesh1.013
s 1
o mesh1.014
s 1
o mesh1.015
s 1
o mesh1.016
s 1
o mesh1.017
s 1
o mesh1.018
s 1
o mesh1.019
s 1
o mesh10
s 1
o mesh10.001
s 1
o mesh10.002
s 1
o mesh10.003
s 1
o mesh10.004
s 1
o mesh10.005
s 1
o mesh10.006
s 1
o mesh10.007
s 1
o mesh10.008
s 1
o mesh10.009
s 1
o mesh10.010
s 1
o mesh10.011
s 1
o mesh10.012
s 1
o mesh10.013
s 1
o mesh10.014
s 1
o mesh10.015
s 1
o mesh10.016
s 1
o mesh10.017
s 1
o mesh10.018
s 1
o mesh10.019
s 1
o mesh100
s 1
o mesh100.001
s 1
o mesh101
s 1
o mesh101.001
s 1
o mesh102
s 1
o mesh102.001
s 1
o mesh103
s 1
o mesh103.001
s 1
o mesh104
s 1
o mesh104.001
s 1
o mesh105
s 1
o mesh105.001
s 1
o mesh106
s 1
o mesh106.001
s 1
o mesh107
s 1
o mesh107.001
s 1
o mesh108
s 1
o mesh108.001
s 1
o mesh109
s 1
o mesh109.001
s 1
o mesh11
s 1
o mesh11.001
s 1
o mesh11.002
s 1
o mesh11.003
s 1
o mesh11.004
s 1
o mesh11.005
s 1
o mesh11.006
s 1
o mesh11.007
s 1
o mesh11.008
s 1
o mesh11.009
s 1
o mesh11.010
s 1
o mesh11.011
s 1
o mesh11.012
s 1
o mesh11.013
s 1
o mesh11.014
s 1
o mesh11.015
s 1
o mesh11.016
s 1
o mesh11.017
s 1
o mesh11.018
s 1
o mesh11.019
s 1
o mesh110
s 1
o mesh110.001
s 1
o mesh111
s 1
o mesh111.001
s 1
o mesh112
s 1
o mesh112.001
s 1
o mesh113
s 1
o mesh113.001
s 1
o mesh114
s 1
o mesh114.001
s 1
o mesh115
s 1
o mesh115.001
s 1
o mesh116
s 1
o mesh116.001
s 1
o mesh117
s 1
o mesh117.001
s 1
o mesh118
s 1
o mesh118.001
s 1
o mesh119
s 1
o mesh119.001
s 1
o mesh12
s 1
o mesh12.001
s 1
o mesh12.002
s 1
o mesh12.003
s 1
o mesh12.004
s 1
o mesh12.005
s 1
o mesh12.006
s 1
o mesh12.007
s 1
o mesh12.008
s 1
o mesh12.009
s 1
o mesh12.010
s 1
o mesh12.011
s 1
o mesh12.012
s 1
o mesh12.013
s 1
o mesh12.014
s 1
o mesh12.015
s 1
o mesh12.016
s 1
o mesh12.017
s 1
o mesh12.018
s 1
o mesh12.019
s 1
o mesh120
s 1
o mesh120.001
s 1
o mesh121
s 1
o mesh121.001
s 1
o mesh122
s 1
o mesh122.001
s 1
o mesh123
s 1
o mesh123.001
s 1
o mesh124
s 1
o mesh124.001
s 1
o mesh125
s 1
o mesh125.001
s 1
o mesh126
s 1
o mesh126.001
s 1
o mesh127
s 1
o mesh127.001
s 1
o mesh128
s 1
o mesh128.001
s 1
o mesh129
s 1
o mesh129.001
s 1
o mesh13
s 1
o mesh13.001
s 1
o mesh13.002
s 1
o mesh13.003
s 1
o mesh13.004
s 1
o mesh13.005
s 1
o mesh13.006
s 1
o mesh13.007
s 1
o mesh13.008
s 1
o mesh13.009
s 1
o mesh13.010
s 1
o mesh13.011
s 1
o mesh13.012
s 1
o mesh13.013
s 1
o mesh13.014
s 1
o mesh13.015
s 1
o mesh13.016
s 1
o mesh13.017
s 1
o mesh13.018
s 1
o mesh13.019
s 1
o mesh130
s 1
o mesh130.001
s 1
o mesh131
s 1
o mesh131.001
s 1
o mesh132
s 1
o mesh132.001
s 1
o mesh133
s 1
o mesh133.001
s 1
o mesh134
s 1
o mesh134.001
s 1
o mesh135
s 1
o mesh135.001
s 1
o mesh136
s 1
o mesh136.001
s 1
o mesh137
s 1
o mesh137.001
s 1
o mesh138
s 1
o mesh138.001
s 1
o mesh139
s 1
o mesh139.001
s 1
o mesh14
s 1
o mesh14.001
s 1
o mesh14.002
s 1
o mesh14.003
s 1
o mesh14.004
s 1
o mesh14.005
s 1
o mesh14.006
s 1
o mesh14.007
s 1
o mesh14.008
s 1
o mesh14.009
s 1
o mesh14.010
s 1
o mesh14.011
s 1
o mesh14.012
s 1
o mesh14.013
s 1
o mesh14.014
s 1
o mesh14.015
s 1
o mesh14.016
s 1
o mesh14.017
s 1
o mesh14.018
s 1
o mesh14.019
s 1
o mesh140
s 1
o mesh140.001
s 1
o mesh141
s 1
o mesh141.001
s 1
o mesh142
s 1
o mesh142.001
s 1
o mesh143
s 1
o mesh143.001
s 1
o mesh144
s 1
o mesh144.001
s 1
o mesh145
s 1
o mesh145.001
s 1
o mesh146
s 1
o mesh146.001
s 1
o mesh147
s 1
o mesh147.001
s 1
o mesh148
s 1
o mesh148.001
s 1
o mesh149
s 1
o mesh149.001
s 1
o mesh15
s 1
o mesh15.001
s 1
o mesh15.002
s 1
o mesh15.003
s 1
o mesh15.004
s 1
o mesh15.005
s 1
o mesh15.006
s 1
o mesh15.007
s 1
o mesh15.008
s 1
o mesh15.009
s 1
o mesh15.010
s 1
o mesh15.011
s 1
o mesh15.012
s 1
o mesh15.013
s 1
o mesh15.014
s 1
o mesh15.015
s 1
o mesh15.016
s 1
o mesh15.017
s 1
o mesh15.018
s 1
o mesh15.019
s 1
o mesh150
s 1
o mesh150.001
s 1
o mesh151
s 1
o mesh151.001
s 1
o mesh152
s 1
o mesh152.001
s 1
o mesh153
s 1
o mesh153.001
s 1
o mesh154
s 1
o mesh154.001
s 1
o mesh155
s 1
o mesh155.001
s 1
o mesh156
s 1
o mesh156.001
s 1
o mesh157
s 1
o mesh157.001
s 1
o mesh158
s 1
o mesh158.001
s 1
o mesh159
s 1
o mesh159.001
s 1
o mesh16
s 1
o mesh16.001
s 1
o mesh16.002
s 1
o mesh16.003
s 1
o mesh16.004
s 1
o mesh16.005
s 1
o mesh16.006
s 1
o mesh16.007
s 1
o mesh16.008
s 1
o mesh16.009
s 1
o mesh16.010
s 1
o mesh16.011
s 1
o mesh16.012
s 1
o mesh16.013
s 1
o mesh16.014
s 1
o mesh16.015
s 1
o mesh16.016
s 1
o mesh16.017
s 1
o mesh16.018
s 1
o mesh16.019
s 1
o mesh160
s 1
o mesh160.001
s 1
o mesh161
s 1
o mesh161.001
s 1
o mesh162
s 1
o mesh162.001
s 1
o mesh163
s 1
o mesh163.001
s 1
o mesh164
s 1
o mesh164.001
s 1
o mesh164.002
s 1
o mesh164.003
s 1
o mesh165
s 1
o mesh165.001
s 1
o mesh165.002
s 1
o mesh165.003
s 1
o mesh166
s 1
o mesh166.001
s 1
o mesh166.002
s 1
o mesh166.003
s 1
o mesh167
s 1
o mesh167.001
s 1
o mesh167.002
s 1
o mesh167.003
s 1
o mesh17
s 1
o mesh17.001
s 1
o mesh17.002
s 1
o mesh17.003
s 1
o mesh17.004
s 1
o mesh17.005
s 1
o mesh17.006
s 1
o mesh17.007
s 1
o mesh17.008
s 1
o mesh17.009
s 1
o mesh17.010
s 1
o mesh17.011
s 1
o mesh17.012
s 1
o mesh17.013
s 1
o mesh17.014
s 1
o mesh17.015
s 1
o mesh17.016
s 1
o mesh17.017
s 1
o mesh17.018
s 1
o mesh17.019
s 1
o mesh18
s 1
o mesh18.001
s 1
o mesh18.002
s 1
o mesh18.003
s 1
o mesh18.004
s 1
o mesh18.005
s 1
o mesh18.006
s 1
o mesh18.007
s 1
o mesh18.008
s 1
o mesh18.009
s 1
o mesh18.010
s 1
o mesh18.011
s 1
o mesh18.012
s 1
o mesh18.013
s 1
o mesh18.014
s 1
o mesh18.015
s 1
o mesh18.016
s 1
o mesh18.017
s 1
o mesh18.018
s 1
o mesh18.019
s 1
o mesh19
s 1
o mesh19.001
s 1
o mesh19.002
s 1
o mesh19.003
s 1
o mesh19.004
s 1
o mesh19.005
s 1
o mesh19.006
s 1
o mesh19.007
s 1
o mesh19.008
s 1
o mesh19.009
s 1
o mesh19.010
s 1
o mesh19.011
s 1
o mesh19.012
s 1
o mesh19.013
s 1
o mesh19.014
s 1
o mesh19.015
s 1
o mesh19.016
s 1
o mesh19.017
s 1
o mesh19.018
s 1
o mesh19.019
s 1
o mesh2
s 1
o mesh2.001
s 1
o mesh2.002
s 1
o mesh2.003
s 1
o mesh2.004
s 1
o mesh2.005
s 1
o mesh2.006
s 1
o mesh2.007
s 1
o mesh2.008
s 1
o mesh2.009
s 1
o mesh2.010
s 1
o mesh2.011
s 1
o mesh2.012
s 1
o mesh2.013
s 1
o mesh2.014
s 1
o mesh2.015
s 1
o mesh2.016
s 1
o mesh2.017
s 1
o mesh2.018
s 1
o mesh2.019
s 1
o mesh20
s 1
o mesh20.001
s 1
o mesh20.002
s 1
o mesh20.003
s 1
o mesh20.004
s 1
o mesh20.005
s 1
o mesh20.006
s 1
o mesh20.007
s 1
o mesh20.008
s 1
o mesh20.009
s 1
o mesh20.010
s 1
o mesh20.011
s 1
o mesh20.012
s 1
o mesh20.013
s 1
o mesh20.014
s 1
o mesh20.015
s 1
o mesh20.016
s 1
o mesh20.017
s 1
o mesh20.018
s 1
o mesh20.019
s 1
o mesh21
s 1
o mesh21.001
s 1
o mesh21.002
s 1
o mesh21.003
s 1
o mesh21.004
s 1
o mesh21.005
s 1
o mesh21.006
s 1
o mesh21.007
s 1
o mesh21.008
s 1
o mesh21.009
s 1
o mesh21.010
s 1
o mesh21.011
s 1
o mesh21.012
s 1
o mesh21.013
s 1
o mesh21.014
s 1
o mesh21.015
s 1
o mesh21.016
s 1
o mesh21.017
s 1
o mesh21.018
s 1
o mesh21.019
s 1
o mesh22
s 1
o mesh22.001
s 1
o mesh22.002
s 1
o mesh22.003
s 1
o mesh22.004
s 1
o mesh22.005
s 1
o mesh22.006
s 1
o mesh22.007
s 1
o mesh22.008
s 1
o mesh22.009
s 1
o mesh22.010
s 1
o mesh22.011
s 1
o mesh22.012
s 1
o mesh22.013
s 1
o mesh22.014
s 1
o mesh22.015
s 1
o mesh22.016
s 1
o mesh22.017
s 1
o mesh22.018
s 1
o mesh22.019
s 1
o mesh23
s 1
o mesh23.001
s 1
o mesh23.002
s 1
o mesh23.003
s 1
o mesh23.004
s 1
o mesh23.005
s 1
o mesh23.006
s 1
o mesh23.007
s 1
o mesh23.008
s 1
o mesh23.009
s 1
o mesh23.010
s 1
o mesh23.011
s 1
o mesh23.012
s 1
o mesh23.013
s 1
o mesh23.014
s 1
o mesh23.015
s 1
o mesh23.016
s 1
o mesh23.017
s 1
o mesh23.018
s 1
o mesh23.019
s 1
o mesh24
s 1
o mesh24.001
s 1
o mesh24.002
s 1
o mesh24.003
s 1
o mesh24.004
s 1
o mesh24.005
s 1
o mesh24.006
s 1
o mesh24.007
s 1
o mesh24.008
s 1
o mesh24.009
s 1
o mesh24.010
s 1
o mesh24.011
s 1
o mesh24.012
s 1
o mesh24.013
s 1
o mesh24.014
s 1
o mesh24.015
s 1
o mesh24.016
s 1
o mesh24.017
s 1
o mesh24.018
s 1
o mesh24.019
s 1
o mesh25
s 1
o mesh25.001
s 1
o mesh25.002
s 1
o mesh25.003
s 1
o mesh25.004
s 1
o mesh25.005
s 1
o mesh25.006
s 1
o mesh25.007
s 1
o mesh25.008
s 1
o mesh25.009
s 1
o mesh25.010
s 1
o mesh25.011
s 1
o mesh25.012
s 1
o mesh25.013
s 1
o mesh25.014
s 1
o mesh25.015
s 1
o mesh25.016
s 1
o mesh25.017
s 1
o mesh25.018
s 1
o mesh25.019
s 1
o mesh26
s 1
o mesh26.001
s 1
o mesh26.002
s 1
o mesh26.003
s 1
o mesh26.004
s 1
o mesh26.005
s 1
o mesh26.006
s 1
o mesh26.007
s 1
o mesh26.008
s 1
o mesh26.009
s 1
o mesh26.010
s 1
o mesh26.011
s 1
o mesh26.012
s 1
o mesh26.013
s 1
o mesh26.014
s 1
o mesh26.015
s 1
o mesh26.016
s 1
o mesh26.017
s 1
o mesh26.018
s 1
o mesh26.019
s 1
o mesh27
s 1
o mesh27.001
s 1
o mesh27.002
s 1
o mesh27.003
s 1
o mesh27.004
s 1
o mesh27.005
s 1
o mesh27.006
s 1
o mesh27.007
s 1
o mesh27.008
s 1
o mesh27.009
s 1
o mesh27.010
s 1
o mesh27.011
s 1
o mesh27.012
s 1
o mesh27.013
s 1
o mesh27.014
s 1
o mesh27.015
s 1
o mesh27.016
s 1
o mesh27.017
s 1
o mesh27.018
s 1
o mesh27.019
s 1
o mesh28
s 1
o mesh28.001
s 1
o mesh28.002
s 1
o mesh28.003
s 1
o mesh28.004
s 1
o mesh28.005
s 1
o mesh28.006
s 1
o mesh28.007
s 1
o mesh28.008
s 1
o mesh28.009
s 1
o mesh28.010
s 1
o mesh28.011
s 1
o mesh28.012
s 1
o mesh28.013
s 1
o mesh28.014
s 1
o mesh28.015
s 1
o mesh28.016
s 1
o mesh28.017
s 1
o mesh28.018
s 1
o mesh28.019
s 1
o mesh29
s 1
o mesh29.001
s 1
o mesh29.002
s 1
o mesh29.003
s 1
o mesh29.004
s 1
o mesh29.005
s 1
o mesh29.006
s 1
o mesh29.007
s 1
o mesh29.008
s 1
o mesh29.009
s 1
o mesh29.010
s 1
o mesh29.011
s 1
o mesh29.012
s 1
o mesh29.013
s 1
o mesh29.014
s 1
o mesh29.015
s 1
o mesh29.016
s 1
o mesh29.017
s 1
o mesh29.018
s 1
o mesh29.019
s 1
o mesh3
s 1
o mesh3.001
s 1
o mesh3.002
s 1
o mesh3.003
s 1
o mesh3.004
s 1
o mesh3.005
s 1
o mesh3.006
s 1
o mesh3.007
s 1
o mesh3.008
s 1
o mesh3.009
s 1
o mesh3.010
s 1
o mesh3.011
s 1
o mesh3.012
s 1
o mesh3.013
s 1
o mesh3.014
s 1
o mesh3.015
s 1
o mesh3.016
s 1
o mesh3.017
s 1
o mesh3.018
s 1
o mesh3.019
s 1
o mesh30
s 1
o mesh30.001
s 1
o mesh30.002
s 1
o mesh30.003
s 1
o mesh30.004
s 1
o mesh30.005
s 1
o mesh30.006
s 1
o mesh30.007
s 1
o mesh30.008
s 1
o mesh30.009
s 1
o mesh30.010
s 1
o mesh30.011
s 1
o mesh30.012
s 1
o mesh30.013
s 1
o mesh30.014
s 1
o mesh30.015
s 1
o mesh30.016
s 1
o mesh30.017
s 1
o mesh30.018
s 1
o mesh30.019
s 1
o mesh31
s 1
o mesh31.001
s 1
o mesh31.002
s 1
o mesh31.003
s 1
o mesh31.004
s 1
o mesh31.005
s 1
o mesh31.006
s 1
o mesh31.007
s 1
o mesh31.008
s 1
o mesh31.009
s 1
o mesh31.010
s 1
o mesh31.011
s 1
o mesh31.012
s 1
o mesh31.013
s 1
o mesh31.014
s 1
o mesh31.015
s 1
o mesh31.016
s 1
o mesh31.017
s 1
o mesh31.018
s 1
o mesh31.019
s 1
o mesh32
s 1
o mesh32.001
s 1
o mesh32.002
s 1
o mesh32.003
s 1
o mesh32.004
s 1
o mesh32.005
s 1
o mesh32.006
s 1
o mesh32.007
s 1
o mesh32.008
s 1
o mesh32.009
s 1
o mesh32.010
s 1
o mesh32.011
s 1
o mesh32.012
s 1
o mesh32.013
s 1
o mesh32.014
s 1
o mesh32.015
s 1
o mesh32.016
s 1
o mesh32.017
s 1
o mesh32.018
s 1
o mesh32.019
s 1
o mesh33
s 1
o mesh33.001
s 1
o mesh33.002
s 1
o mesh33.003
s 1
o mesh33.004
s 1
o mesh33.005
s 1
o mesh33.006
s 1
o mesh34
s 1
o mesh34.001
s 1
o mesh34.002
s 1
o mesh34.003
s 1
o mesh34.004
s 1
o mesh34.005
s 1
o mesh34.006
s 1
o mesh35
s 1
o mesh35.001
s 1
o mesh35.002
s 1
o mesh35.003
s 1
o mesh35.004
s 1
o mesh35.005
s 1
o mesh35.006
s 1
o mesh36
s 1
o mesh36.001
s 1
o mesh36.002
s 1
o mesh36.003
s 1
o mesh36.004
s 1
o mesh36.005
s 1
o mesh36.006
s 1
o mesh37
s 1
o mesh37.001
s 1
o mesh37.002
s 1
o mesh37.003
s 1
o mesh37.004
s 1
o mesh37.005
s 1
o mesh37.006
s 1
o mesh37.007
s 1
o mesh37.008
s 1
o mesh37.009
s 1
o mesh38
s 1
o mesh38.001
s 1
o mesh38.002
s 1
o mesh38.003
s 1
o mesh38.004
s 1
o mesh38.005
s 1
o mesh38.006
s 1
o mesh38.007
s 1
o mesh38.008
s 1
o mesh38.009
s 1
o mesh39
s 1
o mesh39.001
s 1
o mesh39.002
s 1
o mesh39.003
s 1
o mesh39.004
s 1
o mesh39.005
s 1
o mesh39.006
s 1
o mesh39.007
s 1
o mesh39.008
s 1
o mesh39.009
s 1
o mesh4
s 1
o mesh4.001
s 1
o mesh4.002
s 1
o mesh4.003
s 1
o mesh4.004
s 1
o mesh4.005
s 1
o mesh4.006
s 1
o mesh4.007
s 1
o mesh4.008
s 1
o mesh4.009
s 1
o mesh4.010
s 1
o mesh4.011
s 1
o mesh4.012
s 1
o mesh4.013
s 1
o mesh4.014
s 1
o mesh4.015
s 1
o mesh4.016
s 1
o mesh4.017
s 1
o mesh4.018
s 1
o mesh4.019
s 1
o mesh40
s 1
o mesh40.001
s 1
o mesh40.002
s 1
o mesh40.003
s 1
o mesh40.004
s 1
o mesh40.005
s 1
o mesh40.006
s 1
o mesh40.007
s 1
o mesh40.008
s 1
o mesh40.009
s 1
o mesh41
s 1
o mesh41.001
s 1
o mesh41.002
s 1
o mesh41.003
s 1
o mesh42
s 1
o mesh42.001
s 1
o mesh42.002
s 1
o mesh42.003
s 1
o mesh43
s 1
o mesh43.001
s 1
o mesh43.002
s 1
o mesh43.003
s 1
o mesh44
s 1
o mesh44.001
s 1
o mesh44.002
s 1
o mesh44.003
s 1
o mesh45.001
s 1
o mesh45.002
v -0.084512 -0.563588 -0.374663
v 0.250768 -0.563588 -0.374663
v 0.250768 -0.228308 -0.374663
v -0.084512 -0.228308 -0.374663
v -0.084512 -0.563588 -0.344663
v 0.250768 -0.563588 -0.344663
v 0.250768 -0.228308 -0.344663
v -0.084512 -0.228308 -0.344663
vn 0.5773 0.5773 -0.5774
vn 0.5774 -0.5774 -0.5774
vn -0.5773 -0.5773 -0.5774
vn -0.5774 0.5774 -0.5774
vn 0.5773 0.5773 0.5774
vn -0.5773 -0.5773 0.5774
vn 0.5774 -0.5774 0.5774
vn -0.5774 0.5774 0.5774
vt 0.000100 0.999900
vt 0.000100 0.000100
vt 0.999900 0.000100
vt 0.999900 0.999900
s 1
usemtl Material.002
f 3/1/1 2/2/2 1/3/3
f 1/3/3 4/4/4 3/1/1
f 7/1/5 5/3/6 6/2/7
f 5/3/6 7/1/5 8/4/8
f 2/2/2 3/1/1 7/1/5 6/2/7
f 1/3/3 2/2/2 6/2/7 5/3/6
f 4/4/4 1/3/3 5/3/6 8/4/8
f 3/1/1 4/4/4 8/4/8 7/1/5
o mesh45.003
s 1
o mesh46
v 0.143886 -1.236320 -0.332608
v 0.474086 -1.236320 -0.332608
v 0.143886 -0.906118 -0.332608
s 1
l 9 11
l 9 10
o mesh46.001
v -0.081986 -0.565131 -0.095765
v 0.248214 -0.565131 -0.095765
v -0.081986 -0.234931 -0.095765
s 1
l 12 14
l 12 13
o mesh46.002
v -0.538184 -1.473230 -0.366109
v -0.207984 -1.143030 -0.366109
v -0.538184 -1.143030 -0.366109
s 1
l 16 17
l 15 17
o mesh46.003
v -0.763722 -0.781801 -0.197270
v -0.433522 -0.451601 -0.197270
v -0.763722 -0.451601 -0.197270
s 1
l 19 20
l 18 20
o mesh47
s 1
o mesh47.001
s 1
o mesh47.002
s 1
o mesh47.003
s 1
o mesh48
s 1
o mesh48.001
s 1
o mesh48.002
s 1
o mesh48.003
s 1
o mesh49
s 1
o mesh49.001
s 1
o mesh49.002
s 1
o mesh49.003
s 1
o mesh5
s 1
o mesh5.001
s 1
o mesh5.002
s 1
o mesh5.003
s 1
o mesh5.004
s 1
o mesh5.005
s 1
o mesh5.006
s 1
o mesh5.007
s 1
o mesh5.008
s 1
o mesh5.009
s 1
o mesh5.010
s 1
o mesh5.011
s 1
o mesh5.012
s 1
o mesh5.013
s 1
o mesh5.014
s 1
o mesh5.015
s 1
o mesh5.016
s 1
o mesh5.017
s 1
o mesh5.018
s 1
o mesh5.019
s 1
o mesh50
s 1
o mesh50.001
s 1
o mesh50.002
s 1
o mesh50.003
s 1
o mesh51.002
v -0.210524 -1.145570 -0.632809
v -0.210524 -1.470690 -0.632809
v -0.535644 -1.470690 -0.632809
v -0.535644 -1.145570 -0.632809
v -0.210524 -1.145570 -0.662809
v -0.210524 -1.470690 -0.662809
v -0.535644 -1.470690 -0.662809
v -0.535644 -1.145570 -0.662809
vn -0.5773 0.5773 0.5774
vn -0.5774 -0.5774 0.5774
vn 0.5773 -0.5773 0.5774
vn 0.5774 0.5774 0.5774
vn -0.5773 0.5773 -0.5774
vn 0.5773 -0.5773 -0.5774
vn -0.5774 -0.5774 -0.5774
vn 0.5774 0.5774 -0.5774
vt 0.999900 0.999900
vt 0.000100 0.999900
vt 0.000100 0.000100
vt 0.999900 0.000100
s 1
usemtl Material.001
f 24/5/9 23/6/10 22/7/11
f 22/7/11 21/8/12 24/5/9
f 28/5/13 26/7/14 27/6/15
f 26/7/14 28/5/13 25/8/16
f 23/6/10 24/5/9 28/5/13 27/6/15
f 22/7/11 23/6/10 27/6/15 26/7/14
f 21/8/12 22/7/11 26/7/14 25/8/16
f 24/5/9 21/8/12 25/8/16 28/5/13
o mesh52
s 1
o mesh52.001
s 1
o mesh52.002
s 1
o mesh52.003
s 1
o mesh52.004
s 1
o mesh52.005
s 1
o mesh52.006
s 1
o mesh53
s 1
o mesh53.001
s 1
o mesh53.002
s 1
o mesh53.003
s 1
o mesh53.004
s 1
o mesh53.005
s 1
o mesh53.006
s 1
o mesh54
s 1
o mesh54.001
s 1
o mesh54.002
s 1
o mesh54.003
s 1
o mesh54.004
s 1
o mesh54.005
s 1
o mesh54.006
s 1
o mesh55
s 1
o mesh55.001
s 1
o mesh55.002
s 1
o mesh55.003
s 1
o mesh55.004
s 1
o mesh55.005
s 1
o mesh55.006
s 1
o mesh56
s 1
o mesh56.001
s 1
o mesh56.002
s 1
o mesh56.003
s 1
o mesh56.004
s 1
o mesh56.005
s 1
o mesh57
s 1
o mesh57.001
s 1
o mesh57.002
s 1
o mesh57.003
s 1
o mesh57.004
s 1
o mesh57.005
s 1
o mesh58
s 1
o mesh58.001
s 1
o mesh58.002
s 1
o mesh58.003
s 1
o mesh58.004
s 1
o mesh58.005
s 1
o mesh59
s 1
o mesh59.001
s 1
o mesh59.002
s 1
o mesh59.003
s 1
o mesh59.004
s 1
o mesh59.005
s 1
o mesh6
s 1
o mesh6.001
s 1
o mesh6.002
s 1
o mesh6.003
s 1
o mesh6.004
s 1
o mesh6.005
s 1
o mesh6.006
s 1
o mesh6.007
s 1
o mesh6.008
s 1
o mesh6.009
s 1
o mesh6.010
s 1
o mesh6.011
s 1
o mesh6.012
s 1
o mesh6.013
s 1
o mesh6.014
s 1
o mesh6.015
s 1
o mesh6.016
s 1
o mesh6.017
s 1
o mesh6.018
s 1
o mesh6.019
s 1
o mesh60
s 1
o mesh61
s 1
o mesh62
s 1
o mesh63
s 1
o mesh64
s 1
o mesh64.001
s 1
o mesh65
s 1
o mesh65.001
s 1
o mesh66
s 1
o mesh66.001
s 1
o mesh67
s 1
o mesh67.001
s 1
o mesh68
s 1
o mesh68.001
s 1
o mesh69
s 1
o mesh69.001
s 1
o mesh7
s 1
o mesh7.001
s 1
o mesh7.002
s 1
o mesh7.003
s 1
o mesh7.004
s 1
o mesh7.005
s 1
o mesh7.006
s 1
o mesh7.007
s 1
o mesh7.008
s 1
o mesh7.009
s 1
o mesh7.010
s 1
o mesh7.011
s 1
o mesh7.012
s 1
o mesh7.013
s 1
o mesh7.014
s 1
o mesh7.015
s 1
o mesh7.016
s 1
o mesh7.017
s 1
o mesh7.018
s 1
o mesh7.019
s 1
o mesh70
s 1
o mesh70.001
s 1
o mesh71
s 1
o mesh71.001
s 1
o mesh72
s 1
o mesh72.001
s 1
o mesh73
s 1
o mesh73.001
s 1
o mesh74
s 1
o mesh74.001
s 1
o mesh75
s 1
o mesh75.001
s 1
o mesh76
s 1
o mesh76.001
s 1
o mesh77
s 1
o mesh77.001
s 1
o mesh78
s 1
o mesh78.001
s 1
o mesh79
s 1
o mesh79.001
s 1
o mesh8
s 1
o mesh8.001
s 1
o mesh8.002
s 1
o mesh8.003
s 1
o mesh8.004
s 1
o mesh8.005
s 1
o mesh8.006
s 1
o mesh8.007
s 1
o mesh8.008
s 1
o mesh8.009
s 1
o mesh8.010
s 1
o mesh8.011
s 1
o mesh8.012
s 1
o mesh8.013
s 1
o mesh8.014
s 1
o mesh8.015
s 1
o mesh8.016
s 1
o mesh8.017
s 1
o mesh8.018
s 1
o mesh8.019
s 1
o mesh80
s 1
o mesh80.001
s 1
o mesh81
s 1
o mesh81.001
s 1
o mesh82
s 1
o mesh82.001
s 1
o mesh83
s 1
o mesh83.001
s 1
o mesh84
s 1
o mesh84.001
s 1
o mesh85
s 1
o mesh85.001
s 1
o mesh86
s 1
o mesh86.001
s 1
o mesh87
s 1
o mesh87.001
s 1
o mesh88
s 1
o mesh88.001
s 1
o mesh89
s 1
o mesh89.001
s 1
o mesh9
s 1
o mesh9.001
s 1
o mesh9.002
s 1
o mesh9.003
s 1
o mesh9.004
s 1
o mesh9.005
s 1
o mesh9.006
s 1
o mesh9.007
s 1
o mesh9.008
s 1
o mesh9.009
s 1
o mesh9.010
s 1
o mesh9.011
s 1
o mesh9.012
s 1
o mesh9.013
s 1
o mesh9.014
s 1
o mesh9.015
s 1
o mesh9.016
s 1
o mesh9.017
s 1
o mesh9.018
s 1
o mesh9.019
s 1
o mesh90
s 1
o mesh90.001
s 1
o mesh91
s 1
o mesh91.001
s 1
o mesh92
s 1
o mesh92.001
s 1
o mesh93
s 1
o mesh93.001
s 1
o mesh94
s 1
o mesh94.001
s 1
o mesh95
s 1
o mesh95.001
s 1
o mesh96
s 1
o mesh96.001
s 1
o mesh97
s 1
o mesh97.001
s 1
o mesh98
s 1
o mesh98.001
s 1
o mesh99
s 1
o mesh99.001
s 1
