# Blender 4.5.4 LTS
# www.blender.org
o Cube
v -0.303750 0.375000 -0.022500
v -0.337500 0.337500 -0.022500
v -0.314179 0.373165 -0.022500
v -0.323588 0.367838 -0.022500
v -0.331054 0.359542 -0.022500
v -0.335848 0.349088 -0.022500
v -0.337500 0.337500 -0.027500
v -0.303750 0.375000 -0.027500
v -0.335848 0.349088 -0.027500
v -0.331054 0.359542 -0.027500
v -0.323588 0.367838 -0.027500
v -0.314179 0.373165 -0.027500
v 0.337500 0.337500 -0.022500
v 0.303750 0.375000 -0.022500
v 0.335848 0.349088 -0.022500
v 0.331054 0.359542 -0.022500
v 0.323588 0.367838 -0.022500
v 0.314179 0.373165 -0.022500
v 0.303750 0.375000 -0.027500
v 0.337500 0.337500 -0.027500
v 0.314179 0.373165 -0.027500
v 0.323588 0.367838 -0.027500
v 0.331054 0.359542 -0.027500
v 0.335848 0.349088 -0.027500
v 0.303750 -0.375000 -0.022500
v 0.337500 -0.337500 -0.022500
v 0.314179 -0.373165 -0.022500
v 0.323588 -0.367838 -0.022500
v 0.331054 -0.359542 -0.022500
v 0.335848 -0.349088 -0.022500
v 0.337500 -0.337500 -0.027500
v 0.303750 -0.375000 -0.027500
v 0.335848 -0.349088 -0.027500
v 0.331054 -0.359542 -0.027500
v 0.323588 -0.367838 -0.027500
v 0.314179 -0.373165 -0.027500
v -0.337500 -0.337500 -0.022500
v -0.303750 -0.375000 -0.022500
v -0.335848 -0.349088 -0.022500
v -0.331054 -0.359542 -0.022500
v -0.323588 -0.367838 -0.022500
v -0.314179 -0.373165 -0.022500
v -0.303750 -0.375000 -0.027500
v -0.337500 -0.337500 -0.027500
v -0.314179 -0.373165 -0.027500
v -0.323588 -0.367838 -0.027500
v -0.331054 -0.359542 -0.027500
v -0.335848 -0.349088 -0.027500
vn -0.9900 0.1411 -0.0000
vn -0.9090 0.4168 -0.0000
vn -0.7433 0.6690 -0.0000
vn -0.4927 0.8702 -0.0000
vn -0.1733 0.9849 -0.0000
vn 0.1733 0.9849 -0.0000
vn 0.4927 0.8702 -0.0000
vn 0.7433 0.6690 -0.0000
vn 0.9090 0.4168 -0.0000
vn 0.9900 0.1411 -0.0000
vn -0.0000 1.0000 -0.0000
vn 0.1733 -0.9849 -0.0000
vn 0.4927 -0.8702 -0.0000
vn 0.7433 -0.6690 -0.0000
vn 0.9090 -0.4168 -0.0000
vn 0.9900 -0.1411 -0.0000
vn 1.0000 -0.0000 -0.0000
vn -0.1733 -0.9849 -0.0000
vn -0.4927 -0.8702 -0.0000
vn -0.7433 -0.6690 -0.0000
vn -0.9090 -0.4168 -0.0000
vn -0.9900 -0.1411 -0.0000
vn -0.0000 -1.0000 -0.0000
vn -1.0000 -0.0000 -0.0000
vn -0.0000 -0.0000 1.0000
vn -0.0000 -0.0000 -1.0000
vt 0.375000 0.512500
vt 0.625593 0.508637
vt 0.625000 0.512500
vt 0.374407 0.508637
vt 0.627315 0.505153
vt 0.372685 0.505153
vt 0.629996 0.502158
vt 0.370004 0.502158
vt 0.633375 0.500331
vt 0.366625 0.500331
vt 0.631358 0.493858
vt 0.374665 0.262835
vt 0.625231 0.258868
vt 0.625335 0.262835
vt 0.374769 0.258868
vt 0.625138 0.255291
vt 0.374862 0.255291
vt 0.625000 0.244847
vt 0.375000 0.244847
vt 0.625000 0.241363
vt 0.375000 0.241363
vt 0.625000 0.237500
vt 0.368643 0.493857
vt 0.625000 0.987500
vt 0.375000 0.991363
vt 0.375000 0.987500
vt 0.625000 0.991363
vt 0.375000 1.000000
vt 0.625000 0.000000
vt 0.375000 0.005153
vt 0.375000 0.000000
vt 0.625000 0.005153
vt 0.375000 0.008637
vt 0.625000 0.008637
vt 0.375000 0.012500
vt 0.625000 0.012500
vt 0.375000 0.237500
vt 0.368482 0.755982
vt 0.633372 0.749667
vt 0.631518 0.755982
vt 0.366628 0.749667
vt 0.629987 0.747833
vt 0.370013 0.747833
vt 0.627306 0.744838
vt 0.372694 0.744838
vt 0.625590 0.741360
vt 0.374410 0.741360
vt 0.625000 0.737500
vt 0.375000 0.737500
vt 0.125000 0.737500
vt 0.866147 0.500396
vt 0.869840 0.747606
vt 0.625000 1.000000
vt 0.125000 0.512500
vt 0.125620 0.508629
vt 0.127424 0.505116
vt 0.130261 0.502279
vt 0.133853 0.500396
vt 0.137823 0.499677
vt 0.137500 0.750000
vt 0.133640 0.749386
vt 0.130160 0.747606
vt 0.127394 0.744841
vt 0.125614 0.741360
vt 0.862177 0.499677
vt 0.869739 0.502279
vt 0.872576 0.505116
vt 0.874380 0.508629
vt 0.875000 0.512500
vt 0.875000 0.737500
vt 0.874386 0.741360
vt 0.872606 0.744840
vt 0.866360 0.749386
vt 0.862500 0.750000
s 0
f 2/1/1 9/2/1 7/3/1
f 6/4/2 10/5/2 9/2/2
f 5/6/3 11/7/3 10/5/3
f 4/8/4 12/9/4 11/7/4
f 3/10/5 8/11/5 12/9/5
f 14/12/6 21/13/6 19/14/6
f 18/15/7 22/16/7 21/13/7
f 17/17/8 23/18/8 22/16/8
f 16/19/9 24/20/9 23/18/9
f 15/21/10 20/22/10 24/20/10
f 19/14/11 1/23/11 14/12/11
f 32/24/12 27/25/12 25/26/12
f 36/27/13 28/28/13 27/25/13
f 35/29/14 29/30/14 28/31/14
f 34/32/15 30/33/15 29/30/15
f 33/34/16 26/35/16 30/33/16
f 31/36/17 13/37/17 26/35/17
f 38/38/18 45/39/18 43/40/18
f 42/41/19 46/42/19 45/39/19
f 41/43/20 47/44/20 46/42/20
f 40/45/21 48/46/21 47/44/21
f 39/47/22 44/48/22 48/46/22
f 43/40/23 25/26/23 38/38/23
f 7/3/24 37/49/24 2/1/24
f 3/10/25 41/43/25 26/50/25
f 21/51/26 35/52/26 44/48/26
f 2/1/1 6/4/1 9/2/1
f 6/4/2 5/6/2 10/5/2
f 5/6/3 4/8/3 11/7/3
f 4/8/4 3/10/4 12/9/4
f 3/10/5 1/23/5 8/11/5
f 14/12/6 18/15/6 21/13/6
f 18/15/7 17/17/7 22/16/7
f 17/17/8 16/19/8 23/18/8
f 16/19/9 15/21/9 24/20/9
f 15/21/10 13/37/10 20/22/10
f 19/14/11 8/11/11 1/23/11
f 32/24/12 36/27/12 27/25/12
f 36/27/13 35/53/13 28/28/13
f 35/29/14 34/32/14 29/30/14
f 34/32/15 33/34/15 30/33/15
f 33/34/16 31/36/16 26/35/16
f 31/36/17 20/22/17 13/37/17
f 38/38/18 42/41/18 45/39/18
f 42/41/19 41/43/19 46/42/19
f 41/43/20 40/45/20 47/44/20
f 40/45/21 39/47/21 48/46/21
f 39/47/22 37/49/22 44/48/22
f 43/40/23 32/24/23 25/26/23
f 7/3/24 44/48/24 37/49/24
f 26/50/25 13/54/25 15/55/25
f 15/55/25 16/56/25 17/57/25
f 17/57/25 18/58/25 14/59/25
f 14/59/25 1/23/25 3/10/25
f 3/10/25 4/8/25 5/6/25
f 5/6/25 6/4/25 2/1/25
f 2/1/25 37/49/25 39/47/25
f 39/47/25 40/45/25 41/43/25
f 41/43/25 42/41/25 38/38/25
f 38/38/25 25/60/25 27/61/25
f 27/61/25 28/62/25 29/63/25
f 29/63/25 30/64/25 26/50/25
f 26/50/25 15/55/25 17/57/25
f 17/57/25 14/59/25 3/10/25
f 3/10/25 5/6/25 2/1/25
f 2/1/25 39/47/25 41/43/25
f 41/43/25 38/38/25 27/61/25
f 27/61/25 29/63/25 26/50/25
f 26/50/25 17/57/25 3/10/25
f 3/10/25 2/1/25 41/43/25
f 41/43/25 27/61/25 26/50/25
f 44/48/26 7/3/26 9/2/26
f 9/2/26 10/5/26 11/7/26
f 11/7/26 12/9/26 8/11/26
f 8/11/26 19/65/26 21/51/26
f 21/51/26 22/66/26 23/67/26
f 23/67/26 24/68/26 20/69/26
f 20/69/26 31/70/26 33/71/26
f 33/71/26 34/72/26 35/52/26
f 35/52/26 36/73/26 32/74/26
f 32/74/26 43/40/26 45/39/26
f 45/39/26 46/42/26 47/44/26
f 47/44/26 48/46/26 44/48/26
f 44/48/26 9/2/26 11/7/26
f 11/7/26 8/11/26 21/51/26
f 21/51/26 23/67/26 20/69/26
f 20/69/26 33/71/26 35/52/26
f 35/52/26 32/74/26 45/39/26
f 45/39/26 47/44/26 44/48/26
f 44/48/26 11/7/26 21/51/26
f 21/51/26 20/69/26 35/52/26
f 35/52/26 45/39/26 44/48/26
