# Blender 4.5.4 LTS
# www.blender.org
o Plane.002
v 0.016701 -0.016701 -0.000000
v -0.016701 -0.016701 0.000000
v 0.016701 0.016701 -0.000000
v -0.016701 0.016701 0.000000
v 0.016701 0.016701 -0.450000
v 0.016701 -0.016701 -0.450000
v -0.016701 -0.016701 -0.450000
v -0.016701 0.016701 -0.450000
v 0.016701 0.016701 0.450000
v 0.016701 -0.016701 0.450000
v -0.016701 -0.016701 0.450000
v -0.016701 0.016701 0.450000
vn -1.0000 -0.0000 -0.0000
vn -0.0000 -0.0000 -1.0000
vn 1.0000 -0.0000 -0.0000
vn -0.0000 1.0000 -0.0000
vn -0.0000 -1.0000 -0.0000
vn -0.0000 -0.0000 1.0000
vt 1.000000 0.000000
vt 1.000000 1.000000
vt 0.000000 1.000000
vt 0.000000 0.000000
s 1
f 2/1/1 12/2/1 4/2/1
f 7/1/2 5/3/2 6/4/2
f 4/2/1 7/1/1 2/1/1
f 1/4/3 5/3/3 3/3/3
f 3/3/4 8/2/4 4/2/4
f 2/1/5 6/4/5 1/4/5
f 9/3/6 11/1/6 10/4/6
f 3/3/3 10/4/3 1/4/3
f 4/2/4 9/3/4 3/3/4
f 1/4/5 11/1/5 2/1/5
f 2/1/1 11/1/1 12/2/1
f 7/1/2 8/2/2 5/3/2
f 4/2/1 8/2/1 7/1/1
f 1/4/3 6/4/3 5/3/3
f 3/3/4 5/3/4 8/2/4
f 2/1/5 7/1/5 6/4/5
f 9/3/6 12/2/6 11/1/6
f 3/3/3 9/3/3 10/4/3
f 4/2/4 12/2/4 9/3/4
f 1/4/5 10/4/5 11/1/5
