# Blender 5.0.0
# www.blender.org
o enclosure.001
v -0.023203 -0.378242 0.057963
v 0.032424 -0.345127 0.051459
v -0.032856 -0.344837 0.051462
v 0.023379 -0.378242 0.046260
v 0.023237 -0.378242 0.057021
v 0.015020 -0.378242 0.064992
v -0.023999 -0.378242 0.046901
v -0.014879 -0.378242 0.065289
v -0.004783 -0.378242 0.023417
v 0.004772 -0.378242 0.023634
v 0.012625 -0.261074 0.036222
v -0.013087 -0.261074 0.036219
v -0.012740 -0.269259 0.017183
v -0.012512 -0.269014 0.067847
v 0.012278 -0.269259 0.017183
v 0.012050 -0.269014 0.067847
v -0.000231 -0.261939 0.064278
v -0.005549 -0.241337 0.035348
v 0.002153 -0.241083 0.042422
v 0.007083 -0.241434 0.038051
v 0.004624 -0.241342 0.031710
v 0.011821 -0.316342 0.078486
v 0.010233 -0.327652 0.005482
v -0.012394 -0.317904 0.006476
v 0.011614 -0.343242 0.078915
v -0.012076 -0.343242 0.078915
v -0.012282 -0.316342 0.078486
v 0.012295 -0.342242 0.006489
v -0.012608 -0.341873 0.006422
v 0.012162 -0.317027 0.006606
vn -0.0000 -0.3482 0.9374
vn -0.0000 -0.1768 0.9843
vn -0.0198 -0.2346 0.9719
vn -0.0003 -0.3857 0.9226
vn -0.0120 -0.9985 0.0543
vn 0.0009 -1.0000 -0.0001
vn -0.0000 -1.0000 -0.0000
vn -0.0380 -0.9985 0.0406
vn -0.0531 -0.9985 0.0163
vn -0.0555 -0.9985 -0.0034
vn -0.0446 -0.9985 -0.0331
vn -0.0004 -1.0000 0.0003
vn -0.0349 -0.9985 -0.0433
vn -0.0004 -1.0000 0.0002
vn 0.9921 -0.1242 0.0147
vn 0.9711 -0.2381 0.0153
vn 0.9712 -0.2379 0.0125
vn -0.0030 0.5187 0.8549
vn -0.0000 0.5232 0.8522
vn 0.0262 0.0736 0.9969
vn -0.0000 0.0553 0.9985
vn 0.9688 0.2463 0.0283
vn 0.9671 0.2500 0.0480
vn 0.9670 0.2500 0.0480
vn 0.7982 0.1341 0.5872
vn 0.1757 0.6936 0.6986
vn 0.1747 0.6953 0.6971
vn 0.9675 0.2474 -0.0521
vn 0.9678 0.2460 -0.0537
vn 0.9162 0.0957 -0.3891
vn 0.9704 0.2314 -0.0685
vn -0.0000 0.2209 -0.9753
vn 0.0548 0.2713 -0.9609
vn 0.0008 1.0000 0.0026
vn 0.2723 0.9610 0.0480
vn 0.4370 0.8448 -0.3087
vn 0.0282 0.9197 -0.3917
vn -0.3953 -0.8383 0.3755
vn -0.7148 -0.1683 0.6787
vn -0.1755 0.6934 0.6989
vn -0.1735 0.6950 0.6977
vn -0.1829 0.6884 0.7019
vn -0.2983 0.6945 0.6547
vn -0.2976 0.6965 0.6529
vn 0.6711 0.5945 0.4429
vn 0.6696 0.5953 0.4442
vn -0.7982 0.1341 0.5872
vn -0.7984 0.1334 0.5872
vn -0.9524 0.2848 0.1087
vn -0.9671 0.2503 0.0457
vn 0.7319 -0.0000 0.6814
vn -0.6460 -0.2063 0.7349
vn -0.8986 -0.0000 -0.4388
vn 0.9659 0.2476 -0.0750
vn 0.9662 0.2463 -0.0764
vn 0.9658 0.2474 -0.0782
vn -0.9705 0.2314 -0.0686
vn -0.9705 0.2314 -0.0685
vn -0.9704 0.2314 -0.0686
vn -0.9165 0.0755 -0.3929
vn -0.9162 0.0957 -0.3891
vn -0.9665 0.2523 0.0481
vn -0.9659 0.2547 0.0470
vn -0.9709 0.2138 0.1076
vn -0.0386 -0.8383 -0.5439
vn -0.0366 -0.2568 -0.9658
vn 0.0759 -0.4413 -0.8942
vn -0.9643 0.2519 -0.0817
vn -0.9637 0.2546 -0.0805
vn 0.6971 -0.4219 -0.5797
vn -0.8683 -0.2365 -0.4360
vn 0.8709 -0.2237 -0.4376
vn -0.7043 -0.4165 -0.5748
vn -0.7042 -0.4204 -0.5721
vn -0.7319 -0.0000 0.6814
vn 0.8986 -0.0000 -0.4388
vn -0.9683 -0.2402 0.0684
vn -0.9685 -0.2398 0.0678
vn -0.9674 -0.2439 0.0685
vn 0.0592 -0.4386 -0.8968
vn 0.1387 -0.4187 -0.8975
vn 0.0520 0.0356 -0.9980
vn 0.0455 0.0003 -0.9990
vn 0.0448 -0.0000 -0.9990
vn -0.0000 -0.0000 -1.0000
vn -0.0000 0.2209 0.9753
vn 0.7131 -0.1676 0.6808
vn 0.7132 -0.1680 0.6806
vn 0.0001 0.4133 -0.9106
vn 0.0507 0.3730 -0.9265
vn -0.0455 0.4277 -0.9028
s 1
f 6//1 25//2 26//3 8//4
s 0
f 8//5 1//6 7//7
f 8//8 7//7 9//7
f 8//9 9//7 10//7
f 8//10 10//7 4//7
f 8//11 4//12 5//7
f 8//13 5//14 6//7
s 1
f 2//15 5//16 4//17
s 0
f 17//18 14//19 16//19
s 1
f 25//2 22//20 27//21 26//3
s 0
f 11//22 20//22 2//22
f 20//23 16//23 2//24
f 16//25 22//25 2//25
f 19//26 17//26 16//27
f 11//28 21//29 20//29
f 30//30 15//30 2//30
f 15//31 11//31 2//31
f 13//32 15//33 30//32 24//32
s 1
f 19//34 20//35 21//36
f 19//34 21//36 18//37
f 1//38 26//39 3//39
s 0
f 19//40 14//41 17//42
f 19//43 18//43 14//44
f 20//45 19//45 16//46
f 3//47 27//47 14//48
f 14//49 12//50 3//50
f 2//51 22//51 25//51
f 1//52 8//52 26//52
f 3//53 24//53 29//53
f 15//54 21//55 11//56
f 12//57 13//58 3//59
f 13//60 24//61 3//61
f 18//62 12//63 14//64
s 1
f 9//65 29//66 28//67
s 0
f 18//68 13//69 12//69
f 4//70 10//70 28//70
f 7//71 3//71 29//71
f 28//72 2//72 4//72
f 9//73 7//73 29//74
f 26//75 27//75 3//75
f 30//76 2//76 28//76
f 7//77 1//78 3//79
f 9//80 28//81 10//80
s 1
f 30//82 23//83 28//84
s 0
f 30//85 28//85 29//85 24//85
f 27//86 22//86 16//86 14//86
f 5//87 2//88 25//88 6//88
f 21//89 15//90 13//89
f 18//91 21//91 13//91
