# Blender 5.0.1
# www.blender.org
o Cube
v 0.001587 -0.480919 0.097535
v 0.001587 -0.381419 -0.105665
v 0.001587 0.464081 0.097535
v 0.001587 0.362281 -0.105665
v -0.001587 -0.480919 0.097535
v -0.001587 -0.381419 -0.105665
v -0.001587 0.464081 0.097535
v -0.001587 0.362281 -0.105665
v 0.001613 0.379228 -0.087758
v 0.001635 0.394949 -0.069608
v 0.001652 0.409321 -0.051244
v 0.001665 0.422223 -0.032702
v 0.001672 0.433543 -0.014026
v 0.001673 0.443182 0.004733
v 0.001669 0.451057 0.023516
v 0.001658 0.457107 0.042260
v 0.001641 0.461295 0.060894
v 0.001617 0.463612 0.079345
v -0.001613 0.379228 -0.087758
v -0.001635 0.394949 -0.069608
v -0.001652 0.409321 -0.051244
v -0.001665 0.422223 -0.032702
v -0.001672 0.433543 -0.014026
v -0.001673 0.443182 0.004733
v -0.001669 0.451057 0.023516
v -0.001658 0.457107 0.042260
v -0.001641 0.461295 0.060894
v -0.001617 0.463612 0.079345
v 0.001587 -0.479419 0.079062
v -0.001587 -0.479419 0.079062
v 0.001587 -0.384419 -0.101970
v -0.001587 -0.384419 -0.101970
vn -0.0000 0.7263 -0.6874
vn -0.0000 -0.7763 -0.6303
vn -0.0000 -0.0000 1.0000
vn -0.0000 -0.0000 -1.0000
vn -0.0000 0.9997 -0.0258
vn -0.0000 0.9922 -0.1246
vn -0.0000 0.9757 -0.2193
vn -0.0000 0.9517 -0.3072
vn -0.0000 0.9222 -0.3867
vn -0.0000 0.8895 -0.4570
vn -0.0000 0.8552 -0.5183
vn -0.0000 0.8208 -0.5712
vn -0.0000 0.7875 -0.6163
vn -0.0000 0.7559 -0.6547
vn -0.0000 -0.9967 -0.0809
vn -0.0000 -0.8855 -0.4647
vn -1.0000 -0.0000 0.0015
vn -1.0000 -0.0000 0.0010
vn -1.0000 -0.0000 0.0016
vn -1.0000 -0.0000 0.0011
vn 1.0000 -0.0001 -0.0001
vn 1.0000 -0.0001 -0.0000
vn -1.0000 -0.0000 0.0008
vn -1.0000 -0.0001 0.0005
vn 1.0000 -0.0000 0.0010
vn 1.0000 -0.0000 0.0015
vn 1.0000 -0.0000 0.0016
vn 1.0000 -0.0000 0.0011
vn -1.0000 -0.0001 -0.0001
vn -1.0000 -0.0001 -0.0004
vn -1.0000 -0.0000 -0.0008
vn 1.0000 -0.0001 0.0005
vn 1.0000 -0.0001 0.0001
vn -1.0000 -0.0001 -0.0000
vn 1.0000 -0.0000 0.0008
vn -1.0000 -0.0001 0.0001
vn 1.0000 -0.0001 -0.0004
vn 1.0000 -0.0000 -0.0008
vn -1.0000 -0.0000 -0.0007
vn -1.0000 -0.0000 -0.0010
vn -1.0000 -0.0000 -0.0013
vn -1.0000 -0.0000 -0.0015
vn 1.0000 -0.0000 -0.0015
vn 1.0000 -0.0000 -0.0013
vn 1.0000 -0.0000 -0.0010
vn 1.0000 -0.0000 -0.0007
vt 0.625000 0.250000
vt 0.602273 0.500000
vt 0.602273 0.250000
vt 0.625000 0.750000
vt 0.620455 1.000000
vt 0.620455 0.750000
vt 0.375000 0.500000
vt 0.125000 0.750000
vt 0.125000 0.500000
vt 0.625000 0.500000
vt 0.875000 0.750000
vt 0.397727 0.250000
vt 0.375000 0.250000
vt 0.420455 0.250000
vt 0.397727 0.500000
vt 0.443182 0.250000
vt 0.420455 0.500000
vt 0.465909 0.500000
vt 0.443182 0.500000
vt 0.488636 0.250000
vt 0.465909 0.250000
vt 0.511364 0.250000
vt 0.488636 0.500000
vt 0.534091 0.250000
vt 0.511364 0.500000
vt 0.556818 0.250000
vt 0.534091 0.500000
vt 0.579545 0.250000
vt 0.556818 0.500000
vt 0.579545 0.500000
vt 0.397727 0.750000
vt 0.375000 1.000000
vt 0.375000 0.750000
vt 0.000000 0.000000
vt 0.397727 0.000000
vt 0.375000 0.000000
vt 0.620455 0.000000
vt 0.625000 0.000000
vt 0.625000 1.000000
vt 0.875000 0.500000
vt 0.397727 1.000000
s 1
f 4/1/1 19/2/1 9/3/1
f 6/4/2 31/5/2 32/6/2
f 7/7/3 1/8/3 3/9/3
f 8/10/4 2/11/4 6/4/4
f 18/12/5 7/7/5 3/13/5
f 17/14/6 28/15/6 18/12/6
f 16/16/7 27/17/7 17/14/7
f 16/16/8 25/18/8 26/19/8
f 14/20/9 25/18/9 15/21/9
f 13/22/10 24/23/10 14/20/10
f 12/24/11 23/25/11 13/22/11
f 11/26/12 22/27/12 12/24/12
f 10/28/13 21/29/13 11/26/13
f 9/3/14 20/30/14 10/28/14
f 30/31/15 1/32/15 5/33/15
f 30/31/16 31/5/16 29/34/16
f 28/15/17 5/33/18 7/7/19
f 27/17/20 5/33/18 28/15/17
f 13/22/21 29/35/22 31/5/21
f 27/17/20 26/19/23 5/33/18
f 26/19/23 25/18/24 5/33/18
f 1/36/25 18/12/26 3/13/27
f 1/36/25 17/14/28 18/12/26
f 32/6/29 22/27/30 6/4/31
f 15/21/32 29/35/22 14/20/33
f 25/18/24 30/31/34 5/33/18
f 15/21/32 16/16/35 1/36/25
f 16/16/35 17/14/28 1/36/25
f 23/25/29 30/31/34 24/34/36
f 12/24/37 31/37/21 2/38/38
f 21/29/39 6/34/31 22/27/30
f 21/29/39 20/30/40 6/34/31
f 20/30/40 19/2/41 6/34/31
f 19/2/41 8/10/42 6/4/31
f 4/1/43 9/3/44 2/38/38
f 9/3/44 10/28/45 2/38/38
f 10/28/45 11/26/46 2/38/38
f 11/26/46 12/24/37 2/38/38
f 4/1/1 8/10/1 19/2/1
f 6/4/2 2/39/2 31/5/2
f 7/7/3 5/33/3 1/8/3
f 8/10/4 4/40/4 2/11/4
f 18/12/5 28/15/5 7/7/5
f 17/14/6 27/17/6 28/15/6
f 16/16/7 26/19/7 27/17/7
f 16/16/8 15/21/8 25/18/8
f 14/20/9 24/23/9 25/18/9
f 13/22/10 23/25/10 24/23/10
f 12/24/11 22/27/11 23/25/11
f 11/26/12 21/29/12 22/27/12
f 10/28/13 20/30/13 21/29/13
f 9/3/14 19/2/14 20/30/14
f 30/31/15 29/41/15 1/32/15
f 30/31/16 32/6/16 31/5/16
f 13/22/21 14/20/33 29/35/22
f 32/6/29 23/25/29 22/27/30
f 15/21/32 1/36/25 29/35/22
f 25/18/24 24/34/36 30/31/34
f 23/25/29 32/6/29 30/31/34
f 12/24/37 13/22/21 31/37/21
