# Blender 4.3.0
# www.blender.org
mtllib ladle_red.mtl
o Cube.005
v 0.040238 0.021784 -0.017615
v 0.040038 0.017605 -0.010070
v 0.038140 0.017981 -0.016999
v 0.041862 0.025386 -0.018214
v 0.042378 0.021605 -0.010380
v 0.044162 0.025387 -0.010691
v 0.043159 0.021527 -0.002746
v 0.040737 0.017449 -0.002725
v 0.042513 0.021605 0.004899
v 0.040168 0.017605 0.004630
v 0.044302 0.025387 0.005178
v 0.042136 0.025386 0.012740
v 0.040501 0.021784 0.012171
v 0.038392 0.017981 0.011592
v 0.027887 0.012500 -0.025225
v 0.032775 0.014703 -0.022164
v 0.029439 0.011354 -0.021585
v 0.029393 0.015117 -0.026759
v 0.035116 0.018412 -0.023163
v 0.035159 0.013966 -0.016409
v 0.031029 0.010181 -0.016079
v 0.030960 0.018623 -0.028354
v 0.036832 0.021979 -0.024111
v 0.032254 0.022073 -0.029673
v 0.038224 0.025385 -0.024985
v 0.035478 0.018412 0.017808
v 0.038618 0.025385 0.019575
v 0.037210 0.021979 0.018725
v 0.033876 0.025384 0.025489
v 0.032733 0.022071 0.024366
v 0.031415 0.018623 0.023072
v 0.031267 0.010181 0.010798
v 0.033119 0.014703 0.016851
v 0.029774 0.011354 0.016331
v 0.035401 0.013966 0.011055
v 0.029820 0.015117 0.021504
v 0.028287 0.012500 0.019998
v 0.032627 0.009063 -0.002653
v 0.036818 0.013383 0.004404
v 0.032287 0.009366 0.004306
v 0.037279 0.013154 -0.002695
v 0.032163 0.009366 -0.009607
v 0.036693 0.013383 -0.009785
v 0.020677 0.021784 0.032348
v 0.013132 0.017605 0.032149
v 0.020061 0.017981 0.030250
v 0.021276 0.025386 0.033974
v 0.013441 0.021605 0.034489
v 0.013753 0.025387 0.036273
v 0.005809 0.021527 0.035270
v 0.005787 0.017449 0.032848
v -0.001837 0.021605 0.034624
v -0.001569 0.017605 0.032278
v -0.002117 0.025387 0.036413
v -0.009679 0.025386 0.034248
v -0.009109 0.021784 0.032612
v -0.008531 0.017981 0.030503
v 0.025226 0.014703 0.024885
v 0.024647 0.011354 0.021550
v 0.026224 0.018412 0.027227
v 0.019471 0.013966 0.027270
v 0.019141 0.010181 0.023140
v 0.027172 0.021979 0.028943
v 0.028047 0.025385 0.030335
v -0.014747 0.018412 0.027590
v -0.016513 0.025385 0.030729
v -0.015664 0.021979 0.029322
v -0.022428 0.025384 0.025987
v -0.021305 0.022071 0.024844
v -0.020011 0.018623 0.023527
v -0.007736 0.010181 0.023378
v -0.013790 0.014703 0.025231
v -0.013270 0.011354 0.021885
v -0.007993 0.013966 0.027512
v -0.018442 0.015117 0.021931
v -0.016937 0.012500 0.020398
v 0.005715 0.009063 0.024738
v -0.001342 0.013383 0.028930
v -0.001245 0.009366 0.024397
v 0.005756 0.013154 0.029390
v 0.012668 0.009366 0.024274
v 0.012846 0.013383 0.028804
v -0.029287 0.021784 0.012788
v -0.029087 0.017605 0.005243
v -0.027189 0.017981 0.012172
v -0.030912 0.025386 0.013387
v -0.031428 0.021605 0.005553
v -0.033211 0.025387 0.005864
v -0.032209 0.021527 -0.002080
v -0.029787 0.017449 -0.002102
v -0.031562 0.021605 -0.009727
v -0.029217 0.017605 -0.009457
v -0.033352 0.025387 -0.010006
v -0.031186 0.025386 -0.017569
v -0.029550 0.021784 -0.016998
v -0.027442 0.017981 -0.016420
v -0.021824 0.014703 0.017337
v -0.018489 0.011354 0.016758
v -0.024166 0.018412 0.018336
v -0.024208 0.013966 0.011582
v -0.020078 0.010181 0.011252
v -0.025882 0.021979 0.019283
v -0.027274 0.025385 0.020158
v -0.024528 0.018412 -0.022636
v -0.027667 0.025385 -0.024403
v -0.026261 0.021979 -0.023553
v -0.021782 0.022073 -0.029196
v -0.020465 0.018623 -0.027900
v -0.020317 0.010181 -0.015625
v -0.022169 0.014703 -0.021679
v -0.018824 0.011354 -0.021158
v -0.024451 0.013966 -0.015882
v -0.018869 0.015117 -0.026332
v -0.017337 0.012500 -0.024826
v -0.021677 0.009063 -0.002174
v -0.025868 0.013383 -0.009232
v -0.021336 0.009366 -0.009134
v -0.026329 0.013154 -0.002132
v -0.021213 0.009366 0.004780
v -0.025742 0.013383 0.004957
v -0.009757 0.022078 -0.037258
v -0.002183 0.017611 -0.036981
v -0.009110 0.017988 -0.035082
v -0.002034 0.027001 -0.041689
v -0.002431 0.021843 -0.039399
v 0.005142 0.021723 -0.040173
v 0.005163 0.017454 -0.037679
v 0.012727 0.021843 -0.039534
v 0.012521 0.017611 -0.037110
v 0.012289 0.027001 -0.041816
v 0.020089 0.022078 -0.037522
v 0.019480 0.017988 -0.035336
v -0.014275 0.014703 -0.029713
v -0.013696 0.011354 -0.026377
v -0.015273 0.018415 -0.032058
v -0.008520 0.013966 -0.032097
v -0.008190 0.010181 -0.027968
v -0.022922 0.025387 -0.030322
v -0.016229 0.022050 -0.033796
v -0.017154 0.025753 -0.035269
v 0.026622 0.022050 -0.034175
v 0.025696 0.018415 -0.032420
v 0.027521 0.025753 -0.035665
v 0.033375 0.025387 -0.030819
v 0.018686 0.010181 -0.028206
v 0.024740 0.014703 -0.030058
v 0.024220 0.011354 -0.026713
v 0.018944 0.013966 -0.032340
v 0.005235 0.009063 -0.029566
v 0.012293 0.013383 -0.033757
v 0.012196 0.009366 -0.029225
v 0.005194 0.013154 -0.034218
v -0.001718 0.009366 -0.029101
v -0.001895 0.013383 -0.033631
v 0.019645 0.004943 0.011507
v 0.012909 0.002062 0.004890
v 0.020008 0.003587 0.004636
v 0.012781 0.003587 0.011993
v 0.005541 0.001537 0.005047
v 0.005476 0.000991 -0.002414
v 0.012935 0.001537 -0.002480
v 0.020132 0.003118 -0.002543
v -0.001575 0.003587 0.012120
v 0.005605 0.003118 0.012243
v -0.008446 0.004943 0.011756
v -0.001829 0.002062 0.005021
v -0.008931 0.003587 0.004892
v -0.001985 0.001537 -0.002348
v 0.019882 0.003587 -0.009720
v 0.012779 0.002062 -0.009848
v 0.005409 0.001537 -0.009874
v 0.012525 0.003587 -0.016947
v 0.019396 0.004943 -0.016583
v -0.001960 0.002062 -0.009718
v -0.009058 0.003587 -0.009464
v -0.008695 0.004943 -0.016335
v -0.001830 0.003587 -0.016820
v 0.005346 0.003118 -0.017071
v 0.025081 0.008866 0.016848
v 0.019262 0.007135 0.017784
v 0.025913 0.007135 0.011013
v 0.012667 0.006043 0.018564
v 0.005664 0.005656 0.018917
v -0.001344 0.006043 0.018688
v -0.007952 0.007135 0.018024
v -0.013786 0.008866 0.017191
v -0.014722 0.007135 0.011372
v -0.015502 0.006043 0.004778
v -0.015855 0.005656 -0.002226
v -0.009182 0.003118 -0.002284
v -0.015626 0.006043 -0.009233
v -0.014962 0.007135 -0.015841
v -0.014129 0.008866 -0.021675
v -0.008311 0.007135 -0.022611
v -0.001716 0.006043 -0.023391
v 0.005287 0.005656 -0.023744
v 0.018903 0.007135 -0.022851
v 0.012295 0.006043 -0.023515
v 0.025672 0.007135 -0.016201
v 0.024737 0.008866 -0.022019
v 0.026805 0.005656 -0.002603
v 0.026453 0.006043 -0.009606
v 0.026577 0.006043 0.004406
v 0.015651 0.034447 -0.043576
v 0.021269 0.028193 -0.039730
v 0.005121 0.026827 -0.042476
v 0.010387 0.034123 -0.044998
v 0.005093 0.033986 -0.045612
v 0.008628 0.044835 -0.050399
v 0.011911 0.045181 -0.049072
v -0.000189 0.034123 -0.044905
v -0.005427 0.034447 -0.043390
v -0.001784 0.045181 -0.048951
v 0.001475 0.044835 -0.050336
v 0.005045 0.044657 -0.051019
v 0.010784 0.060259 -0.057781
v 0.008052 0.059747 -0.059058
v 0.004969 0.059492 -0.059674
v 0.008172 0.076061 -0.069754
v 0.011119 0.076740 -0.068598
v 0.001897 0.059747 -0.059004
v -0.000811 0.060259 -0.057678
v -0.001338 0.076740 -0.068488
v 0.001588 0.076061 -0.069696
v 0.004875 0.075731 -0.070314
v 0.008405 0.090761 -0.080984
v 0.011720 0.091581 -0.079983
v 0.004674 0.102879 -0.093056
v 0.008691 0.103316 -0.092669
v 0.012436 0.104245 -0.091834
v 0.001157 0.090761 -0.080920
v 0.004776 0.090368 -0.081460
v -0.002141 0.091581 -0.079860
v 0.000665 0.103316 -0.092597
v 0.008963 0.113619 -0.104622
v 0.013114 0.114715 -0.104326
v 0.004570 0.113141 -0.104852
v 0.004486 0.120086 -0.114289
v 0.008864 0.120624 -0.114438
v 0.013074 0.122558 -0.117086
v -0.003066 0.104245 -0.091697
v 0.000182 0.113619 -0.104545
v -0.003964 0.114715 -0.104176
v 0.000107 0.120624 -0.114361
v 0.001534 0.123888 -0.121425
v -0.001595 0.124833 -0.122195
v -0.000206 0.124988 -0.123937
v 0.004444 0.122950 -0.119086
v 0.000745 0.123410 -0.119344
v -0.004150 0.122558 -0.116933
v 0.007311 0.123888 -0.121476
v 0.004426 0.123552 -0.121161
v 0.010427 0.124833 -0.122301
v 0.008138 0.123410 -0.119410
v 0.004261 0.128273 -0.139743
v 0.001671 0.129205 -0.140728
v 0.004246 0.128923 -0.141441
v 0.002378 0.128487 -0.139131
v -0.000336 0.128972 -0.137207
v -0.001663 0.129720 -0.138201
v 0.000961 0.129924 -0.142324
v 0.004231 0.129573 -0.143140
v 0.006155 0.128487 -0.139163
v 0.008902 0.128972 -0.137288
v 0.007612 0.128231 -0.136270
v 0.006834 0.129205 -0.140774
v 0.007515 0.129924 -0.142382
v 0.010211 0.129720 -0.138306
v 0.009008 0.124988 -0.124018
v 0.010411 0.127216 -0.129822
v 0.008838 0.126774 -0.130088
v 0.011985 0.127424 -0.129205
v 0.000972 0.128231 -0.136212
v -0.001712 0.127216 -0.129715
v -0.000144 0.126774 -0.130009
v -0.003275 0.127424 -0.129069
v 0.038675 0.018259 -0.009788
v 0.038884 0.022314 -0.017050
v 0.036840 0.018612 -0.016458
v 0.040945 0.022141 -0.010087
v 0.040491 0.025879 -0.017642
v 0.041697 0.022066 -0.002734
v 0.042705 0.025879 -0.010394
v 0.039351 0.018111 -0.002714
v 0.041074 0.022141 0.004630
v 0.042842 0.025879 0.004907
v 0.043516 0.025879 -0.002750
v 0.040755 0.025879 0.012194
v 0.038800 0.018259 0.004373
v 0.039137 0.022314 0.011630
v 0.027016 0.013337 -0.024339
v 0.031659 0.015432 -0.021425
v 0.028438 0.015813 -0.025786
v 0.033932 0.019013 -0.022369
v 0.029954 0.019208 -0.027330
v 0.033966 0.014747 -0.015908
v 0.030029 0.011142 -0.015609
v 0.028493 0.012261 -0.020897
v 0.035613 0.022501 -0.023288
v 0.031223 0.022589 -0.028621
v 0.032337 0.025879 -0.029755
v 0.036993 0.025879 -0.024155
v 0.037084 0.018612 0.011074
v 0.035976 0.022501 0.017924
v 0.037372 0.025879 0.018767
v 0.032816 0.025879 0.024448
v 0.030391 0.019208 0.022066
v 0.034280 0.019013 0.017035
v 0.030258 0.011142 0.010346
v 0.031991 0.015432 0.016132
v 0.034199 0.014747 0.010575
v 0.028848 0.015813 0.020548
v 0.027400 0.013337 0.019128
v 0.028817 0.012261 0.015660
v 0.031579 0.010067 -0.002644
v 0.035578 0.014197 0.004163
v 0.036027 0.013980 -0.002684
v 0.031248 0.010359 0.004077
v 0.031129 0.010359 -0.009360
v 0.035456 0.014197 -0.009522
v 0.012850 0.018259 0.030786
v 0.020112 0.022314 0.030995
v 0.019519 0.018612 0.028951
v 0.013148 0.022141 0.033056
v 0.020704 0.025879 0.032603
v 0.005795 0.022066 0.033808
v 0.013455 0.025879 0.034816
v 0.005775 0.018111 0.031462
v -0.001569 0.022141 0.033186
v -0.001845 0.025879 0.034952
v 0.005811 0.025879 0.035627
v -0.009132 0.025879 0.032866
v -0.001311 0.018259 0.030911
v -0.008568 0.022314 0.031248
v 0.024486 0.015432 0.023770
v 0.025431 0.019013 0.026042
v 0.018970 0.014747 0.026077
v 0.018671 0.011142 0.022140
v 0.023958 0.012261 0.020604
v 0.026350 0.022501 0.027723
v 0.031682 0.022589 0.023333
v 0.027216 0.025879 0.029104
v -0.008012 0.018612 0.029194
v -0.014863 0.022501 0.028088
v -0.015705 0.025879 0.029483
v -0.021387 0.025879 0.024928
v -0.019004 0.019208 0.022502
v -0.013973 0.019013 0.026391
v -0.007284 0.011142 0.022370
v -0.013070 0.015432 0.024102
v -0.007513 0.014747 0.026310
v -0.017487 0.015813 0.020959
v -0.016066 0.013337 0.019511
v -0.012598 0.012261 0.020928
v 0.005706 0.010067 0.023690
v -0.001101 0.014197 0.027689
v 0.005745 0.013980 0.028137
v -0.001015 0.010359 0.023359
v 0.012421 0.010359 0.023240
v 0.012583 0.014197 0.027567
v -0.027724 0.018259 0.004961
v -0.027933 0.022314 0.012223
v -0.025890 0.018612 0.011630
v -0.029994 0.022141 0.005258
v -0.029541 0.025879 0.012814
v -0.030747 0.022066 -0.002094
v -0.031755 0.025879 0.005567
v -0.028400 0.018111 -0.002115
v -0.030124 0.022141 -0.009458
v -0.031890 0.025879 -0.009734
v -0.032565 0.025879 -0.002078
v -0.029804 0.025879 -0.017021
v -0.027849 0.018259 -0.009200
v -0.028187 0.022314 -0.016457
v -0.020709 0.015432 0.016598
v -0.022981 0.019013 0.017541
v -0.023015 0.014747 0.011080
v -0.019078 0.011142 0.010782
v -0.017543 0.012261 0.016070
v -0.024662 0.022501 0.018461
v -0.020272 0.022589 0.023793
v -0.026043 0.025879 0.019327
v -0.026133 0.018612 -0.015901
v -0.025027 0.022501 -0.022752
v -0.026422 0.025879 -0.023594
v -0.021866 0.025879 -0.029276
v -0.019441 0.019208 -0.026892
v -0.023329 0.019013 -0.021862
v -0.019309 0.011142 -0.015173
v -0.021040 0.015432 -0.020959
v -0.023249 0.014747 -0.015402
v -0.017897 0.015813 -0.025377
v -0.016450 0.013337 -0.023954
v -0.017866 0.012261 -0.020487
v -0.020628 0.010067 -0.002183
v -0.024627 0.014197 -0.008991
v -0.025075 0.013980 -0.002144
v -0.020297 0.010359 -0.008905
v -0.020179 0.010359 0.004531
v -0.024506 0.014197 0.004694
v -0.001899 0.018259 -0.035613
v -0.009197 0.022572 -0.035882
v -0.008569 0.018612 -0.033778
v -0.001712 0.027424 -0.040208
v -0.010449 0.028610 -0.038020
v 0.005155 0.022241 -0.038700
v -0.002126 0.022347 -0.037951
v 0.005176 0.018111 -0.036289
v 0.012447 0.022347 -0.038080
v 0.011994 0.027424 -0.040328
v 0.005134 0.027279 -0.040971
v 0.019554 0.022572 -0.036137
v 0.012262 0.018259 -0.035738
v -0.013537 0.015432 -0.028598
v -0.014480 0.019013 -0.030870
v -0.008019 0.014747 -0.030904
v -0.007720 0.011142 -0.026968
v -0.013008 0.012261 -0.025432
v -0.020731 0.022589 -0.028161
v -0.015413 0.022558 -0.032563
v -0.016353 0.026220 -0.034006
v 0.018963 0.018612 -0.034023
v 0.025827 0.022558 -0.032928
v 0.026742 0.026220 -0.034386
v 0.020768 0.028610 -0.038296
v 0.024924 0.019013 -0.031218
v 0.018234 0.011142 -0.027197
v 0.024021 0.015432 -0.028930
v 0.018464 0.014747 -0.031138
v 0.023549 0.012261 -0.025755
v 0.005245 0.010067 -0.028518
v 0.012053 0.014197 -0.032516
v 0.005206 0.013980 -0.032965
v 0.011966 0.010359 -0.028186
v -0.001470 0.010359 -0.028067
v -0.001633 0.014197 -0.032395
v 0.019142 0.006136 0.011014
v 0.012639 0.003353 0.004625
v 0.012522 0.004825 0.011469
v 0.005538 0.002846 0.004772
v 0.005600 0.004371 0.011707
v 0.005476 0.002320 -0.002414
v 0.019481 0.004825 0.004386
v 0.012661 0.002846 -0.002477
v -0.001324 0.004825 0.011592
v -0.001563 0.003353 0.004750
v -0.007952 0.006136 0.011253
v -0.001711 0.002846 -0.002350
v -0.008408 0.004825 0.004633
v 0.019359 0.004825 -0.009460
v 0.019596 0.004371 -0.002539
v 0.012514 0.003353 -0.009578
v 0.012275 0.004825 -0.016419
v 0.005411 0.002846 -0.009600
v 0.018902 0.006136 -0.016081
v -0.001689 0.003353 -0.009452
v -0.008530 0.004825 -0.009214
v -0.008645 0.004371 -0.002289
v -0.008192 0.006136 -0.015841
v -0.001571 0.004825 -0.016298
v 0.024375 0.009911 0.016155
v 0.018787 0.008244 0.017039
v 0.025160 0.008244 0.010553
v 0.012419 0.007185 0.017784
v 0.005657 0.006809 0.018122
v -0.001111 0.007185 0.017904
v -0.007491 0.008244 0.017271
v -0.013093 0.009911 0.016485
v -0.013978 0.008244 0.010899
v -0.014722 0.007185 0.004530
v -0.015060 0.006809 -0.002232
v -0.014843 0.007185 -0.008999
v -0.014210 0.008244 -0.015380
v -0.013424 0.009911 -0.020982
v -0.007838 0.008244 -0.021867
v 0.005350 0.004371 -0.016534
v -0.001468 0.007185 -0.022611
v 0.005294 0.006809 -0.022949
v 0.018442 0.008244 -0.022099
v 0.012060 0.007185 -0.022731
v 0.024928 0.008244 -0.015726
v 0.024044 0.009911 -0.021314
v 0.026011 0.006809 -0.002596
v 0.025673 0.007185 -0.009358
v 0.025792 0.007185 0.004172
v 0.015197 0.034834 -0.042114
v 0.010054 0.034556 -0.043524
v 0.008189 0.045333 -0.048983
v 0.005107 0.034461 -0.044119
v 0.011325 0.045632 -0.047686
v 0.000171 0.034556 -0.043435
v -0.004947 0.034834 -0.041936
v -0.001174 0.045632 -0.047576
v 0.001939 0.045333 -0.048927
v 0.010085 0.060795 -0.056495
v 0.007530 0.060316 -0.057710
v 0.005058 0.045198 -0.049558
v 0.007657 0.076704 -0.068453
v 0.004982 0.060099 -0.058251
v 0.010432 0.077359 -0.067359
v 0.002443 0.060316 -0.057665
v -0.000089 0.060795 -0.056405
v -0.000629 0.077359 -0.067262
v 0.002126 0.076704 -0.068404
v 0.007943 0.091497 -0.079734
v 0.004788 0.091132 -0.080150
v 0.004888 0.076406 -0.068936
v 0.004685 0.103747 -0.091844
v 0.011102 0.092300 -0.078788
v 0.008292 0.104164 -0.091502
v 0.001640 0.091497 -0.079679
v 0.001084 0.104164 -0.091438
v -0.001502 0.092300 -0.078676
v 0.011904 0.105082 -0.090712
v 0.008664 0.114577 -0.103555
v 0.004579 0.114103 -0.103747
v 0.004495 0.121129 -0.113298
v 0.012751 0.115688 -0.103299
v 0.008673 0.121675 -0.113479
v 0.000499 0.114577 -0.103482
v -0.002514 0.105082 -0.090585
v 0.000315 0.121675 -0.113405
v -0.003584 0.115687 -0.103154
v -0.001374 0.126038 -0.121557
v 0.001835 0.125118 -0.120900
v 0.000264 0.126181 -0.123409
v 0.004451 0.124127 -0.118341
v 0.004430 0.124808 -0.120640
v 0.000936 0.124574 -0.118596
v -0.003984 0.123669 -0.116071
v 0.007020 0.125118 -0.120946
v 0.010217 0.126038 -0.121660
v 0.008547 0.126181 -0.123482
v 0.007958 0.124574 -0.118658
v 0.012923 0.123669 -0.116221
v 0.004267 0.129489 -0.139098
v 0.002176 0.130381 -0.140181
v 0.002912 0.129660 -0.138600
v 0.000236 0.130146 -0.136722
v 0.001565 0.129398 -0.135727
v -0.001092 0.130895 -0.137716
v 0.004252 0.130138 -0.140793
v 0.001440 0.131103 -0.141761
v 0.008339 0.130146 -0.136793
v 0.005630 0.129660 -0.138624
v 0.007028 0.129398 -0.135774
v 0.006338 0.130381 -0.140218
v 0.007046 0.131103 -0.141812
v 0.009650 0.130895 -0.137811
v 0.009990 0.128413 -0.129269
v 0.008303 0.127949 -0.129565
v 0.011779 0.128641 -0.128595
v -0.001282 0.128413 -0.129169
v 0.000399 0.127949 -0.129496
v -0.003059 0.128641 -0.128464
v 0.045002 0.025388 -0.002763
v 0.005825 0.025388 0.037112
v -0.034051 0.025388 -0.002064
v -0.010976 0.028193 -0.039445
v 0.004237 0.130786 -0.142488
vn 0.8175 -0.4640 -0.3412
vn 0.8089 -0.5634 -0.1685
vn 0.7727 -0.5467 -0.3227
vn 0.8325 -0.4323 -0.3466
vn 0.8649 -0.4694 -0.1777
vn 0.8840 -0.4315 -0.1799
vn 0.8823 -0.4706 -0.0078
vn 0.8223 -0.5690 -0.0073
vn 0.8680 -0.4693 0.1624
vn 0.8117 -0.5634 0.1542
vn 0.8871 -0.4313 0.1642
vn 0.8384 -0.4324 0.3318
vn 0.8234 -0.4640 0.3267
vn 0.7782 -0.5467 0.3090
vn 0.5025 -0.6970 -0.5115
vn 0.6584 -0.6183 -0.4293
vn 0.5433 -0.7468 -0.3835
vn 0.5681 -0.5856 -0.5782
vn 0.7099 -0.5205 -0.4744
vn 0.6945 -0.6573 -0.2927
vn 0.5665 -0.7809 -0.2633
vn 0.6049 -0.5039 -0.6166
vn 0.7371 -0.4563 -0.4985
vn 0.6242 -0.4532 -0.6363
vn 0.7467 -0.4341 -0.5040
vn 0.7182 -0.5205 0.4618
vn 0.7558 -0.4338 0.4904
vn 0.7459 -0.4564 0.4851
vn 0.6424 -0.4347 0.6311
vn 0.6359 -0.4532 0.6247
vn 0.6160 -0.5043 0.6052
vn 0.5711 -0.7809 0.2532
vn 0.6658 -0.6183 0.4176
vn 0.5500 -0.7468 0.3739
vn 0.6996 -0.6573 0.2804
vn 0.5782 -0.5856 0.5681
vn 0.5115 -0.6970 0.5025
vn 0.5869 -0.8097 -0.0052
vn 0.7180 -0.6817 0.1402
vn 0.5831 -0.8023 0.1277
vn 0.7238 -0.6899 -0.0064
vn 0.5807 -0.8023 -0.1380
vn 0.7154 -0.6818 -0.1529
vn 0.3412 -0.4640 0.8175
vn 0.1685 -0.5634 0.8088
vn 0.3227 -0.5467 0.7727
vn 0.3466 -0.4325 0.8324
vn 0.1777 -0.4694 0.8649
vn 0.1799 -0.4314 0.8841
vn 0.0078 -0.4706 0.8823
vn 0.0073 -0.5691 0.8222
vn -0.1624 -0.4694 0.8679
vn -0.1541 -0.5634 0.8117
vn -0.1642 -0.4314 0.8871
vn -0.3318 -0.4326 0.8383
vn -0.3267 -0.4641 0.8234
vn -0.3089 -0.5467 0.7783
vn 0.4293 -0.6183 0.6584
vn 0.3835 -0.7468 0.5433
vn 0.4744 -0.5205 0.7099
vn 0.2927 -0.6573 0.6945
vn 0.2633 -0.7809 0.5665
vn 0.4982 -0.4564 0.7372
vn 0.5037 -0.4338 0.7470
vn -0.4618 -0.5205 0.7182
vn -0.4904 -0.4339 0.7558
vn -0.4851 -0.4564 0.7459
vn -0.6311 -0.4347 0.6424
vn -0.6247 -0.4532 0.6359
vn -0.6052 -0.5044 0.6159
vn -0.2532 -0.7809 0.5710
vn -0.4176 -0.6183 0.6658
vn -0.3738 -0.7469 0.5500
vn -0.2804 -0.6573 0.6995
vn -0.5681 -0.5856 0.5782
vn -0.5026 -0.6970 0.5115
vn 0.0052 -0.8096 0.5869
vn -0.1402 -0.6817 0.7180
vn -0.1277 -0.8023 0.5831
vn 0.0064 -0.6899 0.7238
vn 0.1380 -0.8023 0.5808
vn 0.1529 -0.6818 0.7154
vn -0.8175 -0.4641 0.3412
vn -0.8088 -0.5634 0.1685
vn -0.7727 -0.5467 0.3226
vn -0.8324 -0.4325 0.3466
vn -0.8649 -0.4693 0.1777
vn -0.8841 -0.4313 0.1799
vn -0.8823 -0.4706 0.0078
vn -0.8223 -0.5691 0.0073
vn -0.8679 -0.4694 -0.1624
vn -0.8117 -0.5633 -0.1541
vn -0.8870 -0.4315 -0.1642
vn -0.8383 -0.4326 -0.3318
vn -0.8234 -0.4640 -0.3267
vn -0.7783 -0.5467 -0.3090
vn -0.6584 -0.6183 0.4293
vn -0.5434 -0.7468 0.3835
vn -0.7099 -0.5206 0.4744
vn -0.6945 -0.6573 0.2927
vn -0.5665 -0.7809 0.2633
vn -0.7372 -0.4564 0.4982
vn -0.7471 -0.4338 0.5037
vn -0.7182 -0.5205 -0.4618
vn -0.7555 -0.4341 -0.4907
vn -0.7459 -0.4563 -0.4853
vn -0.6354 -0.4532 -0.6253
vn -0.6157 -0.5040 -0.6058
vn -0.5710 -0.7809 -0.2532
vn -0.6658 -0.6183 -0.4176
vn -0.5500 -0.7468 -0.3738
vn -0.6995 -0.6573 -0.2804
vn -0.5782 -0.5856 -0.5681
vn -0.5115 -0.6970 -0.5026
vn -0.5869 -0.8097 0.0052
vn -0.7180 -0.6818 -0.1403
vn -0.5831 -0.8023 -0.1277
vn -0.7238 -0.6899 0.0064
vn -0.5807 -0.8023 0.1380
vn -0.7154 -0.6817 0.1529
vn -0.3390 -0.4327 -0.8354
vn -0.1695 -0.5579 -0.8124
vn -0.3235 -0.5404 -0.7767
vn -0.1949 -0.3728 -0.9072
vn -0.1848 -0.4411 -0.8782
vn -0.0079 -0.4551 -0.8904
vn -0.0073 -0.5653 -0.8248
vn 0.1693 -0.4411 -0.8813
vn 0.1552 -0.5579 -0.8153
vn 0.1788 -0.3728 -0.9105
vn 0.3241 -0.4327 -0.8412
vn 0.3097 -0.5403 -0.7824
vn -0.4293 -0.6183 -0.6584
vn -0.3834 -0.7468 -0.5433
vn -0.4743 -0.5184 -0.7116
vn -0.2927 -0.6572 -0.6945
vn -0.2633 -0.7809 -0.5665
vn -0.6409 -0.4334 -0.6336
vn -0.4960 -0.4516 -0.7417
vn -0.4897 -0.4140 -0.7673
vn 0.4828 -0.4517 -0.7503
vn 0.4617 -0.5184 -0.7198
vn 0.4761 -0.4142 -0.7758
vn 0.6296 -0.4335 -0.6447
vn 0.2532 -0.7809 -0.5711
vn 0.4176 -0.6183 -0.6658
vn 0.3739 -0.7468 -0.5500
vn 0.2804 -0.6572 -0.6996
vn -0.0052 -0.8097 -0.5869
vn 0.1403 -0.6817 -0.7180
vn 0.1277 -0.8023 -0.5831
vn -0.0064 -0.6899 -0.7239
vn -0.1380 -0.8023 -0.5807
vn -0.1530 -0.6818 -0.7154
vn 0.2698 -0.9257 0.2651
vn 0.1423 -0.9799 0.1398
vn 0.2815 -0.9504 0.1324
vn 0.1373 -0.9504 0.2791
vn 0.0013 -0.9896 0.1435
vn -0.0000 -1.0000 -0.0000
vn 0.1435 -0.9896 -0.0013
vn 0.2851 -0.9585 -0.0025
vn -0.1324 -0.9504 0.2815
vn 0.0025 -0.9585 0.2851
vn -0.2651 -0.9257 0.2698
vn -0.1398 -0.9799 0.1423
vn -0.2791 -0.9504 0.1373
vn -0.1435 -0.9896 0.0013
vn 0.2791 -0.9504 -0.1373
vn 0.1398 -0.9799 -0.1423
vn -0.0013 -0.9896 -0.1435
vn 0.1324 -0.9504 -0.2815
vn 0.2651 -0.9257 -0.2698
vn -0.1423 -0.9799 -0.1398
vn -0.2815 -0.9504 -0.1324
vn -0.2698 -0.9257 -0.2651
vn -0.1373 -0.9504 -0.2791
vn -0.0025 -0.9585 -0.2851
vn 0.3912 -0.8362 0.3843
vn 0.2576 -0.8755 0.4089
vn 0.4134 -0.8755 0.2503
vn 0.1332 -0.8952 0.4253
vn 0.0038 -0.9019 0.4320
vn -0.1257 -0.8952 0.4276
vn -0.2503 -0.8755 0.4134
vn -0.3843 -0.8362 0.3912
vn -0.4089 -0.8755 0.2575
vn -0.4253 -0.8952 0.1332
vn -0.4320 -0.9019 0.0038
vn -0.2851 -0.9585 0.0025
vn -0.4276 -0.8952 -0.1257
vn -0.4134 -0.8755 -0.2503
vn -0.3912 -0.8362 -0.3843
vn -0.2576 -0.8755 -0.4089
vn -0.1332 -0.8952 -0.4253
vn -0.0038 -0.9019 -0.4320
vn 0.2503 -0.8755 -0.4134
vn 0.1257 -0.8952 -0.4276
vn 0.4089 -0.8755 -0.2576
vn 0.3843 -0.8362 -0.3912
vn 0.4320 -0.9019 -0.0038
vn 0.4253 -0.8952 -0.1332
vn 0.4276 -0.8952 0.1257
vn 0.2613 -0.3434 -0.9021
vn 0.3063 -0.3641 -0.8795
vn -0.0081 -0.4018 -0.9157
vn 0.1914 -0.3831 -0.9036
vn -0.0080 -0.4203 -0.9073
vn 0.2727 -0.4398 -0.8557
vn 0.3642 -0.3985 -0.8418
vn -0.2073 -0.3831 -0.9001
vn -0.2773 -0.3434 -0.8973
vn -0.3791 -0.3984 -0.8352
vn -0.2879 -0.4398 -0.8507
vn -0.0078 -0.4760 -0.8794
vn 0.4405 -0.4662 -0.7672
vn 0.3266 -0.4959 -0.8047
vn -0.0074 -0.5278 -0.8494
vn 0.3057 -0.5525 -0.7755
vn 0.4118 -0.5304 -0.7411
vn -0.3408 -0.4959 -0.7987
vn -0.4542 -0.4662 -0.7592
vn -0.4244 -0.5305 -0.7338
vn -0.3194 -0.5524 -0.7699
vn -0.0072 -0.5795 -0.8149
vn 0.2688 -0.6241 -0.7336
vn 0.3601 -0.6103 -0.7056
vn -0.0062 -0.7198 -0.6942
vn 0.2320 -0.7040 -0.6713
vn 0.3100 -0.6943 -0.6494
vn -0.2818 -0.6241 -0.7288
vn -0.0068 -0.6437 -0.7652
vn -0.3724 -0.6103 -0.6992
vn -0.2437 -0.7040 -0.6671
vn 0.1830 -0.7742 -0.6059
vn 0.2248 -0.7793 -0.5849
vn -0.0055 -0.7822 -0.6229
vn -0.0049 -0.8348 -0.5505
vn 0.0846 -0.8433 -0.5307
vn 0.0493 -0.8797 -0.4730
vn -0.3212 -0.6944 -0.6439
vn -0.1936 -0.7743 -0.6025
vn -0.2351 -0.7793 -0.5809
vn -0.0939 -0.8433 -0.5291
vn -0.1606 -0.9478 -0.2753
vn -0.0804 -0.9371 -0.3398
vn -0.2491 -0.9280 -0.2772
vn -0.0035 -0.9170 -0.3990
vn -0.0989 -0.9121 -0.3978
vn -0.0576 -0.8797 -0.4721
vn 0.1557 -0.9478 -0.2782
vn -0.0025 -0.9605 -0.2783
vn 0.0743 -0.9371 -0.3412
vn 0.0918 -0.9121 -0.3995
vn -0.0031 -0.9377 -0.3473
vn -0.2680 -0.9171 -0.2951
vn -0.0031 -0.9352 -0.3541
vn -0.2846 -0.9160 -0.2826
vn -0.3169 -0.9117 -0.2616
vn -0.3193 -0.9105 -0.2626
vn -0.2530 -0.9181 -0.3052
vn -0.0031 -0.9340 -0.3573
vn 0.2796 -0.9161 -0.2875
vn 0.3122 -0.9117 -0.2672
vn 0.3147 -0.9116 -0.2644
vn 0.2627 -0.9171 -0.2998
vn 0.2476 -0.9180 -0.3097
vn 0.3146 -0.9105 -0.2682
vn 0.2437 -0.9280 -0.2817
vn 0.2635 -0.9240 -0.2772
vn 0.3031 -0.9122 -0.2759
vn 0.2089 -0.9328 -0.2938
vn -0.3193 -0.9116 -0.2588
vn -0.2684 -0.9240 -0.2725
vn -0.3078 -0.9122 -0.2704
vn -0.2149 -0.9326 -0.2900
vn -0.8090 0.5631 0.1686
vn -0.8169 0.4644 0.3420
vn -0.7729 0.5457 0.3239
vn -0.8650 0.4693 0.1778
vn -0.8325 0.4321 0.3466
vn -0.8825 0.4703 0.0078
vn -0.8842 0.4310 0.1799
vn -0.8225 0.5687 0.0073
vn -0.8681 0.4691 -0.1624
vn -0.8872 0.4312 -0.1643
vn -0.9025 0.4307 0.0080
vn -0.8385 0.4323 -0.3318
vn -0.8119 0.5630 -0.1542
vn -0.8228 0.4645 -0.3275
vn -0.5028 0.6967 0.5117
vn -0.6585 0.6179 0.4296
vn -0.5684 0.5850 0.5785
vn -0.7110 0.5195 0.4739
vn -0.6050 0.5037 0.6167
vn -0.6947 0.6570 0.2928
vn -0.5665 0.7809 0.2633
vn -0.5435 0.7467 0.3835
vn -0.7374 0.4570 0.4974
vn -0.6241 0.4532 0.6365
vn -0.6296 0.4332 0.6450
vn -0.7471 0.4336 0.5038
vn -0.7785 0.5457 -0.3102
vn -0.7460 0.4571 -0.4843
vn -0.7558 0.4338 -0.4905
vn -0.6425 0.4346 -0.6312
vn -0.6161 0.5041 -0.6053
vn -0.7193 0.5195 -0.4613
vn -0.5711 0.7809 -0.2531
vn -0.6660 0.6179 -0.4179
vn -0.6997 0.6570 -0.2805
vn -0.5785 0.5850 -0.5684
vn -0.5117 0.6967 -0.5028
vn -0.5502 0.7467 -0.3738
vn -0.5869 0.8096 0.0052
vn -0.7182 0.6816 -0.1403
vn -0.7240 0.6897 0.0064
vn -0.5831 0.8023 -0.1278
vn -0.5808 0.8023 0.1380
vn -0.7156 0.6816 0.1530
vn -0.1686 0.5631 -0.8090
vn -0.3420 0.4645 -0.8169
vn -0.3239 0.5457 -0.7729
vn -0.1778 0.4690 -0.8651
vn -0.3466 0.4322 -0.8325
vn -0.0078 0.4702 -0.8825
vn -0.1799 0.4309 -0.8843
vn -0.0073 0.5688 -0.8225
vn 0.1625 0.4690 -0.8681
vn 0.1643 0.4311 -0.8872
vn -0.0080 0.4305 -0.9025
vn 0.3319 0.4322 -0.8385
vn 0.1543 0.5631 -0.8119
vn 0.3275 0.4645 -0.8228
vn -0.4296 0.6179 -0.6585
vn -0.4739 0.5195 -0.7110
vn -0.2928 0.6570 -0.6947
vn -0.2633 0.7809 -0.5665
vn -0.3835 0.7467 -0.5435
vn -0.4974 0.4570 -0.7374
vn -0.6360 0.4529 -0.6248
vn -0.5038 0.4337 -0.7471
vn 0.3102 0.5457 -0.7785
vn 0.4842 0.4571 -0.7461
vn 0.4905 0.4336 -0.7559
vn 0.6311 0.4347 -0.6424
vn 0.6053 0.5040 -0.6161
vn 0.4612 0.5195 -0.7193
vn 0.2532 0.7808 -0.5711
vn 0.4178 0.6179 -0.6661
vn 0.2805 0.6570 -0.6998
vn 0.5683 0.5850 -0.5785
vn 0.5027 0.6967 -0.5117
vn 0.3739 0.7467 -0.5502
vn -0.0052 0.8096 -0.5869
vn 0.1403 0.6816 -0.7182
vn -0.0064 0.6898 -0.7240
vn 0.1277 0.8023 -0.5831
vn -0.1380 0.8023 -0.5808
vn -0.1530 0.6816 -0.7156
vn 0.8090 0.5631 -0.1686
vn 0.8169 0.4645 -0.3419
vn 0.7729 0.5457 -0.3239
vn 0.8651 0.4691 -0.1778
vn 0.8325 0.4322 -0.3466
vn 0.8825 0.4702 -0.0078
vn 0.8842 0.4310 -0.1800
vn 0.8224 0.5688 -0.0073
vn 0.8681 0.4690 0.1625
vn 0.8873 0.4310 0.1643
vn 0.9026 0.4304 -0.0080
vn 0.8385 0.4322 0.3319
vn 0.8118 0.5631 0.1542
vn 0.8229 0.4644 0.3274
vn 0.6586 0.6179 -0.4296
vn 0.7110 0.5195 -0.4739
vn 0.6947 0.6570 -0.2928
vn 0.5666 0.7809 -0.2632
vn 0.5435 0.7467 -0.3835
vn 0.7374 0.4571 -0.4973
vn 0.6248 0.4531 -0.6359
vn 0.7471 0.4337 -0.5037
vn 0.7785 0.5457 0.3102
vn 0.7461 0.4571 0.4842
vn 0.7559 0.4336 0.4905
vn 0.6408 0.4333 0.6337
vn 0.6159 0.5036 0.6059
vn 0.7192 0.5196 0.4612
vn 0.5711 0.7808 0.2532
vn 0.6660 0.6179 0.4179
vn 0.6998 0.6570 0.2805
vn 0.5785 0.5850 0.5684
vn 0.5117 0.6967 0.5027
vn 0.5502 0.7467 0.3739
vn 0.5869 0.8096 -0.0052
vn 0.7182 0.6816 0.1403
vn 0.7240 0.6898 -0.0064
vn 0.5831 0.8023 0.1277
vn 0.5808 0.8023 -0.1380
vn 0.7156 0.6815 -0.1530
vn 0.1697 0.5576 0.8126
vn 0.3390 0.4325 0.8355
vn 0.3237 0.5401 0.7769
vn 0.1952 0.3725 0.9073
vn 0.3220 0.3636 0.8741
vn 0.0079 0.4547 0.8906
vn 0.1850 0.4408 0.8784
vn 0.0073 0.5652 0.8249
vn -0.1694 0.4407 0.8815
vn -0.1791 0.3725 0.9106
vn 0.0081 0.4017 0.9158
vn -0.3241 0.4324 0.8414
vn -0.1552 0.5576 0.8155
vn 0.4296 0.6179 0.6585
vn 0.4745 0.5180 0.7117
vn 0.2928 0.6570 0.6947
vn 0.2632 0.7809 0.5666
vn 0.3835 0.7467 0.5435
vn 0.6352 0.4533 0.6253
vn 0.4960 0.4516 0.7416
vn 0.4899 0.4142 0.7671
vn -0.3099 0.5401 0.7825
vn -0.4828 0.4515 0.7503
vn -0.4763 0.4142 0.7756
vn -0.3065 0.3636 0.8797
vn -0.4618 0.5181 0.7199
vn -0.2531 0.7809 0.5711
vn -0.4179 0.6179 0.6660
vn -0.2805 0.6570 0.6997
vn -0.3738 0.7467 0.5502
vn 0.0052 0.8096 0.5869
vn -0.1403 0.6816 0.7182
vn 0.0064 0.6897 0.7240
vn -0.1277 0.8023 0.5831
vn 0.1380 0.8023 0.5808
vn 0.1530 0.6816 0.7156
vn -0.2698 0.9257 -0.2651
vn -0.1424 0.9799 -0.1399
vn -0.1374 0.9504 -0.2791
vn -0.0013 0.9896 -0.1436
vn -0.0025 0.9585 -0.2851
vn -0.0000 1.0000 -0.0000
vn -0.2815 0.9504 -0.1324
vn -0.1436 0.9896 0.0013
vn 0.1324 0.9504 -0.2815
vn 0.1399 0.9799 -0.1424
vn 0.2650 0.9257 -0.2698
vn 0.1436 0.9896 -0.0013
vn 0.2791 0.9504 -0.1374
vn -0.2791 0.9504 0.1373
vn -0.2851 0.9585 0.0025
vn -0.1399 0.9799 0.1424
vn -0.1324 0.9504 0.2815
vn 0.0013 0.9896 0.1436
vn -0.2651 0.9257 0.2698
vn 0.1424 0.9799 0.1399
vn 0.2815 0.9504 0.1324
vn 0.2851 0.9585 -0.0025
vn 0.2698 0.9257 0.2650
vn 0.1373 0.9504 0.2791
vn -0.3910 0.8364 -0.3842
vn -0.2575 0.8756 -0.4087
vn -0.4132 0.8756 -0.2502
vn -0.1333 0.8953 -0.4251
vn -0.0038 0.9020 -0.4318
vn 0.1257 0.8953 -0.4274
vn 0.2502 0.8756 -0.4132
vn 0.3842 0.8364 -0.3910
vn 0.4087 0.8756 -0.2575
vn 0.4251 0.8953 -0.1332
vn 0.4318 0.9020 -0.0038
vn 0.4274 0.8953 0.1257
vn 0.4132 0.8756 0.2502
vn 0.3910 0.8364 0.3842
vn 0.2575 0.8756 0.4087
vn 0.0025 0.9585 0.2851
vn 0.1332 0.8953 0.4251
vn 0.0038 0.9020 0.4318
vn -0.2502 0.8756 0.4132
vn -0.1257 0.8953 0.4274
vn -0.4087 0.8756 0.2575
vn -0.3842 0.8364 0.3910
vn -0.4318 0.9020 0.0038
vn -0.4251 0.8953 0.1333
vn -0.4274 0.8953 -0.1257
vn -0.2620 0.3431 0.9020
vn -0.1922 0.3833 0.9034
vn -0.2771 0.4391 0.8546
vn 0.0081 0.4206 0.9072
vn -0.3677 0.3968 0.8411
vn 0.2082 0.3833 0.8999
vn 0.2779 0.3431 0.8972
vn 0.3823 0.3968 0.8345
vn 0.2922 0.4391 0.8496
vn -0.4455 0.4644 0.7654
vn -0.3343 0.4943 0.8024
vn 0.0079 0.4762 0.8793
vn -0.3105 0.5507 0.7748
vn 0.0074 0.5279 0.8493
vn -0.4149 0.5298 0.7397
vn 0.3486 0.4943 0.7964
vn 0.4592 0.4644 0.7573
vn 0.4279 0.5298 0.7322
vn 0.3241 0.5508 0.7692
vn -0.2717 0.6244 0.7323
vn 0.0066 0.6452 0.7640
vn 0.0072 0.5777 0.8162
vn 0.0061 0.7196 0.6944
vn -0.3623 0.6101 0.7046
vn -0.2344 0.7036 0.6708
vn 0.2846 0.6244 0.7274
vn 0.2462 0.7036 0.6666
vn 0.3749 0.6100 0.6981
vn -0.3114 0.6945 0.6486
vn -0.1845 0.7741 0.6056
vn 0.0055 0.7821 0.6231
vn 0.0049 0.8351 0.5500
vn -0.2257 0.7796 0.5842
vn -0.0850 0.8434 0.5305
vn 0.1951 0.7741 0.6022
vn 0.3229 0.6945 0.6430
vn 0.0944 0.8434 0.5289
vn 0.2358 0.7796 0.5802
vn 0.0779 0.9367 0.3413
vn 0.1590 0.9464 0.2812
vn 0.2415 0.9291 0.2802
vn 0.0035 0.9162 0.4006
vn 0.0026 0.9588 0.2841
vn 0.0981 0.9114 0.3997
vn 0.0581 0.8796 0.4721
vn -0.1540 0.9464 0.2839
vn -0.0719 0.9367 0.3426
vn -0.2365 0.9291 0.2845
vn -0.0910 0.9114 0.4013
vn -0.0497 0.8796 0.4730
vn 0.0031 0.9397 0.3420
vn 0.2748 0.9159 0.2926
vn 0.2938 0.9147 0.2775
vn 0.3217 0.9109 0.2582
vn 0.3189 0.9118 0.2588
vn 0.3171 0.9126 0.2581
vn 0.0031 0.9357 0.3528
vn 0.2594 0.9169 0.3033
vn -0.3170 0.9110 0.2638
vn -0.2890 0.9146 0.2828
vn -0.3143 0.9118 0.2644
vn -0.2695 0.9159 0.2974
vn -0.2539 0.9169 0.3079
vn -0.3128 0.9124 0.2639
vn -0.2611 0.9231 0.2824
vn -0.2997 0.9133 0.2759
vn -0.1986 0.9334 0.2988
vn 0.2661 0.9231 0.2778
vn 0.3044 0.9133 0.2705
vn 0.2038 0.9334 0.2952
vn 0.3079 0.9493 -0.0628
vn 0.2907 0.9491 -0.1212
vn 0.3079 0.9494 -0.0627
vn 0.3138 0.9495 -0.0028
vn 0.3092 0.9493 0.0574
vn 0.3089 0.9494 0.0573
vn 0.2928 0.9491 0.1160
vn 0.2929 0.9491 0.1161
vn 0.2616 0.9489 -0.1765
vn 0.2381 0.9490 -0.2067
vn 0.2908 0.9491 -0.1213
vn 0.2648 0.9488 0.1720
vn 0.2255 0.9487 0.2216
vn 0.2256 0.9487 0.2216
vn 0.2648 0.9489 0.1719
vn 0.0627 0.9495 0.3076
vn 0.1211 0.9491 0.2906
vn 0.0627 0.9494 0.3079
vn 0.0028 0.9495 0.3138
vn -0.0573 0.9493 0.3090
vn -0.1160 0.9491 0.2927
vn -0.1160 0.9491 0.2928
vn 0.1766 0.9489 0.2617
vn 0.1765 0.9489 0.2616
vn 0.1212 0.9491 0.2907
vn -0.1719 0.9489 0.2647
vn -0.2216 0.9487 0.2255
vn -0.2216 0.9487 0.2256
vn -0.1718 0.9489 0.2646
vn -0.3080 0.9493 0.0628
vn -0.2907 0.9491 0.1211
vn -0.3076 0.9495 0.0628
vn -0.3137 0.9495 0.0028
vn -0.3136 0.9495 0.0028
vn -0.3089 0.9494 -0.0573
vn -0.2927 0.9492 -0.1160
vn -0.2928 0.9491 -0.1160
vn -0.2617 0.9489 0.1766
vn -0.2617 0.9489 0.1765
vn -0.2907 0.9491 0.1212
vn -0.2647 0.9489 -0.1718
vn -0.2416 0.9491 -0.2023
vn -0.2413 0.9492 -0.2020
vn -0.3257 0.9351 -0.1394
vn -0.3295 0.9338 -0.1391
vn -0.5809 0.8137 -0.0207
vn -0.5955 0.8032 -0.0153
vn 0.2378 0.9491 -0.2063
vn 0.3231 0.9352 -0.1451
vn 0.3270 0.9339 -0.1447
vn 0.5805 0.8137 -0.0311
vn 0.8283 0.5483 0.1150
vn 0.9005 0.3448 0.2649
vn 0.8206 0.5614 0.1069
vn 0.5952 0.8031 -0.0260
vn -0.8185 0.5614 0.1216
vn -0.8261 0.5483 0.1298
vn -0.8956 0.3450 0.2809
vn -0.8964 0.3354 0.2899
vn 0.8901 0.2550 0.3778
vn 0.8950 0.2378 0.3773
vn 0.8906 0.2579 0.3745
vn 0.9013 0.3354 0.2741
vn -0.8838 0.2580 0.3903
vn -0.8832 0.2551 0.3936
vn -0.8880 0.2380 0.3934
vn -0.8886 0.2387 0.3917
vn 0.9146 0.2342 0.3296
vn 0.9341 0.2257 0.2767
vn 0.9136 0.2334 0.3330
vn 0.8956 0.2385 0.3756
vn -0.9074 0.2335 0.3493
vn -0.9085 0.2344 0.3459
vn -0.9290 0.2257 0.2932
vn -0.9307 0.2256 0.2878
vn 0.9695 0.1855 0.1604
vn 0.9920 0.1247 0.0209
vn 0.9677 0.1854 0.1707
vn 0.9357 0.2256 0.2713
vn -0.9646 0.1854 0.1878
vn -0.9665 0.1855 0.1775
vn -0.9915 0.1246 0.0384
vn -0.9913 0.1290 0.0259
vn 0.8414 -0.5043 0.1942
vn 0.5558 -0.5419 0.6304
vn 0.8455 -0.5023 0.1812
vn 0.5596 -0.5326 0.6350
vn 0.0076 -0.4822 0.8760
vn -0.5485 -0.5324 0.6447
vn 0.0078 -0.4679 0.8837
vn -0.8379 -0.5042 0.2091
vn -0.5448 -0.5417 0.6402
vn -0.9089 -0.4170 0.0014
vn -0.8422 -0.5023 0.1961
vn -0.9251 -0.2249 -0.3061
vn -0.9129 -0.4080 -0.0066
vn 0.9195 -0.2248 -0.3224
vn 0.9128 -0.4078 -0.0227
vn 0.9134 -0.1827 -0.3637
vn 0.9089 -0.4168 -0.0146
vn 0.8407 -0.0028 -0.5414
vn 0.8507 0.0170 -0.5254
vn -0.0082 0.3779 -0.9258
vn 0.1294 0.3677 -0.9209
vn -0.0082 0.3834 -0.9235
vn -0.1457 0.3674 -0.9186
vn -0.1429 0.3630 -0.9208
vn -0.8501 -0.0027 -0.5266
vn -0.9198 -0.1823 -0.3476
vn -0.8278 0.5023 -0.2499
vn -0.4821 0.5313 -0.6967
vn -0.4866 0.5276 -0.6963
vn -0.0077 0.4759 -0.8795
vn -0.0078 0.4729 -0.8811
vn 0.4743 0.5275 -0.7048
vn 0.4696 0.5307 -0.7055
vn 0.8234 0.5019 -0.2648
vn 0.8321 0.4920 -0.2560
vn 0.9708 0.2217 -0.0914
vn 0.9749 0.2060 -0.0846
vn 0.9916 0.1292 0.0085
vn -0.9762 0.2062 -0.0674
vn -0.9723 0.2216 -0.0744
vn -0.8364 0.4922 -0.2412
vn 0.9024 -0.4308 -0.0079
vn 0.0080 -0.4306 0.9025
vn -0.9024 -0.4308 0.0080
vn -0.3218 -0.3641 -0.8740
vn 0.0032 0.9339 0.3574
vn 0.1266 0.3634 -0.9230
vn -0.8597 0.0165 -0.5105
vt 0.655358 0.536599
vt 0.700650 0.542356
vt 0.665793 0.555871
vt 0.645605 0.519123
vt 0.691963 0.520859
vt 0.684063 0.501385
vt 0.729806 0.509178
vt 0.737196 0.532059
vt 0.767748 0.499664
vt 0.773880 0.523152
vt 0.762834 0.478920
vt 0.835747 0.509278
vt 0.879541 0.514967
vt 0.867143 0.530817
vt 0.823034 0.529687
vt 0.854071 0.548798
vt 0.637050 0.620348
vt 0.647109 0.591804
vt 0.656458 0.612865
vt 0.624064 0.609924
vt 0.634374 0.573599
vt 0.676314 0.578229
vt 0.684743 0.604012
vt 0.608035 0.597134
vt 0.621807 0.557753
vt 0.592732 0.584878
vt 0.609848 0.542850
vt 0.882868 0.568858
vt 0.909615 0.540056
vt 0.896650 0.553869
vt 0.937318 0.568725
vt 0.922956 0.580444
vt 0.907681 0.592466
vt 0.829426 0.596650
vt 0.868932 0.586319
vt 0.858757 0.607171
vt 0.840437 0.570588
vt 0.891476 0.605083
vt 0.878427 0.615359
vt 0.754152 0.589832
vt 0.781905 0.551555
vt 0.793131 0.585930
vt 0.745709 0.558991
vt 0.809102 0.554846
vt 0.717780 0.596052
vt 0.709841 0.567480
vt 0.961383 0.646731
vt 0.949469 0.689739
vt 0.940583 0.653664
vt 0.980134 0.639679
vt 0.972099 0.685556
vt 0.992646 0.681314
vt 0.976691 0.726258
vt 0.953409 0.727723
vt 0.975212 0.767238
vt 0.952463 0.766013
vt 0.995867 0.768946
vt 0.986479 0.811645
vt 0.967877 0.807137
vt 0.946956 0.803110
vt 0.906463 0.629886
vt 0.883561 0.635209
vt 0.926903 0.620881
vt 0.916561 0.659848
vt 0.889404 0.663738
vt 0.944803 0.611423
vt 0.961246 0.601935
vt 0.937996 0.837804
vt 0.971523 0.852408
vt 0.955944 0.844921
vt 0.956543 0.890802
vt 0.943589 0.879328
vt 0.927439 0.869155
vt 0.895154 0.799959
vt 0.916742 0.831804
vt 0.892983 0.829766
vt 0.922654 0.800283
vt 0.908261 0.858983
vt 0.891669 0.850870
vt 0.896681 0.731245
vt 0.926157 0.765590
vt 0.896776 0.766374
vt 0.926573 0.729445
vt 0.894060 0.696437
vt 0.923302 0.693612
vt 0.801160 0.973766
vt 0.772081 0.942366
vt 0.806418 0.952150
vt 0.796693 0.993372
vt 0.765242 0.965144
vt 0.759807 0.985578
vt 0.728258 0.956262
vt 0.736024 0.933722
vt 0.691085 0.944880
vt 0.699986 0.923559
vt 0.683165 0.964287
vt 0.645214 0.946785
vt 0.654982 0.929353
vt 0.665536 0.910187
vt 0.896603 0.881551
vt 0.872805 0.861993
vt 0.919398 0.897125
vt 0.839946 0.960416
vt 0.813977 0.927422
vt 0.844174 0.937896
vt 0.826598 0.901673
vt 0.853579 0.915873
vt 0.938630 0.910754
vt 0.833974 0.999999
vt 0.836914 0.981094
vt 0.634412 0.892628
vt 0.609830 0.923291
vt 0.621790 0.908413
vt 0.592945 0.881527
vt 0.608259 0.869297
vt 0.685179 0.862577
vt 0.647277 0.874553
vt 0.656831 0.853706
vt 0.676335 0.888038
vt 0.624343 0.856572
vt 0.637404 0.846236
vt 0.754771 0.877425
vt 0.709654 0.898777
vt 0.718321 0.870680
vt 0.745291 0.907414
vt 0.793926 0.883212
vt 0.781339 0.915321
vt 0.553789 0.812410
vt 0.570034 0.770762
vt 0.576457 0.806880
vt 0.518491 0.771470
vt 0.546463 0.772735
vt 0.544057 0.733485
vt 0.567911 0.733467
vt 0.546287 0.694205
vt 0.569864 0.696140
vt 0.518307 0.695573
vt 0.553484 0.654422
vt 0.576169 0.659918
vt 0.609706 0.831802
vt 0.632922 0.826837
vt 0.588741 0.840273
vt 0.600891 0.801980
vt 0.628319 0.799040
vt 0.578602 0.893265
vt 0.569804 0.848918
vt 0.550980 0.857703
vt 0.569480 0.617727
vt 0.588429 0.626360
vt 0.550613 0.608992
vt 0.578370 0.573140
vt 0.627947 0.667852
vt 0.609373 0.634858
vt 0.632520 0.639888
vt 0.600587 0.664832
vt 0.624004 0.733528
vt 0.595863 0.698321
vt 0.625016 0.699766
vt 0.594367 0.733477
vt 0.625242 0.767249
vt 0.596044 0.768598
vt 0.827268 0.661856
vt 0.794825 0.696744
vt 0.793556 0.659513
vt 0.829057 0.697421
vt 0.795993 0.734322
vt 0.761003 0.734314
vt 0.760094 0.696764
vt 0.759027 0.659685
vt 0.831360 0.770598
vt 0.830610 0.733881
vt 0.831886 0.806819
vt 0.796684 0.772002
vt 0.796948 0.809461
vt 0.761410 0.771746
vt 0.724266 0.662239
vt 0.725102 0.697869
vt 0.725538 0.734045
vt 0.690443 0.699137
vt 0.690336 0.665321
vt 0.725931 0.770134
vt 0.725631 0.805487
vt 0.691170 0.802004
vt 0.690955 0.768412
vt 0.690424 0.733809
vt 0.857050 0.633438
vt 0.859447 0.664023
vt 0.826562 0.627889
vt 0.862384 0.697607
vt 0.864425 0.732823
vt 0.864951 0.768363
vt 0.864832 0.802814
vt 0.865834 0.834602
vt 0.833212 0.841551
vt 0.836324 0.873018
vt 0.796568 0.846474
vt 0.759646 0.844212
vt 0.761253 0.808591
vt 0.723543 0.839336
vt 0.689837 0.833685
vt 0.659454 0.828564
vt 0.658550 0.799373
vt 0.657122 0.767275
vt 0.656288 0.733635
vt 0.658019 0.667684
vt 0.656797 0.699944
vt 0.689032 0.633296
vt 0.658910 0.638260
vt 0.757464 0.623600
vt 0.722255 0.627938
vt 0.792813 0.622638
vt 0.481234 0.677464
vt 0.521251 0.645850
vt 0.516754 0.733534
vt 0.479019 0.705736
vt 0.477622 0.733643
vt 0.418334 0.713086
vt 0.420120 0.695238
vt 0.479173 0.761536
vt 0.481567 0.789785
vt 0.420363 0.772466
vt 0.418424 0.754630
vt 0.597534 0.509079
vt 0.556010 0.556935
vt 0.546218 0.541779
vt 0.537962 0.525870
vt 0.456680 0.563391
vt 0.530421 0.509990
vt 0.464367 0.576534
vt 0.472912 0.589673
vt 0.384148 0.636356
vt 0.374808 0.623435
vt 0.482428 0.602205
vt 0.492160 0.613963
vt 0.415024 0.674322
vt 0.404665 0.662269
vt 0.394142 0.649490
vt 0.310077 0.694929
vt 0.298918 0.681250
vt 0.256000 0.765844
vt 0.242945 0.750307
vt 0.230043 0.735295
vt 0.333364 0.722917
vt 0.321644 0.709019
vt 0.344832 0.736187
vt 0.269030 0.781371
vt 0.182927 0.800991
vt 0.167397 0.785711
vt 0.197282 0.818101
vt 0.154334 0.855587
vt 0.139667 0.838372
vt 0.114180 0.830750
vt 0.281631 0.796429
vt 0.210698 0.836003
vt 0.222208 0.854477
vt 0.165393 0.875315
vt 0.131902 0.141199
vt 0.145407 0.142541
vt 0.143270 0.153563
vt 0.130629 0.892817
vt 0.135120 0.873556
vt 0.141567 0.890373
vt 0.164500 0.903618
vt 0.133503 0.909104
vt 0.120422 0.870057
vt 0.126002 0.879974
vt 0.114219 0.861578
vt 0.124737 0.859047
vt 0.022724 0.057339
vt 0.008133 0.054092
vt 0.018321 0.048946
vt 0.196915 0.217592
vt 0.195101 0.201268
vt 0.206260 0.218656
vt 0.203846 0.198596
vt 0.215781 0.219002
vt 0.000001 0.047729
vt 0.013796 0.040998
vt 0.032381 0.057980
vt 0.049114 0.059071
vt 0.047785 0.067916
vt 0.031218 0.047763
vt 0.030805 0.037852
vt 0.050642 0.050407
vt 0.100083 0.107680
vt 0.081658 0.080942
vt 0.111156 0.105746
vt 0.075504 0.086415
vt 0.089172 0.076729
vt 0.103863 0.879265
vt 0.186192 0.204007
vt 0.169337 0.172464
vt 0.164218 0.178922
vt 0.173125 0.164823
vt 0.837115 0.383315
vt 0.817542 0.423956
vt 0.806281 0.406076
vt 0.852078 0.399723
vt 0.827660 0.440983
vt 0.881681 0.369413
vt 0.865834 0.415203
vt 0.864147 0.355291
vt 0.905527 0.334722
vt 0.923604 0.344656
vt 0.898114 0.382442
vt 0.940982 0.303015
vt 0.886438 0.323585
vt 0.922369 0.296848
vt 0.735323 0.394307
vt 0.764574 0.402259
vt 0.736296 0.409893
vt 0.772870 0.422001
vt 0.737494 0.429568
vt 0.792510 0.386716
vt 0.775405 0.367120
vt 0.752373 0.383885
vt 0.779393 0.440797
vt 0.738561 0.448689
vt 0.739848 0.467345
vt 0.785375 0.458653
vt 0.902782 0.289511
vt 0.931569 0.257438
vt 0.950018 0.259600
vt 0.950300 0.215850
vt 0.913485 0.219538
vt 0.912185 0.254580
vt 0.859257 0.266535
vt 0.891562 0.249982
vt 0.881375 0.279762
vt 0.894177 0.221419
vt 0.878910 0.222872
vt 0.871628 0.241186
vt 0.822406 0.320883
vt 0.865251 0.310039
vt 0.844279 0.339041
vt 0.842618 0.293880
vt 0.799471 0.345710
vt 0.819587 0.365106
vt 0.868260 0.122668
vt 0.908181 0.142002
vt 0.890361 0.152967
vt 0.884793 0.108127
vt 0.925246 0.132326
vt 0.855386 0.078627
vt 0.900465 0.094891
vt 0.840976 0.095740
vt 0.821425 0.054529
vt 0.831793 0.036833
vt 0.868790 0.062702
vt 0.790795 0.018637
vt 0.809913 0.073290
vt 0.784170 0.037097
vt 0.886480 0.193857
vt 0.905883 0.185397
vt 0.871162 0.166567
vt 0.851838 0.183614
vt 0.868485 0.206225
vt 0.924376 0.178809
vt 0.932072 0.217685
vt 0.942081 0.173012
vt 0.776399 0.056515
vt 0.745243 0.027240
vt 0.747939 0.008810
vt 0.704422 0.007828
vt 0.707036 0.044738
vt 0.741893 0.046581
vt 0.752746 0.099635
vt 0.736849 0.067128
vt 0.766261 0.077730
vt 0.708452 0.064090
vt 0.709597 0.079390
vt 0.727719 0.086931
vt 0.806309 0.136875
vt 0.796059 0.094178
vt 0.824531 0.115259
vt 0.779707 0.116547
vt 0.830727 0.159787
vt 0.850019 0.139873
vt 0.609263 0.088487
vt 0.629485 0.048748
vt 0.640025 0.066819
vt 0.595064 0.071548
vt 0.620254 0.031454
vt 0.564960 0.100670
vt 0.582210 0.055425
vt 0.581830 0.115572
vt 0.540139 0.134687
vt 0.522573 0.123764
vt 0.549340 0.086692
vt 0.503632 0.165390
vt 0.558816 0.146672
vt 0.522102 0.172467
vt 0.680804 0.071376
vt 0.672794 0.051808
vt 0.653235 0.086301
vt 0.669971 0.105933
vt 0.692816 0.089584
vt 0.666699 0.033179
vt 0.705707 0.026104
vt 0.661440 0.015364
vt 0.541596 0.180568
vt 0.511910 0.212448
vt 0.493321 0.209559
vt 0.492344 0.255199
vt 0.529914 0.251451
vt 0.531502 0.215779
vt 0.585082 0.204614
vt 0.552310 0.220756
vt 0.562956 0.190943
vt 0.549477 0.249577
vt 0.564963 0.248140
vt 0.572404 0.229831
vt 0.622707 0.151034
vt 0.579683 0.160922
vt 0.601173 0.132451
vt 0.602129 0.177576
vt 0.645875 0.126777
vt 0.626172 0.107118
vt 0.577945 0.347196
vt 0.536337 0.330471
vt 0.554697 0.318056
vt 0.545453 0.383817
vt 0.509018 0.348254
vt 0.590179 0.390719
vt 0.561936 0.362638
vt 0.604998 0.373753
vt 0.621329 0.415420
vt 0.601807 0.434942
vt 0.572690 0.410374
vt 0.656973 0.436356
vt 0.634765 0.397158
vt 0.557449 0.277261
vt 0.537791 0.286147
vt 0.573573 0.304173
vt 0.592755 0.287228
vt 0.575600 0.264800
vt 0.510922 0.253422
vt 0.519046 0.293682
vt 0.499923 0.301395
vt 0.666990 0.416004
vt 0.696744 0.447421
vt 0.691922 0.467656
vt 0.642411 0.466582
vt 0.701493 0.427573
vt 0.692261 0.373116
vt 0.707434 0.406577
vt 0.678212 0.394943
vt 0.717117 0.386506
vt 0.639217 0.334050
vt 0.649135 0.377052
vt 0.621225 0.354999
vt 0.665659 0.355214
vt 0.614463 0.310891
vt 0.595545 0.330333
vt 0.814290 0.228712
vt 0.769703 0.232421
vt 0.790508 0.206868
vt 0.744259 0.210379
vt 0.765731 0.184964
vt 0.722534 0.236075
vt 0.794666 0.254262
vt 0.748447 0.258170
vt 0.740103 0.164057
vt 0.718416 0.188796
vt 0.714682 0.144129
vt 0.696596 0.213972
vt 0.692826 0.167663
vt 0.752295 0.304807
vt 0.774011 0.279980
vt 0.726725 0.283467
vt 0.705148 0.308194
vt 0.700845 0.261668
vt 0.730527 0.328550
vt 0.675265 0.239489
vt 0.650138 0.217577
vt 0.670964 0.192193
vt 0.630363 0.242773
vt 0.654437 0.264713
vt 0.853048 0.225269
vt 0.833128 0.204655
vt 0.837079 0.249143
vt 0.810884 0.182336
vt 0.786587 0.160256
vt 0.760842 0.139885
vt 0.735190 0.121581
vt 0.711588 0.105302
vt 0.690792 0.124966
vt 0.668317 0.146961
vt 0.646118 0.171058
vt 0.625657 0.196660
vt 0.607352 0.222247
vt 0.591168 0.245878
vt 0.611442 0.266479
vt 0.679458 0.286860
vt 0.634121 0.288824
vt 0.658743 0.311196
vt 0.710006 0.351189
vt 0.684503 0.332207
vt 0.754418 0.347995
vt 0.733523 0.367948
vt 0.798850 0.301072
vt 0.776834 0.325607
vt 0.819050 0.275069
vt 0.588755 0.474215
vt 0.566550 0.456029
vt 0.514208 0.491641
vt 0.546498 0.438529
vt 0.527069 0.502953
vt 0.528065 0.419551
vt 0.508583 0.399297
vt 0.482166 0.454724
vt 0.492496 0.468267
vt 0.452988 0.556581
vt 0.443311 0.546038
vt 0.502658 0.480571
vt 0.362081 0.604778
vt 0.434911 0.536059
vt 0.371241 0.616729
vt 0.427423 0.525416
vt 0.419742 0.513375
vt 0.337727 0.569349
vt 0.345930 0.581990
vt 0.285566 0.660894
vt 0.276351 0.647946
vt 0.353795 0.593539
vt 0.204902 0.698236
vt 0.295338 0.674591
vt 0.215518 0.713072
vt 0.267205 0.634959
vt 0.194046 0.683571
vt 0.257579 0.621219
vt 0.226457 0.728699
vt 0.152716 0.760984
vt 0.140499 0.744228
vt 0.094353 0.780296
vt 0.163808 0.779243
vt 0.106856 0.798062
vt 0.127176 0.728217
vt 0.182649 0.668311
vt 0.078757 0.765178
vt 0.112121 0.712834
vt 0.124361 0.158080
vt 0.126422 0.144281
vt 0.136876 0.157628
vt 0.052943 0.797297
vt 0.072016 0.798367
vt 0.062654 0.805629
vt 0.058479 0.786332
vt 0.051086 0.758998
vt 0.038522 0.789186
vt 0.069345 0.816637
vt 0.108586 0.124838
vt 0.094644 0.126636
vt 0.095717 0.114079
vt 0.081917 0.813456
vt 0.109718 0.824546
vt 0.075546 0.831801
vt 0.052223 0.018003
vt 0.046025 0.006978
vt 0.054603 0.011130
vt 0.191654 0.220866
vt 0.176178 0.216944
vt 0.180308 0.208485
vt 0.191395 0.230432
vt 0.172358 0.225162
vt 0.042948 0.017495
vt 0.037521 0.002774
vt 0.061724 0.040092
vt 0.054161 0.024995
vt 0.069174 0.035162
vt 0.044824 0.028124
vt 0.035520 0.031916
vt 0.054629 0.045034
vt 0.067007 0.099435
vt 0.071971 0.092407
vt 0.094695 0.061799
vt 0.097030 0.053111
vt 0.062760 0.108167
vt 0.150505 0.186971
vt 0.158365 0.182836
vt 0.141163 0.189800
vt 0.871046 0.421157
vt 0.904360 0.387340
vt 0.930574 0.348344
vt 0.948426 0.305305
vt 0.787852 0.466183
vt 0.831602 0.447836
vt 0.957789 0.260357
vt 0.958106 0.215053
vt 0.906469 0.089946
vt 0.873843 0.056699
vt 0.835641 0.030078
vt 0.793270 0.011238
vt 0.949570 0.170699
vt 0.932118 0.128623
vt 0.748942 0.001037
vt 0.703880 0.000001
vt 0.577392 0.049194
vt 0.543454 0.081377
vt 0.515830 0.119650
vt 0.496220 0.162684
vt 0.659375 0.007837
vt 0.616738 0.024514
vt 0.485492 0.208406
vt 0.484403 0.255621
vt 0.492072 0.302904
vt 0.501062 0.349361
vt 0.740782 0.475257
vt 0.691713 0.475669
vt 0.590808 0.482028
vt 0.642426 0.474711
vt 0.500653 0.397807
vt 0.475359 0.450611
vt 0.414187 0.507931
vt 0.332618 0.563701
vt 0.252442 0.615693
vt 0.177569 0.662940
vt 0.107375 0.707258
vt 0.106022 0.708335
vt 0.045956 0.753841
vt 0.016416 0.060551
vt 0.025289 0.063957
vt 0.021974 0.065989
vt 0.030935 0.065210
vt 0.044443 0.074221
vt 0.123173 0.129329
vt 0.118106 0.133960
vt 0.112049 0.119537
vt 0.167614 0.230352
vt 0.190238 0.240087
vt 0.186466 0.246011
vt 0.031081 0.000001
vt 0.033740 0.017004
vt 0.026759 0.016466
vt 0.028693 0.033578
vt 0.094063 0.071648
vt 0.099661 0.872938
vt 0.044478 0.755927
vt 0.005626 0.809256
vt 0.000001 0.805107
vt 0.136776 0.195204
vt 0.723411 0.488596
vt 0.847632 0.491616
vt 0.997873 0.725011
vt 0.721808 0.976726
vt 0.952505 0.925153
vt 0.521634 0.821119
vt 0.567182 0.570842
vt 0.106112 0.937159
vt 0.098187 0.837679
s 1
usemtl Material.004
f 1/1/1 2/2/2 3/3/3
f 4/4/4 5/5/5 1/1/1
f 6/6/6 7/7/7 5/5/5
f 5/5/5 8/8/8 2/2/2
f 8/8/8 9/9/9 10/10/10
f 7/7/7 11/11/11 9/9/9
f 9/12/9 12/13/12 13/14/13
f 10/15/10 13/14/13 14/16/14
f 15/17/15 16/18/16 17/19/17
f 18/20/18 19/21/19 16/18/16
f 19/21/19 20/22/20 16/18/16
f 16/18/16 21/23/21 17/19/17
f 22/24/22 23/25/23 19/21/19
f 24/26/24 25/27/25 23/25/23
f 25/27/25 1/1/1 23/25/23
f 19/21/19 1/1/1 3/3/3
f 13/14/13 26/28/26 14/16/14
f 13/14/13 27/29/27 28/30/28
f 28/30/28 29/31/29 30/32/30
f 28/30/28 31/33/31 26/28/26
f 32/34/32 33/35/33 34/36/34
f 35/37/35 26/28/26 33/35/33
f 26/28/26 36/38/36 33/35/33
f 33/35/33 37/39/37 34/36/34
f 38/40/38 39/41/39 40/42/40
f 41/43/41 10/10/10 39/41/39
f 39/44/39 14/16/14 35/37/35
f 40/42/40 35/37/35 32/34/32
f 20/22/20 42/45/42 21/23/21
f 3/3/3 43/46/43 20/22/20
f 2/2/2 41/43/41 43/46/43
f 43/46/43 38/40/38 42/45/42
f 44/47/44 45/48/45 46/49/46
f 47/50/47 48/51/48 44/47/44
f 49/52/49 50/53/50 48/51/48
f 48/51/48 51/54/51 45/48/45
f 51/54/51 52/55/52 53/56/53
f 50/53/50 54/57/54 52/55/52
f 52/55/52 55/58/55 56/59/56
f 53/56/53 56/59/56 57/60/57
f 37/39/37 58/61/58 59/62/59
f 36/38/36 60/63/60 58/61/58
f 60/63/60 61/64/61 58/61/58
f 58/61/58 62/65/62 59/62/59
f 31/33/31 63/66/63 60/63/60
f 29/31/29 63/66/63 30/32/30
f 64/67/64 44/47/44 63/66/63
f 60/63/60 44/47/44 46/49/46
f 56/59/56 65/68/65 57/60/57
f 56/59/56 66/69/66 67/70/67
f 67/70/67 68/71/68 69/72/69
f 67/70/67 70/73/70 65/68/65
f 71/74/71 72/75/72 73/76/73
f 74/77/74 65/68/65 72/75/72
f 65/68/65 75/78/75 72/75/72
f 72/75/72 76/79/76 73/76/73
f 77/80/77 78/81/78 79/82/79
f 80/83/80 53/56/53 78/81/78
f 78/81/78 57/60/57 74/77/74
f 79/82/79 74/77/74 71/74/71
f 61/64/61 81/84/81 62/65/62
f 46/49/46 82/85/82 61/64/61
f 45/48/45 80/83/80 82/85/82
f 82/85/82 77/80/77 81/84/81
f 83/86/83 84/87/84 85/88/85
f 86/89/86 87/90/87 83/86/83
f 88/91/88 89/92/89 87/90/87
f 87/90/87 90/93/90 84/87/84
f 90/93/90 91/94/91 92/95/92
f 89/92/89 93/96/93 91/94/91
f 91/94/91 94/97/94 95/98/95
f 92/95/92 95/98/95 96/99/96
f 76/79/76 97/100/97 98/101/98
f 75/78/75 99/102/99 97/100/97
f 99/103/99 100/104/100 97/105/97
f 97/105/97 101/106/101 98/107/98
f 70/73/70 102/108/102 99/102/99
f 68/71/68 102/108/102 69/72/69
f 103/109/103 83/86/83 102/110/102
f 99/103/99 83/86/83 85/88/85
f 95/98/95 104/111/104 96/99/96
f 95/98/95 105/112/105 106/113/106
f 105/112/105 107/114/107 106/113/106
f 106/113/106 108/115/108 104/111/104
f 109/116/109 110/117/110 111/118/111
f 112/119/112 104/111/104 110/117/110
f 104/111/104 113/120/113 110/117/110
f 110/117/110 114/121/114 111/118/111
f 115/122/115 116/123/116 117/124/117
f 118/125/118 92/95/92 116/123/116
f 116/123/116 96/99/96 112/119/112
f 117/124/117 112/119/112 109/116/109
f 100/104/100 119/126/119 101/106/101
f 85/88/85 120/127/120 100/104/100
f 84/87/84 118/125/118 120/127/120
f 120/127/120 115/122/115 119/126/119
f 121/128/121 122/129/122 123/130/123
f 121/128/121 124/131/124 125/132/125
f 124/131/124 126/133/126 125/132/125
f 125/132/125 127/134/127 122/129/122
f 127/134/127 128/135/128 129/136/129
f 126/133/126 130/137/130 128/135/128
f 130/137/130 131/138/131 128/135/128
f 129/136/129 131/138/131 132/139/132
f 114/121/114 133/140/133 134/141/134
f 113/120/113 135/142/135 133/140/133
f 135/142/135 136/143/136 133/140/133
f 133/140/133 137/144/137 134/141/134
f 107/114/107 135/142/135 108/115/108
f 138/145/138 139/146/139 107/114/107
f 140/147/140 121/128/121 139/146/139
f 139/146/139 123/130/123 135/142/135
f 132/139/132 141/148/141 142/149/142
f 131/138/131 143/150/143 141/148/141
f 141/148/141 144/151/144 24/26/24
f 142/149/142 24/26/24 22/24/22
f 145/152/145 146/153/146 147/154/147
f 148/155/148 142/149/142 146/153/146
f 142/149/142 18/20/18 146/153/146
f 146/153/146 15/17/15 147/154/147
f 149/156/149 150/157/150 151/158/151
f 152/159/152 129/136/129 150/157/150
f 150/157/150 132/139/132 148/155/148
f 151/158/151 148/155/148 145/152/145
f 136/143/136 153/160/153 137/144/137
f 123/130/123 154/161/154 136/143/136
f 122/129/122 152/159/152 154/161/154
f 154/161/154 149/156/149 153/160/153
f 155/162/155 156/163/156 157/164/157
f 158/165/158 159/166/159 156/163/156
f 156/163/156 160/167/160 161/168/161
f 157/164/157 161/168/161 162/169/162
f 163/170/163 159/166/159 164/171/164
f 165/172/165 166/173/166 163/170/163
f 167/174/167 168/175/168 166/173/166
f 166/173/166 160/167/160 159/166/159
f 161/168/161 169/176/169 162/169/162
f 160/167/160 170/177/170 161/168/161
f 171/178/171 172/179/172 170/177/170
f 170/177/170 173/180/173 169/176/169
f 160/167/160 174/181/174 171/178/171
f 168/175/168 175/182/175 174/181/174
f 174/181/174 176/183/176 177/184/177
f 171/178/171 177/184/177 178/185/178
f 37/39/37 179/186/179 34/36/34
f 59/62/59 180/187/180 179/186/179
f 179/186/179 155/162/155 181/188/181
f 34/36/34 181/188/181 32/34/32
f 62/65/62 182/189/182 180/187/180
f 81/84/81 183/190/183 182/189/182
f 182/189/182 164/171/164 158/165/158
f 180/187/180 158/165/158 155/162/155
f 79/82/79 183/190/183 77/80/77
f 71/74/71 184/191/184 79/82/79
f 185/192/185 163/170/163 184/191/184
f 184/191/184 164/171/164 183/190/183
f 73/76/73 185/192/185 71/74/71
f 76/79/76 186/193/186 73/76/73
f 98/101/98 187/194/187 186/193/186
f 186/193/186 165/172/165 185/192/185
f 187/194/187 167/174/167 165/172/165
f 101/195/101 188/196/188 187/194/187
f 119/126/119 189/197/189 188/196/188
f 188/196/188 190/198/190 167/174/167
f 190/198/190 191/199/191 175/182/175
f 189/197/189 117/124/117 191/199/191
f 191/199/191 109/116/109 192/200/192
f 175/182/175 192/200/192 176/183/176
f 176/183/176 193/201/193 194/202/194
f 192/200/192 111/118/111 193/201/193
f 193/201/193 114/121/114 134/141/134
f 194/202/194 134/141/134 137/144/137
f 178/185/178 195/203/195 196/204/196
f 177/184/177 194/202/194 195/203/195
f 195/203/195 137/144/137 153/160/153
f 196/204/196 153/160/153 149/156/149
f 172/179/172 197/205/197 173/180/173
f 178/185/178 198/206/198 172/179/172
f 196/204/196 151/158/151 198/206/198
f 198/206/198 145/152/145 197/205/197
f 199/207/199 17/19/17 21/23/21
f 173/180/173 200/208/200 199/207/199
f 197/205/197 147/154/147 200/208/200
f 200/208/200 15/17/15 17/19/17
f 201/209/201 42/45/42 38/40/38
f 162/169/162 202/210/202 201/209/201
f 169/176/169 199/207/199 202/210/202
f 202/210/202 21/23/21 42/45/42
f 32/34/32 203/211/203 40/42/40
f 181/188/181 157/164/157 203/211/203
f 203/211/203 162/169/162 201/209/201
f 40/42/40 201/209/201 38/40/38
f 130/137/130 204/212/204 205/213/205
f 206/214/206 207/215/207 130/137/130
f 208/216/208 209/217/209 207/215/207
f 207/215/207 210/218/210 204/212/204
f 206/214/206 211/219/211 208/216/208
f 124/131/124 212/220/212 211/219/211
f 211/219/211 213/221/213 214/222/214
f 208/223/208 214/224/214 215/225/215
f 209/226/209 216/227/216 210/228/210
f 215/225/215 217/229/217 209/226/209
f 218/230/218 219/231/219 217/229/217
f 217/229/217 220/232/220 216/227/216
f 215/225/215 221/233/221 218/230/218
f 214/224/214 222/234/222 221/233/221
f 221/233/221 223/235/223 224/236/224
f 218/230/218 224/236/224 225/237/225
f 220/232/220 226/238/226 227/239/227
f 225/237/225 226/238/226 219/231/219
f 226/238/226 228/240/228 229/241/229
f 227/239/227 229/241/229 230/242/230
f 225/237/225 231/243/231 232/244/232
f 223/235/223 231/243/231 224/236/224
f 233/245/233 234/246/234 231/243/231
f 231/243/231 228/240/228 232/244/232
f 230/242/230 235/247/235 236/248/236
f 229/241/229 237/249/237 235/247/235
f 235/247/235 238/250/238 239/251/239
f 236/248/236 239/251/239 240/252/240
f 234/246/234 237/249/237 228/240/228
f 241/253/241 242/254/242 234/246/234
f 243/255/243 244/256/244 242/254/242
f 242/254/242 238/250/238 237/249/237
f 245/257/245 246/258/246 247/259/247
f 245/260/245 248/261/248 249/262/249
f 248/261/248 244/256/244 249/262/249
f 249/262/249 250/263/250 246/264/246
f 251/265/251 248/261/248 252/266/252
f 251/265/251 253/267/253 254/268/254
f 254/268/254 240/252/240 239/251/239
f 248/261/248 239/251/239 238/250/238
f 255/269/255 256/270/256 257/271/257
f 258/272/258 259/273/259 256/274/256
f 256/274/256 260/275/260 261/276/261
f 257/271/257 261/277/261 262/278/262
f 263/279/263 264/280/264 265/281/265
f 255/269/255 266/282/266 263/279/263
f 257/271/257 267/283/267 266/282/266
f 266/282/266 268/284/268 264/280/264
f 269/285/269 270/286/270 253/287/253
f 265/281/265 270/286/270 271/288/271
f 264/280/264 272/289/272 270/286/270
f 253/267/253 272/290/272 240/252/240
f 273/291/273 274/292/274 259/273/259
f 247/259/247 274/292/274 275/293/275
f 246/258/246 276/294/276 274/292/274
f 259/273/259 276/294/276 260/275/260
f 277/295/277 278/296/278 279/297/279
f 280/298/280 281/299/281 278/296/278
f 282/300/282 283/301/283 280/298/280
f 284/302/284 280/298/280 277/295/277
f 284/302/284 285/303/285 282/300/282
f 282/300/282 286/304/286 287/305/287
f 285/303/285 288/306/288 286/304/286
f 289/307/289 290/308/290 285/303/285
f 291/309/291 292/310/292 293/311/293
f 293/311/293 294/312/294 295/313/295
f 296/314/296 294/312/294 292/310/292
f 297/315/297 292/310/292 298/316/298
f 295/313/295 299/317/299 300/318/300
f 299/317/299 301/319/301 300/318/300
f 278/296/278 302/320/302 299/317/299
f 279/297/279 299/317/299 294/312/294
f 303/321/303 304/322/304 290/308/290
f 290/308/290 305/323/305 288/306/288
f 304/322/304 306/324/306 305/323/305
f 307/325/307 304/322/304 308/326/308
f 309/327/309 310/328/310 311/329/311
f 311/329/311 308/326/308 303/321/303
f 312/330/312 308/326/308 310/328/310
f 313/331/313 310/328/310 314/332/314
f 315/333/315 316/334/316 317/335/317
f 317/335/317 289/307/289 284/302/284
f 316/334/316 303/321/303 289/307/289
f 318/336/318 311/329/311 316/334/316
f 319/337/319 296/314/296 297/315/297
f 320/338/320 279/297/279 296/314/296
f 317/335/317 277/295/277 320/338/320
f 315/333/315 320/338/320 319/337/319
f 321/339/321 322/340/322 323/341/323
f 324/342/324 325/343/325 322/340/322
f 326/344/326 327/345/327 324/342/324
f 328/346/328 324/342/324 321/339/321
f 328/346/328 329/347/329 326/344/326
f 326/344/326 330/348/330 331/349/331
f 329/347/329 332/350/332 330/348/330
f 333/351/333 334/352/334 329/347/329
f 313/331/313 335/353/335 312/330/312
f 312/330/312 336/354/336 307/325/307
f 337/355/337 336/354/336 335/353/335
f 338/356/338 335/353/335 339/357/339
f 307/325/307 340/358/340 341/359/341
f 340/358/340 306/324/306 341/359/341
f 322/340/322 342/360/342 340/358/340
f 323/341/323 340/358/340 336/354/336
f 343/361/343 344/362/344 334/352/334
f 334/352/334 345/363/345 332/350/332
f 344/362/344 346/364/346 345/363/345
f 347/365/347 344/362/344 348/366/348
f 349/367/349 350/368/350 351/369/351
f 351/369/351 348/366/348 343/361/343
f 352/370/352 348/366/348 350/368/350
f 353/371/353 350/368/350 354/372/354
f 355/373/355 356/374/356 357/375/357
f 357/375/357 333/351/333 328/346/328
f 356/374/356 343/361/343 333/351/333
f 358/376/358 351/369/351 356/374/356
f 359/377/359 337/355/337 338/356/338
f 360/378/360 323/341/323 337/355/337
f 357/375/357 321/339/321 360/378/360
f 355/373/355 360/378/360 359/377/359
f 361/379/361 362/380/362 363/381/363
f 364/382/364 365/383/365 362/380/362
f 366/384/366 367/385/367 364/382/364
f 368/386/368 364/382/364 361/379/361
f 368/386/368 369/387/369 366/384/366
f 366/384/366 370/388/370 371/389/371
f 369/387/369 372/390/372 370/388/370
f 373/391/373 374/392/374 369/387/369
f 353/371/353 375/393/375 352/370/352
f 352/370/352 376/394/376 347/365/347
f 377/395/377 376/394/376 375/393/375
f 378/396/378 375/393/375 379/397/379
f 347/365/347 380/398/380 381/399/381
f 380/398/380 346/364/346 381/399/381
f 362/380/362 382/400/382 380/398/380
f 363/381/363 380/398/380 376/394/376
f 383/401/383 384/402/384 374/392/374
f 374/392/374 385/403/385 372/390/372
f 384/402/384 386/404/386 385/403/385
f 387/405/387 384/402/384 388/406/388
f 389/407/389 390/408/390 391/409/391
f 391/409/391 388/406/388 383/401/383
f 392/410/392 388/406/388 390/408/390
f 393/411/393 390/408/390 394/412/394
f 395/413/395 396/414/396 397/415/397
f 397/415/397 373/391/373 368/386/368
f 396/414/396 383/401/383 373/391/373
f 398/416/398 391/409/391 396/414/396
f 399/417/399 377/395/377 378/396/378
f 400/418/400 363/381/363 377/395/377
f 397/415/397 361/379/361 400/418/400
f 395/413/395 400/418/400 399/417/399
f 401/419/401 402/420/402 403/421/403
f 402/420/402 404/422/404 405/423/405
f 406/424/406 404/422/404 407/425/407
f 408/426/408 407/425/407 401/419/401
f 408/426/408 409/427/409 406/424/406
f 406/424/406 410/428/410 411/429/411
f 412/430/412 410/428/410 409/427/409
f 413/431/413 412/430/412 409/427/409
f 393/411/393 414/432/414 392/410/392
f 392/410/392 415/433/415 387/405/387
f 416/434/416 415/433/415 414/432/414
f 417/435/417 414/432/414 418/436/418
f 415/433/415 419/437/419 387/405/387
f 420/438/420 386/404/386 419/437/419
f 402/420/402 421/439/421 420/438/420
f 403/421/403 420/438/420 415/433/415
f 422/440/422 423/441/423 412/430/412
f 412/430/412 424/442/424 425/443/425
f 423/441/423 301/319/301 424/442/424
f 426/444/426 300/318/300 423/441/423
f 427/445/427 428/446/428 429/447/429
f 429/447/429 426/444/426 422/440/422
f 293/311/293 426/444/426 428/446/428
f 291/309/291 428/446/428 430/448/430
f 431/449/431 432/450/432 433/451/433
f 433/451/433 413/431/413 408/426/408
f 432/450/432 422/440/422 413/431/413
f 434/452/434 429/447/429 432/450/432
f 435/453/435 416/434/416 417/435/417
f 436/454/436 403/421/403 416/434/416
f 433/451/433 401/419/401 436/454/436
f 431/449/431 436/454/436 435/453/435
f 437/455/437 438/456/438 439/457/439
f 439/457/439 440/458/440 441/459/441
f 438/456/438 442/460/442 440/458/440
f 443/461/443 444/462/444 438/456/438
f 440/458/440 445/463/445 441/459/441
f 446/464/446 447/465/447 445/463/445
f 448/466/448 449/467/449 446/464/446
f 442/460/442 446/464/446 440/458/440
f 450/468/450 444/462/444 451/469/451
f 452/470/452 442/460/442 444/462/444
f 453/471/453 454/472/454 452/470/452
f 455/473/455 452/470/452 450/468/450
f 442/460/442 456/474/456 448/466/448
f 448/466/448 457/475/457 458/476/458
f 456/474/456 459/477/459 457/475/457
f 454/472/454 460/478/460 456/474/456
f 313/331/313 461/479/461 339/357/339
f 339/357/339 462/480/462 338/356/338
f 461/479/461 437/455/437 462/480/462
f 314/332/314 463/481/463 461/479/461
f 338/356/338 464/482/464 359/377/359
f 359/377/359 465/483/465 355/373/355
f 464/482/464 441/459/441 465/483/465
f 462/480/462 439/457/439 464/482/464
f 465/483/465 358/376/358 355/373/355
f 466/484/466 349/367/349 358/376/358
f 445/463/445 467/485/467 466/484/466
f 441/459/441 466/484/466 465/483/465
f 467/485/467 354/372/354 349/367/349
f 468/486/468 353/371/353 354/372/354
f 469/487/469 379/397/379 468/486/468
f 447/465/447 468/486/468 467/485/467
f 449/467/449 469/487/469 447/465/447
f 470/488/470 378/396/378 469/487/469
f 471/489/471 399/417/399 470/488/470
f 458/476/458 470/488/470 449/467/449
f 458/476/458 472/490/472 471/489/471
f 471/489/471 398/416/398 395/413/395
f 472/490/472 389/407/389 398/416/398
f 457/475/457 473/491/473 472/490/472
f 459/477/459 474/492/474 473/491/473
f 473/491/473 394/412/394 389/407/389
f 474/492/474 393/411/393 394/412/394
f 475/493/475 418/436/418 474/492/474
f 476/494/476 477/495/477 460/478/460
f 460/478/460 475/493/475 459/477/459
f 477/495/477 417/435/417 475/493/475
f 478/496/478 435/453/435 477/495/477
f 479/497/479 453/471/453 455/473/455
f 480/498/480 476/494/476 453/471/453
f 434/452/434 478/496/478 480/498/480
f 427/445/427 480/498/480 479/497/479
f 298/316/298 481/499/481 297/315/297
f 482/500/482 455/473/455 481/499/481
f 430/448/430 479/497/479 482/500/482
f 291/309/291 482/500/482 298/316/298
f 319/337/319 483/501/483 315/333/315
f 484/502/484 451/469/451 483/501/483
f 481/499/481 450/468/450 484/502/484
f 297/315/297 484/502/484 319/337/319
f 309/327/309 485/503/485 463/481/463
f 463/481/463 443/461/443 437/455/437
f 485/503/485 451/469/451 443/461/443
f 318/336/318 483/501/483 485/503/485
f 486/504/486 410/428/410 425/443/425
f 487/505/487 411/429/411 410/428/410
f 488/506/488 489/507/489 487/505/487
f 490/508/490 487/505/487 486/504/486
f 411/429/411 491/509/491 404/422/404
f 404/422/404 492/510/492 405/423/405
f 491/509/491 493/511/493 492/510/492
f 489/507/489 494/512/494 491/509/491
f 495/513/495 488/506/488 490/508/490
f 496/514/496 497/515/497 488/506/488
f 498/516/498 499/517/499 496/514/496
f 500/518/500 496/514/496 495/513/495
f 497/515/497 501/519/501 494/512/494
f 494/512/494 502/520/502 493/511/493
f 501/519/501 503/521/503 502/520/502
f 499/517/499 504/522/504 501/519/501
f 500/518/500 505/523/505 498/516/498
f 498/516/498 506/524/506 507/525/507
f 505/523/505 508/526/508 506/524/506
f 509/527/509 510/528/510 505/523/505
f 506/524/506 504/522/504 507/525/507
f 511/529/511 503/521/503 504/522/504
f 512/530/512 513/531/513 511/529/511
f 508/526/508 511/529/511 506/524/506
f 514/532/514 515/533/515 510/528/510
f 510/528/510 516/534/516 508/526/508
f 515/533/515 517/535/517 516/534/516
f 518/536/518 519/537/519 515/533/515
f 516/534/516 512/530/512 508/526/508
f 520/538/520 521/539/521 512/530/512
f 522/540/522 523/541/523 520/538/520
f 517/535/517 520/538/520 516/534/516
f 524/542/524 525/543/525 526/544/526
f 525/545/525 527/546/527 528/547/528
f 522/540/522 527/546/527 529/548/529
f 530/549/530 529/548/529 524/550/524
f 527/546/527 531/551/531 528/547/528
f 531/552/531 532/553/532 533/554/533
f 534/555/534 535/556/535 532/557/532
f 527/546/527 519/537/519 534/555/534
f 536/558/536 537/559/537 538/560/538
f 538/561/538 539/562/539 540/563/540
f 537/564/537 541/565/541 539/562/539
f 542/566/542 543/567/543 537/559/537
f 544/568/544 545/569/545 546/570/546
f 547/571/547 536/558/536 545/569/545
f 548/572/548 542/566/542 547/571/547
f 549/573/549 547/571/547 544/568/544
f 533/554/533 550/574/550 551/575/551
f 550/576/550 546/570/546 551/577/551
f 550/576/550 549/573/549 544/568/544
f 532/553/532 552/578/552 550/574/550
f 540/563/540 553/579/553 554/580/554
f 553/579/553 526/544/526 554/580/554
f 555/581/555 524/542/524 553/579/553
f 541/565/541 553/579/553 539/562/539
f 6/582/556 281/299/557 283/301/558
f 6/582/556 287/305/559 556/583/559
f 11/584/560 287/305/559 286/304/561
f 11/584/560 288/306/562 12/585/563
f 25/586/564 301/319/565 302/320/564
f 4/587/566 302/320/564 281/299/557
f 27/588/567 306/324/568 29/589/569
f 12/585/563 305/323/570 27/588/567
f 49/590/571 325/343/572 327/345/573
f 49/590/571 331/349/574 557/591/574
f 54/592/575 331/349/574 330/348/575
f 54/592/575 332/350/576 55/593/577
f 64/594/578 306/324/568 342/360/579
f 47/595/580 342/360/579 325/343/572
f 66/596/581 346/364/582 68/597/583
f 55/593/577 345/363/584 66/596/581
f 88/598/585 365/383/586 367/385/587
f 88/598/585 371/389/588 558/599/589
f 93/600/590 371/389/588 370/388/590
f 93/600/590 372/390/591 94/601/592
f 103/602/593 346/364/582 382/400/594
f 86/603/595 382/400/594 365/383/586
f 105/604/596 386/404/597 138/605/598
f 94/601/592 385/403/596 105/604/596
f 138/605/598 421/439/599 140/606/600
f 140/606/600 405/423/601 559/607/602
f 144/608/603 424/442/604 301/319/565
f 143/609/605 425/443/606 424/442/604
f 204/610/607 490/508/608 486/504/609
f 205/611/610 486/504/609 425/443/606
f 559/607/602 492/510/611 212/612/612
f 212/612/612 493/511/613 213/613/614
f 216/227/615 500/518/616 495/513/617
f 210/228/618 495/513/617 490/508/608
f 213/613/614 502/520/619 222/614/620
f 222/614/620 503/521/621 223/615/622
f 227/239/623 514/532/624 509/527/625
f 220/232/626 509/527/625 500/518/616
f 223/615/622 513/531/627 233/616/628
f 233/616/628 521/539/629 241/617/630
f 236/248/631 535/556/632 518/536/633
f 230/242/634 518/536/633 514/532/624
f 241/617/630 523/541/635 243/618/636
f 243/619/636 530/549/637 250/620/638
f 273/291/639 538/561/640 540/563/641
f 258/621/642 536/622/643 538/623/640
f 263/279/644 536/622/643 255/269/645
f 265/281/646 545/624/647 263/279/644
f 271/288/648 546/625/649 265/281/646
f 269/285/650 551/575/651 271/288/648
f 247/259/652 554/580/653 526/544/654
f 275/293/655 540/563/641 554/580/653
f 245/257/656 526/544/654 525/543/657
f 252/626/658 525/543/659 528/627/660
f 252/626/658 531/552/661 251/628/662
f 251/628/663 533/554/664 269/285/650
f 260/629/665 543/630/666 261/631/667
f 261/632/667 560/633/668 262/634/669
f 267/635/670 560/633/668 548/572/671
f 268/284/672 548/572/671 549/573/673
f 272/289/674 549/573/673 552/636/675
f 240/252/676 552/637/675 535/556/632
f 250/638/638 555/639/677 276/640/678
f 276/641/678 541/565/679 260/629/665
f 1/1/1 5/5/5 2/2/2
f 4/4/4 6/6/6 5/5/5
f 6/6/6 556/642/680 7/7/7
f 5/5/5 7/7/7 8/8/8
f 8/8/8 7/7/7 9/9/9
f 7/7/7 556/642/680 11/11/11
f 9/12/9 11/643/11 12/13/12
f 10/15/10 9/12/9 13/14/13
f 15/17/15 18/20/18 16/18/16
f 18/20/18 22/24/22 19/21/19
f 19/21/19 3/3/3 20/22/20
f 16/18/16 20/22/20 21/23/21
f 22/24/22 24/26/24 23/25/23
f 24/26/24 144/151/144 25/27/25
f 25/27/25 4/4/4 1/1/1
f 19/21/19 23/25/23 1/1/1
f 13/14/13 28/30/28 26/28/26
f 13/14/13 12/13/12 27/29/27
f 28/30/28 27/29/27 29/31/29
f 28/30/28 30/32/30 31/33/31
f 32/34/32 35/37/35 33/35/33
f 35/37/35 14/16/14 26/28/26
f 26/28/26 31/33/31 36/38/36
f 33/35/33 36/38/36 37/39/37
f 38/40/38 41/43/41 39/41/39
f 41/43/41 8/8/8 10/10/10
f 39/44/39 10/15/10 14/16/14
f 40/42/40 39/44/39 35/37/35
f 20/22/20 43/46/43 42/45/42
f 3/3/3 2/2/2 43/46/43
f 2/2/2 8/8/8 41/43/41
f 43/46/43 41/43/41 38/40/38
f 44/47/44 48/51/48 45/48/45
f 47/50/47 49/52/49 48/51/48
f 49/52/49 557/644/681 50/53/50
f 48/51/48 50/53/50 51/54/51
f 51/54/51 50/53/50 52/55/52
f 50/53/50 557/644/681 54/57/54
f 52/55/52 54/57/54 55/58/55
f 53/56/53 52/55/52 56/59/56
f 37/39/37 36/38/36 58/61/58
f 36/38/36 31/33/31 60/63/60
f 60/63/60 46/49/46 61/64/61
f 58/61/58 61/64/61 62/65/62
f 31/33/31 30/32/30 63/66/63
f 29/31/29 64/67/64 63/66/63
f 64/67/64 47/50/47 44/47/44
f 60/63/60 63/66/63 44/47/44
f 56/59/56 67/70/67 65/68/65
f 56/59/56 55/58/55 66/69/66
f 67/70/67 66/69/66 68/71/68
f 67/70/67 69/72/69 70/73/70
f 71/74/71 74/77/74 72/75/72
f 74/77/74 57/60/57 65/68/65
f 65/68/65 70/73/70 75/78/75
f 72/75/72 75/78/75 76/79/76
f 77/80/77 80/83/80 78/81/78
f 80/83/80 51/54/51 53/56/53
f 78/81/78 53/56/53 57/60/57
f 79/82/79 78/81/78 74/77/74
f 61/64/61 82/85/82 81/84/81
f 46/49/46 45/48/45 82/85/82
f 45/48/45 51/54/51 80/83/80
f 82/85/82 80/83/80 77/80/77
f 83/86/83 87/90/87 84/87/84
f 86/89/86 88/91/88 87/90/87
f 88/91/88 558/645/682 89/92/89
f 87/90/87 89/92/89 90/93/90
f 90/93/90 89/92/89 91/94/91
f 89/92/89 558/645/682 93/96/93
f 91/94/91 93/96/93 94/97/94
f 92/95/92 91/94/91 95/98/95
f 76/79/76 75/78/75 97/100/97
f 75/78/75 70/73/70 99/102/99
f 99/103/99 85/88/85 100/104/100
f 97/105/97 100/104/100 101/106/101
f 70/73/70 69/72/69 102/108/102
f 68/71/68 103/646/103 102/108/102
f 103/109/103 86/89/86 83/86/83
f 99/103/99 102/110/102 83/86/83
f 95/98/95 106/113/106 104/111/104
f 95/98/95 94/97/94 105/112/105
f 105/112/105 138/145/138 107/114/107
f 106/113/106 107/114/107 108/115/108
f 109/116/109 112/119/112 110/117/110
f 112/119/112 96/99/96 104/111/104
f 104/111/104 108/115/108 113/120/113
f 110/117/110 113/120/113 114/121/114
f 115/122/115 118/125/118 116/123/116
f 118/125/118 90/93/90 92/95/92
f 116/123/116 92/95/92 96/99/96
f 117/124/117 116/123/116 112/119/112
f 100/104/100 120/127/120 119/126/119
f 85/88/85 84/87/84 120/127/120
f 84/87/84 90/93/90 118/125/118
f 120/127/120 118/125/118 115/122/115
f 121/128/121 125/132/125 122/129/122
f 121/128/121 559/647/683 124/131/124
f 124/131/124 206/214/206 126/133/126
f 125/132/125 126/133/126 127/134/127
f 127/134/127 126/133/126 128/135/128
f 126/133/126 206/214/206 130/137/130
f 130/137/130 205/213/205 131/138/131
f 129/136/129 128/135/128 131/138/131
f 114/121/114 113/120/113 133/140/133
f 113/120/113 108/115/108 135/142/135
f 135/142/135 123/130/123 136/143/136
f 133/140/133 136/143/136 137/144/137
f 107/114/107 139/146/139 135/142/135
f 138/145/138 140/147/140 139/146/139
f 140/147/140 559/647/683 121/128/121
f 139/146/139 121/128/121 123/130/123
f 132/139/132 131/138/131 141/148/141
f 131/138/131 205/213/205 143/150/143
f 141/148/141 143/150/143 144/151/144
f 142/149/142 141/148/141 24/26/24
f 145/152/145 148/155/148 146/153/146
f 148/155/148 132/139/132 142/149/142
f 142/149/142 22/24/22 18/20/18
f 146/153/146 18/20/18 15/17/15
f 149/156/149 152/159/152 150/157/150
f 152/159/152 127/134/127 129/136/129
f 150/157/150 129/136/129 132/139/132
f 151/158/151 150/157/150 148/155/148
f 136/143/136 154/161/154 153/160/153
f 123/130/123 122/129/122 154/161/154
f 122/129/122 127/134/127 152/159/152
f 154/161/154 152/159/152 149/156/149
f 155/162/155 158/165/158 156/163/156
f 158/165/158 164/171/164 159/166/159
f 156/163/156 159/166/159 160/167/160
f 157/164/157 156/163/156 161/168/161
f 163/170/163 166/173/166 159/166/159
f 165/172/165 167/174/167 166/173/166
f 167/174/167 190/198/190 168/175/168
f 166/173/166 168/175/168 160/167/160
f 161/168/161 170/177/170 169/176/169
f 160/167/160 171/178/171 170/177/170
f 171/178/171 178/185/178 172/179/172
f 170/177/170 172/179/172 173/180/173
f 160/167/160 168/175/168 174/181/174
f 168/175/168 190/198/190 175/182/175
f 174/181/174 175/182/175 176/183/176
f 171/178/171 174/181/174 177/184/177
f 37/39/37 59/62/59 179/186/179
f 59/62/59 62/65/62 180/187/180
f 179/186/179 180/187/180 155/162/155
f 34/36/34 179/186/179 181/188/181
f 62/65/62 81/84/81 182/189/182
f 81/84/81 77/80/77 183/190/183
f 182/189/182 183/190/183 164/171/164
f 180/187/180 182/189/182 158/165/158
f 79/82/79 184/191/184 183/190/183
f 71/74/71 185/192/185 184/191/184
f 185/192/185 165/172/165 163/170/163
f 184/191/184 163/170/163 164/171/164
f 73/76/73 186/193/186 185/192/185
f 76/79/76 98/101/98 186/193/186
f 98/101/98 101/195/101 187/194/187
f 186/193/186 187/194/187 165/172/165
f 187/194/187 188/196/188 167/174/167
f 101/195/101 119/126/119 188/196/188
f 119/126/119 115/122/115 189/197/189
f 188/196/188 189/197/189 190/198/190
f 190/198/190 189/197/189 191/199/191
f 189/197/189 115/122/115 117/124/117
f 191/199/191 117/124/117 109/116/109
f 175/182/175 191/199/191 192/200/192
f 176/183/176 192/200/192 193/201/193
f 192/200/192 109/116/109 111/118/111
f 193/201/193 111/118/111 114/121/114
f 194/202/194 193/201/193 134/141/134
f 178/185/178 177/184/177 195/203/195
f 177/184/177 176/183/176 194/202/194
f 195/203/195 194/202/194 137/144/137
f 196/204/196 195/203/195 153/160/153
f 172/179/172 198/206/198 197/205/197
f 178/185/178 196/204/196 198/206/198
f 196/204/196 149/156/149 151/158/151
f 198/206/198 151/158/151 145/152/145
f 199/207/199 200/208/200 17/19/17
f 173/180/173 197/205/197 200/208/200
f 197/205/197 145/152/145 147/154/147
f 200/208/200 147/154/147 15/17/15
f 201/209/201 202/210/202 42/45/42
f 162/169/162 169/176/169 202/210/202
f 169/176/169 173/180/173 199/207/199
f 202/210/202 199/207/199 21/23/21
f 32/34/32 181/188/181 203/211/203
f 181/188/181 155/162/155 157/164/157
f 203/211/203 157/164/157 162/169/162
f 40/42/40 203/211/203 201/209/201
f 130/137/130 207/215/207 204/212/204
f 206/214/206 208/216/208 207/215/207
f 208/223/208 215/225/215 209/226/209
f 207/215/207 209/217/209 210/218/210
f 206/214/206 124/131/124 211/219/211
f 124/131/124 559/647/683 212/220/212
f 211/219/211 212/220/212 213/221/213
f 208/216/208 211/219/211 214/222/214
f 209/226/209 217/229/217 216/227/216
f 215/225/215 218/230/218 217/229/217
f 218/230/218 225/237/225 219/231/219
f 217/229/217 219/231/219 220/232/220
f 215/225/215 214/224/214 221/233/221
f 214/224/214 213/648/213 222/234/222
f 221/233/221 222/234/222 223/235/223
f 218/230/218 221/233/221 224/236/224
f 220/232/220 219/231/219 226/238/226
f 225/237/225 232/244/232 226/238/226
f 226/238/226 232/244/232 228/240/228
f 227/239/227 226/238/226 229/241/229
f 225/237/225 224/236/224 231/243/231
f 223/235/223 233/245/233 231/243/231
f 233/245/233 241/253/241 234/246/234
f 231/243/231 234/246/234 228/240/228
f 230/242/230 229/241/229 235/247/235
f 229/241/229 228/240/228 237/249/237
f 235/247/235 237/249/237 238/250/238
f 236/248/236 235/247/235 239/251/239
f 234/246/234 242/254/242 237/249/237
f 241/253/241 243/255/243 242/254/242
f 243/255/243 250/263/250 244/256/244
f 242/254/242 244/256/244 238/250/238
f 245/260/245 249/262/249 246/264/246
f 245/260/245 252/266/252 248/261/248
f 248/261/248 238/250/238 244/256/244
f 249/262/249 244/256/244 250/263/250
f 251/265/251 254/268/254 248/261/248
f 251/628/251 269/285/269 253/287/253
f 254/268/254 253/267/253 240/252/240
f 248/261/248 254/268/254 239/251/239
f 255/269/255 258/621/258 256/270/256
f 258/272/258 273/291/273 259/273/259
f 256/274/256 259/273/259 260/275/260
f 257/271/257 256/270/256 261/277/261
f 263/279/263 266/282/266 264/280/264
f 255/269/255 257/271/257 266/282/266
f 257/271/257 262/278/262 267/283/267
f 266/282/266 267/283/267 268/284/268
f 269/285/269 271/288/271 270/286/270
f 265/281/265 264/280/264 270/286/270
f 264/280/264 268/284/268 272/289/272
f 253/287/253 270/286/270 272/289/272
f 273/291/273 275/293/275 274/292/274
f 247/259/247 246/258/246 274/292/274
f 246/264/246 250/263/250 276/649/276
f 259/273/259 274/292/274 276/294/276
f 277/295/277 280/298/280 278/296/278
f 280/298/280 283/301/283 281/299/281
f 282/300/282 287/305/287 283/301/283
f 284/302/284 282/300/282 280/298/280
f 284/302/284 289/307/289 285/303/285
f 282/300/282 285/303/285 286/304/286
f 285/303/285 290/308/290 288/306/288
f 289/307/289 303/321/303 290/308/290
f 291/309/291 298/316/298 292/310/292
f 293/311/293 292/310/292 294/312/294
f 296/314/296 279/297/279 294/312/294
f 297/315/297 296/314/296 292/310/292
f 295/313/295 294/312/294 299/317/299
f 299/317/299 302/320/302 301/319/301
f 278/296/278 281/299/281 302/320/302
f 279/297/279 278/296/278 299/317/299
f 303/321/303 308/326/308 304/322/304
f 290/308/290 304/322/304 305/323/305
f 304/322/304 341/359/341 306/324/306
f 307/325/307 341/359/341 304/322/304
f 309/327/309 314/332/314 310/328/310
f 311/329/311 310/328/310 308/326/308
f 312/330/312 307/325/307 308/326/308
f 313/331/313 312/330/312 310/328/310
f 315/333/315 318/336/318 316/334/316
f 317/335/317 316/334/316 289/307/289
f 316/334/316 311/329/311 303/321/303
f 318/336/318 309/327/309 311/329/311
f 319/337/319 320/338/320 296/314/296
f 320/338/320 277/295/277 279/297/279
f 317/335/317 284/302/284 277/295/277
f 315/333/315 317/335/317 320/338/320
f 321/339/321 324/342/324 322/340/322
f 324/342/324 327/345/327 325/343/325
f 326/344/326 331/349/331 327/345/327
f 328/346/328 326/344/326 324/342/324
f 328/346/328 333/351/333 329/347/329
f 326/344/326 329/347/329 330/348/330
f 329/347/329 334/352/334 332/350/332
f 333/351/333 343/361/343 334/352/334
f 313/331/313 339/357/339 335/353/335
f 312/330/312 335/353/335 336/354/336
f 337/355/337 323/341/323 336/354/336
f 338/356/338 337/355/337 335/353/335
f 307/325/307 336/354/336 340/358/340
f 340/358/340 342/360/342 306/324/306
f 322/340/322 325/343/325 342/360/342
f 323/341/323 322/340/322 340/358/340
f 343/361/343 348/366/348 344/362/344
f 334/352/334 344/362/344 345/363/345
f 344/362/344 381/399/381 346/364/346
f 347/365/347 381/399/381 344/362/344
f 349/367/349 354/372/354 350/368/350
f 351/369/351 350/368/350 348/366/348
f 352/370/352 347/365/347 348/366/348
f 353/371/353 352/370/352 350/368/350
f 355/373/355 358/376/358 356/374/356
f 357/375/357 356/374/356 333/351/333
f 356/374/356 351/369/351 343/361/343
f 358/376/358 349/367/349 351/369/351
f 359/377/359 360/378/360 337/355/337
f 360/378/360 321/339/321 323/341/323
f 357/375/357 328/346/328 321/339/321
f 355/373/355 357/375/357 360/378/360
f 361/379/361 364/382/364 362/380/362
f 364/382/364 367/385/367 365/383/365
f 366/384/366 371/389/371 367/385/367
f 368/386/368 366/384/366 364/382/364
f 368/386/368 373/391/373 369/387/369
f 366/384/366 369/387/369 370/388/370
f 369/387/369 374/392/374 372/390/372
f 373/391/373 383/401/383 374/392/374
f 353/371/353 379/397/379 375/393/375
f 352/370/352 375/393/375 376/394/376
f 377/395/377 363/381/363 376/394/376
f 378/396/378 377/395/377 375/393/375
f 347/365/347 376/394/376 380/398/380
f 380/398/380 382/400/382 346/364/346
f 362/380/362 365/383/365 382/400/382
f 363/381/363 362/380/362 380/398/380
f 383/401/383 388/406/388 384/402/384
f 374/392/374 384/402/384 385/403/385
f 384/402/384 419/437/419 386/404/386
f 387/405/387 419/437/419 384/402/384
f 389/407/389 394/412/394 390/408/390
f 391/409/391 390/408/390 388/406/388
f 392/410/392 387/405/387 388/406/388
f 393/411/393 392/410/392 390/408/390
f 395/413/395 398/416/398 396/414/396
f 397/415/397 396/414/396 373/391/373
f 396/414/396 391/409/391 383/401/383
f 398/416/398 389/407/389 391/409/391
f 399/417/399 400/418/400 377/395/377
f 400/418/400 361/379/361 363/381/363
f 397/415/397 368/386/368 361/379/361
f 395/413/395 397/415/397 400/418/400
f 401/419/401 407/425/407 402/420/402
f 402/420/402 407/425/407 404/422/404
f 406/424/406 411/429/411 404/422/404
f 408/426/408 406/424/406 407/425/407
f 408/426/408 413/431/413 409/427/409
f 406/424/406 409/427/409 410/428/410
f 412/430/412 425/443/425 410/428/410
f 413/431/413 422/440/422 412/430/412
f 393/411/393 418/436/418 414/432/414
f 392/410/392 414/432/414 415/433/415
f 416/434/416 403/421/403 415/433/415
f 417/435/417 416/434/416 414/432/414
f 415/433/415 420/438/420 419/437/419
f 420/438/420 421/439/421 386/404/386
f 402/420/402 405/423/405 421/439/421
f 403/421/403 402/420/402 420/438/420
f 422/440/422 426/444/426 423/441/423
f 412/430/412 423/441/423 424/442/424
f 423/441/423 300/318/300 301/319/301
f 426/444/426 295/313/295 300/318/300
f 427/445/427 430/448/430 428/446/428
f 429/447/429 428/446/428 426/444/426
f 293/311/293 295/313/295 426/444/426
f 291/309/291 293/311/293 428/446/428
f 431/449/431 434/452/434 432/450/432
f 433/451/433 432/450/432 413/431/413
f 432/450/432 429/447/429 422/440/422
f 434/452/434 427/445/427 429/447/429
f 435/453/435 436/454/436 416/434/416
f 436/454/436 401/419/401 403/421/403
f 433/451/433 408/426/408 401/419/401
f 431/449/431 433/451/433 436/454/436
f 437/455/437 443/461/443 438/456/438
f 439/457/439 438/456/438 440/458/440
f 438/456/438 444/462/444 442/460/442
f 443/461/443 451/469/451 444/462/444
f 440/458/440 446/464/446 445/463/445
f 446/464/446 449/467/449 447/465/447
f 448/466/448 458/476/458 449/467/449
f 442/460/442 448/466/448 446/464/446
f 450/468/450 452/470/452 444/462/444
f 452/470/452 454/472/454 442/460/442
f 453/471/453 476/494/476 454/472/454
f 455/473/455 453/471/453 452/470/452
f 442/460/442 454/472/454 456/474/456
f 448/466/448 456/474/456 457/475/457
f 456/474/456 460/478/460 459/477/459
f 454/472/454 476/494/476 460/478/460
f 313/331/313 314/332/314 461/479/461
f 339/357/339 461/479/461 462/480/462
f 461/479/461 463/481/463 437/455/437
f 314/332/314 309/327/309 463/481/463
f 338/356/338 462/480/462 464/482/464
f 359/377/359 464/482/464 465/483/465
f 464/482/464 439/457/439 441/459/441
f 462/480/462 437/455/437 439/457/439
f 465/483/465 466/484/466 358/376/358
f 466/484/466 467/485/467 349/367/349
f 445/463/445 447/465/447 467/485/467
f 441/459/441 445/463/445 466/484/466
f 467/485/467 468/486/468 354/372/354
f 468/486/468 379/397/379 353/371/353
f 469/487/469 378/396/378 379/397/379
f 447/465/447 469/487/469 468/486/468
f 449/467/449 470/488/470 469/487/469
f 470/488/470 399/417/399 378/396/378
f 471/489/471 395/413/395 399/417/399
f 458/476/458 471/489/471 470/488/470
f 458/476/458 457/475/457 472/490/472
f 471/489/471 472/490/472 398/416/398
f 472/490/472 473/491/473 389/407/389
f 457/475/457 459/477/459 473/491/473
f 459/477/459 475/493/475 474/492/474
f 473/491/473 474/492/474 394/412/394
f 474/492/474 418/436/418 393/411/393
f 475/493/475 417/435/417 418/436/418
f 476/494/476 478/496/478 477/495/477
f 460/478/460 477/495/477 475/493/475
f 477/495/477 435/453/435 417/435/417
f 478/496/478 431/449/431 435/453/435
f 479/497/479 480/498/480 453/471/453
f 480/498/480 478/496/478 476/494/476
f 434/452/434 431/449/431 478/496/478
f 427/445/427 434/452/434 480/498/480
f 298/316/298 482/500/482 481/499/481
f 482/500/482 479/497/479 455/473/455
f 430/448/430 427/445/427 479/497/479
f 291/309/291 430/448/430 482/500/482
f 319/337/319 484/502/484 483/501/483
f 484/502/484 450/468/450 451/469/451
f 481/499/481 455/473/455 450/468/450
f 297/315/297 481/499/481 484/502/484
f 309/327/309 318/336/318 485/503/485
f 463/481/463 485/503/485 443/461/443
f 485/503/485 483/501/483 451/469/451
f 318/336/318 315/333/315 483/501/483
f 486/504/486 487/505/487 410/428/410
f 487/505/487 489/507/489 411/429/411
f 488/506/488 497/515/497 489/507/489
f 490/508/490 488/506/488 487/505/487
f 411/429/411 489/507/489 491/509/491
f 404/422/404 491/509/491 492/510/492
f 491/509/491 494/512/494 493/511/493
f 489/507/489 497/515/497 494/512/494
f 495/513/495 496/514/496 488/506/488
f 496/514/496 499/517/499 497/515/497
f 498/516/498 507/525/507 499/517/499
f 500/518/500 498/516/498 496/514/496
f 497/515/497 499/517/499 501/519/501
f 494/512/494 501/519/501 502/520/502
f 501/519/501 504/522/504 503/521/503
f 499/517/499 507/525/507 504/522/504
f 500/518/500 509/527/509 505/523/505
f 498/516/498 505/523/505 506/524/506
f 505/523/505 510/528/510 508/526/508
f 509/527/509 514/532/514 510/528/510
f 506/524/506 511/529/511 504/522/504
f 511/529/511 513/531/513 503/521/503
f 512/530/512 521/539/521 513/531/513
f 508/526/508 512/530/512 511/529/511
f 514/532/514 518/536/518 515/533/515
f 510/528/510 515/533/515 516/534/516
f 515/533/515 519/537/519 517/535/517
f 518/536/518 535/556/535 519/537/519
f 516/534/516 520/538/520 512/530/512
f 520/538/520 523/541/523 521/539/521
f 522/540/522 530/549/530 523/541/523
f 517/535/517 522/540/522 520/538/520
f 524/550/524 529/548/529 525/545/525
f 525/545/525 529/548/529 527/546/527
f 522/540/522 517/535/517 527/546/527
f 530/549/530 522/540/522 529/548/529
f 527/546/527 534/555/534 531/551/531
f 531/551/531 534/555/534 532/557/532
f 534/555/534 519/537/519 535/556/535
f 527/546/527 517/535/517 519/537/519
f 536/558/536 542/566/542 537/559/537
f 538/561/538 537/564/537 539/562/539
f 537/564/537 543/630/543 541/565/541
f 542/566/542 560/633/684 543/567/543
f 544/568/544 547/571/547 545/569/545
f 547/571/547 542/566/542 536/558/536
f 548/572/548 560/633/684 542/566/542
f 549/573/549 548/572/548 547/571/547
f 533/554/533 532/553/532 550/574/550
f 550/576/550 544/568/544 546/570/546
f 550/576/550 552/636/552 549/573/549
f 532/650/532 535/556/535 552/637/552
f 540/563/540 539/562/539 553/579/553
f 553/579/553 524/542/524 526/544/526
f 555/639/555 530/549/530 524/550/524
f 541/565/541 555/581/555 553/579/553
f 6/582/556 4/587/566 281/299/557
f 6/582/556 283/301/558 287/305/559
f 11/584/560 556/583/559 287/305/559
f 11/584/560 286/304/561 288/306/562
f 25/586/564 144/608/603 301/319/565
f 4/587/566 25/586/564 302/320/564
f 27/588/567 305/323/570 306/324/568
f 12/585/563 288/306/562 305/323/570
f 49/590/571 47/595/580 325/343/572
f 49/590/571 327/345/573 331/349/574
f 54/592/575 557/591/574 331/349/574
f 54/592/575 330/348/575 332/350/576
f 64/594/578 29/589/569 306/324/568
f 47/595/580 64/594/578 342/360/579
f 66/596/581 345/363/584 346/364/582
f 55/593/577 332/350/576 345/363/584
f 88/598/585 86/603/595 365/383/586
f 88/598/585 367/385/587 371/389/588
f 93/600/590 558/599/589 371/389/588
f 93/600/590 370/388/590 372/390/591
f 103/602/593 68/597/583 346/364/582
f 86/603/595 103/602/593 382/400/594
f 105/604/596 385/403/596 386/404/597
f 94/601/592 372/390/591 385/403/596
f 138/605/598 386/404/597 421/439/599
f 140/606/600 421/439/599 405/423/601
f 144/608/603 143/609/605 424/442/604
f 143/609/605 205/611/610 425/443/606
f 204/610/607 210/228/618 490/508/608
f 205/611/610 204/610/607 486/504/609
f 559/607/602 405/423/601 492/510/611
f 212/612/612 492/510/611 493/511/613
f 216/227/615 220/232/626 500/518/616
f 210/228/618 216/227/615 495/513/617
f 213/613/614 493/511/613 502/520/619
f 222/614/620 502/520/619 503/521/621
f 227/239/623 230/242/634 514/532/624
f 220/232/626 227/239/623 509/527/625
f 223/615/622 503/521/621 513/531/627
f 233/616/628 513/531/627 521/539/629
f 236/248/631 240/252/676 535/556/632
f 230/242/634 236/248/631 518/536/633
f 241/617/630 521/539/629 523/541/635
f 243/619/636 523/541/635 530/549/637
f 273/291/639 258/272/642 538/561/640
f 258/621/642 255/269/645 536/622/643
f 263/279/644 545/624/647 536/622/643
f 265/281/646 546/625/649 545/624/647
f 271/288/648 551/575/651 546/625/649
f 269/285/650 533/554/664 551/575/651
f 247/259/652 275/293/655 554/580/653
f 275/293/655 273/291/639 540/563/641
f 245/257/656 247/259/652 526/544/654
f 252/626/658 245/257/685 525/543/659
f 252/626/658 528/627/660 531/552/661
f 251/628/663 531/552/686 533/554/664
f 260/629/665 541/565/679 543/630/666
f 261/632/667 543/567/666 560/633/668
f 267/635/670 262/634/669 560/633/668
f 268/284/672 267/283/670 548/572/671
f 272/289/674 268/284/672 549/573/673
f 240/252/676 272/290/674 552/637/675
f 250/638/638 530/549/637 555/639/677
f 276/641/678 555/581/677 541/565/679
