# Blender 4.5.4 LTS
# www.blender.org
o Plane
v 0.016701 -1.516701 -0.000000
v -0.016701 -1.516701 0.000000
v 0.016701 -1.483299 -0.000000
v -0.016701 -1.483299 0.000000
v 0.016701 -1.483299 -0.450000
v 0.016701 -1.516701 -0.450000
v -0.016701 -1.516701 -0.450000
v -0.016701 -1.483299 -0.450000
v 0.016701 -1.483299 0.450000
v 0.016701 -1.516701 0.450000
v -0.016701 -1.516701 0.450000
v -0.016701 -1.483299 0.450000
vn -1.0000 -0.0000 -0.0000
vn -0.0000 -0.0000 -1.0000
vn 1.0000 -0.0000 -0.0000
vn -0.0000 1.0000 -0.0000
vn -0.0000 -1.0000 -0.0000
vn -0.0000 -0.0000 1.0000
vt 1.000000 0.000000
vt 1.000000 1.000000
vt 0.000000 1.000000
vt 0.000000 0.000000
s 1
f 2/1/1 12/2/1 4/2/1
f 7/1/2 5/3/2 6/4/2
f 4/2/1 7/1/1 2/1/1
f 1/4/3 5/3/3 3/3/3
f 3/3/4 8/2/4 4/2/4
f 2/1/5 6/4/5 1/4/5
f 9/3/6 11/1/6 10/4/6
f 3/3/3 10/4/3 1/4/3
f 4/2/4 9/3/4 3/3/4
f 1/4/5 11/1/5 2/1/5
f 2/1/1 11/1/1 12/2/1
f 7/1/2 8/2/2 5/3/2
f 4/2/1 8/2/1 7/1/1
f 1/4/3 6/4/3 5/3/3
f 3/3/4 5/3/4 8/2/4
f 2/1/5 7/1/5 6/4/5
f 9/3/6 12/2/6 11/1/6
f 3/3/3 9/3/3 10/4/3
f 4/2/4 12/2/4 9/3/4
f 1/4/5 10/4/5 11/1/5
o Plane.001
v 0.016701 1.483299 -0.000000
v -0.016701 1.483299 0.000000
v 0.016701 1.516701 -0.000000
v -0.016701 1.516701 0.000000
v 0.016701 1.516701 -0.450000
v 0.016701 1.483299 -0.450000
v -0.016701 1.483299 -0.450000
v -0.016701 1.516701 -0.450000
v 0.016701 1.516701 0.450000
v 0.016701 1.483299 0.450000
v -0.016701 1.483299 0.450000
v -0.016701 1.516701 0.450000
vn -0.0000 1.0000 -0.0000
vn -0.0000 -0.0000 -1.0000
vn -0.0000 -1.0000 -0.0000
vn -1.0000 -0.0000 -0.0000
vn 1.0000 -0.0000 -0.0000
vn -0.0000 -0.0000 1.0000
vt 1.000000 1.000000
vt 0.000000 1.000000
vt 1.000000 0.000000
vt 0.000000 0.000000
s 1
f 16/5/7 21/6/7 15/6/7
f 19/7/8 17/6/8 18/8/8
f 15/6/7 20/5/7 16/5/7
f 14/7/9 18/8/9 13/8/9
f 16/5/10 19/7/10 14/7/10
f 13/8/11 17/6/11 15/6/11
f 21/6/12 23/7/12 22/8/12
f 13/8/9 23/7/9 14/7/9
f 14/7/10 24/5/10 16/5/10
f 15/6/11 22/8/11 13/8/11
f 16/5/7 24/5/7 21/6/7
f 19/7/8 20/5/8 17/6/8
f 15/6/7 17/6/7 20/5/7
f 14/7/9 19/7/9 18/8/9
f 16/5/10 20/5/10 19/7/10
f 13/8/11 18/8/11 17/6/11
f 21/6/12 24/5/12 23/7/12
f 13/8/9 22/8/9 23/7/9
f 14/7/10 23/7/10 24/5/10
f 15/6/11 21/6/11 22/8/11
