# Blender 4.5.4 LTS
# www.blender.org
o Cylinder
v 0.000000 0.016701 0.450000
v -0.000000 0.016701 -0.450000
v -0.003258 0.016380 0.450000
v -0.003258 0.016380 -0.450000
v -0.006391 0.015429 0.450000
v -0.006391 0.015429 -0.450000
v -0.009278 0.013886 0.450000
v -0.009278 0.013886 -0.450000
v -0.011809 0.011809 0.450000
v -0.011809 0.011809 -0.450000
v -0.013886 0.009278 0.450000
v -0.013886 0.009278 -0.450000
v -0.015429 0.006391 0.450000
v -0.015429 0.006391 -0.450000
v -0.016380 0.003258 0.450000
v -0.016380 0.003258 -0.450000
v -0.016701 0.000000 0.450000
v -0.016701 0.000000 -0.450000
v -0.016380 -0.003258 0.450000
v -0.016380 -0.003258 -0.450000
v -0.015429 -0.006391 0.450000
v -0.015429 -0.006391 -0.450000
v -0.013886 -0.009278 0.450000
v -0.013886 -0.009278 -0.450000
v -0.011809 -0.011809 0.450000
v -0.011809 -0.011809 -0.450000
v -0.009278 -0.013886 0.450000
v -0.009278 -0.013886 -0.450000
v -0.006391 -0.015429 0.450000
v -0.006391 -0.015429 -0.450000
v -0.003258 -0.016380 0.450000
v -0.003258 -0.016380 -0.450000
v 0.000000 -0.016701 0.450000
v -0.000000 -0.016701 -0.450000
v 0.003258 -0.016380 0.450000
v 0.003258 -0.016380 -0.450000
v 0.006391 -0.015429 0.450000
v 0.006391 -0.015429 -0.450000
v 0.009278 -0.013886 0.450000
v 0.009278 -0.013886 -0.450000
v 0.011809 -0.011809 0.450000
v 0.011809 -0.011809 -0.450000
v 0.013886 -0.009278 0.450000
v 0.013886 -0.009278 -0.450000
v 0.015429 -0.006391 0.450000
v 0.015429 -0.006391 -0.450000
v 0.016380 -0.003258 0.450000
v 0.016380 -0.003258 -0.450000
v 0.016701 0.000000 0.450000
v 0.016701 0.000000 -0.450000
v 0.016380 0.003258 0.450000
v 0.016380 0.003258 -0.450000
v 0.015429 0.006391 0.450000
v 0.015429 0.006391 -0.450000
v 0.013886 0.009278 0.450000
v 0.013886 0.009278 -0.450000
v 0.011809 0.011809 0.450000
v 0.011809 0.011809 -0.450000
v 0.009278 0.013886 0.450000
v 0.009278 0.013886 -0.450000
v 0.006391 0.015429 0.450000
v 0.006391 0.015429 -0.450000
v 0.003258 0.016380 0.450000
v 0.003258 0.016380 -0.450000
v 0.000000 0.013322 0.450000
v -0.000000 0.013322 -0.450000
v -0.002599 0.013066 0.450000
v -0.002599 0.013066 -0.450000
v -0.005098 0.012308 0.450000
v -0.005098 0.012308 -0.450000
v -0.007401 0.011077 0.450000
v -0.007401 0.011077 -0.450000
v -0.009420 0.009420 0.450000
v -0.009420 0.009420 -0.450000
v -0.011077 0.007401 0.450000
v -0.011077 0.007401 -0.450000
v -0.012308 0.005098 0.450000
v -0.012308 0.005098 -0.450000
v -0.013066 0.002599 0.450000
v -0.013066 0.002599 -0.450000
v -0.013322 0.000000 0.450000
v -0.013322 0.000000 -0.450000
v -0.013066 -0.002599 0.450000
v -0.013066 -0.002599 -0.450000
v -0.012308 -0.005098 0.450000
v -0.012308 -0.005098 -0.450000
v -0.011077 -0.007401 0.450000
v -0.011077 -0.007401 -0.450000
v -0.009420 -0.009420 0.450000
v -0.009420 -0.009420 -0.450000
v -0.007401 -0.011077 0.450000
v -0.007401 -0.011077 -0.450000
v -0.005098 -0.012308 0.450000
v -0.005098 -0.012308 -0.450000
v -0.002599 -0.013066 0.450000
v -0.002599 -0.013066 -0.450000
v 0.000000 -0.013322 0.450000
v -0.000000 -0.013322 -0.450000
v 0.002599 -0.013066 0.450000
v 0.002599 -0.013066 -0.450000
v 0.005098 -0.012308 0.450000
v 0.005098 -0.012308 -0.450000
v 0.007401 -0.011077 0.450000
v 0.007401 -0.011077 -0.450000
v 0.009420 -0.009420 0.450000
v 0.009420 -0.009420 -0.450000
v 0.011077 -0.007401 0.450000
v 0.011077 -0.007401 -0.450000
v 0.012308 -0.005098 0.450000
v 0.012308 -0.005098 -0.450000
v 0.013066 -0.002599 0.450000
v 0.013066 -0.002599 -0.450000
v 0.013322 0.000000 0.450000
v 0.013322 0.000000 -0.450000
v 0.013066 0.002599 0.450000
v 0.013066 0.002599 -0.450000
v 0.012308 0.005098 0.450000
v 0.012308 0.005098 -0.450000
v 0.011077 0.007401 0.450000
v 0.011077 0.007401 -0.450000
v 0.009420 0.009420 0.450000
v 0.009420 0.009420 -0.450000
v 0.007401 0.011077 0.450000
v 0.007401 0.011077 -0.450000
v 0.005098 0.012308 0.450000
v 0.005098 0.012308 -0.450000
v 0.002599 0.013066 0.450000
v 0.002599 0.013066 -0.450000
vn -0.0981 0.9952 -0.0000
vn -0.2905 0.9569 -0.0000
vn -0.4714 0.8819 -0.0000
vn -0.6344 0.7730 -0.0000
vn -0.7730 0.6344 -0.0000
vn -0.8819 0.4714 -0.0000
vn -0.9569 0.2905 -0.0000
vn -0.9952 0.0981 -0.0000
vn -0.9952 -0.0981 -0.0000
vn -0.9569 -0.2905 -0.0000
vn -0.8819 -0.4714 -0.0000
vn -0.7730 -0.6344 -0.0000
vn -0.6344 -0.7730 -0.0000
vn -0.4714 -0.8819 -0.0000
vn -0.2905 -0.9569 -0.0000
vn -0.0981 -0.9952 -0.0000
vn 0.0981 -0.9952 -0.0000
vn 0.2905 -0.9569 -0.0000
vn 0.4714 -0.8819 -0.0000
vn 0.6344 -0.7730 -0.0000
vn 0.7730 -0.6344 -0.0000
vn 0.8819 -0.4714 -0.0000
vn 0.9569 -0.2905 -0.0000
vn 0.9952 -0.0981 -0.0000
vn 0.9952 0.0981 -0.0000
vn 0.9569 0.2905 -0.0000
vn 0.8819 0.4714 -0.0000
vn 0.7730 0.6344 -0.0000
vn 0.6344 0.7730 -0.0000
vn 0.4714 0.8819 -0.0000
vn 0.2905 0.9569 -0.0000
vn 0.0981 0.9952 -0.0000
vn 0.0980 -0.9952 -0.0000
vn 0.2903 -0.9569 -0.0000
vn 0.9569 -0.2903 -0.0000
vn 0.9952 -0.0980 -0.0000
vn 0.9952 0.0980 -0.0000
vn 0.9569 0.2903 -0.0000
vn 0.2903 0.9569 -0.0000
vn 0.0980 0.9952 -0.0000
vn -0.0980 0.9952 -0.0000
vn -0.2903 0.9569 -0.0000
vn -0.9569 0.2903 -0.0000
vn -0.9952 0.0980 -0.0000
vn -0.9952 -0.0980 -0.0000
vn -0.9569 -0.2903 -0.0000
vn -0.2903 -0.9569 -0.0000
vn -0.0980 -0.9952 -0.0000
vn -0.0000 -0.0000 1.0000
vn -0.0000 -0.0000 -1.0000
vt 1.000000 1.000000
vt 0.968750 0.500000
vt 1.000000 0.500000
vt 0.968750 1.000000
vt 0.937500 0.500000
vt 0.937500 1.000000
vt 0.906250 0.500000
vt 0.906250 1.000000
vt 0.875000 0.500000
vt 0.875000 1.000000
vt 0.843750 0.500000
vt 0.843750 1.000000
vt 0.812500 0.500000
vt 0.812500 1.000000
vt 0.781250 0.500000
vt 0.781250 1.000000
vt 0.750000 0.500000
vt 0.750000 1.000000
vt 0.718750 0.500000
vt 0.718750 1.000000
vt 0.687500 0.500000
vt 0.687500 1.000000
vt 0.656250 0.500000
vt 0.656250 1.000000
vt 0.625000 0.500000
vt 0.625000 1.000000
vt 0.593750 0.500000
vt 0.593750 1.000000
vt 0.562500 0.500000
vt 0.562500 1.000000
vt 0.531250 0.500000
vt 0.531250 1.000000
vt 0.500000 0.500000
vt 0.500000 1.000000
vt 0.468750 0.500000
vt 0.468750 1.000000
vt 0.437500 0.500000
vt 0.437500 1.000000
vt 0.406250 0.500000
vt 0.406250 1.000000
vt 0.375000 0.500000
vt 0.375000 1.000000
vt 0.343750 0.500000
vt 0.343750 1.000000
vt 0.312500 0.500000
vt 0.312500 1.000000
vt 0.281250 0.500000
vt 0.281250 1.000000
vt 0.250000 0.500000
vt 0.250000 1.000000
vt 0.218750 0.500000
vt 0.218750 1.000000
vt 0.187500 0.500000
vt 0.187500 1.000000
vt 0.156250 0.500000
vt 0.156250 1.000000
vt 0.125000 0.500000
vt 0.125000 1.000000
vt 0.093750 0.500000
vt 0.093750 1.000000
vt 0.062500 0.500000
vt 0.062500 1.000000
vt 0.031250 0.500000
vt 0.031250 1.000000
vt 0.000000 0.500000
vt 0.000000 1.000000
s 1
f 2/1/1 3/2/1 1/3/1
f 4/4/2 5/5/2 3/2/2
f 6/6/3 7/7/3 5/5/3
f 8/8/4 9/9/4 7/7/4
f 10/10/5 11/11/5 9/9/5
f 12/12/6 13/13/6 11/11/6
f 14/14/7 15/15/7 13/13/7
f 16/16/8 17/17/8 15/15/8
f 18/18/9 19/19/9 17/17/9
f 20/20/10 21/21/10 19/19/10
f 22/22/11 23/23/11 21/21/11
f 24/24/12 25/25/12 23/23/12
f 26/26/13 27/27/13 25/25/13
f 28/28/14 29/29/14 27/27/14
f 30/30/15 31/31/15 29/29/15
f 32/32/16 33/33/16 31/31/16
f 34/34/17 35/35/17 33/33/17
f 36/36/18 37/37/18 35/35/18
f 38/38/19 39/39/19 37/37/19
f 40/40/20 41/41/20 39/39/20
f 42/42/21 43/43/21 41/41/21
f 44/44/22 45/45/22 43/43/22
f 46/46/23 47/47/23 45/45/23
f 48/48/24 49/49/24 47/47/24
f 50/50/25 51/51/25 49/49/25
f 52/52/26 53/53/26 51/51/26
f 54/54/27 55/55/27 53/53/27
f 56/56/28 57/57/28 55/55/28
f 58/58/29 59/59/29 57/57/29
f 60/60/30 61/61/30 59/59/30
f 62/62/31 63/63/31 61/61/31
f 64/64/32 1/65/32 63/63/32
f 67/2/33 66/1/33 65/3/33
f 69/5/34 68/4/34 67/2/34
f 71/7/19 70/6/19 69/5/19
f 73/9/20 72/8/20 71/7/20
f 75/11/21 74/10/21 73/9/21
f 77/13/22 76/12/22 75/11/22
f 79/15/35 78/14/35 77/13/35
f 81/17/36 80/16/36 79/15/36
f 83/19/37 82/18/37 81/17/37
f 85/21/38 84/20/38 83/19/38
f 87/23/27 86/22/27 85/21/27
f 89/25/28 88/24/28 87/23/28
f 91/27/29 90/26/29 89/25/29
f 93/29/30 92/28/30 91/27/30
f 95/31/39 94/30/39 93/29/39
f 97/33/40 96/32/40 95/31/40
f 99/35/41 98/34/41 97/33/41
f 101/37/42 100/36/42 99/35/42
f 103/39/3 102/38/3 101/37/3
f 105/41/4 104/40/4 103/39/4
f 107/43/5 106/42/5 105/41/5
f 109/45/6 108/44/6 107/43/6
f 111/47/43 110/46/43 109/45/43
f 113/49/44 112/48/44 111/47/44
f 115/51/45 114/50/45 113/49/45
f 117/53/46 116/52/46 115/51/46
f 119/55/11 118/54/11 117/53/11
f 121/57/12 120/56/12 119/55/12
f 123/59/13 122/58/13 121/57/13
f 125/61/14 124/60/14 123/59/14
f 127/63/47 126/62/47 125/61/47
f 65/65/48 128/64/48 127/63/48
f 3/2/49 65/3/49 1/3/49
f 4/4/50 66/1/50 68/4/50
f 3/2/49 69/5/49 67/2/49
f 4/4/50 70/6/50 6/6/50
f 7/7/49 69/5/49 5/5/49
f 6/6/50 72/8/50 8/8/50
f 7/7/49 73/9/49 71/7/49
f 8/8/50 74/10/50 10/10/50
f 11/11/49 73/9/49 9/9/49
f 12/12/50 74/10/50 76/12/50
f 13/13/49 75/11/49 11/11/49
f 12/12/50 78/14/50 14/14/50
f 15/15/49 77/13/49 13/13/49
f 16/16/50 78/14/50 80/16/50
f 15/15/49 81/17/49 79/15/49
f 16/16/50 82/18/50 18/18/50
f 19/19/49 81/17/49 17/17/49
f 20/20/50 82/18/50 84/20/50
f 19/19/49 85/21/49 83/19/49
f 20/20/50 86/22/50 22/22/50
f 23/23/49 85/21/49 21/21/49
f 22/22/50 88/24/50 24/24/50
f 23/23/49 89/25/49 87/23/49
f 24/24/50 90/26/50 26/26/50
f 27/27/49 89/25/49 25/25/49
f 28/28/50 90/26/50 92/28/50
f 29/29/49 91/27/49 27/27/49
f 28/28/50 94/30/50 30/30/50
f 31/31/49 93/29/49 29/29/49
f 32/32/50 94/30/50 96/32/50
f 31/31/49 97/33/49 95/31/49
f 32/32/50 98/34/50 34/34/50
f 35/35/49 97/33/49 33/33/49
f 36/36/50 98/34/50 100/36/50
f 35/35/49 101/37/49 99/35/49
f 36/36/50 102/38/50 38/38/50
f 39/39/49 101/37/49 37/37/49
f 38/38/50 104/40/50 40/40/50
f 39/39/49 105/41/49 103/39/49
f 40/40/50 106/42/50 42/42/50
f 43/43/49 105/41/49 41/41/49
f 44/44/50 106/42/50 108/44/50
f 45/45/49 107/43/49 43/43/49
f 44/44/50 110/46/50 46/46/50
f 47/47/49 109/45/49 45/45/49
f 48/48/50 110/46/50 112/48/50
f 47/47/49 113/49/49 111/47/49
f 48/48/50 114/50/50 50/50/50
f 51/51/49 113/49/49 49/49/49
f 52/52/50 114/50/50 116/52/50
f 51/51/49 117/53/49 115/51/49
f 52/52/50 118/54/50 54/54/50
f 55/55/49 117/53/49 53/53/49
f 54/54/50 120/56/50 56/56/50
f 55/55/49 121/57/49 119/55/49
f 56/56/50 122/58/50 58/58/50
f 59/59/49 121/57/49 57/57/49
f 60/60/50 122/58/50 124/60/50
f 61/61/49 123/59/49 59/59/49
f 60/60/50 126/62/50 62/62/50
f 63/63/49 125/61/49 61/61/49
f 64/64/50 126/62/50 128/64/50
f 63/63/49 65/65/49 127/63/49
f 64/64/50 66/66/50 2/66/50
f 2/1/1 4/4/1 3/2/1
f 4/4/2 6/6/2 5/5/2
f 6/6/3 8/8/3 7/7/3
f 8/8/4 10/10/4 9/9/4
f 10/10/5 12/12/5 11/11/5
f 12/12/6 14/14/6 13/13/6
f 14/14/7 16/16/7 15/15/7
f 16/16/8 18/18/8 17/17/8
f 18/18/9 20/20/9 19/19/9
f 20/20/10 22/22/10 21/21/10
f 22/22/11 24/24/11 23/23/11
f 24/24/12 26/26/12 25/25/12
f 26/26/13 28/28/13 27/27/13
f 28/28/14 30/30/14 29/29/14
f 30/30/15 32/32/15 31/31/15
f 32/32/16 34/34/16 33/33/16
f 34/34/17 36/36/17 35/35/17
f 36/36/18 38/38/18 37/37/18
f 38/38/19 40/40/19 39/39/19
f 40/40/20 42/42/20 41/41/20
f 42/42/21 44/44/21 43/43/21
f 44/44/22 46/46/22 45/45/22
f 46/46/23 48/48/23 47/47/23
f 48/48/24 50/50/24 49/49/24
f 50/50/25 52/52/25 51/51/25
f 52/52/26 54/54/26 53/53/26
f 54/54/27 56/56/27 55/55/27
f 56/56/28 58/58/28 57/57/28
f 58/58/29 60/60/29 59/59/29
f 60/60/30 62/62/30 61/61/30
f 62/62/31 64/64/31 63/63/31
f 64/64/32 2/66/32 1/65/32
f 67/2/33 68/4/33 66/1/33
f 69/5/34 70/6/34 68/4/34
f 71/7/19 72/8/19 70/6/19
f 73/9/20 74/10/20 72/8/20
f 75/11/21 76/12/21 74/10/21
f 77/13/22 78/14/22 76/12/22
f 79/15/35 80/16/35 78/14/35
f 81/17/36 82/18/36 80/16/36
f 83/19/37 84/20/37 82/18/37
f 85/21/38 86/22/38 84/20/38
f 87/23/27 88/24/27 86/22/27
f 89/25/28 90/26/28 88/24/28
f 91/27/29 92/28/29 90/26/29
f 93/29/30 94/30/30 92/28/30
f 95/31/39 96/32/39 94/30/39
f 97/33/40 98/34/40 96/32/40
f 99/35/41 100/36/41 98/34/41
f 101/37/42 102/38/42 100/36/42
f 103/39/3 104/40/3 102/38/3
f 105/41/4 106/42/4 104/40/4
f 107/43/5 108/44/5 106/42/5
f 109/45/6 110/46/6 108/44/6
f 111/47/43 112/48/43 110/46/43
f 113/49/44 114/50/44 112/48/44
f 115/51/45 116/52/45 114/50/45
f 117/53/46 118/54/46 116/52/46
f 119/55/11 120/56/11 118/54/11
f 121/57/12 122/58/12 120/56/12
f 123/59/13 124/60/13 122/58/13
f 125/61/14 126/62/14 124/60/14
f 127/63/47 128/64/47 126/62/47
f 65/65/48 66/66/48 128/64/48
f 3/2/49 67/2/49 65/3/49
f 4/4/50 2/1/50 66/1/50
f 3/2/49 5/5/49 69/5/49
f 4/4/50 68/4/50 70/6/50
f 7/7/49 71/7/49 69/5/49
f 6/6/50 70/6/50 72/8/50
f 7/7/49 9/9/49 73/9/49
f 8/8/50 72/8/50 74/10/50
f 11/11/49 75/11/49 73/9/49
f 12/12/50 10/10/50 74/10/50
f 13/13/49 77/13/49 75/11/49
f 12/12/50 76/12/50 78/14/50
f 15/15/49 79/15/49 77/13/49
f 16/16/50 14/14/50 78/14/50
f 15/15/49 17/17/49 81/17/49
f 16/16/50 80/16/50 82/18/50
f 19/19/49 83/19/49 81/17/49
f 20/20/50 18/18/50 82/18/50
f 19/19/49 21/21/49 85/21/49
f 20/20/50 84/20/50 86/22/50
f 23/23/49 87/23/49 85/21/49
f 22/22/50 86/22/50 88/24/50
f 23/23/49 25/25/49 89/25/49
f 24/24/50 88/24/50 90/26/50
f 27/27/49 91/27/49 89/25/49
f 28/28/50 26/26/50 90/26/50
f 29/29/49 93/29/49 91/27/49
f 28/28/50 92/28/50 94/30/50
f 31/31/49 95/31/49 93/29/49
f 32/32/50 30/30/50 94/30/50
f 31/31/49 33/33/49 97/33/49
f 32/32/50 96/32/50 98/34/50
f 35/35/49 99/35/49 97/33/49
f 36/36/50 34/34/50 98/34/50
f 35/35/49 37/37/49 101/37/49
f 36/36/50 100/36/50 102/38/50
f 39/39/49 103/39/49 101/37/49
f 38/38/50 102/38/50 104/40/50
f 39/39/49 41/41/49 105/41/49
f 40/40/50 104/40/50 106/42/50
f 43/43/49 107/43/49 105/41/49
f 44/44/50 42/42/50 106/42/50
f 45/45/49 109/45/49 107/43/49
f 44/44/50 108/44/50 110/46/50
f 47/47/49 111/47/49 109/45/49
f 48/48/50 46/46/50 110/46/50
f 47/47/49 49/49/49 113/49/49
f 48/48/50 112/48/50 114/50/50
f 51/51/49 115/51/49 113/49/49
f 52/52/50 50/50/50 114/50/50
f 51/51/49 53/53/49 117/53/49
f 52/52/50 116/52/50 118/54/50
f 55/55/49 119/55/49 117/53/49
f 54/54/50 118/54/50 120/56/50
f 55/55/49 57/57/49 121/57/49
f 56/56/50 120/56/50 122/58/50
f 59/59/49 123/59/49 121/57/49
f 60/60/50 58/58/50 122/58/50
f 61/61/49 125/61/49 123/59/49
f 60/60/50 124/60/50 126/62/50
f 63/63/49 127/63/49 125/61/49
f 64/64/50 62/62/50 126/62/50
f 63/63/49 1/65/49 65/65/49
f 64/64/50 128/64/50 66/66/50
