# Blender 4.5.4 LTS
# www.blender.org
o Cylinder.001
v 0.000000 1.516701 0.450000
v -0.000000 1.516701 -0.450000
v -0.003258 1.516380 0.450000
v -0.003258 1.516380 -0.450000
v -0.006391 1.515429 0.450000
v -0.006391 1.515429 -0.450000
v -0.009278 1.513886 0.450000
v -0.009278 1.513886 -0.450000
v -0.011809 1.511809 0.450000
v -0.011809 1.511809 -0.450000
v -0.013886 1.509278 0.450000
v -0.013886 1.509278 -0.450000
v -0.015429 1.506391 0.450000
v -0.015429 1.506391 -0.450000
v -0.016380 1.503258 0.450000
v -0.016380 1.503258 -0.450000
v -0.016701 1.500000 0.450000
v -0.016701 1.500000 -0.450000
v -0.016380 1.496742 0.450000
v -0.016380 1.496742 -0.450000
v -0.015429 1.493609 0.450000
v -0.015429 1.493609 -0.450000
v -0.013886 1.490722 0.450000
v -0.013886 1.490722 -0.450000
v -0.011809 1.488191 0.450000
v -0.011809 1.488191 -0.450000
v -0.009278 1.486114 0.450000
v -0.009278 1.486114 -0.450000
v -0.006391 1.484571 0.450000
v -0.006391 1.484571 -0.450000
v -0.003258 1.483620 0.450000
v -0.003258 1.483620 -0.450000
v 0.000000 1.483299 0.450000
v -0.000000 1.483299 -0.450000
v 0.003258 1.483620 0.450000
v 0.003258 1.483620 -0.450000
v 0.006391 1.484571 0.450000
v 0.006391 1.484571 -0.450000
v 0.009278 1.486114 0.450000
v 0.009278 1.486114 -0.450000
v 0.011809 1.488191 0.450000
v 0.011809 1.488191 -0.450000
v 0.013886 1.490722 0.450000
v 0.013886 1.490722 -0.450000
v 0.015429 1.493609 0.450000
v 0.015429 1.493609 -0.450000
v 0.016380 1.496742 0.450000
v 0.016380 1.496742 -0.450000
v 0.016701 1.500000 0.450000
v 0.016701 1.500000 -0.450000
v 0.016380 1.503258 0.450000
v 0.016380 1.503258 -0.450000
v 0.015429 1.506391 0.450000
v 0.015429 1.506391 -0.450000
v 0.013886 1.509278 0.450000
v 0.013886 1.509278 -0.450000
v 0.011809 1.511809 0.450000
v 0.011809 1.511809 -0.450000
v 0.009278 1.513886 0.450000
v 0.009278 1.513886 -0.450000
v 0.006391 1.515429 0.450000
v 0.006391 1.515429 -0.450000
v 0.003258 1.516380 0.450000
v 0.003258 1.516380 -0.450000
v 0.000000 1.513322 0.450000
v -0.000000 1.513322 -0.450000
v -0.002599 1.513066 0.450000
v -0.002599 1.513066 -0.450000
v -0.005098 1.512308 0.450000
v -0.005098 1.512308 -0.450000
v -0.007401 1.511077 0.450000
v -0.007401 1.511077 -0.450000
v -0.009420 1.509420 0.450000
v -0.009420 1.509420 -0.450000
v -0.011077 1.507401 0.450000
v -0.011077 1.507401 -0.450000
v -0.012308 1.505098 0.450000
v -0.012308 1.505098 -0.450000
v -0.013066 1.502599 0.450000
v -0.013066 1.502599 -0.450000
v -0.013322 1.500000 0.450000
v -0.013322 1.500000 -0.450000
v -0.013066 1.497401 0.450000
v -0.013066 1.497401 -0.450000
v -0.012308 1.494902 0.450000
v -0.012308 1.494902 -0.450000
v -0.011077 1.492599 0.450000
v -0.011077 1.492599 -0.450000
v -0.009420 1.490580 0.450000
v -0.009420 1.490580 -0.450000
v -0.007401 1.488923 0.450000
v -0.007401 1.488923 -0.450000
v -0.005098 1.487692 0.450000
v -0.005098 1.487692 -0.450000
v -0.002599 1.486934 0.450000
v -0.002599 1.486934 -0.450000
v 0.000000 1.486678 0.450000
v -0.000000 1.486678 -0.450000
v 0.002599 1.486934 0.450000
v 0.002599 1.486934 -0.450000
v 0.005098 1.487692 0.450000
v 0.005098 1.487692 -0.450000
v 0.007401 1.488923 0.450000
v 0.007401 1.488923 -0.450000
v 0.009420 1.490580 0.450000
v 0.009420 1.490580 -0.450000
v 0.011077 1.492599 0.450000
v 0.011077 1.492599 -0.450000
v 0.012308 1.494902 0.450000
v 0.012308 1.494902 -0.450000
v 0.013066 1.497401 0.450000
v 0.013066 1.497401 -0.450000
v 0.013322 1.500000 0.450000
v 0.013322 1.500000 -0.450000
v 0.013066 1.502599 0.450000
v 0.013066 1.502599 -0.450000
v 0.012308 1.505098 0.450000
v 0.012308 1.505098 -0.450000
v 0.011077 1.507401 0.450000
v 0.011077 1.507401 -0.450000
v 0.009420 1.509420 0.450000
v 0.009420 1.509420 -0.450000
v 0.007401 1.511077 0.450000
v 0.007401 1.511077 -0.450000
v 0.005098 1.512308 0.450000
v 0.005098 1.512308 -0.450000
v 0.002599 1.513066 0.450000
v 0.002599 1.513066 -0.450000
vn -0.0981 0.9952 -0.0000
vn -0.2904 0.9569 -0.0000
vn -0.4714 0.8819 -0.0000
vn -0.6344 0.7730 -0.0000
vn -0.7730 0.6344 -0.0000
vn -0.8819 0.4714 -0.0000
vn -0.9569 0.2905 -0.0000
vn -0.9952 0.0981 -0.0000
vn -0.9952 -0.0981 -0.0000
vn -0.9569 -0.2905 -0.0000
vn -0.9570 -0.2901 -0.0000
vn -0.8819 -0.4714 -0.0000
vn -0.7730 -0.6344 -0.0000
vn -0.6344 -0.7730 -0.0000
vn -0.4714 -0.8819 -0.0000
vn -0.2904 -0.9569 -0.0000
vn -0.0981 -0.9952 -0.0000
vn 0.0981 -0.9952 -0.0000
vn 0.2904 -0.9569 -0.0000
vn 0.4714 -0.8819 -0.0000
vn 0.6344 -0.7730 -0.0000
vn 0.7730 -0.6344 -0.0000
vn 0.8819 -0.4714 -0.0000
vn 0.9569 -0.2905 -0.0000
vn 0.9952 -0.0981 -0.0000
vn 0.9952 0.0981 -0.0000
vn 0.9569 0.2905 -0.0000
vn 0.9570 0.2901 -0.0000
vn 0.8819 0.4714 -0.0000
vn 0.7730 0.6344 -0.0000
vn 0.6344 0.7730 -0.0000
vn 0.4714 0.8819 -0.0000
vn 0.2904 0.9569 -0.0000
vn 0.0981 0.9952 -0.0000
vn 0.0980 -0.9952 -0.0000
vn 0.2903 -0.9569 -0.0000
vn 0.9569 -0.2903 -0.0000
vn 0.9952 -0.0980 -0.0000
vn 0.9952 0.0980 -0.0000
vn 0.9569 0.2903 -0.0000
vn 0.2903 0.9569 -0.0000
vn 0.0980 0.9952 -0.0000
vn -0.0980 0.9952 -0.0000
vn -0.2903 0.9569 -0.0000
vn -0.9569 0.2903 -0.0000
vn -0.9952 0.0980 -0.0000
vn -0.9952 -0.0980 -0.0000
vn -0.9569 -0.2903 -0.0000
vn -0.2903 -0.9569 -0.0000
vn -0.0980 -0.9952 -0.0000
vn -0.0000 -0.0000 1.0000
vn -0.0000 -0.0000 -1.0000
vn -0.9570 0.2901 -0.0000
vn 0.9570 -0.2901 -0.0000
vt 1.000000 1.000000
vt 0.968750 0.500000
vt 1.000000 0.500000
vt 0.968750 1.000000
vt 0.937500 0.500000
vt 0.937500 1.000000
vt 0.906250 0.500000
vt 0.906250 1.000000
vt 0.875000 0.500000
vt 0.875000 1.000000
vt 0.843750 0.500000
vt 0.843750 1.000000
vt 0.812500 0.500000
vt 0.812500 1.000000
vt 0.781250 0.500000
vt 0.781250 1.000000
vt 0.750000 0.500000
vt 0.750000 1.000000
vt 0.718750 0.500000
vt 0.718750 1.000000
vt 0.687500 0.500000
vt 0.687500 1.000000
vt 0.656250 0.500000
vt 0.656250 1.000000
vt 0.625000 0.500000
vt 0.625000 1.000000
vt 0.593750 0.500000
vt 0.593750 1.000000
vt 0.562500 0.500000
vt 0.562500 1.000000
vt 0.531250 0.500000
vt 0.531250 1.000000
vt 0.500000 0.500000
vt 0.500000 1.000000
vt 0.468750 0.500000
vt 0.468750 1.000000
vt 0.437500 0.500000
vt 0.437500 1.000000
vt 0.406250 0.500000
vt 0.406250 1.000000
vt 0.375000 0.500000
vt 0.375000 1.000000
vt 0.343750 0.500000
vt 0.343750 1.000000
vt 0.312500 0.500000
vt 0.312500 1.000000
vt 0.281250 0.500000
vt 0.281250 1.000000
vt 0.250000 0.500000
vt 0.250000 1.000000
vt 0.218750 0.500000
vt 0.218750 1.000000
vt 0.187500 0.500000
vt 0.187500 1.000000
vt 0.156250 0.500000
vt 0.156250 1.000000
vt 0.125000 0.500000
vt 0.125000 1.000000
vt 0.093750 0.500000
vt 0.093750 1.000000
vt 0.062500 0.500000
vt 0.062500 1.000000
vt 0.031250 0.500000
vt 0.031250 1.000000
vt 0.000000 0.500000
vt 0.000000 1.000000
s 1
f 2/1/1 3/2/1 1/3/1
f 4/4/2 5/5/2 3/2/2
f 6/6/3 7/7/3 5/5/3
f 8/8/4 9/9/4 7/7/4
f 10/10/5 11/11/5 9/9/5
f 12/12/6 13/13/6 11/11/6
f 14/14/7 15/15/7 13/13/7
f 16/16/8 17/17/8 15/15/8
f 18/18/9 19/19/9 17/17/9
f 20/20/10 21/21/10 19/19/11
f 22/22/12 23/23/12 21/21/12
f 24/24/13 25/25/13 23/23/13
f 26/26/14 27/27/14 25/25/14
f 28/28/15 29/29/15 27/27/15
f 30/30/16 31/31/16 29/29/16
f 32/32/17 33/33/17 31/31/17
f 34/34/18 35/35/18 33/33/18
f 36/36/19 37/37/19 35/35/19
f 38/38/20 39/39/20 37/37/20
f 40/40/21 41/41/21 39/39/21
f 42/42/22 43/43/22 41/41/22
f 44/44/23 45/45/23 43/43/23
f 46/46/24 47/47/24 45/45/24
f 48/48/25 49/49/25 47/47/25
f 50/50/26 51/51/26 49/49/26
f 52/52/27 53/53/27 51/51/28
f 54/54/29 55/55/29 53/53/29
f 56/56/30 57/57/30 55/55/30
f 58/58/31 59/59/31 57/57/31
f 60/60/32 61/61/32 59/59/32
f 62/62/33 63/63/33 61/61/33
f 64/64/34 1/65/34 63/63/34
f 67/2/35 66/1/35 65/3/35
f 69/5/36 68/4/36 67/2/36
f 71/7/20 70/6/20 69/5/20
f 73/9/21 72/8/21 71/7/21
f 75/11/22 74/10/22 73/9/22
f 77/13/23 76/12/23 75/11/23
f 79/15/37 78/14/37 77/13/37
f 81/17/38 80/16/38 79/15/38
f 83/19/39 82/18/39 81/17/39
f 85/21/40 84/20/40 83/19/40
f 87/23/29 86/22/29 85/21/29
f 89/25/30 88/24/30 87/23/30
f 91/27/31 90/26/31 89/25/31
f 93/29/32 92/28/32 91/27/32
f 95/31/41 94/30/41 93/29/41
f 97/33/42 96/32/42 95/31/42
f 99/35/43 98/34/43 97/33/43
f 101/37/44 100/36/44 99/35/44
f 103/39/3 102/38/3 101/37/3
f 105/41/4 104/40/4 103/39/4
f 107/43/5 106/42/5 105/41/5
f 109/45/6 108/44/6 107/43/6
f 111/47/45 110/46/45 109/45/45
f 113/49/46 112/48/46 111/47/46
f 115/51/47 114/50/47 113/49/47
f 117/53/48 116/52/48 115/51/48
f 119/55/12 118/54/12 117/53/12
f 121/57/13 120/56/13 119/55/13
f 123/59/14 122/58/14 121/57/14
f 125/61/15 124/60/15 123/59/15
f 127/63/49 126/62/49 125/61/49
f 65/65/50 128/64/50 127/63/50
f 3/2/51 65/3/51 1/3/51
f 4/4/52 66/1/52 68/4/52
f 3/2/51 69/5/51 67/2/51
f 4/4/52 70/6/52 6/6/52
f 7/7/51 69/5/51 5/5/51
f 6/6/52 72/8/52 8/8/52
f 7/7/51 73/9/51 71/7/51
f 8/8/52 74/10/52 10/10/52
f 11/11/51 73/9/51 9/9/51
f 12/12/52 74/10/52 76/12/52
f 13/13/51 75/11/51 11/11/51
f 12/12/52 78/14/52 14/14/52
f 15/15/51 77/13/51 13/13/51
f 16/16/52 78/14/52 80/16/52
f 15/15/51 81/17/51 79/15/51
f 16/16/52 82/18/52 18/18/52
f 19/19/51 81/17/51 17/17/51
f 20/20/52 82/18/52 84/20/52
f 19/19/51 85/21/51 83/19/51
f 20/20/52 86/22/52 22/22/52
f 23/23/51 85/21/51 21/21/51
f 22/22/52 88/24/52 24/24/52
f 23/23/51 89/25/51 87/23/51
f 24/24/52 90/26/52 26/26/52
f 27/27/51 89/25/51 25/25/51
f 28/28/52 90/26/52 92/28/52
f 29/29/51 91/27/51 27/27/51
f 28/28/52 94/30/52 30/30/52
f 31/31/51 93/29/51 29/29/51
f 32/32/52 94/30/52 96/32/52
f 31/31/51 97/33/51 95/31/51
f 32/32/52 98/34/52 34/34/52
f 35/35/51 97/33/51 33/33/51
f 36/36/52 98/34/52 100/36/52
f 35/35/51 101/37/51 99/35/51
f 36/36/52 102/38/52 38/38/52
f 39/39/51 101/37/51 37/37/51
f 38/38/52 104/40/52 40/40/52
f 39/39/51 105/41/51 103/39/51
f 40/40/52 106/42/52 42/42/52
f 43/43/51 105/41/51 41/41/51
f 44/44/52 106/42/52 108/44/52
f 45/45/51 107/43/51 43/43/51
f 44/44/52 110/46/52 46/46/52
f 47/47/51 109/45/51 45/45/51
f 48/48/52 110/46/52 112/48/52
f 47/47/51 113/49/51 111/47/51
f 48/48/52 114/50/52 50/50/52
f 51/51/51 113/49/51 49/49/51
f 52/52/52 114/50/52 116/52/52
f 51/51/51 117/53/51 115/51/51
f 52/52/52 118/54/52 54/54/52
f 55/55/51 117/53/51 53/53/51
f 54/54/52 120/56/52 56/56/52
f 55/55/51 121/57/51 119/55/51
f 56/56/52 122/58/52 58/58/52
f 59/59/51 121/57/51 57/57/51
f 60/60/52 122/58/52 124/60/52
f 61/61/51 123/59/51 59/59/51
f 60/60/52 126/62/52 62/62/52
f 63/63/51 125/61/51 61/61/51
f 64/64/52 126/62/52 128/64/52
f 63/63/51 65/65/51 127/63/51
f 64/64/52 66/66/52 2/66/52
f 2/1/1 4/4/1 3/2/1
f 4/4/2 6/6/2 5/5/2
f 6/6/3 8/8/3 7/7/3
f 8/8/4 10/10/4 9/9/4
f 10/10/5 12/12/5 11/11/5
f 12/12/6 14/14/6 13/13/6
f 14/14/7 16/16/53 15/15/7
f 16/16/8 18/18/8 17/17/8
f 18/18/9 20/20/9 19/19/9
f 20/20/10 22/22/10 21/21/10
f 22/22/12 24/24/12 23/23/12
f 24/24/13 26/26/13 25/25/13
f 26/26/14 28/28/14 27/27/14
f 28/28/15 30/30/15 29/29/15
f 30/30/16 32/32/16 31/31/16
f 32/32/17 34/34/17 33/33/17
f 34/34/18 36/36/18 35/35/18
f 36/36/19 38/38/19 37/37/19
f 38/38/20 40/40/20 39/39/20
f 40/40/21 42/42/21 41/41/21
f 42/42/22 44/44/22 43/43/22
f 44/44/23 46/46/23 45/45/23
f 46/46/24 48/48/54 47/47/24
f 48/48/25 50/50/25 49/49/25
f 50/50/26 52/52/26 51/51/26
f 52/52/27 54/54/27 53/53/27
f 54/54/29 56/56/29 55/55/29
f 56/56/30 58/58/30 57/57/30
f 58/58/31 60/60/31 59/59/31
f 60/60/32 62/62/32 61/61/32
f 62/62/33 64/64/33 63/63/33
f 64/64/34 2/66/34 1/65/34
f 67/2/35 68/4/35 66/1/35
f 69/5/36 70/6/36 68/4/36
f 71/7/20 72/8/20 70/6/20
f 73/9/21 74/10/21 72/8/21
f 75/11/22 76/12/22 74/10/22
f 77/13/23 78/14/23 76/12/23
f 79/15/37 80/16/37 78/14/37
f 81/17/38 82/18/38 80/16/38
f 83/19/39 84/20/39 82/18/39
f 85/21/40 86/22/40 84/20/40
f 87/23/29 88/24/29 86/22/29
f 89/25/30 90/26/30 88/24/30
f 91/27/31 92/28/31 90/26/31
f 93/29/32 94/30/32 92/28/32
f 95/31/41 96/32/41 94/30/41
f 97/33/42 98/34/42 96/32/42
f 99/35/43 100/36/43 98/34/43
f 101/37/44 102/38/44 100/36/44
f 103/39/3 104/40/3 102/38/3
f 105/41/4 106/42/4 104/40/4
f 107/43/5 108/44/5 106/42/5
f 109/45/6 110/46/6 108/44/6
f 111/47/45 112/48/45 110/46/45
f 113/49/46 114/50/46 112/48/46
f 115/51/47 116/52/47 114/50/47
f 117/53/48 118/54/48 116/52/48
f 119/55/12 120/56/12 118/54/12
f 121/57/13 122/58/13 120/56/13
f 123/59/14 124/60/14 122/58/14
f 125/61/15 126/62/15 124/60/15
f 127/63/49 128/64/49 126/62/49
f 65/65/50 66/66/50 128/64/50
f 3/2/51 67/2/51 65/3/51
f 4/4/52 2/1/52 66/1/52
f 3/2/51 5/5/51 69/5/51
f 4/4/52 68/4/52 70/6/52
f 7/7/51 71/7/51 69/5/51
f 6/6/52 70/6/52 72/8/52
f 7/7/51 9/9/51 73/9/51
f 8/8/52 72/8/52 74/10/52
f 11/11/51 75/11/51 73/9/51
f 12/12/52 10/10/52 74/10/52
f 13/13/51 77/13/51 75/11/51
f 12/12/52 76/12/52 78/14/52
f 15/15/51 79/15/51 77/13/51
f 16/16/52 14/14/52 78/14/52
f 15/15/51 17/17/51 81/17/51
f 16/16/52 80/16/52 82/18/52
f 19/19/51 83/19/51 81/17/51
f 20/20/52 18/18/52 82/18/52
f 19/19/51 21/21/51 85/21/51
f 20/20/52 84/20/52 86/22/52
f 23/23/51 87/23/51 85/21/51
f 22/22/52 86/22/52 88/24/52
f 23/23/51 25/25/51 89/25/51
f 24/24/52 88/24/52 90/26/52
f 27/27/51 91/27/51 89/25/51
f 28/28/52 26/26/52 90/26/52
f 29/29/51 93/29/51 91/27/51
f 28/28/52 92/28/52 94/30/52
f 31/31/51 95/31/51 93/29/51
f 32/32/52 30/30/52 94/30/52
f 31/31/51 33/33/51 97/33/51
f 32/32/52 96/32/52 98/34/52
f 35/35/51 99/35/51 97/33/51
f 36/36/52 34/34/52 98/34/52
f 35/35/51 37/37/51 101/37/51
f 36/36/52 100/36/52 102/38/52
f 39/39/51 103/39/51 101/37/51
f 38/38/52 102/38/52 104/40/52
f 39/39/51 41/41/51 105/41/51
f 40/40/52 104/40/52 106/42/52
f 43/43/51 107/43/51 105/41/51
f 44/44/52 42/42/52 106/42/52
f 45/45/51 109/45/51 107/43/51
f 44/44/52 108/44/52 110/46/52
f 47/47/51 111/47/51 109/45/51
f 48/48/52 46/46/52 110/46/52
f 47/47/51 49/49/51 113/49/51
f 48/48/52 112/48/52 114/50/52
f 51/51/51 115/51/51 113/49/51
f 52/52/52 50/50/52 114/50/52
f 51/51/51 53/53/51 117/53/51
f 52/52/52 116/52/52 118/54/52
f 55/55/51 119/55/51 117/53/51
f 54/54/52 118/54/52 120/56/52
f 55/55/51 57/57/51 121/57/51
f 56/56/52 120/56/52 122/58/52
f 59/59/51 123/59/51 121/57/51
f 60/60/52 58/58/52 122/58/52
f 61/61/51 125/61/51 123/59/51
f 60/60/52 124/60/52 126/62/52
f 63/63/51 127/63/51 125/61/51
f 64/64/52 62/62/52 126/62/52
f 63/63/51 1/65/51 65/65/51
f 64/64/52 128/64/52 66/66/52
o Cylinder.002
v 0.000000 -1.483299 0.450000
v -0.000000 -1.483299 -0.450000
v -0.003258 -1.483620 0.450000
v -0.003258 -1.483620 -0.450000
v -0.006391 -1.484571 0.450000
v -0.006391 -1.484571 -0.450000
v -0.009278 -1.486114 0.450000
v -0.009278 -1.486114 -0.450000
v -0.011809 -1.488191 0.450000
v -0.011809 -1.488191 -0.450000
v -0.013886 -1.490722 0.450000
v -0.013886 -1.490722 -0.450000
v -0.015429 -1.493609 0.450000
v -0.015429 -1.493609 -0.450000
v -0.016380 -1.496742 0.450000
v -0.016380 -1.496742 -0.450000
v -0.016701 -1.500000 0.450000
v -0.016701 -1.500000 -0.450000
v -0.016380 -1.503258 0.450000
v -0.016380 -1.503258 -0.450000
v -0.015429 -1.506391 0.450000
v -0.015429 -1.506391 -0.450000
v -0.013886 -1.509278 0.450000
v -0.013886 -1.509278 -0.450000
v -0.011809 -1.511809 0.450000
v -0.011809 -1.511809 -0.450000
v -0.009278 -1.513886 0.450000
v -0.009278 -1.513886 -0.450000
v -0.006391 -1.515429 0.450000
v -0.006391 -1.515429 -0.450000
v -0.003258 -1.516380 0.450000
v -0.003258 -1.516380 -0.450000
v 0.000000 -1.516701 0.450000
v -0.000000 -1.516701 -0.450000
v 0.003258 -1.516380 0.450000
v 0.003258 -1.516380 -0.450000
v 0.006391 -1.515429 0.450000
v 0.006391 -1.515429 -0.450000
v 0.009278 -1.513886 0.450000
v 0.009278 -1.513886 -0.450000
v 0.011809 -1.511809 0.450000
v 0.011809 -1.511809 -0.450000
v 0.013886 -1.509278 0.450000
v 0.013886 -1.509278 -0.450000
v 0.015429 -1.506391 0.450000
v 0.015429 -1.506391 -0.450000
v 0.016380 -1.503258 0.450000
v 0.016380 -1.503258 -0.450000
v 0.016701 -1.500000 0.450000
v 0.016701 -1.500000 -0.450000
v 0.016380 -1.496742 0.450000
v 0.016380 -1.496742 -0.450000
v 0.015429 -1.493609 0.450000
v 0.015429 -1.493609 -0.450000
v 0.013886 -1.490722 0.450000
v 0.013886 -1.490722 -0.450000
v 0.011809 -1.488191 0.450000
v 0.011809 -1.488191 -0.450000
v 0.009278 -1.486114 0.450000
v 0.009278 -1.486114 -0.450000
v 0.006391 -1.484571 0.450000
v 0.006391 -1.484571 -0.450000
v 0.003258 -1.483620 0.450000
v 0.003258 -1.483620 -0.450000
v 0.000000 -1.486678 0.450000
v -0.000000 -1.486678 -0.450000
v -0.002599 -1.486934 0.450000
v -0.002599 -1.486934 -0.450000
v -0.005098 -1.487692 0.450000
v -0.005098 -1.487692 -0.450000
v -0.007401 -1.488923 0.450000
v -0.007401 -1.488923 -0.450000
v -0.009420 -1.490580 0.450000
v -0.009420 -1.490580 -0.450000
v -0.011077 -1.492599 0.450000
v -0.011077 -1.492599 -0.450000
v -0.012308 -1.494902 0.450000
v -0.012308 -1.494902 -0.450000
v -0.013066 -1.497401 0.450000
v -0.013066 -1.497401 -0.450000
v -0.013322 -1.500000 0.450000
v -0.013322 -1.500000 -0.450000
v -0.013066 -1.502599 0.450000
v -0.013066 -1.502599 -0.450000
v -0.012308 -1.505098 0.450000
v -0.012308 -1.505098 -0.450000
v -0.011077 -1.507401 0.450000
v -0.011077 -1.507401 -0.450000
v -0.009420 -1.509420 0.450000
v -0.009420 -1.509420 -0.450000
v -0.007401 -1.511077 0.450000
v -0.007401 -1.511077 -0.450000
v -0.005098 -1.512308 0.450000
v -0.005098 -1.512308 -0.450000
v -0.002599 -1.513066 0.450000
v -0.002599 -1.513066 -0.450000
v 0.000000 -1.513322 0.450000
v -0.000000 -1.513322 -0.450000
v 0.002599 -1.513066 0.450000
v 0.002599 -1.513066 -0.450000
v 0.005098 -1.512308 0.450000
v 0.005098 -1.512308 -0.450000
v 0.007401 -1.511077 0.450000
v 0.007401 -1.511077 -0.450000
v 0.009420 -1.509420 0.450000
v 0.009420 -1.509420 -0.450000
v 0.011077 -1.507401 0.450000
v 0.011077 -1.507401 -0.450000
v 0.012308 -1.505098 0.450000
v 0.012308 -1.505098 -0.450000
v 0.013066 -1.502599 0.450000
v 0.013066 -1.502599 -0.450000
v 0.013322 -1.500000 0.450000
v 0.013322 -1.500000 -0.450000
v 0.013066 -1.497401 0.450000
v 0.013066 -1.497401 -0.450000
v 0.012308 -1.494902 0.450000
v 0.012308 -1.494902 -0.450000
v 0.011077 -1.492599 0.450000
v 0.011077 -1.492599 -0.450000
v 0.009420 -1.490580 0.450000
v 0.009420 -1.490580 -0.450000
v 0.007401 -1.488923 0.450000
v 0.007401 -1.488923 -0.450000
v 0.005098 -1.487692 0.450000
v 0.005098 -1.487692 -0.450000
v 0.002599 -1.486934 0.450000
v 0.002599 -1.486934 -0.450000
vn -0.0981 0.9952 -0.0000
vn -0.2904 0.9569 -0.0000
vn -0.4714 0.8819 -0.0000
vn -0.6344 0.7730 -0.0000
vn -0.7730 0.6344 -0.0000
vn -0.8819 0.4714 -0.0000
vn -0.9569 0.2905 -0.0000
vn -0.9952 0.0981 -0.0000
vn -0.9952 -0.0981 -0.0000
vn -0.9569 -0.2905 -0.0000
vn -0.9570 -0.2901 -0.0000
vn -0.8819 -0.4714 -0.0000
vn -0.7730 -0.6344 -0.0000
vn -0.6344 -0.7730 -0.0000
vn -0.4714 -0.8819 -0.0000
vn -0.2904 -0.9569 -0.0000
vn -0.0981 -0.9952 -0.0000
vn 0.0981 -0.9952 -0.0000
vn 0.2904 -0.9569 -0.0000
vn 0.4714 -0.8819 -0.0000
vn 0.6344 -0.7730 -0.0000
vn 0.7730 -0.6344 -0.0000
vn 0.8819 -0.4714 -0.0000
vn 0.9569 -0.2905 -0.0000
vn 0.9952 -0.0981 -0.0000
vn 0.9952 0.0981 -0.0000
vn 0.9569 0.2905 -0.0000
vn 0.9570 0.2901 -0.0000
vn 0.8819 0.4714 -0.0000
vn 0.7730 0.6344 -0.0000
vn 0.6344 0.7730 -0.0000
vn 0.4714 0.8819 -0.0000
vn 0.2904 0.9569 -0.0000
vn 0.0981 0.9952 -0.0000
vn 0.0980 -0.9952 -0.0000
vn 0.2903 -0.9569 -0.0000
vn 0.9569 -0.2903 -0.0000
vn 0.9952 -0.0980 -0.0000
vn 0.9952 0.0980 -0.0000
vn 0.9569 0.2903 -0.0000
vn 0.2903 0.9569 -0.0000
vn 0.0980 0.9952 -0.0000
vn -0.0980 0.9952 -0.0000
vn -0.2903 0.9569 -0.0000
vn -0.9569 0.2903 -0.0000
vn -0.9952 0.0980 -0.0000
vn -0.9952 -0.0980 -0.0000
vn -0.9569 -0.2903 -0.0000
vn -0.2903 -0.9569 -0.0000
vn -0.0980 -0.9952 -0.0000
vn -0.0000 -0.0000 1.0000
vn -0.0000 -0.0000 -1.0000
vn -0.9570 0.2901 -0.0000
vn 0.9570 -0.2901 -0.0000
vt 1.000000 1.000000
vt 0.968750 0.500000
vt 1.000000 0.500000
vt 0.968750 1.000000
vt 0.937500 0.500000
vt 0.937500 1.000000
vt 0.906250 0.500000
vt 0.906250 1.000000
vt 0.875000 0.500000
vt 0.875000 1.000000
vt 0.843750 0.500000
vt 0.843750 1.000000
vt 0.812500 0.500000
vt 0.812500 1.000000
vt 0.781250 0.500000
vt 0.781250 1.000000
vt 0.750000 0.500000
vt 0.750000 1.000000
vt 0.718750 0.500000
vt 0.718750 1.000000
vt 0.687500 0.500000
vt 0.687500 1.000000
vt 0.656250 0.500000
vt 0.656250 1.000000
vt 0.625000 0.500000
vt 0.625000 1.000000
vt 0.593750 0.500000
vt 0.593750 1.000000
vt 0.562500 0.500000
vt 0.562500 1.000000
vt 0.531250 0.500000
vt 0.531250 1.000000
vt 0.500000 0.500000
vt 0.500000 1.000000
vt 0.468750 0.500000
vt 0.468750 1.000000
vt 0.437500 0.500000
vt 0.437500 1.000000
vt 0.406250 0.500000
vt 0.406250 1.000000
vt 0.375000 0.500000
vt 0.375000 1.000000
vt 0.343750 0.500000
vt 0.343750 1.000000
vt 0.312500 0.500000
vt 0.312500 1.000000
vt 0.281250 0.500000
vt 0.281250 1.000000
vt 0.250000 0.500000
vt 0.250000 1.000000
vt 0.218750 0.500000
vt 0.218750 1.000000
vt 0.187500 0.500000
vt 0.187500 1.000000
vt 0.156250 0.500000
vt 0.156250 1.000000
vt 0.125000 0.500000
vt 0.125000 1.000000
vt 0.093750 0.500000
vt 0.093750 1.000000
vt 0.062500 0.500000
vt 0.062500 1.000000
vt 0.031250 0.500000
vt 0.031250 1.000000
vt 0.000000 0.500000
vt 0.000000 1.000000
s 1
f 130/67/55 131/68/55 129/69/55
f 132/70/56 133/71/56 131/68/56
f 134/72/57 135/73/57 133/71/57
f 136/74/58 137/75/58 135/73/58
f 138/76/59 139/77/59 137/75/59
f 140/78/60 141/79/60 139/77/60
f 142/80/61 143/81/61 141/79/61
f 144/82/62 145/83/62 143/81/62
f 146/84/63 147/85/63 145/83/63
f 148/86/64 149/87/64 147/85/65
f 150/88/66 151/89/66 149/87/66
f 152/90/67 153/91/67 151/89/67
f 154/92/68 155/93/68 153/91/68
f 156/94/69 157/95/69 155/93/69
f 158/96/70 159/97/70 157/95/70
f 160/98/71 161/99/71 159/97/71
f 162/100/72 163/101/72 161/99/72
f 164/102/73 165/103/73 163/101/73
f 166/104/74 167/105/74 165/103/74
f 168/106/75 169/107/75 167/105/75
f 170/108/76 171/109/76 169/107/76
f 172/110/77 173/111/77 171/109/77
f 174/112/78 175/113/78 173/111/78
f 176/114/79 177/115/79 175/113/79
f 178/116/80 179/117/80 177/115/80
f 180/118/81 181/119/81 179/117/82
f 182/120/83 183/121/83 181/119/83
f 184/122/84 185/123/84 183/121/84
f 186/124/85 187/125/85 185/123/85
f 188/126/86 189/127/86 187/125/86
f 190/128/87 191/129/87 189/127/87
f 192/130/88 129/131/88 191/129/88
f 195/68/89 194/67/89 193/69/89
f 197/71/90 196/70/90 195/68/90
f 199/73/74 198/72/74 197/71/74
f 201/75/75 200/74/75 199/73/75
f 203/77/76 202/76/76 201/75/76
f 205/79/77 204/78/77 203/77/77
f 207/81/91 206/80/91 205/79/91
f 209/83/92 208/82/92 207/81/92
f 211/85/93 210/84/93 209/83/93
f 213/87/94 212/86/94 211/85/94
f 215/89/83 214/88/83 213/87/83
f 217/91/84 216/90/84 215/89/84
f 219/93/85 218/92/85 217/91/85
f 221/95/86 220/94/86 219/93/86
f 223/97/95 222/96/95 221/95/95
f 225/99/96 224/98/96 223/97/96
f 227/101/97 226/100/97 225/99/97
f 229/103/98 228/102/98 227/101/98
f 231/105/57 230/104/57 229/103/57
f 233/107/58 232/106/58 231/105/58
f 235/109/59 234/108/59 233/107/59
f 237/111/60 236/110/60 235/109/60
f 239/113/99 238/112/99 237/111/99
f 241/115/100 240/114/100 239/113/100
f 243/117/101 242/116/101 241/115/101
f 245/119/102 244/118/102 243/117/102
f 247/121/66 246/120/66 245/119/66
f 249/123/67 248/122/67 247/121/67
f 251/125/68 250/124/68 249/123/68
f 253/127/69 252/126/69 251/125/69
f 255/129/103 254/128/103 253/127/103
f 193/131/104 256/130/104 255/129/104
f 131/68/105 193/69/105 129/69/105
f 132/70/106 194/67/106 196/70/106
f 131/68/105 197/71/105 195/68/105
f 132/70/106 198/72/106 134/72/106
f 135/73/105 197/71/105 133/71/105
f 134/72/106 200/74/106 136/74/106
f 135/73/105 201/75/105 199/73/105
f 136/74/106 202/76/106 138/76/106
f 139/77/105 201/75/105 137/75/105
f 140/78/106 202/76/106 204/78/106
f 141/79/105 203/77/105 139/77/105
f 140/78/106 206/80/106 142/80/106
f 143/81/105 205/79/105 141/79/105
f 144/82/106 206/80/106 208/82/106
f 143/81/105 209/83/105 207/81/105
f 144/82/106 210/84/106 146/84/106
f 147/85/105 209/83/105 145/83/105
f 148/86/106 210/84/106 212/86/106
f 147/85/105 213/87/105 211/85/105
f 148/86/106 214/88/106 150/88/106
f 151/89/105 213/87/105 149/87/105
f 150/88/106 216/90/106 152/90/106
f 151/89/105 217/91/105 215/89/105
f 152/90/106 218/92/106 154/92/106
f 155/93/105 217/91/105 153/91/105
f 156/94/106 218/92/106 220/94/106
f 157/95/105 219/93/105 155/93/105
f 156/94/106 222/96/106 158/96/106
f 159/97/105 221/95/105 157/95/105
f 160/98/106 222/96/106 224/98/106
f 159/97/105 225/99/105 223/97/105
f 160/98/106 226/100/106 162/100/106
f 163/101/105 225/99/105 161/99/105
f 164/102/106 226/100/106 228/102/106
f 163/101/105 229/103/105 227/101/105
f 164/102/106 230/104/106 166/104/106
f 167/105/105 229/103/105 165/103/105
f 166/104/106 232/106/106 168/106/106
f 167/105/105 233/107/105 231/105/105
f 168/106/106 234/108/106 170/108/106
f 171/109/105 233/107/105 169/107/105
f 172/110/106 234/108/106 236/110/106
f 173/111/105 235/109/105 171/109/105
f 172/110/106 238/112/106 174/112/106
f 175/113/105 237/111/105 173/111/105
f 176/114/106 238/112/106 240/114/106
f 175/113/105 241/115/105 239/113/105
f 176/114/106 242/116/106 178/116/106
f 179/117/105 241/115/105 177/115/105
f 180/118/106 242/116/106 244/118/106
f 179/117/105 245/119/105 243/117/105
f 180/118/106 246/120/106 182/120/106
f 183/121/105 245/119/105 181/119/105
f 182/120/106 248/122/106 184/122/106
f 183/121/105 249/123/105 247/121/105
f 184/122/106 250/124/106 186/124/106
f 187/125/105 249/123/105 185/123/105
f 188/126/106 250/124/106 252/126/106
f 189/127/105 251/125/105 187/125/105
f 188/126/106 254/128/106 190/128/106
f 191/129/105 253/127/105 189/127/105
f 192/130/106 254/128/106 256/130/106
f 191/129/105 193/131/105 255/129/105
f 192/130/106 194/132/106 130/132/106
f 130/67/55 132/70/55 131/68/55
f 132/70/56 134/72/56 133/71/56
f 134/72/57 136/74/57 135/73/57
f 136/74/58 138/76/58 137/75/58
f 138/76/59 140/78/59 139/77/59
f 140/78/60 142/80/60 141/79/60
f 142/80/61 144/82/107 143/81/61
f 144/82/62 146/84/62 145/83/62
f 146/84/63 148/86/63 147/85/63
f 148/86/64 150/88/64 149/87/64
f 150/88/66 152/90/66 151/89/66
f 152/90/67 154/92/67 153/91/67
f 154/92/68 156/94/68 155/93/68
f 156/94/69 158/96/69 157/95/69
f 158/96/70 160/98/70 159/97/70
f 160/98/71 162/100/71 161/99/71
f 162/100/72 164/102/72 163/101/72
f 164/102/73 166/104/73 165/103/73
f 166/104/74 168/106/74 167/105/74
f 168/106/75 170/108/75 169/107/75
f 170/108/76 172/110/76 171/109/76
f 172/110/77 174/112/77 173/111/77
f 174/112/78 176/114/108 175/113/78
f 176/114/79 178/116/79 177/115/79
f 178/116/80 180/118/80 179/117/80
f 180/118/81 182/120/81 181/119/81
f 182/120/83 184/122/83 183/121/83
f 184/122/84 186/124/84 185/123/84
f 186/124/85 188/126/85 187/125/85
f 188/126/86 190/128/86 189/127/86
f 190/128/87 192/130/87 191/129/87
f 192/130/88 130/132/88 129/131/88
f 195/68/89 196/70/89 194/67/89
f 197/71/90 198/72/90 196/70/90
f 199/73/74 200/74/74 198/72/74
f 201/75/75 202/76/75 200/74/75
f 203/77/76 204/78/76 202/76/76
f 205/79/77 206/80/77 204/78/77
f 207/81/91 208/82/91 206/80/91
f 209/83/92 210/84/92 208/82/92
f 211/85/93 212/86/93 210/84/93
f 213/87/94 214/88/94 212/86/94
f 215/89/83 216/90/83 214/88/83
f 217/91/84 218/92/84 216/90/84
f 219/93/85 220/94/85 218/92/85
f 221/95/86 222/96/86 220/94/86
f 223/97/95 224/98/95 222/96/95
f 225/99/96 226/100/96 224/98/96
f 227/101/97 228/102/97 226/100/97
f 229/103/98 230/104/98 228/102/98
f 231/105/57 232/106/57 230/104/57
f 233/107/58 234/108/58 232/106/58
f 235/109/59 236/110/59 234/108/59
f 237/111/60 238/112/60 236/110/60
f 239/113/99 240/114/99 238/112/99
f 241/115/100 242/116/100 240/114/100
f 243/117/101 244/118/101 242/116/101
f 245/119/102 246/120/102 244/118/102
f 247/121/66 248/122/66 246/120/66
f 249/123/67 250/124/67 248/122/67
f 251/125/68 252/126/68 250/124/68
f 253/127/69 254/128/69 252/126/69
f 255/129/103 256/130/103 254/128/103
f 193/131/104 194/132/104 256/130/104
f 131/68/105 195/68/105 193/69/105
f 132/70/106 130/67/106 194/67/106
f 131/68/105 133/71/105 197/71/105
f 132/70/106 196/70/106 198/72/106
f 135/73/105 199/73/105 197/71/105
f 134/72/106 198/72/106 200/74/106
f 135/73/105 137/75/105 201/75/105
f 136/74/106 200/74/106 202/76/106
f 139/77/105 203/77/105 201/75/105
f 140/78/106 138/76/106 202/76/106
f 141/79/105 205/79/105 203/77/105
f 140/78/106 204/78/106 206/80/106
f 143/81/105 207/81/105 205/79/105
f 144/82/106 142/80/106 206/80/106
f 143/81/105 145/83/105 209/83/105
f 144/82/106 208/82/106 210/84/106
f 147/85/105 211/85/105 209/83/105
f 148/86/106 146/84/106 210/84/106
f 147/85/105 149/87/105 213/87/105
f 148/86/106 212/86/106 214/88/106
f 151/89/105 215/89/105 213/87/105
f 150/88/106 214/88/106 216/90/106
f 151/89/105 153/91/105 217/91/105
f 152/90/106 216/90/106 218/92/106
f 155/93/105 219/93/105 217/91/105
f 156/94/106 154/92/106 218/92/106
f 157/95/105 221/95/105 219/93/105
f 156/94/106 220/94/106 222/96/106
f 159/97/105 223/97/105 221/95/105
f 160/98/106 158/96/106 222/96/106
f 159/97/105 161/99/105 225/99/105
f 160/98/106 224/98/106 226/100/106
f 163/101/105 227/101/105 225/99/105
f 164/102/106 162/100/106 226/100/106
f 163/101/105 165/103/105 229/103/105
f 164/102/106 228/102/106 230/104/106
f 167/105/105 231/105/105 229/103/105
f 166/104/106 230/104/106 232/106/106
f 167/105/105 169/107/105 233/107/105
f 168/106/106 232/106/106 234/108/106
f 171/109/105 235/109/105 233/107/105
f 172/110/106 170/108/106 234/108/106
f 173/111/105 237/111/105 235/109/105
f 172/110/106 236/110/106 238/112/106
f 175/113/105 239/113/105 237/111/105
f 176/114/106 174/112/106 238/112/106
f 175/113/105 177/115/105 241/115/105
f 176/114/106 240/114/106 242/116/106
f 179/117/105 243/117/105 241/115/105
f 180/118/106 178/116/106 242/116/106
f 179/117/105 181/119/105 245/119/105
f 180/118/106 244/118/106 246/120/106
f 183/121/105 247/121/105 245/119/105
f 182/120/106 246/120/106 248/122/106
f 183/121/105 185/123/105 249/123/105
f 184/122/106 248/122/106 250/124/106
f 187/125/105 251/125/105 249/123/105
f 188/126/106 186/124/106 250/124/106
f 189/127/105 253/127/105 251/125/105
f 188/126/106 252/126/106 254/128/106
f 191/129/105 255/129/105 253/127/105
f 192/130/106 190/128/106 254/128/106
f 191/129/105 129/131/105 193/131/105
f 192/130/106 256/130/106 194/132/106
