# Blender 4.5.4 LTS
# www.blender.org
o Object.101
v -0.068363 -0.303303 -0.327703
v -0.073831 -0.303303 -0.323751
v 0.106552 -0.303304 -0.285602
v 0.095392 -0.303304 -0.302486
v 0.081592 -0.303303 -0.317283
v 0.071082 -0.303303 -0.325796
v 0.047631 -0.303303 -0.339042
v 0.028419 -0.303303 -0.345400
v 0.021800 -0.303303 -0.346797
v 0.008419 -0.303303 -0.348480
v 0.114742 -0.303304 -0.267101
v 0.119762 -0.303304 -0.247495
v -0.005100 -0.303303 -0.348663
v -0.025176 -0.303303 -0.346132
v 0.120692 -0.303304 -0.213821
v -0.044552 -0.303303 -0.340302
v 0.106552 -0.303304 -0.169069
v -0.093294 -0.303303 -0.305072
v 0.099442 -0.303304 -0.157627
v 0.103162 -0.303304 -0.163250
v -0.108141 -0.303303 -0.282590
v 0.081602 -0.303303 -0.137392
v -0.113608 -0.303303 -0.270236
v 0.041378 -0.303303 -0.113152
v -0.121022 -0.303303 -0.217211
v -0.119144 -0.303303 -0.203813
v -0.056772 -0.303303 -0.119972
v -0.068318 -0.303303 -0.126927
v -0.111034 -0.303303 -0.178135
v -0.073811 -0.303303 -0.130890
v -0.050701 -0.303303 -0.116978
v -0.097428 -0.303303 -0.154833
v -0.084039 -0.303303 -0.139663
v -0.101324 -0.303303 -0.160380
v -0.088800 -0.303303 -0.144485
v -0.044484 -0.303303 -0.114328
v -0.079036 -0.303303 -0.135126
v -0.031676 -0.303303 -0.110092
v -0.025103 -0.303303 -0.108509
v 0.008458 -0.303303 -0.106182
v 0.015191 -0.303303 -0.106841
v 0.034986 -0.303303 -0.111036
v 0.021844 -0.303303 -0.107866
v 0.071142 -0.303303 -0.128905
v 0.086492 -0.303303 -0.142083
v 0.087682 -0.303303 -0.147965
v -0.084081 -0.303303 -0.314958
v -0.079091 -0.303303 -0.319484
v -0.031721 -0.303303 -0.344556
v 0.007440 -0.338228 -0.373187
v -0.070842 -0.338228 -0.355043
v 0.014793 -0.338228 -0.372627
v -0.077252 -0.338228 -0.351275
v 0.057629 -0.338228 -0.361526
v -0.131108 -0.338228 -0.291678
v 0.064322 -0.338229 -0.358450
v 0.070912 -0.338229 -0.355006
v 0.089412 -0.338229 -0.342804
v 0.119882 -0.338229 -0.310755
v 0.141392 -0.338229 -0.263935
v 0.131132 -0.338229 -0.291629
v 0.127722 -0.338229 -0.298167
v 0.123962 -0.338229 -0.304551
v -0.141374 -0.338228 -0.263979
v -0.143050 -0.338228 -0.256760
v 0.110842 -0.338229 -0.322426
v 0.139362 -0.338229 -0.271020
v 0.095162 -0.338229 -0.338113
v 0.022142 -0.338228 -0.371687
v -0.050695 -0.338228 -0.364295
v -0.083404 -0.338228 -0.347220
v -0.095120 -0.338228 -0.338154
v -0.110794 -0.338228 -0.322483
v -0.144364 -0.338228 -0.249457
v 0.088112 -0.303303 -0.160937
v -0.121395 -0.303303 -0.223923
v -0.121395 -0.303303 -0.230668
v -0.121022 -0.303303 -0.237444
v -0.120275 -0.303303 -0.244128
v -0.119155 -0.303303 -0.250777
v -0.117663 -0.303303 -0.257395
v -0.115816 -0.303303 -0.263866
v -0.111038 -0.303303 -0.276511
v -0.104907 -0.303303 -0.288503
v -0.101332 -0.303303 -0.294262
v -0.097464 -0.303303 -0.299780
v -0.088814 -0.303303 -0.310156
v -0.062692 -0.303303 -0.331337
v -0.056798 -0.303303 -0.334669
v -0.050747 -0.303303 -0.337661
v -0.038189 -0.303303 -0.342609
v -0.018520 -0.303303 -0.347349
v -0.011815 -0.303303 -0.348196
v 0.001663 -0.303303 -0.348758
v 0.015117 -0.303303 -0.347826
v 0.034915 -0.303303 -0.343643
v 0.041332 -0.303303 -0.341520
v 0.053744 -0.303303 -0.336231
v 0.059717 -0.303303 -0.333072
v 0.065522 -0.303303 -0.329582
v 0.076442 -0.303303 -0.321690
v 0.086442 -0.303303 -0.312626
v 0.091052 -0.303304 -0.307689
v 0.099402 -0.303304 -0.297089
v 0.103132 -0.303304 -0.291456
v 0.109612 -0.303304 -0.279615
v 0.112342 -0.303304 -0.273444
v 0.116772 -0.303304 -0.260688
v 0.118442 -0.303304 -0.254151
v 0.120692 -0.303304 -0.240836
v 0.121252 -0.303304 -0.234114
v 0.121442 -0.303304 -0.227328
v -0.120264 -0.303303 -0.210466
v -0.117661 -0.303303 -0.197255
v -0.115795 -0.303303 -0.190732
v -0.113585 -0.303303 -0.184357
v -0.108112 -0.303303 -0.172015
v -0.104873 -0.303303 -0.166093
v -0.093249 -0.303303 -0.149529
v -0.062630 -0.303303 -0.123282
v -0.038158 -0.303303 -0.112035
v -0.018483 -0.303303 -0.107300
v -0.011772 -0.303303 -0.106460
v -0.005026 -0.303303 -0.105991
v 0.001704 -0.303303 -0.105897
v 0.028454 -0.303303 -0.109268
v 0.047659 -0.303303 -0.115630
v 0.053809 -0.303303 -0.118459
v 0.059762 -0.303303 -0.121607
v 0.065542 -0.303303 -0.125092
v 0.076492 -0.303303 -0.132999
v 0.091092 -0.303304 -0.147009
v 0.095402 -0.303304 -0.152187
v 0.109642 -0.303304 -0.175106
v 0.112372 -0.303304 -0.181269
v 0.114752 -0.303304 -0.187566
v 0.116792 -0.303304 -0.194035
v 0.118462 -0.303304 -0.200567
v 0.119762 -0.303304 -0.207163
v 0.121252 -0.303304 -0.220543
v 0.144372 -0.338229 -0.249405
v 0.143062 -0.338229 -0.256686
v 0.136972 -0.338229 -0.278009
v 0.134222 -0.338229 -0.284903
v 0.115512 -0.338229 -0.316695
v 0.105862 -0.338229 -0.327948
v 0.100642 -0.338229 -0.333163
v 0.083452 -0.338229 -0.347190
v 0.077292 -0.338229 -0.351248
v 0.050764 -0.338228 -0.364269
v 0.043730 -0.338228 -0.366677
v 0.036635 -0.338228 -0.368708
v 0.029444 -0.338228 -0.370377
v 0.000039 -0.338228 -0.373375
v -0.007392 -0.338228 -0.373191
v -0.014739 -0.338228 -0.372631
v -0.022071 -0.338228 -0.371698
v -0.029388 -0.338228 -0.370390
v -0.036581 -0.338228 -0.368722
v -0.043678 -0.338228 -0.366691
v -0.057581 -0.338228 -0.361549
v -0.064281 -0.338228 -0.358469
v -0.089360 -0.338228 -0.342846
v -0.100605 -0.338228 -0.333202
v -0.105823 -0.338228 -0.327983
v -0.115484 -0.338228 -0.316738
v -0.119847 -0.338228 -0.310795
v -0.123920 -0.338228 -0.304617
v -0.127698 -0.338228 -0.298209
v -0.134193 -0.338228 -0.284965
v -0.136950 -0.338228 -0.278069
v -0.139344 -0.338228 -0.271073
v 0.152402 -0.349341 -0.027303
v 0.152402 -0.349341 -0.030478
v 0.152402 -0.315686 -0.030478
v 0.152402 -0.315686 -0.027303
v -0.152400 -0.349341 -0.030478
v -0.152400 -0.349341 -0.027303
v 0.007150 -0.374462 -0.166305
v -0.005924 -0.374462 -0.162301
v 0.007047 -0.374462 -0.165097
v -0.000000 -0.375058 -0.166305
v -0.007125 -0.374462 -0.165699
v -0.006516 -0.374462 -0.163360
v -0.006920 -0.374462 -0.168107
v 0.006742 -0.374462 -0.163923
v -0.007125 -0.374462 -0.166911
v 0.006242 -0.374462 -0.162818
v 0.005563 -0.374462 -0.161812
v 0.004724 -0.374462 -0.160938
v 0.003749 -0.374462 -0.160217
v 0.002666 -0.374462 -0.159671
v 0.001506 -0.374462 -0.159316
v 0.000303 -0.374462 -0.159161
v -0.000908 -0.374462 -0.159213
v -0.002094 -0.374462 -0.159468
v -0.003219 -0.374462 -0.159921
v -0.004252 -0.374462 -0.160555
v -0.005162 -0.374462 -0.161358
v -0.006920 -0.374462 -0.164504
v -0.006516 -0.374462 -0.169250
v -0.005924 -0.374462 -0.170309
v -0.005162 -0.374462 -0.171253
v -0.004252 -0.374462 -0.172054
v -0.003219 -0.374462 -0.172690
v -0.002094 -0.374462 -0.173141
v 0.001506 -0.374462 -0.173294
v 0.000303 -0.374462 -0.173449
v -0.000908 -0.374462 -0.173397
v 0.002666 -0.374462 -0.172940
v 0.003749 -0.374462 -0.172394
v 0.004724 -0.374462 -0.171673
v 0.005563 -0.374462 -0.170797
v 0.006242 -0.374462 -0.169792
v 0.006742 -0.374462 -0.168687
v 0.007047 -0.374462 -0.167514
v -0.152400 -0.315685 -0.027303
v -0.152400 -0.315685 -0.030478
v 0.074932 -0.329974 -0.360030
v -0.105508 -0.329973 -0.337297
v -0.108535 -0.329973 -0.334309
v -0.099235 -0.329973 -0.342992
v -0.063677 -0.329973 -0.365786
v -0.059792 -0.329973 -0.367509
v -0.043895 -0.329973 -0.373267
v -0.023256 -0.329973 -0.377941
v -0.035688 -0.329973 -0.375491
v -0.002158 -0.329973 -0.379711
v -0.010593 -0.329973 -0.379360
v 0.010568 -0.329973 -0.379360
v 0.002074 -0.329973 -0.379711
v 0.023173 -0.329973 -0.377954
v 0.014796 -0.329973 -0.379009
v 0.035666 -0.329973 -0.375495
v 0.039774 -0.329973 -0.374447
v 0.047860 -0.329973 -0.372016
v 0.085752 -0.329974 -0.353311
v 0.059773 -0.329973 -0.367516
v 0.095932 -0.329974 -0.345746
v 0.114262 -0.329974 -0.328175
v 0.102382 -0.329974 -0.340211
v 0.148632 -0.329974 -0.260987
v 0.152402 -0.329974 -0.227328
v 0.151862 -0.329974 -0.240067
v 0.152162 -0.329974 -0.235840
v 0.135682 -0.329974 -0.296720
v 0.142542 -0.329974 -0.281246
v 0.122282 -0.329974 -0.318285
v 0.133712 -0.329974 -0.300455
v 0.111412 -0.329974 -0.331311
v 0.117022 -0.329974 -0.324952
v 0.082222 -0.329974 -0.355645
v 0.051860 -0.329973 -0.370630
v -0.150927 -0.329973 -0.248463
v 0.131612 -0.329974 -0.304166
v 0.124752 -0.329974 -0.314863
v -0.129459 -0.329973 -0.307737
v 0.071222 -0.329974 -0.362061
v -0.148652 -0.329973 -0.260911
v -0.131638 -0.329973 -0.304121
v -0.151864 -0.329973 -0.240067
v -0.141013 -0.329973 -0.285127
v -0.142561 -0.329973 -0.281199
v -0.139354 -0.329973 -0.289016
v -0.145334 -0.329973 -0.273186
v -0.143998 -0.329973 -0.277233
v -0.039803 -0.329973 -0.374437
v -0.055889 -0.329973 -0.369110
v -0.078653 -0.329973 -0.357863
v -0.085783 -0.329973 -0.353290
v -0.152400 -0.329973 -0.227329
v -0.124792 -0.329973 -0.314803
v -0.135702 -0.329973 -0.296681
v 0.143992 -0.329974 -0.277238
v -0.071294 -0.329973 -0.362021
v 0.099232 -0.335054 -0.342992
v -0.122281 -0.335053 -0.318285
v -0.119710 -0.335053 -0.321642
v -0.114258 -0.335053 -0.328175
v -0.099189 -0.335053 -0.343028
v -0.105483 -0.335053 -0.337325
v -0.089211 -0.335053 -0.350888
v -0.092601 -0.335053 -0.348366
v -0.074934 -0.335053 -0.360030
v -0.082222 -0.335053 -0.355645
v -0.047860 -0.335053 -0.372016
v -0.051860 -0.335053 -0.370630
v -0.043832 -0.335053 -0.373288
v -0.031511 -0.335053 -0.376432
v -0.035666 -0.335053 -0.375495
v -0.027347 -0.335053 -0.377252
v -0.023173 -0.335053 -0.377954
v -0.133709 -0.335053 -0.300455
v -0.010568 -0.335053 -0.379360
v -0.018989 -0.335053 -0.378540
v -0.006316 -0.335053 -0.379594
v 0.014823 -0.335053 -0.379004
v 0.031573 -0.335053 -0.376422
v 0.019054 -0.335053 -0.378529
v 0.047940 -0.335053 -0.371989
v 0.039803 -0.335053 -0.374437
v 0.035688 -0.335053 -0.375491
v 0.063672 -0.335054 -0.365786
v 0.078652 -0.335054 -0.357863
v 0.075002 -0.335054 -0.359991
v 0.095992 -0.335054 -0.345696
v 0.139352 -0.335054 -0.289016
v 0.149522 -0.335054 -0.256781
v 0.151452 -0.335054 -0.244275
v 0.152402 -0.335054 -0.227328
v 0.151862 -0.335054 -0.240067
v 0.152342 -0.335054 -0.231594
v 0.150282 -0.335054 -0.252632
v 0.145332 -0.335054 -0.273186
v 0.122302 -0.335054 -0.318251
v 0.119722 -0.335054 -0.321634
v 0.133712 -0.335054 -0.300448
v 0.117062 -0.335054 -0.324911
v 0.092672 -0.335054 -0.348314
v 0.089262 -0.335054 -0.350845
v 0.105512 -0.335054 -0.337297
v 0.006380 -0.335053 -0.379594
v -0.129416 -0.335053 -0.307804
v 0.043895 -0.335053 -0.373267
v -0.148633 -0.335053 -0.260987
v -0.152159 -0.335053 -0.235840
v -0.143995 -0.335053 -0.277238
v -0.145323 -0.335053 -0.273228
v -0.146538 -0.335053 -0.269186
v -0.151454 -0.335053 -0.244275
v -0.039774 -0.335053 -0.374447
v -0.067458 -0.335053 -0.363985
v -0.078601 -0.335053 -0.357891
v -0.149514 -0.335053 -0.256830
v 0.144002 -0.335054 -0.277233
v 0.141012 -0.335054 -0.285127
v -0.071219 -0.335053 -0.362061
v 0.002158 -0.335053 -0.379711
v 0.006316 -0.329973 -0.379594
v 0.010593 -0.335053 -0.379360
v 0.018989 -0.329973 -0.378540
v 0.023256 -0.335053 -0.377941
v 0.027429 -0.335053 -0.377238
v 0.027347 -0.329973 -0.377252
v 0.031511 -0.329973 -0.376432
v 0.043832 -0.329973 -0.373288
v 0.051938 -0.335053 -0.370603
v 0.055831 -0.329973 -0.369130
v 0.055889 -0.335053 -0.369110
v 0.059792 -0.335054 -0.367509
v 0.063652 -0.329974 -0.365801
v 0.067462 -0.329974 -0.363985
v 0.067522 -0.335054 -0.363952
v 0.071292 -0.335054 -0.362021
v 0.078602 -0.329974 -0.357891
v 0.082232 -0.335054 -0.355636
v 0.085782 -0.335054 -0.353290
v 0.089212 -0.329974 -0.350888
v 0.092602 -0.329974 -0.348366
v 0.099192 -0.329974 -0.343028
v 0.102402 -0.335054 -0.340202
v 0.105482 -0.329974 -0.337325
v 0.108492 -0.329974 -0.334361
v 0.108532 -0.335054 -0.334309
v 0.111472 -0.335054 -0.331248
v 0.114312 -0.335054 -0.328116
v 0.119712 -0.329974 -0.321642
v 0.124792 -0.335054 -0.314803
v 0.127182 -0.335054 -0.311298
v 0.127132 -0.329974 -0.311369
v 0.129462 -0.335054 -0.307737
v 0.129412 -0.329974 -0.307804
v 0.131642 -0.335054 -0.304121
v 0.135702 -0.335054 -0.296681
v 0.137552 -0.329974 -0.292935
v 0.137582 -0.335054 -0.292868
v 0.139322 -0.329974 -0.289095
v 0.140982 -0.329974 -0.285198
v 0.142562 -0.335054 -0.281199
v 0.145322 -0.329974 -0.273228
v 0.146542 -0.329974 -0.269186
v 0.146552 -0.335054 -0.269114
v 0.147662 -0.335054 -0.265022
v 0.147642 -0.329974 -0.265105
v 0.148652 -0.335054 -0.260911
v 0.149512 -0.329974 -0.256830
v 0.150282 -0.329974 -0.252635
v 0.150922 -0.335054 -0.248463
v 0.150922 -0.329974 -0.248463
v 0.151452 -0.329974 -0.244275
v 0.152162 -0.335054 -0.235840
v 0.152342 -0.329974 -0.231594
v -0.006380 -0.329973 -0.379594
v -0.002074 -0.335053 -0.379711
v -0.014823 -0.329973 -0.379004
v -0.019054 -0.329973 -0.378529
v -0.014796 -0.335053 -0.379009
v -0.027429 -0.329973 -0.377238
v -0.031573 -0.329973 -0.376422
v -0.047940 -0.329973 -0.371989
v -0.051938 -0.329973 -0.370603
v -0.055831 -0.335053 -0.369130
v -0.059773 -0.335053 -0.367516
v -0.067518 -0.329973 -0.363952
v -0.063649 -0.335053 -0.365801
v -0.075006 -0.329973 -0.359991
v -0.082237 -0.329973 -0.355636
v -0.089266 -0.329973 -0.350845
v -0.085756 -0.335053 -0.353311
v -0.092668 -0.329973 -0.348314
v -0.095991 -0.329973 -0.345696
v -0.095927 -0.335053 -0.345746
v -0.102398 -0.329973 -0.340202
v -0.102387 -0.335053 -0.340211
v -0.111470 -0.329973 -0.331248
v -0.108487 -0.335053 -0.334361
v -0.111412 -0.335053 -0.331311
v -0.114312 -0.329973 -0.328116
v -0.117061 -0.329973 -0.324911
v -0.119718 -0.329973 -0.321634
v -0.117024 -0.335053 -0.324952
v -0.122303 -0.329973 -0.318251
v -0.127177 -0.329973 -0.311298
v -0.124752 -0.335053 -0.314863
v -0.127131 -0.335053 -0.311369
v -0.133714 -0.329973 -0.300448
v -0.131609 -0.335053 -0.304166
v -0.137584 -0.329973 -0.292868
v -0.135686 -0.335053 -0.296720
v -0.137554 -0.335053 -0.292935
v -0.139320 -0.335053 -0.289095
v -0.140982 -0.335053 -0.285198
v -0.142540 -0.335053 -0.281246
v -0.146556 -0.329973 -0.269114
v -0.147662 -0.329973 -0.265022
v -0.147641 -0.335053 -0.265105
v -0.149527 -0.329973 -0.256781
v -0.150285 -0.329973 -0.252632
v -0.150284 -0.335053 -0.252635
v -0.151454 -0.329973 -0.244275
v -0.150927 -0.335053 -0.248463
v -0.151864 -0.335053 -0.240067
v -0.152159 -0.329973 -0.235840
v -0.152337 -0.329973 -0.231594
v -0.152337 -0.335053 -0.231594
v -0.152400 -0.335053 -0.227329
vn -0.0000 -1.0000 -0.0000
vn 0.1333 -0.9910 -0.0084
vn 0.1227 -0.9923 0.0182
vn 0.1019 -0.9942 0.0341
vn 0.0904 -0.9947 0.0494
vn 0.0789 -0.9949 0.0634
vn 0.0667 -0.9948 0.0764
vn 0.0536 -0.9946 0.0892
vn 0.0389 -0.9940 0.1023
vn 0.0220 -0.9929 0.1166
vn 0.0016 -0.9932 0.1168
vn -0.0122 -0.9921 0.1248
vn -0.0308 -0.9935 0.1093
vn -0.0465 -0.9943 0.0957
vn -0.0603 -0.9947 0.0828
vn -0.0730 -0.9949 0.0700
vn -0.0917 -0.9939 0.0614
vn -0.1039 -0.9935 0.0456
vn -0.1162 -0.9928 0.0280
vn -0.1296 -0.9915 0.0077
vn -0.1458 -0.9892 -0.0174
vn -0.1284 -0.9910 -0.0389
vn -0.1376 -0.9888 -0.0582
vn -0.1270 -0.9884 -0.0838
vn -0.1013 -0.9904 -0.0940
vn -0.0813 -0.9909 -0.1070
vn -0.0632 -0.9901 -0.1254
vn -0.0439 -0.9909 -0.1274
vn -0.0130 -0.9911 -0.1327
vn 0.0070 -0.9917 -0.1287
vn 0.0243 -0.9910 -0.1314
vn 0.0468 -0.9909 -0.1265
vn 0.0538 -0.9930 -0.1051
vn 0.0520 -0.9969 -0.0591
vn 0.1055 -0.9918 -0.0719
vn 0.1289 -0.9893 -0.0687
vn 0.1460 -0.9878 -0.0537
vn 0.1310 -0.9909 -0.0293
vn 0.2805 -0.6855 -0.6718
vn 0.3124 -0.5238 -0.7925
vn 0.3662 0.0004 -0.9305
vn 0.3704 -0.5852 -0.7213
vn 0.4172 -0.3507 -0.8384
vn 0.4234 0.2733 -0.8637
vn 0.6940 -0.3089 -0.6504
vn 0.6854 -0.2805 -0.6720
vn 0.7124 0.0005 -0.7018
vn 0.7237 -0.5225 -0.4509
vn 0.8068 0.2633 -0.5290
vn 0.8149 0.2734 -0.5110
vn 0.7109 -0.5236 -0.4695
vn 0.8755 0.4147 -0.2481
vn 0.8815 0.4153 -0.2248
vn 0.9139 -0.3298 -0.2366
vn 0.9291 -0.2607 -0.2622
vn 0.9722 -0.0001 -0.2342
vn -0.7056 0.2735 -0.6537
vn -0.6425 -0.4556 -0.6161
vn -0.6938 -0.3095 -0.6503
vn -0.8345 0.0001 -0.5511
vn -0.5980 -0.6868 -0.4131
vn -0.7106 -0.5239 -0.4696
vn -0.9655 0.2582 -0.0334
vn -0.9999 -0.0000 -0.0148
vn 0.2444 -0.9697 0.0048
vn 0.8348 -0.5505 -0.0000
vn 0.9817 -0.1902 -0.0138
vn 0.0583 -0.9836 -0.1709
vn 0.0825 -0.9585 -0.2730
vn 1.0000 -0.0000 -0.0000
vn 0.3713 0.9285 -0.0000
vn 0.0988 0.9951 0.0028
vn 0.1707 0.9853 0.0048
vn 0.3208 0.9471 0.0090
vn 0.2534 0.9671 0.0211
vn 0.2095 0.9774 0.0293
vn 0.1001 0.9948 0.0197
vn 0.0898 0.9958 0.0183
vn 0.1373 0.9895 0.0445
vn 0.0783 0.9967 0.0207
vn 0.0696 0.9973 0.0227
vn 0.0625 0.9977 0.0244
vn 0.0516 0.9984 0.0228
vn 0.1039 0.9932 0.0532
vn 0.0847 0.9952 0.0493
vn 0.0479 0.9984 0.0289
vn 0.0919 0.9941 0.0572
vn 0.0372 0.9990 0.0246
vn 0.0823 0.9947 0.0611
vn 0.0744 0.9952 0.0629
vn 0.0311 0.9992 0.0259
vn 0.0765 0.9950 0.0637
vn 0.0713 0.9952 0.0664
vn 0.0207 0.9996 0.0215
vn 0.0572 0.9966 0.0597
vn 0.0664 0.9954 0.0692
vn 0.0620 0.9955 0.0721
vn 0.0576 0.9955 0.0753
vn 0.0535 0.9955 0.0786
vn 0.0181 0.9994 0.0308
vn 0.0238 0.9988 0.0425
vn 0.0456 0.9953 0.0860
vn 0.0216 0.9988 0.0446
vn 0.0347 0.9966 0.0742
vn 0.0373 0.9947 0.0955
vn 0.0375 0.9948 0.0950
vn 0.0145 0.9989 0.0437
vn 0.0254 0.9967 0.0768
vn 0.0332 0.9944 0.1004
vn 0.0288 0.9939 0.1066
vn 0.0241 0.9932 0.1136
vn 0.0088 0.9983 0.0574
vn 0.0072 0.9978 0.0662
vn 0.0161 0.9918 0.1267
vn 0.0079 0.9967 0.0805
vn 0.0061 0.9895 0.1442
vn -0.0000 0.9878 0.1556
vn 0.9550 0.2631 -0.1367
vn 0.9091 -0.3866 -0.1555
vn 0.8971 0.4152 -0.1511
vn -0.0000 -0.9823 0.1871
vn 0.9816 0.1902 -0.0138
vn 0.8598 0.5094 -0.0364
vn 0.8635 0.5007 -0.0613
vn 0.9966 0.0416 -0.0707
vn 0.7051 0.7074 -0.0500
vn 0.6500 0.7581 -0.0534
vn 0.0204 0.9998 -0.0017
vn 0.3508 0.9360 -0.0287
vn 0.5256 0.8503 -0.0287
vn 0.3943 0.9189 -0.0110
vn -0.0000 1.0000 -0.0000
vn -0.0000 1.0000 0.0001
vn 0.0002 1.0000 0.0001
vn 0.0003 1.0000 0.0002
vn 0.0007 1.0000 0.0005
vn 0.0020 1.0000 0.0017
vn 0.1101 0.9720 -0.2076
vn 0.2019 0.9025 -0.3806
vn -0.0004 1.0000 0.0003
vn 0.0934 0.9546 -0.2827
vn 0.1339 0.9040 -0.4061
vn 0.0600 0.9569 -0.2841
vn 0.0862 0.9080 -0.4101
vn -0.0399 0.9485 -0.3142
vn -0.0489 0.9187 -0.3920
vn -0.0005 1.0000 0.0006
vn -0.0725 0.9508 -0.3011
vn -0.1285 0.8707 -0.4747
vn 0.0002 1.0000 0.0010
vn 0.0011 1.0000 0.0002
vn -0.0002 1.0000 0.0011
vn -0.1538 0.9695 -0.1910
vn -0.2260 0.9377 -0.2637
vn -0.3239 0.8838 -0.3376
vn -0.1909 0.9746 -0.1172
vn -0.2898 0.9398 -0.1811
vn 0.0002 1.0000 0.0011
vn 0.0010 1.0000 0.0006
vn 0.0013 1.0000 0.0005
vn 0.0013 1.0000 0.0002
vn -0.0175 0.9998 -0.0006
vn -0.2747 0.9614 -0.0155
vn -0.2299 0.9732 -0.0012
vn 0.0008 1.0000 0.0010
vn -0.0462 0.9988 0.0138
vn -0.0746 0.9970 0.0209
vn -0.0733 0.9970 0.0242
vn 0.0009 1.0000 0.0007
vn -0.0457 0.9986 0.0256
vn -0.0522 0.9983 0.0271
vn -0.0447 0.9985 0.0314
vn -0.0417 0.9987 0.0293
vn -0.0421 0.9982 0.0416
vn -0.0340 0.9988 0.0352
vn -0.0316 0.9988 0.0367
vn -0.0294 0.9988 0.0384
vn -0.0214 0.9993 0.0297
vn -0.0325 0.9973 0.0658
vn -0.0209 0.9987 0.0463
vn -0.0120 0.9995 0.0281
vn -0.0214 0.9958 0.0891
vn -0.0063 0.9996 0.0263
vn -0.0135 0.9942 0.1064
vn -0.0061 0.9976 0.0690
vn -0.0024 0.9971 0.0763
vn -0.0002 0.9997 0.0232
vn 0.0007 1.0000 -0.0002
vn -0.0001 1.0000 -0.0006
vn 0.0005 1.0000 -0.0004
vn -0.0099 0.9904 0.1375
vn -0.0215 0.9928 0.1177
vn -0.0265 0.9936 0.1100
vn -0.0310 0.9942 0.1034
vn -0.0354 0.9946 0.0976
vn -0.0415 0.9950 0.0903
vn -0.0475 0.9953 0.0840
vn -0.0515 0.9954 0.0803
vn -0.0619 0.9955 0.0723
vn -0.0738 0.9951 0.0651
vn -0.0792 0.9949 0.0624
vn -0.0852 0.9946 0.0598
vn -0.0920 0.9941 0.0572
vn -0.0919 0.9941 0.0584
vn -0.0997 0.9935 0.0545
vn -0.1084 0.9928 0.0518
vn -0.1190 0.9917 0.0488
vn -0.1189 0.9917 0.0499
vn -0.1385 0.9894 0.0439
vn -0.1667 0.9853 0.0377
vn -0.1928 0.9807 0.0325
vn -0.2286 0.9732 0.0257
vn -0.2832 0.9589 0.0157
vn -0.2832 0.9589 0.0170
vn -0.4343 0.9007 -0.0116
vn -0.3707 0.9288 -0.0013
vn -0.3709 0.9287 -0.0000
vn -0.9976 -0.0000 -0.0696
vn -0.9984 -0.0000 -0.0558
vn -0.9984 0.0127 -0.0555
vn 0.2256 -0.9727 -0.0550
vn 0.2218 -0.9734 -0.0568
vn 0.2510 -0.9663 -0.0578
vn 0.4301 -0.8995 -0.0770
vn 0.3667 -0.9281 -0.0648
vn 0.3334 -0.9409 -0.0600
vn 0.4415 -0.8951 -0.0629
vn 0.4425 -0.8946 -0.0616
vn 0.4792 -0.8756 -0.0606
vn 0.5826 -0.8108 -0.0568
vn 0.7050 -0.7074 -0.0500
vn 0.8598 -0.5094 -0.0364
vn 0.9816 -0.1903 -0.0138
vn -0.1704 -0.9854 -0.0001
vn -0.1656 -0.9862 0.0053
vn 0.9991 -0.0000 -0.0424
vn -1.0000 -0.0000 -0.0000
vn 0.9999 -0.0000 -0.0141
vn 0.9975 -0.0000 -0.0708
vn 0.6497 0.7575 -0.0633
vn 0.4036 0.7576 -0.5130
vn 0.5623 0.8145 -0.1431
vn 0.2493 0.9663 -0.0646
vn 0.0001 1.0000 -0.0000
vn 0.5514 0.7979 -0.2434
vn 0.2218 0.9701 -0.0984
vn 0.0001 1.0000 -0.0001
vn 0.0002 1.0000 -0.0001
vn 0.0001 1.0000 -0.0006
vn 0.0004 1.0000 -0.0002
vn 0.0007 1.0000 -0.0005
vn 0.0020 1.0000 -0.0017
vn -0.4954 0.7576 -0.4249
vn 0.5292 0.7576 -0.3820
vn -0.6513 0.7570 -0.0527
vn -0.6506 0.7576 -0.0533
vn -0.7111 0.7013 -0.0496
vn -0.8624 0.5050 -0.0362
vn -0.9798 0.1994 -0.0145
vn -0.3231 -0.9408 -0.1020
vn -0.8772 -0.4086 -0.2520
vn -0.8124 -0.5236 -0.2566
vn 0.4324 -0.8940 -0.1173
vn -0.7785 -0.5240 -0.3456
vn -0.4038 -0.8950 -0.1897
vn -0.3542 -0.9230 -0.1502
vn 0.4384 -0.8940 -0.0922
vn 0.4381 -0.8942 -0.0923
vn 0.2248 -0.8949 -0.3855
vn 0.4431 -0.8939 -0.0680
vn 0.4416 -0.8947 -0.0677
vn -0.9452 -0.2976 -0.1343
vn -0.9508 0.2632 -0.1633
vn -0.9434 -0.2922 -0.1567
vn 0.9953 -0.0000 -0.0970
vn -0.9798 -0.1994 -0.0145
vn -0.8623 -0.5051 -0.0361
vn -0.7111 -0.7013 -0.0496
vn -0.5826 -0.8108 -0.0568
vn -0.4814 -0.8744 -0.0606
vn -0.4422 -0.8948 -0.0616
vn -0.3334 -0.9409 -0.0600
vn -0.2528 -0.9658 -0.0579
vn -0.2868 -0.9562 -0.0588
vn -0.2488 -0.9668 -0.0578
vn -0.2218 -0.9734 -0.0568
vn 0.6437 0.7575 -0.1085
vn 0.8989 0.4058 -0.1650
vn -0.2277 0.2831 -0.9317
vn -0.2379 0.4155 -0.8779
vn -0.5887 0.7581 -0.2806
vn 0.9204 0.2642 -0.2883
vn 0.5437 0.7581 -0.3600
vn 0.5440 0.7578 -0.3603
vn 0.9075 0.2742 -0.3181
vn 0.9035 0.2633 -0.3382
vn 0.6138 0.7576 -0.2221
vn 0.5065 0.7576 -0.4117
vn -0.7921 0.5480 -0.2688
vn -0.6164 0.7581 -0.2130
vn -0.6160 0.7581 -0.2141
vn 0.8314 0.4150 -0.3697
vn 0.8250 0.4175 -0.3808
vn -0.5586 0.7577 -0.3376
vn -0.5591 0.7576 -0.3369
vn 0.5774 0.7576 -0.3045
vn 0.5728 0.7576 -0.3130
vn 0.5727 0.7576 -0.3131
vn 0.5681 0.7576 -0.3215
vn 0.0180 0.7576 -0.6525
vn 0.5500 0.7575 -0.3517
vn 0.8886 0.2734 -0.3682
vn 0.0540 0.7576 -0.6505
vn 0.5183 0.7576 -0.3968
vn -0.0919 -0.9450 -0.3138
vn -0.0796 -0.9481 -0.3078
vn 0.6951 0.4027 -0.5956
vn 0.6822 0.4152 -0.6018
vn 0.4894 0.7576 -0.4318
vn 0.7074 0.2633 -0.6560
vn 0.6192 -0.0004 -0.7852
vn 0.8969 -0.0005 -0.4422
vn 0.8971 -0.0004 -0.4418
vn 0.8967 -0.0004 -0.4426
vn 0.7764 0.0005 -0.6302
vn 0.4448 0.7575 -0.4778
vn 0.4321 0.7575 -0.4893
vn -0.6171 0.4256 -0.6618
vn -0.5753 0.5491 -0.6063
vn -0.6431 0.7581 -0.1083
vn -0.6436 0.7575 -0.1094
vn -0.6440 0.7574 -0.1075
vn -0.9922 -0.0000 -0.1248
vn -0.9904 -0.0000 -0.1385
vn 0.9903 -0.0000 -0.1387
vn 0.9921 -0.0000 -0.1256
vn -0.9953 -0.0000 -0.0970
vn -0.9996 -0.0000 -0.0283
vn -0.2967 -0.9512 -0.0849
vn 0.2112 -0.9748 -0.0715
vn 0.2107 -0.9749 -0.0721
vn 0.2140 -0.9740 -0.0746
vn 0.3584 -0.8956 -0.2636
vn 0.8855 -0.2865 -0.3657
vn 0.9353 0.0007 -0.3539
vn 0.8853 0.4135 -0.2128
vn 0.4640 -0.6837 -0.5633
vn 0.6512 -0.0001 -0.7589
vn 0.6098 -0.3433 -0.7144
vn 0.4059 -0.0011 -0.9139
vn -0.0000 -0.0000 1.0000
vn -0.4428 -0.8940 -0.0682
vn 0.5016 -0.3792 -0.7775
vn 0.4996 0.4249 -0.7549
vn 0.4574 -0.5583 -0.6922
vn -0.2863 -0.8944 -0.3436
vn -0.9308 -0.3146 -0.1863
vn -0.8734 -0.4504 -0.1851
vn -0.4382 -0.8941 -0.0929
vn 0.4877 -0.5743 -0.6576
vn 0.2292 -0.9280 -0.2936
vn 0.2623 -0.8958 -0.3587
vn -0.4321 -0.8943 -0.1168
vn -0.3291 -0.5902 -0.7371
vn -0.1354 -0.9452 -0.2972
vn -0.1208 -0.9573 -0.2628
vn 0.2179 -0.9740 -0.0624
vn -0.3044 -0.9456 -0.1145
vn -0.1954 -0.9766 -0.0902
vn -0.1956 -0.9765 -0.0899
vn -0.1987 -0.9757 -0.0928
vn 0.2029 -0.9759 -0.0805
vn 0.2032 -0.9759 -0.0800
vn -0.1830 -0.9777 -0.1028
vn -0.2447 -0.9567 -0.1579
vn -0.2699 -0.9443 -0.1884
vn -0.7210 -0.5163 -0.4621
vn -0.1555 -0.9797 -0.1266
vn -0.1550 -0.9798 -0.1265
vn -0.1574 -0.9790 -0.1299
vn -0.1466 -0.9803 -0.1325
vn -0.1489 -0.9795 -0.1359
vn -0.1381 -0.9808 -0.1381
vn -0.1331 -0.9810 -0.1410
vn 0.8668 -0.3997 -0.2981
vn 0.4220 -0.8953 -0.1424
vn 0.4211 -0.8955 -0.1440
vn -0.1207 -0.9816 -0.1481
vn -0.1226 -0.9808 -0.1518
vn -0.1120 -0.9819 -0.1525
vn -0.1138 -0.9812 -0.1562
vn 0.1122 -0.9819 -0.1524
vn 0.1140 -0.9811 -0.1562
vn 0.1118 -0.9817 -0.1539
vn -0.1696 -0.9470 -0.2727
vn -0.1805 -0.9293 -0.3222
vn -0.0854 -0.9828 -0.1636
vn -0.0869 -0.9820 -0.1675
vn 0.1362 -0.9558 -0.2607
vn 0.1354 -0.9518 -0.2753
vn -0.0675 -0.9833 -0.1692
vn -0.0686 -0.9825 -0.1733
vn -0.0586 -0.9834 -0.1715
vn -0.0595 -0.9827 -0.1756
vn -0.0641 -0.9482 -0.3113
vn -0.0485 -0.9484 -0.3134
vn -0.0302 -0.9527 -0.3025
vn 0.0227 -0.9839 -0.1773
vn 0.0180 -0.9839 -0.1777
vn -0.0159 -0.9484 -0.3168
vn -0.0073 -0.9447 -0.3279
vn 0.0056 -0.9840 -0.1778
vn 0.0045 -0.9840 -0.1783
vn 0.0046 -0.9832 -0.1826
vn 0.0136 -0.9839 -0.1780
vn -0.6481 0.7581 -0.0724
vn -0.6485 0.7577 -0.0734
vn -0.6489 0.7575 -0.0715
vn 0.0316 -0.9838 -0.1764
vn 0.0322 -0.9830 -0.1805
vn 0.0708 -0.9491 -0.3070
vn 0.0796 -0.9483 -0.3073
vn 0.0681 -0.9833 -0.1688
vn 0.0676 -0.9833 -0.1692
vn 0.0687 -0.9825 -0.1732
vn 0.1462 -0.9301 -0.3370
vn -0.1678 -0.9524 -0.2545
vn 0.0944 -0.9826 -0.1602
vn 0.0960 -0.9818 -0.1642
vn 0.1742 -0.9482 -0.2657
vn 0.1693 -0.9523 -0.2538
vn 0.1049 -0.9815 -0.1605
vn -0.1294 -0.9812 -0.1433
vn 0.1994 -0.9493 -0.2431
vn 0.1227 -0.9808 -0.1518
vn 0.1294 -0.9812 -0.1433
vn 0.1315 -0.9804 -0.1470
vn 0.1380 -0.9808 -0.1381
vn 0.1402 -0.9799 -0.1417
vn -0.2979 -0.8957 -0.3300
vn 0.1551 -0.9798 -0.1264
vn 0.1576 -0.9789 -0.1298
vn 0.1633 -0.9792 -0.1201
vn 0.1659 -0.9784 -0.1235
vn -0.1878 -0.9773 -0.0981
vn 0.2803 -0.9438 -0.1751
vn 0.2800 -0.9473 -0.1555
vn 0.2940 -0.9437 -0.1515
vn 0.1956 -0.9766 -0.0899
vn 0.1986 -0.9757 -0.0927
vn -0.7071 0.4136 -0.5735
vn -0.7472 -0.3131 -0.5862
vn -0.7559 0.2632 -0.5994
vn 0.8936 -0.3483 -0.2833
vn -0.9783 -0.0005 -0.2073
vn -0.9442 0.2735 -0.1834
vn -0.6294 -0.0003 -0.7771
vn -0.5531 0.4154 -0.7222
vn -0.6078 0.0001 -0.7941
vn -0.7405 -0.0001 -0.6720
vn -0.6768 0.4059 -0.6141
vn -0.9164 0.2738 -0.2921
vn 0.6826 -0.0000 -0.7308
vn -0.0277 -0.0003 -0.9996
vn -0.8808 0.2735 -0.3865
vn -0.7880 -0.5241 -0.3230
vn -0.8915 0.2628 -0.3691
vn -0.8108 0.0005 -0.5853
vn -0.8705 -0.0004 -0.4923
vn -0.8704 -0.0004 -0.4923
vn -0.8706 -0.0002 -0.4921
vn -0.6615 -0.0001 -0.7499
vn -0.3710 -0.6841 -0.6280
vn -0.4920 -0.0003 -0.8706
vn -0.4192 -0.5240 -0.7415
vn 0.1467 -0.9803 -0.1323
vn 0.1491 -0.9794 -0.1358
vn 0.3233 -0.8939 -0.3105
vn 0.6949 -0.5865 -0.4160
vn 0.3054 -0.8943 -0.3270
vn -0.0592 -0.8950 -0.4420
vn -0.0682 -0.8945 -0.4419
vn -0.3454 0.4135 -0.8425
vn -0.3715 -0.3346 -0.8661
vn -0.3756 0.2632 -0.8886
vn -0.7590 -0.0003 -0.6510
vn -0.7590 0.0001 -0.6511
vn -0.3602 0.7576 -0.5444
vn -0.6476 0.7576 -0.0815
vn -0.6486 0.7567 -0.0816
vn 0.6219 0.7577 -0.1977
vn 0.6217 0.7581 -0.1968
vn 0.3454 -0.8954 -0.2809
vn 0.3483 -0.8951 -0.2782
vn 0.3449 -0.8956 -0.2810
vn 0.8722 -0.3030 -0.3839
vn 0.4122 -0.8939 -0.1759
vn 0.1441 -0.8955 -0.4210
vn 0.1435 -0.8955 -0.4214
vn 0.4207 -0.8942 -0.1528
vn 0.4211 -0.8939 -0.1533
vn -0.2229 -0.5239 -0.8221
vn -0.1987 -0.5241 -0.8281
vn -0.7801 -0.5449 -0.3075
vn -0.9304 -0.0004 -0.3667
vn -0.8420 -0.0000 -0.5396
vn 0.5465 0.4015 -0.7350
vn 0.4367 -0.6873 -0.5804
vn 0.7026 -0.0009 -0.7116
vn 0.3146 -0.8955 -0.3149
vn 0.3139 -0.8959 -0.3144
vn -0.4210 -0.8941 -0.1528
vn -0.4215 -0.8939 -0.1529
vn -0.1461 -0.8949 -0.4216
vn -0.2447 -0.5239 -0.8159
vn -0.7691 -0.5239 -0.3661
vn -0.7952 -0.4619 -0.3929
vn -0.3898 -0.8941 -0.2206
vn 0.3976 -0.8947 -0.2037
vn 0.3948 -0.8948 -0.2086
vn 0.2870 -0.9388 -0.1905
vn -0.5821 -0.6844 -0.4391
vn -0.2777 -0.9382 -0.2067
vn -0.4377 -0.8956 -0.0790
vn -0.4380 -0.8955 -0.0788
vn -0.3400 -0.8940 -0.2918
vn -0.3233 -0.8941 -0.3100
vn 0.2146 -0.6839 -0.6973
vn 0.1857 -0.6862 -0.7033
vn -0.3052 -0.8942 -0.3275
vn 0.2978 -0.8959 -0.3297
vn -0.2770 -0.8942 -0.3517
vn 0.1992 -0.5239 -0.8281
vn 0.1855 -0.5407 -0.8205
vn -0.2572 -0.8941 -0.3667
vn -0.2665 -0.8948 -0.3582
vn -0.2415 -0.8948 -0.3756
vn 0.4133 -0.8955 -0.1649
vn 0.4128 -0.8957 -0.1654
vn 0.4143 -0.8952 -0.1644
vn -0.3980 -0.5240 -0.7530
vn -0.4332 -0.8957 -0.1006
vn -0.1925 -0.8943 -0.4039
vn 0.1834 -0.8950 -0.4066
vn -0.0590 -0.5241 -0.8496
vn -0.0883 -0.3536 -0.9312
vn -0.1583 -0.8941 -0.4190
vn 0.8226 -0.5483 -0.1508
vn -0.2990 -0.2883 -0.9097
vn 0.4049 -0.8952 -0.1861
vn -0.1354 -0.6875 -0.7135
vn -0.1762 -0.5240 -0.8333
vn -0.2050 -0.8953 -0.3954
vn 0.0564 -0.8957 -0.4411
vn -0.0497 -0.8943 -0.4447
vn -0.7700 -0.5843 -0.2565
vn -0.0347 -0.6869 -0.7259
vn 0.3304 -0.8951 -0.2996
vn -0.0051 -0.6833 -0.7301
vn -0.0000 -0.4737 -0.8807
vn -0.3303 -0.8955 -0.2985
vn 0.0248 -0.8941 -0.4472
vn -0.3831 -0.8957 -0.2259
vn -0.3836 -0.8956 -0.2254
vn 0.0960 -0.5082 -0.8559
vn 0.1191 -0.2624 -0.9576
vn 0.0500 -0.8942 -0.4449
vn 0.0338 -0.8957 -0.4434
vn 0.0865 -0.8942 -0.4392
vn -0.3463 -0.8950 -0.2810
vn -0.3461 -0.8953 -0.2805
vn 0.2666 -0.4658 -0.8438
vn 0.3073 -0.4941 -0.8133
vn 0.1631 -0.8949 -0.4153
vn 0.1925 -0.8942 -0.4041
vn -0.2456 -0.8952 -0.3718
vn 0.2155 -0.8941 -0.3926
vn 0.2150 -0.8940 -0.3930
vn 0.0113 -0.8955 -0.4450
vn 0.0120 -0.8951 -0.4458
vn 0.2367 -0.8940 -0.3804
vn -0.3946 -0.8954 -0.2060
vn -0.3944 -0.8956 -0.2059
vn 0.2577 -0.8939 -0.3668
vn 0.2567 -0.8946 -0.3658
vn -0.3145 -0.8956 -0.3145
vn 0.4345 -0.8946 -0.1045
vn 0.4348 -0.8944 -0.1047
vn 0.4345 -0.8946 -0.1042
vn 0.3399 -0.8941 -0.2916
vn -0.1694 -0.8945 -0.4137
vn -0.1690 -0.8945 -0.4139
vn 0.5755 -0.6851 -0.4465
vn 0.7704 -0.2779 -0.5739
vn 0.7740 -0.3302 -0.5403
vn 0.4289 -0.8942 -0.1285
vn 0.0743 -0.8945 -0.4409
vn 0.3904 -0.8938 -0.2207
vn 0.3902 -0.8941 -0.2199
vn 0.4015 -0.8941 -0.1982
vn -0.9028 0.0004 -0.4301
vn 0.5414 0.4173 -0.7298
vn 0.3896 0.7576 -0.5237
vn 0.3749 0.7567 -0.5355
vn 0.3744 0.7576 -0.5347
vn 0.3360 0.7581 -0.5589
vn 0.3359 0.7577 -0.5595
vn -0.2646 0.7576 -0.5967
vn -0.6431 0.7567 -0.1174
vn -0.6355 0.7568 -0.1530
vn -0.6346 0.7576 -0.1528
vn -0.6310 0.7568 -0.1706
vn -0.9286 0.2635 -0.2614
vn -0.8772 0.4175 -0.2371
vn -0.5773 0.7576 -0.3047
vn 0.8027 -0.0004 -0.5964
vn -0.8565 -0.0003 -0.5161
vn -0.9722 -0.0002 -0.2342
vn 0.4804 0.0003 -0.8770
vn 0.4800 -0.0001 -0.8773
vn -0.7943 0.0005 -0.6075
vn 0.9783 0.0004 -0.2074
vn 0.9783 0.0009 -0.2074
vn 0.9783 0.0008 -0.2071
vn 0.9085 -0.0002 -0.4179
vn -0.8268 0.0001 -0.5626
vn -0.8967 0.0006 -0.4426
vn 0.8708 -0.0008 -0.4917
vn 0.8712 -0.0007 -0.4910
vn 0.5036 0.0002 -0.8639
vn 0.5154 0.0004 -0.8570
vn 0.5159 0.0001 -0.8567
vn -0.7218 0.0003 -0.6921
vn 0.5745 -0.0007 -0.8185
vn 0.5736 -0.0000 -0.8191
vn -0.8844 0.0008 -0.4667
vn -0.8845 0.0005 -0.4666
vn 0.5219 0.2732 -0.8081
vn 0.7502 -0.0001 -0.6613
vn 0.7589 0.0007 -0.6512
vn -0.4677 0.0001 -0.8839
vn -0.9654 0.0003 -0.2609
vn -0.7025 0.0006 -0.7117
vn 0.6614 0.0005 -0.7501
vn 0.3274 0.0001 -0.9449
vn -0.5465 0.4023 -0.7345
vn -0.5745 0.0007 -0.8185
vn -0.6822 0.0002 -0.7312
vn -0.1958 0.2731 -0.9419
vn -0.1769 0.4016 -0.8986
vn -0.0000 0.4132 -0.9107
vn 0.2584 0.5463 -0.7967
vn -0.4309 0.0008 -0.9024
vn 0.2476 -0.0000 -0.9689
vn 0.2337 0.0004 -0.9723
vn 0.2200 0.0008 -0.9755
vn 0.1932 0.0004 -0.9812
vn 0.1660 0.0001 -0.9861
vn 0.1525 -0.0001 -0.9883
vn 0.1521 -0.0001 -0.9884
vn 0.1249 -0.0005 -0.9922
vn 0.2746 -0.0003 -0.9616
vn -0.9402 -0.0002 -0.3407
vn 0.0550 0.0007 -0.9985
vn 0.0276 0.0005 -0.9996
vn -0.1661 -0.0000 -0.9861
vn -0.1386 0.0003 -0.9904
vn 0.4302 -0.0009 -0.9028
vn 0.3926 0.4047 -0.8259
vn -0.0695 -0.0001 -0.9976
vn -0.0972 0.2736 -0.9569
vn -0.1113 0.0005 -0.9938
vn -0.0996 0.5497 -0.8294
vn -0.2735 0.2835 -0.9191
vn 0.8560 0.0011 -0.5170
vn -0.0552 -0.0005 -0.9985
vn 0.0838 -0.0005 -0.9965
vn -0.4554 0.0003 -0.8903
vn -0.3847 -0.5353 -0.7520
vn -0.3056 0.2735 -0.9120
vn -0.3275 -0.0001 -0.9449
vn -0.2993 0.4061 -0.8634
vn -0.3534 -0.0005 -0.9355
vn 0.3789 0.0001 -0.9254
vn -0.5511 -0.0001 -0.8344
vn 0.1112 -0.0004 -0.9938
vn 0.4555 -0.0007 -0.8902
vn 0.8186 -0.0004 -0.5743
vn -0.5728 0.4152 -0.7067
vn -0.6402 -0.0004 -0.7682
vn -0.5820 0.4167 -0.6983
vn -0.5278 -0.0001 -0.8494
vn 0.8842 -0.0001 -0.4671
vn 0.3441 0.7575 -0.5547
vn -0.4592 0.7576 -0.4639
vn -0.4645 0.7581 -0.4578
vn 0.2641 0.7576 -0.5969
vn -0.6137 0.7576 -0.2223
vn 0.3126 0.7576 -0.5730
vn -0.6004 0.7576 -0.2561
vn -0.5931 0.7576 -0.2725
vn -0.0547 0.7576 -0.6505
vn 0.4180 0.7576 -0.5013
vn -0.5690 0.7569 -0.3216
vn -0.5682 0.7576 -0.3212
vn -0.6073 0.7576 -0.2393
vn -0.5503 0.7568 -0.3526
vn -0.5496 0.7576 -0.3522
vn -0.5403 0.7568 -0.3677
vn -0.5397 0.7576 -0.3672
vn -0.3218 0.7576 -0.5679
vn -0.3209 0.7581 -0.5677
vn -0.3205 0.7576 -0.5686
vn 0.4580 0.7576 -0.4651
vn 0.4588 0.7569 -0.4654
vn -0.5070 0.7576 -0.4111
vn 0.5853 0.7575 -0.2891
vn 0.5856 0.7572 -0.2893
vn -0.4834 0.7576 -0.4387
vn -0.4712 0.7576 -0.4518
vn -0.3820 0.7581 -0.5286
vn 0.6476 0.7575 -0.0820
vn -0.4318 0.7576 -0.4895
vn -0.1179 0.7577 -0.6419
vn -0.1173 0.7581 -0.6415
vn 0.5631 0.7581 -0.3290
vn 0.6394 0.7584 -0.1269
vn 0.6397 0.7580 -0.1269
vn -0.3450 0.7569 -0.5551
vn -0.3445 0.7576 -0.5544
vn -0.3293 0.7569 -0.5645
vn -0.3290 0.7576 -0.5638
vn -0.0086 0.7581 -0.6521
vn -0.0005 0.4282 -0.9037
vn -0.0092 0.7581 -0.6521
vn -0.2975 0.7569 -0.5819
vn -0.2972 0.7576 -0.5812
vn -0.0905 0.7576 -0.6464
vn 0.1614 0.7576 -0.6325
vn -0.2477 0.7576 -0.6039
vn 0.0992 0.7581 -0.6445
vn -0.2138 0.7576 -0.6167
vn -0.1966 0.7576 -0.6224
vn 0.6099 0.7581 -0.2308
vn -0.5187 0.7576 -0.3963
vn -0.5183 0.7579 -0.3962
vn -0.1440 0.7576 -0.6366
vn -0.1261 0.7576 -0.6404
vn -0.5351 0.7575 -0.3740
vn -0.5340 0.7581 -0.3743
vn -0.5339 0.7577 -0.3754
vn -0.1880 0.7581 -0.6245
vn -0.6362 0.7581 -0.1434
vn -0.6365 0.7576 -0.1446
vn -0.6370 0.7575 -0.1428
vn -0.0362 0.7576 -0.6517
vn -0.0181 0.7576 -0.6525
vn -0.2307 0.7576 -0.6106
vn 0.2307 0.7576 -0.6106
vn 0.0359 0.7576 -0.6518
vn 0.0726 0.7576 -0.6487
vn 0.0905 0.7576 -0.6464
vn 0.2737 0.4170 -0.8667
vn -0.2899 0.7576 -0.5848
vn -0.2891 0.7581 -0.5846
vn -0.2885 0.7577 -0.5854
vn 0.1436 0.7576 -0.6368
vn 0.4767 0.7581 -0.4450
vn 0.1793 0.7576 -0.6276
vn 0.3666 0.7580 -0.5394
vn 0.3671 0.7581 -0.5391
vn 0.2137 0.7576 -0.6168
vn 0.1270 0.7576 -0.6402
vn 0.1261 0.7576 -0.6405
vn 0.2473 0.7576 -0.6041
vn -0.6280 0.7575 -0.1783
vn -0.6271 0.7581 -0.1790
vn -0.6274 0.7576 -0.1801
vn 0.2810 0.7573 -0.5896
vn 0.2975 0.7573 -0.5814
vn 0.2973 0.7576 -0.5811
vn 0.2972 0.7573 -0.5815
vn 0.3966 0.7581 -0.5177
vn -0.4893 0.7581 -0.4311
vn 0.5234 0.7581 -0.3889
vn 0.2258 -0.8955 -0.3834
vn -0.5854 0.7576 -0.2889
vn 0.5394 0.7576 -0.3675
vn 0.5008 0.7581 -0.4177
vn 0.0268 0.7581 -0.6516
vn 0.0634 0.7581 -0.6490
vn 0.6183 0.0005 -0.7859
vn 0.8965 0.0001 -0.4429
vn 0.8967 -0.0001 -0.4426
vn 0.7760 0.0010 -0.6307
vn -0.6451 0.7576 -0.0993
vn -0.6461 0.7567 -0.0996
vn -0.9922 -0.0000 -0.1249
vn 0.3625 -0.8944 -0.2618
vn 0.6404 -0.0000 -0.7681
vn 0.4044 0.0003 -0.9146
vn -0.2808 -0.8957 -0.3447
vn 0.1125 -0.9819 -0.1522
vn 0.1115 -0.9814 -0.1563
vn 0.1167 -0.9816 -0.1512
vn -0.6497 0.7576 -0.0633
vn -0.6505 0.7568 -0.0634
vn -0.2957 -0.8943 -0.3357
vn -0.7767 -0.0005 -0.6299
vn 0.6814 0.0014 -0.7319
vn -0.0276 -0.0005 -0.9996
vn -0.8107 0.0004 -0.5854
vn -0.8703 -0.0006 -0.4925
vn -0.6610 -0.0007 -0.7504
vn -0.5040 -0.0004 -0.8637
vn 0.1418 -0.9805 -0.1358
vn 0.1415 -0.9800 -0.1401
vn 0.1461 -0.9799 -0.1361
vn -0.3789 -0.0007 -0.9254
vn -0.7589 -0.0005 -0.6513
vn -0.7587 -0.0003 -0.6514
vn -0.3518 0.7581 -0.5491
vn -0.3528 0.7576 -0.5491
vn 0.6203 0.7570 -0.2056
vn 0.6196 0.7576 -0.2055
vn 0.1461 -0.8950 -0.4215
vn 0.1460 -0.8947 -0.4221
vn 0.7016 0.0002 -0.7125
vn 0.3140 -0.8948 -0.3174
vn 0.3131 -0.8950 -0.3176
vn -0.1438 -0.8956 -0.4211
vn -0.4387 -0.8950 -0.0808
vn -0.4387 -0.8950 -0.0805
vn 0.2954 -0.8945 -0.3356
vn -0.2633 -0.8956 -0.3585
vn 0.4149 -0.8950 -0.1637
vn 0.4150 -0.8948 -0.1645
vn -0.4344 -0.8946 -0.1047
vn 0.4049 -0.8952 -0.1860
vn 0.0620 -0.8944 -0.4430
vn 0.3305 -0.8955 -0.2981
vn -0.3301 -0.8951 -0.2996
vn -0.3829 -0.8945 -0.2308
vn -0.3835 -0.8942 -0.2309
vn 0.0375 -0.8946 -0.4452
vn -0.3448 -0.8955 -0.2815
vn -0.3450 -0.8956 -0.2810
vn 0.0123 -0.8951 -0.4456
vn -0.3949 -0.8947 -0.2087
vn -0.3946 -0.8948 -0.2089
vn -0.3137 -0.8947 -0.3179
vn 0.4333 -0.8957 -0.0995
vn 0.4333 -0.8957 -0.0998
vn -0.1648 -0.8956 -0.4131
vn 0.4279 -0.8955 -0.1226
vn 0.0785 -0.8958 -0.4376
vn 0.3287 0.7576 -0.5640
vn -0.2557 0.7581 -0.5999
vn -0.5721 0.7581 -0.3129
vn -0.5731 0.7576 -0.3125
vn 0.7940 0.0006 -0.6079
vn -0.8564 -0.0004 -0.5163
vn -0.9722 -0.0001 -0.2341
vn 0.4803 0.0004 -0.8771
vn 0.4802 -0.0003 -0.8772
vn 0.9785 -0.0005 -0.2061
vn 0.9785 -0.0001 -0.2061
vn 0.9785 0.0003 -0.2062
vn 0.8701 0.0001 -0.4930
vn 0.8703 0.0008 -0.4925
vn 0.5036 0.0003 -0.8640
vn 0.5759 -0.0010 -0.8175
vn 0.5749 -0.0013 -0.8182
vn -0.8838 -0.0002 -0.4678
vn -0.8840 -0.0003 -0.4675
vn -0.7024 0.0005 -0.7118
vn -0.4054 0.0005 -0.9141
vn 0.6610 0.0005 -0.7504
vn 0.3534 0.0005 -0.9355
vn 0.3276 -0.0000 -0.9448
vn -0.5969 0.0003 -0.8023
vn -0.5742 0.0003 -0.8187
vn -0.6819 -0.0002 -0.7315
vn -0.4303 0.0003 -0.9027
vn 0.1661 -0.0000 -0.9861
vn 0.2749 -0.0006 -0.9615
vn -0.9400 -0.0007 -0.3412
vn 0.0555 0.0003 -0.9985
vn 0.0277 0.0003 -0.9996
vn -0.1659 -0.0002 -0.9861
vn -0.1387 0.0004 -0.9903
vn 0.0827 0.0004 -0.9966
vn -0.3535 -0.0004 -0.9354
vn -0.5518 0.0005 -0.8340
vn -0.5271 -0.0007 -0.8498
vn 0.8845 -0.0006 -0.4665
vn 0.2725 0.7581 -0.5925
vn 0.2722 0.7579 -0.5929
vn 0.3135 0.7576 -0.5726
vn -0.0452 0.7581 -0.6506
vn 0.4240 0.7581 -0.4955
vn -0.6035 0.7581 -0.2472
vn -0.3136 0.7569 -0.5734
vn -0.3132 0.7576 -0.5727
vn 0.4517 0.7581 -0.4704
vn 0.5807 0.7580 -0.2968
vn -0.3750 0.7576 -0.5343
vn 0.6460 0.7580 -0.0902
vn -0.1086 0.7570 -0.6443
vn -0.1084 0.7576 -0.6437
vn 0.5586 0.7575 -0.3378
vn 0.6385 0.7575 -0.1357
vn 0.6386 0.7576 -0.1352
vn 0.1703 0.7581 -0.6295
vn 0.1083 0.7576 -0.6437
vn 0.6071 0.7576 -0.2397
vn -0.5122 0.7581 -0.4036
vn -0.5301 0.7567 -0.3826
vn -0.5293 0.7576 -0.3821
vn -0.6385 0.7576 -0.1353
vn -0.6389 0.7573 -0.1350
vn -0.6395 0.7567 -0.1356
vn -0.2223 0.7581 -0.6131
vn 0.2388 0.7581 -0.6069
vn -0.2816 0.7569 -0.5897
vn -0.2813 0.7576 -0.5891
vn 0.4715 0.7576 -0.4514
vn -0.6261 0.7568 -0.1878
vn -0.6252 0.7576 -0.1876
s 1
f 182//1 179//2 181//3
f 181//3 186//4 182//1
f 186//4 188//5 182//1
f 188//5 189//6 182//1
f 189//6 190//7 182//1
f 190//7 191//8 182//1
f 191//8 192//9 182//1
f 192//9 193//10 182//1
f 193//10 194//11 182//1
f 194//11 195//12 182//1
f 195//12 196//13 182//1
f 196//13 197//14 182//1
f 197//14 198//15 182//1
f 198//15 199//16 182//1
f 199//16 180//17 182//1
f 180//17 184//18 182//1
f 184//18 200//19 182//1
f 200//19 183//20 182//1
f 183//20 187//21 182//1
f 182//1 187//21 185//22
f 182//1 185//22 201//23
f 182//1 201//23 202//24
f 182//1 202//24 203//25
f 182//1 203//25 204//26
f 182//1 204//26 205//27
f 182//1 205//27 206//28
f 182//1 206//28 209//29
f 182//1 209//29 208//30
f 182//1 208//30 207//31
f 182//1 207//31 210//32
f 182//1 210//32 211//33
f 182//1 211//33 212//34
f 182//1 212//34 213//35
f 214//36 215//37 182//1
f 182//1 213//35 214//36
f 216//38 182//1 215//37
f 179//2 182//1 216//38
f 350//39 349//40 348//41
f 354//42 353//43 352//44
f 365//45 364//46 363//47
f 371//48 370//49 372//50
f 370//49 371//48 369//51
f 381//52 384//53 383//54
f 383//54 382//55 381//52
f 384//53 385//56 383//54
f 415//57 416//58 417//59
f 423//60 424//61 425//62
f 444//63 446//64 271//64
f 173//65 174//66 310//67
f 150//68 207//31 151//69
s 0
f 173//70 175//70 176//70
f 175//71 112//71 176//71
s 1
f 112//72 140//73 176//74
s 0
f 140//75 15//75 176//75
f 15//76 139//76 176//76
s 1
f 139//77 138//78 176//79
f 138//78 137//80 176//79
f 137//80 136//81 176//79
f 136//81 135//82 176//79
f 135//82 134//83 176//79
s 0
f 134//84 17//84 176//84
s 1
f 17//85 20//86 176//87
f 20//86 19//88 176//87
s 0
f 19//89 133//89 176//89
s 1
f 133//90 132//91 176//92
s 0
f 132//93 45//93 176//93
s 1
f 45//94 22//95 176//96
s 0
f 22//97 131//97 176//97
f 131//98 44//98 176//98
f 44//99 130//99 176//99
s 1
f 130//100 129//101 176//102
f 129//101 128//103 176//102
f 128//103 127//104 176//102
s 0
f 127//105 24//106 176//106
s 1
f 24//107 42//108 176//109
s 0
f 42//110 126//110 176//110
f 126//111 43//111 176//111
s 1
f 43//112 41//113 176//114
f 41//113 40//115 176//114
s 0
f 40//116 125//116 176//116
f 125//117 217//117 176//117
s 1
f 389//118 313//119 387//120
s 0
f 178//121 194//121 173//121
s 1
f 194//11 193//10 173//65
f 193//10 192//9 173//65
f 192//9 191//8 173//65
f 191//8 190//7 173//65
f 190//7 189//6 173//65
f 189//6 188//5 173//65
f 188//5 186//4 173//65
f 186//4 181//3 173//65
f 181//3 179//2 173//65
f 179//2 174//66 173//65
s 0
f 243//122 392//122 175//122
f 392//123 245//123 175//123
s 1
f 245//124 244//125 175//126
s 0
f 244//127 110//127 175//127
s 1
f 110//128 111//129 175//130
f 111//129 112//131 175//130
f 111//129 102//132 112//131
s 0
f 102//132 75//132 112//132
s 1
f 75//132 140//73 112//72
s 0
f 75//132 46//132 140//132
f 46//132 15//132 140//132
f 46//132 139//132 15//132
s 1
f 46//133 138//78 139//77
f 46//133 45//94 138//78
f 45//94 137//80 138//78
f 45//94 136//81 137//80
f 45//94 135//82 136//81
f 45//94 134//83 135//82
s 0
f 45//134 17//134 134//134
s 1
f 45//135 20//86 17//85
f 45//135 19//88 20//86
s 0
f 45//136 133//136 19//136
s 1
f 45//137 132//91 133//90
s 0
f 46//132 75//132 102//132
f 46//132 102//132 5//132
f 46//132 5//132 101//132
f 46//132 101//132 6//132
f 46//132 6//132 100//132
s 1
f 46//132 100//132 99//138
f 46//132 99//138 98//139
s 0
f 46//132 98//140 7//132
f 46//132 7//132 97//132
s 1
f 46//132 97//141 96//142
s 0
f 46//132 96//132 8//132
s 1
f 46//132 8//143 9//144
s 0
f 46//132 9//132 95//132
f 46//132 95//132 10//132
f 46//132 10//132 94//132
f 46//132 94//132 13//132
f 46//132 13//132 93//132
s 1
f 46//132 93//145 92//146
s 0
f 46//132 92//147 14//132
s 1
f 46//132 14//148 49//149
s 0
f 46//132 49//132 91//132
f 46//132 91//132 16//132
f 46//132 16//132 90//132
s 1
f 46//132 90//132 89//150
f 46//132 89//150 88//151
s 0
f 46//132 88//152 1//132
s 1
f 46//132 1//132 2//153
f 46//132 2//153 48//154
f 46//132 48//154 47//155
s 0
f 46//132 47//132 87//132
f 46//132 87//132 18//132
f 46//132 18//132 86//132
s 1
f 46//132 86//132 85//156
f 46//132 85//156 84//157
s 0
f 46//132 84//158 21//132
f 46//132 21//132 83//132
f 46//132 83//132 23//132
f 46//132 23//132 82//132
s 1
f 46//132 82//132 81//159
f 46//132 81//159 80//160
f 46//132 80//160 79//161
f 46//132 79//161 78//162
f 46//132 78//162 77//163
f 46//132 77//163 76//164
s 0
f 46//132 76//165 25//132
f 46//132 25//132 113//132
f 46//132 113//132 26//132
f 46//132 26//132 114//132
s 1
f 46//132 114//166 115//167
f 46//132 115//167 116//168
s 0
f 46//132 116//169 29//132
f 46//132 29//132 117//132
s 1
f 46//132 117//170 118//171
s 0
f 46//132 118//159 34//132
s 1
f 46//132 34//172 32//173
s 0
f 46//132 32//132 119//132
f 46//132 119//132 35//132
s 1
f 46//132 35//174 33//175
f 46//132 33//175 37//176
f 46//132 37//176 30//177
f 46//132 30//177 28//178
s 0
f 46//132 28//132 120//132
f 46//132 120//132 27//132
s 1
f 46//132 27//179 31//180
f 46//132 31//180 36//181
s 0
f 46//132 36//132 121//132
f 46//132 121//132 38//132
s 1
f 46//132 38//182 39//183
s 0
f 46//132 39//132 122//132
s 1
f 46//132 122//184 123//185
f 46//132 123//185 124//186
f 46//132 124//186 125//187
s 0
f 46//132 125//188 40//132
s 1
f 46//132 40//115 41//113
f 46//132 41//113 43//112
s 0
f 46//132 43//132 126//132
f 46//132 126//132 42//132
s 1
f 46//132 42//108 24//107
s 0
f 46//132 24//132 127//189
s 1
f 46//132 127//104 128//103
f 46//132 128//103 129//101
f 46//132 129//101 130//100
s 0
f 46//132 130//190 44//132
f 46//132 44//132 131//132
f 46//132 131//132 22//132
s 1
f 46//133 22//95 45//94
f 124//186 217//191 125//187
f 124//186 123//185 217//191
f 123//185 122//184 217//191
s 0
f 122//192 39//192 217//192
s 1
f 39//183 38//182 217//193
s 0
f 38//194 121//194 217//194
f 121//195 36//195 217//195
s 1
f 36//181 31//180 217//196
f 31//180 27//179 217//196
s 0
f 27//197 120//197 217//197
f 120//198 28//198 217//198
s 1
f 28//178 30//177 217//199
f 30//177 37//176 217//199
f 37//176 33//175 217//199
f 33//175 35//174 217//199
s 0
f 35//200 119//200 217//200
f 119//201 32//201 217//201
s 1
f 32//173 34//172 217//202
s 0
f 34//203 118//204 217//203
s 1
f 118//171 117//170 217//205
s 0
f 117//206 29//206 217//206
f 29//207 116//208 217//207
s 1
f 116//168 115//167 217//209
f 115//167 114//166 217//209
s 0
f 114//210 26//210 217//210
f 26//211 113//211 217//211
f 113//212 25//212 217//212
f 25//213 76//214 217//213
s 1
f 76//164 77//163 218//215
s 0
f 76//216 218//217 217//217
f 175//70 310//70 243//70
s 1
f 261//218 326//219 443//220
f 179//2 216//38 174//66
s 0
f 216//221 60//222 174//222
f 60//223 142//223 174//223
s 1
f 142//224 141//225 174//226
s 0
f 141//227 388//228 174//228
f 388//229 309//229 174//229
s 1
f 309//230 311//230 174//230
s 0
f 311//231 391//231 174//231
f 391//232 312//232 174//232
s 1
f 312//233 310//67 174//66
f 177//234 187//21 183//20
f 177//234 183//20 178//235
f 183//20 200//19 178//235
f 200//19 184//18 178//235
f 184//18 180//17 178//235
f 180//17 199//16 178//235
f 199//16 198//15 178//235
f 198//15 197//14 178//235
f 197//14 196//13 178//235
f 196//13 195//12 178//235
f 195//12 194//11 178//235
s 0
f 392//236 391//236 245//236
f 217//237 177//237 178//237
f 243//238 312//238 392//238
s 1
f 245//124 311//239 244//125
s 0
f 390//240 110//240 244//240
f 359//241 101//241 239//241
f 12//132 102//132 110//132
s 1
f 102//132 111//129 110//128
s 0
f 12//132 109//132 102//132
s 1
f 109//242 108//243 102//244
s 0
f 108//244 11//244 102//244
f 11//244 107//244 102//244
s 1
f 107//245 106//246 102//247
s 0
f 106//248 3//248 102//248
f 3//248 105//248 102//248
s 1
f 105//249 104//250 102//250
s 0
f 104//251 4//251 102//251
s 1
f 4//252 103//252 102//252
s 0
f 18//253 418//253 419//253
f 248//254 104//254 256//254
s 1
f 77//163 78//162 218//215
s 0
f 78//255 261//256 218//256
f 261//257 443//257 218//257
s 1
f 443//220 444//63 218//258
s 0
f 444//259 271//259 218//259
s 1
f 172//260 329//261 328//262
f 382//55 383//54 60//263
f 431//264 55//265 170//266
s 0
f 385//267 308//268 142//268
f 304//269 57//269 305//269
f 313//270 388//270 141//271
s 1
f 441//272 438//273 439//274
s 0
f 244//275 309//275 390//275
f 446//276 445//276 177//276
f 445//277 326//277 177//277
f 326//278 442//278 177//278
f 442//279 330//279 177//279
f 330//280 441//280 177//280
f 441//281 74//281 177//281
s 1
f 74//282 65//283 177//284
f 65//283 64//285 177//284
s 0
f 64//286 185//286 177//286
s 1
f 185//22 187//21 177//234
f 387//120 12//287 389//118
f 387//120 386//288 12//287
f 49//149 227//289 267//290
s 0
f 21//291 428//291 83//291
s 1
f 384//53 381//52 108//243
f 381//52 380//292 108//243
s 0
f 370//293 104//293 105//294
s 1
f 274//295 247//296 11//297
s 0
f 251//298 4//298 367//298
s 1
f 266//299 82//300 23//301
f 377//302 375//303 106//246
f 84//157 257//304 260//305
f 246//306 249//307 3//308
f 249//307 255//309 3//308
s 0
f 94//310 339//310 231//310
s 1
f 372//50 370//49 105//311
f 377//302 107//245 378//312
s 0
f 10//313 233//313 230//313
f 248//314 367//314 4//314
s 1
f 209//29 160//315 159//316
f 251//317 240//318 103//319
f 240//318 250//320 103//319
s 0
f 319//321 239//321 306//321
s 1
f 365//45 363//47 250//320
s 0
f 374//322 375//323 376//324
f 318//325 367//325 316//325
f 241//326 5//326 362//326
f 241//327 360//327 5//327
s 1
f 47//155 413//328 220//329
s 0
f 438//330 79//331 80//332
s 1
f 330//333 254//334 441//272
f 388//335 390//336 309//336
s 0
f 261//337 330//337 442//337
s 1
f 443//220 445//338 444//63
f 201//23 64//339 172//260
s 0
f 143//340 67//341 215//342
f 315//343 59//343 145//343
s 1
f 336//344 247//296 379//345
f 384//53 242//346 385//56
f 306//347 360//348 276//349
s 0
f 350//350 351//350 303//350
f 176//351 178//351 173//351
s 1
f 439//274 74//352 441//272
f 356//353 237//354 357//355
s 0
f 412//356 72//356 280//356
s 1
f 334//357 325//358 65//359
f 320//360 58//361 148//362
s 0
f 436//363 329//363 64//363
s 1
f 405//364 161//365 162//366
f 215//37 60//367 216//38
f 172//260 171//368 201//23
f 171//368 170//266 201//23
s 0
f 170//369 55//370 201//371
s 1
f 143//372 214//36 144//373
f 169//374 168//375 202//24
f 168//375 167//376 202//24
f 425//62 168//375 323//377
s 0
f 166//378 73//379 203//380
f 73//381 165//381 203//382
s 1
f 165//383 164//384 203//25
f 335//385 67//386 143//387
s 0
f 72//388 163//388 204//389
f 163//390 71//390 204//391
f 58//392 211//393 148//394
s 1
f 53//395 51//396 205//27
s 0
f 51//397 162//397 205//398
s 1
f 57//399 210//32 56//400
s 0
f 161//401 70//401 206//402
f 70//403 160//403 206//404
f 177//237 271//237 446//237
s 1
f 159//316 158//405 209//29
f 158//405 157//406 209//29
f 157//406 156//407 209//29
f 69//408 208//30 52//409
f 155//410 154//411 208//30
s 0
f 154//412 50//413 208//414
s 1
f 50//415 52//409 208//30
s 0
f 440//416 78//417 79//418
f 69//419 153//419 207//420
s 1
f 153//421 152//422 207//31
f 152//422 151//69 207//31
f 206//28 162//366 161//365
s 0
f 150//423 54//424 210//425
s 1
f 54//426 56//400 210//32
f 205//27 71//427 53//395
s 0
f 57//428 149//428 211//429
s 1
f 149//430 148//431 211//432
f 204//26 164//384 72//433
f 58//361 68//434 212//435
s 0
f 68//436 147//436 212//437
s 1
f 147//438 146//438 212//439
s 0
f 414//440 72//440 164//440
f 66//441 145//441 213//442
f 145//443 59//443 213//444
s 1
f 202//24 55//445 169//374
f 63//446 62//447 214//36
f 62//447 61//448 214//36
s 0
f 61//449 144//449 214//450
s 1
f 419//451 278//452 420//453
f 335//385 380//292 314//454
f 259//455 334//357 437//456
f 412//457 410//458 283//459
f 415//57 279//460 418//461
f 314//454 381//52 382//55
f 266//299 328//262 265//462
s 0
f 361//463 362//463 321//463
f 228//464 296//464 393//464
s 1
f 264//465 432//466 262//467
s 0
f 422//468 424//468 272//468
s 1
f 260//469 293//470 426//471
s 0
f 222//472 414//472 413//472
s 1
f 333//473 406//474 284//475
s 0
f 66//476 212//477 146//476
s 1
f 146//478 364//46 365//45
f 373//479 63//446 371//48
s 0
f 147//480 361//480 321//480
s 1
f 295//481 157//406 292//482
f 268//483 403//484 224//485
s 0
f 418//486 421//487 419//486
f 1//488 407//488 270//488
f 254//489 440//489 79//490
f 380//491 11//492 108//492
s 1
f 318//493 145//494 66//495
f 307//496 336//344 144//497
s 0
f 300//498 150//499 151//498
f 379//500 335//500 143//501
s 1
f 331//502 227//289 290//503
f 262//467 433//504 263//505
f 423//60 323//377 257//506
f 320//360 359//507 319//508
f 321//509 363//47 364//46
s 0
f 147//510 364//511 146//510
f 327//512 433//512 171//513
f 286//514 70//514 287//514
s 1
f 432//466 431//264 170//266
f 159//316 288//515 331//502
f 430//516 429//517 55//265
f 354//42 56//400 353//43
s 0
f 293//518 427//518 169//518
s 1
f 374//519 62//447 317//520
f 369//51 63//446 59//521
f 425//62 424//61 167//376
f 290//503 158//405 159//316
f 277//522 278//452 166//523
s 0
f 439//524 65//525 74//525
f 421//526 279//526 73//526
s 1
f 333//473 51//396 53//395
f 417//59 416//58 165//527
f 324//528 152//422 301//529
s 0
f 281//530 414//530 164//530
f 68//531 361//531 147//531
s 1
f 306//347 68//434 58//361
s 0
f 412//532 283//532 163//532
s 1
f 302//533 153//421 298//534
s 0
f 282//535 409//535 71//535
f 282//536 163//536 283//536
s 1
f 285//537 333//473 53//395
s 0
f 336//538 143//539 144//540
s 1
f 284//475 337//541 51//396
s 0
f 325//542 64//542 65//542
f 332//543 405//543 162//543
s 1
f 303//544 54//426 350//39
f 294//545 156//407 397//546
s 0
f 402//547 287//547 70//547
s 1
f 313//119 142//224 308//548
f 286//549 288//515 160//315
s 0
f 307//550 61//550 376//550
s 1
f 331//502 290//503 159//316
f 291//551 157//406 158//405
f 289//552 291//551 158//405
f 337//541 162//553 51//396
s 0
f 299//554 69//554 52//554
f 295//555 397//555 156//555
s 1
f 327//556 172//260 328//262
f 294//545 296//557 155//410
s 0
f 366//558 146//558 365//558
s 1
f 394//559 338//560 154//411
s 0
f 279//561 165//561 73//561
f 322//562 340//562 50//562
f 427//563 168//564 169//563
s 1
f 297//565 299//566 52//567
f 203//25 167//376 166//523
s 0
f 340//568 52//568 50//568
f 343//569 298//569 153//569
f 421//570 166//571 278//570
s 1
f 302//533 301//529 152//422
f 356//353 148//431 149//430
f 324//528 300//572 151//69
f 394//559 155//410 296//557
f 347//573 349//40 150//574
f 277//522 167//376 424//61
f 63//446 213//35 59//521
s 0
f 303//575 353//575 56//575
s 1
f 285//537 71//427 409//576
s 0
f 354//577 305//578 57//578
f 338//579 50//579 154//580
f 304//581 356//581 149//581
f 429//582 169//583 55//583
f 357//584 320//584 148//585
f 416//586 164//586 165//586
s 1
f 319//508 306//347 58//361
s 0
f 385//587 60//588 383//589
f 366//590 318//590 66//590
s 1
f 432//466 171//368 433//504
s 0
f 402//591 161//591 403//592
s 1
f 316//593 315//594 145//494
f 368//595 369//51 59//521
s 0
f 382//596 67//596 314//596
f 343//597 69//597 342//597
s 1
f 349//40 54//426 150//574
s 0
f 373//598 317//599 62//599
s 1
f 374//519 376//600 61//448
f 208//30 156//407 155//410
f 428//601 431//264 264//465
f 358//602 6//603 359//507
s 0
f 358//604 237//605 6//605
f 355//606 99//606 100//607
f 90//608 224//608 223//608
s 1
f 437//456 438//273 80//609
s 0
f 81//610 435//611 259//611
s 1
f 81//612 434//613 435//614
s 0
f 21//615 426//615 273//615
s 1
f 387//120 308//548 386//288
f 316//593 248//616 315//594
s 0
f 257//617 427//617 260//617
f 325//618 435//618 436//618
f 354//619 219//620 305//620
s 1
f 329//261 265//462 328//262
f 420//453 277//522 422//621
f 379//345 274//295 335//385
s 0
f 386//622 385//623 242//624
s 1
f 376//625 377//302 307//496
f 423//60 272//626 424//61
f 273//627 430//516 428//601
f 437//456 439//274 438//273
s 0
f 373//628 249//629 317//629
s 1
f 305//630 355//631 304//632
f 307//496 378//312 336//344
f 415//57 221//633 416//58
s 0
f 358//634 357//635 237//635
f 426//636 429//637 273//636
s 1
f 252//638 304//632 355//631
f 366//639 251//317 318//640
f 284//475 275//641 337//541
f 436//642 434//613 329//261
s 0
f 220//643 416//643 221//643
s 1
f 405//364 224//485 403//484
f 241//644 276//349 360//348
f 347//573 348//41 349//40
s 0
f 253//645 300//645 236//645
s 1
f 408//646 283//459 410//458
s 0
f 270//647 282//647 408//647
s 1
f 413//328 281//648 220//329
f 399//649 290//503 227//289
f 398//650 289//552 399//649
f 394//559 231//651 338//560
f 324//528 236//652 300//572
s 0
f 223//653 332//653 404//653
s 1
f 302//533 235//654 301//529
f 234//655 298//534 345//656
s 0
f 345//657 343//657 344//657
s 1
f 344//658 342//659 232//660
f 232//660 299//566 341//661
s 0
f 346//662 301//662 235//662
f 263//663 327//663 266//663
f 230//664 322//664 339//664
f 339//665 338//665 231//665
f 226//666 291//666 398//666
f 396//667 292//667 226//667
s 1
f 352//44 303//668 351//669
f 397//546 229//670 294//545
f 395//671 295//672 396//673
f 286//549 225//674 288//515
f 365//45 240//318 366//639
f 371//48 255//675 373//479
f 393//676 294//545 229//670
s 0
f 340//677 233//677 297//677
s 1
f 267//290 288//515 225//674
f 337//541 404//678 332//679
f 400//680 287//681 401//682
s 0
f 402//683 401//683 287//683
s 1
f 348//41 238//684 350//39
s 0
f 409//685 407//685 285//685
s 1
f 341//661 297//565 233//686
f 352//44 258//687 354//42
f 370//49 368//595 256//688
f 411//689 280//690 222//691
s 0
f 269//692 285//692 407//692
f 317//693 246//693 374//693
s 1
f 315//594 256//688 368//595
s 0
f 252//694 355//694 100//694
s 1
f 47//155 221//695 87//696
s 0
f 7//697 351//697 238//697
s 1
f 23//301 263//698 266//299
f 99//138 258//699 98//139
f 83//700 264//465 262//467
s 0
f 83//701 428//701 264//701
f 93//702 229//702 395//702
f 101//703 360//703 239//703
f 84//704 260//705 426//705
f 23//706 262//706 263//706
f 85//707 423//708 257//708
f 85//709 272//710 423//710
f 89//711 406//712 88//713
f 362//714 102//714 363//715
s 1
f 18//716 419//451 420//453
s 0
f 246//717 106//717 375//718
s 1
f 87//719 415//57 418//461
s 0
f 87//720 221//720 415//720
f 1//721 408//721 2//721
f 389//722 110//722 390//722
f 48//723 222//723 413//723
f 92//724 398//725 14//725
s 1
f 2//153 410//458 411//689
f 2//153 408//646 410//458
s 0
f 255//726 105//726 3//726
f 386//727 109//728 12//728
f 88//729 269//730 407//730
f 88//731 406//732 269//732
s 1
f 94//733 228//734 13//735
s 0
f 89//736 404//737 275//737
s 1
f 92//146 396//673 226//738
s 0
f 8//739 235//739 234//739
s 1
f 16//740 268//483 224//485
s 0
f 9//741 232//741 95//741
s 1
f 91//742 400//680 401//682
s 0
f 91//743 225//743 400//743
f 247//744 107//744 11//744
f 86//745 420//745 422//746
f 14//747 399//747 227//747
s 1
f 14//748 398//650 399//649
s 0
f 86//749 272//750 85//751
s 1
f 49//149 225//674 91//752
f 93//145 395//671 396//673
s 0
f 259//753 80//754 81//755
f 13//756 393//756 229//756
f 13//757 228//757 393//757
f 16//758 401//758 268//758
f 97//759 348//759 253//759
f 10//760 230//760 339//760
s 1
f 384//53 109//242 242//346
s 0
f 95//761 341//761 233//761
f 95//762 232//762 341//762
s 1
f 96//142 236//652 346//763
s 0
f 90//764 404//765 89//766
f 8//767 234//767 345//767
f 250//768 102//768 103//768
f 96//769 346//769 235//769
s 1
f 237//354 100//770 6//771
f 97//141 253//772 236//652
f 9//144 345//773 344//774
s 0
f 7//775 238//775 348//775
f 82//776 434//777 81//778
s 1
f 98//779 352//44 351//669
s 0
f 98//780 258//781 352//782
s 1
f 48//154 411//689 222//691
f 444//63 445//338 446//64
f 150//68 210//32 207//31
f 389//118 388//335 313//119
s 0
f 175//70 173//70 310//70
s 1
f 261//218 442//218 326//219
s 0
f 392//236 312//236 391//236
f 217//237 218//237 177//237
f 243//238 310//238 312//238
s 1
f 245//124 391//239 311//239
s 0
f 359//783 6//783 101//783
f 18//784 87//784 418//784
f 248//785 4//785 104//785
s 1
f 172//260 64//339 329//261
f 431//264 430//516 55//265
s 0
f 304//786 149//786 57//786
s 1
f 441//272 254//334 438//273
s 0
f 244//275 311//275 309//275
s 1
f 49//149 14//148 227//289
s 0
f 21//787 273//787 428//787
f 370//788 256//788 104//788
f 251//789 103//789 4//789
s 1
f 266//299 265//462 82//300
f 84//157 85//156 257//304
s 0
f 94//790 10//790 339//790
s 1
f 377//302 106//246 107//245
s 0
f 10//791 95//791 233//791
s 1
f 209//29 206//28 160//315
s 0
f 319//792 359//792 239//792
f 374//793 246//793 375//794
f 318//795 251//795 367//795
s 1
f 47//155 48//154 413//328
s 0
f 438//796 254//796 79//797
s 1
f 330//333 440//798 254//334
f 388//335 389//118 390//336
s 0
f 261//337 440//337 330//337
s 1
f 443//220 326//219 445//338
f 201//23 185//22 64//339
s 0
f 315//799 368//799 59//799
s 1
f 336//344 378//312 247//296
f 306//347 239//800 360//348
s 0
f 350//801 238//801 351//801
f 176//351 217//351 178//351
s 1
f 356//353 252//638 237//354
s 0
f 412//802 163//802 72//802
s 1
f 320//360 319//508 58//361
f 405//364 403//484 161//365
f 215//37 67//367 60//367
f 143//372 215//37 214//36
f 425//62 167//376 168//375
f 335//385 314//454 67//386
s 0
f 58//803 212//804 211//805
s 1
f 57//399 211//33 210//32
s 0
f 177//237 218//237 271//237
s 1
f 69//408 207//31 208//30
s 0
f 440//806 261//806 78//807
s 1
f 206//28 205//27 162//366
f 205//27 204//26 71//427
f 204//26 203//25 164//384
s 0
f 414//808 280//808 72//808
s 1
f 202//24 201//23 55//445
f 419//451 421//809 278//452
f 335//385 274//295 380//292
f 259//455 325//358 334//357
f 412//457 411//689 410//458
f 415//57 417//59 279//460
f 314//454 380//292 381//52
f 266//299 327//556 328//262
s 0
f 361//810 241//810 362//810
f 228//811 394//811 296//811
s 1
f 264//465 431//264 432//466
s 0
f 422//812 277//812 424//812
s 1
f 260//469 427//813 293//470
s 0
f 222//814 280//814 414//814
s 1
f 333//473 269//815 406//474
s 0
f 66//816 213//817 212//818
s 1
f 373//479 62//447 63//446
f 295//481 156//407 157//406
f 268//483 402//819 403//484
s 0
f 418//820 279//820 421//821
f 1//822 88//823 407//822
f 380//824 274//825 11//825
s 1
f 318//493 316//593 145//494
s 0
f 300//826 347//826 150//827
s 1
f 331//502 267//290 227//289
f 262//467 432//466 433//504
f 423//60 425//62 323//377
f 320//360 358//602 359//507
f 321//509 362//828 363//47
s 0
f 147//829 321//829 364//830
f 286//831 160//831 70//831
s 1
f 159//316 160//315 288//515
f 354//42 57//399 56//400
f 374//519 61//448 62//447
f 369//51 371//48 63//446
f 290//503 289//552 158//405
s 0
f 439//832 334//833 65//833
s 1
f 333//473 284//475 51//396
f 324//528 151//69 152//422
s 0
f 68//834 276//834 361//834
s 1
f 306//347 276//349 68//434
f 302//533 152//422 153//421
s 0
f 282//835 71//835 163//835
f 336//836 379//836 143//837
f 325//838 436//838 64//838
s 1
f 303//544 56//400 54//426
f 294//545 155//410 156//407
f 313//119 141//225 142//224
s 0
f 307//839 144//839 61//839
s 1
f 291//551 292//482 157//406
f 337//541 332//679 162//553
s 0
f 299//840 342//840 69//840
s 1
f 327//556 171//368 172//260
s 0
f 366//841 66//841 146//841
f 279//842 417//842 165//842
f 427//843 323//843 168//844
s 1
f 203//25 202//24 167//376
s 0
f 340//845 297//845 52//845
f 421//846 73//846 166//847
s 1
f 356//353 357//355 148//431
f 394//559 154//411 155//410
f 277//522 166//523 167//376
f 63//446 214//36 213//35
f 285//537 53//395 71//427
s 0
f 338//848 322//848 50//848
f 429//849 293//850 169//850
f 416//851 281//851 164//851
f 385//852 142//853 60//853
s 1
f 432//466 170//266 171//368
s 0
f 402//854 70//854 161//854
f 382//855 60//855 67//855
f 343//856 153//856 69//856
s 1
f 349//40 350//39 54//426
f 208//30 209//29 156//407
f 428//601 430//516 431//264
s 0
f 355//857 219//857 99//857
f 90//858 16//858 224//858
f 21//859 84//860 426//859
s 1
f 387//120 313//119 308//548
f 316//593 367//861 248//616
s 0
f 257//862 323//862 427//862
f 325//863 259//863 435//863
f 354//864 258//865 219//865
s 1
f 329//261 434//613 265//462
f 420//453 278//452 277//522
f 379//345 247//296 274//295
s 0
f 386//866 308//867 385//868
s 1
f 376//625 375//303 377//302
f 273//627 429//517 430//516
f 437//456 334//357 439//274
s 0
f 373//869 255//870 249//870
s 1
f 305//630 219//871 355//631
f 307//496 377//302 378//312
s 0
f 358//872 320//873 357//873
f 426//874 293//874 429//875
s 1
f 252//638 356//353 304//632
f 366//639 240//318 251//317
f 284//475 406//474 275//641
f 436//642 435//614 434//613
s 0
f 220//876 281//876 416//876
s 1
f 405//364 223//877 224//485
f 241//644 361//878 276//349
f 347//573 253//879 348//41
s 0
f 253//880 347//880 300//880
s 1
f 408//646 282//881 283//459
s 0
f 270//882 409//882 282//882
s 1
f 413//328 414//883 281//648
f 399//649 289//552 290//503
f 398//650 291//551 289//552
f 394//559 228//734 231//651
f 324//528 346//763 236//652
s 0
f 223//884 405//884 332//884
s 1
f 302//533 234//655 235//654
f 234//655 302//533 298//534
s 0
f 345//657 298//657 343//657
s 1
f 344//658 343//885 342//659
f 232//660 342//659 299//566
s 0
f 346//886 324//886 301//886
f 263//887 433//887 327//887
f 230//888 340//888 322//888
f 339//889 322//889 338//889
f 226//890 292//890 291//890
f 396//891 295//891 292//891
s 1
f 352//44 353//43 303//668
f 397//546 395//671 229//670
f 395//671 397//546 295//672
f 286//549 400//680 225//674
f 365//45 250//320 240//318
f 371//48 372//50 255//675
f 393//676 296//557 294//545
s 0
f 340//892 230//892 233//892
s 1
f 267//290 331//502 288//515
f 337//541 275//641 404//678
f 400//680 286//549 287//681
s 0
f 402//893 268//893 401//893
f 409//894 270//894 407//894
s 1
f 341//661 299//566 297//565
f 370//49 369//51 368//595
f 411//689 412//457 280//690
s 0
f 269//895 333//895 285//895
f 317//896 249//896 246//896
s 1
f 315//594 248//616 256//688
f 47//155 220//329 221//695
s 0
f 7//897 98//898 351//897
s 1
f 99//138 219//899 258//699
s 0
f 93//900 13//900 229//900
f 101//901 5//901 360//901
f 23//902 83//902 262//902
f 89//903 275//904 406//904
f 362//905 5//905 102//905
f 246//906 3//906 106//906
f 1//907 270//907 408//907
f 389//908 12//908 110//908
f 92//909 226//910 398//910
f 255//911 372//911 105//911
f 386//912 242//913 109//913
s 1
f 94//733 231//651 228//734
f 92//146 93//145 396//673
s 0
f 8//914 96//914 235//914
f 9//915 344//915 232//915
f 247//916 378//916 107//916
f 86//917 18//917 420//917
f 86//918 422//919 272//919
s 1
f 49//149 267//290 225//674
s 0
f 259//920 437//921 80//922
f 16//923 91//923 401//923
f 97//924 7//924 348//924
s 1
f 384//53 108//243 109//242
f 96//142 97//141 236//652
s 0
f 90//925 223//926 404//926
f 250//927 363//927 102//927
s 1
f 237//354 252//638 100//770
f 9//144 8//143 345//773
s 0
f 82//928 265//929 434//929
s 1
f 48//154 2//153 411//689
