# Blender 4.5.4 LTS
# www.blender.org
o Part_1.005
v -0.158531 0.314669 0.040960
v -0.158531 0.309970 0.040960
v -0.158531 0.354420 0.098110
v -0.222031 0.309970 0.040960
v -0.222031 0.309970 0.098110
v -0.158531 0.309970 0.098110
v -0.222031 0.314669 0.040960
v -0.206863 0.337832 0.142560
v -0.173692 0.337839 0.142560
v -0.167973 0.347175 0.142560
v -0.169381 0.343776 0.142560
v -0.179627 0.333525 0.142560
v -0.171303 0.340638 0.142560
v -0.186605 0.331255 0.142560
v -0.212588 0.347170 0.142560
v -0.211178 0.343769 0.142560
v -0.213447 0.350750 0.142560
v -0.204064 0.335442 0.142560
v -0.200924 0.333519 0.142560
v -0.166826 0.354420 0.142560
v -0.183027 0.332116 0.142560
v -0.190274 0.330965 0.142560
v -0.193944 0.331253 0.142560
v -0.176490 0.335449 0.142560
v -0.197523 0.332111 0.142560
v -0.167115 0.358090 0.142560
v -0.209254 0.340631 0.142560
v -0.167115 0.350750 0.142560
v -0.158531 0.354420 0.085410
v -0.160225 0.349356 0.118747
v -0.241081 0.387033 0.118747
v -0.241081 0.420460 0.112397
v -0.241081 0.420460 0.118747
v -0.159801 0.420460 0.118747
v -0.159801 0.354420 0.118747
v -0.241081 0.387033 0.112397
v -0.159801 0.420460 0.112397
v -0.190741 0.405270 0.155482
v -0.189052 0.404690 0.155482
v -0.189848 0.405121 0.155482
v -0.188222 0.403624 0.155482
v -0.188438 0.404023 0.155482
v -0.188717 0.404382 0.155482
v -0.188000 0.402746 0.155482
v -0.188075 0.403194 0.155482
v -0.188165 0.402307 0.155647
v -0.188165 0.402733 0.155647
v -0.190288 0.405232 0.155482
v -0.190741 0.405105 0.155647
v -0.188235 0.401885 0.155647
v -0.188577 0.401106 0.155647
v -0.188839 0.400769 0.155647
v -0.189511 0.400247 0.155647
v -0.190316 0.399970 0.155647
v -0.190741 0.399935 0.155647
v -0.188374 0.403558 0.155647
v -0.188839 0.404271 0.155647
v -0.189432 0.404938 0.155482
v -0.189511 0.404793 0.155647
v -0.191971 0.404793 0.155647
v -0.191194 0.405232 0.155482
v -0.192643 0.404271 0.155647
v -0.192329 0.404560 0.155647
v -0.193247 0.401885 0.155647
v -0.193317 0.402307 0.155647
v -0.192329 0.400480 0.155647
v -0.192643 0.400769 0.155647
v -0.192905 0.401106 0.155647
v -0.193108 0.401482 0.155647
v -0.193247 0.403155 0.155647
v -0.193108 0.403558 0.155647
v -0.193317 0.402733 0.155647
v -0.192905 0.403934 0.155647
v -0.189153 0.400480 0.155647
v -0.189902 0.404965 0.155647
v -0.188374 0.401482 0.155647
v -0.188235 0.403155 0.155647
v -0.188577 0.403934 0.155647
v -0.189153 0.404560 0.155647
v -0.190316 0.405070 0.155647
v -0.189902 0.400075 0.155647
v -0.191166 0.399970 0.155647
v -0.191580 0.404965 0.155647
v -0.191580 0.400075 0.155647
v -0.191166 0.405070 0.155647
v -0.191971 0.400247 0.155647
v -0.220761 0.403326 0.145394
v -0.220689 0.401720 0.145423
v -0.220761 0.401714 0.145394
v -0.216956 0.410176 0.145394
v -0.218110 0.409056 0.145423
v -0.218162 0.409106 0.145394
v -0.215617 0.411088 0.145354
v -0.214113 0.411702 0.145354
v -0.219112 0.407808 0.145423
v -0.219227 0.407885 0.145354
v -0.218210 0.409152 0.145354
v -0.219955 0.406438 0.145394
v -0.220420 0.404898 0.145423
v -0.220490 0.400124 0.145394
v -0.220554 0.400107 0.145354
v -0.220420 0.400142 0.145423
v -0.220827 0.403332 0.145354
v -0.220827 0.401708 0.145354
v -0.220689 0.403320 0.145423
v -0.219889 0.406408 0.145423
v -0.220015 0.406465 0.145354
v -0.220554 0.404933 0.145354
v -0.216996 0.410230 0.145354
v -0.220696 0.404592 0.145304
v -0.220865 0.403562 0.145304
v -0.220418 0.405599 0.145304
v -0.219545 0.407494 0.145304
v -0.220032 0.406572 0.145304
v -0.216700 0.410514 0.145304
v -0.214861 0.411497 0.145304
v -0.186510 0.413112 0.144591
v -0.189804 0.413887 0.144591
v -0.212852 0.412065 0.145304
v -0.212822 0.412804 0.144591
v -0.211737 0.412914 0.144591
v -0.215806 0.411056 0.145304
v -0.213871 0.411836 0.145304
v -0.218285 0.409159 0.145304
v -0.217530 0.409878 0.145304
v -0.219315 0.409084 0.144591
v -0.218961 0.408360 0.145304
v -0.221518 0.404150 0.144591
v -0.221290 0.405221 0.144591
v -0.220696 0.400444 0.145304
v -0.221517 0.400884 0.144591
v -0.220864 0.401475 0.145304
v -0.220921 0.402517 0.145304
v -0.186755 0.413261 0.144532
v -0.188663 0.413828 0.144467
v -0.188670 0.413788 0.144532
v -0.190648 0.414017 0.144467
v -0.190648 0.413976 0.144532
v -0.190933 0.413924 0.144591
v -0.187582 0.413479 0.144591
v -0.221660 0.403403 0.144532
v -0.217496 0.410900 0.144532
v -0.214363 0.412500 0.144532
v -0.212645 0.412923 0.144467
v -0.212640 0.412882 0.144532
v -0.220778 0.406808 0.144532
v -0.221660 0.401638 0.144532
v -0.221632 0.403064 0.144591
v -0.213893 0.412582 0.144591
v -0.214934 0.412248 0.144591
v -0.216882 0.411264 0.144591
v -0.215932 0.411808 0.144591
v -0.217767 0.410624 0.144591
v -0.218581 0.409896 0.144591
v -0.219957 0.408203 0.144591
v -0.220506 0.407256 0.144591
v -0.220952 0.406258 0.144591
v -0.221632 0.401972 0.144591
v -0.218814 0.416622 0.138467
v -0.218812 0.416581 0.138533
v -0.218816 0.416653 0.138395
v -0.220200 0.415975 0.138573
v -0.219423 0.416478 0.138552
v -0.219406 0.416431 0.138609
v -0.219137 0.416626 0.138406
v -0.219439 0.416517 0.138488
v -0.219451 0.416547 0.138417
v -0.219121 0.416554 0.138543
v -0.219708 0.416354 0.138560
v -0.219729 0.416391 0.138496
v -0.219969 0.416185 0.138567
v -0.219130 0.416595 0.138478
v -0.219684 0.416310 0.138616
v -0.219939 0.416145 0.138623
v -0.219112 0.416505 0.138600
v -0.181544 0.416145 0.138623
v -0.181773 0.416353 0.138560
v -0.182058 0.416478 0.138552
v -0.182359 0.416554 0.138543
v -0.182344 0.416626 0.138406
v -0.182031 0.416546 0.138417
v -0.182351 0.416595 0.138478
v -0.181752 0.416390 0.138496
v -0.181798 0.416310 0.138617
v -0.181510 0.416183 0.138568
v -0.182043 0.416517 0.138488
v -0.182668 0.416622 0.138467
v -0.182666 0.416653 0.138395
v -0.191609 0.408990 0.045685
v -0.187693 0.406118 0.046411
v -0.188489 0.406067 0.045685
v -0.188607 0.405892 0.045497
v -0.188961 0.406793 0.045685
v -0.189637 0.407310 0.045497
v -0.190278 0.407913 0.045497
v -0.193428 0.409396 0.045497
v -0.192411 0.409320 0.045685
v -0.195838 0.409624 0.045685
v -0.194107 0.409680 0.045685
v -0.196902 0.409178 0.045497
v -0.196687 0.409440 0.045685
v -0.199888 0.407623 0.045745
v -0.199201 0.407915 0.045497
v -0.199164 0.408237 0.045726
v -0.198368 0.408749 0.045706
v -0.198491 0.408431 0.045497
v -0.201501 0.405293 0.045804
v -0.201823 0.404398 0.045825
v -0.190003 0.408944 0.046480
v -0.190056 0.408334 0.045964
v -0.189306 0.408342 0.046463
v -0.194166 0.410499 0.046497
v -0.195956 0.410427 0.046497
v -0.191759 0.408853 0.045497
v -0.192576 0.409177 0.045497
v -0.194301 0.409506 0.045497
v -0.190990 0.408430 0.045497
v -0.195179 0.409506 0.045497
v -0.189077 0.406633 0.045497
v -0.196051 0.409396 0.045497
v -0.188232 0.405096 0.045497
v -0.197721 0.408854 0.045497
v -0.200875 0.405893 0.045497
v -0.201521 0.404263 0.045497
v -0.201249 0.405098 0.045497
v -0.200403 0.406635 0.045497
v -0.199842 0.407313 0.045497
v -0.188683 0.407666 0.046446
v -0.188144 0.406923 0.046429
v -0.187340 0.405269 0.046393
v -0.201066 0.406138 0.045784
v -0.200526 0.406918 0.045764
v -0.197508 0.409154 0.045685
v -0.197746 0.409934 0.046527
v -0.188887 0.406934 0.045829
v -0.195020 0.410386 0.046368
v -0.189428 0.407671 0.045897
v -0.190759 0.408918 0.046033
v -0.192352 0.409813 0.046172
v -0.193214 0.410110 0.046240
v -0.195288 0.415386 0.065700
v -0.194737 0.415402 0.065743
v -0.225797 0.415477 0.073570
v -0.225698 0.415340 0.073301
v -0.225351 0.415555 0.073304
v -0.226007 0.415074 0.073298
v -0.226127 0.415194 0.073567
v -0.226745 0.414548 0.073848
v -0.226508 0.414934 0.073849
v -0.226408 0.414862 0.073565
v -0.226919 0.414128 0.073849
v -0.226635 0.414492 0.073564
v -0.224622 0.416099 0.073874
v -0.224633 0.416170 0.074166
v -0.224168 0.416145 0.073906
v -0.224168 0.416234 0.074462
v -0.225427 0.415706 0.073574
v -0.225026 0.415875 0.073579
v -0.225064 0.415990 0.073866
v -0.225086 0.416060 0.074158
v -0.225483 0.415815 0.073860
v -0.226294 0.414318 0.073056
v -0.226802 0.414090 0.073565
v -0.225869 0.415576 0.073855
v -0.226214 0.415280 0.073851
v -0.226099 0.414638 0.073056
v -0.226271 0.414763 0.073297
v -0.226641 0.414038 0.073297
v -0.226484 0.414415 0.073296
v -0.226438 0.413972 0.073056
v -0.226737 0.413641 0.073298
v -0.226904 0.413668 0.073567
v -0.227025 0.413687 0.073851
v -0.227071 0.413235 0.073880
v -0.224168 0.416209 0.074181
v -0.174847 0.414492 0.073564
v -0.175355 0.415194 0.073567
v -0.175074 0.414862 0.073565
v -0.176456 0.415875 0.073579
v -0.176055 0.415706 0.073574
v -0.176419 0.415990 0.073866
v -0.175613 0.415576 0.073855
v -0.175685 0.415477 0.073570
v -0.175999 0.415815 0.073860
v -0.176396 0.416060 0.074158
v -0.176849 0.416170 0.074166
v -0.174680 0.414090 0.073565
v -0.174563 0.414128 0.073849
v -0.174737 0.414548 0.073848
v -0.174974 0.414934 0.073849
v -0.175268 0.415280 0.073851
v -0.176860 0.416099 0.073874
v -0.177314 0.416145 0.073906
v -0.177314 0.416209 0.074181
v -0.193551 0.415347 0.065743
v -0.200164 0.408401 0.046613
v -0.199420 0.409009 0.046585
v -0.198608 0.409523 0.046556
v -0.196835 0.410241 0.046497
v -0.195062 0.410513 0.046497
v -0.192404 0.410171 0.046497
v -0.191565 0.409863 0.046497
v -0.190762 0.409460 0.046497
v -0.193276 0.410385 0.046497
v -0.194974 0.409704 0.045685
v -0.193249 0.409552 0.045685
v -0.190152 0.408053 0.045685
v -0.189518 0.407459 0.045685
v -0.190852 0.408565 0.045685
v -0.188107 0.405287 0.045685
vn -0.7071 0.7071 -0.0000
vn -0.9637 -0.0001 0.2671
vn -0.8200 0.5286 0.2195
vn -0.4355 -0.0937 0.8953
vn -0.3589 -0.0743 0.9304
vn -0.4481 -0.0381 0.8932
vn -0.5557 0.0343 0.8307
vn -0.5530 -0.0375 0.8323
vn -0.3404 0.3094 0.8879
vn -0.3307 0.4489 0.8301
vn -0.4212 0.3997 0.8141
vn -0.3638 -0.0410 0.9306
vn -0.4479 0.0379 0.8933
vn -0.6197 -0.0999 0.7784
vn -0.5032 0.1810 0.8450
vn -0.7454 0.0843 0.6612
vn -0.7172 0.0841 0.6918
vn -0.5391 0.2376 0.8080
vn -0.6172 0.0708 0.7836
vn -0.5097 0.2769 0.8146
vn -0.3389 0.1495 0.9289
vn -0.4098 0.1844 0.8934
vn -0.3901 0.0988 0.9155
vn -0.5824 0.1839 0.7918
vn -0.3177 0.2232 0.9216
vn -0.3495 0.2294 0.9084
vn -0.2912 0.3925 0.8724
vn -0.6052 -0.1076 0.7887
vn -0.6152 -0.0960 0.7825
vn -0.6917 -0.1078 0.7141
vn -0.5449 0.4423 0.7123
vn -0.4819 0.3718 0.7935
vn -0.5065 0.4307 0.7469
vn 0.1241 0.9265 0.3552
vn 0.1418 0.8764 0.4602
vn 0.2053 0.8903 0.4065
vn -0.0040 0.9499 0.3124
vn -0.0162 0.8856 0.4642
vn 0.2516 0.8360 0.4876
vn 0.1731 0.8184 0.5480
vn 0.2394 0.7916 0.5622
vn 0.3394 0.7687 0.5421
vn 0.3759 0.6876 0.6212
vn -0.4833 0.5319 -0.6954
vn -0.4439 0.5726 -0.6893
vn -0.3008 0.3506 -0.8869
vn -0.3784 0.6118 -0.6946
vn -0.3282 0.5214 -0.7876
vn 0.4917 0.6099 -0.6215
vn 0.5354 0.6415 -0.5495
vn 0.4209 0.5631 -0.7111
vn -0.5204 0.7172 -0.4636
vn -0.4022 0.7337 -0.5477
vn -0.4873 0.6561 -0.5763
vn -0.8785 0.2843 -0.3840
vn -0.8217 0.4198 -0.3854
vn -0.7880 0.4021 -0.4662
vn -0.0108 0.9725 -0.2327
vn -0.1487 0.9522 -0.2668
vn -0.1721 0.9580 -0.2295
vn -0.2560 0.9401 -0.2250
vn -0.2928 0.9024 -0.3161
vn -0.4346 0.8290 -0.3518
vn -0.3140 0.8386 -0.4452
vn -0.4064 0.7903 -0.4586
vn -0.8415 0.2731 -0.4661
vn -0.6541 0.6600 -0.3694
vn -0.6262 0.6267 -0.4638
vn -0.5447 0.7601 -0.3543
vn -0.7610 0.2482 -0.5995
vn -0.7122 0.3636 -0.6004
vn -0.6574 0.3315 -0.6767
vn -0.6661 0.4658 -0.5826
vn -0.7160 0.5201 -0.4657
vn -0.6999 0.2421 -0.6719
vn -0.8757 0.1517 -0.4585
vn -0.7902 0.1718 -0.5883
vn 0.8196 0.4192 -0.3906
vn 0.8468 0.3177 -0.4267
vn 0.7977 0.4084 -0.4436
vn 0.7456 0.5446 -0.3841
vn 0.7262 0.5257 -0.4431
vn 0.8584 0.3297 -0.3931
vn 0.4104 0.8228 -0.3932
vn 0.4266 0.8429 -0.3278
vn 0.5399 0.7437 -0.3942
vn 0.5438 0.7589 -0.3582
vn 0.3023 0.9030 -0.3053
vn 0.2910 0.9271 -0.2364
vn -0.0000 1.0000 -0.0000
vn 0.4124 0.6578 0.6303
vn 0.3791 0.7217 0.5792
vn -0.0000 -0.0000 -1.0000
vn -0.9708 -0.2400 -0.0000
vn -0.4922 -0.8593 0.1390
vn -0.4173 -0.9088 -0.0000
vn -0.9662 -0.0000 -0.2577
vn -0.6814 0.1918 -0.7063
vn -0.5332 0.1737 -0.8280
vn -0.4006 0.1508 -0.9038
vn -0.1534 0.0844 -0.9845
vn -0.2802 0.1765 -0.9436
vn -0.3078 0.2098 -0.9280
vn -0.0828 0.0685 -0.9942
vn -0.0591 0.0630 -0.9963
vn -0.0429 0.0590 -0.9973
vn -0.0419 0.0556 -0.9976
vn -0.0308 0.0560 -0.9980
vn -0.0212 0.0536 -0.9983
vn -0.0132 0.0514 -0.9986
vn -0.0320 0.2536 -0.9668
vn -0.0280 0.2223 -0.9746
vn -0.0062 0.0496 -0.9988
vn -0.3972 0.4549 0.7971
vn -0.4756 0.5137 0.7141
vn -0.9332 0.0700 -0.3526
vn -0.9499 0.0137 -0.3124
vn -0.9158 0.1444 -0.3748
vn -0.8404 0.1316 -0.5257
vn -0.6916 0.1925 -0.6962
vn -0.6929 0.1937 -0.6945
vn 1.0000 -0.0000 -0.0000
vn 0.6301 0.3086 -0.7125
vn 0.6328 0.3114 -0.7090
vn 0.0878 -0.0684 0.9938
vn 0.4872 -0.3507 0.7998
vn 0.1596 -0.1235 0.9794
vn -0.1028 -0.7166 0.6899
vn -0.1226 -0.4739 0.8720
vn -0.3176 -0.7672 0.5573
vn -0.4279 -0.6987 0.5733
vn -0.4204 -0.5682 0.7074
vn -0.4811 -0.6625 0.5741
vn -0.2953 -0.3354 0.8946
vn -0.6343 -0.5400 0.5533
vn -0.6327 -0.5405 0.5547
vn -0.7292 -0.4471 0.5180
vn -0.7247 -0.3005 0.6201
vn -0.4824 -0.2000 0.8528
vn -0.8207 -0.3402 0.4591
vn -0.8317 -0.3260 0.4495
vn -1.0000 -0.0000 -0.0000
vn -0.2467 0.5955 0.7645
vn -0.6418 0.6300 0.4373
vn 0.0229 0.6460 0.7630
vn -0.5738 0.5981 -0.5594
vn -0.2210 0.6653 0.7131
vn -0.2051 0.6435 0.7375
vn -0.1985 0.6872 0.6988
vn 0.9998 0.0192 -0.0000
vn 0.1745 0.8032 -0.5696
vn 0.1832 0.9447 -0.2719
vn -0.4750 0.5057 -0.7202
vn -0.3321 0.6045 -0.7241
vn -0.3230 0.6564 -0.6817
vn -0.3261 0.6573 -0.6794
vn -0.2515 0.6359 -0.7296
vn -0.2397 0.6881 -0.6849
vn -0.1948 0.6761 -0.7106
vn -0.2219 0.6786 -0.7002
vn -0.1697 0.6626 -0.7295
vn -0.1634 0.6798 -0.7150
vn -0.1616 0.6877 -0.7078
vn -0.1348 0.7023 -0.6990
vn -0.0858 0.6805 -0.7277
vn -0.0735 0.7082 -0.7022
vn -0.0334 0.7061 -0.7074
vn -0.0000 0.6885 -0.7252
vn 0.0063 0.0502 -0.9987
vn 0.0136 0.0528 -0.9985
vn 0.1705 0.4299 -0.8866
vn 0.1272 0.3085 -0.9427
vn 0.0272 0.0577 -0.9980
vn 0.0328 0.0596 -0.9977
vn 0.0468 0.0644 -0.9968
vn 0.4104 0.4956 -0.7655
vn 0.3304 0.3137 -0.8902
vn 0.0670 0.0712 -0.9952
vn 0.1005 0.0790 -0.9918
vn 0.0988 0.0818 -0.9917
vn 0.1603 0.1017 -0.9818
vn 0.3277 0.1544 -0.9321
vn 0.6663 0.2540 -0.7011
vn 0.6596 0.2522 -0.7081
vn 0.8272 0.2918 -0.4802
vn 0.8762 0.2727 -0.3974
vn 0.8841 0.2688 -0.3823
vn 0.8839 0.2690 -0.3827
vn 0.9992 0.0303 -0.0271
vn -0.0054 0.9936 -0.1131
vn 0.0502 0.9948 -0.0887
vn -0.0781 0.9865 -0.1443
vn -0.2275 0.9520 -0.2047
vn -0.3654 0.8954 -0.2546
vn -0.3622 0.8966 -0.2547
vn -0.7942 0.4850 -0.3662
vn -0.7473 0.5448 -0.3805
vn 0.5306 -0.8353 0.1439
vn -0.0000 0.9942 -0.1078
vn 0.6524 0.6594 -0.3735
vn 0.6562 0.6220 -0.4271
vn 0.9981 -0.0000 0.0614
vn 0.9832 -0.0000 0.1827
vn 0.9849 -0.0000 0.1733
vn 0.9688 -0.0811 0.2343
vn 0.9534 -0.1068 0.2821
vn 0.9023 -0.2165 0.3729
vn 0.4795 -0.1986 0.8548
vn 0.5714 -0.2838 0.7701
vn 0.7278 -0.4510 0.5167
vn 0.5092 -0.4317 0.7445
vn 0.5317 -0.6252 0.5713
vn 0.5325 -0.6234 0.5725
vn 0.4283 -0.6984 0.5734
vn 0.3179 -0.7670 0.5573
vn 0.1994 -0.8288 0.5228
vn 0.0697 -0.8819 0.4663
vn -0.7356 -0.1765 0.6540
vn -0.6355 -0.1533 0.7567
vn -0.7694 -0.1846 0.6115
vn -0.7496 -0.1458 0.6457
vn -0.7492 -0.1468 0.6458
vn -0.7681 -0.0962 0.6330
vn -0.7085 -0.0651 0.7027
vn -0.6096 -0.0853 0.7881
vn -0.7068 0.1413 0.6931
vn -0.0537 0.7941 0.6054
vn -0.1310 0.8717 0.4722
vn -0.1409 0.8009 0.5820
vn -0.2376 0.6669 -0.7063
vn -0.2478 0.6667 -0.7029
vn -0.1739 0.5658 0.8060
vn -0.4876 0.5452 0.6819
vn 0.5901 0.3715 -0.7168
vn 0.5728 0.4126 -0.7083
vn 0.5684 0.4206 -0.7071
vn 0.6436 0.3152 -0.6974
vn 0.6459 0.3174 -0.6943
vn 0.6473 0.3121 -0.6954
vn 0.5278 0.4574 -0.7157
vn 0.5303 0.4548 -0.7155
vn -0.2354 -0.1443 0.9611
vn -0.2545 -0.1374 0.9573
vn -0.2953 -0.1224 0.9475
vn -0.3220 -0.1111 0.9402
vn -0.3446 -0.1014 0.9332
vn -0.4721 -0.1290 0.8720
vn 0.0468 -0.1843 0.9818
vn -0.5917 0.4458 -0.6717
vn -0.6089 0.3999 -0.6851
vn -0.6148 0.3671 -0.6980
vn -0.0000 0.0478 -0.9989
vn -0.1848 0.0488 0.9816
vn -0.1807 0.0828 0.9800
vn -0.5329 0.5375 -0.6535
vn -0.5344 0.5378 -0.6520
vn -0.5352 0.5399 -0.6497
vn -0.6705 0.2605 -0.6947
vn 0.4170 0.5831 -0.6972
vn 0.4129 0.5687 -0.7114
vn -0.5012 0.8234 0.2661
vn -0.3523 0.6475 0.6758
vn -0.3866 0.6228 0.6802
vn -0.1466 0.6926 -0.7062
vn -0.5525 0.1898 0.8116
vn -0.1909 0.9022 -0.3868
vn -0.0678 0.7045 -0.7065
vn -0.0603 0.7014 -0.7102
vn 0.0110 0.7080 -0.7062
vn 0.0327 0.7165 -0.6968
vn 0.0788 0.6855 -0.7238
vn 0.0816 0.6877 -0.7214
vn 0.0863 0.6852 -0.7232
vn 0.0112 0.7143 -0.6997
vn 0.0140 0.7045 -0.7096
vn -0.6145 0.4909 0.6175
vn 0.1428 0.6928 -0.7069
vn 0.1445 0.6964 -0.7029
vn 0.1370 0.6943 -0.7065
vn 0.1408 0.6969 -0.7032
vn 0.0802 0.9651 -0.2495
vn 0.0424 0.9812 -0.1881
vn 0.0786 0.9649 -0.2506
vn 0.1137 -0.1747 0.9780
vn -0.5224 0.5597 -0.6433
vn 0.7815 0.3874 -0.4891
vn -0.6757 0.2288 -0.7008
vn -0.3545 0.6682 0.6541
vn -0.2738 0.6087 0.7446
vn 0.4639 0.5449 -0.6985
vn 0.4109 0.5735 -0.7087
vn 0.2681 0.6612 -0.7007
vn 0.2548 0.6616 -0.7053
vn 0.2933 0.7859 -0.5444
vn 0.5491 0.7727 -0.3185
vn 0.1459 0.9676 -0.2059
vn 0.0162 0.9889 -0.1476
vn 0.0649 0.9835 -0.1688
vn 0.0096 0.9933 -0.1149
vn -0.0089 0.9692 -0.2461
vn -0.0378 0.9970 -0.0668
vn 0.4920 0.8413 0.2241
vn -0.0168 0.9881 -0.1531
vn 0.0019 0.9961 -0.0884
vn 0.1152 0.9815 -0.1532
vn 0.0455 0.9811 -0.1879
vn -0.0742 0.9713 -0.2262
vn -0.0076 0.9939 -0.1101
vn -0.0962 0.9591 -0.2660
vn -0.0388 0.9732 -0.2266
vn 0.0449 0.9684 -0.2454
vn -0.7465 0.0698 0.6617
vn -0.7587 0.1243 0.6395
vn -0.7641 0.0949 0.6381
vn -0.7173 0.1530 0.6797
vn -0.7373 0.1570 0.6571
vn -0.7033 0.2317 0.6720
vn -0.7029 0.2291 0.6734
vn -0.6262 0.1392 0.7671
vn -0.6380 0.3245 0.6983
vn -0.6482 0.3317 0.6854
vn -0.8236 0.4577 0.3348
vn -0.5481 0.3268 0.7699
vn -0.5889 0.4292 0.6849
vn -0.5460 0.4935 0.6771
vn -0.5243 0.5245 0.6708
vn -0.4971 0.5714 0.6530
vn -0.5119 0.5437 0.6651
vn -0.4056 0.6625 0.6298
vn -0.3504 0.7061 0.6153
vn -0.3236 0.7952 0.5128
vn -0.3417 0.7702 0.5386
vn -0.2531 0.8299 0.4972
vn -0.2129 0.8881 0.4073
vn -0.1552 0.9015 0.4039
vn -0.0696 0.9613 0.2665
vn -0.0717 0.9608 0.2677
vn -0.0000 0.9817 0.1902
vn -0.2043 0.6626 0.7206
vn -0.2414 0.7570 0.6072
vn 0.9591 -0.0000 0.2830
vn 0.4619 -0.0364 0.8862
vn 0.2715 -0.0075 0.9624
vn 0.2053 -0.0333 0.9781
vn 0.4035 -0.0669 0.9125
vn 0.3638 -0.0879 0.9273
vn 0.3635 -0.0872 0.9275
vn 0.3153 -0.1095 0.9427
vn 0.3152 -0.1087 0.9428
vn 0.2897 -0.1200 0.9496
vn 0.2502 -0.1351 0.9587
vn -0.0987 -0.0866 0.9913
vn -0.1867 -0.1594 0.9694
vn -0.0694 -0.0774 0.9946
vn 0.4707 0.7681 -0.4341
vn 0.4711 0.7676 -0.4346
vn 0.4704 0.7682 -0.4344
vn -0.1486 0.6643 0.7325
vn -0.4046 0.8087 0.4269
vn -0.1495 0.6712 0.7261
vn -0.6231 -0.1104 0.7743
vn -0.5892 -0.1300 0.7974
vn -0.5899 -0.1305 0.7968
vn -0.6911 -0.1389 0.7093
vn -0.6962 -0.0401 0.7167
vn -0.6949 -0.0437 0.7178
vn -0.2028 0.8935 -0.4007
vn -0.0000 -0.0000 1.0000
vn -0.0001 -0.0000 1.0000
vn -0.0006 0.0008 1.0000
vn -0.0004 -0.0007 1.0000
vn 0.2457 -0.0013 0.9693
vn -0.0012 -0.0003 1.0000
vn 0.1584 0.4610 0.8731
vn 0.0900 0.5383 0.8379
vn -0.0495 0.1953 0.9795
vn -0.1070 0.4182 0.9020
vn -0.1101 0.1659 0.9800
vn -0.1507 0.2089 0.9663
vn -0.2053 0.1981 0.9584
vn -0.0006 0.0020 1.0000
vn -0.2448 0.1678 0.9549
vn -0.1600 0.0266 0.9868
vn -0.2385 -0.0401 0.9703
vn -0.1403 -0.0235 0.9898
vn 0.0002 -0.0005 1.0000
vn -0.1246 -0.0969 0.9875
vn -0.0012 -0.0002 1.0000
vn -0.0638 -0.1450 0.9874
vn -0.0348 -0.0968 0.9947
vn -0.0182 -0.0719 0.9972
vn 0.0146 -0.1774 0.9840
vn 0.0064 -0.0646 0.9979
vn 0.0654 0.7798 0.6226
vn -0.5335 0.4398 -0.7225
vn -0.5365 0.4439 -0.7177
vn 0.0319 0.4899 0.8712
vn -0.1693 0.7503 0.6390
vn -0.2452 0.7558 0.6072
vn -0.3746 0.7494 -0.5459
vn -0.3758 0.7497 -0.5448
vn -0.3919 0.7206 -0.5720
vn -0.3392 0.7871 -0.5152
vn -0.0916 0.9517 -0.2930
vn -0.0773 0.9572 -0.2789
vn -0.1049 0.9723 -0.2090
vn -0.0969 0.9315 -0.3506
vn -0.0445 0.9682 -0.2462
vn 0.0761 0.9663 -0.2458
vn 0.1527 -0.1659 0.9743
vn 0.1528 -0.1681 0.9739
vn 0.1701 0.6930 -0.7006
vn 0.2010 0.8192 -0.5372
vn -0.5753 -0.0086 0.8179
vn -0.7040 0.5111 0.4931
vn 0.2670 0.7367 -0.6212
vn 0.2139 0.6734 -0.7076
vn -0.5665 0.4815 -0.6687
vn -0.5723 0.4803 -0.6646
vn -0.5644 0.4852 -0.6679
vn 0.4701 0.5176 -0.7149
vn 0.4739 0.5166 -0.7131
vn 0.4681 0.5156 -0.7176
vn 0.4947 0.6058 -0.6231
vn 0.3438 0.6119 -0.7123
vn -0.4872 0.5959 -0.6384
vn 0.5881 0.3824 -0.7127
vn 0.5841 0.3850 -0.7146
vn 0.5902 0.3839 -0.7101
vn 0.4787 0.5109 -0.7140
vn 0.5316 0.4781 -0.6992
vn 0.5208 0.4611 -0.7184
vn 0.5203 0.4642 -0.7168
vn 0.5748 0.4175 -0.7038
vn 0.5748 0.4206 -0.7019
vn 0.2720 0.8383 0.4726
vn 0.3282 0.6239 0.7092
vn 0.4022 0.6725 0.6213
vn 0.5179 0.5174 0.6812
vn 0.5179 0.5195 0.6796
vn 0.4507 0.6322 0.6303
vn 0.4964 0.5394 0.6802
vn 0.5278 0.5174 0.6736
vn 0.6235 0.4071 0.6675
vn 0.6229 0.3856 0.6807
vn 0.6652 0.3091 0.6797
vn 0.7102 0.2428 0.6608
vn 0.7444 0.1602 0.6482
vn 0.8874 0.0699 0.4556
vn -0.0253 0.8868 0.4615
vn 0.3800 0.8518 -0.3607
vn 0.3485 0.8549 -0.3843
vn 0.3481 0.8549 -0.3848
vn 0.3504 0.8530 -0.3867
vn 0.9564 -0.0753 0.2821
vn 0.4798 0.5217 0.7055
vn 0.0549 0.9638 -0.2608
vn 0.0660 0.9718 -0.2262
vn -0.6938 0.0359 0.7193
vn -0.8841 0.0060 0.4672
vn -0.8527 -0.1328 0.5053
vn -0.5763 0.1017 0.8109
vn -0.7043 0.0740 0.7060
vn -0.7688 -0.2185 0.6011
vn -0.6784 0.0712 0.7312
vn 0.4307 0.5083 -0.7457
vn 0.3235 0.6370 -0.6997
vn 0.3002 0.7341 -0.6090
vn -0.1086 -0.1773 0.9782
vn -0.1072 -0.1773 0.9783
vn 0.0794 -0.1805 0.9804
vn -0.5243 0.4739 0.7075
vn -0.4332 0.5316 0.7278
vn -0.4360 0.5290 0.7281
vn -0.5066 0.3898 0.7690
vn -0.6674 0.1907 0.7199
vn -0.7004 0.2037 0.6840
vn 0.5727 0.6729 -0.4682
vn 0.5729 0.6725 -0.4685
vn 0.5723 0.6728 -0.4688
vn 0.0147 -0.1863 0.9824
vn -0.4345 0.5950 0.6762
vn -0.1653 0.7350 0.6576
vn 0.6931 0.4687 -0.5476
vn -0.0166 0.8864 0.4625
vn -0.0378 0.9139 0.4041
vn -0.0000 0.9173 0.3982
vn 0.5975 0.0470 0.8005
vn 0.5227 -0.0000 0.8525
vn 0.3337 0.7594 -0.5585
vn 0.3920 0.5996 -0.6978
vn 0.4571 0.6894 -0.5620
vn -0.0754 -0.1822 0.9804
vn 0.5719 0.6754 -0.4657
vn 0.5177 0.4947 -0.6980
vn 0.5192 0.4913 -0.6993
vn 0.3334 0.6115 -0.7176
vn 0.3369 0.6126 -0.7150
vn 0.5710 0.4302 -0.6992
vn 0.6534 0.4873 -0.5793
vn -0.3303 0.6440 -0.6900
vn -0.3672 0.6471 -0.6682
vn -0.0026 0.9186 0.3952
vn 0.3908 0.6264 0.6745
vn 0.2978 0.7238 0.6224
vn 0.3366 0.7622 0.5530
vn 0.3145 0.7149 0.6245
vn 0.3431 0.7589 0.5535
vn -0.3514 -0.0000 0.9362
vn -0.3488 -0.0005 0.9372
vn -0.3495 0.0011 0.9369
vn 0.1426 0.7206 0.6785
vn -0.0581 0.7058 0.7060
vn -0.0583 0.7056 0.7062
vn 0.6992 0.1172 0.7053
vn 0.6992 0.1159 0.7054
vn -0.0146 -0.1865 0.9823
vn 0.3861 0.5933 0.7064
vn 0.6892 0.1158 0.7152
vn 0.6893 0.1154 0.7152
vn 0.6972 0.1212 0.7066
vn 0.6970 0.1215 0.7067
vn 0.2926 0.7272 0.6210
vn 0.2898 0.7251 0.6247
vn 0.3135 0.7193 0.6200
vn -0.6334 0.2993 -0.7136
vn -0.6357 0.2991 -0.7117
vn -0.3557 0.6041 0.7131
vn -0.1090 0.6275 0.7710
vn -0.3328 0.7063 0.6248
vn -0.3451 0.5990 0.7226
vn 0.1554 0.5928 0.7902
vn 0.0902 0.7045 -0.7040
vn 0.0976 0.7029 -0.7045
vn 0.6220 0.3365 0.7070
vn 0.6230 0.3364 0.7062
vn 0.0654 0.3041 0.9504
vn 0.2173 0.7016 0.6787
vn -0.1966 0.7275 0.6574
vn -0.1942 0.7254 0.6604
vn -0.1087 0.7902 0.6031
vn -0.1058 0.7885 0.6059
vn -0.0706 0.8142 0.5763
vn -0.0675 0.8126 0.5789
vn -0.0540 0.8251 0.5624
vn -0.0496 0.8250 0.5630
vn -0.0403 0.8332 0.5515
vn -0.0409 0.8424 0.5373
vn -0.2558 0.8131 0.5229
vn -0.0215 0.8231 0.5675
vn 0.0104 0.8457 0.5335
vn 0.0519 0.8449 0.5325
vn 0.0664 0.8799 0.4704
vn 0.1115 0.9006 0.4201
vn 0.0592 0.8840 0.4638
vn 0.0990 0.8595 0.5014
vn 0.0978 0.8591 0.5024
vn 0.1277 0.8385 0.5298
vn 0.1621 0.8134 0.5586
vn -0.1110 0.6999 0.7056
vn -0.1122 0.7008 0.7045
vn 0.2396 0.7691 0.5925
vn 0.2926 0.7114 0.6390
vn 0.2917 0.7264 0.6223
vn 0.2850 0.6484 0.7059
vn 0.5593 0.4347 0.7059
vn 0.1751 0.6789 -0.7130
vn 0.2782 0.7010 -0.6566
vn 0.2626 0.6560 -0.7076
vn 0.1725 0.6710 -0.7211
vn -0.0328 -0.8945 0.4459
vn -0.2440 0.4163 0.8759
vn -0.2142 0.6767 0.7044
vn -0.2757 0.7448 0.6076
vn 0.1336 0.5741 0.8078
vn -0.2965 0.6305 0.7173
vn -0.2876 0.6984 0.6554
vn -0.2996 0.4940 0.8162
vn -0.4847 0.3296 0.8102
vn -0.0755 0.7439 0.6640
vn -0.1093 0.7812 0.6146
vn -0.0963 0.7512 0.6530
vn -0.1105 0.8364 0.5369
vn -0.0753 0.7425 0.6656
vn -0.0634 0.7552 0.6524
vn -0.0638 0.7559 0.6515
vn -0.0380 0.7820 0.6221
vn -0.0140 0.7827 0.6222
vn 0.0390 0.7820 0.6221
vn 0.0589 0.7756 0.6285
vn 0.1011 0.8425 0.5292
vn 0.6681 0.2304 0.7075
vn 0.6683 0.2301 0.7074
vn -0.2249 0.5112 0.8295
vn -0.2078 0.4992 0.8412
vn -0.1741 0.6045 0.7773
vn -0.1406 0.6024 0.7857
vn -0.1461 0.6499 0.7458
vn 0.0585 0.7063 0.7055
vn 0.0581 0.7058 0.7060
vn 0.4242 0.6500 0.6305
vn 0.6535 0.2866 -0.7006
vn -0.2066 0.6728 0.7104
vn 0.1052 0.8457 0.5232
vn -0.1709 0.6783 0.7146
vn 0.7071 -0.7071 -0.0000
vn -0.2276 0.6844 -0.6927
vn -0.2364 0.6786 -0.6954
vn -0.3096 0.3432 0.8867
vn -0.4863 0.5461 0.6821
vn 0.5866 0.3773 -0.7166
vn 0.6287 0.2962 -0.7190
vn 0.6314 0.2927 -0.7181
vn 0.5485 0.4630 -0.6963
vn 0.5304 0.4890 -0.6925
vn 0.5514 0.4612 -0.6952
vn 0.0444 -0.1846 0.9818
vn -0.2670 0.6473 0.7140
vn 0.1223 0.9545 -0.2718
vn 0.1539 0.9664 -0.2061
vn 0.1079 -0.1759 0.9785
vn 0.8033 0.3443 -0.4860
vn 0.0152 0.9690 -0.2464
vn 0.4974 0.7463 -0.4423
vn 0.3677 0.8478 -0.3822
vn 0.4971 0.7461 -0.4430
vn -0.1445 0.6891 0.7101
vn -0.2948 0.8283 -0.4765
vn -0.3654 0.0394 0.9300
vn 0.1002 0.7768 0.6218
vn 0.0888 0.7714 0.6301
vn -0.5383 0.4771 -0.6947
vn -0.5440 0.4736 -0.6927
vn -0.3322 0.4520 0.8278
vn -0.1571 0.7579 0.6331
vn 0.1437 -0.1683 0.9752
vn 0.1417 -0.1675 0.9756
vn -0.5608 0.4904 -0.6671
vn -0.5622 0.4908 -0.6656
vn -0.5583 0.4965 -0.6646
vn 0.4831 0.5282 -0.6983
vn 0.4689 0.5471 -0.6934
vn 0.4852 0.5246 -0.6995
vn 0.6158 0.3606 -0.7005
vn 0.6149 0.3655 -0.6988
vn -0.3892 0.6605 -0.6420
vn 0.9563 -0.0801 0.2814
vn 0.4802 0.5216 0.7053
vn 0.5022 0.5682 -0.6519
vn 0.3435 0.6119 -0.7125
vn 0.3466 0.6087 -0.7137
vn -0.1146 -0.1761 0.9777
vn -0.1159 -0.1760 0.9775
vn 0.0751 -0.1812 0.9806
vn -0.4677 0.1799 0.8654
vn -0.6728 0.2193 0.7066
vn -0.6710 0.2215 0.7076
vn 0.6393 0.6012 -0.4795
vn 0.6421 0.6002 -0.4770
vn 0.6391 0.6011 -0.4799
vn 0.3505 0.6175 -0.7041
vn 0.3487 0.6211 -0.7019
vn -0.3239 0.6522 -0.6853
vn -0.3202 0.6528 -0.6866
vn -0.3365 0.6781 -0.6534
vn -0.3511 0.0011 0.9363
vn -0.3499 -0.0000 0.9368
vn -0.3487 -0.0000 0.9372
vn -0.0593 0.7073 0.7044
vn 0.6981 0.1177 0.7062
vn 0.6974 0.1168 0.7071
vn 0.6976 0.1168 0.7069
vn -0.0153 -0.1865 0.9823
vn 0.3876 0.5938 0.7051
vn 0.3068 0.7170 0.6259
vn 0.3875 0.7069 0.5917
vn 0.3110 0.7142 0.6270
vn -0.6421 0.3172 -0.6979
vn -0.6438 0.3149 -0.6974
vn -0.2455 0.7338 0.6335
vn -0.2758 0.6758 0.6836
vn -0.2619 0.6109 0.7471
vn 0.0971 0.7002 -0.7073
vn 0.0982 0.7041 -0.7033
vn 0.0981 0.6948 -0.7125
vn -0.1164 0.6920 0.7124
vn -0.1157 0.6908 0.7138
vn -0.1147 0.6927 0.7121
vn 0.2851 0.6482 0.7061
vn 0.5593 0.4348 0.7058
vn 0.1900 0.6863 -0.7021
vn 0.1918 0.6929 -0.6951
vn 0.6711 0.2295 0.7050
vn 0.6713 0.2293 0.7048
s 1
f 32//1 31//2 33//3
f 100//4 102//5 89//6
f 103//7 104//8 89//6
f 92//9 109//10 97//11
f 88//12 89//6 102//5
f 89//6 87//13 103//7
f 110//14 103//7 108//15
f 103//7 110//14 111//16
f 112//17 108//15 107//18
f 87//13 108//15 103//7
f 113//19 107//18 96//20
f 106//21 98//22 99//23
f 113//19 114//24 107//18
f 98//22 96//20 107//18
f 91//25 92//9 95//26
f 92//9 90//27 109//10
f 130//28 132//29 131//30
f 126//31 127//32 124//33
f 180//34 182//35 181//36
f 180//34 188//37 187//38
f 182//35 180//34 187//38
f 186//39 182//35 179//40
f 179//40 178//41 186//39
f 186//39 181//36 182//35
f 183//42 186//39 178//41
f 177//43 183//42 178//41
f 202//44 204//45 203//46
f 205//47 206//48 204//45
f 204//45 206//48 203//46
f 209//49 211//50 210//51
f 243//52 245//53 244//54
f 251//55 248//56 252//57
f 255//58 253//59 254//60
f 253//59 260//61 254//60
f 259//62 260//61 253//59
f 261//63 258//64 257//65
f 252//57 263//66 251//55
f 257//65 245//53 243//52
f 258//64 261//63 259//62
f 265//67 243//52 247//68
f 243//52 265//67 264//69
f 268//70 269//71 262//72
f 267//73 269//71 252//57
f 250//74 267//73 252//57
f 270//75 268//70 262//72
f 263//66 268//70 272//76
f 268//70 271//77 272//76
f 289//78 287//79 276//80
f 290//81 276//80 278//82
f 287//79 289//78 288//83
f 276//80 290//81 289//78
f 280//84 284//85 283//86
f 283//86 284//85 282//87
f 281//88 285//89 284//85
f 32//1 34//90 37//90
s 0
f 58//91 176//91 184//92
f 4//93 1//93 2//93
f 5//94 31//94 36//94
s 1
f 5//95 36//94 4//96
s 0
f 36//97 32//97 7//97
f 36//97 7//97 4//97
f 208//98 224//98 7//98
s 1
f 224//99 225//100 7//101
f 225//100 223//102 7//101
f 223//102 226//103 7//101
f 226//103 227//104 7//101
s 0
f 227//105 203//105 7//105
s 1
f 203//46 206//48 7//106
s 0
f 206//107 222//108 7//108
f 222//109 200//109 7//109
f 200//110 220//110 7//110
s 1
f 220//111 218//112 7//113
f 125//114 154//115 97//11
s 0
f 32//116 274//116 7//116
s 1
f 274//117 273//118 7//119
f 273//118 272//76 7//119
f 272//76 271//77 7//119
f 271//77 268//70 7//119
f 268//70 270//75 7//119
s 0
f 270//120 208//121 7//121
f 1//122 29//122 3//122
f 190//123 310//123 191//124
s 1
f 52//125 13//126 51//127
f 23//128 25//129 5//95
s 0
f 25//130 19//130 5//130
s 1
f 19//131 18//132 5//133
f 18//132 8//134 5//133
s 0
f 8//135 27//136 5//136
f 27//137 16//137 5//137
s 1
f 16//138 15//139 5//140
s 0
f 15//141 31//141 5//141
s 1
f 31//2 32//1 36//142
f 94//143 150//144 116//145
f 246//146 250//74 247//68
s 0
f 123//147 143//148 94//149
f 37//150 3//150 29//150
s 1
f 301//151 292//152 281//88
f 202//44 203//46 227//153
f 205//47 222//154 206//48
s 0
f 205//155 233//156 222//156
f 233//157 200//157 222//157
s 1
f 233//158 201//159 200//160
f 201//159 220//161 200//160
s 0
f 201//162 299//163 220//163
f 299//164 198//164 220//164
s 1
f 198//165 218//112 220//111
s 0
f 198//166 236//166 218//166
f 236//167 305//167 218//167
s 1
f 305//168 216//168 218//168
s 0
f 216//169 196//169 1//169
f 196//170 215//170 1//170
s 1
f 215//171 214//172 1//173
f 214//172 217//174 1//173
s 0
f 217//175 195//175 1//175
s 1
f 195//176 194//177 1//178
s 0
f 194//179 219//180 1//180
f 219//181 192//181 1//181
f 192//182 221//182 1//182
f 221//183 310//183 1//183
f 310//184 230//184 1//184
f 230//185 287//185 1//185
s 1
f 287//79 288//83 1//186
s 0
f 288//187 37//188 1//188
f 37//189 29//189 1//189
f 242//190 256//190 32//190
f 256//191 275//191 32//191
f 275//192 254//192 32//192
s 1
f 254//60 260//61 32//193
s 0
f 260//194 261//195 32//195
s 1
f 261//63 264//69 32//196
f 264//69 265//67 32//196
f 265//67 249//197 32//196
f 249//197 248//56 32//196
f 248//56 251//55 32//196
f 251//55 273//118 32//196
f 273//118 274//117 32//196
f 4//96 6//198 5//95
s 0
f 37//199 242//199 32//199
s 1
f 283//86 291//200 277//201
f 244//54 247//68 243//52
f 3//202 34//203 35//204
s 0
f 3//202 35//202 6//202
f 35//205 30//205 6//205
f 30//206 28//206 6//206
f 28//207 10//207 6//207
s 1
f 10//208 11//209 6//210
f 11//209 13//126 6//210
f 13//126 9//211 6//210
s 0
f 9//212 24//213 6//213
f 24//214 12//214 6//214
f 12//215 21//215 6//215
f 21//216 14//216 6//216
f 14//217 22//217 6//217
s 1
f 15//218 17//219 31//220
s 0
f 17//221 131//222 31//222
f 131//223 147//223 31//223
s 1
f 147//224 158//225 31//2
f 110//14 128//226 111//16
f 160//227 172//228 168//229
s 0
f 201//230 234//231 299//231
f 153//232 162//233 154//233
s 1
f 191//234 219//235 193//236
s 0
f 310//237 192//238 191//239
f 193//240 237//241 228//241
f 68//242 16//242 27//242
f 68//243 69//243 16//243
s 1
f 69//244 15//139 16//138
s 0
f 69//245 64//245 15//245
f 64//246 102//246 15//246
s 1
f 102//5 100//4 15//218
f 100//4 101//247 15//218
f 101//247 17//219 15//218
s 0
f 54//248 21//248 81//248
s 1
f 266//249 232//250 231//251
f 266//249 267//73 232//250
s 0
f 7//252 216//252 1//252
s 1
f 106//21 70//253 71//254
s 0
f 246//255 296//256 202//257
s 1
f 266//249 207//258 262//72
f 309//259 195//176 217//260
f 151//261 173//262 174//263
s 0
f 213//264 198//264 299//264
s 1
f 31//2 148//265 33//3
s 0
f 253//266 213//266 299//266
f 213//267 300//267 198//267
f 300//268 236//268 198//268
f 305//269 236//269 216//269
f 236//270 199//270 216//270
s 1
f 199//271 196//272 216//273
s 0
f 300//274 212//274 236//274
f 212//275 199//275 236//275
s 1
f 127//32 155//276 96//20
s 0
f 304//277 240//277 196//278
f 240//279 306//279 196//280
f 304//281 293//282 292//283
f 53//284 24//284 74//284
s 1
f 296//285 204//45 202//44
f 287//79 190//286 276//80
f 262//72 208//287 270//75
f 116//145 152//288 93//289
f 6//198 1//122 3//122
f 307//290 238//291 209//49
f 189//292 239//293 302//294
f 98//22 108//15 99//23
f 289//78 37//295 288//83
f 71//254 95//26 106//21
f 289//78 290//81 37//295
f 290//81 291//200 37//295
f 291//200 282//87 37//295
f 282//87 284//85 37//295
f 284//85 285//89 37//295
f 285//89 286//296 37//295
f 286//296 294//297 37//295
s 0
f 294//298 242//299 37//299
s 1
f 277//201 290//81 278//82
f 300//300 241//301 242//302
f 241//301 275//303 242//302
s 0
f 275//304 256//304 242//304
f 294//305 295//306 242//306
s 1
f 255//58 254//60 275//307
s 0
f 241//308 255//309 275//310
s 1
f 259//62 261//63 260//61
s 0
f 212//311 242//311 295//311
s 1
f 251//55 272//76 273//118
f 264//69 257//65 243//52
f 148//265 141//312 33//3
s 0
f 141//313 128//314 33//314
s 1
f 128//226 129//315 33//316
s 0
f 129//317 157//318 33//318
s 1
f 157//319 146//320 33//321
f 146//320 156//322 33//321
f 156//322 155//276 33//321
s 0
f 155//323 126//324 33//324
f 126//325 154//325 33//325
f 154//326 162//326 33//326
f 162//327 174//327 33//327
f 174//328 171//328 33//328
s 1
f 171//329 169//330 33//331
f 169//330 170//332 33//331
f 170//332 166//333 33//331
f 166//333 167//334 33//331
f 167//334 165//335 33//331
s 0
f 165//336 161//337 33//337
f 161//338 188//338 34//338
f 161//338 34//338 33//338
s 1
f 169//330 164//339 163//340
f 34//203 20//341 35//204
f 248//56 250//74 252//57
s 0
f 20//342 46//342 28//342
s 1
f 46//343 50//344 28//345
s 0
f 50//346 10//347 28//347
f 50//348 76//349 10//349
s 1
f 76//350 11//209 10//208
s 0
f 76//351 51//351 11//351
s 1
f 51//127 13//126 11//209
f 67//352 27//353 8//134
f 66//354 8//134 18//132
f 113//19 156//322 114//24
s 0
f 209//355 280//356 283//357
s 1
f 119//358 149//359 123//360
s 0
f 101//361 130//362 17//363
s 1
f 130//28 131//30 17//364
f 132//29 158//225 131//30
f 158//225 147//224 131//30
s 0
f 132//365 104//366 158//366
f 253//367 234//367 258//367
f 81//368 53//368 74//368
f 81//369 74//369 52//369
s 1
f 81//368 52//125 51//127
s 0
f 81//368 51//370 76//368
f 81//368 76//368 50//371
s 1
f 81//368 50//344 46//343
f 81//368 46//343 47//372
s 0
f 81//368 47//373 77//368
f 81//368 77//368 56//368
f 81//369 56//369 78//369
f 81//368 78//368 57//368
f 81//368 57//368 79//368
f 81//368 79//368 59//368
f 81//368 59//368 75//368
s 1
f 81//368 75//374 80//375
s 0
f 81//368 80//368 49//368
f 81//368 49//368 85//368
s 1
f 81//368 85//376 83//377
s 0
f 81//368 83//368 60//368
s 1
f 81//368 60//378 63//379
f 81//368 63//379 62//380
s 0
f 81//368 62//381 73//368
s 1
f 81//368 73//382 71//254
f 81//368 71//254 70//253
f 81//368 70//253 72//383
s 0
f 81//368 72//368 65//368
s 1
f 81//368 65//384 64//385
s 0
f 81//368 64//386 69//368
f 81//368 69//368 68//368
s 1
f 81//368 68//387 67//352
f 81//368 67//352 66//354
s 0
f 81//368 66//388 86//368
s 1
f 81//368 86//389 84//390
f 81//368 84//390 82//391
s 0
f 81//368 82//368 55//368
s 1
f 81//368 55//392 54//393
f 87//13 99//23 108//15
s 0
f 48//394 118//394 38//394
s 1
f 104//8 130//28 101//247
f 252//57 268//70 263//66
f 172//228 163//340 168//229
s 0
f 232//395 227//396 226//396
f 149//397 175//398 164//399
f 245//400 234//401 298//402
s 1
f 245//53 257//65 234//403
f 257//65 258//64 234//403
s 0
f 253//404 300//404 213//404
s 1
f 259//62 253//59 258//64
f 255//58 300//405 253//59
s 0
f 255//406 241//407 300//408
f 295//409 293//409 212//409
f 74//410 9//411 52//410
s 1
f 301//151 240//412 304//413
f 133//414 158//225 104//8
f 109//10 153//415 125//114
s 0
f 301//416 239//417 197//417
f 246//418 232//419 267//420
f 237//421 210//422 211//423
f 303//424 238//425 309//425
s 1
f 296//285 244//54 297//426
f 209//49 210//51 307//290
s 0
f 229//427 191//428 193//429
s 1
f 237//430 308//431 307//290
f 245//53 297//426 244//54
s 0
f 228//432 235//432 193//433
f 235//434 229//434 193//435
s 1
f 114//24 157//319 107//18
f 195//176 308//431 194//177
f 188//37 180//34 34//436
f 180//34 181//36 34//436
f 181//36 186//39 34//436
f 186//39 183//42 34//436
f 183//42 177//43 34//436
f 177//43 184//437 34//436
f 184//437 185//438 34//436
s 0
f 185//439 176//440 34//440
f 176//441 39//441 34//441
s 1
f 39//442 43//443 34//444
f 43//443 42//445 34//444
f 42//445 41//446 34//444
f 41//446 45//447 34//444
s 0
f 45//448 26//448 34//448
f 26//449 20//449 34//449
s 1
f 249//197 247//68 250//74
f 159//450 165//335 172//228
f 280//84 302//451 284//85
s 0
f 302//452 279//452 284//453
s 1
f 279//454 281//88 284//85
s 0
f 28//455 35//455 20//455
s 1
f 39//442 57//456 43//443
f 293//457 295//458 294//297
s 0
f 133//459 103//459 148//460
s 1
f 103//7 111//16 148//461
s 0
f 111//462 128//463 148//464
s 1
f 128//465 141//312 148//265
f 91//25 73//382 62//380
f 110//14 108//15 129//315
s 0
f 303//466 189//467 302//468
s 1
f 112//17 107//18 157//319
f 231//251 226//103 223//102
f 114//24 156//322 146//320
s 0
f 86//469 18//470 19//469
s 1
f 113//19 96//20 155//276
s 0
f 81//471 12//471 53//471
s 1
f 124//33 154//472 126//31
s 0
f 124//473 97//474 154//474
f 112//475 129//476 108//477
f 228//478 283//479 277//480
s 1
f 55//392 14//481 54//393
f 153//415 142//482 174//263
f 142//482 151//261 174//263
f 104//8 100//4 89//6
f 175//483 163//340 164//339
f 172//228 167//334 166//333
f 229//484 276//80 190//286
f 171//329 173//262 169//330
f 166//333 169//330 163//340
f 159//450 137//485 161//486
s 0
f 137//487 188//487 161//487
f 26//488 47//488 20//488
s 1
f 47//372 46//343 20//489
f 104//8 132//29 130//28
f 103//7 133//414 104//8
f 292//152 285//89 281//88
f 229//484 277//201 278//82
f 302//294 239//293 301//151
f 281//88 279//454 301//151
f 279//454 302//294 301//151
f 280//84 303//490 302//451
s 0
f 209//491 238//491 303//492
s 1
f 84//390 19//493 25//129
f 283//494 211//50 209//49
s 0
f 228//495 237//495 211//496
f 189//497 217//498 214//498
s 1
f 229//484 235//499 228//500
s 0
f 233//501 298//502 234//501
s 1
f 137//503 187//38 188//37
f 178//41 184//437 177//43
f 176//504 185//438 184//437
f 225//100 208//287 207//258
s 0
f 117//505 40//505 184//506
f 40//507 58//507 184//508
f 65//509 105//510 88//511
s 1
f 75//374 48//512 80//375
s 0
f 38//513 85//513 49//514
s 1
f 293//457 286//296 292//152
s 0
f 47//515 45//516 77//516
f 55//517 23//517 22//517
f 79//518 58//518 59//518
s 1
f 44//519 26//520 45//520
s 0
f 44//521 47//522 26//522
f 117//523 178//524 134//525
s 1
f 95//26 98//22 106//21
f 97//11 127//32 96//20
f 92//9 96//20 95//26
f 99//23 72//383 70//253
f 97//11 124//33 127//32
f 109//10 125//114 97//11
s 0
f 207//526 223//527 225//527
s 1
f 122//528 151//261 115//529
s 0
f 164//530 152//531 150//532
f 304//533 199//534 212//533
s 1
f 56//535 42//445 78//536
f 140//537 48//512 40//538
s 0
f 175//539 120//539 168//540
f 120//541 144//541 168//542
f 144//543 121//543 168//544
f 121//545 160//545 168//546
s 1
f 160//227 137//485 159//450
s 0
f 160//547 121//547 137//547
f 121//548 139//548 137//548
s 1
f 139//549 138//550 137//551
f 138//550 118//552 137//551
s 0
f 118//553 187//554 137//553
s 1
f 102//5 65//384 88//12
f 118//555 182//35 187//38
s 0
f 118//556 135//556 182//557
s 1
f 135//558 136//559 182//35
f 136//559 179//40 182//35
s 0
f 61//560 119//561 85//560
s 1
f 140//537 134//562 178//41
s 0
f 134//563 40//564 117//564
s 1
f 59//565 40//538 75//374
s 0
f 78//566 43//566 57//566
s 1
f 134//562 140//537 40//538
f 266//249 269//71 267//73
s 0
f 197//567 240//567 301//568
s 1
f 197//569 214//172 215//171
s 0
f 306//570 215//570 196//570
s 1
f 91//25 62//380 92//9
f 22//571 5//95 6//198
f 93//572 115//529 109//10
f 90//27 63//379 109//10
f 63//379 60//378 109//10
f 60//378 93//572 109//10
f 150//144 143//573 164//574
f 143//573 149//575 164//574
f 140//537 179//40 136//559
s 0
f 122//576 93//576 152//577
s 1
f 82//391 25//129 23//128
f 297//426 205//47 204//45
s 0
f 93//578 122//578 115//579
s 1
f 121//580 145//581 120//582
f 145//581 144//583 120//582
f 193//236 194//177 308//431
f 90//27 62//380 63//379
f 61//584 121//580 120//582
f 145//581 121//580 144//583
s 0
f 61//585 38//585 121//586
f 38//587 139//587 121//587
s 1
f 38//588 138//550 139//549
s 0
f 38//589 118//589 138//590
s 1
f 136//559 135//558 118//591
f 88//12 87//13 89//6
s 0
f 77//592 41//593 56//592
f 60//594 83//594 93//595
s 1
f 83//377 116//145 93//289
f 115//529 142//482 109//10
f 83//377 94//143 116//145
f 83//377 85//376 94//143
s 0
f 85//596 123//596 94//597
s 1
f 123//360 85//598 119//358
f 80//375 38//599 49//600
f 32//1 33//3 34//90
s 0
f 58//601 39//601 176//601
f 4//93 7//93 1//93
s 1
f 125//114 153//415 154//115
s 0
f 190//602 230//602 310//602
s 1
f 52//125 9//211 13//126
f 94//143 143//573 150//144
f 246//146 267//73 250//74
s 0
f 123//603 149//604 143//605
f 37//150 34//150 3//150
s 1
f 301//151 304//413 292//152
f 4//96 2//606 6//198
f 283//86 282//87 291//200
f 244//54 246//146 247//68
f 110//14 129//315 128//226
f 160//227 159//450 172//228
s 0
f 201//607 233//608 234//608
f 153//609 174//610 162//610
s 1
f 191//234 192//611 219//235
s 0
f 310//612 221//612 192//613
f 193//614 308//615 237//616
f 54//617 14//617 21//617
f 7//252 218//252 216//252
s 1
f 106//21 99//23 70//253
f 266//249 231//251 207//258
f 309//259 307//290 195//176
f 151//261 152//618 173//262
f 31//2 158//225 148//265
f 127//32 126//31 155//276
s 0
f 304//619 212//619 293//620
f 53//621 12//621 24//621
s 1
f 296//285 297//426 204//45
f 287//79 230//622 190//286
f 262//72 207//258 208//287
f 116//145 150//144 152//288
f 6//198 2//606 1//122
f 307//290 309//259 238//291
f 189//292 197//569 239//293
f 98//22 107//18 108//15
f 71//254 73//382 95//26
f 277//201 291//200 290//81
s 0
f 212//623 300//623 242//623
s 1
f 251//55 263//66 272//76
f 264//69 261//63 257//65
f 169//330 173//262 164//339
f 248//56 249//197 250//74
f 67//352 68//387 27//353
f 66//354 67//352 8//134
f 113//19 155//276 156//322
s 0
f 209//624 303//625 280//626
s 1
f 119//358 120//627 149//359
s 0
f 253//628 299//628 234//628
s 1
f 87//13 105//629 99//23
s 0
f 48//630 136//631 118//630
s 1
f 252//57 269//71 268//70
f 172//228 166//333 163//340
s 0
f 232//632 202//633 227//633
f 149//634 120//635 175//635
f 74//636 24//636 9//637
s 1
f 133//414 148//265 158//225
f 109//10 142//482 153//415
s 0
f 246//638 202//639 232//640
f 237//641 307//642 210//643
s 1
f 296//285 246//146 244//54
s 0
f 229//644 190//644 191//645
s 1
f 245//53 298//646 297//426
f 114//24 146//320 157//319
f 195//176 307//290 308//431
f 249//197 265//67 247//68
f 159//450 161//486 165//335
s 0
f 28//647 30//647 35//647
s 1
f 39//442 79//648 57//456
f 91//25 95//26 73//382
s 0
f 303//649 309//650 189//651
s 1
f 231//251 232//250 226//103
s 0
f 86//652 66//652 18//653
f 81//654 21//654 12//654
f 112//655 157//656 129//657
f 228//658 211//659 283//660
s 1
f 55//392 22//481 14//481
f 104//8 101//247 100//4
f 175//483 168//229 163//340
f 172//228 165//335 167//334
f 229//484 278//82 276//80
f 171//329 174//263 173//262
f 166//333 170//332 169//330
f 292//152 286//296 285//89
f 229//484 228//500 277//201
f 84//390 86//389 19//493
s 0
f 189//661 309//662 217//662
f 233//663 205//664 298//665
s 1
f 225//100 224//99 208//287
s 0
f 65//666 72//667 105//668
s 1
f 75//374 40//538 48//512
s 0
f 38//669 61//669 85//669
s 1
f 293//457 294//297 286//296
s 0
f 47//670 44//671 45//672
f 55//673 82//673 23//673
f 79//674 39//674 58//674
f 117//675 184//676 178//677
s 1
f 95//26 96//20 98//22
f 92//9 97//11 96//20
f 99//23 105//629 72//383
s 0
f 207//678 231//679 223//679
s 1
f 122//528 152//618 151//261
s 0
f 164//680 173//681 152//682
f 304//683 196//684 199//685
s 1
f 56//535 41//446 42//445
f 140//537 136//559 48//512
f 102//5 64//385 65//384
s 0
f 61//686 120//687 119//688
s 1
f 59//565 58//689 40//538
s 0
f 78//690 42//690 43//690
s 1
f 266//249 262//72 269//71
s 0
f 197//691 306//691 240//691
s 1
f 197//569 189//292 214//172
s 0
f 306//692 197//692 215//692
s 1
f 22//571 23//128 5//95
f 140//537 178//41 179//40
f 82//391 84//390 25//129
f 297//426 298//646 205//47
f 193//236 219//235 194//177
f 90//27 92//9 62//380
f 88//12 105//629 87//13
s 0
f 77//693 45//693 41//694
s 1
f 115//529 151//261 142//482
f 80//375 48//512 38//599
