# Blender 5.0.1
# www.blender.org
o Cylinder
v -0.042223 -0.063192 0.002540
v -0.042223 -0.063192 -0.002540
v -0.029084 -0.070215 0.002540
v -0.029084 -0.070215 -0.002540
v -0.014827 -0.074540 0.002540
v -0.014827 -0.074540 -0.002540
v 0.000000 -0.076000 0.002540
v 0.000000 -0.076000 -0.002540
v 0.014827 -0.074540 0.002540
v 0.014827 -0.074540 -0.002540
v 0.029084 -0.070215 0.002540
v 0.029084 -0.070215 -0.002540
v 0.042223 -0.063192 0.002540
v 0.042223 -0.063192 -0.002540
v -0.042245 -0.063174 -0.002540
v -0.042245 -0.063174 0.002540
v 0.052960 -0.054380 -0.002540
v 0.052960 -0.054380 0.002540
v -0.000432 0.009249 -0.002540
v -0.000432 0.009249 0.002540
vn -0.6345 -0.7729 -0.0000
vn -0.4714 -0.8819 -0.0000
vn -0.2903 -0.9569 -0.0000
vn -0.0980 -0.9952 -0.0000
vn 0.0980 -0.9952 -0.0000
vn 0.2903 -0.9569 -0.0000
vn 0.4714 -0.8819 -0.0000
vn 0.6344 -0.7730 -0.0000
vn -0.0000 -0.0000 -1.0000
vn -0.0000 -0.0000 1.0000
vn -0.8660 0.5000 -0.0000
vn 0.7660 0.6428 -0.0000
vn -0.6343 -0.7731 -0.0000
vt 0.593750 0.500000
vt 0.593809 1.000000
vt 0.593750 1.000000
vt 0.562500 0.500000
vt 0.562500 1.000000
vt 0.531250 0.500000
vt 0.531250 1.000000
vt 0.500000 0.500000
vt 0.500000 1.000000
vt 0.468750 0.500000
vt 0.468750 1.000000
vt 0.437500 0.500000
vt 0.437500 1.000000
vt 0.406250 0.500000
vt 0.377117 1.000000
vt 0.377117 0.500000
vt 0.203178 0.014612
vt 0.383337 0.050447
vt 0.251363 0.279208
vt 0.796822 0.014612
vt 0.616663 0.050447
vt 0.751363 0.279208
vt 0.493650 0.853011
vt 0.506350 0.879145
vt 0.506350 0.853011
vt 0.506350 0.906818
vt 0.493650 0.880861
vt 0.493650 0.906818
vt 0.593809 0.500000
vt 0.406250 1.000000
vt 0.082758 0.078272
vt 0.116663 0.050447
vt 0.158156 0.028269
vt 0.250000 0.010000
vt 0.296822 0.014612
vt 0.341844 0.028269
vt 0.383405 0.050504
vt 0.883405 0.050504
vt 0.883337 0.050447
vt 0.841844 0.028269
vt 0.750000 0.010000
vt 0.703178 0.014612
vt 0.658156 0.028269
vt 0.582758 0.078272
vt 0.493650 0.879145
vt 0.506350 0.880861
s 0
f 1/1/1 15/2/1 2/3/1
f 2/3/2 3/4/2 1/1/2
f 4/5/3 5/6/3 3/4/3
f 6/7/4 7/8/4 5/6/4
f 8/9/5 9/10/5 7/8/5
f 10/11/6 11/12/6 9/10/6
f 12/13/7 13/14/7 11/12/7
f 13/14/8 17/15/8 18/16/8
f 10/17/9 2/18/9 19/19/9
f 5/20/10 13/21/10 20/22/10
f 16/23/11 19/24/11 15/25/11
f 17/26/12 20/27/12 18/28/12
f 1/1/13 16/29/13 15/2/13
f 2/3/2 4/5/2 3/4/2
f 4/5/3 6/7/3 5/6/3
f 6/7/4 8/9/4 7/8/4
f 8/9/5 10/11/5 9/10/5
f 10/11/6 12/13/6 11/12/6
f 12/13/7 14/30/7 13/14/7
f 13/14/8 14/30/8 17/15/8
f 19/19/9 17/31/9 14/32/9
f 14/32/9 12/33/9 10/17/9
f 10/17/9 8/34/9 6/35/9
f 6/35/9 4/36/9 2/18/9
f 2/18/9 15/37/9 19/19/9
f 19/19/9 14/32/9 10/17/9
f 10/17/9 6/35/9 2/18/9
f 20/22/10 16/38/10 1/39/10
f 1/39/10 3/40/10 5/20/10
f 5/20/10 7/41/10 9/42/10
f 9/42/10 11/43/10 13/21/10
f 13/21/10 18/44/10 20/22/10
f 20/22/10 1/39/10 5/20/10
f 5/20/10 9/42/10 13/21/10
f 16/23/11 20/45/11 19/24/11
f 17/26/12 19/46/12 20/27/12
