# octagon: the ring and its four images in one mesh, textured by octagon.png
mtllib octagon.mtl
o octagon
usemtl octagon
v 0.574025 1.385819 0.011252
v 0.574025 1.385819 -0.011252
v -0.574025 1.385819 0.011252
v -0.574025 1.385819 -0.011252
v -1.385819 0.574025 0.011252
v -1.385819 0.574025 -0.011252
v -1.385819 -0.574025 0.011252
v -1.385819 -0.574025 -0.011252
v -0.574025 -1.385819 0.011252
v -0.574025 -1.385819 -0.011252
v 0.574025 -1.385819 0.011252
v 0.574025 -1.385819 -0.011252
v 1.385819 -0.574025 0.011252
v 1.385819 -0.574025 -0.011252
v 1.385819 0.574025 0.011252
v 1.385819 0.574025 -0.011252
v 0.516623 1.247237 0.011252
v 0.516623 1.247237 -0.011252
v -0.516623 1.247237 0.011252
v -0.516623 1.247237 -0.011252
v -1.247237 0.516623 0.011252
v -1.247237 0.516623 -0.011252
v -1.247237 -0.516623 0.011252
v -1.247237 -0.516623 -0.011252
v -0.516623 -1.247237 0.011252
v -0.516623 -1.247237 -0.011252
v 0.516623 -1.247237 0.011252
v 0.516623 -1.247237 -0.011252
v 1.247237 -0.516623 0.011252
v 1.247237 -0.516623 -0.011252
v 1.247237 0.516623 0.011252
v 1.247237 0.516623 -0.011252
v -0.155000 1.388319 0.363748
v 0.155000 1.388319 0.363748
v 0.155000 1.388319 0.053748
v -0.155000 1.388319 0.053748
v 0.155000 1.383319 0.363748
v -0.155000 1.383319 0.363748
v -0.155000 1.383319 0.053748
v 0.155000 1.383319 0.053748
v -0.155000 1.383319 0.053748
v -0.155000 1.383319 0.363748
v -0.155000 1.388319 0.363748
v -0.155000 1.388319 0.053748
v 0.155000 1.383319 0.363748
v 0.155000 1.383319 0.053748
v 0.155000 1.388319 0.053748
v 0.155000 1.388319 0.363748
v 0.155000 1.388319 0.053748
v 0.155000 1.383319 0.053748
v -0.155000 1.383319 0.053748
v -0.155000 1.388319 0.053748
v 0.155000 1.383319 0.363748
v 0.155000 1.388319 0.363748
v -0.155000 1.388319 0.363748
v -0.155000 1.383319 0.363748
v -1.388319 -0.155000 0.363748
v -1.388319 0.155000 0.363748
v -1.388319 0.155000 0.053748
v -1.388319 -0.155000 0.053748
v -1.383319 0.155000 0.363748
v -1.383319 -0.155000 0.363748
v -1.383319 -0.155000 0.053748
v -1.383319 0.155000 0.053748
v -1.383319 -0.155000 0.053748
v -1.383319 -0.155000 0.363748
v -1.388319 -0.155000 0.363748
v -1.388319 -0.155000 0.053748
v -1.383319 0.155000 0.363748
v -1.383319 0.155000 0.053748
v -1.388319 0.155000 0.053748
v -1.388319 0.155000 0.363748
v -1.388319 0.155000 0.053748
v -1.383319 0.155000 0.053748
v -1.383319 -0.155000 0.053748
v -1.388319 -0.155000 0.053748
v -1.383319 0.155000 0.363748
v -1.388319 0.155000 0.363748
v -1.388319 -0.155000 0.363748
v -1.383319 -0.155000 0.363748
v 0.155000 -1.388319 0.363748
v -0.155000 -1.388319 0.363748
v -0.155000 -1.388319 0.053748
v 0.155000 -1.388319 0.053748
v -0.155000 -1.383319 0.363748
v 0.155000 -1.383319 0.363748
v 0.155000 -1.383319 0.053748
v -0.155000 -1.383319 0.053748
v 0.155000 -1.383319 0.053748
v 0.155000 -1.383319 0.363748
v 0.155000 -1.388319 0.363748
v 0.155000 -1.388319 0.053748
v -0.155000 -1.383319 0.363748
v -0.155000 -1.383319 0.053748
v -0.155000 -1.388319 0.053748
v -0.155000 -1.388319 0.363748
v -0.155000 -1.388319 0.053748
v -0.155000 -1.383319 0.053748
v 0.155000 -1.383319 0.053748
v 0.155000 -1.388319 0.053748
v -0.155000 -1.383319 0.363748
v -0.155000 -1.388319 0.363748
v 0.155000 -1.388319 0.363748
v 0.155000 -1.383319 0.363748
v 1.388319 0.155000 0.363748
v 1.388319 -0.155000 0.363748
v 1.388319 -0.155000 0.053748
v 1.388319 0.155000 0.053748
v 1.383319 -0.155000 0.363748
v 1.383319 0.155000 0.363748
v 1.383319 0.155000 0.053748
v 1.383319 -0.155000 0.053748
v 1.383319 0.155000 0.053748
v 1.383319 0.155000 0.363748
v 1.388319 0.155000 0.363748
v 1.388319 0.155000 0.053748
v 1.383319 -0.155000 0.363748
v 1.383319 -0.155000 0.053748
v 1.388319 -0.155000 0.053748
v 1.388319 -0.155000 0.363748
v 1.388319 -0.155000 0.053748
v 1.383319 -0.155000 0.053748
v 1.383319 0.155000 0.053748
v 1.388319 0.155000 0.053748
v 1.383319 -0.155000 0.363748
v 1.388319 -0.155000 0.363748
v 1.388319 0.155000 0.363748
v 1.383319 0.155000 0.363748
vt 0.500000 0.015152
vt 0.000488 0.515625
vt 0.499512 0.515625
vt 0.499512 0.999527
vt 0.000488 0.999527
vt 0.500488 0.515625
vt 0.999512 0.515625
vt 0.999512 0.999527
vt 0.500488 0.999527
vt 0.000488 0.030777
vt 0.499512 0.030777
vt 0.499512 0.514678
vt 0.000488 0.514678
vt 0.500488 0.030777
vt 0.999512 0.030777
vt 0.999512 0.514678
vt 0.500488 0.514678
vn -0.0000 1.0000 -0.0000
vn -0.7071 0.7071 -0.0000
vn -1.0000 -0.0000 -0.0000
vn -0.7071 -0.7071 -0.0000
vn -0.0000 -1.0000 -0.0000
vn 0.7071 -0.7071 -0.0000
vn 1.0000 -0.0000 -0.0000
vn 0.7071 0.7071 -0.0000
vn -0.0000 -0.0000 1.0000
vn -0.0000 -0.0000 -1.0000
vn 0.0000 1.0000 0.0000
vn 0.0000 -1.0000 0.0000
vn -1.0000 0.0000 0.0000
vn 1.0000 0.0000 0.0000
vn 0.0000 0.0000 -1.0000
vn 0.0000 0.0000 1.0000
vn -1.0000 0.0000 0.0000
vn 1.0000 0.0000 0.0000
vn 0.0000 -1.0000 0.0000
vn 0.0000 1.0000 0.0000
vn 0.0000 0.0000 -1.0000
vn 0.0000 0.0000 1.0000
vn 0.0000 -1.0000 0.0000
vn 0.0000 1.0000 0.0000
vn 1.0000 0.0000 0.0000
vn -1.0000 0.0000 0.0000
vn 0.0000 0.0000 -1.0000
vn 0.0000 0.0000 1.0000
vn 1.0000 0.0000 0.0000
vn -1.0000 0.0000 0.0000
vn 0.0000 1.0000 0.0000
vn 0.0000 -1.0000 0.0000
vn 0.0000 0.0000 -1.0000
vn 0.0000 0.0000 1.0000
f 2/1/1 3/1/1 1/1/1
f 4/1/2 5/1/2 3/1/2
f 6/1/3 7/1/3 5/1/3
f 8/1/4 9/1/4 7/1/4
f 10/1/5 11/1/5 9/1/5
f 12/1/6 13/1/6 11/1/6
f 14/1/7 15/1/7 13/1/7
f 16/1/8 1/1/8 15/1/8
f 19/1/5 18/1/5 17/1/5
f 21/1/6 20/1/6 19/1/6
f 23/1/7 22/1/7 21/1/7
f 25/1/8 24/1/8 23/1/8
f 27/1/1 26/1/1 25/1/1
f 29/1/2 28/1/2 27/1/2
f 31/1/3 30/1/3 29/1/3
f 17/1/4 32/1/4 31/1/4
f 3/1/9 17/1/9 1/1/9
f 2/1/10 20/1/10 4/1/10
f 5/1/9 19/1/9 3/1/9
f 4/1/10 22/1/10 6/1/10
f 7/1/9 21/1/9 5/1/9
f 6/1/10 24/1/10 8/1/10
f 9/1/9 23/1/9 7/1/9
f 8/1/10 26/1/10 10/1/10
f 11/1/9 25/1/9 9/1/9
f 10/1/10 28/1/10 12/1/10
f 13/1/9 27/1/9 11/1/9
f 12/1/10 30/1/10 14/1/10
f 15/1/9 29/1/9 13/1/9
f 14/1/10 32/1/10 16/1/10
f 1/1/9 31/1/9 15/1/9
f 16/1/10 18/1/10 2/1/10
f 2/1/1 4/1/1 3/1/1
f 4/1/2 6/1/2 5/1/2
f 6/1/3 8/1/3 7/1/3
f 8/1/4 10/1/4 9/1/4
f 10/1/5 12/1/5 11/1/5
f 12/1/6 14/1/6 13/1/6
f 14/1/7 16/1/7 15/1/7
f 16/1/8 2/1/8 1/1/8
f 19/1/5 20/1/5 18/1/5
f 21/1/6 22/1/6 20/1/6
f 23/1/7 24/1/7 22/1/7
f 25/1/8 26/1/8 24/1/8
f 27/1/1 28/1/1 26/1/1
f 29/1/2 30/1/2 28/1/2
f 31/1/3 32/1/3 30/1/3
f 17/1/4 18/1/4 32/1/4
f 3/1/9 19/1/9 17/1/9
f 2/1/10 18/1/10 20/1/10
f 5/1/9 21/1/9 19/1/9
f 4/1/10 20/1/10 22/1/10
f 7/1/9 23/1/9 21/1/9
f 6/1/10 22/1/10 24/1/10
f 9/1/9 25/1/9 23/1/9
f 8/1/10 24/1/10 26/1/10
f 11/1/9 27/1/9 25/1/9
f 10/1/10 26/1/10 28/1/10
f 13/1/9 29/1/9 27/1/9
f 12/1/10 28/1/10 30/1/10
f 15/1/9 31/1/9 29/1/9
f 14/1/10 30/1/10 32/1/10
f 1/1/9 17/1/9 31/1/9
f 16/1/10 32/1/10 18/1/10
f 33/1/11 34/1/11 35/1/11
f 33/1/11 35/1/11 36/1/11
f 37/2/12 38/3/12 39/4/12
f 37/2/12 39/4/12 40/5/12
f 41/1/13 42/1/13 43/1/13
f 41/1/13 43/1/13 44/1/13
f 45/1/14 46/1/14 47/1/14
f 45/1/14 47/1/14 48/1/14
f 49/1/15 50/1/15 51/1/15
f 49/1/15 51/1/15 52/1/15
f 53/1/16 54/1/16 55/1/16
f 53/1/16 55/1/16 56/1/16
f 57/1/17 58/1/17 59/1/17
f 57/1/17 59/1/17 60/1/17
f 61/6/18 62/7/18 63/8/18
f 61/6/18 63/8/18 64/9/18
f 65/1/19 66/1/19 67/1/19
f 65/1/19 67/1/19 68/1/19
f 69/1/20 70/1/20 71/1/20
f 69/1/20 71/1/20 72/1/20
f 73/1/21 74/1/21 75/1/21
f 73/1/21 75/1/21 76/1/21
f 77/1/22 78/1/22 79/1/22
f 77/1/22 79/1/22 80/1/22
f 81/1/23 82/1/23 83/1/23
f 81/1/23 83/1/23 84/1/23
f 85/10/24 86/11/24 87/12/24
f 85/10/24 87/12/24 88/13/24
f 89/1/25 90/1/25 91/1/25
f 89/1/25 91/1/25 92/1/25
f 93/1/26 94/1/26 95/1/26
f 93/1/26 95/1/26 96/1/26
f 97/1/27 98/1/27 99/1/27
f 97/1/27 99/1/27 100/1/27
f 101/1/28 102/1/28 103/1/28
f 101/1/28 103/1/28 104/1/28
f 105/1/29 106/1/29 107/1/29
f 105/1/29 107/1/29 108/1/29
f 109/14/30 110/15/30 111/16/30
f 109/14/30 111/16/30 112/17/30
f 113/1/31 114/1/31 115/1/31
f 113/1/31 115/1/31 116/1/31
f 117/1/32 118/1/32 119/1/32
f 117/1/32 119/1/32 120/1/32
f 121/1/33 122/1/33 123/1/33
f 121/1/33 123/1/33 124/1/33
f 125/1/34 126/1/34 127/1/34
f 125/1/34 127/1/34 128/1/34
