# Baked octagon image panel
o panel_survey_outer
v 0.155000 1.393319 0.053748
v -0.155000 1.393319 0.053748
v -0.155000 1.393319 0.363748
v 0.155000 1.393319 0.363748
v 0.155000 1.398319 0.053748
v -0.155000 1.398319 0.053748
v -0.155000 1.398319 0.363748
v 0.155000 1.398319 0.363748
vn -0.000000 -1.000000 0.000000
vn 0.000000 1.000000 0.000000
vn 1.000000 -0.000000 0.000000
vn -1.000000 0.000000 0.000000
vn 0.000000 0.000000 -1.000000
vn 0.000000 0.000000 1.000000
vt 1.000000 0.000000
vt 0.000000 0.000000
vt 0.000000 1.000000
vt 1.000000 1.000000
s 1
f 1/1/1 3/3/1 2/2/1
f 1/1/1 4/4/1 3/3/1
f 5/1/2 6/2/2 7/3/2
f 5/1/2 7/3/2 8/4/2
f 1/1/3 5/2/3 8/3/3
f 1/1/3 8/3/3 4/4/3
f 2/1/4 3/2/4 7/3/4
f 2/1/4 7/3/4 6/4/4
f 1/1/5 2/2/5 6/3/5
f 1/1/5 6/3/5 5/4/5
f 4/1/6 8/2/6 7/3/6
f 4/1/6 7/3/6 3/4/6
