# Upper bracket of dropper_mounting_collision.obj (z <= 0.105).
# Trimmed so the convex hull leaves the ball chamber and drop path open.
o Dropper_Mounting_Bracket
v -0.158531 0.314669 0.040960
v -0.158531 0.309970 0.040960
v -0.158531 0.354420 0.098110
v -0.222031 0.309970 0.040960
v -0.222031 0.309970 0.098110
v -0.158531 0.309970 0.098110
v -0.222031 0.314669 0.040960
v -0.158531 0.354420 0.085410
v -0.191609 0.408990 0.045685
v -0.187693 0.406118 0.046411
v -0.188489 0.406067 0.045685
v -0.188607 0.405892 0.045497
v -0.188961 0.406793 0.045685
v -0.189637 0.407310 0.045497
v -0.190278 0.407913 0.045497
v -0.193428 0.409396 0.045497
v -0.192411 0.409320 0.045685
v -0.195838 0.409624 0.045685
v -0.194107 0.409680 0.045685
v -0.196902 0.409178 0.045497
v -0.196687 0.409440 0.045685
v -0.199888 0.407623 0.045745
v -0.199201 0.407915 0.045497
v -0.199164 0.408237 0.045726
v -0.198368 0.408749 0.045706
v -0.198491 0.408431 0.045497
v -0.201501 0.405293 0.045804
v -0.201823 0.404398 0.045825
v -0.190003 0.408944 0.046480
v -0.190056 0.408334 0.045964
v -0.189306 0.408342 0.046463
v -0.194166 0.410499 0.046497
v -0.195956 0.410427 0.046497
v -0.191759 0.408853 0.045497
v -0.192576 0.409177 0.045497
v -0.194301 0.409506 0.045497
v -0.190990 0.408430 0.045497
v -0.195179 0.409506 0.045497
v -0.189077 0.406633 0.045497
v -0.196051 0.409396 0.045497
v -0.188232 0.405096 0.045497
v -0.197721 0.408854 0.045497
v -0.200875 0.405893 0.045497
v -0.201521 0.404263 0.045497
v -0.201249 0.405098 0.045497
v -0.200403 0.406635 0.045497
v -0.199842 0.407313 0.045497
v -0.188683 0.407666 0.046446
v -0.188144 0.406923 0.046429
v -0.187340 0.405269 0.046393
v -0.201066 0.406138 0.045784
v -0.200526 0.406918 0.045764
v -0.197508 0.409154 0.045685
v -0.197746 0.409934 0.046527
v -0.188887 0.406934 0.045829
v -0.195020 0.410386 0.046368
v -0.189428 0.407671 0.045897
v -0.190759 0.408918 0.046033
v -0.192352 0.409813 0.046172
v -0.193214 0.410110 0.046240
v -0.195288 0.415386 0.065700
v -0.194737 0.415402 0.065743
v -0.225797 0.415477 0.073570
v -0.225698 0.415340 0.073301
v -0.225351 0.415555 0.073304
v -0.226007 0.415074 0.073298
v -0.226127 0.415194 0.073567
v -0.226745 0.414548 0.073848
v -0.226508 0.414934 0.073849
v -0.226408 0.414862 0.073565
v -0.226919 0.414128 0.073849
v -0.226635 0.414492 0.073564
v -0.224622 0.416099 0.073874
v -0.224633 0.416170 0.074166
v -0.224168 0.416145 0.073906
v -0.224168 0.416234 0.074462
v -0.225427 0.415706 0.073574
v -0.225026 0.415875 0.073579
v -0.225064 0.415990 0.073866
v -0.225086 0.416060 0.074158
v -0.225483 0.415815 0.073860
v -0.226294 0.414318 0.073056
v -0.226802 0.414090 0.073565
v -0.225869 0.415576 0.073855
v -0.226214 0.415280 0.073851
v -0.226099 0.414638 0.073056
v -0.226271 0.414763 0.073297
v -0.226641 0.414038 0.073297
v -0.226484 0.414415 0.073296
v -0.226438 0.413972 0.073056
v -0.226737 0.413641 0.073298
v -0.226904 0.413668 0.073567
v -0.227025 0.413687 0.073851
v -0.227071 0.413235 0.073880
v -0.224168 0.416209 0.074181
v -0.174847 0.414492 0.073564
v -0.175355 0.415194 0.073567
v -0.175074 0.414862 0.073565
v -0.176456 0.415875 0.073579
v -0.176055 0.415706 0.073574
v -0.176419 0.415990 0.073866
v -0.175613 0.415576 0.073855
v -0.175685 0.415477 0.073570
v -0.175999 0.415815 0.073860
v -0.176396 0.416060 0.074158
v -0.176849 0.416170 0.074166
v -0.174680 0.414090 0.073565
v -0.174563 0.414128 0.073849
v -0.174737 0.414548 0.073848
v -0.174974 0.414934 0.073849
v -0.175268 0.415280 0.073851
v -0.176860 0.416099 0.073874
v -0.177314 0.416145 0.073906
v -0.177314 0.416209 0.074181
v -0.193551 0.415347 0.065743
v -0.200164 0.408401 0.046613
v -0.199420 0.409009 0.046585
v -0.198608 0.409523 0.046556
v -0.196835 0.410241 0.046497
v -0.195062 0.410513 0.046497
v -0.192404 0.410171 0.046497
v -0.191565 0.409863 0.046497
v -0.190762 0.409460 0.046497
v -0.193276 0.410385 0.046497
v -0.194974 0.409704 0.045685
v -0.193249 0.409552 0.045685
v -0.190152 0.408053 0.045685
v -0.189518 0.407459 0.045685
v -0.190852 0.408565 0.045685
v -0.188107 0.405287 0.045685
f 22 24 23
f 25 26 24
f 24 26 23
f 29 31 30
f 63 65 64
f 71 68 72
f 75 73 74
f 73 80 74
f 79 80 73
f 81 78 77
f 72 83 71
f 77 65 63
f 78 81 79
f 85 63 67
f 63 85 84
f 88 89 82
f 87 89 72
f 70 87 72
f 90 88 82
f 83 88 92
f 88 91 92
f 109 107 96
f 110 96 98
f 107 109 108
f 96 110 109
f 100 104 103
f 103 104 102
f 101 105 104
f 4 1 2
f 28 44 7
f 44 45 7
f 45 43 7
f 43 46 7
f 46 47 7
f 47 23 7
f 23 26 7
f 26 42 7
f 42 20 7
f 20 40 7
f 40 38 7
f 94 93 7
f 93 92 7
f 92 91 7
f 91 88 7
f 88 90 7
f 90 28 7
f 1 8 3
f 10 130 11
f 66 70 67
f 121 112 101
f 22 23 47
f 25 42 26
f 25 53 42
f 53 20 42
f 53 21 20
f 21 40 20
f 21 119 40
f 119 18 40
f 18 38 40
f 18 56 38
f 56 125 38
f 125 36 38
f 36 16 1
f 16 35 1
f 35 34 1
f 34 37 1
f 37 15 1
f 15 14 1
f 14 39 1
f 39 12 1
f 12 41 1
f 41 130 1
f 130 50 1
f 50 107 1
f 107 108 1
f 4 6 5
f 103 111 97
f 64 67 63
f 21 54 119
f 11 39 13
f 130 12 11
f 13 57 48
f 86 52 51
f 86 87 52
f 7 36 1
f 66 116 22
f 86 27 82
f 129 15 37
f 33 18 119
f 73 33 119
f 33 120 18
f 120 56 18
f 125 56 36
f 56 19 36
f 19 16 36
f 120 32 56
f 32 19 56
f 124 60 16
f 60 126 16
f 124 113 112
f 116 24 22
f 107 10 96
f 82 28 90
f 6 1 3
f 127 58 29
f 9 59 122
f 97 110 98
f 120 61 62
f 61 95 62
f 95 76 62
f 114 115 62
f 75 74 95
f 61 75 95
f 79 81 80
f 32 62 115
f 71 92 93
f 84 77 63
f 68 70 72
f 29 100 103
f 73 54 78
f 72 88 83
f 52 47 46
f 65 54 118
f 65 77 54
f 77 78 54
f 73 120 33
f 79 73 78
f 75 120 73
f 75 61 120
f 115 113 32
f 121 60 124
f 121 59 17
f 66 52 87
f 57 30 31
f 123 58 129
f 116 64 117
f 29 30 127
f 49 11 13
f 57 128 127
f 65 117 64
f 48 55 13
f 55 49 13
f 15 128 14
f 69 67 70
f 100 122 104
f 122 99 104
f 99 101 104
f 113 115 114
f 123 9 122
f 51 46 43
f 48 103 97
f 49 96 10
f 112 105 101
f 49 97 98
f 122 59 121
f 101 99 121
f 99 122 121
f 100 123 122
f 29 58 123
f 103 31 29
f 48 57 31
f 9 37 34
f 49 55 48
f 53 118 54
f 45 28 27
f 113 106 112
f 27 43 45
f 124 19 32
f 86 89 87
f 17 60 121
f 17 34 35
f 126 35 16
f 117 25 24
f 13 14 128
f 4 7 1
f 10 50 130
f 66 87 70
f 121 124 112
f 4 2 6
f 103 102 111
f 64 66 67
f 21 53 54
f 11 12 39
f 130 41 12
f 13 128 57
f 7 38 36
f 86 51 27
f 129 127 15
f 124 32 113
f 116 117 24
f 107 50 10
f 82 27 28
f 6 2 1
f 127 129 58
f 9 17 59
f 97 111 110
f 32 120 62
f 71 83 92
f 84 81 77
f 68 69 70
f 29 123 100
f 73 119 54
f 72 89 88
f 52 22 47
f 66 22 52
f 57 127 30
f 116 66 64
f 49 10 11
f 65 118 117
f 15 127 128
f 69 85 67
f 123 129 9
f 51 52 46
f 48 31 103
f 49 98 96
f 112 106 105
f 49 48 97
f 9 129 37
f 53 25 118
f 45 44 28
f 113 114 106
f 27 51 43
f 124 16 19
f 86 82 89
f 17 126 60
f 17 9 34
f 126 17 35
f 117 118 25
f 13 39 14
