# Blender 4.5.4 LTS
# www.blender.org
o Plane
v -0.000000 -0.320000 -1.095000
v 0.000000 -0.320000 -0.455000
v -0.000000 0.320000 -1.095000
v 0.000000 0.320000 -0.455000
v -0.002500 -0.320000 -1.095000
v -0.002500 -0.320000 -0.455000
v -0.002500 0.320000 -1.095000
v -0.002500 0.320000 -0.455000
v 0.002500 -0.320000 -1.095000
v 0.002500 -0.320000 -0.455000
v 0.002500 0.320000 -1.095000
v 0.002500 0.320000 -0.455000
v -0.000000 0.178520 -0.979050
v 0.002500 0.178520 -0.979050
v -0.000000 0.179500 -0.989000
v 0.002500 0.179500 -0.989000
v -0.000000 0.178520 -0.998950
v 0.002500 0.178520 -0.998950
v -0.000000 0.175618 -1.008517
v 0.002500 0.175618 -1.008517
v -0.000000 0.175618 -0.969483
v 0.002500 0.175618 -0.969483
v -0.000000 0.170905 -0.960666
v 0.002500 0.170905 -0.960666
v -0.000000 0.170905 -1.017334
v 0.002500 0.170905 -1.017334
v -0.000000 0.164562 -0.952937
v 0.002500 0.164562 -0.952937
v -0.000000 0.164562 -1.025062
v 0.002500 0.164562 -1.025062
v -0.000000 0.156834 -0.946595
v 0.002500 0.156834 -0.946595
v -0.000000 0.156834 -1.031405
v 0.002500 0.156834 -1.031405
v -0.000000 0.138450 -0.938980
v 0.002500 0.138450 -0.938980
v -0.000000 0.148017 -0.941882
v 0.002500 0.148017 -0.941882
v -0.000000 0.148017 -1.036118
v 0.002500 0.148017 -1.036118
v -0.000000 0.138450 -1.039020
v 0.002500 0.138450 -1.039020
v -0.000000 0.128500 -0.938000
v 0.002500 0.128500 -0.938000
v -0.000000 0.118550 -0.938980
v 0.002500 0.118550 -0.938980
v -0.000000 0.108983 -0.941882
v 0.002500 0.108983 -0.941882
v -0.000000 0.100166 -0.946595
v 0.002500 0.100166 -0.946595
v -0.000000 0.092438 -0.952937
v 0.002500 0.092438 -0.952937
v -0.000000 0.086095 -0.960666
v 0.002500 0.086095 -0.960666
v -0.000000 0.081382 -0.969483
v 0.002500 0.081382 -0.969483
v -0.000000 0.078480 -0.979050
v 0.002500 0.078480 -0.979050
v -0.000000 0.077500 -0.989000
v 0.002500 0.077500 -0.989000
v -0.000000 0.078480 -0.998950
v 0.002500 0.078480 -0.998950
v -0.000000 0.081382 -1.008517
v 0.002500 0.081382 -1.008517
v -0.000000 0.086095 -1.017334
v 0.002500 0.086095 -1.017334
v -0.000000 0.108983 -1.036118
v 0.002500 0.108983 -1.036118
v -0.000000 0.100166 -1.031405
v 0.002500 0.100166 -1.031405
v -0.000000 0.092438 -1.025062
v 0.002500 0.092438 -1.025062
v -0.000000 0.128500 -1.040000
v 0.002500 0.128500 -1.040000
v -0.000000 0.118550 -1.039020
v 0.002500 0.118550 -1.039020
v 0.000000 0.069020 -0.727050
v 0.002500 0.069020 -0.727050
v 0.000000 0.070000 -0.737000
v 0.002500 0.070000 -0.737000
v 0.000000 0.069020 -0.746950
v 0.002500 0.069020 -0.746950
v 0.000000 0.066118 -0.756517
v 0.002500 0.066118 -0.756517
v 0.000000 0.066118 -0.717483
v 0.002500 0.066118 -0.717483
v 0.000000 0.061405 -0.708666
v 0.002500 0.061405 -0.708666
v 0.000000 0.061405 -0.765334
v 0.002500 0.061405 -0.765334
v 0.000000 0.055062 -0.700938
v 0.002500 0.055062 -0.700938
v 0.000000 0.055062 -0.773062
v 0.002500 0.055062 -0.773062
v 0.000000 0.047334 -0.694595
v 0.002500 0.047334 -0.694595
v 0.000000 0.047334 -0.779405
v 0.002500 0.047334 -0.779405
v 0.000000 0.028950 -0.686980
v 0.002500 0.028950 -0.686980
v 0.000000 0.038517 -0.689882
v 0.002500 0.038517 -0.689882
v 0.000000 0.038517 -0.784118
v 0.002500 0.038517 -0.784118
v -0.000000 0.028950 -0.787020
v 0.002500 0.028950 -0.787020
v 0.000000 0.019000 -0.686000
v 0.002500 0.019000 -0.686000
v 0.000000 0.009050 -0.686980
v 0.002500 0.009050 -0.686980
v 0.000000 -0.000517 -0.689882
v 0.002500 -0.000517 -0.689882
v 0.000000 -0.009334 -0.694595
v 0.002500 -0.009334 -0.694595
v 0.000000 -0.017062 -0.700938
v 0.002500 -0.017062 -0.700938
v 0.000000 -0.023405 -0.708666
v 0.002500 -0.023405 -0.708666
v 0.000000 -0.028118 -0.717483
v 0.002500 -0.028118 -0.717483
v 0.000000 -0.031020 -0.727050
v 0.002500 -0.031020 -0.727050
v 0.000000 -0.032000 -0.737000
v 0.002500 -0.032000 -0.737000
v 0.000000 -0.031020 -0.746950
v 0.002500 -0.031020 -0.746950
v 0.000000 -0.028118 -0.756517
v 0.002500 -0.028118 -0.756517
v 0.000000 -0.023405 -0.765334
v 0.002500 -0.023405 -0.765334
v 0.000000 -0.000517 -0.784118
v 0.002500 -0.000517 -0.784118
v 0.000000 -0.009334 -0.779405
v 0.002500 -0.009334 -0.779405
v 0.000000 -0.017062 -0.773062
v 0.002500 -0.017062 -0.773062
v -0.000000 0.019000 -0.788000
v 0.002500 0.019000 -0.788000
v -0.000000 0.009050 -0.787020
v 0.002500 0.009050 -0.787020
vn 1.0000 -0.0000 -0.0000
vn -0.0000 -1.0000 -0.0000
vn -0.0000 -0.0000 1.0000
vn -0.0000 -0.0000 -1.0000
vn -0.0000 1.0000 -0.0000
vn -1.0000 -0.0000 -0.0000
vn -0.0000 0.0980 -0.9952
vn -0.0000 0.6344 -0.7730
vn -0.0000 0.4714 -0.8819
vn -0.0000 -0.0980 0.9952
vn -0.0000 -0.2903 -0.9569
vn -0.0000 -0.0980 -0.9952
vn -0.0000 -0.6344 -0.7730
vn -0.0000 -0.9952 0.0980
vn -0.0000 0.9952 0.0980
vn -0.0000 -0.4714 0.8819
vn -0.0000 0.9952 -0.0980
vn -0.0000 -0.9569 0.2903
vn -0.0000 -0.7730 -0.6344
vn -0.0000 0.8819 0.4714
vn -0.0000 -0.8819 -0.4714
vn -0.0000 0.7730 -0.6344
vn -0.0000 -0.7730 0.6344
vn -0.0000 -0.2903 0.9569
vn -0.0000 0.7730 0.6344
vn -0.0000 0.8819 -0.4714
vn -0.0000 0.4714 0.8819
vn -0.0000 -0.9952 -0.0980
vn -0.0000 -0.4714 -0.8819
vn -0.0000 0.0980 0.9952
vn -0.0000 0.2903 -0.9569
vn -0.0000 0.9569 0.2903
vn -0.0000 -0.8819 0.4714
vn -0.0000 0.2903 0.9569
vn -0.0000 -0.9569 -0.2903
vn -0.0000 0.9569 -0.2903
vn -0.0000 -0.6344 0.7730
vn -0.0000 0.6344 0.7730
vt 0.243781 0.685235
vt 0.481219 0.514141
vt 0.485753 0.499192
vt 0.000000 1.000000
vt 1.000000 1.000000
vt 1.000000 0.000000
vt 0.000000 0.000000
vt 0.481219 0.514141
vt 0.479688 0.529688
vt 0.239247 0.670286
vt 0.718750 0.750000
vt 0.750000 0.625000
vt 0.718750 0.625000
vt 0.165625 0.780469
vt 0.150079 0.778938
vt 0.625000 0.750000
vt 0.656250 0.625000
vt 0.625000 0.625000
vt 0.656250 0.750000
vt 0.687500 0.625000
vt 0.218750 0.750000
vt 0.250000 0.625000
vt 0.218750 0.625000
vt 0.781250 0.750000
vt 0.812500 0.625000
vt 0.781250 0.625000
vt 0.750000 0.750000
vt 0.843750 0.750000
vt 0.875000 0.625000
vt 0.843750 0.625000
vt 0.000000 0.750000
vt 0.031250 0.625000
vt 0.000000 0.625000
vt 0.468750 0.750000
vt 0.500000 0.625000
vt 0.468750 0.625000
vt 0.156250 0.750000
vt 0.187500 0.625000
vt 0.156250 0.625000
vt 0.500000 0.750000
vt 0.531250 0.625000
vt 0.031250 0.750000
vt 0.062500 0.625000
vt 0.875000 0.750000
vt 0.906250 0.625000
vt 0.406250 0.750000
vt 0.437500 0.625000
vt 0.406250 0.625000
vt 0.906250 0.750000
vt 0.937500 0.625000
vt 0.593750 0.750000
vt 0.593750 0.625000
vt 0.093750 0.625000
vt 0.125000 0.750000
vt 0.125000 0.625000
vt 0.187500 0.750000
vt 0.375000 0.750000
vt 0.375000 0.625000
vt 0.562500 0.750000
vt 0.562500 0.625000
vt 0.312500 0.750000
vt 0.343750 0.625000
vt 0.312500 0.625000
vt 0.968750 0.625000
vt 1.000000 0.750000
vt 1.000000 0.625000
vt 0.812500 0.750000
vt 0.250000 0.750000
vt 0.281250 0.625000
vt 0.687500 0.750000
vt 0.437500 0.750000
vt 0.062500 0.750000
vt 0.281250 0.750000
vt 0.968750 0.750000
vt 0.531250 0.750000
vt 0.181171 0.778938
vt 0.196120 0.774403
vt 0.343750 0.750000
vt 0.718750 0.750000
vt 0.750000 0.625000
vt 0.718750 0.625000
vt 0.543829 0.607844
vt 0.528880 0.603309
vt 0.625000 0.750000
vt 0.656250 0.625000
vt 0.625000 0.625000
vt 0.656250 0.750000
vt 0.687500 0.625000
vt 0.218750 0.625000
vt 0.250000 0.750000
vt 0.250000 0.625000
vt 0.781250 0.750000
vt 0.812500 0.625000
vt 0.781250 0.625000
vt 0.750000 0.750000
vt 0.843750 0.625000
vt 0.875000 0.750000
vt 0.875000 0.625000
vt 0.000000 0.750000
vt 0.031250 0.625000
vt 0.000000 0.625000
vt 0.468750 0.750000
vt 0.500000 0.625000
vt 0.468750 0.625000
vt 0.156250 0.750000
vt 0.187500 0.625000
vt 0.156250 0.625000
vt 0.500000 0.750000
vt 0.531250 0.625000
vt 0.031250 0.750000
vt 0.062500 0.625000
vt 0.906250 0.750000
vt 0.906250 0.625000
vt 0.406250 0.750000
vt 0.437500 0.625000
vt 0.406250 0.625000
vt 0.937500 0.625000
vt 0.593750 0.750000
vt 0.593750 0.625000
vt 0.093750 0.625000
vt 0.125000 0.750000
vt 0.125000 0.625000
vt 0.187500 0.750000
vt 0.375000 0.750000
vt 0.375000 0.625000
vt 0.562500 0.750000
vt 0.562500 0.625000
vt 0.312500 0.750000
vt 0.343750 0.625000
vt 0.312500 0.625000
vt 0.968750 0.750000
vt 1.000000 0.625000
vt 0.968750 0.625000
vt 0.843750 0.750000
vt 0.281250 0.625000
vt 0.687500 0.750000
vt 0.437500 0.750000
vt 0.093750 0.750000
vt 0.281250 0.750000
vt 0.937500 0.750000
vt 0.531250 0.750000
vt 0.559375 0.609375
vt 0.574921 0.607844
vt 0.343750 0.750000
vt 0.085938 0.700781
vt 0.087469 0.685235
vt 0.639063 0.529687
vt 0.637531 0.514141
vt 0.092003 0.670286
vt 0.099367 0.656509
vt 0.632997 0.499192
vt 0.625633 0.485416
vt 0.109277 0.644434
vt 0.121353 0.634524
vt 0.615723 0.473340
vt 0.603647 0.463430
vt 0.135130 0.627160
vt 0.589870 0.456066
vt 0.574921 0.451531
vt 0.150079 0.622625
vt 0.165625 0.621094
vt 0.559375 0.450000
vt 0.543829 0.451531
vt 0.181171 0.622625
vt 0.196120 0.627160
vt 0.528880 0.456066
vt 0.515103 0.463430
vt 0.209897 0.634524
vt 0.221973 0.644434
vt 0.503027 0.473340
vt 0.231883 0.656509
vt 0.493117 0.485416
vt 0.245313 0.700781
vt 0.639062 0.529688
vt 0.637532 0.514141
vt 0.632997 0.499193
vt 0.625633 0.485415
vt 0.092003 0.670286
vt 0.099367 0.656509
vt 0.615722 0.473340
vt 0.603647 0.463430
vt 0.150079 0.622625
vt 0.574921 0.451531
vt 0.559375 0.450000
vt 0.181171 0.622625
vt 0.543829 0.451531
vt 0.528880 0.456066
vt 0.196120 0.627160
vt 0.515103 0.463430
vt 0.503028 0.473340
vt 0.221973 0.644434
vt 0.231883 0.656509
vt 0.493117 0.485416
vt 0.485753 0.499192
vt 0.245312 0.700781
vt 0.243781 0.716328
vt 0.239247 0.731276
vt 0.087469 0.716328
vt 0.092003 0.731276
vt 0.231883 0.745053
vt 0.221973 0.757129
vt 0.099367 0.745053
vt 0.109277 0.757129
vt 0.209897 0.767039
vt 0.121353 0.767039
vt 0.135130 0.774403
vt 0.196120 0.774403
vt 0.181171 0.778938
vt 0.937500 0.750000
vt 0.093750 0.750000
vt 0.231883 0.745053
vt 0.121353 0.767039
vt 0.209897 0.767039
vt 0.637531 0.545234
vt 0.632997 0.560183
vt 0.481219 0.545234
vt 0.485753 0.560183
vt 0.625633 0.573959
vt 0.615723 0.586035
vt 0.493117 0.573960
vt 0.503027 0.586035
vt 0.603647 0.595945
vt 0.589870 0.603309
vt 0.515103 0.595945
vt 0.574921 0.607844
vt 0.218750 0.750000
vt 0.812500 0.750000
vt 0.062500 0.750000
vt 1.000000 0.750000
vt 0.481219 0.545234
vt 0.485753 0.560183
vt 0.637531 0.545234
vt 0.632997 0.560183
vt 0.493117 0.573960
vt 0.503027 0.586035
vt 0.625633 0.573959
vt 0.615722 0.586035
vt 0.515103 0.595945
vt 0.603647 0.595945
vt 0.589870 0.603309
vt 0.528880 0.603309
vt 0.543829 0.607844
s 0
f 45/1/1 139/2/1 131/3/1
f 7/4/2 12/5/2 8/5/2
f 2/6/2 5/7/2 1/7/2
f 4/5/3 6/6/3 2/6/3
f 1/7/4 7/4/4 3/4/4
f 3/4/5 8/5/5 4/5/5
f 140/8/6 138/9/6 48/10/6
f 6/6/5 9/7/5 5/7/5
f 8/5/4 10/6/4 6/6/4
f 5/7/3 11/4/3 7/4/3
f 45/11/7 44/12/7 46/13/7
f 15/14/1 17/15/1 3/4/1
f 51/16/8 50/17/8 52/18/8
f 49/19/9 48/20/9 50/17/9
f 41/21/10 74/22/10 42/23/10
f 35/24/11 38/25/11 36/26/11
f 43/27/12 36/26/12 44/12/12
f 31/28/13 28/29/13 32/30/13
f 15/31/14 18/32/14 16/33/14
f 61/34/15 60/35/15 62/36/15
f 33/37/16 40/38/16 34/39/16
f 59/40/17 58/41/17 60/35/17
f 17/42/18 20/43/18 18/32/18
f 27/44/19 24/45/19 28/29/19
f 65/46/20 64/47/20 66/48/20
f 23/49/21 22/50/21 24/45/21
f 53/51/22 52/18/22 54/52/22
f 26/53/23 29/54/23 30/55/23
f 39/56/24 42/23/24 40/38/24
f 71/57/25 66/48/25 72/58/25
f 55/59/26 54/52/26 56/60/26
f 67/61/27 70/62/27 68/63/27
f 14/64/28 15/65/28 16/66/28
f 37/67/29 32/30/29 38/25/29
f 73/68/30 76/69/30 74/22/30
f 47/70/31 46/13/31 48/20/31
f 63/71/32 62/36/32 64/47/32
f 19/72/33 26/53/33 20/43/33
f 75/73/34 68/63/34 76/69/34
f 22/50/35 13/74/35 14/64/35
f 57/75/36 56/60/36 58/41/36
f 29/54/37 34/39/37 30/55/37
f 11/4/6 14/76/6 22/77/6
f 69/78/38 72/58/38 70/62/38
f 109/79/7 108/80/7 110/81/7
f 4/5/1 81/82/1 83/83/1
f 115/84/8 114/85/8 116/86/8
f 113/87/9 112/88/9 114/85/9
f 106/89/10 137/90/10 138/91/10
f 99/92/11 102/93/11 100/94/11
f 107/95/12 100/94/12 108/80/12
f 96/96/13 91/97/13 92/98/13
f 79/99/14 82/100/14 80/101/14
f 125/102/15 124/103/15 126/104/15
f 97/105/16 104/106/16 98/107/16
f 123/108/17 122/109/17 124/103/17
f 81/110/18 84/111/18 82/100/18
f 92/98/19 87/112/19 88/113/19
f 129/114/20 128/115/20 130/116/20
f 87/112/21 86/117/21 88/113/21
f 117/118/22 116/86/22 118/119/22
f 90/120/23 93/121/23 94/122/23
f 103/123/24 106/89/24 104/106/24
f 135/124/25 130/116/25 136/125/25
f 119/126/26 118/119/26 120/127/26
f 131/128/27 134/129/27 132/130/27
f 77/131/28 80/132/28 78/133/28
f 102/93/29 95/134/29 96/96/29
f 137/90/30 140/135/30 138/91/30
f 111/136/31 110/81/31 112/88/31
f 127/137/32 126/104/32 128/115/32
f 84/111/33 89/138/33 90/120/33
f 139/139/34 132/130/34 140/135/34
f 85/140/35 78/133/35 86/117/35
f 121/141/36 120/127/36 122/109/36
f 93/121/37 98/107/37 94/122/37
f 80/142/6 78/143/6 12/5/6
f 133/144/38 136/125/38 134/129/38
f 1/7/1 3/4/1 73/145/1
f 1/7/1 73/145/1 75/146/1
f 107/147/1 4/5/1 2/6/1
f 109/148/1 107/147/1 2/6/1
f 1/7/1 75/146/1 67/149/1
f 1/7/1 67/149/1 69/150/1
f 111/151/1 109/148/1 2/6/1
f 113/152/1 111/151/1 2/6/1
f 1/7/1 69/150/1 71/153/1
f 1/7/1 71/153/1 65/154/1
f 115/155/1 113/152/1 2/6/1
f 117/156/1 115/155/1 2/6/1
f 2/6/1 1/7/1 65/154/1
f 2/6/1 65/154/1 63/157/1
f 119/158/1 117/156/1 2/6/1
f 121/159/1 119/158/1 2/6/1
f 2/6/1 63/157/1 61/160/1
f 2/6/1 61/160/1 59/161/1
f 123/162/1 121/159/1 2/6/1
f 125/163/1 123/162/1 2/6/1
f 2/6/1 59/161/1 57/164/1
f 2/6/1 57/164/1 55/165/1
f 127/166/1 125/163/1 2/6/1
f 129/167/1 127/166/1 2/6/1
f 2/6/1 55/165/1 53/168/1
f 2/6/1 53/168/1 51/169/1
f 135/170/1 129/167/1 2/6/1
f 135/170/1 2/6/1 51/169/1
f 135/170/1 51/169/1 49/171/1
f 133/172/1 135/170/1 49/171/1
f 133/172/1 49/171/1 47/10/1
f 131/3/1 133/172/1 47/10/1
f 45/1/1 43/173/1 137/9/1
f 131/3/1 47/10/1 45/1/1
f 45/1/1 137/9/1 139/2/1
f 7/4/2 11/4/2 12/5/2
f 2/6/2 6/6/2 5/7/2
f 4/5/3 8/5/3 6/6/3
f 1/7/4 5/7/4 7/4/4
f 3/4/5 7/4/5 8/5/5
f 10/6/6 12/5/6 108/174/6
f 10/6/6 108/174/6 110/175/6
f 74/145/6 11/4/6 9/7/6
f 76/146/6 74/145/6 9/7/6
f 10/6/6 110/175/6 112/176/6
f 10/6/6 112/176/6 114/177/6
f 68/178/6 76/146/6 9/7/6
f 70/179/6 68/178/6 9/7/6
f 10/6/6 114/177/6 116/180/6
f 10/6/6 116/180/6 118/181/6
f 72/153/6 70/179/6 9/7/6
f 66/154/6 72/153/6 9/7/6
f 9/7/6 10/6/6 118/181/6
f 9/7/6 118/181/6 120/158/6
f 64/157/6 66/154/6 9/7/6
f 62/182/6 64/157/6 9/7/6
f 9/7/6 120/158/6 122/183/6
f 9/7/6 122/183/6 124/184/6
f 60/161/6 62/182/6 9/7/6
f 58/185/6 60/161/6 9/7/6
f 9/7/6 124/184/6 126/186/6
f 9/7/6 126/186/6 128/187/6
f 56/188/6 58/185/6 9/7/6
f 54/168/6 56/188/6 9/7/6
f 9/7/6 128/187/6 130/189/6
f 9/7/6 130/189/6 136/190/6
f 52/191/6 54/168/6 9/7/6
f 50/192/6 52/191/6 9/7/6
f 9/7/6 136/190/6 134/193/6
f 9/7/6 134/193/6 132/194/6
f 48/10/6 50/192/6 9/7/6
f 138/9/6 44/195/6 46/1/6
f 48/10/6 9/7/6 132/194/6
f 138/9/6 46/1/6 48/10/6
f 48/10/6 132/194/6 140/8/6
f 6/6/5 10/6/5 9/7/5
f 8/5/4 12/5/4 10/6/4
f 5/7/3 9/7/3 11/4/3
f 45/11/7 43/27/7 44/12/7
f 4/5/1 43/173/1 35/196/1
f 4/5/1 35/196/1 37/197/1
f 41/198/1 73/145/1 3/4/1
f 39/199/1 41/198/1 3/4/1
f 4/5/1 37/197/1 31/200/1
f 4/5/1 31/200/1 27/201/1
f 33/202/1 39/199/1 3/4/1
f 29/203/1 33/202/1 3/4/1
f 3/4/1 4/5/1 27/201/1
f 3/4/1 27/201/1 23/204/1
f 25/205/1 29/203/1 3/4/1
f 19/206/1 25/205/1 3/4/1
f 3/4/1 23/204/1 21/207/1
f 3/4/1 21/207/1 13/208/1
f 17/15/1 19/206/1 3/4/1
f 3/4/1 13/208/1 15/14/1
f 51/16/8 49/19/8 50/17/8
f 49/19/9 47/70/9 48/20/9
f 41/21/10 73/68/10 74/22/10
f 35/24/11 37/67/11 38/25/11
f 43/27/12 35/24/12 36/26/12
f 31/28/13 27/44/13 28/29/13
f 15/31/14 17/42/14 18/32/14
f 61/34/15 59/40/15 60/35/15
f 33/37/16 39/56/16 40/38/16
f 59/40/17 57/75/17 58/41/17
f 17/42/18 19/72/18 20/43/18
f 27/44/19 23/49/19 24/45/19
f 65/46/20 63/71/20 64/47/20
f 23/49/21 21/209/21 22/50/21
f 53/51/22 51/16/22 52/18/22
f 26/53/23 25/210/23 29/54/23
f 39/56/24 41/21/24 42/23/24
f 71/57/25 65/46/25 66/48/25
f 55/59/26 53/51/26 54/52/26
f 67/61/27 69/78/27 70/62/27
f 14/64/28 13/74/28 15/65/28
f 37/67/29 31/28/29 32/30/29
f 73/68/30 75/73/30 76/69/30
f 47/70/31 45/11/31 46/13/31
f 63/71/32 61/34/32 62/36/32
f 19/72/33 25/210/33 26/53/33
f 75/73/34 67/61/34 68/63/34
f 22/50/35 21/209/35 13/74/35
f 57/75/36 55/59/36 56/60/36
f 29/54/37 33/37/37 34/39/37
f 11/4/6 74/145/6 42/198/6
f 11/4/6 42/198/6 40/199/6
f 36/196/6 44/195/6 12/5/6
f 38/197/6 36/196/6 12/5/6
f 11/4/6 40/199/6 34/202/6
f 11/4/6 34/202/6 30/203/6
f 32/211/6 38/197/6 12/5/6
f 28/201/6 32/211/6 12/5/6
f 11/4/6 30/203/6 26/212/6
f 11/4/6 26/212/6 20/206/6
f 28/201/6 12/5/6 11/4/6
f 24/213/6 28/201/6 11/4/6
f 11/4/6 20/206/6 18/15/6
f 11/4/6 18/15/6 16/14/6
f 22/77/6 24/213/6 11/4/6
f 11/4/6 16/14/6 14/76/6
f 69/78/38 71/57/38 72/58/38
f 109/79/7 107/95/7 108/80/7
f 4/5/1 107/147/1 99/214/1
f 4/5/1 99/214/1 101/215/1
f 105/216/1 137/9/1 43/173/1
f 103/217/1 105/216/1 43/173/1
f 4/5/1 101/215/1 95/218/1
f 4/5/1 95/218/1 91/219/1
f 97/220/1 103/217/1 43/173/1
f 93/221/1 97/220/1 43/173/1
f 4/5/1 91/219/1 87/222/1
f 4/5/1 87/222/1 85/223/1
f 93/221/1 43/173/1 4/5/1
f 89/224/1 93/221/1 4/5/1
f 4/5/1 85/223/1 77/225/1
f 4/5/1 77/225/1 79/142/1
f 83/83/1 89/224/1 4/5/1
f 4/5/1 79/142/1 81/82/1
f 115/84/8 113/87/8 114/85/8
f 113/87/9 111/136/9 112/88/9
f 106/89/10 105/226/10 137/90/10
f 99/92/11 101/227/11 102/93/11
f 107/95/12 99/92/12 100/94/12
f 96/96/13 95/134/13 91/97/13
f 79/99/14 81/110/14 82/100/14
f 125/102/15 123/108/15 124/103/15
f 97/105/16 103/123/16 104/106/16
f 123/108/17 121/141/17 122/109/17
f 81/110/18 83/228/18 84/111/18
f 92/98/19 91/97/19 87/112/19
f 129/114/20 127/137/20 128/115/20
f 87/112/21 85/140/21 86/117/21
f 117/118/22 115/84/22 116/86/22
f 90/120/23 89/138/23 93/121/23
f 103/123/24 105/226/24 106/89/24
f 135/124/25 129/114/25 130/116/25
f 119/126/26 117/118/26 118/119/26
f 131/128/27 133/144/27 134/129/27
f 77/131/28 79/229/28 80/132/28
f 102/93/29 101/227/29 95/134/29
f 137/90/30 139/139/30 140/135/30
f 111/136/31 109/79/31 110/81/31
f 127/137/32 125/102/32 126/104/32
f 84/111/33 83/228/33 89/138/33
f 139/139/34 131/128/34 132/130/34
f 85/140/35 77/131/35 78/133/35
f 121/141/36 119/126/36 120/127/36
f 93/121/37 97/105/37 98/107/37
f 44/195/6 138/9/6 106/230/6
f 44/195/6 106/230/6 104/231/6
f 100/232/6 108/174/6 12/5/6
f 102/233/6 100/232/6 12/5/6
f 44/195/6 104/231/6 98/234/6
f 44/195/6 98/234/6 94/235/6
f 96/236/6 102/233/6 12/5/6
f 92/237/6 96/236/6 12/5/6
f 12/5/6 44/195/6 94/235/6
f 12/5/6 94/235/6 90/238/6
f 88/239/6 92/237/6 12/5/6
f 86/240/6 88/239/6 12/5/6
f 12/5/6 90/238/6 84/241/6
f 12/5/6 84/241/6 82/242/6
f 78/143/6 86/240/6 12/5/6
f 12/5/6 82/242/6 80/142/6
f 133/144/38 135/124/38 136/125/38
