# Blender 5.0.0
# www.blender.org
o Object.113
v 0.087446 -0.329978 -0.352518
v -0.103093 -0.330038 -0.341114
v -0.027956 -0.329984 -0.377738
v 0.010193 -0.329962 -0.379620
v 0.049838 -0.329971 -0.372088
v -0.063640 -0.329936 -0.366037
v 0.101872 -0.335067 -0.341954
v -0.059866 -0.335043 -0.367933
v -0.020539 -0.335047 -0.378825
v -0.099691 -0.335101 -0.343626
v -0.152008 -0.335025 -0.241086
v -0.129444 -0.335044 -0.308500
v -0.145276 -0.335683 -0.273983
v 0.021748 -0.335049 -0.378656
v 0.060407 -0.335063 -0.367669
v 0.114166 -0.329995 -0.328875
v 0.136771 -0.329973 -0.295638
v 0.143900 -0.335943 -0.277204
v 0.151874 -0.334982 -0.244377
v 0.151209 -0.330106 -0.251505
v -0.137417 -0.329972 -0.294822
v -0.151511 -0.330080 -0.248617
v 0.152444 -0.349468 -0.027330
v 0.152461 -0.315681 -0.027321
v -0.152436 -0.349471 -0.027317
v 0.068831 -0.303299 -0.328536
v 0.119053 -0.303216 -0.254393
v -0.018384 -0.303299 -0.348127
v 0.031806 -0.303240 -0.100908
v -0.054844 -0.338230 -0.363269
v -0.107508 -0.338255 -0.328827
v -0.120859 -0.303185 -0.242036
v -0.108632 -0.303299 -0.283257
v -0.071797 -0.303286 -0.327162
v 0.025424 -0.303301 -0.346634
v 0.101676 -0.303301 -0.294727
v -0.106085 -0.303319 -0.159258
v 0.118866 -0.303308 -0.195385
v 0.128867 -0.336165 -0.308674
v 0.074632 -0.338235 -0.354026
v 0.007077 -0.338246 -0.375028
v -0.152451 -0.315680 -0.027331
vn -0.4283 0.4442 -0.7869
vn -0.5314 -0.0632 -0.8447
vn -0.4683 0.4657 -0.7509
vn 0.3344 0.9424 0.0025
vn 0.0660 0.9960 0.0601
vn -0.0001 0.9860 0.1670
vn -0.0000 0.9860 0.1667
vn 0.6434 0.7637 -0.0527
vn -0.0010 1.0000 -0.0004
vn 0.0025 1.0000 0.0016
vn 0.0001 1.0000 -0.0002
vn 0.1450 0.9397 -0.3097
vn 0.1359 0.9361 -0.3244
vn -0.0005 1.0000 0.0002
vn 0.0001 1.0000 -0.0003
vn -0.1244 0.9315 -0.3419
vn -0.1854 0.9127 -0.3640
vn -0.0004 1.0000 -0.0000
vn -0.0006 1.0000 0.0011
vn 0.0023 1.0000 -0.0021
vn -0.0014 1.0000 0.0019
vn -0.0585 0.9982 0.0127
vn -0.0956 0.9953 0.0173
vn -0.0349 0.9961 0.0811
vn -0.0345 0.9960 0.0820
vn -0.1711 0.9847 0.0321
vn 0.0117 -0.9992 -0.0371
vn 0.0832 -0.9951 -0.0540
vn 0.1364 -0.9889 -0.0582
vn 0.3703 -0.9268 -0.0628
vn 0.0041 1.0000 -0.0039
vn -0.6530 0.7556 -0.0515
vn -0.6523 0.7562 -0.0520
vn -0.3960 -0.9161 -0.0627
vn -0.1537 -0.9863 -0.0596
vn -0.0477 -0.9979 -0.0442
vn -0.0150 -0.9993 -0.0355
vn -0.0120 -0.9992 -0.0369
vn -0.0037 -0.9994 -0.0340
vn -0.0437 0.0655 -0.9969
vn 0.0997 -0.8361 -0.5394
vn 0.0206 -0.7935 -0.6082
vn -0.5052 -0.7501 -0.4268
vn -0.0000 -0.9995 -0.0323
vn -0.2709 -0.9521 -0.1419
vn 1.0000 -0.0005 -0.0027
vn 0.1684 -0.8665 -0.4699
vn 0.2907 -0.8197 -0.4936
vn 0.4611 -0.4842 -0.7436
vn 0.4382 0.7505 -0.4947
vn -0.1280 -0.8777 -0.4618
vn -0.0633 -0.9411 -0.3322
vn 0.0007 -0.1588 -0.9873
vn -0.0489 0.1407 -0.9889
vn -0.3091 0.1216 -0.9432
vn 0.8772 -0.1921 -0.4401
vn 0.8355 0.0785 -0.5439
vn 0.8201 0.1275 -0.5578
vn -0.7592 0.3259 -0.5634
vn 0.9364 0.1732 -0.3051
vn 0.9359 0.1729 -0.3068
vn 0.9361 0.1739 -0.3057
vn 0.1816 0.2315 -0.9557
vn 0.9535 -0.1999 -0.2257
vn 0.9534 -0.2002 -0.2259
vn 0.5088 -0.2609 -0.8204
vn 0.6304 0.3085 -0.7123
vn -0.5197 0.0732 -0.8512
vn -0.0331 0.7478 -0.6631
vn 0.4532 0.7752 -0.4402
vn -0.2019 0.7591 -0.6188
vn -0.0000 0.0004 1.0000
vn -0.9963 0.0852 -0.0098
vn 0.5541 0.7420 -0.3773
vn 0.0216 0.7726 -0.6345
vn 0.0211 0.7724 -0.6348
vn 0.5814 0.7736 -0.2521
vn -0.2258 -0.9003 -0.3720
vn -0.6775 0.7065 -0.2044
vn -0.6252 0.7574 -0.1883
vn -0.6850 0.6984 -0.2073
vn 0.1965 -0.9617 -0.1911
vn -0.2625 -0.1811 -0.9478
vn -0.8712 -0.2780 -0.4047
vn -0.7495 -0.1887 -0.6345
vn 0.6392 0.7407 -0.2067
vn 0.6385 0.7414 -0.2067
vn 0.7520 -0.2303 -0.6176
vn 0.4537 0.1850 -0.8718
vn -0.9273 0.2460 -0.2823
vn 0.8763 -0.2409 -0.4173
vn -0.9613 -0.1970 -0.1928
vn 0.2640 -0.2585 -0.9292
vn 0.2725 0.7630 -0.5861
vn 0.3076 0.7458 -0.5909
vn 0.1252 0.7425 -0.6580
vn -0.4830 0.7763 -0.4050
vn -0.4840 0.7758 -0.4048
vn -0.5332 0.7473 -0.3964
vn 0.9931 0.1164 -0.0130
vn -0.0000 -0.0003 1.0000
vn -1.0000 -0.0004 -0.0020
vn -0.1978 -0.9322 -0.3032
vn -0.6248 0.7579 -0.1874
s 1
f 6//1 8//2 2//3
s 0
f 27//4 38//4 24//4
f 38//5 29//5 24//5
f 29//6 42//7 24//7
f 20//8 27//8 24//8
f 26//9 29//9 27//9
f 29//10 38//10 27//10
s 1
f 29//11 26//12 35//13
s 0
f 29//11 35//14 28//11
s 1
f 29//15 28//16 34//17
s 0
f 29//18 34//19 33//18
f 29//20 33//20 32//20
s 1
f 29//21 32//22 37//23
s 0
f 29//24 37//25 42//24
s 1
f 37//23 32//22 42//26
s 0
f 41//27 40//27 23//27
f 40//28 39//28 23//28
f 39//29 18//29 23//29
f 18//30 19//30 23//30
f 27//31 36//31 26//31
f 32//32 22//33 42//33
f 11//34 13//34 25//34
s 1
f 13//35 31//36 25//37
f 31//36 30//38 25//37
f 30//38 41//39 25//37
f 9//40 14//41 41//42
s 0
f 10//43 31//43 12//43
s 1
f 41//39 23//44 25//37
s 0
f 12//45 31//45 13//45
f 19//46 24//46 23//46
s 1
f 15//47 40//48 41//42
f 7//49 40//48 15//47
s 0
f 16//50 1//50 26//50
s 1
f 30//51 8//51 9//51
s 0
f 9//52 41//52 30//52
s 1
f 15//47 41//42 14//41
f 4//53 9//40 3//54
s 0
f 3//55 8//55 6//55
s 1
f 17//56 39//57 16//58
f 2//59 12//59 21//59
s 0
f 20//60 18//61 17//62
f 5//63 14//63 4//63
s 1
f 20//64 19//65 18//64
f 15//47 1//66 7//49
s 0
f 16//67 7//67 1//67
s 1
f 2//3 8//2 10//68
f 9//40 4//53 14//41
s 0
f 3//69 28//69 4//69
f 16//70 26//70 36//70
s 1
f 34//17 6//1 2//3
f 28//16 3//71 6//1
s 0
f 23//72 42//72 25//72
f 11//73 42//73 22//73
f 17//74 16//74 36//74
f 28//75 35//76 4//75
f 17//77 36//77 27//77
f 30//78 10//78 8//78
s 1
f 22//79 33//80 21//81
s 0
f 7//82 39//82 40//82
f 3//83 9//83 8//83
f 21//84 12//84 13//84
f 2//85 10//85 12//85
f 20//86 17//87 27//87
f 16//88 39//88 7//88
f 15//89 5//89 1//89
s 1
f 13//90 22//79 21//81
f 17//56 18//91 39//57
s 0
f 22//92 13//92 11//92
s 1
f 5//93 15//47 14//41
f 34//17 28//16 6//1
f 35//13 26//12 5//94
f 26//12 1//95 5//94
s 0
f 35//96 5//96 4//96
f 33//97 34//98 2//97
f 33//99 2//99 21//99
f 19//100 20//100 24//100
f 23//101 24//101 42//101
f 11//102 25//102 42//102
f 30//103 31//103 10//103
s 1
f 22//79 32//104 33//80
