# Blender 5.1.2
# www.blender.org
o Cylinder
v 0.000000 -0.309332 0.000000
v -0.000000 -0.309332 -1.080000
v -0.005927 -0.311130 0.000000
v -0.005927 -0.311130 -1.080000
v -0.009856 -0.315918 0.000000
v -0.009856 -0.315918 -1.080000
v -0.010463 -0.322081 0.000000
v -0.010463 -0.322081 -1.080000
v -0.007543 -0.327543 0.000000
v -0.007543 -0.327543 -1.080000
v -0.002081 -0.330463 0.000000
v -0.002081 -0.330463 -1.080000
v 0.004082 -0.329856 -0.000000
v 0.005927 -0.328870 -1.080000
v 0.008870 -0.325927 -0.000000
v 0.009856 -0.324082 -1.080000
v 0.010463 -0.317919 -0.000000
v 0.010463 -0.317919 -1.080000
v 0.005927 -0.311130 -0.000000
v 0.005927 -0.311130 -1.080000
v -0.000000 -0.300000 -1.105668
v -0.002081 0.300000 -1.105463
v -0.005927 -0.300000 -1.103870
v -0.007543 0.300000 -1.102543
v -0.010463 0.300000 -1.097081
v -0.010463 -0.300000 -1.097081
v -0.009856 -0.300000 -1.090917
v -0.008870 0.300000 -1.089073
v -0.005927 -0.300000 -1.086130
v -0.004082 0.300000 -1.085144
v -0.000000 -0.300000 -1.084332
v 0.002081 0.300000 -1.084537
v 0.007543 -0.300000 -1.087457
v 0.008870 0.300000 -1.089073
v 0.010463 -0.300000 -1.092919
v 0.009856 0.300000 -1.099082
v 0.009856 -0.300000 -1.099082
v 0.005927 0.300000 -1.103870
v 0.005927 -0.300000 -1.103870
v 0.004082 -0.311065 -1.085368
v 0.007543 -0.307129 -1.087504
v 0.009856 -0.314939 -1.089333
v 0.010463 -0.307230 -1.092965
v 0.009856 -0.323711 -1.087517
v 0.009856 -0.318398 -1.097222
v 0.009856 -0.313257 -1.098843
v 0.009856 -0.307344 -1.099128
v 0.008870 -0.323715 -1.094147
v 0.005927 -0.328444 -1.088242
v 0.005927 -0.320916 -1.101294
v 0.005927 -0.314035 -1.103567
v 0.005927 -0.307433 -1.103915
v 0.004082 -0.327160 -1.096037
v -0.000000 -0.330221 -1.088515
v -0.000000 -0.321862 -1.102823
v -0.000000 -0.314328 -1.105341
v -0.000000 -0.307466 -1.105712
v -0.002081 -0.327692 -1.096329
v -0.005927 -0.328444 -1.088242
v -0.005927 -0.320916 -1.101294
v -0.005927 -0.314035 -1.103567
v -0.005927 -0.307433 -1.103915
v -0.008870 -0.323715 -1.094147
v -0.009856 -0.323711 -1.087517
v -0.009856 -0.313257 -1.098843
v -0.010463 -0.317345 -1.095520
v -0.010463 -0.307307 -1.097127
v -0.010463 -0.316694 -1.090295
v -0.010463 -0.312254 -1.092761
v -0.009856 -0.307193 -1.090965
v -0.007543 -0.311905 -1.087668
v -0.005927 -0.307104 -1.086178
v -0.002081 -0.310891 -1.084491
v -0.002081 0.330463 0.000000
v -0.002081 0.330463 -1.080000
v -0.007543 0.327543 0.000000
v -0.007543 0.327543 -1.080000
v -0.010463 0.322081 0.000000
v -0.010463 0.322081 -1.080000
v -0.009856 0.315918 0.000000
v -0.009856 0.315918 -1.080000
v -0.005927 0.311130 0.000000
v -0.005927 0.311130 -1.080000
v 0.000000 0.309332 0.000000
v -0.000000 0.309332 -1.080000
v 0.005927 0.311130 -0.000000
v 0.005927 0.311130 -1.080000
v 0.009856 0.315918 -0.000000
v 0.009856 0.315918 -1.080000
v 0.009856 0.324082 -0.000000
v 0.009856 0.324082 -1.080000
v 0.004082 0.329856 -0.000000
v 0.004082 0.329856 -1.080000
v -0.002081 0.327692 -1.096329
v -0.004082 0.307451 -1.104901
v -0.004082 0.314196 -1.104540
v -0.005927 0.320916 -1.101294
v -0.005927 0.328444 -1.088242
v -0.008870 0.307378 -1.100972
v -0.009856 0.318398 -1.097222
v -0.009856 0.322098 -1.093260
v -0.009856 0.323711 -1.087517
v -0.010463 0.312931 -1.096868
v -0.010668 0.307269 -1.095046
v -0.009856 0.311929 -1.090787
v -0.008870 0.307159 -1.089121
v -0.008870 0.313818 -1.086000
v -0.004082 0.307086 -1.085192
v 0.002081 0.309334 -1.085313
v 0.008870 0.311629 -1.088967
v 0.010463 0.316694 -1.090295
v 0.010668 0.312593 -1.094815
v 0.010463 0.307307 -1.097127
v 0.009856 0.318398 -1.097222
v 0.009856 0.323711 -1.087517
v 0.008870 0.313557 -1.100663
v 0.008870 0.323715 -1.094147
v 0.007543 0.307408 -1.102588
v 0.005927 0.320916 -1.101294
v 0.005927 0.328444 -1.088242
v 0.004082 0.314196 -1.104540
v 0.004082 0.327160 -1.096037
v 0.002081 0.307462 -1.105508
v -0.000000 0.330221 -1.088515
v -0.000000 0.321862 -1.102823
vn -0.0980 0.9952 -0.0000
vn -0.0981 0.9952 -0.0000
vn -0.0983 0.9952 -0.0000
vn -0.6348 0.7727 -0.0000
vn -0.6420 0.7665 0.0182
vn 0.2016 0.0472 0.9783
vn -0.8338 0.5518 -0.0175
vn -0.0899 0.2374 0.9672
vn -0.8294 -0.5540 -0.0716
vn -0.5735 -0.8168 -0.0623
vn -0.3727 -0.9279 -0.0000
vn 0.1500 -0.0906 0.9845
vn 0.2205 -0.9754 -0.0003
vn 0.5349 -0.8426 -0.0623
vn 0.8044 -0.5941 -0.0005
vn 0.9198 0.2534 0.2995
vn 0.9823 0.1871 -0.0011
vn 0.9753 0.1939 -0.1058
vn 0.1122 -0.0482 0.9925
vn 0.1286 0.9917 -0.0000
vn 0.0983 0.9952 -0.0000
vn -0.2689 0.0039 -0.9632
vn -0.4296 0.0052 -0.9030
vn 0.1329 0.0169 -0.9910
vn -0.8091 0.0334 -0.5867
vn -0.9654 -0.0013 0.2607
vn -0.8551 0.0135 0.5183
vn -0.1767 -0.1330 0.9752
vn -0.0511 0.0002 0.9987
vn -0.4744 0.0075 0.8803
vn 0.5222 0.0599 0.8507
vn 0.2566 -0.1640 0.9525
vn 0.8801 -0.0672 0.4700
vn 0.9952 0.0003 0.0978
vn 0.9995 0.0297 -0.0048
vn 0.9952 0.0003 0.0980
vn 0.9992 -0.0010 -0.0400
vn 0.7957 0.0275 -0.6051
vn 0.3378 0.0043 -0.9412
vn -0.7121 -0.0024 0.7021
vn -0.6344 -0.0051 0.7730
vn -0.6326 -0.0025 0.7745
vn -0.7579 0.0001 0.6524
vn -0.9135 -0.3828 -0.1375
vn -0.1740 0.0058 -0.9847
vn 0.7707 0.0039 -0.6372
vn 0.3450 0.0056 -0.9386
vn 0.8264 0.0013 -0.5631
vn 0.9992 0.0162 -0.0373
vn 0.9711 0.0478 0.2338
vn 0.9569 -0.0015 0.2906
vn 0.9571 -0.0666 0.2819
vn 0.1060 -0.0124 0.9943
vn 0.1597 -0.0159 0.9870
vn 0.2903 -0.0065 0.9569
vn -0.3210 0.0094 0.9470
vn 0.2881 0.0246 0.9573
vn 0.2898 0.0237 0.9568
vn 0.2877 0.0250 0.9574
vn 0.2166 0.9756 0.0353
vn 0.6409 0.7635 0.0797
vn 0.4618 0.8870 0.0015
vn 0.7023 0.7111 0.0325
vn 0.7710 0.6362 0.0270
vn 0.9811 -0.0452 0.1882
vn 0.9978 0.0230 -0.0629
vn 0.9960 -0.0241 -0.0857
vn 0.9675 0.1386 0.2117
vn 0.9712 -0.2370 -0.0248
vn 0.9892 -0.1090 0.0984
vn 0.9538 -0.2993 -0.0245
vn 0.8357 -0.0278 -0.5484
vn 0.7654 -0.0323 -0.6428
vn 0.8294 -0.1724 -0.5314
vn 0.7540 -0.2024 -0.6250
vn 0.9799 -0.0904 -0.1777
vn 0.9721 -0.0774 -0.2214
vn 0.8747 -0.3538 -0.3312
vn 0.8813 -0.4719 -0.0235
vn 0.8612 -0.5076 -0.0261
vn 0.8043 -0.5935 -0.0303
vn 0.7896 -0.5860 -0.1820
vn 0.6186 -0.7591 -0.2027
vn 0.3438 -0.0537 -0.9375
vn 0.3434 -0.0503 -0.9378
vn 0.3385 -0.2981 -0.8925
vn 0.3374 -0.2973 -0.8932
vn 0.6734 -0.5418 -0.5030
vn 0.6974 -0.5156 -0.4977
vn 0.4584 -0.6477 -0.6085
vn 0.4693 -0.8819 -0.0460
vn 0.3217 -0.9043 -0.2808
vn 0.0980 -0.9720 -0.2136
vn -0.1805 -0.0530 -0.9822
vn -0.3024 -0.1788 -0.9363
vn -0.1427 -0.3119 -0.9393
vn -0.2262 -0.3079 -0.9241
vn -0.1745 -0.9283 -0.3282
vn -0.1916 -0.9813 0.0165
vn 0.1066 -0.9895 -0.0972
vn -0.4358 -0.8997 -0.0264
vn -0.2553 -0.7361 -0.6269
vn 0.0978 -0.6743 -0.7319
vn -0.5947 -0.6408 -0.4855
vn -0.6302 -0.2414 -0.7380
vn -0.7372 -0.0775 -0.6712
vn -0.7725 -0.6342 -0.0320
vn -0.8253 -0.5628 -0.0468
vn -0.8804 -0.4566 -0.1282
vn -0.9031 -0.4267 -0.0481
vn -0.9803 -0.1961 0.0253
vn -0.9951 -0.0953 -0.0251
vn -0.8820 0.2913 0.3705
vn -0.9780 0.2078 0.0171
vn -0.9165 0.3771 0.1335
vn -0.5131 0.8029 0.3035
vn -0.5254 0.0402 0.8499
vn -0.6932 0.7189 -0.0517
vn -0.6235 0.7779 0.0777
vn -0.7230 0.2211 0.6545
vn 0.0963 0.9954 0.0001
vn -0.2999 0.9538 0.0182
vn 0.2687 0.1185 0.9559
vn -0.4730 0.8811 -0.0000
vn -0.1406 0.6758 0.7235
vn -0.8766 0.4812 0.0083
vn -0.9702 -0.2217 -0.0982
vn -0.1614 -0.9869 -0.0000
vn 0.0711 -0.0844 0.9939
vn 0.1716 -0.9832 -0.0624
vn 0.3926 -0.9197 -0.0000
vn 0.8733 -0.4864 0.0287
vn 0.8374 -0.5466 -0.0000
vn 0.1475 0.1593 0.9761
vn 0.9988 -0.0211 -0.0434
vn 0.9822 -0.1738 0.0713
vn 0.8332 0.5465 -0.0849
vn 0.7601 0.6498 -0.0068
vn 0.6612 0.7502 -0.0001
vn 0.7213 0.6865 -0.0920
vn 0.6933 0.7197 -0.0366
vn 0.4692 0.8819 -0.0460
vn 0.9854 0.1690 -0.0217
vn 0.8808 0.4728 -0.0238
vn 0.9985 0.0392 0.0389
vn 0.9888 -0.1062 -0.1046
vn 0.7144 -0.6962 -0.0706
vn 0.9190 -0.2505 0.3044
vn 0.1675 -0.9838 -0.0632
vn 0.2565 -0.7013 0.6651
vn -0.4222 -0.8986 -0.1197
vn -0.9822 -0.1849 0.0327
vn -0.6157 -0.3739 0.6936
vn -0.7052 0.7083 0.0304
vn -0.9995 0.0292 0.0086
vn -0.4734 0.8782 -0.0686
vn 0.0932 0.9929 -0.0740
vn -0.2495 0.9677 -0.0372
vn -0.0010 -0.0154 -0.9999
vn -0.5854 -0.2126 -0.7824
vn 0.0183 0.0419 -0.9990
vn -0.6391 -0.0177 -0.7689
vn -0.3124 0.9286 -0.2003
vn -0.9066 0.3671 0.2081
vn -0.9897 -0.1343 -0.0490
vn -0.4215 0.4121 -0.8078
vn -0.6533 0.4386 -0.6171
vn -0.2649 0.5747 -0.7743
vn -0.7925 0.0835 -0.6041
vn -0.5563 -0.0145 -0.8309
vn -0.8836 0.0356 0.4668
vn -0.8575 -0.0908 0.5065
vn -0.8886 0.1013 -0.4474
vn 0.9758 0.0142 0.2180
vn 0.9948 -0.0747 0.0690
vn 0.9996 -0.0242 0.0108
vn 0.9948 -0.0284 0.0977
vn 0.9530 0.2986 -0.0503
vn 0.9951 0.0046 -0.0986
vn 0.9999 0.0162 0.0058
vn 0.9569 -0.0018 -0.2903
vn 0.9814 0.1140 -0.1542
vn 0.9797 0.1368 -0.1468
vn 0.8747 0.3538 -0.3312
vn 0.9752 0.0629 -0.2121
vn 0.9784 0.0689 -0.1948
vn 0.8759 0.1481 -0.4592
vn 0.7899 0.5869 -0.1776
vn 0.6187 0.7590 -0.2028
vn 0.9128 0.0164 -0.4081
vn 0.9211 0.0266 -0.3885
vn 0.7709 0.0328 -0.6361
vn 0.8137 -0.0074 -0.5813
vn 0.4697 -0.0059 -0.8828
vn 0.6970 0.5157 -0.4982
vn 0.6734 0.5418 -0.5031
vn 0.4585 0.6477 -0.6085
vn 0.6801 0.2241 -0.6980
vn 0.6216 0.3055 -0.7213
vn 0.2821 0.3015 -0.9108
vn 0.3214 0.9043 -0.2809
vn 0.0857 0.9892 -0.1188
vn 0.4521 0.0343 -0.8913
vn -0.1115 0.9937 0.0116
vn -0.4713 0.8820 -0.0000
vn 0.9182 -0.3962 0.0017
vn -0.4712 -0.0060 0.8820
vn -0.0000 -0.0000 1.0000
vn 0.9142 -0.0060 0.4052
vn 0.2897 0.9558 -0.0499
vn 0.1614 0.9857 -0.0477
vn 0.0980 0.9945 0.0378
vn 0.6410 0.7634 0.0797
vn 0.7730 0.6260 0.1031
vn 0.7729 0.6260 0.1031
vn 0.7729 0.6261 0.1032
vn 0.8817 0.4713 0.0200
vn 0.9949 -0.0742 -0.0686
vn 0.8816 -0.4714 -0.0233
vn 0.7628 -0.4721 -0.4419
vn 0.1569 -0.7222 -0.6736
vn 0.2817 -0.6994 -0.6569
vn 0.1761 -0.9830 -0.0513
vn 0.2899 -0.9558 -0.0499
vn -0.7640 -0.2006 -0.6133
vn -0.9732 0.1446 -0.1787
vn -0.9810 -0.1904 -0.0383
vn -0.8808 -0.4728 -0.0238
vn -0.9538 0.2220 0.2026
vn -0.8807 0.4732 0.0209
vn 0.7724 0.6343 -0.0320
vn -0.9951 -0.0985 0.0046
vn -0.4714 -0.0053 -0.8819
vn -0.2644 0.6624 -0.7010
vn -0.2410 0.3269 -0.9138
vn -0.8819 -0.0028 -0.4715
vn -0.6059 0.0204 0.7953
vn 0.9949 0.0743 -0.0686
vn 0.9951 0.0276 -0.0949
vn 0.9569 0.0133 -0.2901
vn 0.7629 0.4720 -0.4418
vn 0.7698 0.1956 -0.6076
vn 0.6341 0.0398 -0.7723
vn 0.4971 0.0216 -0.8674
vn 0.2816 0.6994 -0.6569
vn 0.1568 0.7222 -0.6737
vt 1.000000 1.000000
vt 0.968750 0.500000
vt 1.000000 0.500000
vt 0.906250 1.000000
vt 0.875000 0.500000
vt 0.906250 0.500000
vt 0.812500 1.000000
vt 0.781250 0.500000
vt 0.812500 0.500000
vt 0.656250 1.000000
vt 0.625000 0.500000
vt 0.656250 0.500000
vt 0.562500 1.000000
vt 0.531250 0.500000
vt 0.562500 0.500000
vt 0.468750 1.000000
vt 0.437500 0.500000
vt 0.468750 0.500000
vt 0.375000 1.000000
vt 0.343750 0.500000
vt 0.375000 0.500000
vt 0.281250 1.000000
vt 0.250000 0.500000
vt 0.281250 0.500000
vt 0.187500 1.000000
vt 0.156250 0.500000
vt 0.187500 0.500000
vt 0.031250 1.000000
vt 0.000000 0.500000
vt 0.031250 0.500000
vt 0.796822 0.014612
vt 0.514612 0.203178
vt 0.703178 0.485388
vt 0.968750 1.000000
vt 0.937500 0.500000
vt 0.875000 1.000000
vt 0.843750 0.500000
vt 0.718750 1.000000
vt 0.687500 0.500000
vt 0.718750 0.500000
vt 0.593750 1.000000
vt 0.593750 0.500000
vt 0.500000 1.000000
vt 0.500000 0.500000
vt 0.437500 1.000000
vt 0.406250 0.500000
vt 0.062500 1.000000
vt 0.062500 0.500000
vt 0.625000 1.000000
vt 0.645833 1.000000
vt 0.708333 1.000000
vt 0.687500 1.000000
vt 0.843750 1.000000
vt 0.895833 1.000000
vt 0.145833 1.000000
vt 0.125000 1.000000
vt 0.156250 1.000000
vt 0.208333 1.000000
vt 0.250000 1.000000
vt 0.270833 1.000000
vt 0.291667 1.000000
vt 0.395833 1.000000
vt 0.416667 1.000000
vt 0.531250 1.000000
vt 0.583333 1.000000
vt 0.322917 1.000000
vt 0.312500 1.000000
vt 0.104167 1.000000
vt 0.166667 1.000000
vt 0.260417 1.000000
vt 0.229167 1.000000
vt 0.218750 1.000000
vt 0.343750 1.000000
vt 0.333333 1.000000
vt 0.197917 1.000000
vt 0.354167 1.000000
vt 0.916667 1.000000
vt 0.822917 1.000000
vt 0.833333 1.000000
vt 0.750000 1.000000
vt 0.677083 1.000000
vt 0.604167 1.000000
vt 0.697917 1.000000
vt 0.802083 1.000000
vt 0.791667 1.000000
vt 0.781250 1.000000
vt 0.729167 1.000000
vt 0.666667 1.000000
vt 0.854167 1.000000
vt 0.937500 1.000000
vt 0.750000 0.500000
vt 0.312500 0.500000
vt 0.218750 0.500000
vt 0.125000 0.500000
vt 0.093750 0.916667
vt 0.062500 0.916667
vt 0.187500 0.916667
vt 0.156250 0.916667
vt 0.250000 0.916667
vt 0.218750 0.916667
vt 0.312500 0.916667
vt 0.281250 0.916667
vt 0.406250 1.000000
vt 0.437500 0.916667
vt 0.406250 0.916667
vt 0.500000 0.916667
vt 0.468750 0.916667
vt 0.656250 0.916667
vt 0.750000 0.916667
vt 0.843750 0.916667
vt 0.937500 0.916667
vt 0.937500 0.583333
vt 0.906250 0.666667
vt 0.906250 0.583333
vt 0.906250 0.916667
vt 0.875000 0.833333
vt 0.875000 0.916667
vt 0.906250 0.833333
vt 0.875000 0.750000
vt 0.843750 0.750000
vt 0.875000 0.666667
vt 0.843750 0.666667
vt 0.843750 0.583333
vt 0.812500 0.666667
vt 0.812500 0.583333
vt 0.718750 0.833333
vt 0.718750 0.916667
vt 0.687500 0.583333
vt 0.562500 0.583333
vt 0.500000 0.583333
vt 0.468750 0.583333
vt 0.406250 0.583333
vt 0.375000 0.583333
vt 0.312500 0.583333
vt 0.281250 0.583333
vt 0.250000 0.833333
vt 0.281250 0.750000
vt 0.250000 0.750000
vt 0.250000 0.666667
vt 0.281250 0.666667
vt 0.250000 0.583333
vt 0.218750 0.833333
vt 0.218750 0.583333
vt 0.218750 0.666667
vt 0.187500 0.583333
vt 0.156250 0.833333
vt 0.187500 0.750000
vt 0.156250 0.750000
vt 0.156250 0.666667
vt 0.125000 0.916667
vt 0.125000 0.833333
vt 0.125000 0.583333
vt 0.125000 0.666667
vt 0.093750 0.500000
vt 0.093750 0.583333
vt 0.062500 0.833333
vt 0.093750 0.750000
vt 0.062500 0.750000
vt 0.062500 0.666667
vt 0.031250 0.916667
vt 0.031250 0.833333
vt 0.031250 0.666667
vt 0.000000 0.583333
vt 0.000000 0.666667
vt 0.031250 0.583333
vt 1.000000 0.916667
vt 0.968750 0.833333
vt 0.968750 0.916667
vt 0.000000 1.000000
vt 0.750000 0.490000
vt 0.796822 0.485388
vt 0.883337 0.449553
vt 0.949553 0.383337
vt 0.985388 0.296822
vt 0.949553 0.116663
vt 0.883337 0.050447
vt 0.514612 0.296822
vt 0.550447 0.383337
vt 0.616663 0.050447
vt 0.093750 1.000000
vt 0.083333 1.000000
vt 0.302083 1.000000
vt 0.770833 1.000000
vt 0.760417 1.000000
vt 0.739583 1.000000
vt 0.703178 0.014612
vt 0.616663 0.449553
vt 0.343750 0.916667
vt 0.593750 0.916667
vt 0.562500 0.916667
vt 0.906250 0.750000
vt 0.875000 0.583333
vt 0.812500 0.833333
vt 0.812500 0.750000
vt 0.781250 0.750000
vt 0.750000 0.833333
vt 0.750000 0.750000
vt 0.718750 0.750000
vt 0.687500 0.666667
vt 0.718750 0.666667
vt 0.718750 0.583333
vt 0.656250 0.666667
vt 0.656250 0.583333
vt 0.593750 0.750000
vt 0.625000 0.750000
vt 0.625000 0.666667
vt 0.562500 0.666667
vt 0.593750 0.666667
vt 0.593750 0.583333
vt 0.437500 0.583333
vt 0.187500 0.833333
vt 0.093750 0.833333
vt 0.062500 0.583333
vt 0.031250 0.750000
vt 1.000000 0.833333
vt 1.000000 0.750000
vt 0.968750 0.750000
vt 1.000000 0.666667
s 1
f 2/1/1 3/2/2 1/3/3
f 4/4/4 5/5/5 3/6/6
f 6/7/7 7/8/8 5/9/5
f 8/10/9 9/11/10 7/12/8
f 10/13/11 11/14/12 9/15/10
f 12/16/13 13/17/14 11/18/12
f 14/19/15 15/20/16 13/21/14
f 18/22/17 17/23/18 15/24/16
f 18/25/17 19/26/19 17/27/18
f 20/28/20 1/29/21 19/30/19
f 11/31/12 15/32/16 19/33/19
f 23/34/22 24/35/23 22/2/24
f 23/36/22 25/37/25 24/5/23
f 26/38/26 28/39/27 25/40/25
f 29/41/28 30/15/29 28/42/30
f 31/43/31 32/18/32 30/44/29
f 31/45/31 34/46/33 32/17/32
f 35/22/34 36/23/35 34/24/36
f 37/25/37 38/26/38 36/27/35
f 21/47/39 22/30/24 38/48/38
f 27/49/40 72/50/41 29/41/42
f 26/38/26 70/51/43 27/52/40
f 23/36/22 67/7/44 26/53/26
f 21/1/39 62/54/45 23/34/22
f 21/47/39 52/55/46 57/56/47
f 39/57/48 47/58/49 52/25/46
f 37/59/37 43/60/50 47/59/49
f 35/22/51 41/61/52 43/60/50
f 31/45/53 40/62/54 41/19/55
f 31/16/53 73/63/56 40/62/54
f 29/64/28 73/65/56 31/43/53
f 41/19/57 73/66/58 40/67/59
f 73/68/60 20/47/61 41/56/62
f 41/55/62 20/56/61 40/69/63
f 40/69/63 20/57/61 42/25/64
f 47/59/49 42/70/65 46/59/66
f 46/59/66 42/59/65 45/59/67
f 42/71/68 18/59/69 44/59/70
f 42/59/68 44/60/70 48/70/71
f 52/25/72 46/71/66 51/72/73
f 51/72/74 45/59/67 50/59/75
f 45/59/76 48/22/77 50/59/78
f 44/61/79 14/73/80 49/67/81
f 48/22/71 49/74/82 53/61/83
f 57/56/84 51/75/73 56/25/85
f 56/25/86 50/59/75 55/59/87
f 50/59/88 53/67/89 55/59/90
f 49/76/81 14/45/80 54/19/91
f 53/67/83 54/62/92 58/66/93
f 57/77/84 61/78/94 62/54/95
f 56/79/86 60/80/96 61/78/97
f 58/81/93 54/65/92 59/82/98
f 59/49/99 12/64/100 10/13/101
f 60/80/102 58/52/103 63/83/104
f 61/84/97 60/80/96 65/85/105
f 62/79/95 65/86/106 67/7/44
f 59/52/99 10/49/101 8/10/107
f 63/87/108 59/52/98 64/51/109
f 66/80/110 64/87/111 68/80/112
f 67/87/44 69/87/113 70/51/43
f 68/85/114 8/86/9 6/7/7
f 69/86/113 68/85/115 71/7/116
f 70/88/43 71/83/116 72/50/117
f 71/89/116 6/36/118 4/4/119
f 72/50/117 71/52/116 73/49/120
f 71/36/116 4/4/119 73/90/120
f 75/34/121 76/35/122 74/2/123
f 77/36/124 78/37/125 76/5/122
f 79/86/126 80/91/127 78/8/125
f 83/49/128 82/42/129 80/11/127
f 83/64/128 84/44/130 82/14/129
f 85/45/131 86/46/132 84/17/130
f 87/73/133 88/92/134 86/20/132
f 89/59/135 90/93/136 88/23/134
f 91/57/137 92/94/138 90/26/136
f 93/47/139 74/30/123 92/48/138
f 82/31/129 88/32/134 74/33/123
f 93/47/140 120/95/141 124/96/142
f 91/57/137 115/97/143 120/98/144
f 91/72/137 111/99/145 115/100/143
f 89/22/135 110/101/146 111/102/145
f 87/103/147 109/104/148 110/105/146
f 85/16/149 108/106/150 109/107/148
f 83/64/151 108/106/150 85/43/149
f 81/52/152 107/108/153 83/10/151
f 79/86/126 102/109/154 81/80/155
f 77/36/156 102/110/154 79/53/126
f 75/34/157 98/111/158 77/90/156
f 95/112/159 22/2/24 24/35/23
f 96/113/160 95/112/161 99/114/162
f 98/115/163 101/116/164 102/117/165
f 94/118/166 100/119/167 101/116/164
f 100/120/167 96/121/168 103/122/169
f 99/123/170 24/5/23 25/37/25
f 103/124/169 99/123/162 104/125/171
f 102/109/165 105/126/172 107/127/153
f 104/128/173 25/40/25 28/39/27
f 108/129/150 28/42/30 30/15/29
f 108/130/150 32/18/32 109/131/148
f 109/132/148 34/21/33 110/133/146
f 110/134/146 34/24/33 113/135/174
f 111/136/145 110/137/146 114/138/175
f 110/137/146 112/139/176 114/138/177
f 110/140/146 113/141/174 112/139/176
f 115/100/143 111/136/145 117/142/178
f 112/139/176 113/143/174 116/144/179
f 113/143/180 36/27/35 118/145/181
f 117/146/182 114/147/183 119/148/184
f 114/147/185 116/149/186 119/148/187
f 120/150/188 117/146/178 122/151/189
f 116/149/190 118/152/191 121/153/192
f 118/152/193 38/154/38 123/155/194
f 122/156/195 119/157/196 125/158/197
f 119/157/198 121/159/199 125/158/200
f 124/160/201 122/156/189 94/161/202
f 121/162/203 95/163/161 96/164/160
f 123/165/194 22/29/24 95/163/159
f 124/166/201 94/167/202 98/168/163
f 2/1/1 73/34/204 3/2/2
f 73/90/204 4/4/205 3/6/2
f 4/4/4 6/36/7 5/5/5
f 6/7/7 8/86/9 7/8/8
f 8/10/9 10/49/11 9/11/10
f 10/13/11 12/64/13 11/14/12
f 12/16/13 14/45/15 13/17/14
f 14/73/15 16/67/206 15/92/16
f 16/67/206 18/22/69 15/24/16
f 18/25/17 20/57/20 19/26/19
f 29/41/28 72/50/207 73/49/56
f 20/28/20 2/169/21 1/29/21
f 19/33/19 1/170/208 3/171/6
f 3/172/6 5/173/5 7/174/8
f 7/175/8 9/176/10 11/31/12
f 15/32/16 17/177/18 19/178/19
f 19/33/19 3/172/6 7/174/8
f 11/31/12 13/179/14 15/32/16
f 19/33/19 7/174/8 11/31/12
f 21/1/39 23/34/22 22/2/24
f 23/36/22 26/53/26 25/37/25
f 26/38/26 27/52/40 28/39/27
f 27/49/40 29/41/42 28/42/27
f 29/64/28 31/43/53 30/44/29
f 31/45/31 33/103/209 34/46/33
f 33/67/209 35/22/51 34/24/33
f 35/22/34 37/59/37 36/23/35
f 37/25/37 39/57/48 38/26/38
f 39/180/48 21/47/39 38/48/38
f 75/28/157 93/47/210 124/96/211
f 27/49/40 70/88/43 72/50/41
f 26/38/26 67/87/44 70/51/43
f 23/36/22 62/79/45 67/7/44
f 21/1/39 57/77/47 62/54/45
f 21/47/39 39/180/48 52/55/46
f 39/57/48 37/25/37 47/58/49
f 37/59/37 35/22/34 43/60/50
f 35/22/51 33/67/209 41/61/52
f 33/103/209 31/45/31 41/19/52
f 73/181/60 2/169/212 20/28/213
f 41/58/214 40/69/215 42/25/216
f 42/25/68 20/57/217 18/25/69
f 43/60/50 41/61/52 42/60/65
f 47/59/49 43/60/50 42/70/65
f 45/59/76 42/59/218 48/70/77
f 44/60/70 18/22/69 16/67/206
f 52/25/72 47/58/49 46/71/66
f 51/72/74 46/71/66 45/59/67
f 48/60/71 44/61/70 49/67/82
f 44/61/79 16/67/219 14/73/80
f 50/59/88 48/22/220 53/61/89
f 57/56/84 52/55/72 51/75/73
f 56/25/86 51/75/74 50/59/75
f 53/182/83 49/76/82 54/19/92
f 55/59/221 53/67/222 58/66/103
f 54/19/223 14/45/224 12/16/100
f 57/77/84 56/79/85 61/78/94
f 56/79/86 55/80/87 60/80/96
f 60/80/102 55/80/221 58/88/103
f 59/82/99 54/65/223 12/43/100
f 63/83/108 58/52/93 59/49/98
f 62/89/95 61/84/94 65/85/106
f 65/85/106 60/80/225 66/80/226
f 66/80/110 60/80/102 63/51/104
f 64/51/227 59/52/228 8/10/9
f 67/85/44 65/183/106 66/184/226
f 66/185/110 63/87/104 64/51/111
f 68/80/114 64/87/227 8/38/9
f 67/80/44 66/80/226 69/185/113
f 69/80/113 66/80/229 68/184/115
f 71/7/116 68/85/230 6/7/118
f 70/52/43 69/38/113 71/51/116
f 75/34/121 77/90/124 76/35/122
f 77/36/124 79/53/126 78/37/125
f 79/86/126 81/80/155 80/91/127
f 81/52/155 83/10/128 80/12/127
f 83/64/128 85/43/131 84/44/130
f 85/45/131 87/103/133 86/46/132
f 87/73/133 89/67/135 88/92/134
f 89/59/135 91/72/137 90/93/136
f 91/57/137 93/56/139 92/94/138
f 93/47/139 75/28/121 74/30/123
f 82/31/129 84/186/130 86/179/132
f 90/178/136 92/187/138 74/33/123
f 74/33/123 76/172/122 78/174/125
f 78/174/125 80/175/127 82/31/129
f 82/31/129 86/179/132 88/32/134
f 88/32/134 90/178/136 74/33/123
f 74/33/123 78/174/125 82/31/129
f 93/56/140 91/57/231 120/98/141
f 91/72/137 89/59/135 111/99/145
f 89/67/135 87/73/147 110/188/146
f 87/103/147 85/45/149 109/104/148
f 83/41/151 107/189/153 108/190/150
f 81/80/152 102/109/232 107/127/153
f 77/4/156 98/115/158 102/117/154
f 75/1/157 124/166/211 98/168/158
f 99/114/170 95/112/233 24/35/23
f 98/115/163 94/118/202 101/116/164
f 94/118/166 97/191/234 100/119/167
f 100/119/167 97/191/235 96/113/168
f 103/122/169 96/121/160 99/192/162
f 104/125/173 99/123/236 25/37/25
f 101/193/164 100/194/167 103/195/169
f 102/109/165 101/196/164 105/126/172
f 101/196/164 103/197/169 105/198/172
f 105/199/172 103/200/169 104/201/171
f 106/202/237 105/199/172 104/128/171
f 106/203/237 104/128/171 28/39/30
f 107/204/153 105/205/172 106/206/237
f 108/207/150 107/208/153 106/209/237
f 108/129/150 106/209/237 28/42/30
f 108/130/150 30/44/29 32/18/32
f 109/210/148 32/17/32 34/46/33
f 113/135/180 34/24/36 36/23/35
f 117/142/182 111/136/238 114/138/183
f 114/138/185 112/139/239 116/144/186
f 116/144/190 113/143/240 118/145/191
f 120/98/188 115/97/143 117/211/178
f 118/145/193 36/27/35 38/26/38
f 122/151/195 117/146/241 119/148/196
f 119/148/198 116/149/242 121/153/199
f 121/153/203 118/152/243 123/155/244
f 124/96/201 120/95/188 122/212/189
f 94/161/166 122/156/245 125/158/246
f 123/213/194 38/48/38 22/30/24
f 125/214/200 121/162/199 96/164/168
f 121/162/203 123/165/244 95/163/161
f 94/215/166 125/216/246 97/217/234
f 97/217/235 125/216/200 96/218/168
o Cylinder.001
v -0.000000 -0.309332 -0.375000
v -0.000000 -0.311130 -0.369073
v -0.320000 -0.311130 -0.369073
v -0.320000 -0.315918 -0.365144
v -0.000000 -0.320000 -0.364332
v -0.320000 -0.322081 -0.364537
v -0.000000 -0.325927 -0.366130
v -0.320000 -0.329856 -0.370918
v -0.000000 -0.330463 -0.372919
v -0.000000 -0.329856 -0.379082
v -0.320000 -0.329856 -0.379082
v -0.000000 -0.325927 -0.383870
v -0.320000 -0.325927 -0.383870
v -0.320000 -0.320000 -0.385668
v -0.000000 -0.315918 -0.384856
v -0.320000 -0.312457 -0.382543
v -0.000000 -0.311130 -0.380927
v -0.320000 -0.309537 -0.377081
vn -0.9966 0.0804 -0.0154
vn -0.0127 0.4556 0.8901
vn -0.0075 0.9272 0.3746
vn 0.0349 0.6241 0.7806
vn 0.8821 0.4538 0.1263
vn -0.9144 0.3361 0.2257
vn -0.1147 -0.5701 0.8135
vn 0.0947 -0.9333 0.3465
vn 0.9979 -0.0405 0.0512
vn -0.0789 -0.9954 -0.0535
vn -0.9530 0.0460 -0.2994
vn -0.1108 -0.4824 -0.8689
vn -0.9545 -0.2828 -0.0947
vn -0.0906 0.5285 -0.8441
vn -0.1427 0.9761 -0.1640
vn 0.9700 0.1813 0.1617
vn 0.0560 0.9967 0.0586
vn -0.0000 -0.6345 -0.7729
vn -1.0000 -0.0000 -0.0000
vt 0.937500 1.000000
vt 0.906250 0.500000
vt 0.937500 0.500000
vt 0.843750 1.000000
vt 0.812500 0.500000
vt 0.843750 0.500000
vt 0.750000 1.000000
vt 0.718750 0.500000
vt 0.750000 0.500000
vt 0.593750 1.000000
vt 0.562500 0.500000
vt 0.593750 0.500000
vt 0.531250 1.000000
vt 0.500000 0.500000
vt 0.531250 0.500000
vt 0.375000 1.000000
vt 0.343750 0.500000
vt 0.375000 0.500000
vt 0.281250 1.000000
vt 0.250000 0.500000
vt 0.281250 0.500000
vt 0.125000 1.000000
vt 0.093750 0.500000
vt 0.125000 0.500000
vt 0.158156 0.028269
vt 0.471731 0.158156
vt 0.341844 0.471731
vt 0.031250 1.000000
vt 0.000000 0.500000
vt 0.031250 0.500000
vt 0.796822 0.014612
vt 0.514612 0.203178
vt 0.703178 0.485388
vt 0.968750 1.000000
vt 0.906250 1.000000
vt 0.875000 1.000000
vt 0.875000 0.500000
vt 0.812500 1.000000
vt 0.781250 1.000000
vt 0.781250 0.500000
vt 0.656250 1.000000
vt 0.625000 1.000000
vt 0.625000 0.500000
vt 0.500000 1.000000
vt 0.343750 1.000000
vt 0.312500 1.000000
vt 0.312500 0.500000
vt 0.187500 1.000000
vt 0.156250 1.000000
vt 0.156250 0.500000
vt 0.028269 0.158156
vt 0.050447 0.116663
vt 0.080294 0.080294
vt 0.250000 0.490000
vt 0.158156 0.471731
vt 0.028269 0.341844
vt 0.341844 0.028269
vt 0.471731 0.341844
vt 0.062500 1.000000
vt 0.796822 0.485388
vt 0.883337 0.449553
vt 0.985388 0.296822
vt 0.949553 0.116663
vt 0.616663 0.050447
vt 0.550447 0.383337
s 1
f 128/219/247 127/220/248 126/221/249
f 129/222/250 130/223/251 127/224/248
f 131/225/252 132/226/253 130/227/251
f 133/228/254 134/229/255 132/230/253
f 133/231/254 135/232/256 134/233/255
f 136/234/257 137/235/258 135/236/256
f 139/237/259 140/238/260 137/239/258
f 141/240/261 142/241/262 140/242/260
f 136/243/257 131/244/252 128/245/247
f 143/246/263 126/247/249 142/248/262
f 134/249/255 137/250/258 142/251/262
f 143/252/263 128/219/247 126/221/249
f 128/253/247 129/254/250 127/255/248
f 129/256/250 131/257/252 130/258/251
f 131/259/252 133/260/254 132/261/253
f 133/231/254 136/262/257 135/232/256
f 136/234/257 138/263/264 137/235/258
f 138/263/264 139/264/259 137/265/258
f 139/266/259 141/267/261 140/268/260
f 139/269/259 138/270/265 136/271/257
f 128/245/247 143/272/263 141/273/261
f 128/245/247 141/273/261 139/274/259
f 136/243/257 133/275/254 131/244/252
f 131/244/252 129/276/250 128/245/247
f 128/245/247 139/274/259 136/243/257
f 141/277/261 143/246/263 142/248/262
f 142/251/262 126/278/249 127/279/248
f 142/251/262 127/279/248 130/280/251
f 130/280/251 132/281/253 134/249/255
f 134/249/255 135/282/256 137/250/258
f 137/250/258 140/283/260 142/251/262
f 142/251/262 130/280/251 134/249/255
o Cylinder.002
v -0.320000 0.325927 -0.383870
v -0.020000 0.328870 -0.380927
v -0.320000 0.330463 -0.372919
v -0.020000 0.330463 -0.372919
v -0.320000 0.320000 -0.364332
v -0.320000 0.310144 -0.370918
v -0.020000 0.310144 -0.379082
v -0.320000 0.312457 -0.382543
v -0.020000 0.314073 -0.383870
v -0.320000 0.317919 -0.385463
v -0.020000 0.323023 -0.382298
v -0.320000 0.327298 -0.378023
v -0.320000 0.324389 -0.368432
v -0.020000 0.324389 -0.368432
v -0.020000 0.318459 -0.367252
v -0.320000 0.315611 -0.368432
v -0.020000 0.313432 -0.370611
v -0.320000 0.312252 -0.376541
vn -0.0130 -0.0350 -0.9993
vn -0.0043 0.1230 -0.9924
vn -0.0000 0.2902 -0.9570
vn -0.0000 0.8820 -0.4713
vn 0.0742 -0.4488 -0.8905
vn 0.0787 -0.9014 0.4258
vn -0.0000 0.9952 0.0983
vn -0.7307 0.5603 0.3901
vn 0.0535 0.8400 0.5399
vn -0.8215 0.5697 -0.0249
vn -0.0000 0.8228 0.5684
vn 0.0001 0.8655 0.5010
vn -0.0000 0.4714 0.8819
vn -0.0000 -0.0980 0.9952
vn -0.2388 -0.9681 -0.0763
vn 0.2533 0.0159 -0.9673
vn -0.0887 -0.9206 0.3803
vn -0.7481 -0.6636 0.0042
vn 0.1305 -0.9152 0.3813
vn -0.7491 -0.4723 0.4645
vn 0.0016 -0.8234 -0.5675
vn 0.0138 -0.9725 -0.2323
vn 0.0041 -0.5107 -0.8597
vn -0.2184 -0.4269 -0.8775
vn -0.3023 -0.8756 0.3768
vn -0.0000 -0.9568 -0.2906
vn -0.0916 0.0404 -0.9950
vn -0.0000 0.7728 -0.6346
vn 0.1808 -0.5807 -0.7938
vn -0.0000 0.9952 -0.0981
vn -0.0000 0.8819 0.4714
vn -0.0000 0.0980 0.9952
vn 0.0669 0.9973 -0.0308
vn -0.0000 -0.4713 0.8820
vn -0.0000 -0.9952 0.0983
vt 0.968750 1.000000
vt 0.968750 0.500000
vt 0.937500 0.500000
vt 0.843750 1.000000
vt 0.843750 0.500000
vt 0.812500 0.500000
vt 0.750000 1.000000
vt 0.750000 0.500000
vt 0.718750 0.500000
vt 0.687500 1.000000
vt 0.687500 0.500000
vt 0.656250 0.500000
vt 0.593750 1.000000
vt 0.593750 0.500000
vt 0.562500 0.500000
vt 0.500000 1.000000
vt 0.500000 0.500000
vt 0.468750 0.500000
vt 0.343750 1.000000
vt 0.343750 0.500000
vt 0.312500 0.500000
vt 0.312500 1.000000
vt 0.281250 0.500000
vt 0.218750 1.000000
vt 0.218750 0.500000
vt 0.187500 0.500000
vt 0.062500 1.000000
vt 0.062500 0.500000
vt 0.031250 0.500000
vt 0.718750 1.000000
vt 0.531250 0.500000
vt 0.531250 1.000000
vt 0.875000 1.000000
vt 0.781250 1.000000
vt 0.656250 1.000000
vt 0.437500 1.000000
vt 0.406250 0.500000
vt 0.406250 1.000000
vt 0.281250 1.000000
vt 0.250000 0.500000
vt 0.250000 1.000000
vt 0.125000 1.000000
vt 0.093750 0.500000
vt 0.093750 1.000000
vt 0.031250 1.000000
vt 0.000000 0.500000
vt 0.000000 1.000000
vt 0.812500 1.000000
vt 0.468750 1.000000
s 1
f 154/284/266 153/285/267 144/286/268
f 145/287/269 144/288/270 155/289/271
f 147/290/272 155/291/273 146/292/274
f 147/293/272 146/294/274 156/295/275
f 157/296/276 156/297/277 148/298/278
f 158/299/279 148/300/280 159/301/281
f 160/302/282 159/303/283 149/304/284
f 160/305/282 149/304/284 161/306/285
f 150/307/286 161/308/287 151/309/288
f 152/310/289 151/311/288 153/312/267
f 155/289/271 144/288/270 154/287/290
f 156/294/291 155/292/291 147/313/291
f 159/300/281 148/314/280 157/315/292
f 161/304/269 159/303/269 160/302/269
f 154/316/290 144/288/293 145/287/294
f 145/317/295 155/291/295 147/290/295
f 147/293/296 156/295/277 157/318/276
f 157/315/292 148/300/297 158/299/298
f 158/319/299 159/320/299 160/321/299
f 160/322/300 161/323/287 150/324/286
f 150/325/286 151/326/288 152/327/289
f 152/328/289 153/329/267 154/330/266
f 155/289/271 154/287/290 145/331/294
f 159/301/281 157/299/292 158/332/298
f 146/294/274 155/292/273 156/294/275
f 149/304/284 159/303/283 161/304/285
o Cylinder.003
v -0.000000 0.330668 -0.375000
v -0.000000 0.328870 -0.369073
v -0.320000 0.328870 -0.369073
v -0.320000 0.324082 -0.365144
v -0.000000 0.320000 -0.364332
v -0.320000 0.317919 -0.364537
v -0.000000 0.314073 -0.366130
v -0.320000 0.310144 -0.370918
v -0.000000 0.309537 -0.372919
v -0.000000 0.310144 -0.379082
v -0.320000 0.310144 -0.379082
v -0.000000 0.314073 -0.383870
v -0.320000 0.314073 -0.383870
v -0.320000 0.320000 -0.385668
v -0.000000 0.324082 -0.384856
v -0.320000 0.327543 -0.382543
v -0.000000 0.328870 -0.380927
v -0.320000 0.330463 -0.377081
vn -0.9966 0.0804 -0.0154
vn -0.0127 0.4556 0.8901
vn -0.0075 0.9272 0.3746
vn 0.0349 0.6241 0.7806
vn 0.8821 0.4538 0.1263
vn -0.9143 0.3362 0.2258
vn -0.1147 -0.5701 0.8135
vn 0.0947 -0.9333 0.3465
vn 0.9979 -0.0405 0.0512
vn -0.0789 -0.9954 -0.0535
vn -0.9530 0.0460 -0.2994
vn -0.1108 -0.4809 -0.8697
vn -0.9545 -0.2828 -0.0947
vn -0.0906 0.5285 -0.8441
vn -0.1427 0.9761 -0.1640
vn 0.9700 0.1813 0.1617
vn 0.0560 0.9967 0.0586
vn 0.0001 -0.6345 -0.7729
vn -1.0000 -0.0000 -0.0000
vt 0.937500 1.000000
vt 0.906250 0.500000
vt 0.937500 0.500000
vt 0.843750 1.000000
vt 0.812500 0.500000
vt 0.843750 0.500000
vt 0.750000 1.000000
vt 0.718750 0.500000
vt 0.750000 0.500000
vt 0.593750 1.000000
vt 0.562500 0.500000
vt 0.593750 0.500000
vt 0.531250 1.000000
vt 0.500000 0.500000
vt 0.531250 0.500000
vt 0.375000 1.000000
vt 0.343750 0.500000
vt 0.375000 0.500000
vt 0.281250 1.000000
vt 0.250000 0.500000
vt 0.281250 0.500000
vt 0.125000 1.000000
vt 0.093750 0.500000
vt 0.125000 0.500000
vt 0.158156 0.028269
vt 0.471731 0.158156
vt 0.341844 0.471731
vt 0.031250 1.000000
vt 0.000000 0.500000
vt 0.031250 0.500000
vt 0.796822 0.014612
vt 0.514612 0.203178
vt 0.703178 0.485388
vt 0.968750 1.000000
vt 0.906250 1.000000
vt 0.875000 1.000000
vt 0.875000 0.500000
vt 0.812500 1.000000
vt 0.781250 1.000000
vt 0.781250 0.500000
vt 0.656250 1.000000
vt 0.625000 1.000000
vt 0.625000 0.500000
vt 0.500000 1.000000
vt 0.343750 1.000000
vt 0.312500 1.000000
vt 0.312500 0.500000
vt 0.187500 1.000000
vt 0.156250 1.000000
vt 0.156250 0.500000
vt 0.028269 0.158156
vt 0.050447 0.116663
vt 0.080294 0.080294
vt 0.250000 0.490000
vt 0.158156 0.471731
vt 0.028269 0.341844
vt 0.341844 0.028269
vt 0.471731 0.341844
vt 0.062500 1.000000
vt 0.796822 0.485388
vt 0.883337 0.449553
vt 0.985388 0.296822
vt 0.949553 0.116663
vt 0.616663 0.050447
vt 0.550447 0.383337
s 1
f 164/333/301 163/334/302 162/335/303
f 165/336/304 166/337/305 163/338/302
f 167/339/306 168/340/307 166/341/305
f 169/342/308 170/343/309 168/344/307
f 169/345/308 171/346/310 170/347/309
f 172/348/311 173/349/312 171/350/310
f 175/351/313 176/352/314 173/353/312
f 177/354/315 178/355/316 176/356/314
f 172/357/311 167/358/306 164/359/301
f 179/360/317 162/361/303 178/362/316
f 170/363/309 173/364/312 178/365/316
f 179/366/317 164/333/301 162/335/303
f 164/367/301 165/368/304 163/369/302
f 165/370/304 167/371/306 166/372/305
f 167/373/306 169/374/308 168/375/307
f 169/345/308 172/376/311 171/346/310
f 172/348/311 174/377/318 173/349/312
f 174/377/318 175/378/313 173/379/312
f 175/380/313 177/381/315 176/382/314
f 175/383/313 174/384/319 172/385/311
f 164/359/301 179/386/317 177/387/315
f 164/359/301 177/387/315 175/388/313
f 172/357/311 169/389/308 167/358/306
f 167/358/306 165/390/304 164/359/301
f 164/359/301 175/388/313 172/357/311
f 177/391/315 179/360/317 178/362/316
f 178/365/316 162/392/303 163/393/302
f 178/365/316 163/393/302 166/394/305
f 166/394/305 168/395/307 170/363/309
f 170/363/309 171/396/310 173/364/312
f 173/364/312 176/397/314 178/365/316
f 178/365/316 166/394/305 170/363/309
o Cylinder.004
v -0.002081 0.320000 -0.465463
v -0.002081 -0.320000 -0.465463
v -0.008870 0.320000 -0.460927
v -0.008870 -0.320000 -0.460927
v -0.010668 0.320000 -0.455000
v -0.010668 -0.320000 -0.455000
v -0.008870 0.320000 -0.449073
v -0.008870 -0.320000 -0.449073
v -0.002081 -0.320000 -0.444537
v -0.000000 0.320000 -0.444332
v 0.004082 -0.320000 -0.445144
v 0.005927 0.320000 -0.446130
v 0.009856 0.320000 -0.450918
v 0.009856 -0.320000 -0.450918
v 0.010463 0.320000 -0.457081
v 0.009856 -0.320000 -0.459082
v 0.007543 0.320000 -0.462543
v 0.004082 -0.320000 -0.464856
vn -0.7924 0.1020 -0.6015
vn -0.7124 -0.0706 -0.6983
vn -0.0029 0.9985 -0.0543
vn -0.0447 0.9889 -0.1418
vn -0.1116 -0.9041 0.4126
vn -0.7731 -0.0885 0.6280
vn -0.4885 0.0070 0.8725
vn 0.1461 0.9868 0.0697
vn 0.2031 -0.9791 -0.0135
vn 0.8020 0.3477 0.4857
vn 0.9187 0.0670 0.3893
vn 0.9569 -0.0011 0.2903
vn 0.8819 -0.0000 0.4714
vn 0.1664 0.9306 0.3260
vn 0.2385 -0.9345 0.2643
vn 0.8119 -0.0907 -0.5767
vn 0.0944 -0.9939 -0.0577
vn 0.5033 0.0782 -0.8606
vn 0.3918 -0.8891 0.2366
vn -0.0000 1.0000 -0.0000
vt 0.906250 1.000000
vt 0.875000 0.500000
vt 0.906250 0.500000
vt 0.843750 1.000000
vt 0.812500 0.500000
vt 0.843750 0.500000
vt 0.687500 1.000000
vt 0.656250 0.500000
vt 0.687500 0.500000
vt 0.593750 1.000000
vt 0.562500 0.500000
vt 0.593750 0.500000
vt 0.437500 1.000000
vt 0.406250 0.500000
vt 0.437500 0.500000
vt 0.343750 1.000000
vt 0.312500 0.500000
vt 0.343750 0.500000
vt 0.312500 1.000000
vt 0.281250 0.500000
vt 0.218750 1.000000
vt 0.187500 0.500000
vt 0.218750 0.500000
vt 0.158156 0.028269
vt 0.471731 0.158156
vt 0.341844 0.471731
vt 0.062500 1.000000
vt 0.031250 0.500000
vt 0.062500 0.500000
vt 0.796822 0.014612
vt 0.514612 0.203178
vt 0.703178 0.485388
vt 0.937500 1.000000
vt 0.781250 1.000000
vt 0.750000 1.000000
vt 0.750000 0.500000
vt 0.656250 1.000000
vt 0.562500 1.000000
vt 0.468750 1.000000
vt 0.375000 1.000000
vt 0.281250 1.000000
vt 0.250000 1.000000
vt 0.250000 0.500000
vt 0.156250 1.000000
vt 0.125000 1.000000
vt 0.125000 0.500000
vt 0.341844 0.028269
vt 0.419706 0.080294
vt 0.158156 0.471731
vt 0.028269 0.341844
vt 0.028269 0.158156
vt 0.471731 0.341844
vt 0.031250 1.000000
vt 0.550447 0.116663
vt 0.528269 0.158156
vt 0.883337 0.449553
vt 0.949553 0.383337
vt 0.985388 0.296822
vt 0.949553 0.116663
vt 0.616663 0.050447
vt 0.550447 0.383337
s 1
f 183/398/320 182/399/321 180/400/322
f 183/401/320 184/402/323 182/403/321
f 185/404/324 186/405/325 184/406/323
f 187/407/326 189/408/327 186/409/325
f 190/410/328 191/411/329 189/412/327
f 193/413/330 192/414/331 191/415/332
f 193/416/330 194/417/333 192/414/331
f 195/418/334 196/419/335 194/420/333
f 190/421/328 185/422/324 181/423/336
f 197/424/337 180/425/322 196/426/335
f 189/427/327 194/428/333 180/429/322
f 181/430/336 183/398/320 180/400/322
f 183/431/320 185/432/324 184/433/323
f 185/404/324 187/434/326 186/405/325
f 187/407/326 188/435/338 189/408/327
f 188/436/338 190/410/328 189/412/327
f 190/437/328 193/413/330 191/415/329
f 193/438/330 195/439/334 194/440/333
f 195/441/334 197/442/337 196/443/335
f 188/444/338 187/445/326 185/422/324
f 181/423/336 197/446/337 195/447/334
f 195/447/334 193/448/330 190/421/328
f 190/421/328 188/444/338 185/422/324
f 185/422/324 183/449/320 181/423/336
f 181/423/336 195/447/334 190/421/328
f 197/424/337 181/450/336 180/425/322
f 191/451/329 192/452/339 194/428/333
f 180/453/322 182/454/321 184/455/323
f 184/455/323 186/456/325 189/427/327
f 189/427/327 191/457/329 194/428/333
f 194/428/333 196/458/335 180/429/322
f 180/429/322 184/455/323 189/427/327
o Plane
v 0.001210 -0.321581 -1.092773
v 0.001210 -0.321581 -0.452773
v 0.001210 0.318419 -1.092773
v 0.001210 0.318419 -0.452773
v -0.001290 0.318419 -1.092773
v -0.001290 -0.321581 -1.092773
v -0.001290 -0.321581 -0.452773
v -0.001290 0.318419 -0.452773
v 0.003710 0.318419 -1.092773
v 0.003710 -0.321581 -1.092773
v 0.003710 -0.321581 -0.452773
v 0.003710 0.318419 -0.452773
v -0.001290 -0.206443 -0.897033
v -0.001290 -0.218617 -0.895834
v -0.001290 -0.194269 -0.895834
v -0.001290 -0.241111 -0.886516
v -0.001290 -0.171775 -0.886516
v -0.001290 -0.230322 -0.892283
v -0.001290 -0.182564 -0.892283
v -0.001290 -0.258327 -0.869300
v -0.001290 -0.154559 -0.869300
v -0.001290 -0.267644 -0.846806
v -0.001290 -0.145242 -0.846806
v -0.001290 -0.264093 -0.858512
v -0.001290 -0.148793 -0.858512
v -0.001290 -0.268843 -0.834633
v -0.001290 -0.250566 -0.878756
v -0.001290 -0.162319 -0.878756
v -0.001290 -0.267644 -0.822459
v -0.001290 -0.145242 -0.822459
v -0.001290 -0.258327 -0.799965
v -0.001290 -0.154559 -0.799965
v -0.001290 -0.264093 -0.810753
v -0.001290 -0.148793 -0.810753
v -0.001290 -0.241111 -0.782749
v -0.001290 -0.171775 -0.782749
v -0.001290 -0.206443 -0.772233
v -0.001290 -0.218617 -0.773432
v -0.001290 -0.223736 -0.774985
v -0.001290 -0.194269 -0.773432
v -0.001290 -0.230322 -0.776983
v -0.001290 -0.182564 -0.776983
v -0.001290 -0.250566 -0.790509
v -0.001290 -0.162319 -0.790509
v -0.001290 -0.144043 -0.834633
v 0.003710 -0.206443 -0.897033
v 0.003710 -0.218617 -0.895834
v 0.003710 -0.194269 -0.895834
v 0.003710 -0.241111 -0.886516
v 0.003710 -0.171775 -0.886516
v 0.003710 -0.230322 -0.892283
v 0.003710 -0.182564 -0.892283
v 0.003710 -0.258327 -0.869300
v 0.003710 -0.154559 -0.869300
v 0.003710 -0.267644 -0.846806
v 0.003710 -0.145242 -0.846806
v 0.003710 -0.264093 -0.858512
v 0.003710 -0.148793 -0.858512
v 0.003710 -0.268843 -0.834633
v 0.003710 -0.250566 -0.878756
v 0.003710 -0.162319 -0.878756
v 0.003710 -0.267644 -0.822459
v 0.003710 -0.145242 -0.822459
v 0.003710 -0.258327 -0.799965
v 0.003710 -0.154559 -0.799965
v 0.003710 -0.264093 -0.810753
v 0.003710 -0.148793 -0.810753
v 0.003710 -0.241111 -0.782749
v 0.003710 -0.171775 -0.782749
v 0.003710 -0.206443 -0.772233
v 0.003710 -0.218617 -0.773432
v 0.003710 -0.223707 -0.774976
v 0.003710 -0.194269 -0.773432
v 0.003710 -0.230322 -0.776983
v 0.003710 -0.182564 -0.776983
v 0.003710 -0.250566 -0.790509
v 0.003710 -0.162319 -0.790509
v 0.003710 -0.144043 -0.834633
v -0.001290 -0.001763 -1.010875
v -0.001290 -0.011459 -1.009920
v -0.001290 0.007933 -1.009920
v -0.001290 -0.020783 -1.007092
v -0.001290 0.017256 -1.007092
v -0.001290 -0.029375 -1.002499
v -0.001290 0.025849 -1.002499
v -0.001290 -0.036906 -0.996318
v -0.001290 0.033380 -0.996318
v -0.001290 -0.047680 -0.980194
v -0.001290 -0.051463 -0.961175
v -0.001290 -0.050508 -0.970871
v -0.001290 -0.043087 -0.988787
v -0.001290 0.039561 -0.988787
v -0.001290 -0.050508 -0.951479
v -0.001290 0.044154 -0.980194
v -0.001290 -0.047680 -0.942155
v -0.001290 -0.046186 -0.939360
v -0.001290 -0.043087 -0.933563
v -0.001290 -0.042049 -0.932298
v -0.001290 0.046982 -0.970871
v -0.001290 -0.036906 -0.926032
v -0.001290 0.047937 -0.961175
v -0.001290 -0.029375 -0.919851
v -0.001290 0.046982 -0.951479
v -0.001290 -0.020783 -0.915258
v -0.001290 0.033380 -0.926032
v -0.001290 0.025849 -0.919851
v -0.001290 0.017256 -0.915258
v -0.001290 0.044154 -0.942155
v -0.001290 -0.011459 -0.912430
v -0.001290 0.039561 -0.933563
v -0.001290 0.007933 -0.912430
v -0.001290 -0.001763 -0.911475
v 0.003710 -0.001763 -1.010875
v 0.003710 -0.011459 -1.009920
v 0.003710 0.007933 -1.009920
v 0.003710 -0.020783 -1.007092
v 0.003710 0.025849 -1.002499
v 0.003710 -0.029375 -1.002499
v 0.003710 0.017256 -1.007092
v 0.003710 -0.036906 -0.996318
v 0.003710 0.039561 -0.988787
v 0.003710 -0.050508 -0.970871
v 0.003710 -0.047680 -0.980194
v 0.003710 0.046982 -0.970871
v 0.003710 -0.043087 -0.988787
v 0.003710 0.044154 -0.980194
v 0.003710 0.033380 -0.996318
v 0.003710 -0.050508 -0.951479
v 0.003710 0.046982 -0.951479
v 0.003710 -0.043087 -0.933563
v 0.003710 0.039561 -0.933563
v 0.003710 -0.047680 -0.942155
v 0.003710 0.044154 -0.942155
v 0.003710 -0.029375 -0.919851
v 0.003710 0.025849 -0.919851
v 0.003710 -0.001763 -0.911475
v 0.003710 0.007933 -0.912430
v 0.003710 -0.011459 -0.912430
v 0.003710 0.017256 -0.915258
v 0.003710 -0.020783 -0.915258
v 0.003710 0.033380 -0.926032
v 0.003710 -0.036906 -0.926032
v 0.003710 -0.051463 -0.961175
v 0.003710 0.047937 -0.961175
v -0.001290 -0.004763 -0.625135
v -0.001290 -0.014459 -0.624180
v -0.001290 0.004933 -0.624180
v -0.001290 -0.032375 -0.616760
v -0.001290 0.022849 -0.616760
v -0.001290 -0.023783 -0.621352
v -0.001290 0.014256 -0.621352
v -0.001290 -0.046087 -0.603047
v -0.001290 0.036561 -0.603047
v -0.001290 -0.053508 -0.585131
v -0.001290 0.043982 -0.585131
v -0.001290 -0.050680 -0.594455
v -0.001290 0.041154 -0.594455
v -0.001290 -0.039906 -0.610579
v -0.001290 0.030380 -0.610579
v -0.001290 -0.053508 -0.565739
v -0.001290 0.043982 -0.565739
v -0.001290 -0.046087 -0.547824
v -0.001290 0.036561 -0.547824
v -0.001290 -0.050680 -0.556416
v -0.001290 0.041154 -0.556416
v -0.001290 -0.032375 -0.534111
v -0.001290 0.022849 -0.534111
v -0.001290 -0.004763 -0.525735
v -0.001290 -0.014459 -0.526690
v -0.001290 0.004933 -0.526690
v -0.001290 -0.023783 -0.529519
v -0.001290 0.014256 -0.529519
v -0.001290 -0.039906 -0.540292
v -0.001290 0.030380 -0.540292
v -0.001290 0.044937 -0.575435
v -0.001290 -0.054463 -0.575435
v 0.003710 -0.004763 -0.625135
v 0.003710 -0.014459 -0.624180
v 0.003710 0.004933 -0.624180
v 0.003710 -0.032375 -0.616760
v 0.003710 0.022849 -0.616760
v 0.003710 -0.023783 -0.621352
v 0.003710 0.014256 -0.621352
v 0.003710 -0.046087 -0.603047
v 0.003710 0.036561 -0.603047
v 0.003710 -0.053508 -0.585131
v 0.003710 0.043982 -0.585131
v 0.003710 -0.050680 -0.594455
v 0.003710 0.041154 -0.594455
v 0.003710 -0.039906 -0.610579
v 0.003710 0.030380 -0.610579
v 0.003710 -0.053508 -0.565739
v 0.003710 0.043982 -0.565739
v 0.003710 -0.046087 -0.547824
v 0.003710 0.036561 -0.547824
v 0.003710 -0.050680 -0.556416
v 0.003710 0.041154 -0.556416
v 0.003710 -0.032375 -0.534111
v 0.003710 0.022849 -0.534111
v 0.003710 -0.004763 -0.525735
v 0.003710 -0.014459 -0.526690
v 0.003710 0.004933 -0.526690
v 0.003710 -0.023783 -0.529519
v 0.003710 0.014256 -0.529519
v 0.003710 -0.039906 -0.540292
v 0.003710 0.030380 -0.540292
v 0.003710 0.044937 -0.575435
v 0.003710 -0.054463 -0.575435
v -0.001290 0.176564 -0.507982
v -0.001290 0.187352 -0.502216
v -0.001290 0.199058 -0.498665
v -0.001290 0.167108 -0.515742
v -0.001290 0.211232 -0.497466
v -0.001290 0.211232 -0.622266
v -0.001290 0.199058 -0.621067
v -0.001290 0.223405 -0.621067
v -0.001290 0.187352 -0.617516
v -0.001290 0.235111 -0.617516
v -0.001290 0.245899 -0.611749
v -0.001290 0.167108 -0.603989
v -0.001290 0.255355 -0.603989
v -0.001290 0.153582 -0.583745
v -0.001290 0.268882 -0.583745
v -0.001290 0.159348 -0.594533
v -0.001290 0.263115 -0.594533
v -0.001290 0.176564 -0.611749
v -0.001290 0.273632 -0.559866
v -0.001290 0.150031 -0.547692
v -0.001290 0.268882 -0.535986
v -0.001290 0.149356 -0.565190
v -0.001290 0.148832 -0.559866
v -0.001290 0.272433 -0.547692
v -0.001290 0.255355 -0.515742
v -0.001290 0.159348 -0.525198
v -0.001290 0.235111 -0.502216
v -0.001290 0.223405 -0.498665
v -0.001290 0.245899 -0.507982
v -0.001290 0.263115 -0.525198
v -0.001290 0.153582 -0.535986
v -0.001290 0.272433 -0.572039
v -0.001290 0.150031 -0.572039
v 0.003710 0.176564 -0.507982
v 0.003710 0.187352 -0.502216
v 0.003710 0.199058 -0.498665
v 0.003710 0.167108 -0.515742
v 0.003710 0.211232 -0.497466
v 0.003710 0.235111 -0.617516
v 0.003710 0.255355 -0.603989
v 0.003710 0.245899 -0.611749
v 0.003710 0.263115 -0.594533
v 0.003710 0.272433 -0.572039
v 0.003710 0.268882 -0.583745
v 0.003710 0.272433 -0.547692
v 0.003710 0.273632 -0.559866
v 0.003710 0.211232 -0.622266
v 0.003710 0.187352 -0.617516
v 0.003710 0.176564 -0.611749
v 0.003710 0.199058 -0.621067
v 0.003710 0.159348 -0.594533
v 0.003710 0.167108 -0.603989
v 0.003710 0.153582 -0.583745
v 0.003710 0.148832 -0.559866
v 0.003710 0.149353 -0.565159
v 0.003710 0.150031 -0.572039
v 0.003710 0.150031 -0.547692
v 0.003710 0.159348 -0.525198
v 0.003710 0.153582 -0.535986
v 0.003710 0.245899 -0.507982
v 0.003710 0.255355 -0.515742
v 0.003710 0.223405 -0.498665
v 0.003710 0.235111 -0.502216
v 0.003710 0.263115 -0.525198
v 0.003710 0.268882 -0.535986
v 0.003710 0.223405 -0.621067
vn -0.0000 -1.0000 -0.0000
vn -1.0000 -0.0000 -0.0000
vn -0.0000 1.0000 -0.0000
vn -0.0000 -0.0000 1.0000
vn -0.0000 -0.0000 -1.0000
vn 1.0000 -0.0000 -0.0000
vn -0.0000 -0.9952 -0.0980
vn -0.0000 -0.9569 -0.2903
vn -0.0000 -0.8819 -0.4714
vn -0.0000 -0.7730 -0.6344
vn -0.0000 -0.6344 -0.7730
vn -0.0000 -0.4714 -0.8819
vn -0.0000 -0.2903 -0.9569
vn -0.0000 -0.0980 -0.9952
vn -0.0000 0.0980 -0.9952
vn -0.0000 0.2903 -0.9569
vn -0.0000 0.4714 -0.8819
vn -0.0000 0.6344 -0.7730
vn -0.0000 0.7730 -0.6344
vn -0.0000 0.8819 -0.4714
vn -0.0000 0.9569 -0.2903
vn -0.0000 0.9952 -0.0980
vn -0.0000 0.9952 0.0980
vn -0.0000 0.9569 0.2903
vn -0.0000 0.8819 0.4714
vn -0.0000 0.7730 0.6344
vn -0.0000 0.6344 0.7730
vn -0.0000 0.4714 0.8819
vn -0.0000 0.2903 0.9569
vn -0.0000 0.0980 0.9952
vn -0.0000 -0.0980 0.9952
vn -0.0000 -0.2903 0.9569
vn -0.0000 -0.4714 0.8819
vn -0.0000 -0.6344 0.7730
vn -0.0000 -0.7730 0.6344
vn -0.0000 -0.8819 0.4714
vn -0.0000 -0.9569 0.2903
vn -0.0000 -0.9952 0.0980
vt 0.000000 0.000000
vt 1.000000 0.000000
vt 0.403344 0.082403
vt 0.384323 0.084277
vt 0.248766 0.435147
vt 0.334401 0.248846
vt 0.250742 0.436768
vt 0.498971 0.198924
vt 0.500844 0.179903
vt 0.823490 0.418864
vt 0.838058 0.566773
vt 0.922746 0.795208
vt 0.913736 0.778352
vt 1.000000 1.000000
vt 0.885996 0.495028
vt 0.000000 1.000000
vt 0.307718 0.160882
vt 0.205622 0.422059
vt 0.220772 0.423551
vt 0.838058 0.566773
vt 0.901611 0.763577
vt 0.913736 0.778351
vt 0.127966 0.499715
vt 0.422365 0.084277
vt 0.968750 0.718686
vt 1.000000 0.717436
vt 0.968750 0.717436
vt 0.937500 0.718686
vt 0.937500 0.717436
vt 0.906250 0.718686
vt 0.906250 0.717436
vt 0.875000 0.718686
vt 0.875000 0.717436
vt 0.843750 0.717436
vt 0.843750 0.718686
vt 0.812500 0.717436
vt 0.812500 0.718686
vt 0.781250 0.717436
vt 0.781250 0.718686
vt 0.750000 0.717436
vt 0.750000 0.718686
vt 0.718750 0.717436
vt 0.718750 0.718686
vt 0.705160 0.717436
vt 0.705082 0.718686
vt 0.687500 0.718686
vt 0.656250 0.717436
vt 0.656250 0.718686
vt 0.625000 0.717436
vt 0.625000 0.718686
vt 0.593750 0.717436
vt 0.593750 0.718686
vt 0.562500 0.717436
vt 0.562500 0.718686
vt 0.531250 0.717436
vt 0.531250 0.718686
vt 0.500000 0.717436
vt 0.500000 0.718686
vt 0.468750 0.717436
vt 0.468750 0.718686
vt 0.437500 0.717436
vt 0.437500 0.718686
vt 0.406250 0.717436
vt 0.406250 0.718686
vt 0.375000 0.717436
vt 0.375000 0.718686
vt 0.343750 0.718686
vt 0.343750 0.717436
vt 0.312500 0.718686
vt 0.312500 0.717436
vt 0.281250 0.718686
vt 0.281250 0.717436
vt 0.250000 0.718686
vt 0.250000 0.717436
vt 0.218750 0.718686
vt 0.218750 0.717436
vt 0.187500 0.718686
vt 0.187500 0.717436
vt 0.156250 0.718686
vt 0.156250 0.717436
vt 0.125000 0.718686
vt 0.125000 0.717436
vt 0.093750 0.718686
vt 0.093750 0.717436
vt 0.062500 0.718686
vt 0.062500 0.717436
vt 0.031250 0.718686
vt 0.031250 0.717436
vt 0.000000 0.718686
vt 0.000000 0.717436
vt 0.968750 0.710080
vt 1.000000 0.708830
vt 0.968750 0.708830
vt 0.937500 0.710080
vt 0.937500 0.708830
vt 0.906250 0.710080
vt 0.906250 0.708830
vt 0.875000 0.710080
vt 0.875000 0.708830
vt 0.843750 0.708830
vt 0.843750 0.710080
vt 0.812500 0.708830
vt 0.812500 0.710080
vt 0.781250 0.708830
vt 0.781250 0.710080
vt 0.750000 0.708830
vt 0.750000 0.710080
vt 0.718750 0.708830
vt 0.718750 0.710080
vt 0.687500 0.708830
vt 0.687500 0.710080
vt 0.656250 0.708830
vt 0.656250 0.710080
vt 0.625000 0.708830
vt 0.625000 0.710080
vt 0.593750 0.708830
vt 0.598997 0.710080
vt 0.562500 0.708830
vt 0.572666 0.710080
vt 0.593750 0.710080
vt 0.562500 0.710080
vt 0.531250 0.708830
vt 0.531250 0.710080
vt 0.500000 0.708830
vt 0.500000 0.710080
vt 0.468750 0.708830
vt 0.468750 0.710080
vt 0.437500 0.708830
vt 0.437500 0.710080
vt 0.406250 0.708830
vt 0.406250 0.710080
vt 0.375000 0.708830
vt 0.375000 0.710080
vt 0.343750 0.710080
vt 0.343750 0.708830
vt 0.312500 0.710080
vt 0.312500 0.708830
vt 0.281250 0.710080
vt 0.281250 0.708830
vt 0.250000 0.710080
vt 0.250000 0.708830
vt 0.218750 0.710080
vt 0.218750 0.708830
vt 0.187500 0.710080
vt 0.187500 0.708830
vt 0.156250 0.710080
vt 0.156250 0.708830
vt 0.125000 0.710080
vt 0.125000 0.708830
vt 0.093750 0.710080
vt 0.093750 0.708830
vt 0.062500 0.710080
vt 0.062500 0.708830
vt 0.031250 0.710080
vt 0.031250 0.708830
vt 0.000000 0.710080
vt 0.000000 0.708830
vt 0.937500 0.710080
vt 0.937500 0.708830
vt 0.562500 0.708830
vt 0.562500 0.710080
vt 0.437500 0.708830
vt 0.062500 0.708830
vt 0.937500 0.718686
vt 0.906250 0.718686
vt 0.875000 0.718686
vt 0.875000 0.717436
vt 0.687500 0.717436
vt 0.625000 0.718686
vt 0.562500 0.718686
vt 0.531250 0.718686
vt 0.500000 0.718686
vt 0.486332 0.718686
vt 0.486410 0.717436
vt 0.468750 0.718686
vt 0.375000 0.718686
vt 0.312500 0.718686
vt 0.312500 0.717436
vt 0.156250 0.718686
vt 0.125000 0.718686
vt 0.031250 0.718686
vt 0.322276 0.125735
vt 0.313266 0.142592
vt 0.496544 0.152882
vt 0.493422 0.142592
vt 0.484412 0.125735
vt 0.334401 0.110960
vt 0.349176 0.098835
vt 0.472287 0.110960
vt 0.457512 0.098835
vt 0.366033 0.089825
vt 0.440656 0.089825
vt 0.422365 0.084277
vt 0.239708 0.430305
vt 0.349176 0.260971
vt 0.886836 0.913588
vt 0.901611 0.901463
vt 0.307718 0.160882
vt 0.305844 0.179903
vt 0.869980 0.922598
vt 0.851689 0.928146
vt 0.307718 0.198924
vt 0.313266 0.217215
vt 0.832668 0.930020
vt 0.813647 0.928146
vt 0.322276 0.234071
vt 0.235340 0.427970
vt 0.795356 0.922598
vt 0.220772 0.423551
vt 0.778500 0.913588
vt 0.763725 0.901463
vt 0.205622 0.422059
vt 0.190472 0.423551
vt 0.751600 0.886688
vt 0.742590 0.869831
vt 0.175904 0.427970
vt 0.162479 0.435147
vt 0.737042 0.851541
vt 0.735168 0.832519
vt 0.150711 0.444804
vt 0.141054 0.456572
vt 0.737041 0.813498
vt 0.742590 0.795208
vt 0.133877 0.469998
vt 0.129458 0.484565
vt 0.751600 0.778351
vt 0.763725 0.763577
vt 0.127966 0.499715
vt 0.778500 0.751452
vt 0.795356 0.742441
vt 0.129458 0.514865
vt 0.133877 0.529433
vt 0.141053 0.542859
vt 0.150711 0.554627
vt 0.162479 0.564284
vt 0.175905 0.571460
vt 0.190472 0.575879
vt 0.205622 0.577371
vt 0.220772 0.575880
vt 0.808340 0.572684
vt 0.824349 0.735839
vt 0.813647 0.736893
vt 0.235340 0.571460
vt 0.793190 0.571192
vt 0.778622 0.566773
vt 0.248766 0.564284
vt 0.260534 0.554627
vt 0.765196 0.559597
vt 0.753429 0.549939
vt 0.270191 0.542859
vt 0.277367 0.529433
vt 0.743771 0.538171
vt 0.736595 0.524746
vt 0.281786 0.514866
vt 0.283278 0.499715
vt 0.281786 0.484565
vt 0.732176 0.510178
vt 0.277367 0.469998
vt 0.730684 0.495028
vt 0.270191 0.456572
vt 0.732176 0.479878
vt 0.260534 0.444804
vt 0.736595 0.465310
vt 0.366033 0.269981
vt 0.384323 0.275530
vt 0.743771 0.451884
vt 0.753429 0.440116
vt 0.403344 0.277403
vt 0.422365 0.275530
vt 0.765197 0.430459
vt 0.778622 0.423283
vt 0.440656 0.269981
vt 0.457512 0.260971
vt 0.793190 0.418864
vt 0.808340 0.417372
vt 0.472287 0.248846
vt 0.838058 0.423283
vt 0.484412 0.234071
vt 0.498971 0.160882
vt 0.493422 0.217215
vt 0.832668 0.735020
vt 0.823490 0.571192
vt 0.851689 0.736893
vt 0.913736 0.886688
vt 0.922747 0.869832
vt 0.869980 0.742442
vt 0.928295 0.851541
vt 0.930168 0.832519
vt 0.886836 0.751452
vt 0.901611 0.763577
vt 0.928294 0.813498
vt 0.851483 0.430459
vt 0.851483 0.559597
vt 0.863251 0.549939
vt 0.863251 0.440117
vt 0.872909 0.451884
vt 0.872909 0.538171
vt 0.880085 0.524746
vt 0.880085 0.465310
vt 0.884504 0.479878
vt 0.884504 0.510178
vt 0.813647 0.736893
vt 0.824396 0.735834
vt 0.808340 0.572684
vt 0.793190 0.571192
vt 0.795357 0.742441
vt 0.778622 0.566773
vt 0.778500 0.751451
vt 0.765196 0.559597
vt 0.763725 0.763577
vt 0.753429 0.549939
vt 0.751600 0.778352
vt 0.743771 0.538171
vt 0.742590 0.795208
vt 0.736595 0.524746
vt 0.737042 0.813498
vt 0.732176 0.510178
vt 0.735168 0.832520
vt 0.730684 0.495028
vt 0.823490 0.418864
vt 0.838058 0.423283
vt 0.496558 0.152928
vt 0.498971 0.160882
vt 0.500844 0.179903
vt 0.808340 0.417372
vt 0.793190 0.418864
vt 0.493422 0.217215
vt 0.778622 0.423283
vt 0.765196 0.430459
vt 0.472287 0.248846
vt 0.753429 0.440117
vt 0.743771 0.451884
vt 0.457512 0.260971
vt 0.440656 0.269981
vt 0.736595 0.465310
vt 0.732176 0.479878
vt 0.349176 0.260971
vt 0.737041 0.851541
vt 0.742590 0.869831
vt 0.751600 0.886688
vt 0.901611 0.901462
vt 0.886836 0.913588
vt 0.190472 0.575880
vt 0.175904 0.571460
vt 0.205622 0.577372
vt 0.869979 0.922598
vt 0.851689 0.928146
vt 0.220772 0.575879
vt 0.235340 0.571460
vt 0.832668 0.930020
vt 0.813646 0.928146
vt 0.248766 0.564284
vt 0.260534 0.554627
vt 0.795356 0.922598
vt 0.270191 0.542859
vt 0.778499 0.913588
vt 0.763725 0.901463
vt 0.277367 0.529433
vt 0.281786 0.514865
vt 0.283279 0.499715
vt 0.281786 0.484565
vt 0.277367 0.469998
vt 0.270191 0.456572
vt 0.260534 0.444804
vt 0.313266 0.142592
vt 0.248766 0.435147
vt 0.175905 0.427970
vt 0.190472 0.423551
vt 0.235340 0.427970
vt 0.913736 0.886688
vt 0.823490 0.571192
vt 0.832668 0.735020
vt 0.922747 0.869832
vt 0.928295 0.851541
vt 0.851689 0.736893
vt 0.930168 0.832520
vt 0.928294 0.813498
vt 0.869980 0.742441
vt 0.886836 0.751451
vt 0.922746 0.795208
vt 0.851483 0.559597
vt 0.851484 0.430459
vt 0.863251 0.440116
vt 0.863251 0.549939
vt 0.872909 0.538171
vt 0.872909 0.451884
vt 0.880085 0.465310
vt 0.884504 0.510178
vt 0.884504 0.479878
vt 0.162479 0.435147
vt 0.162479 0.564284
vt 0.150711 0.554627
vt 0.150711 0.444804
vt 0.141053 0.456572
vt 0.141053 0.542859
vt 0.133877 0.529433
vt 0.133877 0.469998
vt 0.129458 0.484565
vt 0.322276 0.125735
vt 0.334401 0.110960
vt 0.484412 0.125735
vt 0.349176 0.098835
vt 0.440656 0.089825
vt 1.000000 0.718686
vt 1.000000 0.710080
vt 1.000000 0.718686
s 0
f 198/459/340 208/460/340 199/460/340
f 204/460/341 223/461/341 219/462/341
f 294/463/341 225/464/341 295/465/341
f 237/466/341 234/467/341 357/468/341
f 362/469/341 407/470/341 406/471/341
f 204/460/341 205/472/341 365/473/341
f 200/474/342 205/472/342 201/472/342
f 199/460/340 203/459/340 198/459/340
f 201/472/343 204/460/343 199/460/343
f 198/459/344 202/474/344 200/474/344
f 244/475/345 340/476/345 325/477/345
f 394/478/345 442/479/345 439/480/345
f 209/472/345 208/460/345 397/473/345
f 207/459/345 206/474/345 310/481/345
f 208/460/345 207/459/345 259/482/345
f 199/460/343 209/472/343 201/472/343
f 200/474/344 207/459/344 198/459/344
f 201/472/342 206/474/342 200/474/342
f 227/483/346 275/484/346 260/485/346
f 231/486/347 260/485/347 264/487/347
f 229/488/348 264/487/348 262/489/348
f 241/490/349 262/489/349 274/491/349
f 241/490/350 266/492/350 233/493/350
f 233/493/351 272/494/351 239/495/351
f 239/495/352 270/496/352 237/497/352
f 237/497/353 267/498/353 234/499/353
f 234/499/354 268/500/354 235/501/354
f 269/502/355 236/503/355 268/500/355
f 238/504/356 265/505/356 232/506/356
f 232/506/357 273/507/357 240/508/357
f 240/508/358 261/509/358 228/510/358
f 228/510/359 263/511/359 230/512/359
f 230/512/360 259/513/360 226/514/360
f 226/514/361 256/515/361 223/516/361
f 223/516/362 252/517/362 219/518/362
f 219/518/363 254/519/363 221/520/363
f 221/520/364 250/521/364 217/522/364
f 217/522/365 257/523/365 224/524/365
f 213/525/366 257/523/366 246/526/366
f 215/527/367 246/526/367 248/528/367
f 211/529/368 248/528/368 244/530/368
f 210/531/369 244/530/369 243/532/369
f 212/533/370 243/532/370 245/534/370
f 216/535/371 245/534/371 249/536/371
f 214/537/372 249/536/372 247/538/372
f 225/539/373 247/538/373 258/540/373
f 218/541/374 258/540/374 251/542/374
f 222/543/375 251/542/375 255/544/375
f 220/545/376 255/544/376 253/546/376
f 242/547/377 253/546/377 275/548/377
f 300/549/346 341/550/346 326/551/346
f 305/552/347 326/551/347 330/553/347
f 307/554/348 330/553/348 328/555/348
f 302/556/349 328/555/349 338/557/349
f 302/556/350 332/558/350 303/559/350
f 303/559/351 336/560/351 304/561/351
f 304/561/352 334/562/352 308/563/352
f 308/563/353 333/564/353 309/565/353
f 309/565/354 335/566/354 306/567/354
f 306/567/355 337/568/355 301/569/355
f 301/569/356 331/570/356 299/571/356
f 299/571/357 339/572/357 297/573/357
f 327/574/358 295/575/358 297/573/358
f 329/576/359 293/577/359 294/578/359
f 292/579/360 325/580/360 290/581/360
f 290/581/361 340/582/361 286/583/361
f 286/583/362 319/584/362 287/585/362
f 287/585/363 320/586/363 285/587/363
f 285/587/364 322/588/364 288/589/364
f 288/589/365 317/590/365 283/591/365
f 281/592/366 317/590/366 315/593/366
f 279/594/367 315/593/367 313/595/367
f 277/596/368 313/595/368 311/597/368
f 276/598/369 311/597/369 310/599/369
f 278/600/370 310/599/370 312/601/370
f 280/602/371 312/601/371 316/603/371
f 282/604/372 316/603/372 314/605/372
f 284/606/373 314/605/373 324/607/373
f 289/608/374 324/607/374 318/609/374
f 291/610/375 318/609/375 323/611/375
f 296/612/376 323/611/376 321/613/376
f 298/614/377 321/613/377 341/615/377
f 358/549/346 404/550/346 390/551/346
f 362/616/347 390/551/347 394/617/347
f 360/554/348 394/617/348 392/555/348
f 371/556/349 392/555/349 403/557/349
f 371/556/350 396/558/350 364/559/350
f 364/559/351 401/560/351 369/561/351
f 369/561/352 399/562/352 367/563/352
f 367/563/353 397/564/353 365/565/353
f 365/565/354 398/566/354 366/567/354
f 366/567/355 400/568/355 368/569/355
f 368/569/356 395/570/356 363/571/356
f 363/571/357 402/572/357 370/573/357
f 370/573/358 391/574/358 359/578/358
f 359/578/359 393/618/359 361/619/359
f 361/619/360 389/580/360 357/581/360
f 357/581/361 405/582/361 373/583/361
f 373/583/362 383/584/362 351/585/362
f 351/585/363 385/620/363 353/587/363
f 353/587/364 381/588/364 349/589/364
f 349/589/365 387/590/365 355/591/365
f 345/592/366 387/590/366 377/593/366
f 347/594/367 377/593/367 379/595/367
f 343/596/368 379/595/368 375/597/368
f 342/598/369 375/597/369 374/599/369
f 344/600/370 374/599/370 376/601/370
f 348/602/371 376/601/371 380/603/371
f 346/604/372 380/603/372 378/605/372
f 356/606/373 378/605/373 388/607/373
f 350/608/374 388/607/374 382/609/374
f 354/610/375 382/609/375 386/621/375
f 352/612/376 386/621/376 384/613/376
f 372/614/377 384/613/377 404/615/377
f 429/483/346 451/484/346 450/485/346
f 426/622/347 450/485/347 470/487/347
f 435/623/348 470/487/348 469/489/348
f 430/624/349 469/489/349 466/625/349
f 430/624/350 465/492/350 434/493/350
f 434/493/351 468/494/351 432/495/351
f 432/495/352 467/496/352 433/497/352
f 433/497/353 443/498/353 410/499/353
f 410/499/354 441/500/354 408/501/354
f 408/501/355 440/626/355 407/504/355
f 407/504/356 439/505/356 406/506/356
f 406/506/357 442/507/357 409/627/357
f 409/627/358 463/509/358 431/510/358
f 431/510/359 464/511/359 436/628/359
f 436/628/360 462/513/360 425/629/360
f 425/629/361 459/515/361 428/630/361
f 427/631/362 459/515/362 460/632/362
f 438/633/363 458/519/363 419/520/363
f 419/520/364 456/521/364 421/522/364
f 421/522/365 457/523/365 417/634/365
f 423/525/366 457/523/366 454/526/366
f 414/635/367 454/526/367 453/636/367
f 412/529/368 453/636/368 455/530/368
f 411/531/369 455/530/369 452/532/369
f 413/533/370 452/532/370 471/534/370
f 415/535/371 471/534/371 444/536/371
f 416/637/372 444/536/372 446/538/372
f 418/638/373 446/538/373 445/540/373
f 422/541/374 445/540/374 447/542/374
f 420/543/375 447/542/375 449/544/375
f 437/639/376 449/544/376 448/546/376
f 424/547/377 448/546/377 451/548/377
f 198/459/340 207/459/340 208/460/340
f 213/640/341 215/641/341 203/459/341
f 204/460/341 236/642/341 238/643/341
f 204/460/341 238/643/341 232/644/341
f 224/645/341 213/640/341 203/459/341
f 217/646/341 224/645/341 203/459/341
f 204/460/341 232/644/341 240/647/341
f 204/460/341 240/647/341 228/648/341
f 221/649/341 217/646/341 203/459/341
f 219/462/341 221/649/341 203/459/341
f 204/460/341 228/648/341 230/650/341
f 204/460/341 230/650/341 226/651/341
f 219/462/341 203/459/341 204/460/341
f 204/460/341 226/651/341 223/461/341
f 294/463/341 293/652/341 225/464/341
f 225/464/341 218/653/341 295/465/341
f 435/654/341 430/655/341 205/472/341
f 203/459/341 215/641/341 211/656/341
f 203/459/341 211/656/341 210/657/341
f 426/658/341 435/654/341 205/472/341
f 429/659/341 426/658/341 205/472/341
f 203/459/341 210/657/341 212/660/341
f 203/459/341 212/660/341 216/661/341
f 424/662/341 429/659/341 205/472/341
f 437/663/341 424/662/341 205/472/341
f 203/459/341 216/661/341 214/664/341
f 214/664/341 225/464/341 293/652/341
f 214/664/341 293/652/341 292/665/341
f 437/663/341 205/472/341 202/474/341
f 420/666/341 437/663/341 202/474/341
f 203/459/341 214/664/341 292/665/341
f 203/459/341 292/665/341 290/667/341
f 422/668/341 420/666/341 202/474/341
f 418/669/341 422/668/341 202/474/341
f 203/459/341 290/667/341 286/670/341
f 203/459/341 286/670/341 287/671/341
f 416/672/341 418/669/341 202/474/341
f 415/673/341 416/672/341 202/474/341
f 203/459/341 287/671/341 285/674/341
f 203/459/341 285/674/341 288/675/341
f 413/676/341 415/673/341 202/474/341
f 411/677/341 413/676/341 202/474/341
f 203/459/341 288/675/341 283/678/341
f 203/459/341 283/678/341 281/679/341
f 412/680/341 411/677/341 202/474/341
f 414/681/341 412/680/341 202/474/341
f 203/459/341 281/679/341 279/682/341
f 203/459/341 279/682/341 277/683/341
f 423/684/341 414/681/341 202/474/341
f 417/685/341 423/684/341 202/474/341
f 202/474/341 203/459/341 277/683/341
f 202/474/341 277/683/341 276/686/341
f 421/687/341 417/685/341 202/474/341
f 419/688/341 421/687/341 202/474/341
f 202/474/341 276/686/341 278/689/341
f 202/474/341 278/689/341 280/690/341
f 202/474/341 280/690/341 282/691/341
f 202/474/341 282/691/341 284/692/341
f 202/474/341 284/692/341 289/693/341
f 202/474/341 289/693/341 291/694/341
f 202/474/341 291/694/341 296/695/341
f 202/474/341 296/695/341 298/696/341
f 419/688/341 202/474/341 298/696/341
f 419/688/341 298/696/341 300/697/341
f 372/698/341 427/699/341 438/700/341
f 438/700/341 419/688/341 300/697/341
f 438/700/341 300/697/341 305/701/341
f 352/702/341 372/698/341 438/700/341
f 354/703/341 352/702/341 438/700/341
f 438/700/341 305/701/341 307/704/341
f 438/700/341 307/704/341 302/705/341
f 350/706/341 354/703/341 438/700/341
f 356/707/341 350/706/341 438/700/341
f 438/700/341 302/705/341 303/708/341
f 438/700/341 303/708/341 304/709/341
f 346/710/341 356/707/341 438/700/341
f 348/711/341 346/710/341 438/700/341
f 438/700/341 304/709/341 308/712/341
f 438/700/341 308/712/341 309/713/341
f 348/711/341 438/700/341 309/713/341
f 348/711/341 309/713/341 306/714/341
f 344/715/341 348/711/341 306/714/341
f 344/715/341 306/714/341 301/716/341
f 342/717/341 344/715/341 301/716/341
f 342/717/341 301/716/341 299/718/341
f 343/719/341 342/717/341 299/718/341
f 297/720/341 295/465/341 218/653/341
f 343/719/341 299/718/341 297/720/341
f 347/721/341 343/719/341 297/720/341
f 297/720/341 218/653/341 222/722/341
f 297/720/341 222/722/341 220/723/341
f 345/724/341 347/721/341 297/720/341
f 355/725/341 345/724/341 297/720/341
f 297/720/341 220/723/341 242/726/341
f 297/720/341 242/726/341 227/727/341
f 349/728/341 355/725/341 297/720/341
f 353/729/341 349/728/341 297/720/341
f 297/720/341 227/727/341 231/730/341
f 297/720/341 231/730/341 229/731/341
f 351/732/341 353/729/341 297/720/341
f 373/733/341 351/732/341 297/720/341
f 297/720/341 229/731/341 241/734/341
f 373/733/341 297/720/341 241/734/341
f 204/460/341 361/735/341 357/468/341
f 357/468/341 373/733/341 241/734/341
f 357/468/341 241/734/341 233/736/341
f 236/642/341 204/460/341 357/468/341
f 235/737/341 236/642/341 357/468/341
f 357/468/341 233/736/341 239/738/341
f 357/468/341 239/738/341 237/466/341
f 234/467/341 235/737/341 357/468/341
f 428/739/341 427/699/341 372/698/341
f 428/739/341 372/698/341 358/740/341
f 425/741/341 428/739/341 358/740/341
f 205/472/341 430/655/341 434/742/341
f 205/472/341 434/742/341 432/743/341
f 425/741/341 358/740/341 362/469/341
f 436/744/341 425/741/341 362/469/341
f 205/472/341 432/743/341 433/745/341
f 205/472/341 433/745/341 410/746/341
f 431/747/341 436/744/341 362/469/341
f 409/748/341 431/747/341 362/469/341
f 205/472/341 410/746/341 408/749/341
f 205/472/341 408/749/341 407/470/341
f 406/471/341 409/748/341 362/469/341
f 362/469/341 205/472/341 407/470/341
f 359/750/341 361/735/341 204/460/341
f 205/472/341 362/469/341 360/751/341
f 205/472/341 360/751/341 371/752/341
f 370/753/341 359/750/341 204/460/341
f 363/754/341 370/753/341 204/460/341
f 205/472/341 371/752/341 364/755/341
f 205/472/341 364/755/341 369/756/341
f 368/757/341 363/754/341 204/460/341
f 366/758/341 368/757/341 204/460/341
f 205/472/341 369/756/341 367/759/341
f 365/473/341 366/758/341 204/460/341
f 205/472/341 367/759/341 365/473/341
f 200/474/342 202/474/342 205/472/342
f 199/460/340 204/460/340 203/459/340
f 201/472/343 205/472/343 204/460/343
f 198/459/344 203/459/344 202/474/344
f 461/760/345 460/761/345 404/762/345
f 461/760/345 404/762/345 384/763/345
f 458/764/345 461/760/345 384/763/345
f 458/764/345 384/763/345 386/765/345
f 456/766/345 458/764/345 386/765/345
f 456/766/345 386/765/345 382/767/345
f 457/768/345 456/766/345 382/767/345
f 457/768/345 382/767/345 388/769/345
f 454/770/345 457/768/345 388/769/345
f 454/770/345 388/769/345 378/771/345
f 453/772/345 454/770/345 378/771/345
f 453/772/345 378/771/345 380/773/345
f 455/774/345 453/772/345 380/773/345
f 455/774/345 380/773/345 376/775/345
f 452/776/345 455/774/345 376/775/345
f 452/776/345 376/775/345 374/777/345
f 389/778/345 393/779/345 208/460/345
f 208/460/345 269/780/345 268/781/345
f 208/460/345 268/781/345 267/782/345
f 405/783/345 389/778/345 208/460/345
f 383/784/345 405/783/345 208/460/345
f 208/460/345 267/782/345 270/466/345
f 208/460/345 270/466/345 272/785/345
f 385/786/345 383/784/345 208/460/345
f 381/787/345 385/786/345 208/460/345
f 208/460/345 272/785/345 266/736/345
f 208/460/345 266/736/345 274/788/345
f 387/789/345 381/787/345 208/460/345
f 377/790/345 387/789/345 208/460/345
f 208/460/345 274/788/345 262/791/345
f 208/460/345 262/791/345 264/792/345
f 377/790/345 208/460/345 264/792/345
f 377/790/345 264/792/345 260/727/345
f 379/793/345 377/790/345 260/727/345
f 379/793/345 260/727/345 275/726/345
f 375/794/345 379/793/345 275/726/345
f 375/794/345 275/726/345 253/723/345
f 374/777/345 375/794/345 253/723/345
f 374/777/345 253/723/345 255/722/345
f 452/776/345 374/777/345 255/722/345
f 452/776/345 255/722/345 251/795/345
f 471/796/345 452/776/345 251/795/345
f 471/796/345 251/795/345 258/464/345
f 444/797/345 471/796/345 258/464/345
f 444/797/345 258/464/345 247/664/345
f 446/798/345 444/797/345 247/664/345
f 209/472/345 466/799/345 469/800/345
f 321/801/345 323/802/345 206/474/345
f 341/803/345 321/801/345 206/474/345
f 209/472/345 469/800/345 470/804/345
f 209/472/345 470/804/345 450/805/345
f 326/806/345 341/803/345 206/474/345
f 330/807/345 326/806/345 206/474/345
f 209/472/345 450/805/345 451/808/345
f 209/472/345 451/808/345 448/809/345
f 328/810/345 330/807/345 206/474/345
f 338/811/345 328/810/345 206/474/345
f 206/474/345 209/472/345 448/809/345
f 206/474/345 448/809/345 449/812/345
f 332/813/345 338/811/345 206/474/345
f 206/474/345 449/812/345 447/814/345
f 206/474/345 447/814/345 445/815/345
f 332/813/345 206/474/345 445/815/345
f 332/813/345 445/815/345 446/798/345
f 336/816/345 332/813/345 446/798/345
f 334/817/345 336/816/345 446/798/345
f 333/818/345 334/817/345 446/798/345
f 333/818/345 446/798/345 247/664/345
f 335/819/345 333/818/345 247/664/345
f 335/819/345 247/664/345 249/661/345
f 337/820/345 335/819/345 249/661/345
f 337/820/345 249/661/345 245/660/345
f 331/821/345 337/820/345 245/660/345
f 331/821/345 245/660/345 243/657/345
f 339/822/345 331/821/345 243/657/345
f 244/475/345 248/823/345 207/459/345
f 339/822/345 243/657/345 244/475/345
f 327/824/345 339/822/345 244/475/345
f 244/475/345 207/459/345 320/825/345
f 244/475/345 320/825/345 319/826/345
f 329/827/345 327/824/345 244/475/345
f 325/477/345 329/827/345 244/475/345
f 244/475/345 319/826/345 340/476/345
f 465/828/345 466/799/345 209/472/345
f 390/829/345 404/762/345 460/761/345
f 390/829/345 460/761/345 459/830/345
f 468/831/345 465/828/345 209/472/345
f 467/832/345 468/831/345 209/472/345
f 394/478/345 390/829/345 459/830/345
f 394/478/345 459/830/345 462/833/345
f 443/834/345 467/832/345 209/472/345
f 441/835/345 443/834/345 209/472/345
f 394/478/345 462/833/345 464/836/345
f 394/478/345 464/836/345 463/837/345
f 440/838/345 441/835/345 209/472/345
f 440/838/345 209/472/345 394/478/345
f 394/478/345 463/837/345 442/479/345
f 439/480/345 440/838/345 394/478/345
f 392/839/345 394/478/345 209/472/345
f 208/460/345 393/779/345 391/840/345
f 208/460/345 391/840/345 402/841/345
f 403/842/345 392/839/345 209/472/345
f 396/843/345 403/842/345 209/472/345
f 208/460/345 402/841/345 395/844/345
f 208/460/345 395/844/345 400/845/345
f 401/756/345 396/843/345 209/472/345
f 399/846/345 401/756/345 209/472/345
f 208/460/345 400/845/345 398/847/345
f 397/473/345 399/846/345 209/472/345
f 208/460/345 398/847/345 397/473/345
f 322/848/345 320/825/345 207/459/345
f 206/474/345 323/802/345 318/849/345
f 206/474/345 318/849/345 324/850/345
f 317/851/345 322/848/345 207/459/345
f 315/852/345 317/851/345 207/459/345
f 206/474/345 324/850/345 314/853/345
f 206/474/345 314/853/345 316/854/345
f 313/855/345 315/852/345 207/459/345
f 311/856/345 313/855/345 207/459/345
f 206/474/345 316/854/345 312/689/345
f 310/481/345 311/856/345 207/459/345
f 206/474/345 312/689/345 310/481/345
f 271/643/345 269/780/345 208/460/345
f 207/459/345 248/823/345 246/857/345
f 207/459/345 246/857/345 257/858/345
f 265/859/345 271/643/345 208/460/345
f 273/647/345 265/859/345 208/460/345
f 207/459/345 257/858/345 250/860/345
f 207/459/345 250/860/345 254/649/345
f 261/648/345 273/647/345 208/460/345
f 263/861/345 261/648/345 208/460/345
f 207/459/345 254/649/345 252/462/345
f 207/459/345 252/462/345 256/461/345
f 259/482/345 263/861/345 208/460/345
f 207/459/345 256/461/345 259/482/345
f 199/460/343 208/460/343 209/472/343
f 200/474/344 206/474/344 207/459/344
f 201/472/342 209/472/342 206/474/342
f 227/483/346 242/862/346 275/484/346
f 231/486/347 227/483/347 260/485/347
f 229/488/348 231/486/348 264/487/348
f 241/490/349 229/488/349 262/489/349
f 241/490/350 274/491/350 266/492/350
f 233/493/351 266/492/351 272/494/351
f 239/495/352 272/494/352 270/496/352
f 237/497/353 270/496/353 267/498/353
f 234/499/354 267/498/354 268/500/354
f 269/502/355 271/626/355 238/504/355
f 236/503/355 235/501/355 268/500/355
f 269/502/355 238/504/355 236/503/355
f 238/504/356 271/626/356 265/505/356
f 232/506/357 265/505/357 273/507/357
f 240/508/358 273/507/358 261/509/358
f 228/510/359 261/509/359 263/511/359
f 230/512/360 263/511/360 259/513/360
f 226/514/361 259/513/361 256/515/361
f 223/516/362 256/515/362 252/517/362
f 219/518/363 252/517/363 254/519/363
f 221/520/364 254/519/364 250/521/364
f 217/522/365 250/521/365 257/523/365
f 213/525/366 224/524/366 257/523/366
f 215/527/367 213/525/367 246/526/367
f 211/529/368 215/527/368 248/528/368
f 210/531/369 211/529/369 244/530/369
f 212/533/370 210/531/370 243/532/370
f 216/535/371 212/533/371 245/534/371
f 214/537/372 216/535/372 249/536/372
f 225/539/373 214/537/373 247/538/373
f 218/541/374 225/539/374 258/540/374
f 222/543/375 218/541/375 251/542/375
f 220/545/376 222/543/376 255/544/376
f 242/547/377 220/545/377 253/546/377
f 300/549/346 298/863/346 341/550/346
f 305/552/347 300/549/347 326/551/347
f 307/554/348 305/552/348 330/553/348
f 302/556/349 307/554/349 328/555/349
f 302/556/350 338/557/350 332/558/350
f 303/559/351 332/558/351 336/560/351
f 304/561/352 336/560/352 334/562/352
f 308/563/353 334/562/353 333/564/353
f 309/565/354 333/564/354 335/566/354
f 306/567/355 335/566/355 337/568/355
f 301/569/356 337/568/356 331/570/356
f 299/571/357 331/570/357 339/572/357
f 297/573/358 339/572/358 327/574/358
f 327/574/358 294/578/358 295/575/358
f 294/578/359 327/574/359 329/576/359
f 329/576/359 292/579/359 293/577/359
f 292/579/360 329/576/360 325/580/360
f 290/581/361 325/580/361 340/582/361
f 286/583/362 340/582/362 319/584/362
f 287/585/363 319/584/363 320/586/363
f 285/587/364 320/586/364 322/588/364
f 288/589/365 322/588/365 317/590/365
f 281/592/366 283/591/366 317/590/366
f 279/594/367 281/592/367 315/593/367
f 277/596/368 279/594/368 313/595/368
f 276/598/369 277/596/369 311/597/369
f 278/600/370 276/598/370 310/599/370
f 280/602/371 278/600/371 312/601/371
f 282/604/372 280/602/372 316/603/372
f 284/606/373 282/604/373 314/605/373
f 289/608/374 284/606/374 324/607/374
f 291/610/375 289/608/375 318/609/375
f 296/612/376 291/610/376 323/611/376
f 298/614/377 296/612/377 321/613/377
f 358/549/346 372/863/346 404/550/346
f 362/616/347 358/549/347 390/551/347
f 360/554/348 362/616/348 394/617/348
f 371/556/349 360/554/349 392/555/349
f 371/556/350 403/557/350 396/558/350
f 364/559/351 396/558/351 401/560/351
f 369/561/352 401/560/352 399/562/352
f 367/563/353 399/562/353 397/564/353
f 365/565/354 397/564/354 398/566/354
f 366/567/355 398/566/355 400/568/355
f 368/569/356 400/568/356 395/570/356
f 363/571/357 395/570/357 402/572/357
f 370/573/358 402/572/358 391/574/358
f 359/578/359 391/574/359 393/618/359
f 361/619/360 393/618/360 389/580/360
f 357/581/361 389/580/361 405/582/361
f 373/583/362 405/582/362 383/584/362
f 351/585/363 383/584/363 385/620/363
f 353/587/364 385/620/364 381/588/364
f 349/589/365 381/588/365 387/590/365
f 345/592/366 355/591/366 387/590/366
f 347/594/367 345/592/367 377/593/367
f 343/596/368 347/594/368 379/595/368
f 342/598/369 343/596/369 375/597/369
f 344/600/370 342/598/370 374/599/370
f 348/602/371 344/600/371 376/601/371
f 346/604/372 348/602/372 380/603/372
f 356/606/373 346/604/373 378/605/373
f 350/608/374 356/606/374 388/607/374
f 354/610/375 350/608/375 382/609/375
f 352/612/376 354/610/376 386/621/376
f 372/614/377 352/612/377 384/613/377
f 429/483/346 424/864/346 451/484/346
f 426/622/347 429/483/347 450/485/347
f 435/623/348 426/622/348 470/487/348
f 430/624/349 435/623/349 469/489/349
f 430/624/350 466/625/350 465/492/350
f 434/493/351 465/492/351 468/494/351
f 432/495/352 468/494/352 467/496/352
f 433/497/353 467/496/353 443/498/353
f 410/499/354 443/498/354 441/500/354
f 408/501/355 441/500/355 440/626/355
f 407/504/356 440/626/356 439/505/356
f 406/506/357 439/505/357 442/507/357
f 409/627/358 442/507/358 463/509/358
f 431/510/359 463/509/359 464/511/359
f 436/628/360 464/511/360 462/513/360
f 425/629/361 462/513/361 459/515/361
f 461/517/362 438/633/362 427/631/362
f 427/631/362 428/630/362 459/515/362
f 460/632/362 461/517/362 427/631/362
f 438/633/363 461/517/363 458/519/363
f 419/520/364 458/519/364 456/521/364
f 421/522/365 456/521/365 457/523/365
f 423/525/366 417/634/366 457/523/366
f 414/635/367 423/525/367 454/526/367
f 412/529/368 414/635/368 453/636/368
f 411/531/369 412/529/369 455/530/369
f 413/533/370 411/531/370 452/532/370
f 415/535/371 413/533/371 471/534/371
f 416/637/372 415/535/372 444/536/372
f 418/638/373 416/637/373 446/538/373
f 422/541/374 418/638/374 445/540/374
f 420/543/375 422/541/375 447/542/375
f 437/639/376 420/543/376 449/544/376
f 424/547/377 437/639/377 448/546/377
