# Blender 5.0.0
# www.blender.org
o Sphere
v -0.000000 -0.331878 -0.211571
v -0.000000 -0.331878 -0.121040
v -0.008831 -0.331878 -0.210701
v -0.017322 -0.331878 -0.208125
v -0.025148 -0.331878 -0.203942
v -0.032008 -0.331878 -0.198313
v -0.037637 -0.331878 -0.191453
v -0.041820 -0.331878 -0.183627
v -0.044396 -0.331878 -0.175136
v -0.045266 -0.331878 -0.166305
v -0.044396 -0.331878 -0.157474
v -0.041820 -0.331878 -0.148983
v -0.037637 -0.331878 -0.141157
v -0.032008 -0.331878 -0.134297
v -0.025148 -0.331878 -0.128668
v -0.017322 -0.331878 -0.124485
v -0.008831 -0.331878 -0.121909
v -0.008661 -0.333601 -0.210701
v -0.016990 -0.335257 -0.208125
v -0.024665 -0.336784 -0.203942
v -0.031393 -0.338122 -0.198313
v -0.036914 -0.339221 -0.191453
v -0.041016 -0.340037 -0.183627
v -0.043543 -0.340539 -0.175136
v -0.044396 -0.340709 -0.166305
v -0.043543 -0.340539 -0.157474
v -0.041016 -0.340037 -0.148983
v -0.036914 -0.339221 -0.141157
v -0.031393 -0.338122 -0.134297
v -0.024665 -0.336784 -0.128668
v -0.016990 -0.335257 -0.124485
v -0.008661 -0.333601 -0.121909
v -0.008159 -0.335257 -0.210701
v -0.016004 -0.338507 -0.208125
v -0.023234 -0.341502 -0.203942
v -0.029571 -0.344127 -0.198313
v -0.034772 -0.346281 -0.191453
v -0.038637 -0.347882 -0.183627
v -0.041016 -0.348868 -0.175136
v -0.041820 -0.349200 -0.166305
v -0.041016 -0.348868 -0.157474
v -0.038637 -0.347882 -0.148983
v -0.034772 -0.346281 -0.141157
v -0.029571 -0.344127 -0.134297
v -0.023234 -0.341502 -0.128668
v -0.016004 -0.338507 -0.124485
v -0.008159 -0.335257 -0.121909
v -0.007343 -0.336784 -0.210701
v -0.014403 -0.341502 -0.208125
v -0.020910 -0.345850 -0.203942
v -0.026613 -0.349660 -0.198313
v -0.031294 -0.352788 -0.191453
v -0.034772 -0.355112 -0.183627
v -0.036914 -0.356543 -0.175136
v -0.037637 -0.357026 -0.166305
v -0.036914 -0.356543 -0.157474
v -0.034772 -0.355112 -0.148983
v -0.031294 -0.352788 -0.141157
v -0.026613 -0.349660 -0.134297
v -0.020910 -0.345850 -0.128668
v -0.014403 -0.341502 -0.124485
v -0.007343 -0.336784 -0.121909
v -0.006244 -0.338122 -0.210701
v -0.012249 -0.344127 -0.208125
v -0.017782 -0.349660 -0.203942
v -0.022633 -0.354511 -0.198313
v -0.026613 -0.358491 -0.191453
v -0.029571 -0.361449 -0.183627
v -0.031393 -0.363271 -0.175136
v -0.032008 -0.363886 -0.166305
v -0.031393 -0.363271 -0.157474
v -0.029571 -0.361449 -0.148983
v -0.026613 -0.358491 -0.141157
v -0.022633 -0.354511 -0.134297
v -0.017782 -0.349660 -0.128668
v -0.012249 -0.344127 -0.124485
v -0.006244 -0.338122 -0.121909
v -0.004906 -0.339221 -0.210701
v -0.009624 -0.346281 -0.208125
v -0.013972 -0.352788 -0.203942
v -0.017782 -0.358491 -0.198313
v -0.020910 -0.363172 -0.191453
v -0.023234 -0.366650 -0.183627
v -0.024665 -0.368792 -0.175136
v -0.025148 -0.369515 -0.166305
v -0.024665 -0.368792 -0.157474
v -0.023234 -0.366650 -0.148983
v -0.020910 -0.363172 -0.141157
v -0.017782 -0.358491 -0.134297
v -0.013972 -0.352788 -0.128668
v -0.009624 -0.346281 -0.124485
v -0.004906 -0.339221 -0.121909
v -0.003379 -0.340037 -0.210701
v -0.006629 -0.347882 -0.208125
v -0.009624 -0.355112 -0.203942
v -0.012249 -0.361449 -0.198313
v -0.014403 -0.366650 -0.191453
v -0.016004 -0.370515 -0.183627
v -0.016990 -0.372894 -0.175136
v -0.017322 -0.373698 -0.166305
v -0.016990 -0.372894 -0.157474
v -0.016004 -0.370515 -0.148983
v -0.014403 -0.366650 -0.141157
v -0.012249 -0.361449 -0.134297
v -0.009624 -0.355112 -0.128668
v -0.006629 -0.347882 -0.124485
v -0.003379 -0.340037 -0.121909
v -0.001723 -0.340539 -0.210701
v -0.003379 -0.348868 -0.208125
v -0.004906 -0.356543 -0.203942
v -0.006244 -0.363271 -0.198313
v -0.007343 -0.368792 -0.191453
v -0.008159 -0.372894 -0.183627
v -0.008661 -0.375421 -0.175136
v -0.008831 -0.376274 -0.166305
v -0.008661 -0.375421 -0.157474
v -0.008159 -0.372894 -0.148983
v -0.007343 -0.368792 -0.141157
v -0.006244 -0.363271 -0.134297
v -0.004906 -0.356543 -0.128668
v -0.003379 -0.348868 -0.124485
v -0.001723 -0.340539 -0.121909
v -0.000000 -0.340709 -0.210701
v -0.000000 -0.349200 -0.208125
v -0.000000 -0.357026 -0.203942
v -0.000000 -0.363886 -0.198313
v -0.000000 -0.369515 -0.191453
v -0.000000 -0.373698 -0.183627
v -0.000000 -0.376274 -0.175136
v -0.000000 -0.377144 -0.166305
v -0.000000 -0.376274 -0.157474
v -0.000000 -0.373698 -0.148983
v -0.000000 -0.369515 -0.141157
v -0.000000 -0.363886 -0.134297
v -0.000000 -0.357026 -0.128668
v -0.000000 -0.349200 -0.124485
v -0.000000 -0.340709 -0.121909
v 0.001723 -0.340539 -0.210701
v 0.003379 -0.348868 -0.208125
v 0.004906 -0.356543 -0.203942
v 0.006244 -0.363271 -0.198313
v 0.007343 -0.368792 -0.191453
v 0.008159 -0.372894 -0.183627
v 0.008661 -0.375421 -0.175136
v 0.008831 -0.376274 -0.166305
v 0.008661 -0.375421 -0.157474
v 0.008159 -0.372894 -0.148983
v 0.007343 -0.368792 -0.141157
v 0.006244 -0.363271 -0.134297
v 0.004906 -0.356543 -0.128668
v 0.003379 -0.348868 -0.124485
v 0.001723 -0.340539 -0.121909
v 0.003379 -0.340037 -0.210701
v 0.006629 -0.347882 -0.208125
v 0.009624 -0.355112 -0.203942
v 0.012249 -0.361449 -0.198313
v 0.014403 -0.366650 -0.191453
v 0.016004 -0.370515 -0.183627
v 0.016990 -0.372894 -0.175136
v 0.017322 -0.373698 -0.166305
v 0.016990 -0.372894 -0.157474
v 0.016004 -0.370515 -0.148983
v 0.014403 -0.366650 -0.141157
v 0.012249 -0.361449 -0.134297
v 0.009624 -0.355112 -0.128668
v 0.006629 -0.347882 -0.124485
v 0.003379 -0.340037 -0.121909
v 0.004906 -0.339221 -0.210701
v 0.009624 -0.346281 -0.208125
v 0.013972 -0.352788 -0.203942
v 0.017782 -0.358491 -0.198313
v 0.020910 -0.363172 -0.191453
v 0.023234 -0.366650 -0.183627
v 0.024665 -0.368792 -0.175136
v 0.025148 -0.369515 -0.166305
v 0.024665 -0.368792 -0.157474
v 0.023234 -0.366650 -0.148983
v 0.020910 -0.363172 -0.141157
v 0.017782 -0.358491 -0.134297
v 0.013972 -0.352788 -0.128668
v 0.009624 -0.346281 -0.124485
v 0.004906 -0.339221 -0.121909
v 0.006244 -0.338122 -0.210701
v 0.012249 -0.344127 -0.208125
v 0.017782 -0.349660 -0.203942
v 0.022633 -0.354511 -0.198313
v 0.026613 -0.358491 -0.191453
v 0.029571 -0.361449 -0.183627
v 0.031393 -0.363271 -0.175136
v 0.032008 -0.363886 -0.166305
v 0.031393 -0.363271 -0.157474
v 0.029571 -0.361449 -0.148983
v 0.026613 -0.358491 -0.141157
v 0.022633 -0.354511 -0.134297
v 0.017782 -0.349660 -0.128668
v 0.012249 -0.344127 -0.124485
v 0.006244 -0.338122 -0.121909
v 0.007343 -0.336784 -0.210701
v 0.014403 -0.341502 -0.208125
v 0.020910 -0.345850 -0.203942
v 0.026613 -0.349660 -0.198313
v 0.031294 -0.352788 -0.191453
v 0.034772 -0.355112 -0.183627
v 0.036914 -0.356543 -0.175136
v 0.037637 -0.357026 -0.166305
v 0.036914 -0.356543 -0.157474
v 0.034772 -0.355112 -0.148983
v 0.031294 -0.352788 -0.141157
v 0.026613 -0.349660 -0.134297
v 0.020910 -0.345850 -0.128668
v 0.014403 -0.341502 -0.124485
v 0.007343 -0.336784 -0.121909
v 0.008159 -0.335257 -0.210701
v 0.016004 -0.338507 -0.208125
v 0.023234 -0.341502 -0.203942
v 0.029571 -0.344127 -0.198313
v 0.034772 -0.346281 -0.191453
v 0.038637 -0.347882 -0.183627
v 0.041016 -0.348868 -0.175136
v 0.041820 -0.349200 -0.166305
v 0.041016 -0.348868 -0.157474
v 0.038637 -0.347882 -0.148983
v 0.034772 -0.346281 -0.141157
v 0.029571 -0.344127 -0.134297
v 0.023234 -0.341502 -0.128668
v 0.016004 -0.338507 -0.124485
v 0.008159 -0.335257 -0.121909
v 0.008661 -0.333601 -0.210701
v 0.016990 -0.335257 -0.208125
v 0.024665 -0.336784 -0.203942
v 0.031393 -0.338122 -0.198313
v 0.036914 -0.339221 -0.191453
v 0.041016 -0.340037 -0.183627
v 0.043543 -0.340539 -0.175136
v 0.044396 -0.340709 -0.166305
v 0.043543 -0.340539 -0.157474
v 0.041016 -0.340037 -0.148983
v 0.036914 -0.339221 -0.141157
v 0.031393 -0.338122 -0.134297
v 0.024665 -0.336784 -0.128668
v 0.016990 -0.335257 -0.124485
v 0.008661 -0.333601 -0.121909
v 0.008831 -0.331878 -0.210701
v 0.017322 -0.331878 -0.208125
v 0.025148 -0.331878 -0.203942
v 0.032008 -0.331878 -0.198313
v 0.037637 -0.331878 -0.191453
v 0.041820 -0.331878 -0.183627
v 0.044396 -0.331878 -0.175136
v 0.045265 -0.331878 -0.166305
v 0.044396 -0.331878 -0.157474
v 0.041820 -0.331878 -0.148983
v 0.037637 -0.331878 -0.141157
v 0.032008 -0.331878 -0.134297
v 0.025148 -0.331878 -0.128668
v 0.017322 -0.331878 -0.124485
v 0.008831 -0.331878 -0.121909
vn -0.0000 1.0000 -0.0000
vn -0.6331 -0.0623 0.7715
vn -0.6331 -0.0623 0.7716
vn -0.8786 -0.0865 -0.4696
vn -0.8786 -0.0866 -0.4696
vn -0.4709 -0.0463 0.8810
vn -0.9527 -0.0939 -0.2891
vn -0.9527 -0.0938 -0.2890
vn -0.2902 -0.0286 0.9565
vn -0.2902 -0.0285 0.9565
vn -0.2902 -0.0286 0.9566
vn -0.9904 -0.0976 -0.0976
vn -0.9904 -0.0976 -0.0975
vn -0.0980 -0.0097 -0.9951
vn -0.0979 -0.0097 0.9951
vn -0.9904 -0.0976 0.0976
vn -0.9904 -0.0975 0.0976
vn -0.2902 -0.0286 -0.9565
vn -0.2902 -0.0285 -0.9565
vn -0.9527 -0.0939 0.2891
vn -0.4709 -0.0463 -0.8810
vn -0.4709 -0.0464 -0.8810
vn -0.8786 -0.0865 0.4696
vn -0.6331 -0.0623 -0.7715
vn -0.6331 -0.0623 -0.7716
vn -0.6331 -0.0624 -0.7716
vn -0.7708 -0.0759 0.6325
vn -0.7708 -0.0759 -0.6325
vn -0.9161 -0.2779 0.2890
vn -0.9161 -0.2778 0.2889
vn -0.4528 -0.1373 -0.8810
vn -0.4528 -0.1374 -0.8810
vn -0.8449 -0.2563 0.4696
vn -0.6088 -0.1847 -0.7715
vn -0.7412 -0.2249 0.6325
vn -0.7412 -0.2249 -0.6325
vn -0.6088 -0.1847 0.7715
vn -0.8449 -0.2563 -0.4696
vn -0.8449 -0.2562 -0.4697
vn -0.4528 -0.1373 0.8810
vn -0.4528 -0.1374 0.8810
vn -0.9161 -0.2779 -0.2890
vn -0.9161 -0.2779 -0.2891
vn -0.2790 -0.0846 0.9565
vn -0.2790 -0.0846 0.9566
vn -0.9524 -0.2889 -0.0976
vn -0.0943 -0.0286 -0.9951
vn -0.0942 -0.0285 0.9951
vn -0.9524 -0.2889 0.0976
vn -0.2790 -0.0846 -0.9565
vn -0.2790 -0.0847 -0.9565
vn -0.4173 -0.2230 0.8810
vn -0.4173 -0.2231 0.8810
vn -0.8443 -0.4513 -0.2890
vn -0.8443 -0.4512 -0.2890
vn -0.2572 -0.1375 0.9565
vn -0.2572 -0.1374 0.9565
vn -0.8777 -0.4691 -0.0975
vn -0.0869 -0.0464 -0.9951
vn -0.0868 -0.0464 0.9951
vn -0.8777 -0.4691 0.0975
vn -0.2572 -0.1375 -0.9565
vn -0.2572 -0.1374 -0.9565
vn -0.8443 -0.4513 0.2890
vn -0.4173 -0.2230 -0.8810
vn -0.4173 -0.2231 -0.8810
vn -0.7786 -0.4162 0.4696
vn -0.5611 -0.2999 -0.7715
vn -0.5611 -0.3000 -0.7715
vn -0.6830 -0.3651 0.6326
vn -0.6831 -0.3651 0.6325
vn -0.6830 -0.3652 0.6326
vn -0.6830 -0.3651 -0.6326
vn -0.6831 -0.3651 -0.6325
vn -0.5611 -0.2999 0.7715
vn -0.7786 -0.4162 -0.4696
vn -0.7786 -0.4162 -0.4697
vn -0.3658 -0.3002 -0.8810
vn -0.3657 -0.3002 -0.8810
vn -0.6824 -0.5601 0.4696
vn -0.4917 -0.4036 -0.7715
vn -0.4918 -0.4036 -0.7715
vn -0.4919 -0.4036 -0.7715
vn -0.5987 -0.4914 0.6325
vn -0.5987 -0.4913 0.6325
vn -0.5988 -0.4913 0.6326
vn -0.5987 -0.4914 -0.6325
vn -0.5987 -0.4913 -0.6325
vn -0.4917 -0.4036 0.7715
vn -0.4918 -0.4036 0.7715
vn -0.4917 -0.4037 0.7716
vn -0.6824 -0.5601 -0.4696
vn -0.6825 -0.5601 -0.4696
vn -0.3658 -0.3002 0.8810
vn -0.3657 -0.3002 0.8810
vn -0.3658 -0.3002 0.8809
vn -0.7400 -0.6073 -0.2891
vn -0.7400 -0.6073 -0.2890
vn -0.2253 -0.1850 0.9566
vn -0.2254 -0.1850 0.9565
vn -0.7694 -0.6313 -0.0975
vn -0.0761 -0.0625 -0.9951
vn -0.0760 -0.0625 0.9951
vn -0.7694 -0.6313 0.0975
vn -0.2253 -0.1850 -0.9566
vn -0.2254 -0.1850 -0.9565
vn -0.7400 -0.6073 0.2891
vn -0.6073 -0.7400 -0.2891
vn -0.6073 -0.7400 -0.2890
vn -0.1850 -0.2254 0.9565
vn -0.1850 -0.2253 0.9566
vn -0.6313 -0.7694 -0.0975
vn -0.0625 -0.0761 -0.9951
vn -0.0625 -0.0760 0.9951
vn -0.6313 -0.7694 0.0975
vn -0.1850 -0.2254 -0.9565
vn -0.1850 -0.2253 -0.9566
vn -0.6073 -0.7400 0.2891
vn -0.3002 -0.3657 -0.8810
vn -0.3002 -0.3658 -0.8810
vn -0.5601 -0.6824 0.4696
vn -0.4036 -0.4918 -0.7715
vn -0.4036 -0.4917 -0.7715
vn -0.4036 -0.4919 -0.7715
vn -0.4913 -0.5987 0.6325
vn -0.4914 -0.5987 0.6325
vn -0.4913 -0.5988 0.6326
vn -0.4913 -0.5987 -0.6325
vn -0.4914 -0.5987 -0.6325
vn -0.4036 -0.4918 0.7715
vn -0.4036 -0.4917 0.7715
vn -0.4037 -0.4917 0.7716
vn -0.5601 -0.6824 -0.4696
vn -0.3002 -0.3657 0.8810
vn -0.3002 -0.3658 0.8810
vn -0.3002 -0.3658 0.8809
vn -0.4162 -0.7786 0.4696
vn -0.2999 -0.5611 -0.7715
vn -0.3000 -0.5611 -0.7715
vn -0.3651 -0.6831 0.6325
vn -0.3651 -0.6830 0.6326
vn -0.3651 -0.6831 -0.6325
vn -0.3651 -0.6831 -0.6326
vn -0.2999 -0.5611 0.7715
vn -0.4162 -0.7786 -0.4696
vn -0.4162 -0.7786 -0.4697
vn -0.2231 -0.4173 0.8810
vn -0.2230 -0.4173 0.8810
vn -0.4513 -0.8443 -0.2890
vn -0.4512 -0.8443 -0.2890
vn -0.1374 -0.2572 0.9565
vn -0.1375 -0.2572 0.9565
vn -0.4691 -0.8777 -0.0975
vn -0.0464 -0.0869 -0.9951
vn -0.0464 -0.0868 0.9951
vn -0.4691 -0.8777 0.0975
vn -0.1374 -0.2572 -0.9565
vn -0.1375 -0.2572 -0.9565
vn -0.4513 -0.8443 0.2890
vn -0.2231 -0.4173 -0.8810
vn -0.2230 -0.4173 -0.8810
vn -0.0846 -0.2790 0.9566
vn -0.0846 -0.2790 0.9565
vn -0.2889 -0.9524 -0.0976
vn -0.2889 -0.9524 -0.0975
vn -0.0286 -0.0943 -0.9951
vn -0.0285 -0.0942 0.9951
vn -0.2889 -0.9524 0.0976
vn -0.0846 -0.2790 -0.9566
vn -0.0846 -0.2790 -0.9565
vn -0.0847 -0.2790 -0.9565
vn -0.2779 -0.9161 0.2890
vn -0.2778 -0.9161 0.2889
vn -0.1374 -0.4528 -0.8810
vn -0.1373 -0.4528 -0.8810
vn -0.2563 -0.8449 0.4696
vn -0.1847 -0.6088 -0.7715
vn -0.2249 -0.7412 0.6325
vn -0.2249 -0.7412 -0.6325
vn -0.1847 -0.6088 0.7715
vn -0.2563 -0.8449 -0.4696
vn -0.2562 -0.8449 -0.4697
vn -0.1374 -0.4528 0.8810
vn -0.1373 -0.4528 0.8810
vn -0.2779 -0.9161 -0.2890
vn -0.2779 -0.9161 -0.2891
vn -0.0624 -0.6331 -0.7715
vn -0.0623 -0.6331 -0.7715
vn -0.0624 -0.6331 -0.7716
vn -0.0759 -0.7708 0.6325
vn -0.0759 -0.7708 -0.6325
vn -0.0623 -0.6331 0.7715
vn -0.0866 -0.8786 -0.4696
vn -0.0865 -0.8786 -0.4696
vn -0.0463 -0.4709 0.8810
vn -0.0939 -0.9527 -0.2891
vn -0.0938 -0.9527 -0.2890
vn -0.0285 -0.2902 0.9565
vn -0.0286 -0.2902 0.9565
vn -0.0286 -0.2902 0.9566
vn -0.0976 -0.9904 -0.0976
vn -0.0976 -0.9904 -0.0975
vn -0.0097 -0.0980 -0.9951
vn -0.0097 -0.0979 0.9951
vn -0.0976 -0.9904 0.0976
vn -0.0975 -0.9904 0.0976
vn -0.0285 -0.2902 -0.9565
vn -0.0286 -0.2902 -0.9565
vn -0.0939 -0.9527 0.2891
vn -0.0463 -0.4709 -0.8810
vn -0.0464 -0.4709 -0.8810
vn -0.0866 -0.8786 0.4696
vn -0.0865 -0.8786 0.4696
vn -0.0865 -0.8787 0.4696
vn 0.0976 -0.9904 -0.0976
vn 0.0976 -0.9904 -0.0975
vn 0.0097 -0.0980 -0.9951
vn 0.0097 -0.0979 0.9951
vn 0.0976 -0.9904 0.0976
vn 0.0975 -0.9904 0.0976
vn 0.0286 -0.2902 -0.9565
vn 0.0285 -0.2902 -0.9565
vn 0.0939 -0.9527 0.2891
vn 0.0463 -0.4709 -0.8810
vn 0.0464 -0.4709 -0.8810
vn 0.0865 -0.8786 0.4696
vn 0.0866 -0.8786 0.4696
vn 0.0865 -0.8787 0.4696
vn 0.0623 -0.6331 -0.7715
vn 0.0624 -0.6331 -0.7715
vn 0.0624 -0.6331 -0.7716
vn 0.0759 -0.7708 0.6325
vn 0.0759 -0.7708 -0.6325
vn 0.0623 -0.6331 0.7715
vn 0.0865 -0.8786 -0.4696
vn 0.0866 -0.8786 -0.4696
vn 0.0463 -0.4709 0.8810
vn 0.0939 -0.9527 -0.2891
vn 0.0938 -0.9527 -0.2890
vn 0.0286 -0.2902 0.9565
vn 0.0285 -0.2902 0.9565
vn 0.0286 -0.2902 0.9566
vn 0.2249 -0.7412 0.6325
vn 0.2249 -0.7412 -0.6325
vn 0.1847 -0.6088 0.7715
vn 0.2563 -0.8449 -0.4696
vn 0.2562 -0.8449 -0.4697
vn 0.1373 -0.4528 0.8810
vn 0.1374 -0.4528 0.8810
vn 0.2779 -0.9161 -0.2890
vn 0.2779 -0.9161 -0.2891
vn 0.0846 -0.2790 0.9565
vn 0.0846 -0.2790 0.9566
vn 0.2889 -0.9524 -0.0976
vn 0.0286 -0.0943 -0.9951
vn 0.0285 -0.0942 0.9951
vn 0.2889 -0.9524 0.0976
vn 0.0846 -0.2790 -0.9565
vn 0.0846 -0.2790 -0.9566
vn 0.0847 -0.2790 -0.9565
vn 0.2779 -0.9161 0.2890
vn 0.2778 -0.9161 0.2889
vn 0.1373 -0.4528 -0.8810
vn 0.1374 -0.4528 -0.8810
vn 0.2563 -0.8449 0.4696
vn 0.1847 -0.6088 -0.7715
vn 0.0464 -0.0868 0.9951
vn 0.4691 -0.8777 0.0975
vn 0.1375 -0.2572 -0.9565
vn 0.1374 -0.2572 -0.9565
vn 0.4513 -0.8443 0.2890
vn 0.2230 -0.4173 -0.8810
vn 0.2231 -0.4173 -0.8810
vn 0.4162 -0.7786 0.4696
vn 0.2999 -0.5611 -0.7715
vn 0.3000 -0.5611 -0.7715
vn 0.3651 -0.6830 0.6326
vn 0.3651 -0.6831 0.6325
vn 0.3652 -0.6830 0.6326
vn 0.3651 -0.6830 -0.6326
vn 0.3651 -0.6831 -0.6325
vn 0.2999 -0.5611 0.7715
vn 0.4162 -0.7786 -0.4696
vn 0.4162 -0.7786 -0.4697
vn 0.2231 -0.4173 0.8810
vn 0.4513 -0.8443 -0.2890
vn 0.4512 -0.8443 -0.2890
vn 0.1375 -0.2572 0.9565
vn 0.1374 -0.2572 0.9565
vn 0.4691 -0.8777 -0.0975
vn 0.0464 -0.0869 -0.9951
vn 0.4036 -0.4917 0.7715
vn 0.4036 -0.4918 0.7715
vn 0.4037 -0.4917 0.7716
vn 0.5601 -0.6824 -0.4696
vn 0.3002 -0.3658 0.8810
vn 0.3002 -0.3657 0.8810
vn 0.3002 -0.3658 0.8809
vn 0.6073 -0.7400 -0.2891
vn 0.6073 -0.7400 -0.2890
vn 0.1850 -0.2253 0.9566
vn 0.1850 -0.2254 0.9565
vn 0.1851 -0.2253 0.9566
vn 0.6313 -0.7694 -0.0975
vn 0.0625 -0.0761 -0.9951
vn 0.0625 -0.0760 0.9951
vn 0.6313 -0.7694 0.0975
vn 0.1850 -0.2253 -0.9566
vn 0.1850 -0.2254 -0.9565
vn 0.6073 -0.7400 0.2891
vn 0.3002 -0.3658 -0.8810
vn 0.3002 -0.3657 -0.8810
vn 0.5601 -0.6824 0.4696
vn 0.4036 -0.4917 -0.7715
vn 0.4036 -0.4918 -0.7715
vn 0.4036 -0.4919 -0.7715
vn 0.4914 -0.5987 0.6325
vn 0.4913 -0.5987 0.6325
vn 0.4913 -0.5988 0.6326
vn 0.4914 -0.5987 -0.6325
vn 0.4913 -0.5987 -0.6325
vn 0.2254 -0.1850 -0.9565
vn 0.2253 -0.1850 -0.9566
vn 0.7400 -0.6073 0.2891
vn 0.3657 -0.3002 -0.8810
vn 0.3658 -0.3002 -0.8810
vn 0.6824 -0.5601 0.4696
vn 0.4918 -0.4036 -0.7715
vn 0.4917 -0.4036 -0.7715
vn 0.4919 -0.4036 -0.7715
vn 0.5987 -0.4913 0.6325
vn 0.5987 -0.4914 0.6325
vn 0.5988 -0.4913 0.6326
vn 0.5987 -0.4913 -0.6325
vn 0.5987 -0.4914 -0.6325
vn 0.4918 -0.4036 0.7715
vn 0.4917 -0.4036 0.7715
vn 0.4917 -0.4037 0.7716
vn 0.6824 -0.5601 -0.4696
vn 0.6825 -0.5601 -0.4696
vn 0.3657 -0.3002 0.8810
vn 0.3658 -0.3002 0.8810
vn 0.3658 -0.3002 0.8809
vn 0.7400 -0.6073 -0.2891
vn 0.7400 -0.6073 -0.2890
vn 0.2254 -0.1850 0.9565
vn 0.2253 -0.1850 0.9566
vn 0.7694 -0.6313 -0.0975
vn 0.0761 -0.0625 -0.9951
vn 0.0760 -0.0625 0.9951
vn 0.7694 -0.6313 0.0975
vn 0.7786 -0.4162 -0.4696
vn 0.7786 -0.4162 -0.4697
vn 0.4173 -0.2231 0.8810
vn 0.4173 -0.2230 0.8810
vn 0.8443 -0.4513 -0.2890
vn 0.8443 -0.4512 -0.2890
vn 0.2572 -0.1374 0.9565
vn 0.2572 -0.1375 0.9565
vn 0.8777 -0.4691 -0.0975
vn 0.0869 -0.0464 -0.9951
vn 0.0868 -0.0464 0.9951
vn 0.8777 -0.4691 0.0975
vn 0.2572 -0.1374 -0.9565
vn 0.2572 -0.1375 -0.9565
vn 0.8443 -0.4513 0.2890
vn 0.4173 -0.2231 -0.8810
vn 0.4173 -0.2230 -0.8810
vn 0.7786 -0.4162 0.4696
vn 0.5611 -0.2999 -0.7715
vn 0.5611 -0.3000 -0.7715
vn 0.6831 -0.3651 0.6325
vn 0.6830 -0.3651 0.6326
vn 0.6830 -0.3652 0.6326
vn 0.6831 -0.3651 -0.6325
vn 0.6830 -0.3651 -0.6326
vn 0.5611 -0.2999 0.7715
vn 0.9161 -0.2779 0.2890
vn 0.9161 -0.2778 0.2889
vn 0.4528 -0.1374 -0.8810
vn 0.4528 -0.1373 -0.8810
vn 0.8449 -0.2563 0.4696
vn 0.6088 -0.1847 -0.7715
vn 0.7412 -0.2249 0.6325
vn 0.7412 -0.2249 -0.6325
vn 0.6088 -0.1847 0.7715
vn 0.8449 -0.2563 -0.4696
vn 0.8449 -0.2562 -0.4697
vn 0.4528 -0.1374 0.8810
vn 0.4528 -0.1373 0.8810
vn 0.9161 -0.2779 -0.2890
vn 0.9161 -0.2779 -0.2891
vn 0.2790 -0.0846 0.9565
vn 0.2790 -0.0846 0.9566
vn 0.9524 -0.2889 -0.0976
vn 0.0943 -0.0286 -0.9951
vn 0.0942 -0.0285 0.9951
vn 0.9524 -0.2889 0.0976
vn 0.2790 -0.0846 -0.9565
vn 0.2790 -0.0847 -0.9565
vn 0.4709 -0.0463 0.8810
vn 0.9527 -0.0939 -0.2891
vn 0.9527 -0.0938 -0.2890
vn 0.2902 -0.0285 0.9565
vn 0.2902 -0.0286 0.9565
vn 0.2902 -0.0286 0.9566
vn 0.9904 -0.0975 -0.0975
vn 0.0980 -0.0097 -0.9951
vn 0.0979 -0.0097 0.9951
vn 0.9904 -0.0975 0.0975
vn 0.2902 -0.0285 -0.9565
vn 0.2902 -0.0286 -0.9565
vn 0.9527 -0.0939 0.2891
vn 0.4709 -0.0463 -0.8810
vn 0.4709 -0.0464 -0.8810
vn 0.8786 -0.0865 0.4696
vn 0.6331 -0.0623 -0.7716
vn 0.6331 -0.0623 -0.7715
vn 0.6331 -0.0624 -0.7715
vn 0.7708 -0.0759 0.6325
vn 0.7708 -0.0759 -0.6325
vn 0.6331 -0.0623 0.7716
vn 0.6331 -0.0623 0.7715
vn 0.8786 -0.0866 -0.4696
vn 0.8786 -0.0865 -0.4696
vn -0.6331 -0.0624 0.7716
vn -0.4709 -0.0464 0.8810
vn -0.9904 -0.0975 -0.0976
vn -0.9904 -0.0976 0.0975
vn -0.9527 -0.0938 0.2890
vn -0.8786 -0.0866 0.4696
vn -0.9161 -0.2779 0.2891
vn -0.8449 -0.2562 0.4697
vn -0.9161 -0.2778 -0.2889
vn -0.2790 -0.0847 0.9565
vn -0.2790 -0.0846 -0.9566
vn -0.8443 -0.4512 0.2890
vn -0.7786 -0.4162 0.4697
vn -0.5611 -0.3000 0.7715
vn -0.3658 -0.3002 -0.8809
vn -0.4917 -0.4037 -0.7716
vn -0.5988 -0.4913 -0.6326
vn -0.4919 -0.4036 0.7715
vn -0.7400 -0.6073 0.2890
vn -0.1851 -0.2253 -0.9566
vn -0.6073 -0.7400 0.2890
vn -0.3002 -0.3658 -0.8809
vn -0.4037 -0.4917 -0.7716
vn -0.4913 -0.5988 -0.6326
vn -0.4036 -0.4919 0.7715
vn -0.4162 -0.7786 0.4697
vn -0.3652 -0.6830 -0.6326
vn -0.3000 -0.5611 0.7715
vn -0.4512 -0.8443 0.2890
vn -0.0847 -0.2790 0.9565
vn -0.2889 -0.9524 0.0975
vn -0.2779 -0.9161 0.2891
vn -0.2562 -0.8449 0.4697
vn -0.2778 -0.9161 -0.2889
vn -0.0624 -0.6331 0.7716
vn -0.0464 -0.4709 0.8810
vn -0.0975 -0.9904 -0.0976
vn -0.0976 -0.9904 0.0975
vn -0.0286 -0.2902 -0.9566
vn -0.0938 -0.9527 0.2890
vn 0.0975 -0.9904 -0.0976
vn 0.0976 -0.9904 0.0975
vn 0.0286 -0.2902 -0.9566
vn 0.0938 -0.9527 0.2890
vn 0.0624 -0.6331 0.7716
vn 0.0865 -0.8787 -0.4696
vn 0.0464 -0.4709 0.8810
vn 0.2778 -0.9161 -0.2889
vn 0.0847 -0.2790 0.9565
vn 0.2779 -0.9161 0.2891
vn 0.2562 -0.8449 0.4697
vn 0.4512 -0.8443 0.2890
vn 0.4162 -0.7786 0.4697
vn 0.3652 -0.6830 -0.6326
vn 0.3000 -0.5611 0.7715
vn 0.2230 -0.4173 0.8810
vn 0.4036 -0.4919 0.7715
vn 0.6073 -0.7400 0.2890
vn 0.3002 -0.3658 -0.8809
vn 0.4037 -0.4917 -0.7716
vn 0.4913 -0.5988 -0.6326
vn 0.7400 -0.6073 0.2890
vn 0.3658 -0.3002 -0.8809
vn 0.4917 -0.4037 -0.7716
vn 0.5988 -0.4913 -0.6326
vn 0.4919 -0.4036 0.7715
vn 0.8443 -0.4512 0.2890
vn 0.7786 -0.4162 0.4697
vn 0.6830 -0.3652 -0.6326
vn 0.5611 -0.3000 0.7715
vn 0.9161 -0.2779 0.2891
vn 0.8449 -0.2562 0.4697
vn 0.9161 -0.2778 -0.2889
vn 0.2790 -0.0847 0.9565
vn 0.2790 -0.0846 -0.9566
vn 0.4709 -0.0464 0.8810
vn 0.9527 -0.0938 0.2890
vn 0.8786 -0.0866 0.4696
vn 0.6331 -0.0624 0.7716
vt 0.500000 0.500000
vt 0.484375 0.000000
vt 0.000000 0.500000
vt 0.500000 0.187500
vt 0.468750 0.250000
vt 0.468750 0.187500
vt 0.500000 0.687500
vt 0.468750 0.625000
vt 0.500000 0.625000
vt 0.468750 0.125000
vt 0.500000 0.125000
vt 0.468750 0.562500
vt 0.500000 0.562500
vt 0.500000 0.062500
vt 0.468750 0.062500
vt 0.468750 0.500000
vt 0.500000 0.937500
vt 0.484375 1.000000
vt 0.468750 0.937500
vt 0.468750 0.437500
vt 0.500000 0.437500
vt 0.468750 0.875000
vt 0.500000 0.875000
vt 0.500000 0.375000
vt 0.468750 0.375000
vt 0.500000 0.812500
vt 0.468750 0.812500
vt 0.500000 0.312500
vt 0.468750 0.312500
vt 0.468750 0.750000
vt 0.500000 0.750000
vt 0.500000 0.250000
vt 0.468750 0.687500
vt 0.437500 0.437500
vt 0.437500 0.375000
vt 0.437500 0.875000
vt 0.437500 0.812500
vt 0.437500 0.312500
vt 0.437500 0.750000
vt 0.437500 0.250000
vt 0.437500 0.687500
vt 0.437500 0.187500
vt 0.437500 0.625000
vt 0.437500 0.125000
vt 0.437500 0.562500
vt 0.437500 0.062500
vt 0.437500 0.500000
vt 0.453125 1.000000
vt 0.437500 0.937500
vt 0.453125 0.000000
vt 0.406250 0.125000
vt 0.406250 0.625000
vt 0.406250 0.562500
vt 0.406250 0.062500
vt 0.406250 0.500000
vt 0.421875 1.000000
vt 0.406250 0.937500
vt 0.421875 0.000000
vt 0.406250 0.437500
vt 0.406250 0.875000
vt 0.406250 0.375000
vt 0.406250 0.812500
vt 0.406250 0.312500
vt 0.406250 0.750000
vt 0.406250 0.250000
vt 0.406250 0.687500
vt 0.406250 0.187500
vt 0.375000 0.812500
vt 0.375000 0.375000
vt 0.375000 0.312500
vt 0.375000 0.750000
vt 0.375000 0.250000
vt 0.375000 0.687500
vt 0.375000 0.187500
vt 0.375000 0.625000
vt 0.375000 0.125000
vt 0.375000 0.562500
vt 0.375000 0.062500
vt 0.375000 0.500000
vt 0.390625 1.000000
vt 0.375000 0.937500
vt 0.390625 0.000000
vt 0.375000 0.437500
vt 0.375000 0.875000
vt 0.343750 0.625000
vt 0.343750 0.562500
vt 0.343750 0.062500
vt 0.343750 0.500000
vt 0.359375 1.000000
vt 0.343750 0.937500
vt 0.359375 0.000000
vt 0.343750 0.437500
vt 0.343750 0.875000
vt 0.343750 0.375000
vt 0.343750 0.812500
vt 0.343750 0.312500
vt 0.343750 0.750000
vt 0.343750 0.250000
vt 0.343750 0.687500
vt 0.343750 0.187500
vt 0.343750 0.125000
vt 0.312500 0.312500
vt 0.312500 0.812500
vt 0.312500 0.750000
vt 0.312500 0.250000
vt 0.312500 0.687500
vt 0.312500 0.187500
vt 0.312500 0.625000
vt 0.312500 0.125000
vt 0.312500 0.562500
vt 0.312500 0.062500
vt 0.312500 0.500000
vt 0.328125 1.000000
vt 0.312500 0.937500
vt 0.328125 0.000000
vt 0.312500 0.437500
vt 0.312500 0.875000
vt 0.312500 0.375000
vt 0.281250 0.125000
vt 0.281250 0.062500
vt 0.281250 0.562500
vt 0.281250 0.500000
vt 0.296875 1.000000
vt 0.281250 0.937500
vt 0.296875 0.000000
vt 0.281250 0.437500
vt 0.281250 0.875000
vt 0.281250 0.375000
vt 0.281250 0.812500
vt 0.281250 0.312500
vt 0.281250 0.750000
vt 0.281250 0.250000
vt 0.281250 0.687500
vt 0.281250 0.187500
vt 0.281250 0.625000
vt 0.250000 0.812500
vt 0.250000 0.750000
vt 0.250000 0.312500
vt 0.250000 0.250000
vt 0.250000 0.687500
vt 0.250000 0.187500
vt 0.250000 0.625000
vt 0.250000 0.125000
vt 0.250000 0.562500
vt 0.250000 0.062500
vt 0.250000 0.500000
vt 0.265625 1.000000
vt 0.250000 0.937500
vt 0.265625 0.000000
vt 0.250000 0.437500
vt 0.250000 0.875000
vt 0.250000 0.375000
vt 0.218750 0.562500
vt 0.218750 0.500000
vt 0.234375 1.000000
vt 0.218750 0.937500
vt 0.234375 0.000000
vt 0.218750 0.062500
vt 0.218750 0.437500
vt 0.218750 0.875000
vt 0.218750 0.375000
vt 0.218750 0.812500
vt 0.218750 0.312500
vt 0.218750 0.750000
vt 0.218750 0.250000
vt 0.218750 0.687500
vt 0.218750 0.187500
vt 0.218750 0.625000
vt 0.218750 0.125000
vt 0.187500 0.312500
vt 0.187500 0.250000
vt 0.187500 0.687500
vt 0.187500 0.187500
vt 0.187500 0.625000
vt 0.187500 0.125000
vt 0.187500 0.562500
vt 0.187500 0.062500
vt 0.187500 0.500000
vt 0.203125 1.000000
vt 0.187500 0.937500
vt 0.203125 0.000000
vt 0.187500 0.437500
vt 0.187500 0.875000
vt 0.187500 0.375000
vt 0.187500 0.812500
vt 0.187500 0.750000
vt 0.171875 0.000000
vt 0.156250 0.062500
vt 0.156250 0.500000
vt 0.156250 0.437500
vt 0.156250 0.937500
vt 0.156250 0.875000
vt 0.156250 0.375000
vt 0.156250 0.812500
vt 0.156250 0.312500
vt 0.156250 0.750000
vt 0.156250 0.250000
vt 0.156250 0.687500
vt 0.156250 0.187500
vt 0.156250 0.625000
vt 0.156250 0.125000
vt 0.156250 0.562500
vt 0.171875 1.000000
vt 0.125000 0.250000
vt 0.125000 0.187500
vt 0.125000 0.625000
vt 0.125000 0.125000
vt 0.125000 0.562500
vt 0.125000 0.062500
vt 0.125000 0.500000
vt 0.140625 1.000000
vt 0.125000 0.937500
vt 0.140625 0.000000
vt 0.125000 0.437500
vt 0.125000 0.875000
vt 0.125000 0.375000
vt 0.125000 0.812500
vt 0.125000 0.312500
vt 0.125000 0.750000
vt 0.125000 0.687500
vt 0.093750 0.937500
vt 0.093750 0.875000
vt 0.093750 0.375000
vt 0.093750 0.812500
vt 0.093750 0.312500
vt 0.093750 0.750000
vt 0.093750 0.250000
vt 0.093750 0.687500
vt 0.093750 0.187500
vt 0.093750 0.625000
vt 0.093750 0.125000
vt 0.093750 0.562500
vt 0.093750 0.062500
vt 0.093750 0.500000
vt 0.109375 1.000000
vt 0.109375 0.000000
vt 0.093750 0.437500
vt 0.062500 0.687500
vt 0.062500 0.625000
vt 0.062500 0.187500
vt 0.062500 0.125000
vt 0.062500 0.562500
vt 0.062500 0.062500
vt 0.062500 0.500000
vt 0.078125 1.000000
vt 0.062500 0.937500
vt 0.078125 0.000000
vt 0.062500 0.437500
vt 0.062500 0.875000
vt 0.062500 0.375000
vt 0.062500 0.812500
vt 0.062500 0.312500
vt 0.062500 0.750000
vt 0.062500 0.250000
vt 0.031250 0.375000
vt 0.031250 0.812500
vt 0.031250 0.312500
vt 0.031250 0.750000
vt 0.031250 0.250000
vt 0.031250 0.687500
vt 0.031250 0.187500
vt 0.031250 0.625000
vt 0.031250 0.125000
vt 0.031250 0.562500
vt 0.031250 0.062500
vt 0.031250 0.500000
vt 0.046875 1.000000
vt 0.031250 0.937500
vt 0.046875 0.000000
vt 0.031250 0.437500
vt 0.031250 0.875000
vt 0.000000 0.187500
vt 0.000000 0.125000
vt 0.000000 0.625000
vt 0.000000 0.562500
vt 0.000000 0.062500
vt 0.015625 1.000000
vt 0.000000 0.937500
vt 0.015625 0.000000
vt 0.000000 0.437500
vt 0.000000 0.875000
vt 0.000000 0.375000
vt 0.000000 0.812500
vt 0.000000 0.312500
vt 0.000000 0.750000
vt 0.000000 0.250000
vt 0.000000 0.687500
s 1
f 10/1/1 2/2/1 250/3/1
f 15/4/2 29/5/3 30/6/2
f 7/7/4 23/8/5 8/9/5
f 15/4/6 31/10/6 16/11/6
f 8/9/7 24/12/7 9/13/8
f 17/14/9 31/10/10 32/15/11
f 10/1/12 24/12/12 25/16/13
f 3/17/14 1/18/14 18/19/14
f 2/2/15 17/14/15 32/15/15
f 10/1/16 26/20/16 11/21/17
f 3/17/18 19/22/19 4/23/19
f 12/24/20 26/20/20 27/25/20
f 5/26/21 19/22/21 20/27/22
f 13/28/23 27/25/23 28/29/23
f 5/26/24 21/30/25 6/31/26
f 13/28/27 29/5/27 14/32/27
f 7/7/28 21/30/28 22/33/28
f 27/25/29 41/34/29 42/35/30
f 20/27/31 34/36/32 35/37/31
f 27/25/33 43/38/33 28/29/33
f 20/27/34 36/39/34 21/30/34
f 29/5/35 43/38/35 44/40/35
f 21/30/36 37/41/36 22/33/36
f 30/6/37 44/40/37 45/42/37
f 23/8/38 37/41/38 38/43/39
f 30/6/40 46/44/41 31/10/41
f 23/8/42 39/45/42 24/12/43
f 31/10/44 47/46/44 32/15/45
f 24/12/46 40/47/46 25/16/46
f 18/19/47 1/48/47 33/49/47
f 2/50/48 32/15/48 47/46/48
f 26/20/49 40/47/49 41/34/49
f 19/22/50 33/49/50 34/36/51
f 45/42/52 61/51/53 46/44/53
f 39/45/54 53/52/54 54/53/55
f 46/44/56 62/54/57 47/46/57
f 39/45/58 55/55/58 40/47/58
f 33/49/59 1/56/59 48/57/59
f 2/58/60 47/46/60 62/54/60
f 41/34/61 55/55/61 56/59/61
f 34/36/62 48/57/63 49/60/62
f 41/34/64 57/61/64 42/35/64
f 35/37/65 49/60/66 50/62/65
f 43/38/67 57/61/67 58/63/67
f 35/37/68 51/64/68 36/39/69
f 44/40/70 58/63/71 59/65/72
f 36/39/73 52/66/74 37/41/74
f 45/42/75 59/65/75 60/67/75
f 37/41/76 53/52/76 38/43/77
f 49/60/78 65/68/79 50/62/79
f 58/63/80 72/69/80 73/70/80
f 50/62/81 66/71/82 51/64/83
f 58/63/84 74/72/85 59/65/86
f 52/66/87 66/71/88 67/73/87
f 60/67/89 74/72/90 75/74/91
f 52/66/92 68/75/92 53/52/93
f 61/51/94 75/74/95 76/76/96
f 53/52/97 69/77/97 54/53/98
f 62/54/99 76/76/100 77/78/99
f 55/55/101 69/77/101 70/79/101
f 48/57/102 1/80/102 63/81/102
f 2/82/103 62/54/103 77/78/103
f 55/55/104 71/83/104 56/59/104
f 48/57/105 64/84/106 49/60/106
f 57/61/107 71/83/107 72/69/107
f 69/77/108 83/85/108 84/86/109
f 76/76/110 92/87/111 77/78/111
f 69/77/112 85/88/112 70/79/112
f 63/81/113 1/89/113 78/90/113
f 2/91/114 77/78/114 92/87/114
f 71/83/115 85/88/115 86/92/115
f 64/84/116 78/90/117 79/93/116
f 71/83/118 87/94/118 72/69/118
f 65/68/119 79/93/120 80/95/119
f 72/69/121 88/96/121 73/70/121
f 66/71/122 80/95/123 81/97/124
f 74/72/125 88/96/126 89/98/127
f 66/71/128 82/99/129 67/73/129
f 74/72/130 90/100/131 75/74/132
f 68/75/133 82/99/133 83/85/133
f 75/74/134 91/101/135 76/76/136
f 87/94/137 103/102/137 88/96/137
f 81/97/138 95/103/138 96/104/139
f 88/96/140 104/105/141 89/98/141
f 82/99/142 96/104/143 97/106/142
f 89/98/144 105/107/144 90/100/144
f 83/85/145 97/106/145 98/108/146
f 91/101/147 105/107/148 106/109/147
f 83/85/149 99/110/149 84/86/150
f 92/87/151 106/109/152 107/111/151
f 85/88/153 99/110/153 100/112/153
f 78/90/154 1/113/154 93/114/154
f 2/115/155 92/87/155 107/111/155
f 85/88/156 101/116/156 86/92/156
f 78/90/157 94/117/158 79/93/158
f 87/94/159 101/116/159 102/118/159
f 79/93/160 95/103/161 80/95/161
f 107/111/162 121/119/163 122/120/162
f 100/112/164 114/121/164 115/122/165
f 93/114/166 1/123/166 108/124/166
f 2/125/167 107/111/167 122/120/167
f 100/112/168 116/126/168 101/116/168
f 93/114/169 109/127/170 94/117/171
f 101/116/172 117/128/172 102/118/173
f 94/117/174 110/129/175 95/103/175
f 103/102/176 117/128/176 118/130/176
f 96/104/177 110/129/177 111/131/177
f 103/102/178 119/132/178 104/105/178
f 97/106/179 111/131/179 112/133/179
f 104/105/180 120/134/180 105/107/180
f 97/106/181 113/135/181 98/108/182
f 106/109/183 120/134/184 121/119/183
f 99/110/185 113/135/185 114/121/186
f 111/131/187 125/136/188 126/137/189
f 119/132/190 133/138/190 134/139/190
f 111/131/191 127/140/191 112/133/191
f 119/132/192 135/141/192 120/134/192
f 113/135/193 127/140/194 128/142/193
f 121/119/195 135/141/195 136/143/195
f 114/121/196 128/142/196 129/144/197
f 121/119/198 137/145/199 122/120/200
f 114/121/201 130/146/201 115/122/202
f 108/124/203 1/147/203 123/148/203
f 2/149/204 122/120/204 137/145/204
f 116/126/205 130/146/205 131/150/206
f 109/127/207 123/148/208 124/151/207
f 116/126/209 132/152/209 117/128/209
f 109/127/210 125/136/210 110/129/211
f 117/128/212 133/138/213 118/130/214
f 130/146/215 144/153/215 145/154/216
f 123/148/217 1/155/217 138/156/217
f 2/157/218 137/145/218 152/158/218
f 130/146/219 146/159/219 131/150/220
f 123/148/221 139/160/222 124/151/222
f 132/152/223 146/159/223 147/161/223
f 125/136/224 139/160/224 140/162/225
f 133/138/226 147/161/227 148/163/228
f 125/136/229 141/164/230 126/137/231
f 133/138/232 149/165/232 134/139/232
f 127/140/233 141/164/233 142/166/233
f 135/141/234 149/165/234 150/167/234
f 127/140/235 143/168/236 128/142/236
f 135/141/237 151/169/237 136/143/237
f 128/142/238 144/153/238 129/144/239
f 137/145/240 151/169/241 152/158/242
f 149/165/243 163/170/243 164/171/243
f 141/164/244 157/172/244 142/166/244
f 150/167/245 164/171/245 165/173/245
f 143/168/246 157/172/246 158/174/247
f 150/167/248 166/175/249 151/169/249
f 143/168/250 159/176/250 144/153/251
f 151/169/252 167/177/253 152/158/253
f 144/153/254 160/178/254 145/154/254
f 138/156/255 1/179/255 153/180/255
f 2/181/256 152/158/256 167/177/256
f 146/159/257 160/178/257 161/182/257
f 139/160/258 153/180/259 154/183/260
f 147/161/261 161/182/261 162/184/262
f 140/162/263 154/183/264 155/185/263
f 147/161/265 163/170/265 148/163/265
f 140/162/266 156/186/266 141/164/266
f 2/187/267 167/177/267 182/188/267
f 161/182/268 175/189/268 176/190/268
f 154/183/269 168/191/270 169/192/269
f 161/182/271 177/193/271 162/184/271
f 155/185/272 169/192/273 170/194/272
f 163/170/274 177/193/274 178/195/274
f 155/185/275 171/196/275 156/186/276
f 164/171/277 178/195/278 179/197/279
f 156/186/280 172/198/281 157/172/281
f 165/173/282 179/197/282 180/199/282
f 157/172/283 173/200/283 158/174/284
f 165/173/285 181/201/285 166/175/285
f 159/176/286 173/200/286 174/202/287
f 166/175/288 182/188/289 167/177/289
f 159/176/290 175/189/290 160/178/290
f 153/180/291 1/203/291 168/191/291
f 180/199/292 194/204/293 195/205/294
f 172/198/295 188/206/295 173/200/295
f 181/201/296 195/205/297 196/207/298
f 173/200/299 189/208/299 174/202/300
f 182/188/301 196/207/302 197/209/303
f 175/189/304 189/208/304 190/210/304
f 168/191/305 1/211/305 183/212/305
f 2/213/306 182/188/306 197/209/306
f 175/189/307 191/214/307 176/190/307
f 168/191/308 184/215/309 169/192/309
f 177/193/310 191/214/310 192/216/310
f 169/192/311 185/217/312 170/194/312
f 178/195/313 192/216/313 193/218/313
f 170/194/314 186/219/315 171/196/316
f 178/195/317 194/204/318 179/197/319
f 172/198/320 186/219/321 187/220/320
f 184/215/322 198/221/323 199/222/322
f 191/214/324 207/223/324 192/216/324
f 185/217/325 199/222/326 200/224/325
f 192/216/327 208/225/327 193/218/327
f 186/219/328 200/224/329 201/226/330
f 194/204/331 208/225/332 209/227/333
f 186/219/334 202/228/335 187/220/335
f 194/204/336 210/229/337 195/205/338
f 188/206/339 202/228/339 203/230/340
f 195/205/341 211/231/342 196/207/343
f 189/208/344 203/230/344 204/232/345
f 196/207/346 212/233/347 197/209/347
f 189/208/348 205/234/348 190/210/348
f 183/212/349 1/235/349 198/221/349
f 2/236/350 197/209/350 212/233/350
f 191/214/351 205/234/351 206/237/351
f 203/230/352 217/238/352 218/239/353
f 211/231/354 225/240/355 226/241/354
f 203/230/356 219/242/356 204/232/357
f 212/233/358 226/241/359 227/243/358
f 205/234/360 219/242/360 220/244/360
f 198/221/361 1/245/361 213/246/361
f 2/247/362 212/233/362 227/243/362
f 205/234/363 221/248/363 206/237/363
f 198/221/364 214/249/365 199/222/365
f 207/223/366 221/248/366 222/250/366
f 199/222/367 215/251/368 200/224/368
f 207/223/369 223/252/369 208/225/369
f 201/226/370 215/251/370 216/253/371
f 208/225/372 224/254/373 209/227/374
f 202/228/375 216/253/376 217/238/375
f 209/227/377 225/240/377 210/229/377
f 221/248/378 237/255/378 222/250/379
f 214/249/380 230/256/381 215/251/381
f 223/252/382 237/255/382 238/257/382
f 216/253/383 230/256/383 231/258/383
f 223/252/384 239/259/384 224/254/384
f 217/238/385 231/258/385 232/260/385
f 224/254/386 240/261/386 225/240/386
f 217/238/387 233/262/387 218/239/388
f 226/241/389 240/261/390 241/263/389
f 219/242/391 233/262/391 234/264/392
f 227/243/393 241/263/393 242/265/394
f 220/244/395 234/264/395 235/266/395
f 213/246/396 1/267/396 228/268/396
f 2/269/397 227/243/397 242/265/397
f 220/244/398 236/270/398 221/248/398
f 213/246/399 229/271/399 214/249/400
f 241/263/401 255/272/401 256/273/401
f 234/264/402 248/274/402 249/275/403
f 241/263/404 257/276/405 242/265/406
f 234/264/407 250/3/407 235/266/407
f 228/268/408 1/277/408 243/278/408
f 2/279/409 242/265/409 257/276/409
f 236/270/410 250/3/410 251/280/410
f 229/271/411 243/278/412 244/281/411
f 236/270/413 252/282/413 237/255/413
f 229/271/414 245/283/414 230/256/415
f 237/255/416 253/284/416 238/257/416
f 230/256/417 246/285/418 231/258/419
f 239/259/420 253/284/420 254/286/420
f 231/258/421 247/287/421 232/260/421
f 239/259/422 255/272/423 240/261/423
f 233/262/424 247/287/425 248/274/424
f 250/3/1 249/275/1 248/274/1
f 248/274/1 247/287/1 246/285/1
f 246/285/1 245/283/1 244/281/1
f 244/281/1 243/278/1 1/277/1
f 1/277/1 3/17/1 4/23/1
f 4/23/1 5/26/1 6/31/1
f 6/31/1 7/7/1 8/9/1
f 8/9/1 9/13/1 10/1/1
f 10/1/1 11/21/1 12/24/1
f 12/24/1 13/28/1 14/32/1
f 14/32/1 15/4/1 16/11/1
f 16/11/1 17/14/1 2/2/1
f 2/2/1 257/276/1 256/273/1
f 256/273/1 255/272/1 254/286/1
f 254/286/1 253/284/1 252/282/1
f 252/282/1 251/280/1 250/3/1
f 250/3/1 248/274/1 246/285/1
f 246/285/1 244/281/1 1/277/1
f 1/277/1 4/23/1 6/31/1
f 6/31/1 8/9/1 10/1/1
f 10/1/1 12/24/1 14/32/1
f 14/32/1 16/11/1 2/2/1
f 2/2/1 256/273/1 254/286/1
f 254/286/1 252/282/1 250/3/1
f 250/3/1 246/285/1 1/277/1
f 1/277/1 6/31/1 10/1/1
f 10/1/1 14/32/1 2/2/1
f 2/2/1 254/286/1 250/3/1
f 250/3/1 1/277/1 10/1/1
f 15/4/2 14/32/426 29/5/3
f 7/7/4 22/33/4 23/8/5
f 15/4/6 30/6/427 31/10/6
f 8/9/7 23/8/7 24/12/7
f 17/14/9 16/11/10 31/10/10
f 10/1/12 9/13/428 24/12/12
f 10/1/16 25/16/429 26/20/16
f 3/17/18 18/19/18 19/22/19
f 12/24/20 11/21/430 26/20/20
f 5/26/21 4/23/21 19/22/21
f 13/28/23 12/24/431 27/25/23
f 5/26/24 20/27/24 21/30/25
f 13/28/27 28/29/27 29/5/27
f 7/7/28 6/31/28 21/30/28
f 27/25/29 26/20/432 41/34/29
f 20/27/31 19/22/32 34/36/32
f 27/25/33 42/35/433 43/38/33
f 20/27/34 35/37/34 36/39/34
f 29/5/35 28/29/35 43/38/35
f 21/30/36 36/39/36 37/41/36
f 30/6/37 29/5/37 44/40/37
f 23/8/38 22/33/38 37/41/38
f 30/6/40 45/42/40 46/44/41
f 23/8/42 38/43/434 39/45/42
f 31/10/44 46/44/435 47/46/44
f 24/12/46 39/45/46 40/47/46
f 26/20/49 25/16/49 40/47/49
f 19/22/50 18/19/436 33/49/50
f 45/42/52 60/67/52 61/51/53
f 39/45/54 38/43/54 53/52/54
f 46/44/56 61/51/56 62/54/57
f 39/45/58 54/53/58 55/55/58
f 41/34/61 40/47/61 55/55/61
f 34/36/62 33/49/63 48/57/63
f 41/34/64 56/59/437 57/61/64
f 35/37/65 34/36/66 49/60/66
f 43/38/67 42/35/438 57/61/67
f 35/37/68 50/62/68 51/64/68
f 44/40/70 43/38/71 58/63/71
f 36/39/73 51/64/73 52/66/74
f 45/42/75 44/40/439 59/65/75
f 37/41/76 52/66/76 53/52/76
f 49/60/78 64/84/440 65/68/79
f 58/63/80 57/61/80 72/69/80
f 50/62/81 65/68/441 66/71/82
f 58/63/84 73/70/84 74/72/85
f 52/66/87 51/64/442 66/71/88
f 60/67/89 59/65/443 74/72/90
f 52/66/92 67/73/92 68/75/92
f 61/51/94 60/67/95 75/74/95
f 53/52/97 68/75/97 69/77/97
f 62/54/99 61/51/100 76/76/100
f 55/55/101 54/53/101 69/77/101
f 55/55/104 70/79/104 71/83/104
f 48/57/105 63/81/105 64/84/106
f 57/61/107 56/59/444 71/83/107
f 69/77/108 68/75/108 83/85/108
f 76/76/110 91/101/110 92/87/111
f 69/77/112 84/86/112 85/88/112
f 71/83/115 70/79/115 85/88/115
f 64/84/116 63/81/445 78/90/117
f 71/83/118 86/92/446 87/94/118
f 65/68/119 64/84/447 79/93/120
f 72/69/121 87/94/121 88/96/121
f 66/71/122 65/68/448 80/95/123
f 74/72/125 73/70/126 88/96/126
f 66/71/128 81/97/449 82/99/129
f 74/72/130 89/98/450 90/100/131
f 68/75/133 67/73/133 82/99/133
f 75/74/134 90/100/134 91/101/135
f 87/94/137 102/118/451 103/102/137
f 81/97/138 80/95/138 95/103/138
f 88/96/140 103/102/140 104/105/141
f 82/99/142 81/97/452 96/104/143
f 89/98/144 104/105/453 105/107/144
f 83/85/145 82/99/145 97/106/145
f 91/101/147 90/100/148 105/107/148
f 83/85/149 98/108/149 99/110/149
f 92/87/151 91/101/152 106/109/152
f 85/88/153 84/86/153 99/110/153
f 85/88/156 100/112/156 101/116/156
f 78/90/157 93/114/157 94/117/158
f 87/94/159 86/92/454 101/116/159
f 79/93/160 94/117/160 95/103/161
f 107/111/162 106/109/455 121/119/163
f 100/112/164 99/110/164 114/121/164
f 100/112/168 115/122/456 116/126/168
f 93/114/169 108/124/169 109/127/170
f 101/116/172 116/126/457 117/128/172
f 94/117/174 109/127/174 110/129/175
f 103/102/176 102/118/458 117/128/176
f 96/104/177 95/103/177 110/129/177
f 103/102/178 118/130/178 119/132/178
f 97/106/179 96/104/179 111/131/179
f 104/105/180 119/132/180 120/134/180
f 97/106/181 112/133/181 113/135/181
f 106/109/183 105/107/184 120/134/184
f 99/110/185 98/108/459 113/135/185
f 111/131/187 110/129/188 125/136/188
f 119/132/190 118/130/190 133/138/190
f 111/131/191 126/137/191 127/140/191
f 119/132/192 134/139/460 135/141/192
f 113/135/193 112/133/194 127/140/194
f 121/119/195 120/134/461 135/141/195
f 114/121/196 113/135/196 128/142/196
f 121/119/198 136/143/198 137/145/199
f 114/121/201 129/144/462 130/146/201
f 116/126/205 115/122/463 130/146/205
f 109/127/207 108/124/464 123/148/208
f 116/126/209 131/150/465 132/152/209
f 109/127/210 124/151/210 125/136/210
f 117/128/212 132/152/212 133/138/213
f 130/146/215 129/144/466 144/153/215
f 130/146/219 145/154/467 146/159/219
f 123/148/221 138/156/468 139/160/222
f 132/152/223 131/150/469 146/159/223
f 125/136/224 124/151/224 139/160/224
f 133/138/226 132/152/227 147/161/227
f 125/136/229 140/162/229 141/164/230
f 133/138/232 148/163/232 149/165/232
f 127/140/233 126/137/233 141/164/233
f 135/141/234 134/139/470 149/165/234
f 127/140/235 142/166/471 143/168/236
f 135/141/237 150/167/472 151/169/237
f 128/142/238 143/168/238 144/153/238
f 137/145/240 136/143/241 151/169/241
f 149/165/243 148/163/243 163/170/243
f 141/164/244 156/186/244 157/172/244
f 150/167/245 149/165/245 164/171/245
f 143/168/246 142/166/246 157/172/246
f 150/167/248 165/173/248 166/175/249
f 143/168/250 158/174/473 159/176/250
f 151/169/252 166/175/474 167/177/253
f 144/153/254 159/176/254 160/178/254
f 146/159/257 145/154/257 160/178/257
f 139/160/258 138/156/259 153/180/259
f 147/161/261 146/159/475 161/182/261
f 140/162/263 139/160/264 154/183/264
f 147/161/265 162/184/476 163/170/265
f 140/162/266 155/185/266 156/186/266
f 161/182/268 160/178/268 175/189/268
f 154/183/269 153/180/270 168/191/270
f 161/182/271 176/190/477 177/193/271
f 155/185/272 154/183/273 169/192/273
f 163/170/274 162/184/478 177/193/274
f 155/185/275 170/194/275 171/196/275
f 164/171/277 163/170/278 178/195/278
f 156/186/280 171/196/479 172/198/281
f 165/173/282 164/171/480 179/197/282
f 157/172/283 172/198/283 173/200/283
f 165/173/285 180/199/481 181/201/285
f 159/176/286 158/174/286 173/200/286
f 166/175/288 181/201/288 182/188/289
f 159/176/290 174/202/290 175/189/290
f 180/199/292 179/197/482 194/204/293
f 172/198/295 187/220/295 188/206/295
f 181/201/296 180/199/297 195/205/297
f 173/200/299 188/206/299 189/208/299
f 182/188/301 181/201/302 196/207/302
f 175/189/304 174/202/304 189/208/304
f 175/189/307 190/210/307 191/214/307
f 168/191/308 183/212/308 184/215/309
f 177/193/310 176/190/483 191/214/310
f 169/192/311 184/215/484 185/217/312
f 178/195/313 177/193/313 192/216/313
f 170/194/314 185/217/485 186/219/315
f 178/195/317 193/218/317 194/204/318
f 172/198/320 171/196/486 186/219/321
f 184/215/322 183/212/323 198/221/323
f 191/214/324 206/237/487 207/223/324
f 185/217/325 184/215/488 199/222/326
f 192/216/327 207/223/327 208/225/327
f 186/219/328 185/217/489 200/224/329
f 194/204/331 193/218/332 208/225/332
f 186/219/334 201/226/490 202/228/335
f 194/204/336 209/227/491 210/229/337
f 188/206/339 187/220/339 202/228/339
f 195/205/341 210/229/341 211/231/342
f 189/208/344 188/206/344 203/230/344
f 196/207/346 211/231/346 212/233/347
f 189/208/348 204/232/348 205/234/348
f 191/214/351 190/210/351 205/234/351
f 203/230/352 202/228/352 217/238/352
f 211/231/354 210/229/355 225/240/355
f 203/230/356 218/239/356 219/242/356
f 212/233/358 211/231/359 226/241/359
f 205/234/360 204/232/360 219/242/360
f 205/234/363 220/244/363 221/248/363
f 198/221/364 213/246/364 214/249/365
f 207/223/366 206/237/492 221/248/366
f 199/222/367 214/249/367 215/251/368
f 207/223/369 222/250/493 223/252/369
f 201/226/370 200/224/370 215/251/370
f 208/225/372 223/252/372 224/254/373
f 202/228/375 201/226/494 216/253/376
f 209/227/377 224/254/495 225/240/377
f 221/248/378 236/270/496 237/255/378
f 214/249/380 229/271/380 230/256/381
f 223/252/382 222/250/497 237/255/382
f 216/253/383 215/251/383 230/256/383
f 223/252/384 238/257/384 239/259/384
f 217/238/385 216/253/385 231/258/385
f 224/254/386 239/259/386 240/261/386
f 217/238/387 232/260/387 233/262/387
f 226/241/389 225/240/390 240/261/390
f 219/242/391 218/239/498 233/262/391
f 227/243/393 226/241/499 241/263/393
f 220/244/395 219/242/395 234/264/395
f 220/244/398 235/266/398 236/270/398
f 213/246/399 228/268/500 229/271/399
f 241/263/401 240/261/501 255/272/401
f 234/264/402 233/262/402 248/274/402
f 241/263/404 256/273/404 257/276/405
f 234/264/407 249/275/407 250/3/407
f 236/270/410 235/266/410 250/3/410
f 229/271/411 228/268/412 243/278/412
f 236/270/413 251/280/502 252/282/413
f 229/271/414 244/281/414 245/283/414
f 237/255/416 252/282/503 253/284/416
f 230/256/417 245/283/417 246/285/418
f 239/259/420 238/257/420 253/284/420
f 231/258/421 246/285/421 247/287/421
f 239/259/422 254/286/504 255/272/423
f 233/262/424 232/260/425 247/287/425
