# Blender 5.0.1
# www.blender.org
o Object.096
v -0.026443 -0.012219 0.017872
v -0.033070 -0.006532 0.014948
v -0.029083 -0.012219 0.013146
v 0.036291 -0.006532 0.000000
v 0.039094 -0.000200 0.006703
v 0.035769 -0.006532 0.006133
v 0.031916 -0.012219 0.000000
v 0.039547 0.006604 0.013973
v 0.041339 0.006604 0.007088
v 0.040730 0.013691 0.013982
v 0.041339 0.006604 -0.007089
v 0.042476 0.013691 -0.007088
v 0.043063 0.013691 0.000000
v 0.039664 -0.000200 0.000000
v 0.042476 0.013691 0.007088
v 0.041943 0.006604 0.000000
v 0.031456 -0.012219 0.005395
v 0.026659 -0.017102 0.000000
v 0.026275 -0.017102 0.004505
v 0.020666 -0.021048 0.000000
v 0.020369 -0.021048 0.003492
v 0.014103 -0.023946 0.000000
v 0.013900 -0.023946 0.002384
v 0.007150 -0.025718 0.000000
v 0.025136 -0.017102 0.008881
v 0.027863 -0.012219 0.015565
v 0.024831 -0.012219 0.020051
v 0.023274 -0.017102 0.013001
v -0.005924 -0.025718 0.004004
v -0.011685 -0.023946 0.007897
v -0.012851 -0.023946 0.005809
v 0.013297 -0.023946 0.004698
v 0.007047 -0.025718 0.001208
v -0.006052 -0.021048 0.019760
v -0.012002 -0.017102 0.023804
v -0.009304 -0.021048 0.018453
v -0.000000 -0.026314 0.000000
v 0.004354 -0.021048 0.020202
v 0.007705 -0.021048 0.019176
v 0.005616 -0.017102 0.026061
v -0.003386 -0.017102 0.026443
v -0.002625 -0.021048 0.020499
v 0.000877 -0.021048 0.020648
v 0.020741 -0.017102 0.016748
v 0.016079 -0.021048 0.012983
v 0.018042 -0.021048 0.010079
v 0.013654 -0.021048 0.015513
v 0.013977 -0.017102 0.022701
v 0.010835 -0.021048 0.017598
v 0.001131 -0.017102 0.026635
v 0.019486 -0.021048 0.006885
v -0.024293 -0.017102 0.010981
v -0.018832 -0.021048 0.008512
v -0.017122 -0.021048 0.011572
v -0.015852 -0.017102 0.021434
v -0.012289 -0.021048 0.016615
v -0.024293 -0.017102 -0.010981
v -0.029083 -0.012219 -0.013146
v -0.026443 -0.012219 -0.017872
v -0.014052 -0.023946 0.001196
v -0.014052 -0.023946 -0.001196
v -0.007125 -0.025718 0.000606
v -0.008386 -0.023946 -0.011339
v -0.012289 -0.021048 -0.016616
v -0.009304 -0.021048 -0.018453
v -0.023042 -0.012219 -0.022084
v -0.018978 -0.012219 -0.025660
v -0.019247 -0.017102 -0.018447
v 0.000877 -0.021048 -0.020648
v -0.002625 -0.021048 -0.020499
v 0.001131 -0.017102 -0.026635
v -0.006052 -0.021048 -0.019761
v -0.007807 -0.017102 -0.025491
v 0.007646 -0.006532 -0.035477
v 0.006724 -0.012219 -0.031199
v 0.001354 -0.012219 -0.031887
v 0.005616 -0.017102 -0.026061
v 0.016733 -0.012219 -0.027177
v 0.019028 -0.006532 -0.030903
v 0.023977 -0.006532 -0.027242
v 0.011900 -0.012219 -0.029614
v 0.036617 0.006604 -0.020456
v 0.037873 0.013691 -0.020495
v 0.039547 0.006604 -0.013973
v 0.032633 0.006604 -0.026350
v 0.033983 0.013691 -0.026450
v 0.039094 -0.000200 -0.006704
v 0.037399 -0.000200 -0.013214
v -0.014369 -0.012219 -0.028498
v -0.015852 -0.017102 -0.021434
v -0.003386 -0.017102 -0.026443
v -0.004054 -0.012219 -0.031657
v -0.013648 -0.023946 0.003553
v -0.006516 -0.025718 0.002945
v -0.012851 -0.023946 -0.005809
v -0.006920 -0.025718 -0.001802
v -0.013648 -0.023946 -0.003554
v -0.007807 -0.017102 0.025491
v -0.014920 -0.021048 0.014301
v -0.019247 -0.017102 0.018446
v 0.017613 -0.017102 0.020012
v 0.009940 -0.017102 0.024737
v 0.006742 -0.025718 0.002382
v 0.037873 0.013691 0.020496
v 0.036617 0.006604 0.020455
v 0.037399 -0.000200 0.013214
v 0.034218 -0.006532 0.012090
v 0.030092 -0.012219 0.010632
v -0.007125 -0.025718 -0.000606
v -0.022087 -0.017102 0.014928
v 0.033983 0.013691 0.026450
v 0.032633 0.006604 0.026349
v 0.034628 -0.000200 0.019344
v 0.031683 -0.006532 0.017699
v -0.020000 -0.021048 -0.005207
v -0.018832 -0.021048 -0.008513
v 0.012312 -0.023946 0.006878
v 0.006242 -0.025718 0.003487
v 0.029166 0.013691 0.031682
v 0.027710 0.006604 0.031485
v 0.030860 -0.000200 0.024918
v 0.028236 -0.006532 0.022799
v 0.021086 -0.012219 0.023958
v 0.010972 -0.023946 0.008860
v 0.005563 -0.025718 0.004493
v 0.023553 0.013691 0.036051
v 0.021991 0.006604 0.035715
v 0.026205 -0.000200 0.029775
v 0.023977 -0.006532 0.027243
v 0.016733 -0.012219 0.027177
v 0.009317 -0.023946 0.010586
v 0.004724 -0.025718 0.005367
v 0.017298 0.013691 0.039437
v 0.015639 0.006604 0.038918
v 0.020796 -0.000200 0.033775
v 0.019028 -0.006532 0.030903
v 0.011900 -0.012219 0.029614
v 0.007394 -0.023946 0.012009
v 0.003749 -0.025718 0.006088
v 0.010571 0.013691 0.041745
v 0.008836 0.006604 0.041001
v 0.014789 -0.000200 0.036804
v 0.013531 -0.006532 0.033674
v 0.006724 -0.012219 0.031199
v 0.005258 -0.023946 0.013086
v 0.002666 -0.025718 0.006634
v 0.003556 0.013691 0.042916
v 0.001780 0.006604 0.041906
v 0.008356 -0.000200 0.038774
v 0.007646 -0.006532 0.035476
v 0.001354 -0.012219 0.031887
v 0.002971 -0.023946 0.013786
v 0.001506 -0.025718 0.006989
v -0.003556 0.013691 0.042916
v -0.005328 0.006604 0.041603
v 0.001683 -0.000200 0.039630
v 0.001540 -0.006532 0.036259
v -0.004054 -0.012219 0.031657
v 0.000598 -0.023946 0.014090
v 0.000303 -0.025718 0.007144
v -0.010571 0.013691 0.041745
v -0.012282 0.006604 0.040104
v -0.005038 -0.000200 0.039343
v -0.004610 -0.006532 0.035997
v -0.009346 -0.012219 0.030516
v -0.001791 -0.023946 0.013988
v -0.000908 -0.025718 0.007092
v -0.017298 0.013691 0.039437
v -0.018883 0.006604 0.037453
v -0.011615 -0.000200 0.037926
v -0.010627 -0.006532 0.034700
v -0.014369 -0.012219 0.028498
v -0.004130 -0.023946 0.013485
v -0.002094 -0.025718 0.006837
v -0.023553 0.013691 0.036051
v -0.024941 0.006604 0.033722
v -0.017857 -0.000200 0.035417
v -0.016339 -0.006532 0.032405
v -0.018978 -0.012219 0.025660
v -0.006349 -0.023946 0.012593
v -0.003219 -0.025718 0.006384
v -0.029166 0.013691 0.031682
v -0.030281 0.006604 0.029022
v -0.023586 -0.000200 0.031890
v -0.021580 -0.006532 0.029178
v -0.023042 -0.012219 0.022084
v -0.008386 -0.023946 0.011338
v -0.004252 -0.025718 0.005750
v -0.033983 0.013691 0.026450
v -0.034750 0.006604 0.023487
v -0.028636 -0.000200 0.027445
v -0.026201 -0.006532 0.025111
v -0.010182 -0.023946 0.009758
v -0.005162 -0.025718 0.004947
v -0.037873 0.013691 0.020496
v -0.038220 0.006604 0.017276
v -0.032863 -0.000200 0.022211
v -0.030068 -0.006532 0.020322
v -0.040730 0.013691 0.013982
v -0.040590 0.006604 0.010569
v -0.036144 -0.000200 0.016338
v 0.029166 0.013691 -0.031683
v 0.027710 0.006604 -0.031486
v -0.030886 -0.012219 0.008042
v -0.006920 -0.025718 0.001801
v -0.042476 0.013691 0.007088
v -0.041792 0.006604 0.003557
v -0.038385 -0.000200 0.009994
v -0.035120 -0.006532 0.009144
v -0.025799 -0.017102 0.006717
v -0.020000 -0.021048 0.005207
v -0.031801 -0.012219 0.002706
v -0.043063 0.013691 0.000000
v -0.041792 0.006604 -0.003557
v -0.039522 -0.000200 0.003364
v -0.036161 -0.006532 0.003078
v -0.026563 -0.017102 0.002261
v -0.020592 -0.021048 0.001752
v -0.031801 -0.012219 -0.002707
v -0.042476 0.013691 -0.007088
v -0.040590 0.006604 -0.010569
v -0.039522 -0.000200 -0.003364
v -0.036161 -0.006532 -0.003078
v -0.026563 -0.017102 -0.002261
v -0.020592 -0.021048 -0.001753
v -0.030886 -0.012219 -0.008042
v -0.040730 0.013691 -0.013983
v -0.038220 0.006604 -0.017277
v -0.038385 -0.000200 -0.009995
v -0.035120 -0.006532 -0.009145
v -0.025799 -0.017102 -0.006718
v -0.037873 0.013691 -0.020496
v -0.034750 0.006604 -0.023487
v -0.036144 -0.000200 -0.016338
v -0.033070 -0.006532 -0.014949
v -0.012002 -0.017102 -0.023805
v -0.009346 -0.012219 -0.030517
v -0.022087 -0.017102 -0.014929
v -0.033983 0.013691 -0.026450
v -0.030281 0.006604 -0.029022
v -0.032863 -0.000200 -0.022210
v -0.030068 -0.006532 -0.020322
v -0.017122 -0.021048 -0.011573
v -0.006516 -0.025718 -0.002945
v -0.011685 -0.023946 -0.007897
v -0.029166 0.013691 -0.031683
v -0.024941 0.006604 -0.033722
v -0.028636 -0.000200 -0.027446
v -0.026201 -0.006532 -0.025111
v -0.014920 -0.021048 -0.014300
v -0.005924 -0.025718 -0.004004
v -0.010182 -0.023946 -0.009759
v -0.023553 0.013691 -0.036051
v -0.018883 0.006604 -0.037452
v -0.023586 -0.000200 -0.031890
v -0.021580 -0.006532 -0.029178
v -0.005162 -0.025718 -0.004948
v -0.017298 0.013691 -0.039436
v -0.012282 0.006604 -0.040105
v -0.017857 -0.000200 -0.035418
v -0.016339 -0.006532 -0.032405
v -0.004252 -0.025718 -0.005749
v -0.006349 -0.023946 -0.012593
v -0.010571 0.013691 -0.041746
v -0.005328 0.006604 -0.041603
v -0.011615 -0.000200 -0.037925
v -0.010627 -0.006532 -0.034701
v -0.004130 -0.023946 -0.013484
v -0.003219 -0.025718 -0.006385
v -0.003556 0.013691 -0.042916
v 0.001780 0.006604 -0.041905
v -0.005038 -0.000200 -0.039343
v -0.004610 -0.006532 -0.035997
v -0.001791 -0.023946 -0.013989
v -0.002094 -0.025718 -0.006836
v 0.003556 0.013691 -0.042916
v 0.008836 0.006604 -0.041002
v 0.001683 -0.000200 -0.039629
v 0.001540 -0.006532 -0.036259
v 0.000598 -0.023946 -0.014090
v 0.002971 -0.023946 -0.013787
v 0.001506 -0.025718 -0.006989
v 0.000303 -0.025718 -0.007144
v -0.000908 -0.025718 -0.007092
v 0.010571 0.013691 -0.041746
v 0.015639 0.006604 -0.038919
v 0.008356 -0.000200 -0.038773
v 0.013531 -0.006532 -0.033674
v 0.004354 -0.021048 -0.020203
v 0.009940 -0.017102 -0.024737
v 0.017298 0.013691 -0.039436
v 0.021991 0.006604 -0.035716
v 0.014789 -0.000200 -0.036805
v 0.007705 -0.021048 -0.019176
v 0.005258 -0.023946 -0.013086
v 0.013977 -0.017102 -0.022701
v 0.002666 -0.025718 -0.006635
v 0.023553 0.013691 -0.036051
v 0.020796 -0.000200 -0.033776
v 0.010835 -0.021048 -0.017598
v 0.007394 -0.023946 -0.012009
v 0.013654 -0.021048 -0.015514
v 0.017613 -0.017102 -0.020012
v 0.003749 -0.025718 -0.006089
v 0.027863 -0.012219 -0.015565
v 0.031683 -0.006532 -0.017699
v 0.034218 -0.006532 -0.012090
v 0.026205 -0.000200 -0.029775
v 0.021086 -0.012219 -0.023958
v 0.009317 -0.023946 -0.010587
v 0.016079 -0.021048 -0.012983
v 0.010972 -0.023946 -0.008860
v 0.028236 -0.006532 -0.022798
v 0.030860 -0.000200 -0.024918
v 0.024831 -0.012219 -0.020050
v 0.020741 -0.017102 -0.016747
v 0.004724 -0.025718 -0.005368
v 0.018042 -0.021048 -0.010079
v 0.012312 -0.023946 -0.006878
v 0.034628 -0.000200 -0.019344
v 0.023274 -0.017102 -0.013002
v 0.005563 -0.025718 -0.004492
v 0.019486 -0.021048 -0.006885
v 0.013297 -0.023946 -0.004698
v 0.040730 0.013691 -0.013982
v 0.030092 -0.012219 -0.010633
v 0.025136 -0.017102 -0.008881
v 0.006242 -0.025718 -0.003487
v 0.006742 -0.025718 -0.002382
v 0.035769 -0.006532 -0.006133
v 0.031456 -0.012219 -0.005394
v 0.026275 -0.017102 -0.004506
v 0.020369 -0.021048 -0.003492
v 0.013900 -0.023946 -0.002384
v 0.007047 -0.025718 -0.001209
v 0.033983 0.013691 -0.026450
v 0.038324 0.013691 -0.024223
v 0.037873 0.013691 -0.020495
v -0.023553 0.013691 -0.036051
v -0.029166 0.013691 -0.031683
v -0.025747 0.013691 -0.037319
v -0.019426 0.013691 -0.040966
v -0.017298 0.013691 -0.039436
v -0.031401 0.013691 -0.032705
v -0.033983 0.013691 -0.026450
v -0.012602 0.013691 -0.043552
v -0.010571 0.013691 -0.041746
v -0.040143 0.013691 -0.021075
v -0.036242 0.013691 -0.027242
v -0.037873 0.013691 -0.020496
v -0.003556 0.013691 -0.042916
v -0.005452 0.013691 -0.045009
v -0.040730 0.013691 -0.013983
v -0.042476 0.013691 -0.007088
v -0.043005 0.013691 -0.014361
v 0.003556 0.013691 -0.042916
v 0.001839 0.013691 -0.045301
v 0.017298 0.013691 -0.039436
v 0.022681 0.013691 -0.039257
v 0.023553 0.013691 -0.036051
v 0.009083 0.013691 -0.044419
v 0.010571 0.013691 -0.041746
v -0.031416 0.013691 0.032689
v -0.036252 0.013691 0.027228
v -0.033983 0.013691 0.026450
v 0.045192 0.013691 -0.003647
v 0.043063 0.013691 0.000000
v 0.042476 0.013691 -0.007088
v 0.044021 0.013691 0.010854
v 0.041709 0.013691 0.017775
v 0.040730 0.013691 0.013982
v -0.012627 0.013691 0.043544
v -0.019449 0.013691 0.040954
v -0.017298 0.013691 0.039437
v 0.028667 0.013691 0.035125
v 0.029166 0.013691 0.031682
v 0.033931 0.013691 0.030071
v 0.001812 0.013691 0.045302
v 0.003556 0.013691 0.042916
v 0.009056 0.013691 0.044424
v 0.016066 0.013691 0.042396
v 0.017298 0.013691 0.039437
v 0.022660 0.013691 0.039270
v 0.023553 0.013691 0.036051
v 0.038316 0.013691 0.024237
v 0.033983 0.013691 0.026450
v 0.010571 0.013691 0.041745
v -0.005479 0.013691 0.045006
v -0.003556 0.013691 0.042916
v 0.037873 0.013691 0.020496
v -0.010571 0.013691 0.041745
v 0.045192 0.013691 0.003649
v 0.042476 0.013691 0.007088
v -0.029166 0.013691 0.031682
v -0.025766 0.013691 0.037305
v -0.023553 0.013691 0.036051
v 0.041713 0.013691 -0.017764
v 0.040730 0.013691 -0.013982
v 0.044022 0.013691 -0.010846
v -0.040149 0.013691 0.021062
v -0.043007 0.013691 0.014351
v -0.040730 0.013691 0.013982
v -0.037873 0.013691 0.020496
v 0.028684 0.013691 -0.035111
v 0.029166 0.013691 -0.031683
v 0.033943 0.013691 -0.030056
v 0.016090 0.013691 -0.042386
v -0.043063 0.013691 0.000000
v -0.042476 0.013691 0.007088
v -0.044752 0.013691 0.007275
v -0.045339 0.013691 0.000000
v -0.044752 0.013691 -0.007275
v 0.039347 0.016866 -0.001333
v 0.039280 0.016866 -0.002665
v 0.038652 0.009715 0.002210
v 0.028961 0.014751 0.026586
v 0.023181 0.011281 0.031328
v 0.026840 0.016866 0.028801
v 0.039174 0.016289 0.003883
v 0.039370 0.016866 0.000000
v 0.039098 0.016866 0.004616
v 0.038887 0.015382 0.005967
v 0.038294 0.016866 0.009139
v 0.038706 0.014681 0.006860
v 0.038078 0.011839 0.008648
v 0.035937 0.011941 0.015306
v 0.036367 0.014113 0.014828
v 0.006414 0.016866 0.038845
v 0.010922 0.016866 0.037824
v 0.011281 0.013184 0.037539
v -0.011678 -0.001702 0.032693
v -0.018637 -0.004691 0.027166
v -0.017921 0.000337 0.030913
v 0.003595 0.007908 0.038168
v -0.004168 0.002706 0.036498
v -0.003115 0.009004 0.038451
v -0.023998 -0.011719 -0.012530
v -0.028308 -0.005103 -0.016311
v -0.028959 -0.007160 -0.011583
v -0.031855 0.002243 -0.017928
v -0.032504 -0.000142 -0.014291
v -0.019641 -0.016800 0.005554
v -0.025221 -0.012992 0.004738
v -0.019689 -0.015174 0.011652
v -0.011837 0.016866 0.037548
v -0.009731 0.010334 0.037585
v -0.016057 0.011860 0.035597
v -0.007363 0.016866 0.038675
v -0.030636 0.016866 0.024728
v -0.032171 0.012983 0.022359
v -0.033321 0.016866 0.020969
v -0.027095 0.015310 0.028521
v -0.024052 0.016866 0.031168
v -0.021903 0.013535 0.032545
v -0.037280 0.016866 0.012656
v -0.035541 0.016866 0.016934
v -0.035944 0.012614 0.015491
v -0.038507 0.016866 0.008200
v -0.020239 0.016866 0.033769
v -0.027528 0.016866 0.028144
v -0.016143 0.016866 0.035907
v -0.033055 -0.001883 -0.010290
v -0.019534 -0.012560 0.017395
v -0.025265 -0.011487 0.010382
v -0.030047 -0.008292 0.003780
v -0.024578 -0.013110 -0.006885
v -0.010771 0.004116 0.035658
v -0.013525 -0.017904 0.012574
v -0.013476 -0.019602 0.006204
v -0.005087 -0.003187 0.033496
v -0.012426 -0.006954 0.028779
v -0.002781 0.016866 0.039271
v 0.002559 0.001719 0.036250
v 0.010197 0.007080 0.036746
v 0.016494 0.006544 0.034226
v 0.009211 0.001184 0.034918
v 0.004733 0.014317 0.039002
v 0.001829 0.016866 0.039326
v 0.017492 0.012162 0.034956
v 0.015270 0.016866 0.036287
v 0.019406 0.016866 0.034255
v 0.023287 0.016866 0.031744
v 0.032941 0.013292 0.021262
v 0.028177 0.010566 0.026766
v 0.038396 0.009470 -0.004585
v 0.036994 0.009446 -0.011243
v 0.038181 0.008350 -0.004440
v 0.032799 0.016866 0.021775
v 0.032331 0.010039 0.021402
v 0.038296 0.012883 0.008220
v 0.036959 0.016866 0.013566
v 0.038507 0.013840 0.007618
v 0.035121 0.016866 0.017787
v 0.030021 0.016866 0.025470
v 0.027438 0.006404 0.026224
v 0.031757 0.006804 0.020982
v 0.037860 0.010736 0.008890
v 0.022299 0.006316 0.030683
v 0.035520 0.009716 0.015400
v 0.026765 0.002384 0.024979
v 0.031234 0.003679 0.020013
v 0.037648 0.009607 0.008938
v 0.021497 0.001522 0.029196
v 0.015587 0.001118 0.032543
v 0.035128 0.007504 0.015113
v 0.026179 -0.001377 0.023062
v 0.030778 0.000755 0.018524
v 0.037449 0.008484 0.008793
v -0.022824 0.008025 0.030837
v -0.027915 0.010408 0.027001
v -0.017052 0.005907 0.033751
v 0.008351 -0.004332 0.032108
v 0.020798 -0.002964 0.026911
v 0.014795 -0.003960 0.029957
v 0.034770 0.005368 0.014450
v 0.025696 -0.004772 0.020531
v 0.030403 -0.001884 0.016556
v 0.037268 0.007400 0.008456
v -0.032776 0.009101 0.020383
v -0.028630 0.005820 0.024665
v -0.005844 -0.008506 0.029532
v 0.001657 -0.004072 0.033299
v -0.023628 0.002870 0.028211
v 0.007642 -0.009312 0.028396
v 0.034459 0.003368 0.013432
v 0.025329 -0.007703 0.017459
v 0.030118 -0.004162 0.014168
v 0.037109 0.006385 0.007939
v -0.029219 0.001680 0.021578
v -0.033275 0.005598 0.017770
v -0.036337 0.009852 0.013432
v -0.012993 -0.011488 0.024026
v -0.019180 -0.009031 0.022616
v -0.006418 -0.013097 0.024719
v 0.000912 -0.009300 0.029403
v -0.024291 -0.001784 0.024741
v 0.007104 -0.013610 0.023890
v 0.014142 -0.008542 0.026541
v 0.020221 -0.007014 0.023893
v 0.034202 0.001564 0.012088
v 0.025090 -0.010085 0.013934
v 0.029932 -0.006014 0.011428
v 0.036979 0.005469 0.007258
v -0.038523 0.012642 0.006938
v -0.039200 0.016866 0.003649
v -0.036615 0.016866 -0.014467
v -0.034022 0.012261 -0.019270
v -0.034667 0.016866 -0.018661
v -0.033654 0.002573 0.014600
v -0.036635 0.007467 0.010932
v -0.024793 -0.005801 0.020531
v -0.029666 -0.001894 0.017831
v -0.006793 -0.016830 0.019195
v 0.000348 -0.013812 0.024674
v 0.006753 -0.017105 0.018719
v 0.013648 -0.012498 0.022394
v 0.019784 -0.010509 0.020230
v 0.034007 0.000006 0.010454
v 0.029850 -0.007387 0.008413
v 0.024985 -0.011851 0.010056
v 0.036880 0.004678 0.006428
v -0.038660 0.011282 0.004925
v -0.039358 0.016866 -0.000965
v -0.036830 0.005529 0.008064
v -0.033900 0.000114 0.010961
v -0.029958 -0.004800 0.013532
v -0.030086 -0.006953 0.008803
v -0.025121 -0.009067 0.015697
v -0.013363 -0.015173 0.018572
v -0.006958 -0.019596 0.013120
v -0.000020 -0.017480 0.019244
v 0.006599 -0.019694 0.013032
v -0.000182 -0.020199 0.013274
v 0.013325 -0.015714 0.017636
v 0.019498 -0.013351 0.016023
v 0.013183 -0.018098 0.012400
v 0.019373 -0.015457 0.011399
v 0.029875 -0.008240 0.005212
v 0.025017 -0.012948 0.005938
v 0.036816 0.004036 0.005477
v 0.033880 -0.001260 0.008580
v -0.034009 -0.001708 0.006960
v -0.036915 0.004093 0.004909
v -0.024990 -0.013538 -0.001074
v -0.029841 -0.008778 -0.001390
v -0.006907 -0.021316 0.006668
v 0.006647 -0.021304 0.006993
v -0.000132 -0.021889 0.006935
v 0.019412 -0.016766 0.006487
v 0.033824 -0.002198 0.006519
v 0.036787 0.003559 0.004431
v -0.038701 0.009648 0.000361
v -0.036889 0.003199 0.001559
v -0.033975 -0.002841 0.002711
v -0.019392 -0.017390 -0.000725
v -0.013215 -0.020219 -0.000355
v -0.006643 -0.021940 0.000027
v 0.013860 -0.019695 -0.004604
v 0.007334 -0.021430 -0.005444
v 0.013454 -0.020117 0.001119
v 0.013227 -0.019579 0.006842
v 0.019613 -0.017241 0.001430
v 0.033841 -0.002782 0.004331
v 0.030006 -0.008550 0.001917
v 0.036796 0.003263 0.003320
v -0.038605 0.009420 -0.002059
v -0.038974 0.016866 -0.005573
v -0.033801 -0.003252 -0.001665
v -0.036752 0.002875 -0.001891
v -0.029475 -0.008397 -0.006561
v -0.018947 -0.016927 -0.007004
v -0.012750 -0.019735 -0.006913
v -0.006172 -0.021450 -0.006616
v 0.000128 -0.022502 0.000406
v 0.006894 -0.021888 0.000774
v 0.025186 -0.013347 0.001699
v 0.033931 -0.002994 0.002077
v 0.025486 -0.013034 -0.002541
v 0.030240 -0.008307 -0.001378
v 0.036842 0.003156 0.002177
v -0.036508 0.003129 -0.005340
v -0.033491 -0.002929 -0.006041
v -0.018321 -0.015425 -0.013102
v -0.012096 -0.018167 -0.013282
v 0.001241 -0.020459 -0.012462
v 0.002063 -0.017862 -0.018432
v -0.004673 -0.017219 -0.019142
v 0.000590 -0.022021 -0.006122
v 0.014431 -0.018326 -0.010163
v 0.007955 -0.019943 -0.011484
v 0.019971 -0.016869 -0.003627
v 0.034090 -0.002827 -0.000175
v 0.025909 -0.012020 -0.006657
v 0.030569 -0.007518 -0.004580
v 0.036923 0.003240 0.001032
v -0.038192 0.010177 -0.006830
v -0.027541 -0.002284 -0.020611
v -0.031126 0.005203 -0.021099
v -0.036163 0.003955 -0.008690
v -0.023267 -0.009407 -0.017844
v -0.017530 -0.012927 -0.018844
v -0.011270 -0.015557 -0.019281
v -0.005510 -0.019862 -0.013068
v 0.015151 -0.016049 -0.015396
v 0.008738 -0.017469 -0.017169
v 0.020476 -0.015659 -0.008538
v 0.034315 -0.002288 -0.002365
v 0.026443 -0.010333 -0.010535
v 0.030983 -0.006207 -0.007594
v 0.037037 0.003514 -0.000079
v -0.037887 0.011140 -0.009044
v -0.038056 0.016866 -0.010083
v -0.026679 0.001214 -0.024357
v -0.030338 0.008654 -0.023709
v -0.035729 0.005327 -0.011844
v -0.022404 -0.006239 -0.022676
v -0.016598 -0.009505 -0.024064
v -0.003688 -0.013598 -0.024665
v 0.016000 -0.012930 -0.020154
v 0.009660 -0.014079 -0.022340
v 0.021112 -0.013647 -0.013163
v 0.034599 -0.001392 -0.004425
v 0.027072 -0.008022 -0.014061
v 0.031473 -0.004411 -0.010333
v 0.037181 0.003969 -0.001125
v -0.035217 0.007207 -0.014713
v -0.021436 -0.002307 -0.026887
v -0.009204 -0.007545 -0.029486
v -0.002581 -0.009104 -0.029477
v -0.008024 -0.002372 -0.033400
v -0.010297 -0.011982 -0.024734
v 0.003032 -0.014304 -0.023859
v 0.016954 -0.009058 -0.024301
v 0.022705 -0.007469 -0.021031
v 0.017984 -0.004544 -0.027716
v 0.021863 -0.010891 -0.017367
v 0.034933 -0.000164 -0.006299
v 0.032022 -0.002181 -0.012721
v 0.027778 -0.005154 -0.017132
v 0.037350 0.004592 -0.002076
v -0.037125 0.014097 -0.012810
v -0.033372 0.015290 -0.020828
v -0.029515 0.012496 -0.025687
v -0.032250 0.016866 -0.022580
v -0.034643 0.009541 -0.017212
v -0.025749 0.005292 -0.027442
v -0.015552 -0.005256 -0.028614
v -0.020390 0.002276 -0.030355
v 0.006523 0.000992 -0.035433
v 0.005294 -0.004739 -0.032484
v 0.011816 -0.004968 -0.030556
v 0.004119 -0.009887 -0.028589
v 0.010696 -0.009872 -0.026846
v 0.035309 0.001361 -0.007932
v 0.032615 0.000418 -0.014689
v 0.028541 -0.001810 -0.019662
v 0.035714 0.003138 -0.009276
v 0.037541 0.005366 -0.002904
v -0.024775 0.009832 -0.029778
v -0.018185 0.012854 -0.034687
v -0.013240 0.005208 -0.035197
v -0.012040 0.011124 -0.037042
v -0.014422 -0.000305 -0.032360
v -0.001385 -0.003865 -0.033441
v -0.006789 0.003386 -0.036362
v 0.023615 -0.003481 -0.024048
v 0.019062 0.000481 -0.030302
v 0.033235 0.003312 -0.016177
v 0.036138 0.005117 -0.010294
v 0.037747 0.006268 -0.003586
v -0.019296 0.007378 -0.032980
v -0.023787 0.014704 -0.031297
v -0.005535 0.009565 -0.038288
v -0.000135 0.001967 -0.036442
v 0.001135 0.008225 -0.038393
v 0.007771 0.007142 -0.037350
v 0.012986 0.000492 -0.033366
v 0.021234 0.011476 -0.032712
v 0.025534 0.005723 -0.027818
v 0.026487 0.010674 -0.028463
v 0.024568 0.000959 -0.026333
v 0.029340 0.001912 -0.021577
v 0.033865 0.006417 -0.017146
v 0.036569 0.007240 -0.010956
v 0.037962 0.007272 -0.004103
v -0.029387 0.016866 -0.026199
v -0.022492 0.016866 -0.032311
v -0.009979 0.016866 -0.038083
v 0.002386 0.014729 -0.039240
v 0.014175 0.006350 -0.035193
v 0.020155 0.005873 -0.031982
v 0.030150 0.005906 -0.022823
v 0.034486 0.009644 -0.017564
v -0.026114 0.016866 -0.029463
v -0.018559 0.016866 -0.034721
v -0.014362 0.016866 -0.036657
v -0.005458 0.016866 -0.038989
v -0.000852 0.016866 -0.039361
v 0.009001 0.013534 -0.038182
v 0.003757 0.016866 -0.039190
v 0.015346 0.012439 -0.035985
v 0.017033 0.016866 -0.035494
v 0.030949 0.010058 -0.023363
v 0.027399 0.015671 -0.028247
v 0.035081 0.012900 -0.017425
v 0.037400 0.011672 -0.011147
v 0.008312 0.016866 -0.038481
v 0.012763 0.016866 -0.037244
v 0.021064 0.016866 -0.033260
v 0.024815 0.016866 -0.030565
v 0.031713 0.014246 -0.023182
v 0.028223 0.016866 -0.027448
v 0.033827 0.016866 -0.020142
v 0.037777 0.013855 -0.010670
v 0.038602 0.010600 -0.004537
v 0.031235 0.016866 -0.023965
v 0.035954 0.016866 -0.016040
v 0.037580 0.016866 -0.011733
v 0.038794 0.011708 -0.004295
v 0.038964 0.012761 -0.003866
v 0.038696 0.016866 -0.007252
v 0.039109 0.013730 -0.003264
v -0.019426 0.016866 0.040966
v -0.012602 0.016866 0.043552
v -0.011837 0.016866 0.037548
v -0.029387 0.016866 -0.026199
v -0.031416 0.016866 -0.032689
v -0.036252 0.016866 -0.027228
v -0.005452 0.016866 0.045009
v -0.007363 0.016866 0.038675
v -0.020239 0.016866 0.033769
v -0.016143 0.016866 0.035907
v 0.001839 0.016866 0.045301
v 0.001829 0.016866 0.039326
v -0.002781 0.016866 0.039271
v -0.025747 0.016866 0.037319
v -0.024052 0.016866 0.031168
v -0.031401 0.016866 0.032704
v -0.027528 0.016866 0.028144
v -0.030636 0.016866 0.024728
v -0.040143 0.016866 0.021075
v -0.036242 0.016866 0.027243
v -0.033321 0.016866 0.020969
v 0.009083 0.016866 0.044419
v 0.006414 0.016866 0.038845
v 0.022681 0.016866 0.039257
v 0.019406 0.016866 0.034255
v 0.015270 0.016866 0.036287
v 0.010922 0.016866 0.037824
v 0.016090 0.016866 0.042386
v 0.033943 0.016866 0.030056
v 0.038324 0.016866 0.024223
v 0.032799 0.016866 0.021775
v -0.045339 0.016866 0.000000
v -0.044752 0.016866 0.007275
v -0.039200 0.016866 0.003649
v 0.039098 0.016866 0.004616
v 0.038294 0.016866 0.009139
v 0.044022 0.016866 0.010845
v -0.040149 0.016866 -0.021062
v -0.043007 0.016866 -0.014351
v -0.036615 0.016866 -0.014467
v 0.044021 0.016866 -0.010853
v 0.037580 0.016866 -0.011733
v 0.038696 0.016866 -0.007252
v -0.025766 0.016866 -0.037305
v -0.026114 0.016866 -0.029463
v 0.021064 0.016866 -0.033260
v 0.028667 0.016866 -0.035126
v 0.022660 0.016866 -0.039270
v -0.005458 0.016866 -0.038989
v -0.000852 0.016866 -0.039361
v -0.005479 0.016866 -0.045006
v 0.017033 0.016866 -0.035494
v 0.016066 0.016866 -0.042397
v 0.003757 0.016866 -0.039190
v 0.009056 0.016866 -0.044424
v 0.001812 0.016866 -0.045302
v 0.008312 0.016866 -0.038481
v 0.012763 0.016866 -0.037244
v 0.035954 0.016866 -0.016040
v 0.041709 0.016866 -0.017775
v 0.033827 0.016866 -0.020142
v 0.033931 0.016866 -0.030071
v 0.028223 0.016866 -0.027448
v 0.031235 0.016866 -0.023965
v -0.019449 0.016866 -0.040955
v -0.014362 0.016866 -0.036657
v -0.012627 0.016866 -0.043544
v -0.009979 0.016866 -0.038083
v 0.045192 0.016866 0.003646
v -0.022492 0.016866 -0.032311
v -0.018559 0.016866 -0.034721
v -0.034667 0.016866 -0.018661
v -0.032250 0.016866 -0.022580
v 0.035121 0.016866 0.017787
v 0.041713 0.016866 0.017764
v 0.024815 0.016866 -0.030565
v -0.044752 0.016866 -0.007275
v -0.038974 0.016866 -0.005573
v -0.038056 0.016866 -0.010083
v 0.030021 0.016866 0.025470
v 0.026840 0.016866 0.028801
v -0.039358 0.016866 -0.000965
v -0.043005 0.016866 0.014361
v -0.037280 0.016866 0.012656
v -0.038507 0.016866 0.008200
v 0.023287 0.016866 0.031744
v 0.028684 0.016866 0.035111
v -0.035541 0.016866 0.016934
v 0.039370 0.016866 0.000000
v 0.045192 0.016866 -0.003649
v 0.036959 0.016866 0.013566
v 0.038316 0.016866 -0.024238
v 0.039347 0.016866 -0.001333
v 0.039280 0.016866 -0.002665
v 0.045192 0.016866 -0.003649
v 0.045192 0.016866 0.003646
v 0.045192 0.013691 -0.003647
v 0.044022 0.013691 -0.010846
v 0.044021 0.016866 -0.010853
v 0.041713 0.013691 -0.017764
v 0.041709 0.016866 -0.017775
v 0.038316 0.016866 -0.024238
v 0.038324 0.013691 -0.024223
v 0.033943 0.013691 -0.030056
v 0.033931 0.016866 -0.030071
v 0.028684 0.013691 -0.035111
v 0.028667 0.016866 -0.035126
v 0.022660 0.016866 -0.039270
v 0.022681 0.013691 -0.039257
v 0.016090 0.013691 -0.042386
v 0.016066 0.016866 -0.042397
v 0.009083 0.013691 -0.044419
v 0.009056 0.016866 -0.044424
v 0.001812 0.016866 -0.045302
v 0.001839 0.013691 -0.045301
v -0.005452 0.013691 -0.045009
v -0.005479 0.016866 -0.045006
v -0.012602 0.013691 -0.043552
v -0.012627 0.016866 -0.043544
v -0.019449 0.016866 -0.040955
v -0.019426 0.013691 -0.040966
v -0.025747 0.013691 -0.037319
v -0.025766 0.016866 -0.037305
v -0.031401 0.013691 -0.032705
v -0.031416 0.016866 -0.032689
v -0.036252 0.016866 -0.027228
v -0.036242 0.013691 -0.027242
v -0.040143 0.013691 -0.021075
v -0.040149 0.016866 -0.021062
v -0.043005 0.013691 -0.014361
v -0.043007 0.016866 -0.014351
v -0.044752 0.016866 -0.007275
v -0.044752 0.013691 -0.007275
v -0.045339 0.013691 0.000000
v -0.045339 0.016866 0.000000
v 0.045192 0.013691 0.003649
v 0.044021 0.013691 0.010854
v 0.044022 0.016866 0.010845
v 0.041713 0.016866 0.017764
v 0.041709 0.013691 0.017775
v 0.038324 0.016866 0.024223
v 0.038316 0.013691 0.024237
v 0.033931 0.013691 0.030071
v 0.033943 0.016866 0.030056
v 0.028684 0.016866 0.035111
v 0.028667 0.013691 0.035125
v 0.022681 0.016866 0.039257
v 0.022660 0.013691 0.039270
v 0.016066 0.013691 0.042396
v 0.016090 0.016866 0.042386
v 0.009083 0.016866 0.044419
v 0.009056 0.013691 0.044424
v 0.001839 0.016866 0.045301
v 0.001812 0.013691 0.045302
v -0.005479 0.013691 0.045006
v -0.005452 0.016866 0.045009
v -0.012602 0.016866 0.043552
v -0.012627 0.013691 0.043544
v -0.019426 0.016866 0.040966
v -0.019449 0.013691 0.040954
v -0.025766 0.013691 0.037305
v -0.025747 0.016866 0.037319
v -0.031401 0.016866 0.032704
v -0.031416 0.013691 0.032689
v -0.036242 0.016866 0.027243
v -0.036252 0.013691 0.027228
v -0.040149 0.013691 0.021062
v -0.040143 0.016866 0.021075
v -0.043005 0.016866 0.014361
v -0.043007 0.013691 0.014351
v -0.044752 0.016866 0.007275
v -0.044752 0.013691 0.007275
vn -0.6124 -0.6735 0.4139
vn -0.7659 -0.5418 0.3462
vn -0.6736 -0.6735 0.3045
vn 0.8405 -0.5418 -0.0000
vn 0.9054 -0.3952 0.1552
vn 0.8284 -0.5418 0.1420
vn 0.7392 -0.6735 -0.0000
vn 0.9159 -0.2374 0.3236
vn 0.9575 -0.2374 0.1640
vn 0.9433 -0.0735 0.3238
vn 0.9574 -0.2377 -0.1642
vn 0.9837 -0.0736 -0.1641
vn 0.9973 -0.0736 -0.0000
vn 0.9188 -0.3948 -0.0000
vn 0.9837 -0.0735 0.1641
vn 0.9714 -0.2376 -0.0000
vn 0.7287 -0.6734 0.1249
vn 0.6174 -0.7866 -0.0000
vn 0.6086 -0.7866 0.1043
vn 0.4787 -0.8780 -0.0000
vn 0.4717 -0.8780 0.0809
vn 0.3267 -0.9451 -0.0000
vn 0.3219 -0.9451 0.0552
vn 0.1656 -0.9862 -0.0000
vn 0.5821 -0.7867 0.2057
vn 0.6453 -0.6735 0.3605
vn 0.5751 -0.6734 0.4644
vn 0.5390 -0.7866 0.3011
vn -0.1372 -0.9862 0.0927
vn -0.2706 -0.9451 0.1829
vn -0.2977 -0.9451 0.1345
vn 0.3080 -0.9451 0.1088
vn 0.1632 -0.9862 0.0280
vn -0.1402 -0.8780 0.4577
vn -0.2780 -0.7866 0.5513
vn -0.2155 -0.8780 0.4274
vn -0.0000 -1.0000 -0.0000
vn 0.1008 -0.8780 0.4679
vn 0.1785 -0.8780 0.4441
vn 0.1301 -0.7866 0.6036
vn -0.0784 -0.7866 0.6125
vn -0.0608 -0.8780 0.4748
vn 0.0203 -0.8780 0.4782
vn 0.4804 -0.7866 0.3879
vn 0.3724 -0.8780 0.3007
vn 0.4179 -0.8780 0.2334
vn 0.3163 -0.8780 0.3593
vn 0.3237 -0.7867 0.5257
vn 0.2510 -0.8780 0.4076
vn 0.0262 -0.7867 0.6168
vn 0.4513 -0.8780 0.1594
vn -0.5626 -0.7866 0.2544
vn -0.4361 -0.8780 0.1971
vn -0.3965 -0.8780 0.2680
vn -0.3671 -0.7867 0.4964
vn -0.2846 -0.8780 0.3848
vn -0.5626 -0.7867 -0.2543
vn -0.6736 -0.6734 -0.3045
vn -0.6124 -0.6735 -0.4139
vn -0.3255 -0.9451 0.0277
vn -0.3255 -0.9451 -0.0277
vn -0.1650 -0.9862 0.0140
vn -0.1942 -0.9451 -0.2626
vn -0.2846 -0.8780 -0.3848
vn -0.2155 -0.8780 -0.4274
vn -0.5337 -0.6734 -0.5115
vn -0.4395 -0.6735 -0.5943
vn -0.4458 -0.7866 -0.4272
vn 0.0203 -0.8780 -0.4782
vn -0.0608 -0.8780 -0.4748
vn 0.0262 -0.7866 -0.6169
vn -0.1401 -0.8780 -0.4576
vn -0.1808 -0.7866 -0.5904
vn 0.1771 -0.5418 -0.8217
vn 0.1557 -0.6735 -0.7226
vn 0.0314 -0.6735 -0.7385
vn 0.1301 -0.7867 -0.6035
vn 0.3875 -0.6735 -0.6294
vn 0.4407 -0.5418 -0.7157
vn 0.5553 -0.5418 -0.6309
vn 0.2756 -0.6736 -0.6858
vn 0.8480 -0.2378 -0.4737
vn 0.8771 -0.0736 -0.4747
vn 0.9160 -0.2375 -0.3234
vn 0.7555 -0.2383 -0.6102
vn 0.7870 -0.0735 -0.6125
vn 0.9055 -0.3949 -0.1552
vn 0.8662 -0.3950 -0.3060
vn -0.3328 -0.6735 -0.6600
vn -0.3672 -0.7866 -0.4964
vn -0.0784 -0.7866 -0.6124
vn -0.0939 -0.6736 -0.7331
vn -0.3163 -0.9451 0.0823
vn -0.1509 -0.9862 0.0682
vn -0.2976 -0.9452 -0.1345
vn -0.1603 -0.9862 -0.0417
vn -0.3161 -0.9451 -0.0823
vn -0.1808 -0.7866 0.5903
vn -0.3456 -0.8780 0.3312
vn -0.4457 -0.7867 0.4272
vn 0.4079 -0.7867 0.4635
vn 0.2302 -0.7866 0.5729
vn 0.1561 -0.9862 0.0551
vn 0.8771 -0.0736 0.4747
vn 0.8480 -0.2379 0.4737
vn 0.8662 -0.3950 0.3060
vn 0.7925 -0.5418 0.2800
vn 0.6971 -0.6734 0.2462
vn -0.1650 -0.9862 -0.0140
vn -0.5115 -0.7866 0.3457
vn 0.7870 -0.0735 0.6126
vn 0.7556 -0.2381 0.6102
vn 0.8020 -0.3950 0.4480
vn 0.7339 -0.5417 0.4099
vn -0.4633 -0.8780 -0.1206
vn -0.4361 -0.8780 -0.1971
vn 0.2852 -0.9451 0.1593
vn 0.1447 -0.9862 0.0808
vn 0.6754 -0.0735 0.7337
vn 0.6417 -0.2379 0.7292
vn 0.7147 -0.3951 0.5771
vn 0.6540 -0.5418 0.5280
vn 0.4883 -0.6736 0.5548
vn 0.2541 -0.9451 0.2052
vn 0.1289 -0.9862 0.1041
vn 0.5455 -0.0736 0.8349
vn 0.5093 -0.2376 0.8271
vn 0.6069 -0.3950 0.6897
vn 0.5553 -0.5419 0.6309
vn 0.3875 -0.6735 0.6294
vn 0.2158 -0.9451 0.2452
vn 0.1094 -0.9862 0.1243
vn 0.4006 -0.0735 0.9133
vn 0.3621 -0.2381 0.9012
vn 0.4816 -0.3953 0.7822
vn 0.4407 -0.5418 0.7157
vn 0.2756 -0.6735 0.6859
vn 0.1713 -0.9451 0.2782
vn 0.0868 -0.9862 0.1410
vn 0.2448 -0.0735 0.9668
vn 0.2046 -0.2377 0.9495
vn 0.3425 -0.3951 0.8524
vn 0.3134 -0.5417 0.7800
vn 0.1557 -0.6735 0.7226
vn 0.1218 -0.9451 0.3031
vn 0.0617 -0.9862 0.1537
vn 0.0824 -0.0736 0.9939
vn 0.0412 -0.2377 0.9705
vn 0.1935 -0.3952 0.8980
vn 0.1771 -0.5417 0.8217
vn 0.0314 -0.6735 0.7385
vn 0.0688 -0.9451 0.3194
vn 0.0349 -0.9862 0.1619
vn -0.0823 -0.0736 0.9939
vn -0.1234 -0.2379 0.9634
vn 0.0390 -0.3948 0.9179
vn 0.0357 -0.5417 0.8398
vn -0.0939 -0.6735 0.7332
vn 0.0139 -0.9451 0.3264
vn 0.0071 -0.9862 0.1654
vn -0.2448 -0.0735 0.9668
vn -0.2844 -0.2376 0.9288
vn -0.1167 -0.3950 0.9112
vn -0.1068 -0.5416 0.8338
vn -0.2164 -0.6736 0.7067
vn -0.0415 -0.9452 0.3239
vn -0.0210 -0.9862 0.1643
vn -0.4006 -0.0736 0.9133
vn -0.4373 -0.2377 0.8673
vn -0.2690 -0.3950 0.8784
vn -0.2461 -0.5417 0.8037
vn -0.3328 -0.6735 0.6600
vn -0.0956 -0.9452 0.3123
vn -0.0485 -0.9862 0.1584
vn -0.5455 -0.0736 0.8349
vn -0.5776 -0.2378 0.7809
vn -0.4136 -0.3951 0.8203
vn -0.3784 -0.5418 0.7505
vn -0.4395 -0.6735 0.5943
vn -0.1471 -0.9451 0.2917
vn -0.0745 -0.9862 0.1479
vn -0.6754 -0.0735 0.7337
vn -0.7013 -0.2377 0.6721
vn -0.5463 -0.3948 0.7387
vn -0.4998 -0.5418 0.6757
vn -0.5336 -0.6736 0.5114
vn -0.1942 -0.9451 0.2626
vn -0.0985 -0.9862 0.1331
vn -0.7870 -0.0735 0.6125
vn -0.8048 -0.2377 0.5439
vn -0.6632 -0.3952 0.6356
vn -0.6068 -0.5418 0.5816
vn -0.2358 -0.9451 0.2260
vn -0.1197 -0.9862 0.1146
vn -0.8771 -0.0735 0.4747
vn -0.8851 -0.2377 0.4001
vn -0.7611 -0.3952 0.5144
vn -0.6964 -0.5417 0.4707
vn -0.9433 -0.0736 0.3238
vn -0.9400 -0.2377 0.2448
vn -0.8371 -0.3951 0.3784
vn 0.6754 -0.0735 -0.7337
vn 0.6416 -0.2380 -0.7292
vn -0.7153 -0.6735 0.1863
vn -0.1603 -0.9862 0.0417
vn -0.9837 -0.0736 0.1641
vn -0.9679 -0.2376 0.0824
vn -0.8889 -0.3953 0.2315
vn -0.8134 -0.5418 0.2118
vn -0.5975 -0.7866 0.1556
vn -0.4633 -0.8780 0.1206
vn -0.7366 -0.6734 0.0627
vn -0.9973 -0.0736 -0.0000
vn -0.9678 -0.2377 -0.0824
vn -0.9153 -0.3952 0.0779
vn -0.8375 -0.5417 0.0713
vn -0.6152 -0.7866 0.0524
vn -0.4769 -0.8780 0.0406
vn -0.7365 -0.6735 -0.0627
vn -0.9837 -0.0735 -0.1642
vn -0.9400 -0.2377 -0.2448
vn -0.9154 -0.3950 -0.0779
vn -0.8375 -0.5418 -0.0713
vn -0.6152 -0.7866 -0.0524
vn -0.4769 -0.8780 -0.0406
vn -0.7153 -0.6736 -0.1862
vn -0.9433 -0.0736 -0.3238
vn -0.8851 -0.2377 -0.4001
vn -0.8889 -0.3953 -0.2315
vn -0.8134 -0.5418 -0.2118
vn -0.5976 -0.7866 -0.1556
vn -0.8771 -0.0736 -0.4747
vn -0.8048 -0.2377 -0.5439
vn -0.8372 -0.3947 -0.3784
vn -0.7660 -0.5417 -0.3462
vn -0.2780 -0.7866 -0.5513
vn -0.2164 -0.6736 -0.7067
vn -0.5115 -0.7867 -0.3457
vn -0.7870 -0.0736 -0.6126
vn -0.7013 -0.2377 -0.6721
vn -0.7611 -0.3950 -0.5144
vn -0.6963 -0.5418 -0.4707
vn -0.3966 -0.8780 -0.2680
vn -0.1509 -0.9862 -0.0682
vn -0.2707 -0.9451 -0.1829
vn -0.6754 -0.0736 -0.7337
vn -0.5776 -0.2377 -0.7810
vn -0.6632 -0.3951 -0.6356
vn -0.6069 -0.5417 -0.5816
vn -0.3456 -0.8780 -0.3312
vn -0.1372 -0.9862 -0.0927
vn -0.2358 -0.9452 -0.2260
vn -0.5455 -0.0736 -0.8349
vn -0.4373 -0.2376 -0.8674
vn -0.5463 -0.3951 -0.7386
vn -0.4998 -0.5417 -0.6758
vn -0.1196 -0.9862 -0.1146
vn -0.4006 -0.0735 -0.9133
vn -0.2844 -0.2377 -0.9288
vn -0.4136 -0.3951 -0.8203
vn -0.3784 -0.5418 -0.7505
vn -0.0985 -0.9862 -0.1332
vn -0.1471 -0.9451 -0.2917
vn -0.2448 -0.0735 -0.9668
vn -0.1234 -0.2377 -0.9635
vn -0.2690 -0.3952 -0.8783
vn -0.2461 -0.5419 -0.8036
vn -0.0957 -0.9452 -0.3123
vn -0.0746 -0.9862 -0.1479
vn -0.0824 -0.0736 -0.9939
vn 0.0412 -0.2377 -0.9705
vn -0.1167 -0.3951 -0.9112
vn -0.1067 -0.5419 -0.8337
vn -0.0415 -0.9451 -0.3241
vn -0.0485 -0.9862 -0.1583
vn 0.0824 -0.0736 -0.9939
vn 0.2046 -0.2379 -0.9495
vn 0.0390 -0.3950 -0.9179
vn 0.0356 -0.5418 -0.8398
vn 0.0139 -0.9452 -0.3263
vn 0.0688 -0.9451 -0.3194
vn 0.0349 -0.9862 -0.1619
vn 0.0070 -0.9862 -0.1654
vn -0.0210 -0.9862 -0.1643
vn 0.2448 -0.0735 -0.9668
vn 0.3621 -0.2377 -0.9013
vn 0.1935 -0.3952 -0.8980
vn 0.3134 -0.5416 -0.7800
vn 0.1008 -0.8780 -0.4679
vn 0.2302 -0.7866 -0.5729
vn 0.4006 -0.0735 -0.9133
vn 0.5093 -0.2377 -0.8271
vn 0.3425 -0.3951 -0.8524
vn 0.1785 -0.8780 -0.4441
vn 0.1218 -0.9451 -0.3031
vn 0.3237 -0.7867 -0.5257
vn 0.0618 -0.9862 -0.1537
vn 0.5455 -0.0736 -0.8349
vn 0.4817 -0.3950 -0.7823
vn 0.2509 -0.8780 -0.4076
vn 0.1713 -0.9451 -0.2782
vn 0.3162 -0.8780 -0.3593
vn 0.4079 -0.7867 -0.4634
vn 0.0868 -0.9862 -0.1410
vn 0.6453 -0.6735 -0.3605
vn 0.7338 -0.5418 -0.4099
vn 0.7925 -0.5418 -0.2800
vn 0.6070 -0.3948 -0.6897
vn 0.4883 -0.6736 -0.5549
vn 0.2158 -0.9451 -0.2452
vn 0.3724 -0.8780 -0.3007
vn 0.2541 -0.9452 -0.2052
vn 0.6540 -0.5418 -0.5280
vn 0.7147 -0.3950 -0.5771
vn 0.5751 -0.6734 -0.4644
vn 0.4804 -0.7866 -0.3879
vn 0.1094 -0.9862 -0.1243
vn 0.4179 -0.8780 -0.2334
vn 0.2852 -0.9451 -0.1593
vn 0.8020 -0.3950 -0.4480
vn 0.5390 -0.7866 -0.3011
vn 0.1288 -0.9862 -0.1040
vn 0.4513 -0.8780 -0.1594
vn 0.3080 -0.9451 -0.1088
vn 0.9433 -0.0736 -0.3238
vn 0.6970 -0.6734 -0.2463
vn 0.5822 -0.7866 -0.2057
vn 0.1446 -0.9862 -0.0808
vn 0.1562 -0.9862 -0.0552
vn 0.8284 -0.5418 -0.1420
vn 0.7286 -0.6735 -0.1249
vn 0.6086 -0.7866 -0.1043
vn 0.4718 -0.8780 -0.0809
vn 0.3219 -0.9452 -0.0552
vn 0.1632 -0.9862 -0.0280
vn -0.9994 0.0001 0.0339
vn -0.9977 -0.0000 0.0677
vn -0.9817 0.1817 -0.0562
vn -0.7356 0.0537 -0.6753
vn -0.5888 0.1418 -0.7957
vn -0.6815 0.0010 -0.7319
vn -0.9950 0.0146 -0.0986
vn -1.0000 0.0001 -0.0000
vn -0.9932 -0.0169 -0.1156
vn -0.9877 0.0377 -0.1516
vn -0.9736 -0.0129 -0.2277
vn -0.9831 0.0555 -0.1743
vn -0.9672 0.1277 -0.2196
vn -0.9128 0.1251 -0.3888
vn -0.9237 0.0699 -0.3766
vn -0.1628 0.0001 -0.9867
vn -0.2771 0.0002 -0.9608
vn -0.2865 0.0935 -0.9535
vn 0.2959 0.4718 -0.8305
vn 0.4733 0.5476 -0.6900
vn 0.4552 0.4198 -0.7852
vn -0.0912 0.2275 -0.9695
vn 0.1059 0.3597 -0.9271
vn 0.0791 0.1997 -0.9767
vn 0.6094 0.7262 0.3183
vn 0.7190 0.5580 0.4143
vn 0.7356 0.6102 0.2942
vn 0.8091 0.3714 0.4554
vn 0.8256 0.4320 0.3630
vn 0.4987 0.8552 -0.1411
vn 0.6405 0.7585 -0.1204
vn 0.5001 0.8138 -0.2960
vn 0.3008 0.0001 -0.9537
vn 0.2472 0.1659 -0.9547
vn 0.4078 0.1271 -0.9042
vn 0.1872 0.0001 -0.9823
vn 0.7783 0.0004 -0.6279
vn 0.8171 0.0986 -0.5679
vn 0.8464 0.0002 -0.5325
vn 0.6882 0.0395 -0.7244
vn 0.6111 0.0001 -0.7916
vn 0.5563 0.0846 -0.8266
vn 0.9471 0.0021 -0.3208
vn 0.9030 0.0012 -0.4297
vn 0.9129 0.1081 -0.3935
vn 0.9781 0.0003 -0.2082
vn 0.5142 0.0001 -0.8577
vn 0.6995 0.0004 -0.7146
vn 0.4104 0.0001 -0.9119
vn 0.8396 0.4762 0.2613
vn 0.4961 0.7474 -0.4418
vn 0.6417 0.7202 -0.2637
vn 0.7631 0.6391 -0.0960
vn 0.6243 0.7614 0.1749
vn 0.2735 0.3238 -0.9057
vn 0.3429 0.8834 -0.3195
vn 0.3422 0.9263 -0.1576
vn 0.1293 0.5093 -0.8508
vn 0.3149 0.6052 -0.7311
vn 0.0710 0.0002 -0.9975
vn -0.0641 0.3846 -0.9208
vn -0.2587 0.2485 -0.9334
vn -0.4187 0.2622 -0.8695
vn -0.2341 0.3983 -0.8869
vn -0.1202 0.0648 -0.9906
vn -0.0462 0.0001 -0.9989
vn -0.4443 0.1195 -0.8879
vn -0.3876 0.0003 -0.9218
vn -0.4928 0.0001 -0.8701
vn -0.5912 0.0005 -0.8065
vn -0.8367 0.0908 -0.5400
vn -0.7156 0.1600 -0.6800
vn -0.9753 0.1878 0.1165
vn -0.9396 0.1885 0.2857
vn -0.9698 0.2163 0.1128
vn -0.8328 0.0022 -0.5536
vn -0.8212 0.1734 -0.5437
vn -0.9727 0.1011 -0.2089
vn -0.9389 -0.0010 -0.3443
vn -0.9781 0.0768 -0.1935
vn -0.8925 -0.0055 -0.4510
vn -0.7625 0.0003 -0.6470
vn -0.6969 0.2657 -0.6661
vn -0.8066 0.2556 -0.5329
vn -0.9617 0.1557 -0.2258
vn -0.5664 0.2680 -0.7793
vn -0.9022 0.1816 -0.3912
vn -0.6799 0.3678 -0.6344
vn -0.7933 0.3350 -0.5083
vn -0.9563 0.1843 -0.2271
vn -0.5460 0.3897 -0.7416
vn -0.3958 0.4000 -0.8266
vn -0.8922 0.2378 -0.3839
vn -0.6650 0.4634 -0.5858
vn -0.7818 0.4092 -0.4705
vn -0.9512 0.2129 -0.2234
vn 0.5796 0.2246 -0.7833
vn 0.7090 0.1640 -0.6858
vn 0.4327 0.2785 -0.8574
vn -0.2118 0.5384 -0.8156
vn -0.5281 0.5037 -0.6836
vn -0.3757 0.5290 -0.7609
vn -0.8831 0.2921 -0.3671
vn -0.6527 0.5496 -0.5215
vn -0.7722 0.4763 -0.4206
vn -0.9466 0.2404 -0.2148
vn 0.8325 0.1972 -0.5177
vn 0.7271 0.2805 -0.6266
vn 0.1485 0.6444 -0.7501
vn -0.0419 0.5318 -0.8458
vn 0.6001 0.3555 -0.7166
vn -0.1939 0.6649 -0.7213
vn -0.8753 0.3428 -0.3412
vn -0.6433 0.6241 -0.4435
vn -0.7650 0.5341 -0.3599
vn -0.9426 0.2662 -0.2017
vn 0.7422 0.3857 -0.5481
vn 0.8452 0.2862 -0.4514
vn 0.9230 0.1781 -0.3412
vn 0.3293 0.7204 -0.6104
vn 0.4870 0.6578 -0.5745
vn 0.1631 0.7611 -0.6278
vn -0.0231 0.6646 -0.7469
vn 0.6169 0.4737 -0.6285
vn -0.1803 0.7741 -0.6068
vn -0.3591 0.6454 -0.6742
vn -0.5136 0.6065 -0.6069
vn -0.8687 0.3887 -0.3070
vn -0.6372 0.6846 -0.3539
vn -0.7603 0.5812 -0.2903
vn -0.9393 0.2895 -0.1843
vn 0.9785 0.1073 -0.1762
vn 0.9961 0.0136 -0.0870
vn 0.9306 0.0076 0.3659
vn 0.8641 0.1170 0.4895
vn 0.8805 -0.0004 0.4741
vn 0.8548 0.3631 -0.3708
vn 0.9305 0.2388 -0.2777
vn 0.6297 0.5758 -0.5215
vn 0.7535 0.4766 -0.4529
vn 0.1726 0.8559 -0.4875
vn -0.0080 0.7792 -0.6267
vn -0.1714 0.8629 -0.4755
vn -0.3466 0.7459 -0.5688
vn -0.5024 0.6954 -0.5138
vn -0.8637 0.4283 -0.2656
vn -0.7582 0.6160 -0.2137
vn -0.6346 0.7294 -0.2554
vn -0.9367 0.3097 -0.1634
vn 0.9820 0.1418 -0.1251
vn 0.9996 0.0172 0.0243
vn 0.9355 0.2880 -0.2048
vn 0.8610 0.4255 -0.2784
vn 0.7608 0.5504 -0.3437
vn 0.7642 0.6050 -0.2236
vn 0.6380 0.6588 -0.3987
vn 0.3392 0.8139 -0.4717
vn 0.1768 0.9261 -0.3333
vn 0.0014 0.8724 -0.4888
vn -0.1676 0.9286 -0.3310
vn 0.0055 0.9414 -0.3372
vn -0.3384 0.8276 -0.4479
vn -0.4952 0.7675 -0.4070
vn -0.3348 0.8881 -0.3150
vn -0.4920 0.8210 -0.2896
vn -0.7588 0.6377 -0.1324
vn -0.6353 0.7574 -0.1508
vn -0.9351 0.3259 -0.1391
vn -0.8605 0.4604 -0.2180
vn 0.8638 0.4718 -0.1768
vn 0.9377 0.3244 -0.1247
vn 0.6347 0.7723 0.0273
vn 0.7580 0.6513 0.0353
vn 0.1755 0.9698 -0.1694
vn -0.1687 0.9695 -0.1776
vn 0.0042 0.9844 -0.1761
vn -0.4930 0.8543 -0.1648
vn -0.8591 0.4842 -0.1656
vn -0.9344 0.3380 -0.1125
vn 0.9830 0.1833 -0.0092
vn 0.9370 0.3472 -0.0396
vn 0.8628 0.5007 -0.0689
vn 0.4925 0.8701 0.0184
vn 0.3353 0.9421 0.0090
vn 0.1688 0.9857 -0.0006
vn -0.3520 0.9287 0.1170
vn -0.1861 0.9727 0.1383
vn -0.3416 0.9394 -0.0284
vn -0.3357 0.9258 -0.1738
vn -0.4981 0.8663 -0.0363
vn -0.8595 0.4991 -0.1100
vn -0.7622 0.6456 -0.0487
vn -0.9346 0.3455 -0.0843
vn 0.9806 0.1891 0.0523
vn 0.9900 0.0011 0.1410
vn 0.8584 0.5113 0.0423
vn 0.9335 0.3554 0.0480
vn 0.7486 0.6417 0.1666
vn 0.4809 0.8585 0.1779
vn 0.3231 0.9299 0.1756
vn 0.1569 0.9732 0.1680
vn -0.0030 0.9999 -0.0103
vn -0.1749 0.9844 -0.0196
vn -0.6397 0.7674 -0.0432
vn -0.8619 0.5044 -0.0528
vn -0.6473 0.7595 0.0645
vn -0.7681 0.6394 0.0350
vn -0.9358 0.3482 -0.0553
vn 0.9272 0.3491 0.1356
vn 0.8507 0.5028 0.1534
vn 0.4653 0.8202 0.3328
vn 0.3066 0.8901 0.3373
vn -0.0313 0.9481 0.3164
vn -0.0522 0.8821 0.4682
vn 0.1187 0.8657 0.4862
vn -0.0141 0.9877 0.1556
vn -0.3665 0.8939 0.2582
vn -0.2019 0.9350 0.2917
vn -0.5072 0.8569 0.0921
vn -0.8659 0.5002 0.0045
vn -0.6580 0.7338 0.1691
vn -0.7764 0.6194 0.1163
vn -0.9378 0.3461 -0.0262
vn 0.9701 0.1699 0.1735
vn 0.6995 0.4864 0.5235
vn 0.7905 0.2963 0.5360
vn 0.9185 0.3280 0.2207
vn 0.5909 0.6674 0.4533
vn 0.4453 0.7567 0.4786
vn 0.2865 0.8235 0.4897
vn 0.1400 0.9329 0.3319
vn -0.3847 0.8361 0.3911
vn -0.2216 0.8722 0.4361
vn -0.5201 0.8261 0.2169
vn -0.8716 0.4865 0.0601
vn -0.6716 0.6909 0.2676
vn -0.7869 0.5861 0.1929
vn -0.9407 0.3391 0.0020
vn 0.9623 0.1454 0.2297
vn 0.9675 0.0137 0.2523
vn 0.6776 0.3976 0.6187
vn 0.7705 0.2086 0.6023
vn 0.9075 0.2931 0.3009
vn 0.5690 0.5869 0.5760
vn 0.4214 0.6699 0.6113
vn 0.0937 0.7738 0.6265
vn -0.4063 0.7568 0.5120
vn -0.2453 0.7860 0.5675
vn -0.5362 0.7751 0.3343
vn -0.8788 0.4638 0.1123
vn -0.6877 0.6321 0.3571
vn -0.7994 0.5404 0.2625
vn -0.9444 0.3276 0.0286
vn 0.8947 0.2449 0.3735
vn 0.5445 0.4870 0.6829
vn 0.2336 0.6201 0.7489
vn 0.0656 0.6596 0.7487
vn 0.2031 0.4888 0.8484
vn 0.2609 0.7330 0.6283
vn -0.0768 0.7917 0.6060
vn -0.4305 0.6585 0.6173
vn -0.5767 0.6181 0.5342
vn -0.4567 0.5438 0.7040
vn -0.5553 0.7050 0.4411
vn -0.8873 0.4326 0.1600
vn -0.8133 0.4839 0.3232
vn -0.7055 0.5593 0.4352
vn -0.9487 0.3117 0.0528
vn 0.9430 0.0703 0.3253
vn 0.8477 0.0400 0.5290
vn 0.7497 0.1110 0.6524
vn 0.8188 -0.0027 0.5741
vn 0.8799 0.1860 0.4372
vn 0.6539 0.2940 0.6971
vn 0.3950 0.5619 0.7268
vn 0.5178 0.3706 0.7711
vn -0.1648 0.4031 0.9002
vn -0.1336 0.5487 0.8253
vn -0.2996 0.5546 0.7763
vn -0.1038 0.6795 0.7263
vn -0.2717 0.6791 0.6819
vn -0.8968 0.3938 0.2015
vn -0.8284 0.4178 0.3731
vn -0.7249 0.4744 0.4994
vn -0.9071 0.3487 0.2356
vn -0.9535 0.2921 0.0738
vn 0.6293 0.1787 0.7564
vn 0.4619 0.1019 0.8811
vn 0.3361 0.2961 0.8941
vn 0.3058 0.1459 0.9409
vn 0.3663 0.4361 0.8220
vn 0.0352 0.5266 0.8494
vn 0.1717 0.3425 0.9237
vn -0.5998 0.5168 0.6108
vn -0.4840 0.4162 0.7697
vn -0.8441 0.3443 0.4109
vn -0.9179 0.2984 0.2615
vn -0.9588 0.2692 0.0912
vn 0.4901 0.2410 0.8377
vn 0.6042 0.0549 0.7949
vn 0.1404 0.1854 0.9726
vn 0.0035 0.3784 0.9256
vn -0.0286 0.2192 0.9753
vn -0.1972 0.2470 0.9487
vn -0.3296 0.4159 0.8476
vn -0.5393 0.1369 0.8309
vn -0.6485 0.2830 0.7067
vn -0.6728 0.1573 0.7229
vn -0.6239 0.4040 0.6690
vn -0.7452 0.3798 0.5481
vn -0.8602 0.2654 0.4355
vn -0.9288 0.2445 0.2784
vn -0.9642 0.2437 0.1042
vn 0.7461 -0.0011 0.6658
vn 0.5711 -0.0005 0.8209
vn 0.2532 -0.0001 0.9674
vn -0.0606 0.0543 0.9967
vn -0.3599 0.2671 0.8939
vn -0.5116 0.2792 0.8126
vn -0.7658 0.2784 0.5797
vn -0.8759 0.1834 0.4462
vn 0.6632 -0.0001 0.7484
vn 0.4711 -0.0003 0.8821
vn 0.3647 -0.0000 0.9311
vn 0.1383 -0.0001 0.9904
vn 0.0215 -0.0000 0.9998
vn -0.2286 0.0846 0.9698
vn -0.0956 -0.0001 0.9954
vn -0.3898 0.1124 0.9140
vn -0.4328 -0.0001 0.9015
vn -0.7860 0.1729 0.5936
vn -0.6959 0.0304 0.7175
vn -0.8910 0.1009 0.4426
vn -0.9499 0.1319 0.2832
vn -0.2115 -0.0001 0.9774
vn -0.3244 -0.0001 0.9459
vn -0.5353 -0.0002 0.8446
vn -0.6305 -0.0001 0.7762
vn -0.8055 0.0665 0.5888
vn -0.7170 -0.0001 0.6971
vn -0.8594 -0.0007 0.5113
vn -0.9595 0.0765 0.2710
vn -0.9805 0.1591 0.1153
vn -0.7936 -0.0005 0.6084
vn -0.9133 -0.0002 0.4073
vn -0.9548 -0.0023 0.2972
vn -0.9854 0.1310 0.1091
vn -0.9897 0.1043 0.0982
vn -0.9835 -0.0121 0.1804
vn -0.9934 0.0797 0.0829
vn -0.0000 1.0000 -0.0000
vn 0.9968 -0.0000 -0.0805
vn 0.9968 0.0001 0.0804
vn 0.9968 -0.0001 -0.0804
vn 0.9709 0.0001 -0.2395
vn 0.9709 -0.0002 -0.2394
vn 0.9201 -0.0007 -0.3916
vn 0.9199 -0.0001 -0.3922
vn 0.8450 -0.0003 -0.5347
vn 0.8454 -0.0005 -0.5342
vn 0.7488 -0.0004 -0.6628
vn 0.7483 -0.0002 -0.6633
vn 0.6326 -0.0002 -0.7745
vn 0.6322 -0.0001 -0.7748
vn 0.4996 -0.0001 -0.8663
vn 0.5004 -0.0004 -0.8658
vn 0.3551 -0.0007 -0.9348
vn 0.3542 0.0004 -0.9352
vn 0.2005 -0.0001 -0.9797
vn 0.1995 0.0003 -0.9799
vn 0.0398 0.0002 -0.9992
vn 0.0408 -0.0001 -0.9992
vn -0.1206 -0.0001 -0.9927
vn -0.1204 -0.0000 -0.9927
vn -0.2778 -0.0000 -0.9606
vn -0.2787 0.0004 -0.9604
vn -0.4291 0.0002 -0.9033
vn -0.4282 -0.0001 -0.9037
vn -0.5677 -0.0000 -0.8232
vn -0.5682 0.0001 -0.8229
vn -0.6925 0.0002 -0.7214
vn -0.6931 0.0005 -0.7209
vn -0.7997 0.0002 -0.6005
vn -0.7993 -0.0000 -0.6010
vn -0.8853 0.0001 -0.4649
vn -0.8856 0.0003 -0.4645
vn -0.9485 0.0003 -0.3168
vn -0.9486 0.0004 -0.3165
vn -0.9870 -0.0000 -0.1605
vn -0.9870 -0.0000 -0.1604
vn -1.0000 -0.0000 -0.0000
vn 0.9968 0.0001 0.0805
vn 0.9709 0.0003 0.2394
vn 0.9710 0.0004 0.2391
vn 0.9201 0.0003 0.3918
vn 0.9199 0.0001 0.3922
vn 0.8454 0.0003 0.5342
vn 0.8450 0.0001 0.5347
vn 0.7483 0.0001 0.6633
vn 0.7488 0.0004 0.6628
vn 0.6328 0.0002 0.7743
vn 0.6322 -0.0001 0.7748
vn 0.5002 0.0002 0.8659
vn 0.4996 0.0001 0.8662
vn 0.3542 -0.0000 0.9352
vn 0.3551 0.0004 0.9348
vn 0.2006 0.0001 0.9797
vn 0.1995 -0.0003 0.9799
vn 0.0408 0.0001 0.9992
vn 0.0398 -0.0002 0.9992
vn -0.1210 -0.0001 0.9926
vn -0.1200 0.0002 0.9928
vn -0.2778 -0.0000 0.9606
vn -0.2787 -0.0004 0.9604
vn -0.4283 -0.0001 0.9036
vn -0.4292 -0.0005 0.9032
vn -0.5680 -0.0000 0.8230
vn -0.5677 -0.0001 0.8232
vn -0.6924 -0.0000 0.7215
vn -0.6930 -0.0003 0.7209
vn -0.7993 -0.0002 0.6010
vn -0.7997 -0.0004 0.6004
vn -0.8856 -0.0003 0.4644
vn -0.8853 -0.0001 0.4649
vn -0.9485 -0.0003 0.3168
vn -0.9486 -0.0004 0.3165
vn -0.9870 -0.0000 0.1604
vn -0.9870 -0.0000 0.1605
s 1
f 1//1 2//2 3//3
f 4//4 5//5 6//6
f 7//7 4//4 6//6
f 8//8 9//9 10//10
f 11//11 12//12 13//13
f 14//14 9//9 5//5
f 15//15 10//10 9//9
f 16//16 15//15 9//9
f 16//16 13//13 15//15
f 7//7 6//6 17//17
f 17//17 18//18 7//7
f 19//19 20//20 18//18
f 18//18 17//17 19//19
f 19//19 21//21 20//20
f 20//20 21//21 22//22
f 22//22 21//21 23//23
f 24//24 22//22 23//23
f 21//21 19//19 25//25
f 26//26 27//27 28//28
f 29//29 30//30 31//31
f 32//32 33//33 23//23
f 34//34 35//35 36//36
f 37//37 24//24 33//33
f 38//38 39//39 40//40
f 41//41 42//42 43//43
f 44//44 45//45 46//46
f 47//47 48//48 49//49
f 43//43 38//38 50//50
f 28//28 46//46 51//51
f 52//52 53//53 54//54
f 36//36 55//55 56//56
f 57//57 58//58 59//59
f 60//60 61//61 62//62
f 63//63 64//64 65//65
f 66//66 67//67 68//68
f 69//69 70//70 71//71
f 72//72 65//65 73//73
f 74//74 75//75 76//76
f 75//75 77//77 71//71
f 78//78 79//79 80//80
f 78//78 81//81 79//79
f 82//82 83//83 84//84
f 85//85 86//86 82//82
f 87//87 88//88 11//11
f 16//16 14//14 87//87
f 16//16 11//11 13//13
f 89//89 90//90 67//67
f 91//91 73//73 92//92
f 31//31 93//93 94//94
f 95//95 96//96 97//97
f 34//34 42//42 98//98
f 99//99 56//56 100//100
f 101//101 47//47 45//45
f 49//49 102//102 39//39
f 33//33 103//103 37//37
f 16//16 9//9 14//14
f 104//104 8//8 10//10
f 104//104 105//105 8//8
f 14//14 5//5 4//4
f 5//5 8//8 106//106
f 17//17 107//107 108//108
f 106//106 107//107 6//6
f 108//108 25//25 19//19
f 107//107 17//17 6//6
f 51//51 23//23 21//21
f 108//108 19//19 17//17
f 25//25 108//108 26//26
f 109//109 61//61 97//97
f 23//23 33//33 24//24
f 51//51 21//21 25//25
f 99//99 110//110 54//54
f 9//9 8//8 5//5
f 111//111 105//105 104//104
f 111//111 112//112 105//105
f 5//5 106//106 6//6
f 106//106 105//105 113//113
f 108//108 114//114 26//26
f 113//113 114//114 107//107
f 26//26 28//28 25//25
f 114//114 108//108 107//107
f 46//46 32//32 51//51
f 115//115 116//116 97//97
f 51//51 32//32 23//23
f 25//25 28//28 51//51
f 117//117 103//103 32//32
f 103//103 118//118 37//37
f 33//33 32//32 103//103
f 8//8 105//105 106//106
f 119//119 112//112 111//111
f 119//119 120//120 112//112
f 106//106 113//113 107//107
f 113//113 112//112 121//121
f 26//26 122//122 27//27
f 121//121 122//122 114//114
f 27//27 44//44 28//28
f 122//122 26//26 114//114
f 45//45 117//117 46//46
f 27//27 123//123 44//44
f 46//46 117//117 32//32
f 28//28 44//44 46//46
f 124//124 118//118 117//117
f 118//118 125//125 37//37
f 103//103 117//117 118//118
f 105//105 112//112 113//113
f 126//126 120//120 119//119
f 126//126 127//127 120//120
f 113//113 121//121 114//114
f 121//121 120//120 128//128
f 27//27 129//129 123//123
f 128//128 129//129 122//122
f 123//123 101//101 44//44
f 129//129 27//27 122//122
f 47//47 124//124 45//45
f 123//123 130//130 101//101
f 45//45 124//124 117//117
f 44//44 101//101 45//45
f 131//131 125//125 124//124
f 125//125 132//132 37//37
f 118//118 124//124 125//125
f 112//112 120//120 121//121
f 133//133 127//127 126//126
f 133//133 134//134 127//127
f 121//121 128//128 122//122
f 128//128 127//127 135//135
f 123//123 136//136 130//130
f 135//135 136//136 129//129
f 130//130 48//48 101//101
f 136//136 123//123 129//129
f 49//49 131//131 47//47
f 130//130 137//137 48//48
f 47//47 131//131 124//124
f 101//101 48//48 47//47
f 138//138 132//132 131//131
f 132//132 139//139 37//37
f 125//125 131//131 132//132
f 120//120 127//127 128//128
f 140//140 134//134 133//133
f 140//140 141//141 134//134
f 128//128 135//135 129//129
f 135//135 134//134 142//142
f 130//130 143//143 137//137
f 142//142 143//143 136//136
f 137//137 102//102 48//48
f 143//143 130//130 136//136
f 39//39 138//138 49//49
f 137//137 144//144 102//102
f 49//49 138//138 131//131
f 48//48 102//102 49//49
f 145//145 139//139 138//138
f 139//139 146//146 37//37
f 132//132 138//138 139//139
f 127//127 134//134 135//135
f 147//147 141//141 140//140
f 147//147 148//148 141//141
f 135//135 142//142 136//136
f 142//142 141//141 149//149
f 137//137 150//150 144//144
f 149//149 150//150 143//143
f 144//144 40//40 102//102
f 150//150 137//137 143//143
f 38//38 145//145 39//39
f 144//144 151//151 40//40
f 39//39 145//145 138//138
f 102//102 40//40 39//39
f 152//152 146//146 145//145
f 146//146 153//153 37//37
f 139//139 145//145 146//146
f 134//134 141//141 142//142
f 154//154 148//148 147//147
f 154//154 155//155 148//148
f 142//142 149//149 143//143
f 149//149 148//148 156//156
f 144//144 157//157 151//151
f 156//156 157//157 150//150
f 151//151 50//50 40//40
f 157//157 144//144 150//150
f 43//43 152//152 38//38
f 151//151 158//158 50//50
f 38//38 152//152 145//145
f 40//40 50//50 38//38
f 159//159 153//153 152//152
f 153//153 160//160 37//37
f 146//146 152//152 153//153
f 141//141 148//148 149//149
f 161//161 155//155 154//154
f 161//161 162//162 155//155
f 149//149 156//156 150//150
f 156//156 155//155 163//163
f 151//151 164//164 158//158
f 163//163 164//164 157//157
f 158//158 41//41 50//50
f 164//164 151//151 157//157
f 42//42 159//159 43//43
f 158//158 165//165 41//41
f 43//43 159//159 152//152
f 50//50 41//41 43//43
f 166//166 160//160 159//159
f 160//160 167//167 37//37
f 153//153 159//159 160//160
f 148//148 155//155 156//156
f 168//168 162//162 161//161
f 168//168 169//169 162//162
f 156//156 163//163 157//157
f 163//163 162//162 170//170
f 158//158 171//171 165//165
f 170//170 171//171 164//164
f 165//165 98//98 41//41
f 171//171 158//158 164//164
f 34//34 166//166 42//42
f 165//165 172//172 98//98
f 42//42 166//166 159//159
f 41//41 98//98 42//42
f 173//173 167//167 166//166
f 167//167 174//174 37//37
f 160//160 166//166 167//167
f 155//155 162//162 163//163
f 175//175 169//169 168//168
f 175//175 176//176 169//169
f 163//163 170//170 164//164
f 170//170 169//169 177//177
f 165//165 178//178 172//172
f 177//177 178//178 171//171
f 172//172 35//35 98//98
f 178//178 165//165 171//171
f 36//36 173//173 34//34
f 172//172 179//179 35//35
f 34//34 173//173 166//166
f 98//98 35//35 34//34
f 180//180 174//174 173//173
f 174//174 181//181 37//37
f 167//167 173//173 174//174
f 162//162 169//169 170//170
f 182//182 176//176 175//175
f 182//182 183//183 176//176
f 170//170 177//177 171//171
f 177//177 176//176 184//184
f 172//172 185//185 179//179
f 184//184 185//185 178//178
f 179//179 55//55 35//35
f 185//185 172//172 178//178
f 56//56 180//180 36//36
f 179//179 186//186 55//55
f 36//36 180//180 173//173
f 35//35 55//55 36//36
f 187//187 181//181 180//180
f 181//181 188//188 37//37
f 174//174 180//180 181//181
f 169//169 176//176 177//177
f 189//189 183//183 182//182
f 189//189 190//190 183//183
f 177//177 184//184 178//178
f 184//184 183//183 191//191
f 179//179 192//192 186//186
f 191//191 192//192 185//185
f 186//186 100//100 55//55
f 192//192 179//179 185//185
f 99//99 187//187 56//56
f 186//186 1//1 100//100
f 56//56 187//187 180//180
f 55//55 100//100 56//56
f 193//193 188//188 187//187
f 188//188 194//194 37//37
f 181//181 187//187 188//188
f 176//176 183//183 184//184
f 195//195 190//190 189//189
f 195//195 196//196 190//190
f 184//184 191//191 185//185
f 191//191 190//190 197//197
f 186//186 198//198 1//1
f 197//197 198//198 192//192
f 1//1 110//110 100//100
f 198//198 186//186 192//192
f 54//54 193//193 99//99
f 1//1 3//3 110//110
f 99//99 193//193 187//187
f 100//100 110//110 99//99
f 30//30 194//194 193//193
f 194//194 29//29 37//37
f 188//188 193//193 194//194
f 183//183 190//190 191//191
f 199//199 196//196 195//195
f 199//199 200//200 196//196
f 191//191 197//197 192//192
f 197//197 196//196 201//201
f 202//202 85//85 203//203
f 201//201 2//2 198//198
f 3//3 52//52 110//110
f 2//2 1//1 198//198
f 53//53 30//30 54//54
f 3//3 204//204 52//52
f 54//54 30//30 193//193
f 110//110 52//52 54//54
f 205//205 93//93 60//60
f 29//29 94//94 37//37
f 194//194 30//30 29//29
f 190//190 196//196 197//197
f 206//206 200//200 199//199
f 206//206 207//207 200//200
f 197//197 201//201 198//198
f 200//200 208//208 201//201
f 209//209 204//204 3//3
f 208//208 209//209 2//2
f 204//204 210//210 52//52
f 209//209 3//3 2//2
f 211//211 31//31 53//53
f 204//204 212//212 210//210
f 53//53 31//31 30//30
f 210//210 53//53 52//52
f 211//211 53//53 210//210
f 94//94 205//205 37//37
f 29//29 31//31 94//94
f 196//196 200//200 201//201
f 213//213 207//207 206//206
f 213//213 214//214 207//207
f 201//201 208//208 2//2
f 207//207 215//215 208//208
f 216//216 212//212 204//204
f 215//215 216//216 209//209
f 212//212 217//217 210//210
f 216//216 204//204 209//209
f 218//218 93//93 211//211
f 212//212 219//219 217//217
f 211//211 93//93 31//31
f 217//217 211//211 210//210
f 218//218 211//211 217//217
f 205//205 62//62 37//37
f 94//94 93//93 205//205
f 200//200 207//207 208//208
f 220//220 214//214 213//213
f 220//220 221//221 214//214
f 208//208 215//215 209//209
f 214//214 222//222 215//215
f 223//223 219//219 212//212
f 222//222 223//223 216//216
f 219//219 224//224 217//217
f 223//223 212//212 216//216
f 225//225 60//60 218//218
f 219//219 226//226 224//224
f 218//218 60//60 93//93
f 217//217 224//224 218//218
f 225//225 218//218 224//224
f 62//62 109//109 37//37
f 205//205 60//60 62//62
f 207//207 214//214 215//215
f 227//227 221//221 220//220
f 227//227 228//228 221//221
f 215//215 222//222 216//216
f 221//221 229//229 222//222
f 230//230 226//226 219//219
f 229//229 230//230 223//223
f 226//226 231//231 224//224
f 230//230 219//219 223//223
f 115//115 61//61 225//225
f 226//226 58//58 231//231
f 225//225 61//61 60//60
f 224//224 231//231 225//225
f 231//231 115//115 225//225
f 62//62 61//61 109//109
f 214//214 221//221 222//222
f 232//232 228//228 227//227
f 232//232 233//233 228//228
f 222//222 229//229 223//223
f 228//228 234//234 229//229
f 235//235 58//58 226//226
f 234//234 235//235 230//230
f 58//58 57//57 231//231
f 235//235 226//226 230//230
f 236//236 237//237 73//73
f 66//66 238//238 59//59
f 115//115 97//97 61//61
f 57//57 115//115 231//231
f 116//116 115//115 57//57
f 37//37 109//109 96//96
f 109//109 97//97 96//96
f 221//221 228//228 229//229
f 239//239 233//233 232//232
f 239//239 240//240 233//233
f 229//229 234//234 230//230
f 233//233 241//241 234//234
f 242//242 59//59 58//58
f 241//241 242//242 235//235
f 59//59 238//238 57//57
f 58//58 235//235 242//242
f 243//243 95//95 116//116
f 244//244 95//95 245//245
f 116//116 95//95 97//97
f 57//57 238//238 116//116
f 238//238 243//243 116//116
f 37//37 96//96 244//244
f 96//96 95//95 244//244
f 228//228 233//233 234//234
f 246//246 240//240 239//239
f 246//246 247//247 240//240
f 234//234 241//241 235//235
f 240//240 248//248 241//241
f 249//249 66//66 59//59
f 248//248 249//249 242//242
f 66//66 68//68 238//238
f 59//59 242//242 249//249
f 243//243 250//250 245//245
f 251//251 245//245 252//252
f 243//243 245//245 95//95
f 68//68 243//243 238//238
f 250//250 243//243 68//68
f 37//37 244//244 251//251
f 244//244 245//245 251//251
f 233//233 240//240 241//241
f 253//253 247//247 246//246
f 253//253 254//254 247//247
f 241//241 248//248 242//242
f 247//247 255//255 248//248
f 256//256 67//67 66//66
f 255//255 256//256 249//249
f 67//67 90//90 68//68
f 66//66 249//249 256//256
f 64//64 252//252 250//250
f 257//257 252//252 63//63
f 250//250 252//252 245//245
f 68//68 90//90 250//250
f 250//250 90//90 64//64
f 37//37 251//251 257//257
f 251//251 252//252 257//257
f 240//240 247//247 248//248
f 258//258 254//254 253//253
f 258//258 259//259 254//254
f 248//248 255//255 249//249
f 254//254 260//260 255//255
f 261//261 89//89 67//67
f 260//260 261//261 256//256
f 89//89 236//236 90//90
f 256//256 261//261 67//67
f 236//236 89//89 237//237
f 262//262 63//63 263//263
f 64//64 63//63 252//252
f 236//236 64//64 90//90
f 64//64 236//236 65//65
f 37//37 257//257 262//262
f 257//257 63//63 262//262
f 247//247 254//254 255//255
f 264//264 259//259 258//258
f 264//264 265//265 259//259
f 255//255 260//260 256//256
f 259//259 266//266 260//260
f 267//267 237//237 89//89
f 266//266 267//267 261//261
f 71//71 91//91 76//76
f 261//261 267//267 89//89
f 72//72 268//268 263//263
f 73//73 91//91 72//72
f 65//65 263//263 63//63
f 65//65 236//236 73//73
f 263//263 65//65 72//72
f 37//37 262//262 269//269
f 262//262 263//263 269//269
f 254//254 259//259 260//260
f 270//270 265//265 264//264
f 270//270 271//271 265//265
f 260//260 266//266 261//261
f 265//265 272//272 266//266
f 273//273 92//92 237//237
f 273//273 267//267 272//272
f 70//70 72//72 91//91
f 273//273 237//237 267//267
f 274//274 268//268 70//70
f 92//92 73//73 237//237
f 91//91 71//71 70//70
f 275//275 269//269 268//268
f 263//263 268//268 269//269
f 70//70 268//268 72//72
f 37//37 269//269 275//275
f 259//259 265//265 266//266
f 276//276 271//271 270//270
f 276//276 277//277 271//271
f 266//266 272//272 267//267
f 271//271 278//278 272//272
f 279//279 76//76 92//92
f 273//273 278//278 279//279
f 274//274 69//69 280//280
f 273//273 279//279 92//92
f 281//281 282//282 283//283
f 91//91 92//92 76//76
f 71//71 77//77 69//69
f 284//284 275//275 274//274
f 268//268 274//274 275//275
f 69//69 274//274 70//70
f 37//37 275//275 284//284
f 265//265 271//271 272//272
f 285//285 277//277 276//276
f 285//285 286//286 277//277
f 272//272 278//278 273//273
f 277//277 287//287 278//278
f 75//75 288//288 81//81
f 74//74 279//279 287//287
f 77//77 289//289 69//69
f 279//279 74//74 76//76
f 289//289 281//281 280//280
f 75//75 71//71 76//76
f 289//289 77//77 290//290
f 283//283 284//284 280//280
f 274//274 280//280 284//284
f 289//289 280//280 69//69
f 37//37 284//284 283//283
f 271//271 277//277 278//278
f 291//291 286//286 285//285
f 291//291 292//292 286//286
f 278//278 287//287 279//279
f 293//293 287//287 286//286
f 81//81 290//290 77//77
f 288//288 74//74 293//293
f 290//290 294//294 289//289
f 288//288 75//75 74//74
f 294//294 295//295 281//281
f 81//81 77//77 75//75
f 294//294 290//290 296//296
f 295//295 297//297 282//282
f 280//280 281//281 283//283
f 294//294 281//281 289//289
f 37//37 283//283 282//282
f 277//277 286//286 287//287
f 298//298 292//292 291//291
f 298//298 203//203 292//292
f 287//287 293//293 74//74
f 292//292 299//299 293//293
f 78//78 296//296 290//290
f 288//288 299//299 79//79
f 296//296 300//300 294//294
f 79//79 81//81 288//288
f 300//300 301//301 295//295
f 78//78 290//290 81//81
f 302//302 300//300 303//303
f 301//301 304//304 297//297
f 281//281 295//295 282//282
f 300//300 295//295 294//294
f 37//37 282//282 297//297
f 286//286 292//292 293//293
f 202//202 203//203 298//298
f 305//305 306//306 307//307
f 293//293 299//299 288//288
f 308//308 299//299 203//203
f 296//296 78//78 309//309
f 308//308 80//80 79//79
f 300//300 296//296 303//303
f 80//80 309//309 78//78
f 301//301 300//300 302//302
f 309//309 303//303 296//296
f 304//304 301//301 310//310
f 311//311 312//312 310//310
f 295//295 301//301 297//297
f 302//302 310//310 301//301
f 37//37 297//297 304//304
f 292//292 203//203 299//299
f 86//86 85//85 202//202
f 80//80 313//313 309//309
f 299//299 308//308 79//79
f 308//308 85//85 314//314
f 309//309 315//315 303//303
f 314//314 313//313 80//80
f 303//303 316//316 302//302
f 313//313 315//315 309//309
f 302//302 311//311 310//310
f 315//315 316//316 303//303
f 310//310 312//312 317//317
f 316//316 311//311 302//302
f 318//318 319//319 312//312
f 37//37 304//304 317//317
f 304//304 310//310 317//317
f 203//203 85//85 308//308
f 83//83 82//82 86//86
f 313//313 306//306 315//315
f 308//308 314//314 80//80
f 82//82 320//320 314//314
f 315//315 305//305 316//316
f 320//320 306//306 313//313
f 316//316 321//321 311//311
f 306//306 305//305 315//315
f 311//311 318//318 312//312
f 305//305 321//321 316//316
f 312//312 319//319 322//322
f 321//321 318//318 311//311
f 323//323 324//324 319//319
f 37//37 317//317 322//322
f 317//317 312//312 322//322
f 85//85 82//82 314//314
f 325//325 84//84 83//83
f 326//326 321//321 305//305
f 314//314 320//320 313//313
f 84//84 88//88 320//320
f 327//327 318//318 321//321
f 88//88 307//307 306//306
f 323//323 319//319 318//318
f 307//307 326//326 305//305
f 324//324 328//328 319//319
f 326//326 327//327 321//321
f 328//328 324//324 329//329
f 327//327 323//323 318//318
f 328//328 329//329 37//37
f 37//37 322//322 328//328
f 322//322 319//319 328//328
f 82//82 84//84 320//320
f 325//325 12//12 84//84
f 87//87 330//330 307//307
f 320//320 88//88 306//306
f 87//87 307//307 88//88
f 330//330 331//331 326//326
f 330//330 326//326 307//307
f 331//331 332//332 327//327
f 331//331 327//327 326//326
f 332//332 333//333 323//323
f 332//332 323//323 327//327
f 333//333 334//334 324//324
f 333//333 324//324 323//323
f 334//334 335//335 329//329
f 335//335 37//37 329//329
f 334//334 329//329 324//324
f 84//84 12//12 11//11
f 88//88 84//84 11//11
f 330//330 14//14 4//4
f 16//16 87//87 11//11
f 331//331 4//4 7//7
f 14//14 330//330 87//87
f 332//332 7//7 18//18
f 4//4 331//331 330//330
f 333//333 18//18 20//20
f 7//7 332//332 331//331
f 334//334 20//20 22//22
f 18//18 333//333 332//332
f 335//335 22//22 24//24
f 20//20 334//334 333//333
f 24//24 37//37 335//335
f 22//22 335//335 334//334
f 336//37 337//37 338//37
f 339//37 340//37 341//37
f 342//37 343//37 339//37
f 344//37 340//37 345//37
f 343//37 346//37 347//37
f 348//37 349//37 350//37
f 351//37 347//37 352//37
f 353//37 354//37 355//37
f 356//37 351//37 357//37
f 358//37 359//37 360//37
f 361//37 362//37 356//37
f 363//37 364//37 365//37
f 345//37 350//37 349//37
f 366//37 367//37 368//37
f 369//37 370//37 371//37
f 372//37 373//37 374//37
f 375//37 376//37 377//37
f 378//37 379//37 380//37
f 381//37 382//37 383//37
f 383//37 384//37 375//37
f 385//37 377//37 386//37
f 387//37 381//37 380//37
f 378//37 388//37 389//37
f 370//37 385//37 390//37
f 388//37 372//37 391//37
f 392//37 367//37 366//37
f 393//37 392//37 369//37
f 363//37 394//37 395//37
f 396//37 373//37 395//37
f 397//37 398//37 338//37
f 399//37 368//37 398//37
f 400//37 401//37 402//37
f 400//37 403//37 364//37
f 360//37 404//37 405//37
f 406//37 336//37 405//37
f 358//37 362//37 407//37
f 408//37 409//37 410//37
f 410//37 411//37 408//37
f 408//37 411//37 412//37
f 401//37 409//37 402//37
f 410//37 409//37 401//37
f 400//37 402//37 403//37
f 364//37 403//37 365//37
f 363//37 365//37 394//37
f 395//37 394//37 396//37
f 373//37 396//37 374//37
f 372//37 374//37 391//37
f 388//37 391//37 389//37
f 378//37 389//37 379//37
f 380//37 379//37 387//37
f 381//37 387//37 382//37
f 383//37 382//37 384//37
f 375//37 384//37 376//37
f 377//37 376//37 386//37
f 385//37 386//37 390//37
f 370//37 390//37 371//37
f 369//37 371//37 393//37
f 392//37 393//37 367//37
f 366//37 368//37 399//37
f 399//37 398//37 397//37
f 397//37 338//37 337//37
f 337//37 336//37 406//37
f 406//37 405//37 404//37
f 404//37 360//37 359//37
f 359//37 358//37 407//37
f 407//37 362//37 361//37
f 361//37 356//37 357//37
f 357//37 351//37 352//37
f 352//37 347//37 346//37
f 346//37 343//37 342//37
f 342//37 339//37 341//37
f 341//37 340//37 344//37
f 344//37 345//37 349//37
f 350//37 353//37 348//37
f 355//37 354//37 412//37
f 348//37 353//37 355//37
f 408//37 412//37 354//37
f 413//336 414//337 415//338
f 416//339 417//340 418//341
f 419//342 420//343 415//338
f 420//343 413//336 415//338
f 420//343 419//342 421//344
f 419//342 422//345 421//344
f 423//346 422//345 424//347
f 425//348 426//349 427//350
f 428//351 429//352 430//353
f 431//354 432//355 433//356
f 434//357 435//358 436//359
f 437//360 438//361 439//362
f 438//361 440//363 441//364
f 442//365 443//366 444//367
f 445//368 446//369 447//370
f 446//369 445//368 448//371
f 449//372 450//373 451//374
f 452//375 453//376 454//377
f 455//378 456//379 457//380
f 455//378 457//380 458//381
f 459//382 454//377 453//376
f 460//383 452//375 449//372
f 461//384 447//370 459//382
f 439//362 441//364 462//385
f 463//386 444//367 464//387
f 465//388 464//387 443//366
f 437//360 439//362 466//389
f 467//390 435//358 431//354
f 442//365 468//391 469//392
f 470//393 471//394 431//354
f 472//395 436//359 448//371
f 435//358 473//396 470//393
f 474//397 475//398 476//399
f 477//400 430//353 434//357
f 430//353 477//400 428//351
f 478//401 428//351 477//400
f 479//402 417//340 475//398
f 480//403 479//402 430//353
f 479//402 481//404 417//340
f 480//403 430//353 429//352
f 417//340 482//405 418//341
f 416//339 483//406 484//407
f 485//408 486//409 487//410
f 488//411 427//350 483//406
f 483//406 489//412 484//407
f 490//413 491//414 492//415
f 423//346 421//344 422//345
f 422//345 419//342 415//338
f 423//346 492//415 491//414
f 422//345 415//338 424//347
f 492//415 423//346 424//347
f 424//347 415//338 492//415
f 491//414 427//350 493//416
f 492//415 415//338 490//413
f 493//416 427//350 488//411
f 494//417 416//339 418//341
f 425//348 427//350 490//413
f 490//413 415//338 425//348
f 483//406 416//339 494//417
f 488//411 483//406 494//417
f 495//418 489//412 496//419
f 490//413 427//350 491//414
f 497//420 426//349 425//348
f 425//348 415//338 497//420
f 482//405 417//340 481//404
f 480//403 481//404 479//402
f 498//421 475//398 417//340
f 497//420 499//422 426//349
f 483//406 427//350 426//349
f 416//339 484//407 417//340
f 500//423 496//419 501//424
f 502//425 499//422 497//420
f 497//420 415//338 502//425
f 454//377 459//382 447//370
f 445//368 447//370 461//384
f 436//359 478//401 477//400
f 478//401 436//359 472//395
f 479//402 474//397 430//353
f 417//340 484//407 498//421
f 434//357 436//359 477//400
f 484//407 489//412 495//418
f 434//357 430//353 474//397
f 489//412 483//406 426//349
f 479//402 475//398 474//397
f 503//426 504//427 498//421
f 502//425 505//428 499//422
f 489//412 426//349 499//422
f 484//407 495//418 498//421
f 506//429 501//424 507//430
f 508//431 505//428 502//425
f 502//425 415//338 508//431
f 509//432 510//433 454//377
f 453//376 452//375 460//383
f 510//433 450//373 449//372
f 436//359 446//369 448//371
f 452//375 454//377 510//433
f 436//359 467//390 446//369
f 447//370 509//432 454//377
f 434//357 474//397 473//396
f 509//432 447//370 511//434
f 512//435 476//399 504//427
f 446//369 467//390 511//434
f 475//398 498//421 504//427
f 435//358 467//390 436//359
f 498//421 495//418 503//426
f 473//396 435//358 434//357
f 495//418 496//419 500//423
f 473//396 474//397 476//399
f 496//419 489//412 499//422
f 475//398 504//427 476//399
f 513//436 514//437 503//426
f 508//431 515//438 505//428
f 496//419 499//422 505//428
f 495//418 500//423 503//426
f 516//439 507//430 517//440
f 518//441 515//438 508//431
f 508//431 415//338 518//441
f 450//373 457//380 456//379
f 451//374 450//373 456//379
f 519//442 510//433 520//443
f 510//433 449//372 452//375
f 450//373 519//442 457//380
f 446//369 511//434 447//370
f 450//373 510//433 519//442
f 511//434 467//390 433//356
f 509//432 520//443 510//433
f 521//444 470//393 522//445
f 523//446 509//432 511//434
f 473//396 476//399 522//445
f 511//434 433//356 523//446
f 524//447 512//435 514//437
f 431//354 433//356 467//390
f 504//427 503//426 514//437
f 470//393 431//354 435//358
f 503//426 500//423 513//436
f 470//393 473//396 522//445
f 500//423 501//424 506//429
f 522//445 476//399 512//435
f 501//424 496//419 505//428
f 504//427 514//437 512//435
f 507//430 501//424 515//438
f 518//441 525//448 515//438
f 501//424 505//428 515//438
f 500//423 506//429 513//436
f 526//449 517//440 527//450
f 528//451 525//448 518//441
f 518//441 415//338 528//451
f 520//443 529//452 530//453
f 458//381 457//380 531//454
f 520//443 509//432 523//446
f 519//442 531//454 457//380
f 532//455 463//386 533//456
f 519//442 520//443 530//453
f 533//456 432//355 471//394
f 523//446 529//452 520//443
f 534//457 521//444 535//458
f 523//446 536//459 529//452
f 512//435 535//458 522//445
f 433//356 432//355 536//459
f 537//460 524//447 538//461
f 471//394 432//355 431//354
f 514//437 513//436 538//461
f 521//444 471//394 470//393
f 513//436 506//429 539//462
f 521//444 522//445 535//458
f 506//429 507//430 516//439
f 535//458 512//435 524//447
f 507//430 525//448 517//440
f 524//447 514//437 538//461
f 538//461 513//436 539//462
f 528//451 540//463 525//448
f 507//430 515//438 525//448
f 506//429 516//439 539//462
f 541//464 527//450 542//465
f 543//466 540//463 528//451
f 528//451 415//338 543//466
f 458//381 544//467 545//468
f 546//469 547//470 548//471
f 519//442 530//453 531//454
f 458//381 531//454 544//467
f 433//356 536//459 523//446
f 549//472 550//473 530//453
f 536//459 551//474 552//475
f 529//452 549//472 530//453
f 521//444 532//455 471//394
f 529//452 536//459 552//475
f 553//476 534//457 554//477
f 551//474 536//459 432//355
f 524//447 554//477 535//458
f 533//456 551//474 432//355
f 555//478 537//460 556//479
f 532//455 533//456 471//394
f 538//461 539//462 556//479
f 534//457 532//455 521//444
f 539//462 516//439 557//480
f 534//457 535//458 554//477
f 516//439 517//440 526//449
f 554//477 524//447 537//460
f 517//440 540//463 527//450
f 537//460 538//461 556//479
f 539//462 557//480 556//479
f 543//466 558//481 540//463
f 517//440 525//448 540//463
f 526//449 557//480 516//439
f 542//465 559//482 560//483
f 561//484 558//481 543//466
f 543//466 415//338 561//484
f 544//467 531//454 550//473
f 562//485 563//486 545//468
f 552//475 549//472 529//452
f 531//454 530//453 550//473
f 564//487 562//485 550//473
f 565//488 552//475 566//489
f 549//472 565//488 564//487
f 464//387 567//490 568//491
f 549//472 552//475 565//488
f 534//457 569//492 532//455
f 566//489 552//475 551//474
f 570//493 468//391 553//476
f 533//456 568//491 551//474
f 537//460 571//494 554//477
f 463//386 568//491 533//456
f 555//478 572//495 573//496
f 569//492 463//386 532//455
f 556//479 557//480 574//497
f 569//492 534//457 553//476
f 526//449 575//498 557//480
f 553//476 554//477 571//494
f 527//450 541//464 526//449
f 571//494 537//460 555//478
f 527//450 558//481 542//465
f 556//479 574//497 555//478
f 557//480 575//498 574//497
f 576//499 575//498 577//500
f 527//450 540//463 558//481
f 541//464 575//498 526//449
f 559//482 578//501 579//502
f 580//503 581//504 561//484
f 561//484 415//338 580//503
f 550//473 562//485 544//467
f 545//468 544//467 562//485
f 582//505 583//506 565//488
f 550//473 549//472 564//487
f 562//485 564//487 583//506
f 566//489 551//474 568//491
f 565//488 583//506 564//487
f 443//366 584//507 585//508
f 565//488 566//489 582//505
f 444//367 569//492 468//391
f 568//491 567//490 566//489
f 586//509 469//392 570//493
f 464//387 568//491 463//386
f 570//493 571//494 573//496
f 463//386 569//492 444//367
f 587//510 588//511 572//495
f 468//391 569//492 553//476
f 575//498 576//499 574//497
f 553//476 571//494 570//493
f 541//464 577//500 575//498
f 571//494 555//478 573//496
f 542//465 560//483 541//464
f 574//497 572//495 555//478
f 542//465 581//504 559//482
f 574//497 576//499 572//495
f 589//512 577//500 560//483
f 561//484 581//504 558//481
f 542//465 558//481 581//504
f 560//483 577//500 541//464
f 590//513 581//504 580//503
f 591//514 590//513 580//503
f 562//485 592//515 563//486
f 582//505 566//489 567//490
f 593//516 592//515 583//506
f 594//517 567//490 465//388
f 593//516 583//506 582//505
f 595//518 584//507 442//365
f 582//505 567//490 594//517
f 596//519 595//518 469//392
f 464//387 465//388 567//490
f 586//509 597//520 596//519
f 443//366 464//387 444//367
f 588//511 586//509 573//496
f 444//367 468//391 442//365
f 598//521 599//522 600//523
f 468//391 570//493 469//392
f 601//524 587//510 576//499
f 570//493 573//496 586//509
f 601//524 577//500 589//512
f 573//496 572//495 588//511
f 589//512 560//483 579//502
f 576//499 587//510 572//495
f 590//513 578//501 559//482
f 577//500 601//524 576//499
f 602//525 589//512 579//502
f 591//514 603//526 590//513
f 559//482 581//504 590//513
f 559//482 579//502 560//483
f 578//501 603//526 604//527
f 605//528 603//526 591//514
f 415//338 591//514 580//503
f 592//515 562//485 583//506
f 606//529 607//530 563//486
f 585//508 608//531 465//388
f 593//516 582//505 594//517
f 593//516 609//532 606//529
f 584//507 466//389 610//533
f 608//531 609//532 594//517
f 611//534 466//389 595//518
f 594//517 465//388 608//531
f 612//535 611//534 596//519
f 585//508 465//388 443//366
f 613//536 612//535 597//520
f 584//507 443//366 442//365
f 614//537 597//520 588//511
f 442//365 469//392 595//518
f 615//538 614//537 587//510
f 469//392 586//509 596//519
f 600//523 615//538 601//524
f 586//509 588//511 597//520
f 602//525 600//523 589//512
f 587//510 614//537 588//511
f 616//539 602//525 579//502
f 601//524 615//538 587//510
f 604//527 616//539 578//501
f 589//512 600//523 601//524
f 604//527 603//526 617//540
f 616//539 604//527 618//541
f 578//501 590//513 603//526
f 578//501 616//539 579//502
f 604//527 617//540 619//542
f 620//543 617//540 605//528
f 415//338 605//528 591//514
f 593//516 606//529 592//515
f 563//486 592//515 606//529
f 608//531 621//544 609//532
f 593//516 594//517 609//532
f 606//529 609//532 621//544
f 622//545 585//508 610//533
f 608//531 622//545 621//544
f 437//360 611//534 623//546
f 585//508 622//545 608//531
f 624//547 623//546 612//535
f 585//508 584//507 610//533
f 625//548 626//549 627//550
f 584//507 595//518 466//389
f 628//551 613//536 614//537
f 595//518 596//519 611//534
f 628//551 615//538 599//522
f 597//520 612//535 596//519
f 629//552 630//553 598//521
f 597//520 614//537 613//536
f 631//554 598//521 602//525
f 615//538 628//551 614//537
f 618//541 631//554 616//539
f 600//523 599//522 615//538
f 619//542 618//541 604//527
f 602//525 598//521 600//523
f 632//555 619//542 617//540
f 616//539 631//554 602//525
f 619//542 633//556 618//541
f 619//542 632//555 634//557
f 603//526 605//528 617//540
f 635//558 632//555 620//543
f 415//338 620//543 605//528
f 606//529 636//559 607//530
f 440//363 637//560 638//561
f 621//544 639//562 636//559
f 610//533 439//362 462//385
f 622//545 462//385 639//562
f 640//563 623//546 641//564
f 622//545 610//533 462//385
f 641//564 624//547 642//565
f 610//533 466//389 439//362
f 624//547 613//536 643//566
f 466//389 611//534 437//360
f 625//548 643//566 628//551
f 612//535 623//546 611//534
f 625//548 599//522 630//553
f 613//536 624//547 612//535
f 644//567 645//568 629//552
f 628//551 643//566 613//536
f 646//569 629//552 631//554
f 599//522 625//548 628//551
f 633//556 646//569 618//541
f 598//521 630//553 599//522
f 634//557 633//556 619//542
f 631//554 629//552 598//521
f 647//570 634//557 632//555
f 646//569 631//554 618//541
f 634//557 648//571 633//556
f 647//570 649//572 634//557
f 617//540 620//543 632//555
f 650//573 647//570 635//558
f 415//338 635//558 620//543
f 636//559 606//529 621//544
f 651//574 652//575 607//530
f 638//561 653//576 654//577
f 621//544 622//545 639//562
f 655//578 651//574 639//562
f 640//563 637//560 438//361
f 655//578 462//385 441//364
f 641//564 656//579 640//563
f 439//362 438//361 441//364
f 642//565 657//580 641//564
f 437//360 640//563 438//361
f 642//565 643//566 627//550
f 623//546 640//563 437//360
f 626//549 658//581 627//550
f 624//547 641//564 623//546
f 626//549 630//553 645//568
f 643//566 642//565 624//547
f 659//582 660//583 644//567
f 625//548 627//550 643//566
f 661//584 644//567 646//569
f 630//553 626//549 625//548
f 661//584 633//556 648//571
f 629//552 645//568 630//553
f 648//571 634//557 649//572
f 644//567 629//552 646//569
f 662//585 649//572 647//570
f 661//584 646//569 633//556
f 649//572 663//586 648//571
f 662//585 664//587 649//572
f 632//555 635//558 647//570
f 665//588 662//585 650//573
f 415//338 650//573 635//558
f 639//562 651//574 636//559
f 607//530 636//559 651//574
f 666//589 655//578 441//364
f 639//562 462//385 655//578
f 655//578 666//589 651//574
f 637//560 656//579 653//576
f 441//364 440//363 666//589
f 656//579 657//580 667//590
f 637//560 440//363 438//361
f 668//591 669//592 670//593
f 656//579 637//560 640//563
f 627//550 671//594 642//565
f 657//580 656//579 641//564
f 672//595 669//592 658//581
f 671//594 657//580 642//565
f 645//568 672//595 626//549
f 658//581 671//594 627//550
f 673//596 674//597 675//598
f 672//595 658//581 626//549
f 659//582 661//584 676//599
f 660//583 672//595 645//568
f 676//599 648//571 663//586
f 660//583 645//568 644//567
f 663//586 649//572 664//587
f 659//582 644//567 661//584
f 664//587 662//585 677//600
f 676//599 661//584 648//571
f 678//601 679//602 664//587
f 677//600 678//601 664//587
f 647//570 650//573 662//585
f 680//603 677//600 665//588
f 415//338 665//588 650//573
f 666//589 681//604 652//575
f 682//605 683//606 684//607
f 685//608 681//604 666//589
f 667//590 686//609 653//576
f 638//561 685//608 440//363
f 687//610 688//611 667//590
f 653//576 638//561 637//560
f 657//580 671//594 687//610
f 667//590 653//576 656//579
f 671//594 658//581 668//591
f 667//590 657//580 687//610
f 689//612 690//613 691//614
f 668//591 687//610 671//594
f 672//595 660//583 692//615
f 668//591 658//581 669//592
f 660//583 659//582 693//616
f 692//615 669//592 672//595
f 676//599 673//596 659//582
f 693//616 692//615 660//583
f 663//586 674//597 676//599
f 693//616 659//582 673//596
f 664//587 679//602 663//586
f 673//596 676//599 674//597
f 678//601 677//600 694//617
f 674//597 663//586 679//602
f 695//618 696//619 678//601
f 697//620 695//618 694//617
f 662//585 665//588 677//600
f 698//621 694//617 680//603
f 415//338 680//603 665//588
f 666//589 652//575 651//574
f 546//469 652//575 681//604
f 547//470 546//469 681//604
f 666//589 440//363 685//608
f 681//604 685//608 547//470
f 686//609 699//622 683//606
f 547//470 638//561 654//577
f 700//623 701//624 702//625
f 654//577 653//576 686//609
f 668//591 703//626 687//610
f 686//609 667//590 688//611
f 704//627 705//628 670//593
f 688//611 687//610 703//626
f 692//615 704//627 669//592
f 670//593 703//626 668//591
f 692//615 693//616 690//613
f 670//593 669//592 704//627
f 693//616 673//596 691//614
f 704//627 692//615 690//613
f 706//629 707//630 675//598
f 690//613 693//616 691//614
f 674//597 679//602 706//629
f 691//614 673//596 675//598
f 679//602 678//601 696//619
f 675//598 674//597 706//629
f 678//601 694//617 695//618
f 706//629 679//602 696//619
f 698//621 697//620 694//617
f 708//631 697//620 709//632
f 677//600 680//603 694//617
f 710//633 697//620 698//621
f 415//338 698//621 680//603
f 684//607 548//471 682//605
f 638//561 547//470 685//608
f 654//577 682//605 547//470
f 654//577 683//606 682//605
f 699//622 711//634 712//635
f 686//609 688//611 699//622
f 711//634 703//626 701//624
f 688//611 711//634 699//622
f 702//625 705//628 713//636
f 703//626 670//593 701//624
f 690//613 714//637 704//627
f 701//624 670//593 705//628
f 715//638 689//612 716//639
f 705//628 704//627 714//637
f 675//598 717//640 691//614
f 714//637 690//613 689//612
f 718//641 719//642 720//643
f 689//612 691//614 717//640
f 706//629 696//619 721//644
f 717//640 675//598 707//630
f 696//619 695//618 722//645
f 707//630 706//629 721//644
f 695//618 697//620 708//631
f 696//619 722//645 721//644
f 697//620 710//633 709//632
f 695//618 708//631 722//645
f 723//646 709//632 724//647
f 725//648 709//632 710//633
f 415//338 710//633 698//621
f 684//607 683//606 726//649
f 547//470 682//605 548//471
f 686//609 683//606 654//577
f 699//622 712//635 683//606
f 712//635 700//623 727//650
f 711//634 700//623 712//635
f 703//626 711//634 688//611
f 701//624 700//623 711//634
f 702//625 713//636 728//651
f 701//624 705//628 702//625
f 713//636 714//637 715//638
f 714//637 713//636 705//628
f 715//638 716//639 729//652
f 714//637 689//612 715//638
f 716//639 717//640 730//653
f 717//640 716//639 689//612
f 721//644 731//654 707//630
f 717//640 707//630 730//653
f 721//644 722//645 719//642
f 730//653 707//630 731//654
f 708//631 732//655 722//645
f 721//644 719//642 731//654
f 709//632 723//646 708//631
f 722//645 732//655 719//642
f 725//648 724//647 709//632
f 708//631 723//646 732//655
f 733//656 724//647 486//409
f 487//410 724//647 725//648
f 415//338 725//648 710//633
f 726//649 683//606 734//657
f 734//657 683//606 712//635
f 734//657 712//635 727//650
f 727//650 700//623 735//658
f 735//658 700//623 736//659
f 700//623 702//625 736//659
f 736//659 702//625 728//651
f 728//651 713//636 737//660
f 713//636 715//638 738//661
f 729//652 739//662 740//663
f 739//662 729//652 716//639
f 741//664 739//662 730//653
f 730//653 739//662 716//639
f 741//664 718//641 742//665
f 731//654 741//664 730//653
f 731//654 718//641 741//664
f 719//642 718//641 731//654
f 720//643 743//666 744//667
f 732//655 720//643 719//642
f 724//647 733//656 723//646
f 743//666 720//643 732//655
f 487//410 486//409 724//647
f 723//646 733//656 743//666
f 745//668 486//409 746//669
f 415//338 487//410 725//648
f 737//660 713//636 738//661
f 738//661 715//638 729//652
f 738//661 729//652 740//663
f 740//663 739//662 747//670
f 747//670 739//662 748//671
f 739//662 741//664 748//671
f 748//671 741//664 742//665
f 742//665 718//641 749//672
f 749//672 718//641 750//673
f 718//641 720//643 750//673
f 750//673 720//643 744//667
f 744//667 751//674 752//675
f 753//676 751//674 745//668
f 723//646 743//666 732//655
f 751//674 744//667 743//666
f 733//656 745//668 751//674
f 745//668 733//656 486//409
f 745//668 746//669 754//677
f 485//408 755//678 746//669
f 415//338 485//408 487//410
f 750//673 744//667 752//675
f 752//675 751//674 756//679
f 753//676 756//679 751//674
f 733//656 751//674 743//666
f 753//676 745//668 757//680
f 746//669 486//409 485//408
f 754//677 758//681 757//680
f 759//682 754//677 755//678
f 415//338 755//678 485//408
f 757//680 745//668 754//677
f 760//683 761//684 758//681
f 755//678 754//677 746//669
f 759//682 760//683 754//677
f 415//338 759//682 755//678
f 761//684 760//683 762//685
f 760//683 758//681 754//677
f 415//338 760//683 759//682
f 762//685 414//337 761//684
f 415//338 762//685 760//683
f 415//338 414//337 762//685
f 763//686 764//686 765//686
f 766//686 767//686 768//686
f 764//686 769//686 770//686
f 771//686 763//686 772//686
f 773//686 774//686 775//686
f 776//686 777//686 778//686
f 779//686 780//686 778//686
f 781//686 782//686 783//686
f 784//686 785//686 773//686
f 786//686 787//686 788//686
f 789//686 784//686 790//686
f 791//686 792//686 793//686
f 794//686 795//686 796//686
f 797//686 798//686 799//686
f 800//686 801//686 802//686
f 803//686 804//686 805//686
f 806//686 767//686 807//686
f 808//686 809//686 810//686
f 811//686 812//686 813//686
f 814//686 810//686 815//686
f 816//686 817//686 818//686
f 817//686 819//686 820//686
f 821//686 822//686 823//686
f 824//686 825//686 826//686
f 827//686 828//686 829//686
f 813//686 829//686 830//686
f 799//686 831//686 797//686
f 832//686 833//686 806//686
f 800//686 834//686 835//686
f 836//686 792//686 837//686
f 809//686 838//686 825//686
f 839//686 840//686 841//686
f 842//686 843//686 791//686
f 794//686 844//686 839//686
f 845//686 846//686 847//686
f 848//686 786//686 849//686
f 845//686 781//686 850//686
f 831//686 851//686 797//686
f 851//686 831//686 852//686
f 799//686 853//686 837//686
f 853//686 799//686 798//686
f 853//686 836//686 837//686
f 836//686 793//686 792//686
f 793//686 842//686 791//686
f 843//686 848//686 849//686
f 843//686 849//686 791//686
f 848//686 787//686 786//686
f 788//686 789//686 790//686
f 788//686 790//686 786//686
f 789//686 785//686 784//686
f 785//686 774//686 773//686
f 775//686 770//686 769//686
f 775//686 769//686 773//686
f 770//686 765//686 764//686
f 765//686 772//686 763//686
f 771//686 777//686 776//686
f 771//686 776//686 763//686
f 777//686 779//686 778//686
f 780//686 783//686 782//686
f 780//686 782//686 778//686
f 783//686 850//686 781//686
f 850//686 846//686 845//686
f 847//686 796//686 795//686
f 847//686 795//686 845//686
f 796//686 844//686 794//686
f 844//686 840//686 839//686
f 841//686 802//686 801//686
f 841//686 801//686 839//686
f 802//686 834//686 800//686
f 835//686 766//686 768//686
f 835//686 768//686 800//686
f 766//686 807//686 767//686
f 807//686 832//686 806//686
f 833//686 828//686 827//686
f 833//686 827//686 806//686
f 828//686 830//686 829//686
f 830//686 811//686 813//686
f 812//686 816//686 818//686
f 812//686 818//686 813//686
f 816//686 819//686 817//686
f 820//686 814//686 815//686
f 820//686 815//686 817//686
f 814//686 808//686 810//686
f 808//686 838//686 809//686
f 826//686 854//686 824//686
f 825//686 824//686 809//686
f 822//686 854//686 823//686
f 826//686 823//686 854//686
f 821//686 804//686 822//686
f 803//686 805//686 852//686
f 822//686 804//686 803//686
f 855//686 852//686 856//686
f 852//686 805//686 856//686
f 851//686 852//686 855//686
f 857//687 858//688 859//689
f 860//690 861//691 857//687
f 857//687 859//689 860//690
f 861//691 862//692 863//693
f 862//692 861//691 860//690
f 864//694 863//693 865//695
f 862//692 865//695 863//693
f 866//696 867//697 864//694
f 864//694 865//695 866//696
f 867//697 868//698 869//699
f 868//698 867//697 866//696
f 870//700 869//699 871//701
f 868//698 871//701 869//699
f 872//702 873//703 870//700
f 870//700 871//701 872//702
f 873//703 874//704 875//705
f 874//704 873//703 872//702
f 876//706 875//705 877//707
f 874//704 877//707 875//705
f 878//708 879//709 876//706
f 876//706 877//707 878//708
f 879//709 880//710 881//711
f 880//710 879//709 878//708
f 882//712 881//711 883//713
f 880//710 883//713 881//711
f 884//714 885//715 882//712
f 882//712 883//713 884//714
f 885//715 886//716 887//717
f 886//716 885//715 884//714
f 888//718 887//717 889//719
f 886//716 889//719 887//717
f 890//720 891//721 888//718
f 888//718 889//719 890//720
f 891//721 892//722 893//723
f 892//722 891//721 890//720
f 894//724 893//723 895//725
f 892//722 895//725 893//723
f 896//726 897//726 894//724
f 894//724 895//725 896//726
f 859//689 858//688 898//727
f 899//728 898//727 900//729
f 858//688 900//729 898//727
f 901//730 902//731 899//728
f 899//728 900//729 901//730
f 902//731 903//732 904//733
f 903//732 902//731 901//730
f 905//734 904//733 906//735
f 903//732 906//735 904//733
f 907//736 908//737 905//734
f 905//734 906//735 907//736
f 908//737 909//738 910//739
f 909//738 908//737 907//736
f 911//740 910//739 912//741
f 909//738 912//741 910//739
f 913//742 914//743 911//740
f 911//740 912//741 913//742
f 914//743 915//744 916//745
f 915//744 914//743 913//742
f 917//746 916//745 918//747
f 915//744 918//747 916//745
f 919//748 920//749 917//746
f 917//746 918//747 919//748
f 920//749 921//750 922//751
f 921//750 920//749 919//748
f 923//752 922//751 924//753
f 921//750 924//753 922//751
f 925//754 926//755 923//752
f 923//752 924//753 925//754
f 926//755 927//756 928//757
f 927//756 926//755 925//754
f 929//758 928//757 930//759
f 927//756 930//759 928//757
f 931//760 932//761 929//758
f 929//758 930//759 931//760
f 932//761 933//762 934//763
f 933//762 932//761 931//760
f 933//762 897//726 934//763
f 934//763 897//726 896//726
