# Blender 4.5.4 LTS
# www.blender.org
o Blue_Tile.006
v 5.257799 -3.810003 2.120898
v 2.971799 -4.084322 2.120900
v 5.257799 -4.084323 2.120898
v 5.257799 -3.810003 2.146300
v 2.971799 -3.810002 2.146300
v 2.971799 -3.810002 2.120900
v 2.971799 -4.084322 2.146300
v 5.257799 -4.084323 2.146300
v 0.000003 -9.723195 2.120901
v 22.814283 -9.723208 2.120895
v 0.000003 -9.448874 2.120901
v 0.000003 -9.723195 2.146301
v -22.814276 -9.723194 2.120907
v -22.814276 -9.448874 2.120907
v 22.814283 -9.448890 2.120895
v 23.088604 -9.144090 2.120895
v 0.000003 -9.448874 2.146301
v 22.814283 -9.448890 2.146295
v 23.088604 -9.448890 2.120895
v 22.814283 -9.144090 2.120895
v 22.814283 -9.144090 2.146295
v 23.088604 -9.144090 2.146295
v 23.088604 -9.448890 2.146295
v 23.088604 -9.723208 2.146295
v 22.814283 -9.723208 2.146295
v 22.814283 -10.028009 2.146295
v 23.088604 -10.028009 2.146295
v 22.814283 -10.028009 2.120895
v 23.088604 -9.723208 2.120895
v 23.088604 -10.028009 2.120895
v -22.814276 -9.448874 2.146307
v -23.088596 -9.144074 2.146307
v -22.814276 -9.144074 2.146307
v -23.088596 -9.448874 2.146307
v -22.814276 -9.723194 2.146307
v -22.814276 -10.027994 2.146307
v -23.088596 -9.723194 2.146307
v -23.088596 -9.723194 2.120907
v -23.088596 -10.027994 2.146307
v -23.088596 -10.027994 2.120907
v -22.814276 -10.027994 2.120907
v -23.088596 -9.448874 2.120907
v -23.088596 -9.144074 2.120907
v -22.814276 -9.144074 2.120907
v 2.514600 -1.066801 2.120900
v 2.514600 -1.341121 2.120900
v 0.228600 -1.066800 2.120900
v 0.228600 -1.341121 2.120900
v 2.514600 -1.066801 2.146300
v 2.514600 -1.341121 2.146300
v 0.228600 -1.066800 2.146300
v 0.228600 -1.341121 2.146300
v 0.000003 9.448806 2.120901
v 22.814283 9.448792 2.146295
v 22.814283 9.448792 2.120895
v 0.000003 9.723126 2.120901
v 0.000003 9.448806 2.146301
v -22.814276 9.448807 2.120907
v -22.814276 9.448807 2.146307
v -22.814276 9.723126 2.146307
v -23.088596 9.144007 2.146307
v -22.814276 9.144007 2.146307
v 0.000003 9.723126 2.146301
v -23.088596 9.448807 2.146307
v -23.088596 9.144007 2.120907
v -23.088596 9.448807 2.120907
v -23.088596 9.723126 2.146307
v -22.814276 10.027926 2.146307
v -23.088596 10.027926 2.146307
v -23.088596 9.723126 2.120907
v -22.814276 9.723126 2.120907
v -22.814276 10.027926 2.120907
v -23.088596 10.027926 2.120907
v -22.814276 9.144007 2.120907
v 22.814283 9.723111 2.146295
v 23.088604 9.448792 2.146295
v 23.088604 9.723111 2.146295
v 22.814283 10.027911 2.146295
v 22.814283 10.027911 2.120895
v 22.814283 9.723111 2.120895
v 23.088604 9.448792 2.120895
v 23.088604 9.723111 2.120895
v 23.088604 10.027911 2.146295
v 23.088604 10.027911 2.120895
v 23.088604 9.143991 2.120895
v 23.088604 9.143991 2.146295
v 22.814283 9.143991 2.120895
v 22.814283 9.143991 2.146295
v 2.514599 -3.810002 2.120900
v 0.228599 -4.084321 2.120900
v 2.514599 -4.084322 2.120900
v 2.514599 -3.810002 2.146300
v 0.228599 -3.810001 2.146300
v 0.228599 -3.810001 2.120900
v 0.228599 -4.084321 2.146300
v 2.514599 -4.084322 2.146300
v 2.514598 -6.553201 2.120899
v 0.228598 -6.827520 2.120899
v 2.514598 -6.827521 2.120899
v 2.514598 -6.553201 2.146300
v 0.228598 -6.553200 2.146300
v 0.228598 -6.553200 2.120899
v 0.228598 -6.827520 2.146300
v 2.514598 -6.827521 2.146300
v 5.257800 -1.066802 2.120898
v 2.971800 -1.341121 2.120900
v 5.257800 -1.341122 2.120898
v 5.257800 -1.066802 2.146300
v 2.971800 -1.066801 2.146300
v 2.971800 -1.066801 2.120900
v 2.971800 -1.341121 2.146300
v 5.257800 -1.341122 2.146300
v 8.000999 -3.810004 2.120897
v 5.714999 -4.084323 2.120898
v 8.000999 -4.084323 2.120897
v 8.000999 -3.810004 2.146297
v 5.714999 -3.810003 2.146300
v 5.714999 -3.810003 2.120898
v 5.714999 -4.084323 2.146300
v 8.000999 -4.084323 2.146297
v 5.257798 -6.553202 2.120898
v 2.971798 -6.827521 2.120899
v 5.257798 -6.827522 2.120898
v 5.257798 -6.553202 2.146300
v 2.971798 -6.553201 2.146300
v 2.971798 -6.553201 2.120899
v 2.971798 -6.827521 2.146300
v 5.257798 -6.827522 2.146300
v 10.744199 -3.810004 2.120897
v 8.458200 -4.084324 2.120897
v 10.744199 -4.084324 2.120897
v 10.744199 -3.810004 2.146297
v 8.458200 -3.810004 2.146297
v 8.458200 -3.810004 2.120897
v 8.458200 -4.084324 2.146297
v 10.744199 -4.084324 2.146297
v 8.001000 -1.066803 2.120897
v 5.715000 -1.341122 2.120898
v 8.001000 -1.341123 2.120897
v 8.001000 -1.066803 2.146297
v 5.715000 -1.066802 2.146300
v 5.715000 -1.066802 2.120898
v 5.715000 -1.341122 2.146300
v 8.001000 -1.341123 2.146297
v 13.487399 -3.810005 2.120897
v 11.201400 -4.084325 2.120897
v 13.487399 -4.084325 2.120897
v 13.487399 -3.810005 2.146297
v 11.201400 -3.810004 2.146297
v 11.201400 -3.810004 2.120897
v 11.201400 -4.084325 2.146297
v 13.487399 -4.084325 2.146297
v 8.000998 -6.553203 2.120896
v 5.714998 -6.827522 2.120898
v 8.000998 -6.827523 2.120896
v 8.000998 -6.553203 2.146297
v 5.714998 -6.553202 2.146300
v 5.714998 -6.553202 2.120898
v 5.714998 -6.827522 2.146300
v 8.000998 -6.827523 2.146297
v 16.230598 -3.810006 2.120896
v 13.944600 -4.084326 2.120897
v 16.230598 -4.084326 2.120896
v 16.230598 -3.810006 2.146296
v 13.944600 -3.810005 2.146297
v 13.944600 -3.810005 2.120897
v 13.944600 -4.084326 2.146297
v 16.230598 -4.084326 2.146296
v 10.744200 -1.066804 2.120897
v 8.458200 -1.341123 2.120897
v 10.744200 -1.341124 2.120897
v 10.744200 -1.066804 2.146297
v 8.458200 -1.066803 2.146297
v 8.458200 -1.066803 2.120897
v 8.458200 -1.341123 2.146297
v 10.744200 -1.341124 2.146297
v 18.973799 -3.810007 2.120894
v 16.687798 -4.084326 2.120896
v 18.973799 -4.084327 2.120894
v 18.973799 -3.810007 2.146294
v 16.687798 -3.810006 2.146296
v 16.687798 -3.810006 2.120896
v 16.687798 -4.084326 2.146296
v 18.973799 -4.084327 2.146294
v 10.744198 -6.553204 2.120896
v 8.458199 -6.827523 2.120896
v 10.744198 -6.827524 2.120896
v 10.744198 -6.553204 2.146297
v 8.458199 -6.553203 2.146297
v 8.458199 -6.553203 2.120896
v 8.458199 -6.827523 2.146297
v 10.744198 -6.827524 2.146297
v 21.716999 -3.810008 2.120894
v 19.430998 -4.084327 2.120894
v 21.716999 -4.084328 2.120894
v 21.716999 -3.810008 2.146294
v 19.430998 -3.810007 2.146294
v 19.430998 -3.810007 2.120894
v 19.430998 -4.084327 2.146294
v 21.716999 -4.084328 2.146294
v 23.088598 -3.810009 2.120894
v 22.814278 -4.084329 2.120894
v 23.088598 -4.084329 2.120894
v 22.814278 -3.810008 2.120894
v 23.088598 -3.505209 2.120894
v 23.088598 -3.810009 2.146294
v 23.088598 -3.505209 2.146294
v 22.814278 -3.810008 2.146294
v 22.814278 -3.505208 2.146294
v 22.814278 -3.505208 2.120894
v 22.814278 -4.084329 2.146294
v 22.174198 -4.084328 2.146294
v 22.174198 -3.810008 2.146294
v 22.174198 -3.810008 2.120894
v 22.174198 -4.084328 2.120894
v 22.814278 -4.389128 2.146294
v 23.088598 -4.084329 2.146294
v 23.088598 -4.389128 2.120894
v 23.088598 -4.389128 2.146294
v 22.814278 -4.389128 2.120894
v 13.487398 -6.553205 2.120896
v 11.201399 -6.827524 2.120896
v 13.487398 -6.827525 2.120896
v 13.487398 -6.553205 2.146297
v 11.201399 -6.553204 2.146297
v 11.201399 -6.553204 2.120896
v 11.201399 -6.827524 2.146297
v 13.487398 -6.827525 2.146297
v 13.487400 -1.066805 2.120897
v 11.201401 -1.341124 2.120897
v 13.487400 -1.341125 2.120897
v 13.487400 -1.066805 2.146297
v 11.201401 -1.066804 2.146297
v 11.201401 -1.066804 2.120897
v 11.201401 -1.341124 2.146297
v 13.487400 -1.341125 2.146297
v 16.230600 -1.066806 2.120896
v 13.944601 -1.341125 2.120897
v 16.230600 -1.341126 2.120896
v 16.230600 -1.066806 2.146296
v 13.944601 -1.066805 2.146297
v 13.944601 -1.066805 2.120897
v 13.944601 -1.341125 2.146297
v 16.230600 -1.341126 2.146296
v 16.230598 -6.553205 2.120896
v 13.944599 -6.827525 2.120896
v 16.230598 -6.827526 2.120896
v 16.230598 -6.553205 2.146296
v 13.944599 -6.553205 2.146297
v 13.944599 -6.553205 2.120896
v 13.944599 -6.827525 2.146297
v 16.230598 -6.827526 2.146296
v 18.973801 -1.066807 2.120894
v 16.687799 -1.341126 2.120896
v 18.973801 -1.341127 2.120894
v 18.973801 -1.066807 2.146294
v 16.687799 -1.066806 2.146296
v 16.687799 -1.066806 2.120896
v 16.687799 -1.341126 2.146296
v 18.973801 -1.341127 2.146294
v 18.973799 -6.553206 2.120893
v 16.687798 -6.827526 2.120896
v 18.973799 -6.827527 2.120893
v 18.973799 -6.553206 2.146294
v 16.687798 -6.553205 2.146296
v 16.687798 -6.553205 2.120896
v 16.687798 -6.827526 2.146296
v 18.973799 -6.827527 2.146294
v 21.717001 -1.066807 2.120894
v 19.431000 -1.341127 2.120894
v 21.717001 -1.341128 2.120894
v 21.717001 -1.066807 2.146294
v 19.431000 -1.066807 2.146294
v 19.431000 -1.066807 2.120894
v 19.431000 -1.341127 2.146294
v 21.717001 -1.341128 2.146294
v 21.716999 -6.553207 2.120893
v 19.430998 -6.827527 2.120893
v 21.716999 -6.827528 2.120893
v 21.716999 -6.553207 2.146294
v 19.430998 -6.553206 2.146294
v 19.430998 -6.553206 2.120893
v 19.430998 -6.827527 2.146294
v 21.716999 -6.827528 2.146294
v 23.088600 -1.066808 2.120894
v 22.814280 -1.341128 2.120894
v 23.088600 -1.341128 2.120894
v 22.814280 -1.066808 2.120894
v 23.088600 -0.762008 2.120894
v 23.088600 -1.066808 2.146294
v 23.088600 -0.762008 2.146294
v 22.814280 -1.066808 2.146294
v 22.814280 -0.762008 2.146294
v 22.814280 -0.762008 2.120894
v 22.814280 -1.341128 2.146294
v 22.174200 -1.066808 2.146294
v 22.174200 -1.341128 2.146294
v 22.174200 -1.341128 2.120894
v 22.174200 -1.066808 2.120894
v 23.088600 -1.341128 2.146294
v 22.814280 -1.645928 2.146294
v 22.814280 -1.645928 2.120894
v 23.088600 -1.645928 2.146294
v 23.088600 -1.645928 2.120894
v 23.088598 -6.553208 2.120893
v 22.814278 -6.827528 2.120893
v 23.088598 -6.827528 2.120893
v 22.814278 -6.553208 2.120893
v 23.088598 -6.248408 2.120893
v 23.088598 -6.553208 2.146294
v 23.088598 -6.248408 2.146294
v 22.814278 -6.553208 2.146294
v 22.814278 -6.248408 2.146294
v 22.814278 -6.248408 2.120893
v 22.174198 -6.553207 2.146294
v 22.174198 -6.827528 2.146294
v 22.814278 -6.827528 2.146294
v 23.088598 -6.827528 2.146294
v 22.174198 -6.827528 2.120893
v 22.814278 -7.132328 2.146294
v 22.814278 -7.132328 2.120893
v 23.088598 -7.132328 2.146294
v 23.088598 -7.132328 2.120893
v 22.174198 -6.553207 2.120893
v -2.514600 -1.066800 2.120900
v -2.514601 -1.341120 2.120900
v -0.228600 -1.341120 2.120900
v -2.514600 -1.066800 2.146300
v -0.228600 -1.066800 2.120900
v -2.514601 -1.341120 2.146300
v -0.228600 -1.341120 2.146300
v -0.228600 -1.066800 2.146300
v -2.514601 -3.810000 2.120900
v -2.514601 -4.084320 2.146300
v -2.514601 -4.084320 2.120900
v -2.514601 -3.810000 2.146300
v -0.228601 -3.810001 2.120900
v -0.228601 -4.084321 2.120900
v -0.228601 -3.810001 2.146300
v -0.228601 -4.084321 2.146300
v -2.514602 -6.553199 2.120899
v -2.514602 -6.827519 2.146300
v -2.514602 -6.827519 2.120899
v -2.514602 -6.553199 2.146300
v -0.228602 -6.553200 2.120899
v -0.228602 -6.827520 2.120899
v -0.228602 -6.553200 2.146300
v -0.228602 -6.827520 2.146300
v -5.257802 -3.809999 2.120900
v -5.257802 -4.084319 2.120900
v -2.971802 -4.084320 2.120900
v -5.257802 -4.084319 2.146302
v -5.257802 -3.809999 2.146302
v -2.971801 -3.810000 2.120900
v -2.971801 -3.810000 2.146300
v -2.971802 -4.084320 2.146300
v -5.257801 -1.066799 2.120900
v -5.257801 -1.341119 2.120900
v -2.971801 -1.341120 2.120900
v -5.257801 -1.341119 2.146302
v -5.257801 -1.066799 2.146302
v -2.971800 -1.066799 2.120900
v -2.971800 -1.066799 2.146300
v -2.971801 -1.341120 2.146300
v -8.001001 -3.809998 2.120903
v -8.001001 -4.084319 2.146303
v -8.001001 -4.084319 2.120903
v -8.001001 -3.809998 2.146303
v -5.715002 -3.809999 2.120900
v -5.715002 -4.084319 2.120900
v -5.715002 -3.809999 2.146302
v -5.715002 -4.084319 2.146302
v -5.257802 -6.553198 2.120899
v -5.257802 -6.827518 2.146302
v -5.257802 -6.827518 2.120899
v -5.257802 -6.553198 2.146302
v -2.971802 -6.553199 2.120899
v -2.971802 -6.827519 2.120899
v -2.971802 -6.553199 2.146300
v -2.971802 -6.827519 2.146300
v -10.744201 -3.809997 2.120903
v -10.744201 -4.084318 2.146303
v -10.744201 -4.084318 2.120903
v -10.744201 -3.809997 2.146303
v -8.458201 -3.809998 2.120903
v -8.458201 -4.084318 2.120903
v -8.458201 -3.809998 2.146303
v -8.458201 -4.084318 2.146303
v -8.001000 -1.066798 2.120903
v -8.001000 -1.341118 2.146303
v -8.001000 -1.341118 2.120903
v -8.001000 -1.066798 2.146303
v -5.715001 -1.066798 2.120900
v -5.715001 -1.341119 2.120900
v -5.715001 -1.066798 2.146302
v -5.715001 -1.341119 2.146302
v -13.487401 -3.809997 2.120903
v -13.487401 -4.084317 2.120903
v -11.201402 -4.084317 2.120903
v -13.487401 -4.084317 2.146303
v -13.487401 -3.809997 2.146303
v -11.201402 -3.809997 2.120903
v -11.201402 -3.809997 2.146303
v -11.201402 -4.084317 2.146303
v -8.001002 -6.553198 2.120902
v -8.001002 -6.827518 2.120902
v -5.715003 -6.827518 2.120899
v -8.001002 -6.827518 2.146303
v -8.001002 -6.553198 2.146303
v -5.715002 -6.553198 2.120899
v -5.715002 -6.553198 2.146302
v -5.715003 -6.827518 2.146302
v -16.230602 -3.809996 2.120904
v -16.230602 -4.084316 2.120904
v -13.944602 -4.084316 2.120903
v -16.230602 -4.084316 2.146304
v -16.230602 -3.809996 2.146304
v -13.944602 -3.809996 2.120903
v -13.944602 -3.809996 2.146303
v -13.944602 -4.084316 2.146303
v -10.744200 -1.066797 2.120903
v -10.744200 -1.341117 2.146303
v -10.744200 -1.341117 2.120903
v -10.744200 -1.066797 2.146303
v -8.458200 -1.066798 2.120903
v -8.458200 -1.341118 2.120903
v -8.458200 -1.066798 2.146303
v -8.458200 -1.341118 2.146303
v -18.973803 -3.809995 2.120906
v -18.973803 -4.084315 2.120906
v -16.687801 -4.084316 2.120904
v -18.973803 -4.084315 2.146306
v -18.973803 -3.809995 2.146306
v -16.687801 -3.809995 2.120904
v -16.687801 -3.809995 2.146304
v -16.687801 -4.084316 2.146304
v -10.744202 -6.553197 2.120902
v -10.744202 -6.827517 2.146303
v -10.744202 -6.827517 2.120902
v -10.744202 -6.553197 2.146303
v -8.458202 -6.553197 2.120902
v -8.458202 -6.827518 2.120902
v -8.458202 -6.553197 2.146303
v -8.458202 -6.827518 2.146303
v -21.717003 -3.809994 2.120906
v -21.717003 -4.084314 2.120906
v -19.431002 -4.084315 2.120906
v -21.717003 -4.084314 2.146306
v -21.717003 -3.809994 2.146306
v -19.431002 -3.809994 2.120906
v -19.431002 -3.809994 2.146306
v -19.431002 -4.084315 2.146306
v -23.088602 -3.809993 2.120906
v -22.814281 -3.809994 2.120906
v -22.814281 -3.505194 2.120906
v -23.088602 -4.084313 2.146306
v -23.088602 -4.084313 2.120906
v -23.088602 -3.809993 2.146306
v -23.088602 -3.505193 2.120906
v -23.088602 -3.505193 2.146306
v -22.814281 -3.505194 2.146306
v -22.814281 -3.809994 2.146306
v -22.174202 -3.809994 2.146306
v -22.814281 -4.084313 2.146306
v -22.174202 -3.809994 2.120906
v -22.814281 -4.084313 2.120906
v -22.174202 -4.084314 2.120906
v -22.174202 -4.084314 2.146306
v -22.814281 -4.389113 2.120906
v -22.814281 -4.389113 2.146306
v -23.088602 -4.389113 2.120906
v -23.088602 -4.389113 2.146306
v -13.487402 -6.553196 2.120902
v -13.487402 -6.827516 2.146303
v -13.487402 -6.827516 2.120902
v -13.487402 -6.553196 2.146303
v -11.201403 -6.553196 2.120902
v -11.201403 -6.827517 2.120902
v -11.201403 -6.553196 2.146303
v -11.201403 -6.827517 2.146303
v -13.487400 -1.066796 2.120903
v -13.487400 -1.341116 2.146303
v -13.487400 -1.341116 2.120903
v -13.487400 -1.066796 2.146303
v -11.201401 -1.066797 2.120903
v -11.201401 -1.341117 2.120903
v -11.201401 -1.066797 2.146303
v -11.201401 -1.341117 2.146303
v -16.230600 -1.066795 2.120904
v -16.230600 -1.341115 2.146304
v -16.230600 -1.341115 2.120904
v -16.230600 -1.066795 2.146304
v -13.944601 -1.066796 2.120903
v -13.944601 -1.341116 2.120903
v -13.944601 -1.066796 2.146303
v -13.944601 -1.341116 2.146303
v -16.230602 -6.553195 2.120903
v -16.230602 -6.827515 2.146304
v -16.230602 -6.827515 2.120903
v -16.230602 -6.553195 2.146304
v -13.944603 -6.553195 2.120902
v -13.944603 -6.827516 2.120902
v -13.944603 -6.553195 2.146303
v -13.944603 -6.827516 2.146303
v -18.973801 -1.066794 2.120906
v -18.973801 -1.341114 2.146306
v -18.973801 -1.341114 2.120906
v -18.973801 -1.066794 2.146306
v -16.687799 -1.066795 2.120904
v -16.687799 -1.341115 2.120904
v -16.687799 -1.066795 2.146304
v -16.687799 -1.341115 2.146304
v -18.973803 -6.553194 2.120905
v -18.973803 -6.827514 2.120905
v -16.687801 -6.827515 2.120903
v -18.973803 -6.827514 2.146306
v -18.973803 -6.553194 2.146306
v -16.687801 -6.553195 2.120903
v -16.687801 -6.553195 2.146304
v -16.687801 -6.827515 2.146304
v -21.717001 -1.066793 2.120906
v -21.717001 -1.341113 2.146306
v -21.717001 -1.341113 2.120906
v -21.717001 -1.066793 2.146306
v -19.431000 -1.066794 2.120906
v -19.431000 -1.341114 2.120906
v -19.431000 -1.066794 2.146306
v -19.431000 -1.341114 2.146306
v -21.717003 -6.553193 2.120905
v -21.717003 -6.827513 2.120905
v -19.431002 -6.827514 2.120905
v -21.717003 -6.827513 2.146306
v -21.717003 -6.553193 2.146306
v -19.431002 -6.553194 2.120905
v -19.431002 -6.553194 2.146306
v -19.431002 -6.827514 2.146306
v -23.088600 -1.066793 2.120906
v -23.088600 -1.341113 2.120906
v -22.814280 -1.341113 2.120906
v -23.088600 -0.761993 2.120906
v -22.814280 -1.066793 2.120906
v -23.088600 -1.341113 2.146306
v -23.088600 -1.066793 2.146306
v -22.814280 -1.341113 2.146306
v -22.814280 -1.066793 2.146306
v -23.088600 -0.761993 2.146306
v -22.814280 -0.761993 2.146306
v -22.814280 -0.761993 2.120906
v -22.174200 -1.066793 2.120906
v -22.174200 -1.066793 2.146306
v -22.174200 -1.341113 2.146306
v -22.174200 -1.341113 2.120906
v -22.814280 -1.645913 2.120906
v -22.814280 -1.645913 2.146306
v -23.088600 -1.645913 2.120906
v -23.088600 -1.645913 2.146306
v -23.088602 -6.553193 2.120905
v -23.088602 -6.827513 2.120905
v -22.814281 -6.827513 2.120905
v -23.088602 -6.248393 2.120905
v -22.814281 -6.553193 2.120905
v -23.088602 -6.827513 2.146306
v -23.088602 -6.553193 2.146306
v -22.814281 -6.827513 2.146306
v -22.814281 -6.553193 2.146306
v -23.088602 -6.248393 2.146306
v -22.814281 -6.248393 2.146306
v -22.814281 -6.248393 2.120905
v -22.174202 -6.553193 2.120905
v -22.174202 -6.553193 2.146306
v -22.174202 -6.827513 2.146306
v -22.174202 -6.827513 2.120905
v -22.814281 -7.132313 2.146306
v -22.814281 -7.132313 2.120905
v -23.088602 -7.132313 2.120905
v -23.088602 -7.132313 2.146306
v 2.514600 1.066797 2.120900
v 2.514601 1.341117 2.120900
v 0.228600 1.341118 2.120900
v 2.514601 1.341117 2.146300
v 2.514600 1.066797 2.146300
v 0.228600 1.066798 2.120900
v 0.228600 1.066798 2.146300
v 0.228600 1.341118 2.146300
v 2.514601 3.809998 2.120900
v 2.514601 4.084318 2.146300
v 2.514601 4.084318 2.120900
v 2.514601 3.809998 2.146300
v 0.228601 3.809999 2.120900
v 0.228601 4.084319 2.120900
v 0.228601 3.809999 2.146300
v 0.228601 4.084319 2.146300
v 2.514602 6.553197 2.120900
v 2.514602 6.827518 2.120900
v 0.228602 6.827518 2.120900
v 2.514602 6.827518 2.146301
v 2.514602 6.553197 2.146301
v 0.228602 6.553198 2.120900
v 0.228602 6.553198 2.146301
v 0.228602 6.827518 2.146301
v 5.257802 3.809997 2.120898
v 5.257802 4.084317 2.120898
v 2.971802 4.084318 2.120900
v 5.257802 4.084317 2.146300
v 5.257802 3.809997 2.146300
v 2.971801 3.809998 2.120900
v 2.971801 3.809998 2.146300
v 2.971802 4.084318 2.146300
v 5.257801 1.066796 2.120898
v 5.257801 1.341116 2.120898
v 2.971801 1.341117 2.120900
v 5.257801 1.341116 2.146300
v 5.257801 1.066796 2.146300
v 2.971800 1.066797 2.120900
v 2.971800 1.066797 2.146300
v 2.971801 1.341117 2.146300
v 8.001001 3.809996 2.120897
v 8.001001 4.084316 2.146297
v 8.001001 4.084316 2.120897
v 8.001001 3.809996 2.146297
v 5.715002 3.809997 2.120898
v 5.715002 4.084317 2.120898
v 5.715002 3.809997 2.146300
v 5.715002 4.084317 2.146300
v 5.257802 6.553196 2.120898
v 5.257802 6.827517 2.120898
v 2.971802 6.827518 2.120900
v 5.257802 6.827517 2.146301
v 5.257802 6.553196 2.146301
v 2.971802 6.553197 2.120900
v 2.971802 6.553197 2.146301
v 2.971802 6.827518 2.146301
v 10.744201 3.809995 2.120897
v 10.744201 4.084315 2.146297
v 10.744201 4.084315 2.120897
v 10.744201 3.809995 2.146297
v 8.458201 3.809996 2.120897
v 8.458201 4.084316 2.120897
v 8.458201 3.809996 2.146297
v 8.458201 4.084316 2.146297
v 8.001000 1.066795 2.120897
v 8.001000 1.341115 2.146297
v 8.001000 1.341115 2.120897
v 8.001000 1.066795 2.146297
v 5.715001 1.066796 2.120898
v 5.715001 1.341116 2.120898
v 5.715001 1.066796 2.146300
v 5.715001 1.341116 2.146300
v 13.487401 3.809994 2.120897
v 13.487401 4.084314 2.146297
v 13.487401 4.084314 2.120897
v 13.487401 3.809994 2.146297
v 11.201402 3.809995 2.120897
v 11.201402 4.084315 2.120897
v 11.201402 3.809995 2.146297
v 11.201402 4.084315 2.146297
v 8.001002 6.553196 2.120897
v 8.001002 6.827516 2.120897
v 5.715003 6.827517 2.120898
v 8.001002 6.827516 2.146298
v 8.001002 6.553196 2.146298
v 5.715002 6.553196 2.120898
v 5.715002 6.553196 2.146301
v 5.715003 6.827517 2.146301
v 16.230602 3.809993 2.120896
v 16.230602 4.084313 2.146296
v 16.230602 4.084313 2.120896
v 16.230602 3.809993 2.146296
v 13.944602 3.809994 2.120897
v 13.944602 4.084314 2.120897
v 13.944602 3.809994 2.146297
v 13.944602 4.084314 2.146297
v 10.744200 1.066794 2.120897
v 10.744200 1.341115 2.146297
v 10.744200 1.341115 2.120897
v 10.744200 1.066794 2.146297
v 8.458200 1.066795 2.120897
v 8.458200 1.341115 2.120897
v 8.458200 1.066795 2.146297
v 8.458200 1.341115 2.146297
v 18.973803 3.809992 2.120894
v 18.973803 4.084312 2.146294
v 18.973803 4.084312 2.120894
v 18.973803 3.809992 2.146294
v 16.687801 3.809993 2.120896
v 16.687801 4.084313 2.120896
v 16.687801 3.809993 2.146296
v 16.687801 4.084313 2.146296
v 10.744202 6.553195 2.120897
v 10.744202 6.827515 2.146298
v 10.744202 6.827515 2.120897
v 10.744202 6.553195 2.146298
v 8.458202 6.553195 2.120897
v 8.458202 6.827516 2.120897
v 8.458202 6.553195 2.146298
v 8.458202 6.827516 2.146298
v 21.717003 3.809991 2.120894
v 21.717003 4.084311 2.146294
v 21.717003 4.084311 2.120894
v 21.717003 3.809991 2.146294
v 19.431002 3.809992 2.120894
v 19.431002 4.084312 2.120894
v 19.431002 3.809992 2.146294
v 19.431002 4.084312 2.146294
v 23.088602 3.809991 2.120894
v 23.088602 4.084311 2.120894
v 22.814281 4.084311 2.120894
v 23.088602 3.505191 2.120894
v 22.814281 3.809991 2.120894
v 23.088602 4.084311 2.146294
v 23.088602 3.809991 2.146294
v 22.814281 4.084311 2.146294
v 22.814281 3.809991 2.146294
v 23.088602 3.505191 2.146294
v 22.814281 3.505191 2.120894
v 22.814281 3.505191 2.146294
v 22.174202 4.084311 2.146294
v 22.174202 3.809991 2.120894
v 22.174202 3.809991 2.146294
v 22.174202 4.084311 2.120894
v 22.814281 4.389111 2.146294
v 22.814281 4.389111 2.120894
v 23.088602 4.389111 2.120894
v 23.088602 4.389111 2.146294
v 13.487402 6.553194 2.120897
v 13.487402 6.827514 2.146298
v 13.487402 6.827514 2.120897
v 13.487402 6.553194 2.146298
v 11.201403 6.553195 2.120897
v 11.201403 6.827515 2.120897
v 11.201403 6.553195 2.146298
v 11.201403 6.827515 2.146298
v 13.487400 1.066793 2.120897
v 13.487400 1.341114 2.146297
v 13.487400 1.341114 2.120897
v 13.487400 1.066793 2.146297
v 11.201401 1.066794 2.120897
v 11.201401 1.341114 2.120897
v 11.201401 1.066794 2.146297
v 11.201401 1.341114 2.146297
v 16.230600 1.066792 2.120896
v 16.230600 1.341113 2.146296
v 16.230600 1.341113 2.120896
v 16.230600 1.066792 2.146296
v 13.944601 1.066793 2.120897
v 13.944601 1.341113 2.120897
v 13.944601 1.066793 2.146297
v 13.944601 1.341113 2.146297
v 16.230602 6.553193 2.120896
v 16.230602 6.827513 2.146297
v 16.230602 6.827513 2.120896
v 16.230602 6.553193 2.146297
v 13.944603 6.553194 2.120897
v 13.944603 6.827514 2.120897
v 13.944603 6.553194 2.146298
v 13.944603 6.827514 2.146298
v 18.973801 1.066792 2.120894
v 18.973801 1.341112 2.120894
v 16.687799 1.341112 2.120896
v 18.973801 1.341112 2.146294
v 18.973801 1.066792 2.146294
v 16.687799 1.066792 2.120896
v 16.687799 1.066792 2.146296
v 16.687799 1.341112 2.146296
v 18.973803 6.553192 2.120894
v 18.973803 6.827512 2.120894
v 16.687801 6.827513 2.120896
v 18.973803 6.827512 2.146295
v 18.973803 6.553192 2.146295
v 16.687801 6.553193 2.120896
v 16.687801 6.553193 2.146297
v 16.687801 6.827513 2.146297
v 21.717001 1.066791 2.120894
v 21.717001 1.341111 2.146294
v 21.717001 1.341111 2.120894
v 21.717001 1.066791 2.146294
v 19.431000 1.066791 2.120894
v 19.431000 1.341112 2.120894
v 19.431000 1.066791 2.146294
v 19.431000 1.341112 2.146294
v 21.717003 6.553191 2.120894
v 21.717003 6.827511 2.120894
v 19.431002 6.827512 2.120894
v 21.717003 6.827511 2.146295
v 21.717003 6.553191 2.146295
v 19.431002 6.553192 2.120894
v 19.431002 6.553192 2.146295
v 19.431002 6.827512 2.146295
v 23.088600 1.066790 2.120894
v 23.088600 0.761991 2.120894
v 22.814280 1.066790 2.120894
v 23.088600 1.341110 2.146294
v 23.088600 1.341110 2.120894
v 23.088600 1.066790 2.146294
v 22.814280 1.066790 2.146294
v 23.088600 0.761991 2.146294
v 22.814280 0.761991 2.120894
v 22.814280 0.761991 2.146294
v 22.814280 1.341111 2.146294
v 22.174200 1.066790 2.146294
v 22.174200 1.341111 2.146294
v 22.174200 1.066790 2.120894
v 22.174200 1.341111 2.120894
v 22.814280 1.341111 2.120894
v 23.088600 1.645910 2.120894
v 22.814280 1.645910 2.120894
v 22.814280 1.645910 2.146294
v 23.088600 1.645910 2.146294
v 23.088602 6.553191 2.120894
v 23.088602 6.827511 2.120894
v 22.814281 6.827511 2.120894
v 23.088602 6.248391 2.120894
v 22.814281 6.553191 2.120894
v 23.088602 6.827511 2.146295
v 23.088602 6.553191 2.146295
v 22.814281 6.827511 2.146295
v 22.814281 6.553191 2.146295
v 23.088602 6.248391 2.146295
v 22.814281 6.248391 2.120894
v 22.814281 6.248391 2.146295
v 22.174202 6.553191 2.120894
v 22.174202 6.553191 2.146295
v 22.174202 6.827511 2.146295
v 22.174202 6.827511 2.120894
v 22.814281 7.132310 2.120894
v 22.814281 7.132310 2.146295
v 23.088602 7.132310 2.120894
v 23.088602 7.132310 2.146295
v -2.514600 1.066799 2.120900
v -0.228600 1.341118 2.120900
v -2.514600 1.341119 2.120900
v -2.514600 1.066799 2.146300
v -0.228600 1.066798 2.146300
v -0.228600 1.066798 2.120900
v -0.228600 1.341118 2.146300
v -2.514600 1.341119 2.146300
v -2.514599 3.809999 2.120900
v -0.228599 4.084319 2.120900
v -2.514599 4.084320 2.120900
v -2.514599 3.809999 2.146300
v -0.228599 3.809999 2.146300
v -0.228599 3.809999 2.120900
v -0.228599 4.084319 2.146300
v -2.514599 4.084320 2.146300
v -2.514598 6.553199 2.120900
v -0.228598 6.827518 2.120900
v -2.514598 6.827519 2.120900
v -2.514598 6.553199 2.146301
v -0.228598 6.553198 2.146301
v -0.228598 6.553198 2.120900
v -0.228598 6.827518 2.146301
v -2.514598 6.827519 2.146301
v -5.257799 3.810000 2.120900
v -2.971799 4.084320 2.120900
v -5.257799 4.084321 2.120900
v -5.257799 3.810000 2.146302
v -2.971799 3.809999 2.146300
v -2.971799 3.809999 2.120900
v -2.971799 4.084320 2.146300
v -5.257799 4.084321 2.146302
v -5.257800 1.066799 2.120900
v -2.971800 1.341119 2.120900
v -5.257800 1.341120 2.120900
v -5.257800 1.066799 2.146302
v -2.971800 1.066799 2.146300
v -2.971800 1.066799 2.120900
v -2.971800 1.341119 2.146300
v -5.257800 1.341120 2.146302
v -8.000999 3.810001 2.120903
v -5.714999 4.084321 2.120900
v -8.000999 4.084321 2.120903
v -8.000999 3.810001 2.146303
v -5.714999 3.810000 2.146302
v -5.714999 3.810000 2.120900
v -5.714999 4.084321 2.146302
v -8.000999 4.084321 2.146303
v -5.257798 6.553200 2.120900
v -2.971798 6.827519 2.120900
v -5.257798 6.827520 2.120900
v -5.257798 6.553200 2.146302
v -2.971798 6.553199 2.146301
v -2.971798 6.553199 2.120900
v -2.971798 6.827519 2.146301
v -5.257798 6.827520 2.146302
v -10.744199 3.810002 2.120903
v -8.458200 4.084321 2.120903
v -10.744199 4.084322 2.120903
v -10.744199 3.810002 2.146303
v -8.458200 3.810001 2.146303
v -8.458200 3.810001 2.120903
v -8.458200 4.084321 2.146303
v -10.744199 4.084322 2.146303
v -8.001000 1.066800 2.120903
v -5.715000 1.341120 2.120900
v -8.001000 1.341121 2.120903
v -8.001000 1.066800 2.146303
v -5.715000 1.066800 2.146302
v -5.715000 1.066800 2.120900
v -5.715000 1.341120 2.146302
v -8.001000 1.341121 2.146303
v -13.487399 3.810003 2.120903
v -11.201400 4.084322 2.120903
v -13.487399 4.084323 2.120903
v -13.487399 3.810003 2.146303
v -11.201400 3.810002 2.146303
v -11.201400 3.810002 2.120903
v -11.201400 4.084322 2.146303
v -13.487399 4.084323 2.146303
v -8.000998 6.553201 2.120903
v -5.714998 6.827520 2.120900
v -8.000998 6.827521 2.120903
v -8.000998 6.553201 2.146304
v -5.714998 6.553200 2.146302
v -5.714998 6.553200 2.120900
v -5.714998 6.827520 2.146302
v -8.000998 6.827521 2.146304
v -16.230598 3.810004 2.120904
v -13.944600 4.084323 2.120903
v -16.230598 4.084324 2.120904
v -16.230598 3.810004 2.146304
v -13.944600 3.810003 2.146303
v -13.944600 3.810003 2.120903
v -13.944600 4.084323 2.146303
v -16.230598 4.084324 2.146304
v -10.744200 1.066801 2.120903
v -8.458200 1.341121 2.120903
v -10.744200 1.341121 2.120903
v -10.744200 1.066801 2.146303
v -8.458200 1.066800 2.146303
v -8.458200 1.066800 2.120903
v -8.458200 1.341121 2.146303
v -10.744200 1.341121 2.146303
v -18.973799 3.810005 2.120906
v -16.687798 4.084324 2.120904
v -18.973799 4.084325 2.120906
v -18.973799 3.810005 2.146306
v -16.687798 3.810004 2.146304
v -16.687798 3.810004 2.120904
v -16.687798 4.084324 2.146304
v -18.973799 4.084325 2.146306
v -10.744198 6.553202 2.120903
v -8.458199 6.827521 2.120903
v -10.744198 6.827522 2.120903
v -10.744198 6.553202 2.146304
v -8.458199 6.553201 2.146304
v -8.458199 6.553201 2.120903
v -8.458199 6.827521 2.146304
v -10.744198 6.827522 2.146304
v -21.716999 3.810006 2.120906
v -19.430998 4.084325 2.120906
v -21.716999 4.084326 2.120906
v -21.716999 3.810006 2.146306
v -19.430998 3.810005 2.146306
v -19.430998 3.810005 2.120906
v -19.430998 4.084325 2.146306
v -21.716999 4.084326 2.146306
v -23.088598 3.810006 2.120906
v -22.814278 4.084326 2.120906
v -23.088598 4.084326 2.120906
v -22.814278 3.810006 2.120906
v -23.088598 3.505206 2.120906
v -23.088598 3.810006 2.146306
v -23.088598 3.505206 2.146306
v -22.814278 3.505206 2.146306
v -22.814278 3.810006 2.146306
v -22.174198 3.810006 2.146306
v -22.814278 4.084326 2.146306
v -22.814278 3.505206 2.120906
v -22.174198 4.084326 2.146306
v -22.174198 3.810006 2.120906
v -22.174198 4.084326 2.120906
v -23.088598 4.084326 2.146306
v -22.814278 4.389126 2.146306
v -22.814278 4.389126 2.120906
v -23.088598 4.389126 2.146306
v -23.088598 4.389126 2.120906
v -13.487398 6.553203 2.120903
v -11.201399 6.827522 2.120903
v -13.487398 6.827523 2.120903
v -13.487398 6.553203 2.146304
v -11.201399 6.553202 2.146304
v -11.201399 6.553202 2.120903
v -11.201399 6.827522 2.146304
v -13.487398 6.827523 2.146304
v -13.487400 1.066802 2.120903
v -11.201401 1.341122 2.120903
v -13.487400 1.341122 2.120903
v -13.487400 1.066802 2.146303
v -11.201401 1.066801 2.146303
v -11.201401 1.066801 2.120903
v -11.201401 1.341122 2.146303
v -13.487400 1.341122 2.146303
v -16.230600 1.066803 2.120904
v -13.944601 1.341123 2.120903
v -16.230600 1.341123 2.120904
v -16.230600 1.066803 2.146304
v -13.944601 1.066802 2.146303
v -13.944601 1.066802 2.120903
v -13.944601 1.341123 2.146303
v -16.230600 1.341123 2.146304
v -16.230598 6.553204 2.120904
v -13.944599 6.827523 2.120903
v -16.230598 6.827524 2.120904
v -16.230598 6.553204 2.146304
v -13.944599 6.553203 2.146304
v -13.944599 6.553203 2.120903
v -13.944599 6.827523 2.146304
v -16.230598 6.827524 2.146304
v -18.973801 1.066804 2.120906
v -16.687799 1.341123 2.120904
v -18.973801 1.341124 2.120906
v -18.973801 1.066804 2.146306
v -16.687799 1.066803 2.146304
v -16.687799 1.066803 2.120904
v -16.687799 1.341123 2.146304
v -18.973801 1.341124 2.146306
v -18.973799 6.553205 2.120906
v -16.687798 6.827524 2.120904
v -18.973799 6.827525 2.120906
v -18.973799 6.553205 2.146307
v -16.687798 6.553204 2.146304
v -16.687798 6.553204 2.120904
v -16.687798 6.827524 2.146304
v -18.973799 6.827525 2.146307
v -21.717001 1.066805 2.120906
v -19.431000 1.341124 2.120906
v -21.717001 1.341125 2.120906
v -21.717001 1.066805 2.146306
v -19.431000 1.066804 2.146306
v -19.431000 1.066804 2.120906
v -19.431000 1.341124 2.146306
v -21.717001 1.341125 2.146306
v -21.716999 6.553205 2.120906
v -19.430998 6.827525 2.120906
v -21.716999 6.827526 2.120906
v -21.716999 6.553205 2.146307
v -19.430998 6.553205 2.146307
v -19.430998 6.553205 2.120906
v -19.430998 6.827525 2.146307
v -21.716999 6.827526 2.146307
v -23.088600 1.066805 2.120906
v -22.814280 1.341125 2.120906
v -23.088600 1.341125 2.120906
v -22.814280 1.066805 2.120906
v -23.088600 0.762006 2.120906
v -23.088600 0.762006 2.146306
v -23.088600 1.066805 2.146306
v -23.088600 1.341125 2.146306
v -22.814280 1.341125 2.146306
v -22.814280 1.066805 2.146306
v -22.174200 1.066805 2.146306
v -22.814280 0.762006 2.146306
v -22.174200 1.341125 2.146306
v -22.814280 0.762006 2.120906
v -22.174200 1.066805 2.120906
v -22.174200 1.341125 2.120906
v -22.814280 1.645925 2.146306
v -22.814280 1.645925 2.120906
v -23.088600 1.645925 2.146306
v -23.088600 1.645925 2.120906
v -23.088598 6.553206 2.120906
v -22.814278 6.827526 2.120906
v -23.088598 6.827526 2.120906
v -22.814278 6.553206 2.120906
v -23.088598 6.248406 2.120906
v -23.088598 6.553206 2.146307
v -23.088598 6.248406 2.146307
v -22.814278 6.553206 2.146307
v -22.814278 6.248406 2.146307
v -22.814278 6.248406 2.120906
v -22.174198 6.553205 2.146307
v -22.174198 6.827526 2.146307
v -22.814278 6.827526 2.146307
v -22.174198 6.827526 2.120906
v -22.814278 7.132326 2.146307
v -23.088598 6.827526 2.146307
v -23.088598 7.132326 2.120906
v -23.088598 7.132326 2.146307
v -22.814278 7.132326 2.120906
v -22.174198 6.553205 2.120906
vn -0.0000 -0.0000 -1.0000
vn 1.0000 -0.0000 -0.0000
vn -0.0000 1.0000 -0.0000
vn -1.0000 -0.0000 -0.0000
vn -0.0000 -1.0000 -0.0000
vn -0.0000 -0.0000 1.0000
vt 0.000000 1.000000
vt 1.000000 1.000000
s 1
f 2/1/1 6/1/1 1/2/1
f 2/1/1 1/2/1 3/2/1
f 4/2/2 3/2/2 1/2/2
f 5/1/3 4/2/3 1/2/3
f 5/1/3 1/2/3 6/1/3
f 7/1/4 5/1/4 6/1/4
f 7/1/4 6/1/4 2/1/4
f 8/2/5 7/1/5 2/1/5
f 4/2/6 7/1/6 8/2/6
f 4/2/6 5/1/6 7/1/6
f 4/2/2 8/2/2 3/2/2
f 8/2/5 2/1/5 3/2/5
f 48/1/1 45/2/1 46/2/1
f 49/2/6 52/1/6 50/2/6
f 49/2/2 46/2/2 45/2/2
f 51/1/3 45/2/3 47/1/3
f 50/2/5 48/1/5 46/2/5
f 52/1/4 47/1/4 48/1/4
f 48/1/1 47/1/1 45/2/1
f 49/2/6 51/1/6 52/1/6
f 49/2/2 50/2/2 46/2/2
f 51/1/3 49/2/3 45/2/3
f 50/2/5 52/1/5 48/1/5
f 52/1/4 51/1/4 47/1/4
f 54/2/5 57/2/5 53/2/5
f 54/2/5 53/2/5 55/2/5
f 55/2/1 53/2/1 56/2/1
f 56/2/1 53/2/1 58/2/1
f 56/2/2 57/2/2 53/2/2
f 53/2/5 57/2/5 59/2/5
f 53/2/5 59/2/5 58/2/5
f 58/2/2 59/2/2 62/2/2
f 59/2/6 57/2/6 63/2/6
f 64/2/6 59/2/6 60/2/6
f 59/2/6 63/2/6 60/2/6
f 61/2/6 62/2/6 59/2/6
f 61/2/6 59/2/6 64/2/6
f 65/2/4 61/2/4 64/2/4
f 65/2/4 64/2/4 66/2/4
f 66/2/4 64/2/4 67/2/4
f 64/2/6 60/2/6 67/2/6
f 66/2/4 67/2/4 70/2/4
f 68/2/6 67/2/6 60/2/6
f 68/2/6 69/2/6 67/2/6
f 70/2/4 67/2/4 69/2/4
f 71/2/1 66/2/1 70/2/1
f 70/2/1 72/2/1 71/2/1
f 70/2/1 73/2/1 72/2/1
f 70/2/4 69/2/4 73/2/4
f 73/2/3 68/2/3 72/2/3
f 73/2/3 69/2/3 68/2/3
f 72/2/2 60/2/2 71/2/2
f 72/2/2 68/2/2 60/2/2
f 71/2/1 58/2/1 66/2/1
f 56/2/1 58/2/1 71/2/1
f 60/2/3 56/2/3 71/2/3
f 58/2/1 65/2/1 66/2/1
f 58/2/1 74/2/1 65/2/1
f 74/2/5 61/2/5 65/2/5
f 58/2/2 62/2/2 74/2/2
f 74/2/5 62/2/5 61/2/5
f 63/2/6 57/2/6 54/2/6
f 56/2/2 63/2/2 57/2/2
f 56/2/3 63/2/3 75/2/3
f 63/2/6 54/2/6 75/2/6
f 60/2/3 63/2/3 56/2/3
f 75/2/6 54/2/6 76/2/6
f 75/2/6 76/2/6 77/2/6
f 77/2/6 78/2/6 75/2/6
f 75/2/4 78/2/4 79/2/4
f 75/2/4 79/2/4 80/2/4
f 56/2/3 75/2/3 80/2/3
f 81/2/1 55/2/1 80/2/1
f 55/2/1 56/2/1 80/2/1
f 81/2/1 80/2/1 82/2/1
f 79/2/1 82/2/1 80/2/1
f 77/2/2 81/2/2 82/2/2
f 79/2/1 84/2/1 82/2/1
f 83/2/2 77/2/2 82/2/2
f 83/2/2 82/2/2 84/2/2
f 78/2/3 83/2/3 84/2/3
f 78/2/3 84/2/3 79/2/3
f 77/2/6 83/2/6 78/2/6
f 76/2/2 85/2/2 81/2/2
f 85/2/1 55/2/1 81/2/1
f 77/2/2 76/2/2 81/2/2
f 76/2/2 86/2/2 85/2/2
f 86/2/5 87/2/5 85/2/5
f 85/2/1 87/2/1 55/2/1
f 88/2/4 55/2/4 87/2/4
f 86/2/5 88/2/5 87/2/5
f 88/2/4 54/2/4 55/2/4
f 54/2/6 88/2/6 86/2/6
f 54/2/6 86/2/6 76/2/6
f 90/1/1 94/1/1 89/2/1
f 90/1/1 89/2/1 91/2/1
f 92/2/2 91/2/2 89/2/2
f 93/1/3 92/2/3 89/2/3
f 93/1/3 89/2/3 94/1/3
f 95/1/4 93/1/4 94/1/4
f 95/1/4 94/1/4 90/1/4
f 96/2/5 95/1/5 90/1/5
f 92/2/6 95/1/6 96/2/6
f 92/2/6 93/1/6 95/1/6
f 96/2/5 90/1/5 91/2/5
f 92/2/2 96/2/2 91/2/2
f 98/1/1 102/1/1 97/2/1
f 98/1/1 97/2/1 99/2/1
f 100/2/2 99/2/2 97/2/2
f 101/1/3 100/2/3 97/2/3
f 101/1/3 97/2/3 102/1/3
f 103/1/4 101/1/4 102/1/4
f 103/1/4 102/1/4 98/1/4
f 100/2/6 101/1/6 103/1/6
f 100/2/6 103/1/6 104/2/6
f 104/2/5 103/1/5 98/1/5
f 100/2/2 104/2/2 99/2/2
f 104/2/5 98/1/5 99/2/5
f 106/1/1 110/1/1 105/2/1
f 106/1/1 105/2/1 107/2/1
f 108/2/2 107/2/2 105/2/2
f 109/1/3 108/2/3 105/2/3
f 109/1/3 105/2/3 110/1/3
f 111/1/4 109/1/4 110/1/4
f 111/1/4 110/1/4 106/1/4
f 108/2/6 109/1/6 111/1/6
f 108/2/6 111/1/6 112/2/6
f 112/2/5 111/1/5 106/1/5
f 108/2/2 112/2/2 107/2/2
f 112/2/5 106/1/5 107/2/5
f 114/1/1 118/1/1 113/2/1
f 114/1/1 113/2/1 115/2/1
f 116/2/2 115/2/2 113/2/2
f 117/1/3 116/2/3 113/2/3
f 117/1/3 113/2/3 118/1/3
f 119/1/4 117/1/4 118/1/4
f 119/1/4 118/1/4 114/1/4
f 120/2/5 119/1/5 114/1/5
f 116/2/6 119/1/6 120/2/6
f 116/2/6 117/1/6 119/1/6
f 116/2/2 120/2/2 115/2/2
f 120/2/5 114/1/5 115/2/5
f 122/1/1 126/1/1 121/2/1
f 122/1/1 121/2/1 123/2/1
f 124/2/2 123/2/2 121/2/2
f 125/1/3 124/2/3 121/2/3
f 125/1/3 121/2/3 126/1/3
f 127/1/4 125/1/4 126/1/4
f 127/1/4 126/1/4 122/1/4
f 128/2/5 127/1/5 122/1/5
f 124/2/6 127/1/6 128/2/6
f 124/2/6 125/1/6 127/1/6
f 124/2/2 128/2/2 123/2/2
f 128/2/5 122/1/5 123/2/5
f 130/1/1 134/1/1 129/2/1
f 130/1/1 129/2/1 131/2/1
f 132/2/2 131/2/2 129/2/2
f 133/1/3 132/2/3 129/2/3
f 133/1/3 129/2/3 134/1/3
f 135/1/4 133/1/4 134/1/4
f 135/1/4 134/1/4 130/1/4
f 136/2/5 135/1/5 130/1/5
f 132/2/6 135/1/6 136/2/6
f 132/2/6 133/1/6 135/1/6
f 132/2/2 136/2/2 131/2/2
f 136/2/5 130/1/5 131/2/5
f 138/1/1 142/1/1 137/2/1
f 138/1/1 137/2/1 139/2/1
f 140/2/2 139/2/2 137/2/2
f 141/1/3 140/2/3 137/2/3
f 141/1/3 137/2/3 142/1/3
f 143/1/4 141/1/4 142/1/4
f 143/1/4 142/1/4 138/1/4
f 140/2/6 141/1/6 143/1/6
f 144/2/5 143/1/5 138/1/5
f 140/2/6 143/1/6 144/2/6
f 140/2/2 144/2/2 139/2/2
f 144/2/5 138/1/5 139/2/5
f 146/1/1 150/1/1 145/2/1
f 146/1/1 145/2/1 147/2/1
f 148/2/2 147/2/2 145/2/2
f 149/1/3 148/2/3 145/2/3
f 149/1/3 145/2/3 150/1/3
f 151/1/4 149/1/4 150/1/4
f 151/1/4 150/1/4 146/1/4
f 148/2/6 149/1/6 151/1/6
f 148/2/6 151/1/6 152/2/6
f 152/2/5 151/1/5 146/1/5
f 148/2/2 152/2/2 147/2/2
f 152/2/5 146/1/5 147/2/5
f 154/1/1 158/1/1 153/2/1
f 154/1/1 153/2/1 155/2/1
f 156/2/2 155/2/2 153/2/2
f 157/1/3 156/2/3 153/2/3
f 157/1/3 153/2/3 158/1/3
f 159/1/4 157/1/4 158/1/4
f 159/1/4 158/1/4 154/1/4
f 160/2/5 159/1/5 154/1/5
f 156/2/6 159/1/6 160/2/6
f 156/2/6 157/1/6 159/1/6
f 156/2/2 160/2/2 155/2/2
f 160/2/5 154/1/5 155/2/5
f 162/1/1 166/1/1 161/2/1
f 162/1/1 161/2/1 163/2/1
f 164/2/2 163/2/2 161/2/2
f 165/1/3 164/2/3 161/2/3
f 165/1/3 161/2/3 166/1/3
f 167/1/4 165/1/4 166/1/4
f 167/1/4 166/1/4 162/1/4
f 164/2/6 165/1/6 167/1/6
f 164/2/6 167/1/6 168/2/6
f 168/2/5 167/1/5 162/1/5
f 164/2/2 168/2/2 163/2/2
f 168/2/5 162/1/5 163/2/5
f 170/1/1 174/1/1 169/2/1
f 170/1/1 169/2/1 171/2/1
f 172/2/2 171/2/2 169/2/2
f 173/1/3 172/2/3 169/2/3
f 173/1/3 169/2/3 174/1/3
f 175/1/4 173/1/4 174/1/4
f 175/1/4 174/1/4 170/1/4
f 172/2/6 173/1/6 175/1/6
f 172/2/6 175/1/6 176/2/6
f 176/2/5 175/1/5 170/1/5
f 172/2/2 176/2/2 171/2/2
f 176/2/5 170/1/5 171/2/5
f 178/1/1 182/1/1 177/2/1
f 178/1/1 177/2/1 179/2/1
f 180/2/2 179/2/2 177/2/2
f 181/1/3 180/2/3 177/2/3
f 181/1/3 177/2/3 182/1/3
f 183/1/4 181/1/4 182/1/4
f 183/1/4 182/1/4 178/1/4
f 180/2/6 181/1/6 183/1/6
f 180/2/6 183/1/6 184/2/6
f 184/2/5 183/1/5 178/1/5
f 180/2/2 184/2/2 179/2/2
f 184/2/5 178/1/5 179/2/5
f 186/1/1 190/1/1 185/2/1
f 186/1/1 185/2/1 187/2/1
f 188/2/2 187/2/2 185/2/2
f 189/1/3 188/2/3 185/2/3
f 189/1/3 185/2/3 190/1/3
f 191/1/4 189/1/4 190/1/4
f 191/1/4 190/1/4 186/1/4
f 192/2/5 191/1/5 186/1/5
f 188/2/6 191/1/6 192/2/6
f 188/2/6 189/1/6 191/1/6
f 188/2/2 192/2/2 187/2/2
f 192/2/5 186/1/5 187/2/5
f 194/1/1 198/1/1 193/2/1
f 194/1/1 193/2/1 195/2/1
f 196/2/2 195/2/2 193/2/2
f 197/1/3 196/2/3 193/2/3
f 197/1/3 193/2/3 198/1/3
f 199/1/4 197/1/4 198/1/4
f 199/1/4 198/1/4 194/1/4
f 196/2/6 197/1/6 199/1/6
f 196/2/6 199/1/6 200/2/6
f 200/2/5 199/1/5 194/1/5
f 196/2/2 200/2/2 195/2/2
f 200/2/5 194/1/5 195/2/5
f 202/2/1 204/2/1 201/2/1
f 202/2/1 201/2/1 203/2/1
f 206/2/2 203/2/2 201/2/2
f 204/2/1 205/2/1 201/2/1
f 207/2/2 201/2/2 205/2/2
f 207/2/2 206/2/2 201/2/2
f 207/2/6 209/2/6 208/2/6
f 207/2/6 208/2/6 206/2/6
f 209/2/3 207/2/3 205/2/3
f 208/2/4 209/2/4 210/2/4
f 209/2/3 205/2/3 210/2/3
f 208/2/4 210/2/4 204/2/4
f 204/2/1 210/2/1 205/2/1
f 206/2/6 208/2/6 211/2/6
f 208/2/6 212/1/6 211/2/6
f 208/2/6 213/1/6 212/1/6
f 213/1/3 208/2/3 204/2/3
f 212/1/4 213/1/4 214/1/4
f 213/1/3 204/2/3 214/1/3
f 212/1/4 214/1/4 215/1/4
f 215/1/1 214/1/1 204/2/1
f 211/2/5 215/1/5 202/2/5
f 215/1/1 204/2/1 202/2/1
f 211/2/5 212/1/5 215/1/5
f 216/2/4 211/2/4 202/2/4
f 216/2/6 217/2/6 211/2/6
f 206/2/6 211/2/6 217/2/6
f 206/2/2 217/2/2 203/2/2
f 217/2/2 218/2/2 203/2/2
f 216/2/6 219/2/6 217/2/6
f 217/2/2 219/2/2 218/2/2
f 219/2/5 216/2/5 220/2/5
f 219/2/5 220/2/5 218/2/5
f 203/2/1 218/2/1 220/2/1
f 203/2/1 220/2/1 202/2/1
f 216/2/4 202/2/4 220/2/4
f 222/1/1 226/1/1 221/2/1
f 222/1/1 221/2/1 223/2/1
f 224/2/2 223/2/2 221/2/2
f 225/1/3 224/2/3 221/2/3
f 225/1/3 221/2/3 226/1/3
f 227/1/4 225/1/4 226/1/4
f 227/1/4 226/1/4 222/1/4
f 228/2/5 227/1/5 222/1/5
f 224/2/6 227/1/6 228/2/6
f 224/2/6 225/1/6 227/1/6
f 228/2/5 222/1/5 223/2/5
f 224/2/2 228/2/2 223/2/2
f 230/1/1 234/1/1 229/2/1
f 230/1/1 229/2/1 231/2/1
f 232/2/2 231/2/2 229/2/2
f 233/1/3 232/2/3 229/2/3
f 233/1/3 229/2/3 234/1/3
f 235/1/4 233/1/4 234/1/4
f 235/1/4 234/1/4 230/1/4
f 236/2/5 235/1/5 230/1/5
f 232/2/6 233/1/6 235/1/6
f 232/2/6 235/1/6 236/2/6
f 236/2/5 230/1/5 231/2/5
f 232/2/2 236/2/2 231/2/2
f 238/1/1 242/1/1 237/2/1
f 238/1/1 237/2/1 239/2/1
f 240/2/2 239/2/2 237/2/2
f 241/1/3 240/2/3 237/2/3
f 241/1/3 237/2/3 242/1/3
f 243/1/4 241/1/4 242/1/4
f 243/1/4 242/1/4 238/1/4
f 244/2/5 243/1/5 238/1/5
f 240/2/6 243/1/6 244/2/6
f 240/2/6 241/1/6 243/1/6
f 244/2/5 238/1/5 239/2/5
f 240/2/2 244/2/2 239/2/2
f 246/1/1 250/1/1 245/2/1
f 246/1/1 245/2/1 247/2/1
f 248/2/2 247/2/2 245/2/2
f 249/1/3 248/2/3 245/2/3
f 249/1/3 245/2/3 250/1/3
f 251/1/4 249/1/4 250/1/4
f 251/1/4 250/1/4 246/1/4
f 252/2/5 251/1/5 246/1/5
f 248/2/6 251/1/6 252/2/6
f 248/2/6 249/1/6 251/1/6
f 252/2/5 246/1/5 247/2/5
f 248/2/2 252/2/2 247/2/2
f 254/1/1 258/1/1 253/2/1
f 254/1/1 253/2/1 255/2/1
f 256/2/2 255/2/2 253/2/2
f 257/1/3 256/2/3 253/2/3
f 257/1/3 253/2/3 258/1/3
f 259/1/4 257/1/4 258/1/4
f 259/1/4 258/1/4 254/1/4
f 260/2/5 259/1/5 254/1/5
f 256/2/6 259/1/6 260/2/6
f 256/2/6 257/1/6 259/1/6
f 260/2/5 254/1/5 255/2/5
f 256/2/2 260/2/2 255/2/2
f 262/1/1 266/1/1 261/2/1
f 262/1/1 261/2/1 263/2/1
f 264/2/2 263/2/2 261/2/2
f 265/1/3 264/2/3 261/2/3
f 265/1/3 261/2/3 266/1/3
f 267/1/4 265/1/4 266/1/4
f 267/1/4 266/1/4 262/1/4
f 268/2/5 267/1/5 262/1/5
f 264/2/6 267/1/6 268/2/6
f 264/2/6 265/1/6 267/1/6
f 268/2/5 262/1/5 263/2/5
f 264/2/2 268/2/2 263/2/2
f 270/1/1 274/1/1 269/2/1
f 270/1/1 269/2/1 271/2/1
f 272/2/2 271/2/2 269/2/2
f 273/1/3 272/2/3 269/2/3
f 273/1/3 269/2/3 274/1/3
f 275/1/4 273/1/4 274/1/4
f 275/1/4 274/1/4 270/1/4
f 276/2/5 275/1/5 270/1/5
f 272/2/6 275/1/6 276/2/6
f 272/2/6 273/1/6 275/1/6
f 276/2/5 270/1/5 271/2/5
f 272/2/2 276/2/2 271/2/2
f 278/1/1 282/1/1 277/2/1
f 278/1/1 277/2/1 279/2/1
f 280/2/2 279/2/2 277/2/2
f 281/1/3 280/2/3 277/2/3
f 281/1/3 277/2/3 282/1/3
f 283/1/4 281/1/4 282/1/4
f 283/1/4 282/1/4 278/1/4
f 284/2/5 283/1/5 278/1/5
f 280/2/6 283/1/6 284/2/6
f 280/2/6 281/1/6 283/1/6
f 284/2/5 278/1/5 279/2/5
f 280/2/2 284/2/2 279/2/2
f 286/2/1 288/2/1 285/2/1
f 286/2/1 285/2/1 287/2/1
f 290/2/2 287/2/2 285/2/2
f 288/2/1 289/2/1 285/2/1
f 291/2/2 285/2/2 289/2/2
f 291/2/2 290/2/2 285/2/2
f 291/2/6 293/2/6 292/2/6
f 291/2/6 292/2/6 290/2/6
f 293/2/3 291/2/3 289/2/3
f 292/2/4 293/2/4 294/2/4
f 293/2/3 289/2/3 294/2/3
f 288/2/1 294/2/1 289/2/1
f 292/2/4 294/2/4 288/2/4
f 290/2/6 292/2/6 295/2/6
f 292/2/6 297/1/6 295/2/6
f 296/1/3 292/2/3 288/2/3
f 292/2/6 296/1/6 297/1/6
f 295/2/5 297/1/5 298/1/5
f 297/1/4 299/1/4 298/1/4
f 297/1/4 296/1/4 299/1/4
f 298/1/1 299/1/1 288/2/1
f 296/1/3 288/2/3 299/1/3
f 295/2/5 298/1/5 286/2/5
f 298/1/1 288/2/1 286/2/1
f 301/2/6 300/2/6 295/2/6
f 290/2/6 295/2/6 300/2/6
f 301/2/4 295/2/4 286/2/4
f 301/2/6 303/2/6 300/2/6
f 301/2/4 286/2/4 302/2/4
f 303/2/5 301/2/5 302/2/5
f 300/2/2 303/2/2 304/2/2
f 303/2/5 302/2/5 304/2/5
f 300/2/2 304/2/2 287/2/2
f 287/2/1 304/2/1 302/2/1
f 287/2/1 302/2/1 286/2/1
f 290/2/2 300/2/2 287/2/2
f 306/2/1 308/2/1 305/2/1
f 306/2/1 305/2/1 307/2/1
f 310/2/2 307/2/2 305/2/2
f 308/2/1 309/2/1 305/2/1
f 311/2/2 305/2/2 309/2/2
f 311/2/2 310/2/2 305/2/2
f 313/2/3 311/2/3 309/2/3
f 311/2/6 313/2/6 312/2/6
f 311/2/6 312/2/6 310/2/6
f 313/2/3 309/2/3 314/2/3
f 312/2/4 313/2/4 314/2/4
f 308/2/1 314/2/1 309/2/1
f 312/2/4 314/2/4 308/2/4
f 315/1/3 312/2/3 308/2/3
f 312/2/6 315/1/6 316/1/6
f 312/2/6 316/1/6 317/2/6
f 310/2/6 312/2/6 317/2/6
f 320/2/6 318/2/6 317/2/6
f 310/2/6 317/2/6 318/2/6
f 317/2/5 316/1/5 319/1/5
f 317/2/5 319/1/5 306/2/5
f 320/2/4 317/2/4 306/2/4
f 320/2/6 322/2/6 318/2/6
f 322/2/5 320/2/5 321/2/5
f 320/2/4 306/2/4 321/2/4
f 318/2/2 322/2/2 323/2/2
f 322/2/5 321/2/5 323/2/5
f 307/2/1 323/2/1 321/2/1
f 318/2/2 323/2/2 307/2/2
f 307/2/1 321/2/1 306/2/1
f 319/1/1 324/1/1 308/2/1
f 316/1/4 324/1/4 319/1/4
f 319/1/1 308/2/1 306/2/1
f 316/1/4 315/1/4 324/1/4
f 315/1/3 308/2/3 324/1/3
f 310/2/2 318/2/2 307/2/2
f 330/2/4 325/2/4 326/2/4
f 325/2/1 327/1/1 326/2/1
f 325/2/1 329/1/1 327/1/1
f 330/2/4 328/2/4 325/2/4
f 328/2/3 329/1/3 325/2/3
f 331/1/5 330/2/5 326/2/5
f 331/1/6 328/2/6 330/2/6
f 331/1/6 332/1/6 328/2/6
f 332/1/2 331/1/2 327/1/2
f 331/1/5 326/2/5 327/1/5
f 328/2/3 332/1/3 329/1/3
f 332/1/2 327/1/2 329/1/2
f 334/2/4 336/2/4 333/2/4
f 334/2/4 333/2/4 335/2/4
f 335/2/1 333/2/1 337/1/1
f 336/2/3 337/1/3 333/2/3
f 339/1/2 338/1/2 337/1/2
f 335/2/1 337/1/1 338/1/1
f 336/2/3 339/1/3 337/1/3
f 339/1/2 340/1/2 338/1/2
f 340/1/6 339/1/6 336/2/6
f 340/1/5 335/2/5 338/1/5
f 340/1/6 336/2/6 334/2/6
f 340/1/5 334/2/5 335/2/5
f 342/2/4 344/2/4 341/2/4
f 342/2/4 341/2/4 343/2/4
f 343/2/1 341/2/1 345/1/1
f 344/2/3 345/1/3 341/2/3
f 347/1/2 346/1/2 345/1/2
f 343/2/1 345/1/1 346/1/1
f 344/2/3 347/1/3 345/1/3
f 347/1/2 348/1/2 346/1/2
f 348/1/6 347/1/6 344/2/6
f 348/1/5 343/2/5 346/1/5
f 348/1/5 342/2/5 343/2/5
f 348/1/6 344/2/6 342/2/6
f 352/2/4 349/2/4 350/2/4
f 349/2/1 351/1/1 350/2/1
f 349/2/1 354/1/1 351/1/1
f 352/2/4 353/2/4 349/2/4
f 353/2/3 354/1/3 349/2/3
f 353/2/3 355/1/3 354/1/3
f 355/1/2 351/1/2 354/1/2
f 356/1/6 355/1/6 353/2/6
f 355/1/2 356/1/2 351/1/2
f 356/1/6 353/2/6 352/2/6
f 356/1/5 350/2/5 351/1/5
f 356/1/5 352/2/5 350/2/5
f 360/2/4 357/2/4 358/2/4
f 357/2/1 359/1/1 358/2/1
f 357/2/1 362/1/1 359/1/1
f 360/2/4 361/2/4 357/2/4
f 361/2/3 362/1/3 357/2/3
f 361/2/3 363/1/3 362/1/3
f 363/1/2 359/1/2 362/1/2
f 364/1/6 363/1/6 361/2/6
f 363/1/2 364/1/2 359/1/2
f 364/1/6 361/2/6 360/2/6
f 364/1/5 360/2/5 358/2/5
f 364/1/5 358/2/5 359/1/5
f 366/2/4 368/2/4 365/2/4
f 366/2/4 365/2/4 367/2/4
f 367/2/1 365/2/1 369/1/1
f 368/2/3 369/1/3 365/2/3
f 371/1/2 370/1/2 369/1/2
f 367/2/1 369/1/1 370/1/1
f 368/2/3 371/1/3 369/1/3
f 366/2/6 371/1/6 368/2/6
f 371/1/2 372/1/2 370/1/2
f 366/2/6 372/1/6 371/1/6
f 372/1/5 366/2/5 367/2/5
f 372/1/5 367/2/5 370/1/5
f 374/2/4 376/2/4 373/2/4
f 374/2/4 373/2/4 375/2/4
f 375/2/1 373/2/1 377/1/1
f 376/2/3 377/1/3 373/2/3
f 379/1/2 378/1/2 377/1/2
f 375/2/1 377/1/1 378/1/1
f 376/2/3 379/1/3 377/1/3
f 379/1/2 380/1/2 378/1/2
f 380/1/6 379/1/6 376/2/6
f 380/1/5 374/2/5 375/2/5
f 380/1/5 375/2/5 378/1/5
f 380/1/6 376/2/6 374/2/6
f 382/2/4 384/2/4 381/2/4
f 382/2/4 381/2/4 383/2/4
f 383/2/1 381/2/1 385/1/1
f 384/2/3 385/1/3 381/2/3
f 383/2/1 385/1/1 386/1/1
f 387/1/2 386/1/2 385/1/2
f 384/2/3 387/1/3 385/1/3
f 382/2/6 387/1/6 384/2/6
f 382/2/6 388/1/6 387/1/6
f 387/1/2 388/1/2 386/1/2
f 388/1/5 382/2/5 383/2/5
f 388/1/5 383/2/5 386/1/5
f 390/2/4 392/2/4 389/2/4
f 390/2/4 389/2/4 391/2/4
f 391/2/1 389/2/1 393/1/1
f 392/2/3 393/1/3 389/2/3
f 395/1/2 394/1/2 393/1/2
f 391/2/1 393/1/1 394/1/1
f 392/2/3 395/1/3 393/1/3
f 390/2/6 396/1/6 395/1/6
f 390/2/6 395/1/6 392/2/6
f 395/1/2 396/1/2 394/1/2
f 396/1/5 390/2/5 391/2/5
f 396/1/5 391/2/5 394/1/5
f 400/2/4 397/2/4 398/2/4
f 397/2/1 399/1/1 398/2/1
f 397/2/1 402/1/1 399/1/1
f 400/2/4 401/2/4 397/2/4
f 401/2/3 402/1/3 397/2/3
f 401/2/3 403/1/3 402/1/3
f 403/1/2 399/1/2 402/1/2
f 403/1/2 404/1/2 399/1/2
f 404/1/6 403/1/6 401/2/6
f 404/1/5 400/2/5 398/2/5
f 404/1/5 398/2/5 399/1/5
f 404/1/6 401/2/6 400/2/6
f 408/2/4 405/2/4 406/2/4
f 405/2/1 407/1/1 406/2/1
f 405/2/1 410/1/1 407/1/1
f 408/2/4 409/2/4 405/2/4
f 409/2/3 410/1/3 405/2/3
f 409/2/3 411/1/3 410/1/3
f 411/1/2 407/1/2 410/1/2
f 411/1/2 412/1/2 407/1/2
f 412/1/6 411/1/6 409/2/6
f 412/1/5 408/2/5 406/2/5
f 412/1/5 406/2/5 407/1/5
f 412/1/6 409/2/6 408/2/6
f 416/2/4 413/2/4 414/2/4
f 413/2/1 415/1/1 414/2/1
f 413/2/1 418/1/1 415/1/1
f 416/2/4 417/2/4 413/2/4
f 417/2/3 418/1/3 413/2/3
f 417/2/3 419/1/3 418/1/3
f 419/1/2 415/1/2 418/1/2
f 419/1/2 420/1/2 415/1/2
f 420/1/6 419/1/6 417/2/6
f 420/1/5 414/2/5 415/1/5
f 420/1/5 416/2/5 414/2/5
f 420/1/6 417/2/6 416/2/6
f 422/2/4 424/2/4 421/2/4
f 422/2/4 421/2/4 423/2/4
f 423/2/1 421/2/1 425/1/1
f 424/2/3 425/1/3 421/2/3
f 427/1/2 426/1/2 425/1/2
f 423/2/1 425/1/1 426/1/1
f 424/2/3 427/1/3 425/1/3
f 422/2/6 428/1/6 427/1/6
f 422/2/6 427/1/6 424/2/6
f 427/1/2 428/1/2 426/1/2
f 428/1/5 422/2/5 423/2/5
f 428/1/5 423/2/5 426/1/5
f 432/2/4 429/2/4 430/2/4
f 429/2/1 431/1/1 430/2/1
f 429/2/1 434/1/1 431/1/1
f 432/2/4 433/2/4 429/2/4
f 433/2/3 434/1/3 429/2/3
f 433/2/3 435/1/3 434/1/3
f 435/1/2 431/1/2 434/1/2
f 435/1/2 436/1/2 431/1/2
f 436/1/6 435/1/6 433/2/6
f 436/1/5 430/2/5 431/1/5
f 436/1/5 432/2/5 430/2/5
f 436/1/6 433/2/6 432/2/6
f 438/2/4 440/2/4 437/2/4
f 438/2/4 437/2/4 439/2/4
f 439/2/1 437/2/1 441/1/1
f 440/2/3 441/1/3 437/2/3
f 443/1/2 442/1/2 441/1/2
f 439/2/1 441/1/1 442/1/1
f 440/2/3 443/1/3 441/1/3
f 443/1/2 444/1/2 442/1/2
f 438/2/6 444/1/6 443/1/6
f 438/2/6 443/1/6 440/2/6
f 444/1/5 439/2/5 442/1/5
f 444/1/5 438/2/5 439/2/5
f 448/2/4 445/2/4 446/2/4
f 445/2/1 447/1/1 446/2/1
f 445/2/1 450/1/1 447/1/1
f 448/2/4 449/2/4 445/2/4
f 449/2/3 450/1/3 445/2/3
f 449/2/3 451/1/3 450/1/3
f 451/1/2 447/1/2 450/1/2
f 451/1/2 452/1/2 447/1/2
f 452/1/6 451/1/6 449/2/6
f 452/1/5 448/2/5 446/2/5
f 452/1/5 446/2/5 447/1/5
f 452/1/6 449/2/6 448/2/6
f 457/2/1 453/2/1 454/2/1
f 453/2/1 455/2/1 454/2/1
f 453/2/1 459/2/1 455/2/1
f 456/2/4 458/2/4 453/2/4
f 456/2/4 453/2/4 457/2/4
f 458/2/4 459/2/4 453/2/4
f 458/2/4 460/2/4 459/2/4
f 460/2/3 455/2/3 459/2/3
f 460/2/3 461/2/3 455/2/3
f 458/2/6 461/2/6 460/2/6
f 461/2/2 454/2/2 455/2/2
f 461/2/2 462/2/2 454/2/2
f 458/2/6 462/2/6 461/2/6
f 462/2/3 463/1/3 465/1/3
f 464/2/6 463/1/6 462/2/6
f 456/2/6 464/2/6 462/2/6
f 456/2/6 462/2/6 458/2/6
f 462/2/3 465/1/3 454/2/3
f 466/2/1 454/2/1 465/1/1
f 466/2/1 465/1/1 467/1/1
f 463/1/2 467/1/2 465/1/2
f 468/1/5 466/2/5 467/1/5
f 463/1/2 468/1/2 467/1/2
f 468/1/5 464/2/5 466/2/5
f 464/2/6 468/1/6 463/1/6
f 464/2/2 469/2/2 466/2/2
f 469/2/1 457/2/1 466/2/1
f 457/2/1 454/2/1 466/2/1
f 464/2/2 470/2/2 469/2/2
f 470/2/5 471/2/5 469/2/5
f 469/2/1 471/2/1 457/2/1
f 472/2/4 457/2/4 471/2/4
f 470/2/5 472/2/5 471/2/5
f 456/2/6 472/2/6 470/2/6
f 472/2/4 456/2/4 457/2/4
f 456/2/6 470/2/6 464/2/6
f 474/2/4 476/2/4 473/2/4
f 474/2/4 473/2/4 475/2/4
f 475/2/1 473/2/1 477/1/1
f 476/2/3 477/1/3 473/2/3
f 479/1/2 478/1/2 477/1/2
f 475/2/1 477/1/1 478/1/1
f 476/2/3 479/1/3 477/1/3
f 474/2/6 480/1/6 479/1/6
f 474/2/6 479/1/6 476/2/6
f 479/1/2 480/1/2 478/1/2
f 480/1/5 474/2/5 475/2/5
f 480/1/5 475/2/5 478/1/5
f 482/2/4 484/2/4 481/2/4
f 482/2/4 481/2/4 483/2/4
f 483/2/1 481/2/1 485/1/1
f 484/2/3 485/1/3 481/2/3
f 487/1/2 486/1/2 485/1/2
f 483/2/1 485/1/1 486/1/1
f 484/2/3 487/1/3 485/1/3
f 482/2/6 488/1/6 487/1/6
f 482/2/6 487/1/6 484/2/6
f 487/1/2 488/1/2 486/1/2
f 488/1/5 482/2/5 483/2/5
f 488/1/5 483/2/5 486/1/5
f 490/2/4 492/2/4 489/2/4
f 490/2/4 489/2/4 491/2/4
f 491/2/1 489/2/1 493/1/1
f 492/2/3 493/1/3 489/2/3
f 495/1/2 494/1/2 493/1/2
f 491/2/1 493/1/1 494/1/1
f 492/2/3 495/1/3 493/1/3
f 490/2/6 495/1/6 492/2/6
f 490/2/6 496/1/6 495/1/6
f 495/1/2 496/1/2 494/1/2
f 496/1/5 490/2/5 491/2/5
f 496/1/5 491/2/5 494/1/5
f 498/2/4 500/2/4 497/2/4
f 498/2/4 497/2/4 499/2/4
f 499/2/1 497/2/1 501/1/1
f 500/2/3 501/1/3 497/2/3
f 499/2/1 501/1/1 502/1/1
f 503/1/2 502/1/2 501/1/2
f 500/2/3 503/1/3 501/1/3
f 498/2/6 503/1/6 500/2/6
f 498/2/6 504/1/6 503/1/6
f 503/1/2 504/1/2 502/1/2
f 504/1/5 498/2/5 499/2/5
f 504/1/5 499/2/5 502/1/5
f 506/2/4 508/2/4 505/2/4
f 506/2/4 505/2/4 507/2/4
f 507/2/1 505/2/1 509/1/1
f 508/2/3 509/1/3 505/2/3
f 511/1/2 510/1/2 509/1/2
f 507/2/1 509/1/1 510/1/1
f 508/2/3 511/1/3 509/1/3
f 506/2/6 511/1/6 508/2/6
f 506/2/6 512/1/6 511/1/6
f 511/1/2 512/1/2 510/1/2
f 512/1/5 506/2/5 507/2/5
f 512/1/5 507/2/5 510/1/5
f 516/2/4 513/2/4 514/2/4
f 513/2/1 515/1/1 514/2/1
f 513/2/1 518/1/1 515/1/1
f 516/2/4 517/2/4 513/2/4
f 517/2/3 518/1/3 513/2/3
f 517/2/3 519/1/3 518/1/3
f 519/1/2 515/1/2 518/1/2
f 520/1/6 519/1/6 517/2/6
f 519/1/2 520/1/2 515/1/2
f 520/1/5 516/2/5 514/2/5
f 520/1/5 514/2/5 515/1/5
f 520/1/6 517/2/6 516/2/6
f 522/2/4 524/2/4 521/2/4
f 522/2/4 521/2/4 523/2/4
f 523/2/1 521/2/1 525/1/1
f 524/2/3 525/1/3 521/2/3
f 527/1/2 526/1/2 525/1/2
f 523/2/1 525/1/1 526/1/1
f 524/2/3 527/1/3 525/1/3
f 522/2/6 527/1/6 524/2/6
f 522/2/6 528/1/6 527/1/6
f 527/1/2 528/1/2 526/1/2
f 528/1/5 522/2/5 523/2/5
f 528/1/5 523/2/5 526/1/5
f 532/2/4 529/2/4 530/2/4
f 529/2/1 531/1/1 530/2/1
f 529/2/1 534/1/1 531/1/1
f 532/2/4 533/2/4 529/2/4
f 533/2/3 534/1/3 529/2/3
f 533/2/3 535/1/3 534/1/3
f 535/1/2 531/1/2 534/1/2
f 536/1/6 535/1/6 533/2/6
f 535/1/2 536/1/2 531/1/2
f 536/1/5 532/2/5 530/2/5
f 536/1/5 530/2/5 531/1/5
f 536/1/6 533/2/6 532/2/6
f 542/2/4 537/2/4 538/2/4
f 537/2/1 539/2/1 538/2/1
f 537/2/1 541/2/1 539/2/1
f 543/2/4 540/2/4 537/2/4
f 540/2/1 541/2/1 537/2/1
f 542/2/4 543/2/4 537/2/4
f 544/2/6 545/2/6 543/2/6
f 544/2/6 543/2/6 542/2/6
f 545/2/6 546/2/6 543/2/6
f 543/2/4 546/2/4 540/2/4
f 546/2/3 547/2/3 548/2/3
f 545/2/6 547/2/6 546/2/6
f 546/2/3 548/2/3 540/2/3
f 540/2/1 548/2/1 541/2/1
f 547/2/2 541/2/2 548/2/2
f 547/2/2 545/2/2 541/2/2
f 545/2/3 549/1/3 541/2/3
f 545/2/3 550/1/3 549/1/3
f 551/1/6 545/2/6 544/2/6
f 551/1/6 550/1/6 545/2/6
f 551/1/5 544/2/5 539/2/5
f 551/1/5 539/2/5 552/1/5
f 550/1/2 551/1/2 552/1/2
f 541/2/1 549/1/1 552/1/1
f 550/1/2 552/1/2 549/1/2
f 541/2/1 552/1/1 539/2/1
f 542/2/6 554/2/6 544/2/6
f 544/2/2 553/2/2 539/2/2
f 544/2/2 554/2/2 553/2/2
f 542/2/6 556/2/6 554/2/6
f 554/2/5 556/2/5 555/2/5
f 554/2/5 555/2/5 553/2/5
f 556/2/4 542/2/4 538/2/4
f 556/2/4 538/2/4 555/2/4
f 553/2/1 555/2/1 538/2/1
f 553/2/1 538/2/1 539/2/1
f 562/2/4 557/2/4 558/2/4
f 557/2/1 559/2/1 558/2/1
f 557/2/1 561/2/1 559/2/1
f 563/2/4 560/2/4 557/2/4
f 560/2/1 561/2/1 557/2/1
f 562/2/4 563/2/4 557/2/4
f 564/2/6 565/2/6 563/2/6
f 564/2/6 563/2/6 562/2/6
f 565/2/6 566/2/6 563/2/6
f 563/2/4 566/2/4 560/2/4
f 565/2/6 567/2/6 566/2/6
f 566/2/3 567/2/3 568/2/3
f 566/2/3 568/2/3 560/2/3
f 560/2/1 568/2/1 561/2/1
f 567/2/2 561/2/2 568/2/2
f 567/2/2 565/2/2 561/2/2
f 571/1/6 565/2/6 564/2/6
f 565/2/3 570/1/3 569/1/3
f 565/2/3 569/1/3 561/2/3
f 571/1/6 570/1/6 565/2/6
f 570/1/2 571/1/2 572/1/2
f 571/1/5 559/2/5 572/1/5
f 571/1/5 564/2/5 559/2/5
f 561/2/1 569/1/1 572/1/1
f 570/1/2 572/1/2 569/1/2
f 561/2/1 572/1/1 559/2/1
f 564/2/2 573/2/2 574/2/2
f 562/2/6 573/2/6 564/2/6
f 564/2/2 574/2/2 559/2/2
f 574/2/1 575/2/1 558/2/1
f 574/2/1 558/2/1 559/2/1
f 573/2/5 575/2/5 574/2/5
f 576/2/4 558/2/4 575/2/4
f 573/2/5 576/2/5 575/2/5
f 576/2/4 562/2/4 558/2/4
f 562/2/6 576/2/6 573/2/6
f 580/2/2 577/2/2 578/2/2
f 577/2/1 579/1/1 578/2/1
f 577/2/1 582/1/1 579/1/1
f 580/2/2 581/2/2 577/2/2
f 581/2/5 582/1/5 577/2/5
f 581/2/5 583/1/5 582/1/5
f 583/1/4 579/1/4 582/1/4
f 583/1/4 584/1/4 579/1/4
f 584/1/6 583/1/6 581/2/6
f 584/1/6 581/2/6 580/2/6
f 584/1/3 578/2/3 579/1/3
f 584/1/3 580/2/3 578/2/3
f 586/2/2 588/2/2 585/2/2
f 586/2/2 585/2/2 587/2/2
f 587/2/1 585/2/1 589/1/1
f 588/2/5 589/1/5 585/2/5
f 587/2/1 589/1/1 590/1/1
f 591/1/4 590/1/4 589/1/4
f 588/2/5 591/1/5 589/1/5
f 592/1/6 591/1/6 588/2/6
f 591/1/4 592/1/4 590/1/4
f 592/1/3 586/2/3 587/2/3
f 592/1/3 587/2/3 590/1/3
f 592/1/6 588/2/6 586/2/6
f 596/2/2 593/2/2 594/2/2
f 593/2/1 595/1/1 594/2/1
f 593/2/1 598/1/1 595/1/1
f 596/2/2 597/2/2 593/2/2
f 597/2/5 598/1/5 593/2/5
f 597/2/5 599/1/5 598/1/5
f 599/1/4 595/1/4 598/1/4
f 599/1/4 600/1/4 595/1/4
f 600/1/6 599/1/6 597/2/6
f 600/1/3 596/2/3 594/2/3
f 600/1/6 597/2/6 596/2/6
f 600/1/3 594/2/3 595/1/3
f 604/2/2 601/2/2 602/2/2
f 601/2/1 603/1/1 602/2/1
f 601/2/1 606/1/1 603/1/1
f 604/2/2 605/2/2 601/2/2
f 605/2/5 606/1/5 601/2/5
f 605/2/5 607/1/5 606/1/5
f 607/1/4 603/1/4 606/1/4
f 608/1/6 607/1/6 605/2/6
f 607/1/4 608/1/4 603/1/4
f 608/1/3 604/2/3 602/2/3
f 608/1/3 602/2/3 603/1/3
f 608/1/6 605/2/6 604/2/6
f 612/2/2 609/2/2 610/2/2
f 609/2/1 611/1/1 610/2/1
f 609/2/1 614/1/1 611/1/1
f 612/2/2 613/2/2 609/2/2
f 613/2/5 614/1/5 609/2/5
f 613/2/5 615/1/5 614/1/5
f 615/1/4 611/1/4 614/1/4
f 615/1/4 616/1/4 611/1/4
f 616/1/6 615/1/6 613/2/6
f 616/1/6 613/2/6 612/2/6
f 616/1/3 612/2/3 610/2/3
f 616/1/3 610/2/3 611/1/3
f 618/2/2 620/2/2 617/2/2
f 618/2/2 617/2/2 619/2/2
f 619/2/1 617/2/1 621/1/1
f 620/2/5 621/1/5 617/2/5
f 619/2/1 621/1/1 622/1/1
f 623/1/4 622/1/4 621/1/4
f 620/2/5 623/1/5 621/1/5
f 618/2/6 623/1/6 620/2/6
f 618/2/6 624/1/6 623/1/6
f 623/1/4 624/1/4 622/1/4
f 624/1/3 618/2/3 619/2/3
f 624/1/3 619/2/3 622/1/3
f 628/2/2 625/2/2 626/2/2
f 625/2/1 627/1/1 626/2/1
f 625/2/1 630/1/1 627/1/1
f 628/2/2 629/2/2 625/2/2
f 629/2/5 630/1/5 625/2/5
f 629/2/5 631/1/5 630/1/5
f 631/1/4 627/1/4 630/1/4
f 631/1/4 632/1/4 627/1/4
f 632/1/6 631/1/6 629/2/6
f 632/1/3 628/2/3 626/2/3
f 632/1/6 629/2/6 628/2/6
f 632/1/3 626/2/3 627/1/3
f 634/2/2 636/2/2 633/2/2
f 634/2/2 633/2/2 635/2/2
f 635/2/1 633/2/1 637/1/1
f 636/2/5 637/1/5 633/2/5
f 635/2/1 637/1/1 638/1/1
f 639/1/4 638/1/4 637/1/4
f 636/2/5 639/1/5 637/1/5
f 634/2/6 639/1/6 636/2/6
f 634/2/6 640/1/6 639/1/6
f 639/1/4 640/1/4 638/1/4
f 640/1/3 634/2/3 635/2/3
f 640/1/3 635/2/3 638/1/3
f 642/2/2 644/2/2 641/2/2
f 642/2/2 641/2/2 643/2/2
f 643/2/1 641/2/1 645/1/1
f 644/2/5 645/1/5 641/2/5
f 643/2/1 645/1/1 646/1/1
f 647/1/4 646/1/4 645/1/4
f 644/2/5 647/1/5 645/1/5
f 642/2/6 647/1/6 644/2/6
f 647/1/4 648/1/4 646/1/4
f 642/2/6 648/1/6 647/1/6
f 648/1/3 643/2/3 646/1/3
f 648/1/3 642/2/3 643/2/3
f 650/2/2 652/2/2 649/2/2
f 650/2/2 649/2/2 651/2/2
f 651/2/1 649/2/1 653/1/1
f 652/2/5 653/1/5 649/2/5
f 651/2/1 653/1/1 654/1/1
f 655/1/4 654/1/4 653/1/4
f 652/2/5 655/1/5 653/1/5
f 650/2/6 655/1/6 652/2/6
f 650/2/6 656/1/6 655/1/6
f 655/1/4 656/1/4 654/1/4
f 656/1/3 650/2/3 651/2/3
f 656/1/3 651/2/3 654/1/3
f 660/2/2 657/2/2 658/2/2
f 657/2/1 659/1/1 658/2/1
f 657/2/1 662/1/1 659/1/1
f 660/2/2 661/2/2 657/2/2
f 661/2/5 662/1/5 657/2/5
f 661/2/5 663/1/5 662/1/5
f 663/1/4 659/1/4 662/1/4
f 663/1/4 664/1/4 659/1/4
f 664/1/6 663/1/6 661/2/6
f 664/1/3 660/2/3 658/2/3
f 664/1/6 661/2/6 660/2/6
f 664/1/3 658/2/3 659/1/3
f 666/2/2 668/2/2 665/2/2
f 666/2/2 665/2/2 667/2/2
f 667/2/1 665/2/1 669/1/1
f 668/2/5 669/1/5 665/2/5
f 667/2/1 669/1/1 670/1/1
f 671/1/4 670/1/4 669/1/4
f 668/2/5 671/1/5 669/1/5
f 666/2/6 671/1/6 668/2/6
f 666/2/6 672/1/6 671/1/6
f 671/1/4 672/1/4 670/1/4
f 672/1/3 666/2/3 667/2/3
f 672/1/3 667/2/3 670/1/3
f 674/2/2 676/2/2 673/2/2
f 674/2/2 673/2/2 675/2/2
f 675/2/1 673/2/1 677/1/1
f 676/2/5 677/1/5 673/2/5
f 675/2/1 677/1/1 678/1/1
f 679/1/4 678/1/4 677/1/4
f 676/2/5 679/1/5 677/1/5
f 674/2/6 679/1/6 676/2/6
f 679/1/4 680/1/4 678/1/4
f 674/2/6 680/1/6 679/1/6
f 680/1/3 674/2/3 675/2/3
f 680/1/3 675/2/3 678/1/3
f 682/2/2 684/2/2 681/2/2
f 682/2/2 681/2/2 683/2/2
f 683/2/1 681/2/1 685/1/1
f 684/2/5 685/1/5 681/2/5
f 683/2/1 685/1/1 686/1/1
f 687/1/4 686/1/4 685/1/4
f 684/2/5 687/1/5 685/1/5
f 682/2/6 687/1/6 684/2/6
f 682/2/6 688/1/6 687/1/6
f 687/1/4 688/1/4 686/1/4
f 688/1/3 682/2/3 683/2/3
f 688/1/3 683/2/3 686/1/3
f 690/2/2 692/2/2 689/2/2
f 690/2/2 689/2/2 691/2/2
f 691/2/1 689/2/1 693/1/1
f 692/2/5 693/1/5 689/2/5
f 695/1/4 694/1/4 693/1/4
f 691/2/1 693/1/1 694/1/1
f 692/2/5 695/1/5 693/1/5
f 690/2/6 696/1/6 695/1/6
f 690/2/6 695/1/6 692/2/6
f 695/1/4 696/1/4 694/1/4
f 696/1/3 690/2/3 691/2/3
f 696/1/3 691/2/3 694/1/3
f 698/2/2 700/2/2 697/2/2
f 698/2/2 697/2/2 699/2/2
f 699/2/1 697/2/1 701/1/1
f 700/2/5 701/1/5 697/2/5
f 699/2/1 701/1/1 702/1/1
f 703/1/4 702/1/4 701/1/4
f 700/2/5 703/1/5 701/1/5
f 698/2/6 703/1/6 700/2/6
f 698/2/6 704/1/6 703/1/6
f 703/1/4 704/1/4 702/1/4
f 704/1/3 698/2/3 699/2/3
f 704/1/3 699/2/3 702/1/3
f 710/2/2 705/2/2 706/2/2
f 705/2/1 707/2/1 706/2/1
f 705/2/1 709/2/1 707/2/1
f 711/2/2 708/2/2 705/2/2
f 708/2/1 709/2/1 705/2/1
f 710/2/2 711/2/2 705/2/2
f 712/2/6 713/2/6 711/2/6
f 712/2/6 711/2/6 710/2/6
f 713/2/6 714/2/6 711/2/6
f 711/2/2 714/2/2 708/2/2
f 713/2/6 716/2/6 714/2/6
f 714/2/5 716/2/5 715/2/5
f 714/2/5 715/2/5 708/2/5
f 716/2/4 709/2/4 715/2/4
f 716/2/4 713/2/4 709/2/4
f 708/2/1 715/2/1 709/2/1
f 717/1/6 713/2/6 712/2/6
f 717/1/6 719/1/6 713/2/6
f 713/2/5 719/1/5 718/1/5
f 713/2/5 718/1/5 709/2/5
f 719/1/4 720/1/4 718/1/4
f 719/1/4 717/1/4 720/1/4
f 709/2/1 718/1/1 720/1/1
f 709/2/1 720/1/1 707/2/1
f 717/1/3 707/2/3 720/1/3
f 717/1/3 712/2/3 707/2/3
f 712/2/4 721/2/4 722/2/4
f 710/2/6 721/2/6 712/2/6
f 712/2/4 722/2/4 707/2/4
f 722/2/1 723/2/1 706/2/1
f 722/2/1 706/2/1 707/2/1
f 721/2/3 723/2/3 722/2/3
f 724/2/2 706/2/2 723/2/2
f 721/2/3 724/2/3 723/2/3
f 710/2/6 724/2/6 721/2/6
f 724/2/2 710/2/2 706/2/2
f 726/2/2 728/2/2 725/2/2
f 726/2/2 725/2/2 727/2/2
f 727/2/1 725/2/1 729/1/1
f 728/2/5 729/1/5 725/2/5
f 727/2/1 729/1/1 730/1/1
f 731/1/4 730/1/4 729/1/4
f 728/2/5 731/1/5 729/1/5
f 726/2/6 732/1/6 731/1/6
f 726/2/6 731/1/6 728/2/6
f 731/1/4 732/1/4 730/1/4
f 732/1/3 726/2/3 727/2/3
f 732/1/3 727/2/3 730/1/3
f 734/2/2 736/2/2 733/2/2
f 734/2/2 733/2/2 735/2/2
f 735/2/1 733/2/1 737/1/1
f 736/2/5 737/1/5 733/2/5
f 739/1/4 738/1/4 737/1/4
f 735/2/1 737/1/1 738/1/1
f 736/2/5 739/1/5 737/1/5
f 739/1/4 740/1/4 738/1/4
f 734/2/6 740/1/6 739/1/6
f 734/2/6 739/1/6 736/2/6
f 740/1/3 735/2/3 738/1/3
f 740/1/3 734/2/3 735/2/3
f 742/2/2 744/2/2 741/2/2
f 742/2/2 741/2/2 743/2/2
f 743/2/1 741/2/1 745/1/1
f 744/2/5 745/1/5 741/2/5
f 743/2/1 745/1/1 746/1/1
f 747/1/4 746/1/4 745/1/4
f 744/2/5 747/1/5 745/1/5
f 742/2/6 748/1/6 747/1/6
f 742/2/6 747/1/6 744/2/6
f 747/1/4 748/1/4 746/1/4
f 748/1/3 742/2/3 743/2/3
f 748/1/3 743/2/3 746/1/3
f 750/2/2 752/2/2 749/2/2
f 750/2/2 749/2/2 751/2/2
f 751/2/1 749/2/1 753/1/1
f 752/2/5 753/1/5 749/2/5
f 755/1/4 754/1/4 753/1/4
f 751/2/1 753/1/1 754/1/1
f 752/2/5 755/1/5 753/1/5
f 750/2/6 756/1/6 755/1/6
f 750/2/6 755/1/6 752/2/6
f 755/1/4 756/1/4 754/1/4
f 756/1/3 750/2/3 751/2/3
f 756/1/3 751/2/3 754/1/3
f 760/2/2 757/2/2 758/2/2
f 757/2/1 759/1/1 758/2/1
f 757/2/1 762/1/1 759/1/1
f 760/2/2 761/2/2 757/2/2
f 761/2/5 762/1/5 757/2/5
f 761/2/5 763/1/5 762/1/5
f 763/1/4 759/1/4 762/1/4
f 763/1/4 764/1/4 759/1/4
f 764/1/6 763/1/6 761/2/6
f 764/1/3 760/2/3 758/2/3
f 764/1/6 761/2/6 760/2/6
f 764/1/3 758/2/3 759/1/3
f 768/2/2 765/2/2 766/2/2
f 765/2/1 767/1/1 766/2/1
f 765/2/1 770/1/1 767/1/1
f 768/2/2 769/2/2 765/2/2
f 769/2/5 770/1/5 765/2/5
f 769/2/5 771/1/5 770/1/5
f 771/1/4 767/1/4 770/1/4
f 771/1/4 772/1/4 767/1/4
f 772/1/6 771/1/6 769/2/6
f 772/1/3 768/2/3 766/2/3
f 772/1/6 769/2/6 768/2/6
f 772/1/3 766/2/3 767/1/3
f 774/2/2 776/2/2 773/2/2
f 774/2/2 773/2/2 775/2/2
f 775/2/1 773/2/1 777/1/1
f 776/2/5 777/1/5 773/2/5
f 775/2/1 777/1/1 778/1/1
f 779/1/4 778/1/4 777/1/4
f 776/2/5 779/1/5 777/1/5
f 774/2/6 780/1/6 779/1/6
f 774/2/6 779/1/6 776/2/6
f 779/1/4 780/1/4 778/1/4
f 780/1/3 774/2/3 775/2/3
f 780/1/3 775/2/3 778/1/3
f 784/2/2 781/2/2 782/2/2
f 781/2/1 783/1/1 782/2/1
f 781/2/1 786/1/1 783/1/1
f 784/2/2 785/2/2 781/2/2
f 785/2/5 786/1/5 781/2/5
f 785/2/5 787/1/5 786/1/5
f 787/1/4 783/1/4 786/1/4
f 787/1/4 788/1/4 783/1/4
f 788/1/6 787/1/6 785/2/6
f 788/1/3 784/2/3 782/2/3
f 788/1/6 785/2/6 784/2/6
f 788/1/3 782/2/3 783/1/3
f 794/2/2 790/2/2 789/2/2
f 790/2/1 791/2/1 789/2/1
f 793/2/1 789/2/1 791/2/1
f 792/2/2 794/2/2 789/2/2
f 792/2/2 789/2/2 793/2/2
f 794/2/2 796/2/2 790/2/2
f 792/2/6 795/2/6 794/2/6
f 795/2/6 796/2/6 794/2/6
f 795/2/6 798/2/6 796/2/6
f 796/2/5 797/2/5 790/2/5
f 796/2/5 798/2/5 797/2/5
f 798/2/4 795/2/4 791/2/4
f 798/2/4 791/2/4 797/2/4
f 790/2/1 797/2/1 791/2/1
f 792/2/6 799/2/6 795/2/6
f 801/1/6 795/2/6 799/2/6
f 795/2/5 800/1/5 802/1/5
f 801/1/6 800/1/6 795/2/6
f 795/2/5 802/1/5 791/2/5
f 800/1/4 803/1/4 802/1/4
f 791/2/1 802/1/1 803/1/1
f 791/2/1 803/1/1 804/2/1
f 801/1/3 804/2/3 803/1/3
f 800/1/4 801/1/4 803/1/4
f 804/2/1 806/2/1 805/2/1
f 804/2/1 805/2/1 793/2/1
f 801/1/3 799/2/3 804/2/3
f 799/2/4 806/2/4 804/2/4
f 793/2/1 791/2/1 804/2/1
f 807/2/3 805/2/3 806/2/3
f 799/2/4 807/2/4 806/2/4
f 807/2/3 808/2/3 805/2/3
f 799/2/6 808/2/6 807/2/6
f 808/2/2 792/2/2 793/2/2
f 799/2/6 792/2/6 808/2/6
f 808/2/2 793/2/2 805/2/2
f 814/2/2 809/2/2 810/2/2
f 809/2/1 811/2/1 810/2/1
f 809/2/1 813/2/1 811/2/1
f 815/2/2 812/2/2 809/2/2
f 812/2/1 813/2/1 809/2/1
f 814/2/2 815/2/2 809/2/2
f 815/2/2 818/2/2 812/2/2
f 816/2/6 817/2/6 815/2/6
f 816/2/6 815/2/6 814/2/6
f 817/2/6 818/2/6 815/2/6
f 818/2/5 819/2/5 812/2/5
f 818/2/5 820/2/5 819/2/5
f 817/2/6 820/2/6 818/2/6
f 820/2/4 817/2/4 813/2/4
f 820/2/4 813/2/4 819/2/4
f 812/2/1 819/2/1 813/2/1
f 817/2/5 822/1/5 821/1/5
f 817/2/5 821/1/5 813/2/5
f 823/1/6 822/1/6 817/2/6
f 823/1/6 817/2/6 816/2/6
f 822/1/4 823/1/4 824/1/4
f 823/1/3 811/2/3 824/1/3
f 823/1/3 816/2/3 811/2/3
f 813/2/1 821/1/1 824/1/1
f 822/1/4 824/1/4 821/1/4
f 813/2/1 824/1/1 811/2/1
f 814/2/6 826/2/6 816/2/6
f 816/2/4 826/2/4 825/2/4
f 816/2/4 825/2/4 811/2/4
f 814/2/6 828/2/6 826/2/6
f 826/2/3 828/2/3 827/2/3
f 826/2/3 827/2/3 825/2/3
f 828/2/2 810/2/2 827/2/2
f 828/2/2 814/2/2 810/2/2
f 825/2/1 827/2/1 810/2/1
f 825/2/1 810/2/1 811/2/1
f 830/1/1 834/1/1 829/2/1
f 830/1/1 829/2/1 831/2/1
f 832/2/4 831/2/4 829/2/4
f 833/1/5 832/2/5 829/2/5
f 833/1/5 829/2/5 834/1/5
f 835/1/2 833/1/2 834/1/2
f 835/1/2 834/1/2 830/1/2
f 832/2/6 833/1/6 835/1/6
f 832/2/6 835/1/6 836/2/6
f 836/2/3 835/1/3 830/1/3
f 832/2/4 836/2/4 831/2/4
f 836/2/3 830/1/3 831/2/3
f 838/1/1 842/1/1 837/2/1
f 838/1/1 837/2/1 839/2/1
f 840/2/4 839/2/4 837/2/4
f 841/1/5 840/2/5 837/2/5
f 841/1/5 837/2/5 842/1/5
f 843/1/2 841/1/2 842/1/2
f 843/1/2 842/1/2 838/1/2
f 840/2/6 841/1/6 843/1/6
f 840/2/6 843/1/6 844/2/6
f 844/2/3 843/1/3 838/1/3
f 840/2/4 844/2/4 839/2/4
f 844/2/3 838/1/3 839/2/3
f 846/1/1 850/1/1 845/2/1
f 846/1/1 845/2/1 847/2/1
f 848/2/4 847/2/4 845/2/4
f 849/1/5 848/2/5 845/2/5
f 849/1/5 845/2/5 850/1/5
f 851/1/2 849/1/2 850/1/2
f 851/1/2 850/1/2 846/1/2
f 848/2/6 849/1/6 851/1/6
f 848/2/6 851/1/6 852/2/6
f 852/2/3 851/1/3 846/1/3
f 848/2/4 852/2/4 847/2/4
f 852/2/3 846/1/3 847/2/3
f 854/1/1 858/1/1 853/2/1
f 854/1/1 853/2/1 855/2/1
f 856/2/4 855/2/4 853/2/4
f 857/1/5 856/2/5 853/2/5
f 857/1/5 853/2/5 858/1/5
f 859/1/2 857/1/2 858/1/2
f 859/1/2 858/1/2 854/1/2
f 856/2/6 857/1/6 859/1/6
f 856/2/6 859/1/6 860/2/6
f 860/2/3 859/1/3 854/1/3
f 856/2/4 860/2/4 855/2/4
f 860/2/3 854/1/3 855/2/3
f 862/1/1 866/1/1 861/2/1
f 862/1/1 861/2/1 863/2/1
f 864/2/4 863/2/4 861/2/4
f 865/1/5 864/2/5 861/2/5
f 865/1/5 861/2/5 866/1/5
f 867/1/2 865/1/2 866/1/2
f 867/1/2 866/1/2 862/1/2
f 864/2/6 865/1/6 867/1/6
f 864/2/6 867/1/6 868/2/6
f 868/2/3 867/1/3 862/1/3
f 864/2/4 868/2/4 863/2/4
f 868/2/3 862/1/3 863/2/3
f 870/1/1 874/1/1 869/2/1
f 870/1/1 869/2/1 871/2/1
f 872/2/4 871/2/4 869/2/4
f 873/1/5 872/2/5 869/2/5
f 873/1/5 869/2/5 874/1/5
f 875/1/2 873/1/2 874/1/2
f 875/1/2 874/1/2 870/1/2
f 872/2/6 873/1/6 875/1/6
f 872/2/6 875/1/6 876/2/6
f 876/2/3 875/1/3 870/1/3
f 872/2/4 876/2/4 871/2/4
f 876/2/3 870/1/3 871/2/3
f 878/1/1 882/1/1 877/2/1
f 878/1/1 877/2/1 879/2/1
f 880/2/4 879/2/4 877/2/4
f 881/1/5 880/2/5 877/2/5
f 881/1/5 877/2/5 882/1/5
f 883/1/2 881/1/2 882/1/2
f 883/1/2 882/1/2 878/1/2
f 880/2/6 881/1/6 883/1/6
f 880/2/6 883/1/6 884/2/6
f 884/2/3 883/1/3 878/1/3
f 880/2/4 884/2/4 879/2/4
f 884/2/3 878/1/3 879/2/3
f 886/1/1 890/1/1 885/2/1
f 886/1/1 885/2/1 887/2/1
f 888/2/4 887/2/4 885/2/4
f 889/1/5 888/2/5 885/2/5
f 889/1/5 885/2/5 890/1/5
f 891/1/2 889/1/2 890/1/2
f 891/1/2 890/1/2 886/1/2
f 888/2/6 889/1/6 891/1/6
f 888/2/6 891/1/6 892/2/6
f 892/2/3 891/1/3 886/1/3
f 888/2/4 892/2/4 887/2/4
f 892/2/3 886/1/3 887/2/3
f 894/1/1 898/1/1 893/2/1
f 894/1/1 893/2/1 895/2/1
f 896/2/4 895/2/4 893/2/4
f 897/1/5 896/2/5 893/2/5
f 897/1/5 893/2/5 898/1/5
f 899/1/2 897/1/2 898/1/2
f 899/1/2 898/1/2 894/1/2
f 896/2/6 897/1/6 899/1/6
f 896/2/6 899/1/6 900/2/6
f 900/2/3 899/1/3 894/1/3
f 896/2/4 900/2/4 895/2/4
f 900/2/3 894/1/3 895/2/3
f 902/1/1 906/1/1 901/2/1
f 902/1/1 901/2/1 903/2/1
f 904/2/4 903/2/4 901/2/4
f 905/1/5 904/2/5 901/2/5
f 905/1/5 901/2/5 906/1/5
f 907/1/2 905/1/2 906/1/2
f 907/1/2 906/1/2 902/1/2
f 904/2/6 905/1/6 907/1/6
f 904/2/6 907/1/6 908/2/6
f 908/2/3 907/1/3 902/1/3
f 904/2/4 908/2/4 903/2/4
f 908/2/3 902/1/3 903/2/3
f 910/1/1 914/1/1 909/2/1
f 910/1/1 909/2/1 911/2/1
f 912/2/4 911/2/4 909/2/4
f 913/1/5 912/2/5 909/2/5
f 913/1/5 909/2/5 914/1/5
f 915/1/2 913/1/2 914/1/2
f 915/1/2 914/1/2 910/1/2
f 912/2/6 913/1/6 915/1/6
f 912/2/6 915/1/6 916/2/6
f 916/2/3 915/1/3 910/1/3
f 912/2/4 916/2/4 911/2/4
f 916/2/3 910/1/3 911/2/3
f 918/1/1 922/1/1 917/2/1
f 918/1/1 917/2/1 919/2/1
f 920/2/4 919/2/4 917/2/4
f 921/1/5 920/2/5 917/2/5
f 921/1/5 917/2/5 922/1/5
f 923/1/2 921/1/2 922/1/2
f 923/1/2 922/1/2 918/1/2
f 920/2/6 921/1/6 923/1/6
f 920/2/6 923/1/6 924/2/6
f 924/2/3 923/1/3 918/1/3
f 920/2/4 924/2/4 919/2/4
f 924/2/3 918/1/3 919/2/3
f 926/1/1 930/1/1 925/2/1
f 926/1/1 925/2/1 927/2/1
f 928/2/4 927/2/4 925/2/4
f 929/1/5 928/2/5 925/2/5
f 929/1/5 925/2/5 930/1/5
f 931/1/2 929/1/2 930/1/2
f 931/1/2 930/1/2 926/1/2
f 928/2/6 929/1/6 931/1/6
f 928/2/6 931/1/6 932/2/6
f 932/2/3 931/1/3 926/1/3
f 928/2/4 932/2/4 927/2/4
f 932/2/3 926/1/3 927/2/3
f 934/1/1 938/1/1 933/2/1
f 934/1/1 933/2/1 935/2/1
f 936/2/4 935/2/4 933/2/4
f 937/1/5 936/2/5 933/2/5
f 937/1/5 933/2/5 938/1/5
f 939/1/2 937/1/2 938/1/2
f 939/1/2 938/1/2 934/1/2
f 936/2/6 937/1/6 939/1/6
f 936/2/6 939/1/6 940/2/6
f 940/2/3 939/1/3 934/1/3
f 936/2/4 940/2/4 935/2/4
f 940/2/3 934/1/3 935/2/3
f 942/1/1 946/1/1 941/2/1
f 942/1/1 941/2/1 943/2/1
f 944/2/4 943/2/4 941/2/4
f 945/1/5 944/2/5 941/2/5
f 945/1/5 941/2/5 946/1/5
f 947/1/2 945/1/2 946/1/2
f 947/1/2 946/1/2 942/1/2
f 944/2/6 945/1/6 947/1/6
f 944/2/6 947/1/6 948/2/6
f 948/2/3 947/1/3 942/1/3
f 944/2/4 948/2/4 943/2/4
f 948/2/3 942/1/3 943/2/3
f 950/1/1 954/1/1 949/2/1
f 950/1/1 949/2/1 951/2/1
f 952/2/4 951/2/4 949/2/4
f 953/1/5 952/2/5 949/2/5
f 953/1/5 949/2/5 954/1/5
f 955/1/2 953/1/2 954/1/2
f 955/1/2 954/1/2 950/1/2
f 952/2/6 953/1/6 955/1/6
f 952/2/6 955/1/6 956/2/6
f 956/2/3 955/1/3 950/1/3
f 952/2/4 956/2/4 951/2/4
f 956/2/3 950/1/3 951/2/3
f 958/2/1 960/2/1 957/2/1
f 958/2/1 957/2/1 959/2/1
f 962/2/4 959/2/4 957/2/4
f 960/2/1 961/2/1 957/2/1
f 963/2/4 957/2/4 961/2/4
f 963/2/4 962/2/4 957/2/4
f 963/2/6 965/2/6 962/2/6
f 964/2/5 963/2/5 961/2/5
f 963/2/6 964/2/6 965/2/6
f 962/2/6 965/2/6 967/2/6
f 966/1/5 965/2/5 960/2/5
f 965/2/2 968/2/2 960/2/2
f 965/2/6 966/1/6 969/1/6
f 965/2/6 969/1/6 967/2/6
f 965/2/2 964/2/2 968/2/2
f 969/1/2 966/1/2 970/1/2
f 969/1/2 970/1/2 971/1/2
f 967/2/3 969/1/3 971/1/3
f 971/1/1 970/1/1 960/2/1
f 967/2/3 971/1/3 958/2/3
f 971/1/1 960/2/1 958/2/1
f 966/1/5 960/2/5 970/1/5
f 960/2/1 968/2/1 961/2/1
f 964/2/5 961/2/5 968/2/5
f 962/2/6 967/2/6 972/2/6
f 973/2/6 972/2/6 967/2/6
f 973/2/2 967/2/2 958/2/2
f 973/2/6 975/2/6 972/2/6
f 975/2/3 973/2/3 974/2/3
f 973/2/2 958/2/2 974/2/2
f 972/2/4 975/2/4 976/2/4
f 975/2/3 974/2/3 976/2/3
f 959/2/1 976/2/1 974/2/1
f 972/2/4 976/2/4 959/2/4
f 959/2/1 974/2/1 958/2/1
f 962/2/4 972/2/4 959/2/4
f 978/1/1 982/1/1 977/2/1
f 978/1/1 977/2/1 979/2/1
f 980/2/4 979/2/4 977/2/4
f 981/1/5 980/2/5 977/2/5
f 981/1/5 977/2/5 982/1/5
f 983/1/2 981/1/2 982/1/2
f 983/1/2 982/1/2 978/1/2
f 984/2/3 983/1/3 978/1/3
f 980/2/6 981/1/6 983/1/6
f 980/2/6 983/1/6 984/2/6
f 984/2/3 978/1/3 979/2/3
f 980/2/4 984/2/4 979/2/4
f 986/1/1 990/1/1 985/2/1
f 986/1/1 985/2/1 987/2/1
f 988/2/4 987/2/4 985/2/4
f 989/1/5 988/2/5 985/2/5
f 989/1/5 985/2/5 990/1/5
f 991/1/2 989/1/2 990/1/2
f 991/1/2 990/1/2 986/1/2
f 988/2/6 989/1/6 991/1/6
f 988/2/6 991/1/6 992/2/6
f 992/2/3 991/1/3 986/1/3
f 988/2/4 992/2/4 987/2/4
f 992/2/3 986/1/3 987/2/3
f 994/1/1 998/1/1 993/2/1
f 994/1/1 993/2/1 995/2/1
f 996/2/4 995/2/4 993/2/4
f 997/1/5 996/2/5 993/2/5
f 997/1/5 993/2/5 998/1/5
f 999/1/2 997/1/2 998/1/2
f 999/1/2 998/1/2 994/1/2
f 996/2/6 997/1/6 999/1/6
f 996/2/6 999/1/6 1000/2/6
f 1000/2/3 999/1/3 994/1/3
f 996/2/4 1000/2/4 995/2/4
f 1000/2/3 994/1/3 995/2/3
f 1002/1/1 1006/1/1 1001/2/1
f 1002/1/1 1001/2/1 1003/2/1
f 1004/2/4 1003/2/4 1001/2/4
f 1005/1/5 1004/2/5 1001/2/5
f 1005/1/5 1001/2/5 1006/1/5
f 1007/1/2 1005/1/2 1006/1/2
f 1007/1/2 1006/1/2 1002/1/2
f 1008/2/3 1007/1/3 1002/1/3
f 1004/2/6 1005/1/6 1007/1/6
f 1004/2/6 1007/1/6 1008/2/6
f 1008/2/3 1002/1/3 1003/2/3
f 1004/2/4 1008/2/4 1003/2/4
f 1010/1/1 1014/1/1 1009/2/1
f 1010/1/1 1009/2/1 1011/2/1
f 1012/2/4 1011/2/4 1009/2/4
f 1013/1/5 1012/2/5 1009/2/5
f 1013/1/5 1009/2/5 1014/1/5
f 1015/1/2 1013/1/2 1014/1/2
f 1015/1/2 1014/1/2 1010/1/2
f 1012/2/6 1013/1/6 1015/1/6
f 1012/2/6 1015/1/6 1016/2/6
f 1016/2/3 1015/1/3 1010/1/3
f 1012/2/4 1016/2/4 1011/2/4
f 1016/2/3 1010/1/3 1011/2/3
f 1018/1/1 1022/1/1 1017/2/1
f 1018/1/1 1017/2/1 1019/2/1
f 1020/2/4 1019/2/4 1017/2/4
f 1021/1/5 1020/2/5 1017/2/5
f 1021/1/5 1017/2/5 1022/1/5
f 1023/1/2 1021/1/2 1022/1/2
f 1023/1/2 1022/1/2 1018/1/2
f 1024/2/3 1023/1/3 1018/1/3
f 1020/2/6 1021/1/6 1023/1/6
f 1020/2/6 1023/1/6 1024/2/6
f 1024/2/3 1018/1/3 1019/2/3
f 1020/2/4 1024/2/4 1019/2/4
f 1026/1/1 1030/1/1 1025/2/1
f 1026/1/1 1025/2/1 1027/2/1
f 1028/2/4 1027/2/4 1025/2/4
f 1029/1/5 1028/2/5 1025/2/5
f 1029/1/5 1025/2/5 1030/1/5
f 1031/1/2 1029/1/2 1030/1/2
f 1031/1/2 1030/1/2 1026/1/2
f 1028/2/6 1029/1/6 1031/1/6
f 1028/2/6 1031/1/6 1032/2/6
f 1032/2/3 1031/1/3 1026/1/3
f 1028/2/4 1032/2/4 1027/2/4
f 1032/2/3 1026/1/3 1027/2/3
f 1034/1/1 1038/1/1 1033/2/1
f 1034/1/1 1033/2/1 1035/2/1
f 1036/2/4 1035/2/4 1033/2/4
f 1037/1/5 1036/2/5 1033/2/5
f 1037/1/5 1033/2/5 1038/1/5
f 1039/1/2 1037/1/2 1038/1/2
f 1039/1/2 1038/1/2 1034/1/2
f 1040/2/3 1039/1/3 1034/1/3
f 1036/2/6 1037/1/6 1039/1/6
f 1036/2/6 1039/1/6 1040/2/6
f 1040/2/3 1034/1/3 1035/2/3
f 1036/2/4 1040/2/4 1035/2/4
f 1042/2/1 1044/2/1 1041/2/1
f 1042/2/1 1041/2/1 1043/2/1
f 1047/2/4 1043/2/4 1041/2/4
f 1044/2/1 1045/2/1 1041/2/1
f 1046/2/4 1041/2/4 1045/2/4
f 1046/2/4 1047/2/4 1041/2/4
f 1047/2/4 1048/2/4 1043/2/4
f 1047/2/6 1049/2/6 1048/2/6
f 1047/2/6 1050/2/6 1049/2/6
f 1046/2/6 1050/2/6 1047/2/6
f 1050/2/6 1053/1/6 1049/2/6
f 1046/2/6 1052/2/6 1050/2/6
f 1051/1/5 1050/2/5 1044/2/5
f 1050/2/6 1051/1/6 1053/1/6
f 1050/2/2 1052/2/2 1054/2/2
f 1050/2/2 1054/2/2 1044/2/2
f 1044/2/1 1054/2/1 1045/2/1
f 1052/2/5 1045/2/5 1054/2/5
f 1053/1/2 1051/1/2 1055/1/2
f 1049/2/3 1053/1/3 1056/1/3
f 1053/1/2 1055/1/2 1056/1/2
f 1056/1/1 1055/1/1 1044/2/1
f 1049/2/3 1056/1/3 1042/2/3
f 1056/1/1 1044/2/1 1042/2/1
f 1051/1/5 1044/2/5 1055/1/5
f 1052/2/5 1046/2/5 1045/2/5
f 1057/2/2 1049/2/2 1042/2/2
f 1057/2/6 1048/2/6 1049/2/6
f 1059/2/3 1057/2/3 1058/2/3
f 1057/2/2 1042/2/2 1058/2/2
f 1057/2/6 1059/2/6 1048/2/6
f 1059/2/3 1058/2/3 1060/2/3
f 1048/2/4 1059/2/4 1060/2/4
f 1043/2/1 1060/2/1 1058/2/1
f 1048/2/4 1060/2/4 1043/2/4
f 1043/2/1 1058/2/1 1042/2/1
f 1062/2/1 1064/2/1 1061/2/1
f 1062/2/1 1061/2/1 1063/2/1
f 1066/2/4 1063/2/4 1061/2/4
f 1064/2/1 1065/2/1 1061/2/1
f 1067/2/4 1061/2/4 1065/2/4
f 1067/2/4 1066/2/4 1061/2/4
f 1069/2/5 1067/2/5 1065/2/5
f 1067/2/6 1069/2/6 1068/2/6
f 1067/2/6 1068/2/6 1066/2/6
f 1069/2/5 1065/2/5 1070/2/5
f 1068/2/2 1069/2/2 1070/2/2
f 1064/2/1 1070/2/1 1065/2/1
f 1068/2/2 1070/2/2 1064/2/2
f 1071/1/5 1068/2/5 1064/2/5
f 1068/2/6 1071/1/6 1072/1/6
f 1068/2/6 1072/1/6 1073/2/6
f 1066/2/6 1068/2/6 1073/2/6
f 1073/2/3 1072/1/3 1074/1/3
f 1073/2/3 1074/1/3 1062/2/3
f 1075/2/2 1073/2/2 1062/2/2
f 1066/2/6 1073/2/6 1076/2/6
f 1075/2/6 1076/2/6 1073/2/6
f 1066/2/4 1076/2/4 1063/2/4
f 1076/2/4 1077/2/4 1063/2/4
f 1075/2/6 1078/2/6 1076/2/6
f 1076/2/4 1078/2/4 1077/2/4
f 1078/2/3 1075/2/3 1079/2/3
f 1078/2/3 1079/2/3 1077/2/3
f 1075/2/2 1062/2/2 1079/2/2
f 1063/2/1 1079/2/1 1062/2/1
f 1063/2/1 1077/2/1 1079/2/1
f 1074/1/1 1064/2/1 1062/2/1
f 1074/1/1 1080/1/1 1064/2/1
f 1072/1/2 1080/1/2 1074/1/2
f 1072/1/2 1071/1/2 1080/1/2
f 1071/1/5 1064/2/5 1080/1/5
f 12/2/5 9/2/5 10/2/5
f 9/2/1 15/2/1 10/2/1
f 9/2/1 11/2/1 15/2/1
f 17/2/2 9/2/2 11/2/2
f 9/2/1 14/2/1 11/2/1
f 12/2/5 13/2/5 9/2/5
f 9/2/1 13/2/1 14/2/1
f 10/2/1 15/2/1 19/2/1
f 16/2/1 19/2/1 15/2/1
f 16/2/1 15/2/1 20/2/1
f 17/2/3 18/2/3 15/2/3
f 17/2/3 15/2/3 11/2/3
f 21/2/4 15/2/4 18/2/4
f 22/2/3 20/2/3 21/2/3
f 22/2/6 21/2/6 18/2/6
f 23/2/2 16/2/2 22/2/2
f 22/2/6 18/2/6 23/2/6
f 25/2/6 24/2/6 23/2/6
f 24/2/2 19/2/2 23/2/2
f 25/2/6 23/2/6 18/2/6
f 12/2/6 25/2/6 18/2/6
f 26/2/6 24/2/6 25/2/6
f 25/2/4 28/2/4 26/2/4
f 12/2/5 10/2/5 25/2/5
f 26/2/5 30/2/5 27/2/5
f 26/2/6 27/2/6 24/2/6
f 28/2/1 10/2/1 29/2/1
f 28/2/1 29/2/1 30/2/1
f 27/2/2 29/2/2 24/2/2
f 10/2/1 19/2/1 29/2/1
f 12/2/6 18/2/6 17/2/6
f 12/2/6 17/2/6 31/2/6
f 17/2/3 14/2/3 31/2/3
f 32/2/6 34/2/6 31/2/6
f 32/2/6 31/2/6 33/2/6
f 33/2/2 31/2/2 14/2/2
f 35/2/6 31/2/6 34/2/6
f 12/2/6 31/2/6 35/2/6
f 12/2/5 35/2/5 13/2/5
f 35/2/2 41/2/2 13/2/2
f 36/2/6 35/2/6 37/2/6
f 35/2/6 34/2/6 37/2/6
f 37/2/4 42/2/4 38/2/4
f 39/2/4 38/2/4 40/2/4
f 36/2/6 37/2/6 39/2/6
f 36/2/5 40/2/5 41/2/5
f 41/2/1 40/2/1 38/2/1
f 41/2/1 38/2/1 13/2/1
f 13/2/1 38/2/1 42/2/1
f 13/2/1 42/2/1 14/2/1
f 43/2/1 14/2/1 42/2/1
f 34/2/4 43/2/4 42/2/4
f 43/2/1 44/2/1 14/2/1
f 32/2/3 44/2/3 43/2/3
f 33/2/2 14/2/2 44/2/2
f 17/2/2 12/2/2 9/2/2
f 21/2/4 20/2/4 15/2/4
f 22/2/3 16/2/3 20/2/3
f 23/2/2 19/2/2 16/2/2
f 24/2/2 29/2/2 19/2/2
f 25/2/4 10/2/4 28/2/4
f 26/2/5 28/2/5 30/2/5
f 27/2/2 30/2/2 29/2/2
f 17/2/3 11/2/3 14/2/3
f 35/2/2 36/2/2 41/2/2
f 37/2/4 34/2/4 42/2/4
f 39/2/4 37/2/4 38/2/4
f 36/2/5 39/2/5 40/2/5
f 34/2/4 32/2/4 43/2/4
f 32/2/3 33/2/3 44/2/3
