# Blender 4.5.3 LTS
# www.blender.org
o Plane
v 0.023929 0.000000 -0.009571
v -0.023929 0.000000 -0.009571
v 0.023929 0.000000 -0.057429
v -0.023929 0.000000 -0.057429
v 0.025226 0.069226 -0.058727
v 0.025227 0.069227 -0.008274
v -0.025226 0.069226 -0.008273
v -0.025227 0.069227 -0.058726
v 0.025227 -0.072964 -0.058726
v 0.025226 -0.072965 -0.008273
v -0.025227 -0.072964 -0.008274
v -0.025226 -0.072965 -0.058727
v 0.031000 0.000000 -0.002500
v -0.031000 0.000000 -0.002500
v 0.031000 0.000000 -0.064500
v -0.031000 0.000000 -0.064500
v 0.031000 0.075000 -0.064500
v 0.031000 0.075000 -0.002500
v -0.031000 0.075000 -0.002500
v -0.031000 0.075000 -0.064500
v 0.031000 -0.078738 -0.064500
v 0.031000 -0.078738 -0.002500
v -0.031000 -0.078738 -0.002500
v -0.031000 -0.078738 -0.064500
vn 1.0000 0.0005 -0.0000
vn 0.9998 -0.0178 -0.0000
vn -0.0000 -1.0000 -0.0000
vn 0.9998 0.0187 -0.0000
vn -1.0000 0.0005 -0.0000
vn -0.9998 0.0187 -0.0000
vn -0.0000 0.0005 1.0000
vn -0.0000 0.0187 0.9998
vn -0.0000 0.0005 -1.0000
vn -0.0000 0.0187 -0.9998
vn -0.0000 1.0000 -0.0000
vn -0.9998 -0.0178 -0.0000
vn -0.0000 -0.0178 0.9998
vn -0.0000 -0.0178 -0.9998
vn -1.0000 -0.0000 -0.0000
vn 1.0000 -0.0000 -0.0000
vn -0.0000 -0.0000 -1.0000
vn -0.0000 -0.0000 1.0000
vt 1.000000 0.000000
vt 1.000000 1.000000
vt 0.000000 1.000000
vt 0.000000 0.000000
s 1
f 2/1/1 12/2/2 4/2/1
f 7/1/3 5/3/3 6/4/3
f 4/2/1 7/1/4 2/1/1
f 1/4/5 5/3/6 3/3/5
f 3/3/7 8/2/8 4/2/7
f 2/1/9 6/4/10 1/4/9
f 9/3/11 11/1/11 10/4/11
f 3/3/5 10/4/12 1/4/5
f 4/2/7 9/3/13 3/3/7
f 1/4/9 11/1/14 2/1/9
f 2/1/1 11/1/2 12/2/2
f 7/1/3 8/2/3 5/3/3
f 4/2/1 8/2/4 7/1/4
f 1/4/5 6/4/6 5/3/6
f 3/3/7 5/3/8 8/2/8
f 2/1/9 7/1/10 6/4/10
f 9/3/11 12/2/11 11/1/11
f 3/3/5 9/3/12 10/4/12
f 4/2/7 12/2/13 9/3/13
f 1/4/9 10/4/14 11/1/14
f 14/1/15 16/2/15 24/2/15
f 19/1/11 18/4/11 17/3/11
f 16/2/15 14/1/15 19/1/15
f 13/4/16 15/3/16 17/3/16
f 15/3/17 16/2/17 20/2/17
f 14/1/18 13/4/18 18/4/18
f 21/3/3 22/4/3 23/1/3
f 15/3/16 13/4/16 22/4/16
f 16/2/17 15/3/17 21/3/17
f 13/4/18 14/1/18 23/1/18
f 14/1/15 24/2/15 23/1/15
f 19/1/11 17/3/11 20/2/11
f 16/2/15 19/1/15 20/2/15
f 13/4/16 17/3/16 18/4/16
f 15/3/17 20/2/17 17/3/17
f 14/1/18 18/4/18 19/1/18
f 21/3/3 23/1/3 24/2/3
f 15/3/16 22/4/16 21/3/16
f 16/2/17 21/3/17 24/2/17
f 13/4/18 23/1/18 22/4/18
