# Blender 5.1.2
# www.blender.org
o Cylinder
v 0.000000 -0.309332 0.000000
v -0.000000 -0.309332 -1.080000
v -0.005927 -0.311130 0.000000
v -0.005927 -0.311130 -1.080000
v -0.009856 -0.315918 0.000000
v -0.009856 -0.315918 -1.080000
v -0.010463 -0.322081 0.000000
v -0.010463 -0.322081 -1.080000
v -0.007543 -0.327543 0.000000
v -0.007543 -0.327543 -1.080000
v -0.002081 -0.330463 0.000000
v -0.002081 -0.330463 -1.080000
v 0.004082 -0.329856 -0.000000
v 0.005927 -0.328870 -1.080000
v 0.008870 -0.325927 -0.000000
v 0.009856 -0.324082 -1.080000
v 0.010463 -0.317919 -0.000000
v 0.010463 -0.317919 -1.080000
v 0.005927 -0.311130 -0.000000
v 0.005927 -0.311130 -1.080000
v -0.000000 -0.300000 -1.105668
v -0.002081 0.300000 -1.105463
v -0.005927 -0.300000 -1.103870
v -0.007543 0.300000 -1.102543
v -0.010463 0.300000 -1.097081
v -0.010463 -0.300000 -1.097081
v -0.009856 -0.300000 -1.090917
v -0.008870 0.300000 -1.089073
v -0.005927 -0.300000 -1.086130
v -0.004082 0.300000 -1.085144
v -0.000000 -0.300000 -1.084332
v 0.002081 0.300000 -1.084537
v 0.007543 -0.300000 -1.087457
v 0.008870 0.300000 -1.089073
v 0.010463 -0.300000 -1.092919
v 0.009856 0.300000 -1.099082
v 0.009856 -0.300000 -1.099082
v 0.005927 0.300000 -1.103870
v 0.005927 -0.300000 -1.103870
v 0.004082 -0.311065 -1.085368
v 0.007543 -0.307129 -1.087504
v 0.009856 -0.314939 -1.089333
v 0.010463 -0.307230 -1.092965
v 0.009856 -0.323711 -1.087517
v 0.009856 -0.318398 -1.097222
v 0.009856 -0.313257 -1.098843
v 0.009856 -0.307344 -1.099128
v 0.008870 -0.323715 -1.094147
v 0.005927 -0.328444 -1.088242
v 0.005927 -0.320916 -1.101294
v 0.005927 -0.314035 -1.103567
v 0.005927 -0.307433 -1.103915
v 0.004082 -0.327160 -1.096037
v -0.000000 -0.330221 -1.088515
v -0.000000 -0.321862 -1.102823
v -0.000000 -0.314328 -1.105341
v -0.000000 -0.307466 -1.105712
v -0.002081 -0.327692 -1.096329
v -0.005927 -0.328444 -1.088242
v -0.005927 -0.320916 -1.101294
v -0.005927 -0.314035 -1.103567
v -0.005927 -0.307433 -1.103915
v -0.008870 -0.323715 -1.094147
v -0.009856 -0.323711 -1.087517
v -0.009856 -0.313257 -1.098843
v -0.010463 -0.317345 -1.095520
v -0.010463 -0.307307 -1.097127
v -0.010463 -0.316694 -1.090295
v -0.010463 -0.312254 -1.092761
v -0.009856 -0.307193 -1.090965
v -0.007543 -0.311905 -1.087668
v -0.005927 -0.307104 -1.086178
v -0.002081 -0.310891 -1.084491
v -0.002081 0.330463 0.000000
v -0.002081 0.330463 -1.080000
v -0.007543 0.327543 0.000000
v -0.007543 0.327543 -1.080000
v -0.010463 0.322081 0.000000
v -0.010463 0.322081 -1.080000
v -0.009856 0.315918 0.000000
v -0.009856 0.315918 -1.080000
v -0.005927 0.311130 0.000000
v -0.005927 0.311130 -1.080000
v 0.000000 0.309332 0.000000
v -0.000000 0.309332 -1.080000
v 0.005927 0.311130 -0.000000
v 0.005927 0.311130 -1.080000
v 0.009856 0.315918 -0.000000
v 0.009856 0.315918 -1.080000
v 0.009856 0.324082 -0.000000
v 0.009856 0.324082 -1.080000
v 0.004082 0.329856 -0.000000
v 0.004082 0.329856 -1.080000
v -0.002081 0.327692 -1.096329
v -0.004082 0.307451 -1.104901
v -0.004082 0.314196 -1.104540
v -0.005927 0.320916 -1.101294
v -0.005927 0.328444 -1.088242
v -0.008870 0.307378 -1.100972
v -0.009856 0.318398 -1.097222
v -0.009856 0.322098 -1.093260
v -0.009856 0.323711 -1.087517
v -0.010463 0.312931 -1.096868
v -0.010668 0.307269 -1.095046
v -0.009856 0.311929 -1.090787
v -0.008870 0.307159 -1.089121
v -0.008870 0.313818 -1.086000
v -0.004082 0.307086 -1.085192
v 0.002081 0.309334 -1.085313
v 0.008870 0.311629 -1.088967
v 0.010463 0.316694 -1.090295
v 0.010668 0.312593 -1.094815
v 0.010463 0.307307 -1.097127
v 0.009856 0.318398 -1.097222
v 0.009856 0.323711 -1.087517
v 0.008870 0.313557 -1.100663
v 0.008870 0.323715 -1.094147
v 0.007543 0.307408 -1.102588
v 0.005927 0.320916 -1.101294
v 0.005927 0.328444 -1.088242
v 0.004082 0.314196 -1.104540
v 0.004082 0.327160 -1.096037
v 0.002081 0.307462 -1.105508
v -0.000000 0.330221 -1.088515
v -0.000000 0.321862 -1.102823
vn -0.0980 0.9952 -0.0000
vn -0.0981 0.9952 -0.0000
vn -0.0984 0.9952 -0.0000
vn -0.6348 0.7726 0.0001
vn -0.6420 0.7665 0.0182
vn 0.2016 0.0472 0.9783
vn -0.8338 0.5518 -0.0175
vn -0.0899 0.2374 0.9672
vn -0.8294 -0.5540 -0.0716
vn -0.5735 -0.8168 -0.0624
vn -0.3727 -0.9279 -0.0000
vn 0.1500 -0.0906 0.9845
vn 0.2205 -0.9754 -0.0003
vn 0.5350 -0.8426 -0.0623
vn 0.8044 -0.5941 -0.0005
vn 0.9198 0.2534 0.2995
vn 0.9823 0.1871 -0.0011
vn 0.9753 0.1939 -0.1058
vn 0.1122 -0.0482 0.9925
vn 0.1286 0.9917 -0.0000
vn 0.0984 0.9952 -0.0000
vn -0.2689 0.0039 -0.9632
vn -0.4296 0.0052 -0.9030
vn 0.1328 0.0169 -0.9910
vn -0.8091 0.0334 -0.5867
vn -0.9654 -0.0013 0.2607
vn -0.8551 0.0135 0.5183
vn -0.1767 -0.1330 0.9752
vn -0.0511 0.0002 0.9987
vn -0.4744 0.0075 0.8803
vn 0.5222 0.0599 0.8507
vn 0.2566 -0.1640 0.9525
vn 0.8801 -0.0672 0.4700
vn 0.9952 0.0003 0.0978
vn 0.9995 0.0297 -0.0048
vn 0.9952 0.0003 0.0980
vn 0.9992 -0.0010 -0.0400
vn 0.7957 0.0275 -0.6051
vn 0.3377 0.0043 -0.9412
vn -0.7121 -0.0024 0.7021
vn -0.6344 -0.0051 0.7730
vn -0.6326 -0.0025 0.7745
vn -0.7579 0.0001 0.6524
vn -0.9135 -0.3828 -0.1375
vn -0.1740 0.0058 -0.9847
vn 0.7707 0.0039 -0.6372
vn 0.3450 0.0056 -0.9386
vn 0.8264 0.0013 -0.5631
vn 0.9992 0.0162 -0.0373
vn 0.9711 0.0478 0.2338
vn 0.9568 -0.0015 0.2906
vn 0.9571 -0.0666 0.2819
vn 0.1059 -0.0124 0.9943
vn 0.1597 -0.0159 0.9870
vn 0.2903 -0.0065 0.9569
vn -0.3210 0.0094 0.9470
vn 0.2881 0.0246 0.9573
vn 0.2898 0.0237 0.9568
vn 0.2877 0.0251 0.9574
vn 0.2166 0.9756 0.0353
vn 0.6409 0.7635 0.0797
vn 0.4618 0.8870 0.0015
vn 0.7023 0.7111 0.0326
vn 0.7710 0.6362 0.0270
vn 0.9811 -0.0452 0.1882
vn 0.9978 0.0230 -0.0629
vn 0.9960 -0.0241 -0.0857
vn 0.9675 0.1386 0.2117
vn 0.9712 -0.2370 -0.0248
vn 0.9892 -0.1090 0.0984
vn 0.9538 -0.2993 -0.0246
vn 0.8357 -0.0278 -0.5485
vn 0.7654 -0.0323 -0.6428
vn 0.8294 -0.1724 -0.5314
vn 0.7539 -0.2024 -0.6250
vn 0.9799 -0.0904 -0.1777
vn 0.9721 -0.0774 -0.2214
vn 0.8747 -0.3538 -0.3312
vn 0.8813 -0.4719 -0.0235
vn 0.8612 -0.5076 -0.0261
vn 0.8043 -0.5935 -0.0303
vn 0.7896 -0.5860 -0.1820
vn 0.6186 -0.7591 -0.2027
vn 0.3438 -0.0537 -0.9375
vn 0.3434 -0.0503 -0.9378
vn 0.3385 -0.2981 -0.8925
vn 0.3374 -0.2973 -0.8932
vn 0.6734 -0.5418 -0.5030
vn 0.6974 -0.5156 -0.4977
vn 0.4584 -0.6477 -0.6085
vn 0.4693 -0.8819 -0.0460
vn 0.3217 -0.9043 -0.2808
vn 0.0980 -0.9720 -0.2136
vn -0.1805 -0.0530 -0.9821
vn -0.3024 -0.1788 -0.9363
vn -0.1427 -0.3119 -0.9393
vn -0.2262 -0.3079 -0.9241
vn -0.1745 -0.9283 -0.3282
vn -0.1916 -0.9813 0.0165
vn 0.1066 -0.9895 -0.0972
vn -0.4358 -0.8997 -0.0264
vn -0.2553 -0.7361 -0.6269
vn 0.0978 -0.6743 -0.7319
vn -0.5947 -0.6408 -0.4855
vn -0.6302 -0.2414 -0.7380
vn -0.7372 -0.0775 -0.6712
vn -0.7725 -0.6342 -0.0320
vn -0.8253 -0.5628 -0.0468
vn -0.8804 -0.4566 -0.1282
vn -0.9031 -0.4267 -0.0481
vn -0.9803 -0.1961 0.0253
vn -0.9951 -0.0953 -0.0251
vn -0.8820 0.2913 0.3705
vn -0.9780 0.2078 0.0171
vn -0.9165 0.3771 0.1335
vn -0.5131 0.8029 0.3035
vn -0.5254 0.0402 0.8499
vn -0.6932 0.7189 -0.0517
vn -0.6235 0.7779 0.0777
vn -0.7230 0.2211 0.6545
vn 0.0963 0.9954 0.0001
vn -0.2999 0.9538 0.0182
vn 0.2687 0.1185 0.9559
vn -0.4730 0.8811 -0.0000
vn -0.1406 0.6759 0.7235
vn -0.8766 0.4812 0.0083
vn -0.9702 -0.2217 -0.0982
vn -0.1614 -0.9869 -0.0000
vn 0.0711 -0.0844 0.9939
vn 0.1716 -0.9832 -0.0624
vn 0.3926 -0.9197 -0.0000
vn 0.8733 -0.4864 0.0287
vn 0.8374 -0.5466 -0.0000
vn 0.1475 0.1593 0.9761
vn 0.9988 -0.0211 -0.0434
vn 0.9822 -0.1738 0.0713
vn 0.8332 0.5465 -0.0849
vn 0.7601 0.6498 -0.0068
vn 0.6612 0.7502 -0.0000
vn 0.7213 0.6865 -0.0920
vn 0.6933 0.7197 -0.0366
vn 0.4692 0.8819 -0.0460
vn 0.9854 0.1690 -0.0217
vn 0.8808 0.4728 -0.0238
vn 0.9985 0.0392 0.0389
vn 0.9888 -0.1062 -0.1046
vn 0.7143 -0.6962 -0.0706
vn 0.9190 -0.2505 0.3044
vn 0.1675 -0.9838 -0.0632
vn 0.2565 -0.7013 0.6651
vn -0.4222 -0.8986 -0.1197
vn -0.9822 -0.1849 0.0327
vn -0.6157 -0.3739 0.6936
vn -0.7052 0.7083 0.0304
vn -0.9995 0.0292 0.0086
vn -0.4734 0.8782 -0.0686
vn 0.0932 0.9929 -0.0740
vn -0.2495 0.9677 -0.0372
vn -0.0010 -0.0154 -0.9999
vn -0.5854 -0.2126 -0.7824
vn 0.0183 0.0419 -0.9990
vn -0.6391 -0.0177 -0.7689
vn -0.3124 0.9286 -0.2003
vn -0.9066 0.3671 0.2081
vn -0.9897 -0.1343 -0.0490
vn -0.4215 0.4121 -0.8078
vn -0.6533 0.4386 -0.6171
vn -0.2649 0.5747 -0.7743
vn -0.7925 0.0835 -0.6041
vn -0.5563 -0.0145 -0.8308
vn -0.8836 0.0356 0.4668
vn -0.8575 -0.0908 0.5065
vn -0.8886 0.1013 -0.4474
vn 0.9758 0.0142 0.2180
vn 0.9948 -0.0747 0.0690
vn 0.9996 -0.0242 0.0108
vn 0.9948 -0.0284 0.0977
vn 0.9530 0.2986 -0.0503
vn 0.9951 0.0046 -0.0986
vn 0.9999 0.0162 0.0057
vn 0.9569 -0.0018 -0.2903
vn 0.9814 0.1140 -0.1542
vn 0.9797 0.1368 -0.1468
vn 0.8747 0.3538 -0.3312
vn 0.9752 0.0629 -0.2121
vn 0.9784 0.0689 -0.1949
vn 0.8759 0.1481 -0.4592
vn 0.7899 0.5869 -0.1776
vn 0.6187 0.7590 -0.2028
vn 0.9128 0.0164 -0.4081
vn 0.9211 0.0266 -0.3885
vn 0.7709 0.0328 -0.6361
vn 0.8137 -0.0074 -0.5813
vn 0.4697 -0.0059 -0.8828
vn 0.6970 0.5157 -0.4982
vn 0.6733 0.5418 -0.5031
vn 0.4585 0.6477 -0.6085
vn 0.6801 0.2241 -0.6980
vn 0.6216 0.3055 -0.7213
vn 0.2821 0.3015 -0.9108
vn 0.3213 0.9043 -0.2809
vn 0.0857 0.9892 -0.1188
vn 0.4521 0.0343 -0.8913
vn -0.1115 0.9937 0.0116
vn -0.4713 0.8820 -0.0000
vn 0.9182 -0.3962 0.0017
vn -0.4712 -0.0060 0.8820
vn -0.0000 -0.0000 1.0000
vn 0.9142 -0.0060 0.4052
vn 0.2897 0.9558 -0.0499
vn 0.1614 0.9857 -0.0477
vn 0.0980 0.9945 0.0378
vn 0.6410 0.7634 0.0797
vn 0.7730 0.6260 0.1031
vn 0.7729 0.6260 0.1031
vn 0.7729 0.6261 0.1032
vn 0.8817 0.4713 0.0200
vn 0.9949 -0.0742 -0.0686
vn 0.8816 -0.4715 -0.0233
vn 0.7628 -0.4721 -0.4419
vn 0.1569 -0.7222 -0.6736
vn 0.2817 -0.6994 -0.6569
vn 0.1761 -0.9830 -0.0513
vn 0.2899 -0.9558 -0.0499
vn -0.7640 -0.2006 -0.6133
vn -0.9732 0.1446 -0.1787
vn -0.9810 -0.1904 -0.0383
vn -0.8808 -0.4728 -0.0238
vn -0.9538 0.2220 0.2026
vn -0.8807 0.4732 0.0209
vn 0.7724 0.6343 -0.0320
vn -0.9951 -0.0985 0.0046
vn -0.4714 -0.0053 -0.8819
vn -0.2644 0.6624 -0.7009
vn -0.2411 0.3269 -0.9138
vn -0.8819 -0.0028 -0.4715
vn -0.6059 0.0204 0.7953
vn 0.9949 0.0743 -0.0686
vn 0.9951 0.0276 -0.0949
vn 0.9569 0.0133 -0.2901
vn 0.7629 0.4720 -0.4418
vn 0.7698 0.1956 -0.6076
vn 0.6340 0.0398 -0.7723
vn 0.4971 0.0216 -0.8674
vn 0.2815 0.6994 -0.6569
vn 0.1568 0.7222 -0.6737
vt 1.000000 1.000000
vt 0.968750 0.500000
vt 1.000000 0.500000
vt 0.906250 1.000000
vt 0.875000 0.500000
vt 0.906250 0.500000
vt 0.812500 1.000000
vt 0.781250 0.500000
vt 0.812500 0.500000
vt 0.656250 1.000000
vt 0.625000 0.500000
vt 0.656250 0.500000
vt 0.562500 1.000000
vt 0.531250 0.500000
vt 0.562500 0.500000
vt 0.468750 1.000000
vt 0.437500 0.500000
vt 0.468750 0.500000
vt 0.375000 1.000000
vt 0.343750 0.500000
vt 0.375000 0.500000
vt 0.281250 1.000000
vt 0.250000 0.500000
vt 0.281250 0.500000
vt 0.187500 1.000000
vt 0.156250 0.500000
vt 0.187500 0.500000
vt 0.031250 1.000000
vt 0.000000 0.500000
vt 0.031250 0.500000
vt 0.796822 0.014612
vt 0.514612 0.203178
vt 0.703178 0.485388
vt 0.968750 1.000000
vt 0.937500 0.500000
vt 0.875000 1.000000
vt 0.843750 0.500000
vt 0.718750 1.000000
vt 0.687500 0.500000
vt 0.718750 0.500000
vt 0.593750 1.000000
vt 0.593750 0.500000
vt 0.500000 1.000000
vt 0.500000 0.500000
vt 0.437500 1.000000
vt 0.406250 0.500000
vt 0.062500 1.000000
vt 0.062500 0.500000
vt 0.625000 1.000000
vt 0.645833 1.000000
vt 0.708333 1.000000
vt 0.687500 1.000000
vt 0.843750 1.000000
vt 0.895833 1.000000
vt 0.145833 1.000000
vt 0.125000 1.000000
vt 0.156250 1.000000
vt 0.208333 1.000000
vt 0.250000 1.000000
vt 0.270833 1.000000
vt 0.291667 1.000000
vt 0.395833 1.000000
vt 0.416667 1.000000
vt 0.531250 1.000000
vt 0.583333 1.000000
vt 0.322917 1.000000
vt 0.312500 1.000000
vt 0.104167 1.000000
vt 0.166667 1.000000
vt 0.260417 1.000000
vt 0.229167 1.000000
vt 0.218750 1.000000
vt 0.343750 1.000000
vt 0.333333 1.000000
vt 0.197917 1.000000
vt 0.354167 1.000000
vt 0.916667 1.000000
vt 0.822917 1.000000
vt 0.833333 1.000000
vt 0.750000 1.000000
vt 0.677083 1.000000
vt 0.604167 1.000000
vt 0.697917 1.000000
vt 0.802083 1.000000
vt 0.791667 1.000000
vt 0.781250 1.000000
vt 0.729167 1.000000
vt 0.666667 1.000000
vt 0.854167 1.000000
vt 0.937500 1.000000
vt 0.750000 0.500000
vt 0.312500 0.500000
vt 0.218750 0.500000
vt 0.125000 0.500000
vt 0.093750 0.916667
vt 0.062500 0.916667
vt 0.187500 0.916667
vt 0.156250 0.916667
vt 0.250000 0.916667
vt 0.218750 0.916667
vt 0.312500 0.916667
vt 0.281250 0.916667
vt 0.406250 1.000000
vt 0.437500 0.916667
vt 0.406250 0.916667
vt 0.500000 0.916667
vt 0.468750 0.916667
vt 0.656250 0.916667
vt 0.750000 0.916667
vt 0.843750 0.916667
vt 0.937500 0.916667
vt 0.937500 0.583333
vt 0.906250 0.666667
vt 0.906250 0.583333
vt 0.906250 0.916667
vt 0.875000 0.833333
vt 0.875000 0.916667
vt 0.906250 0.833333
vt 0.875000 0.750000
vt 0.843750 0.750000
vt 0.875000 0.666667
vt 0.843750 0.666667
vt 0.843750 0.583333
vt 0.812500 0.666667
vt 0.812500 0.583333
vt 0.718750 0.833333
vt 0.718750 0.916667
vt 0.687500 0.583333
vt 0.562500 0.583333
vt 0.500000 0.583333
vt 0.468750 0.583333
vt 0.406250 0.583333
vt 0.375000 0.583333
vt 0.312500 0.583333
vt 0.281250 0.583333
vt 0.250000 0.833333
vt 0.281250 0.750000
vt 0.250000 0.750000
vt 0.250000 0.666667
vt 0.281250 0.666667
vt 0.250000 0.583333
vt 0.218750 0.833333
vt 0.218750 0.583333
vt 0.218750 0.666667
vt 0.187500 0.583333
vt 0.156250 0.833333
vt 0.187500 0.750000
vt 0.156250 0.750000
vt 0.156250 0.666667
vt 0.125000 0.916667
vt 0.125000 0.833333
vt 0.125000 0.583333
vt 0.125000 0.666667
vt 0.093750 0.500000
vt 0.093750 0.583333
vt 0.062500 0.833333
vt 0.093750 0.750000
vt 0.062500 0.750000
vt 0.062500 0.666667
vt 0.031250 0.916667
vt 0.031250 0.833333
vt 0.031250 0.666667
vt 0.000000 0.583333
vt 0.000000 0.666667
vt 0.031250 0.583333
vt 1.000000 0.916667
vt 0.968750 0.833333
vt 0.968750 0.916667
vt 0.000000 1.000000
vt 0.750000 0.490000
vt 0.796822 0.485388
vt 0.883337 0.449553
vt 0.949553 0.383337
vt 0.985388 0.296822
vt 0.949553 0.116663
vt 0.883337 0.050447
vt 0.514612 0.296822
vt 0.550447 0.383337
vt 0.616663 0.050447
vt 0.093750 1.000000
vt 0.083333 1.000000
vt 0.302083 1.000000
vt 0.770833 1.000000
vt 0.760417 1.000000
vt 0.739583 1.000000
vt 0.703178 0.014612
vt 0.616663 0.449553
vt 0.343750 0.916667
vt 0.593750 0.916667
vt 0.562500 0.916667
vt 0.906250 0.750000
vt 0.875000 0.583333
vt 0.812500 0.833333
vt 0.812500 0.750000
vt 0.781250 0.750000
vt 0.750000 0.833333
vt 0.750000 0.750000
vt 0.718750 0.750000
vt 0.687500 0.666667
vt 0.718750 0.666667
vt 0.718750 0.583333
vt 0.656250 0.666667
vt 0.656250 0.583333
vt 0.593750 0.750000
vt 0.625000 0.750000
vt 0.625000 0.666667
vt 0.562500 0.666667
vt 0.593750 0.666667
vt 0.593750 0.583333
vt 0.437500 0.583333
vt 0.187500 0.833333
vt 0.093750 0.833333
vt 0.062500 0.583333
vt 0.031250 0.750000
vt 1.000000 0.833333
vt 1.000000 0.750000
vt 0.968750 0.750000
vt 1.000000 0.666667
s 1
f 2/1/1 3/2/2 1/3/3
f 4/4/4 5/5/5 3/6/6
f 6/7/7 7/8/8 5/9/5
f 8/10/9 9/11/10 7/12/8
f 10/13/11 11/14/12 9/15/10
f 12/16/13 13/17/14 11/18/12
f 14/19/15 15/20/16 13/21/14
f 18/22/17 17/23/18 15/24/16
f 18/25/17 19/26/19 17/27/18
f 20/28/20 1/29/21 19/30/19
f 11/31/12 15/32/16 19/33/19
f 23/34/22 24/35/23 22/2/24
f 23/36/22 25/37/25 24/5/23
f 26/38/26 28/39/27 25/40/25
f 29/41/28 30/15/29 28/42/30
f 31/43/31 32/18/32 30/44/29
f 31/45/31 34/46/33 32/17/32
f 35/22/34 36/23/35 34/24/36
f 37/25/37 38/26/38 36/27/35
f 21/47/39 22/30/24 38/48/38
f 27/49/40 72/50/41 29/41/42
f 26/38/26 70/51/43 27/52/40
f 23/36/22 67/7/44 26/53/26
f 21/1/39 62/54/45 23/34/22
f 21/47/39 52/55/46 57/56/47
f 39/57/48 47/58/49 52/25/46
f 37/59/37 43/60/50 47/59/49
f 35/22/51 41/61/52 43/60/50
f 31/45/53 40/62/54 41/19/55
f 31/16/53 73/63/56 40/62/54
f 29/64/28 73/65/56 31/43/53
f 41/19/57 73/66/58 40/67/59
f 73/68/60 20/47/61 41/56/62
f 41/55/62 20/56/61 40/69/63
f 40/69/63 20/57/61 42/25/64
f 47/59/49 42/70/65 46/59/66
f 46/59/66 42/59/65 45/59/67
f 42/71/68 18/59/69 44/59/70
f 42/59/68 44/60/70 48/70/71
f 52/25/72 46/71/66 51/72/73
f 51/72/74 45/59/67 50/59/75
f 45/59/76 48/22/77 50/59/78
f 44/61/79 14/73/80 49/67/81
f 48/22/71 49/74/82 53/61/83
f 57/56/84 51/75/73 56/25/85
f 56/25/86 50/59/75 55/59/87
f 50/59/88 53/67/89 55/59/90
f 49/76/81 14/45/80 54/19/91
f 53/67/83 54/62/92 58/66/93
f 57/77/84 61/78/94 62/54/95
f 56/79/86 60/80/96 61/78/97
f 58/81/93 54/65/92 59/82/98
f 59/49/99 12/64/100 10/13/101
f 60/80/102 58/52/103 63/83/104
f 61/84/97 60/80/96 65/85/105
f 62/79/95 65/86/106 67/7/44
f 59/52/99 10/49/101 8/10/107
f 63/87/108 59/52/98 64/51/109
f 66/80/110 64/87/111 68/80/112
f 67/87/44 69/87/113 70/51/43
f 68/85/114 8/86/9 6/7/7
f 69/86/113 68/85/115 71/7/116
f 70/88/43 71/83/116 72/50/117
f 71/89/116 6/36/118 4/4/119
f 72/50/117 71/52/116 73/49/120
f 71/36/116 4/4/119 73/90/120
f 75/34/121 76/35/122 74/2/123
f 77/36/124 78/37/125 76/5/122
f 79/86/126 80/91/127 78/8/125
f 83/49/128 82/42/129 80/11/127
f 83/64/128 84/44/130 82/14/129
f 85/45/131 86/46/132 84/17/130
f 87/73/133 88/92/134 86/20/132
f 89/59/135 90/93/136 88/23/134
f 91/57/137 92/94/138 90/26/136
f 93/47/139 74/30/123 92/48/138
f 82/31/129 88/32/134 74/33/123
f 93/47/140 120/95/141 124/96/142
f 91/57/137 115/97/143 120/98/144
f 91/72/137 111/99/145 115/100/143
f 89/22/135 110/101/146 111/102/145
f 87/103/147 109/104/148 110/105/146
f 85/16/149 108/106/150 109/107/148
f 83/64/151 108/106/150 85/43/149
f 81/52/152 107/108/153 83/10/151
f 79/86/126 102/109/154 81/80/155
f 77/36/156 102/110/154 79/53/126
f 75/34/157 98/111/158 77/90/156
f 95/112/159 22/2/24 24/35/23
f 96/113/160 95/112/161 99/114/162
f 98/115/163 101/116/164 102/117/165
f 94/118/166 100/119/167 101/116/164
f 100/120/167 96/121/168 103/122/169
f 99/123/170 24/5/23 25/37/25
f 103/124/169 99/123/162 104/125/171
f 102/109/165 105/126/172 107/127/153
f 104/128/173 25/40/25 28/39/27
f 108/129/150 28/42/30 30/15/29
f 108/130/150 32/18/32 109/131/148
f 109/132/148 34/21/33 110/133/146
f 110/134/146 34/24/33 113/135/174
f 111/136/145 110/137/146 114/138/175
f 110/137/146 112/139/176 114/138/177
f 110/140/146 113/141/174 112/139/176
f 115/100/143 111/136/145 117/142/178
f 112/139/176 113/143/174 116/144/179
f 113/143/180 36/27/35 118/145/181
f 117/146/182 114/147/183 119/148/184
f 114/147/185 116/149/186 119/148/187
f 120/150/188 117/146/178 122/151/189
f 116/149/190 118/152/191 121/153/192
f 118/152/193 38/154/38 123/155/194
f 122/156/195 119/157/196 125/158/197
f 119/157/198 121/159/199 125/158/200
f 124/160/201 122/156/189 94/161/202
f 121/162/203 95/163/161 96/164/160
f 123/165/194 22/29/24 95/163/159
f 124/166/201 94/167/202 98/168/163
f 2/1/1 73/34/204 3/2/2
f 73/90/204 4/4/205 3/6/2
f 4/4/4 6/36/7 5/5/5
f 6/7/7 8/86/9 7/8/8
f 8/10/9 10/49/11 9/11/10
f 10/13/11 12/64/13 11/14/12
f 12/16/13 14/45/15 13/17/14
f 14/73/15 16/67/206 15/92/16
f 16/67/206 18/22/69 15/24/16
f 18/25/17 20/57/20 19/26/19
f 29/41/28 72/50/207 73/49/56
f 20/28/20 2/169/21 1/29/21
f 19/33/19 1/170/208 3/171/6
f 3/172/6 5/173/5 7/174/8
f 7/175/8 9/176/10 11/31/12
f 15/32/16 17/177/18 19/178/19
f 19/33/19 3/172/6 7/174/8
f 11/31/12 13/179/14 15/32/16
f 19/33/19 7/174/8 11/31/12
f 21/1/39 23/34/22 22/2/24
f 23/36/22 26/53/26 25/37/25
f 26/38/26 27/52/40 28/39/27
f 27/49/40 29/41/42 28/42/27
f 29/64/28 31/43/53 30/44/29
f 31/45/31 33/103/209 34/46/33
f 33/67/209 35/22/51 34/24/33
f 35/22/34 37/59/37 36/23/35
f 37/25/37 39/57/48 38/26/38
f 39/180/48 21/47/39 38/48/38
f 75/28/157 93/47/210 124/96/211
f 27/49/40 70/88/43 72/50/41
f 26/38/26 67/87/44 70/51/43
f 23/36/22 62/79/45 67/7/44
f 21/1/39 57/77/47 62/54/45
f 21/47/39 39/180/48 52/55/46
f 39/57/48 37/25/37 47/58/49
f 37/59/37 35/22/34 43/60/50
f 35/22/51 33/67/209 41/61/52
f 33/103/209 31/45/31 41/19/52
f 73/181/60 2/169/212 20/28/213
f 41/58/214 40/69/215 42/25/216
f 42/25/68 20/57/217 18/25/69
f 43/60/50 41/61/52 42/60/65
f 47/59/49 43/60/50 42/70/65
f 45/59/76 42/59/218 48/70/77
f 44/60/70 18/22/69 16/67/206
f 52/25/72 47/58/49 46/71/66
f 51/72/74 46/71/66 45/59/67
f 48/60/71 44/61/70 49/67/82
f 44/61/79 16/67/219 14/73/80
f 50/59/88 48/22/220 53/61/89
f 57/56/84 52/55/72 51/75/73
f 56/25/86 51/75/74 50/59/75
f 53/182/83 49/76/82 54/19/92
f 55/59/221 53/67/222 58/66/103
f 54/19/223 14/45/224 12/16/100
f 57/77/84 56/79/85 61/78/94
f 56/79/86 55/80/87 60/80/96
f 60/80/102 55/80/221 58/88/103
f 59/82/99 54/65/223 12/43/100
f 63/83/108 58/52/93 59/49/98
f 62/89/95 61/84/94 65/85/106
f 65/85/106 60/80/225 66/80/226
f 66/80/110 60/80/102 63/51/104
f 64/51/227 59/52/228 8/10/9
f 67/85/44 65/183/106 66/184/226
f 66/185/110 63/87/104 64/51/111
f 68/80/114 64/87/227 8/38/9
f 67/80/44 66/80/226 69/185/113
f 69/80/113 66/80/229 68/184/115
f 71/7/116 68/85/230 6/7/118
f 70/52/43 69/38/113 71/51/116
f 75/34/121 77/90/124 76/35/122
f 77/36/124 79/53/126 78/37/125
f 79/86/126 81/80/155 80/91/127
f 81/52/155 83/10/128 80/12/127
f 83/64/128 85/43/131 84/44/130
f 85/45/131 87/103/133 86/46/132
f 87/73/133 89/67/135 88/92/134
f 89/59/135 91/72/137 90/93/136
f 91/57/137 93/56/139 92/94/138
f 93/47/139 75/28/121 74/30/123
f 82/31/129 84/186/130 86/179/132
f 90/178/136 92/187/138 74/33/123
f 74/33/123 76/172/122 78/174/125
f 78/174/125 80/175/127 82/31/129
f 82/31/129 86/179/132 88/32/134
f 88/32/134 90/178/136 74/33/123
f 74/33/123 78/174/125 82/31/129
f 93/56/140 91/57/231 120/98/141
f 91/72/137 89/59/135 111/99/145
f 89/67/135 87/73/147 110/188/146
f 87/103/147 85/45/149 109/104/148
f 83/41/151 107/189/153 108/190/150
f 81/80/152 102/109/232 107/127/153
f 77/4/156 98/115/158 102/117/154
f 75/1/157 124/166/211 98/168/158
f 99/114/170 95/112/233 24/35/23
f 98/115/163 94/118/202 101/116/164
f 94/118/166 97/191/234 100/119/167
f 100/119/167 97/191/235 96/113/168
f 103/122/169 96/121/160 99/192/162
f 104/125/173 99/123/236 25/37/25
f 101/193/164 100/194/167 103/195/169
f 102/109/165 101/196/164 105/126/172
f 101/196/164 103/197/169 105/198/172
f 105/199/172 103/200/169 104/201/171
f 106/202/237 105/199/172 104/128/171
f 106/203/237 104/128/171 28/39/30
f 107/204/153 105/205/172 106/206/237
f 108/207/150 107/208/153 106/209/237
f 108/129/150 106/209/237 28/42/30
f 108/130/150 30/44/29 32/18/32
f 109/210/148 32/17/32 34/46/33
f 113/135/180 34/24/36 36/23/35
f 117/142/182 111/136/238 114/138/183
f 114/138/185 112/139/239 116/144/186
f 116/144/190 113/143/240 118/145/191
f 120/98/188 115/97/143 117/211/178
f 118/145/193 36/27/35 38/26/38
f 122/151/195 117/146/241 119/148/196
f 119/148/198 116/149/242 121/153/199
f 121/153/203 118/152/243 123/155/244
f 124/96/201 120/95/188 122/212/189
f 94/161/166 122/156/245 125/158/246
f 123/213/194 38/48/38 22/30/24
f 125/214/200 121/162/199 96/164/168
f 121/162/203 123/165/244 95/163/161
f 94/215/166 125/216/246 97/217/234
f 97/217/235 125/216/200 96/218/168
o Cylinder.001
v -0.000000 -0.309332 -0.375000
v -0.000000 -0.311130 -0.369073
v -0.320000 -0.311130 -0.369073
v -0.320000 -0.315918 -0.365144
v -0.000000 -0.320000 -0.364332
v -0.320000 -0.322081 -0.364537
v -0.000000 -0.325927 -0.366130
v -0.320000 -0.329856 -0.370918
v -0.000000 -0.330463 -0.372919
v -0.000000 -0.329856 -0.379082
v -0.320000 -0.329856 -0.379082
v -0.000000 -0.325927 -0.383870
v -0.320000 -0.325927 -0.383870
v -0.320000 -0.320000 -0.385668
v -0.000000 -0.315918 -0.384856
v -0.320000 -0.312457 -0.382543
v -0.000000 -0.311130 -0.380927
v -0.320000 -0.309537 -0.377081
vn -0.9966 0.0804 -0.0154
vn -0.0128 0.4556 0.8901
vn -0.0075 0.9272 0.3746
vn 0.0349 0.6241 0.7806
vn 0.8821 0.4538 0.1263
vn -0.9144 0.3361 0.2257
vn -0.1147 -0.5701 0.8135
vn 0.0947 -0.9333 0.3465
vn 0.9979 -0.0405 0.0512
vn -0.0789 -0.9954 -0.0535
vn -0.9530 0.0460 -0.2994
vn -0.1108 -0.4824 -0.8689
vn -0.9545 -0.2828 -0.0947
vn -0.0906 0.5285 -0.8441
vn -0.1427 0.9761 -0.1640
vn 0.9700 0.1813 0.1617
vn 0.0560 0.9967 0.0586
vn -0.0000 -0.6345 -0.7729
vn -1.0000 -0.0000 -0.0000
vt 0.937500 1.000000
vt 0.906250 0.500000
vt 0.937500 0.500000
vt 0.843750 1.000000
vt 0.812500 0.500000
vt 0.843750 0.500000
vt 0.750000 1.000000
vt 0.718750 0.500000
vt 0.750000 0.500000
vt 0.593750 1.000000
vt 0.562500 0.500000
vt 0.593750 0.500000
vt 0.531250 1.000000
vt 0.500000 0.500000
vt 0.531250 0.500000
vt 0.375000 1.000000
vt 0.343750 0.500000
vt 0.375000 0.500000
vt 0.281250 1.000000
vt 0.250000 0.500000
vt 0.281250 0.500000
vt 0.125000 1.000000
vt 0.093750 0.500000
vt 0.125000 0.500000
vt 0.158156 0.028269
vt 0.471731 0.158156
vt 0.341844 0.471731
vt 0.031250 1.000000
vt 0.000000 0.500000
vt 0.031250 0.500000
vt 0.796822 0.014612
vt 0.514612 0.203178
vt 0.703178 0.485388
vt 0.968750 1.000000
vt 0.906250 1.000000
vt 0.875000 1.000000
vt 0.875000 0.500000
vt 0.812500 1.000000
vt 0.781250 1.000000
vt 0.781250 0.500000
vt 0.656250 1.000000
vt 0.625000 1.000000
vt 0.625000 0.500000
vt 0.500000 1.000000
vt 0.343750 1.000000
vt 0.312500 1.000000
vt 0.312500 0.500000
vt 0.187500 1.000000
vt 0.156250 1.000000
vt 0.156250 0.500000
vt 0.028269 0.158156
vt 0.050447 0.116663
vt 0.080294 0.080294
vt 0.250000 0.490000
vt 0.158156 0.471731
vt 0.028269 0.341844
vt 0.341844 0.028269
vt 0.471731 0.341844
vt 0.062500 1.000000
vt 0.796822 0.485388
vt 0.883337 0.449553
vt 0.985388 0.296822
vt 0.949553 0.116663
vt 0.616663 0.050447
vt 0.550447 0.383337
s 1
f 128/219/247 127/220/248 126/221/249
f 129/222/250 130/223/251 127/224/248
f 131/225/252 132/226/253 130/227/251
f 133/228/254 134/229/255 132/230/253
f 133/231/254 135/232/256 134/233/255
f 136/234/257 137/235/258 135/236/256
f 139/237/259 140/238/260 137/239/258
f 141/240/261 142/241/262 140/242/260
f 136/243/257 131/244/252 128/245/247
f 143/246/263 126/247/249 142/248/262
f 134/249/255 137/250/258 142/251/262
f 143/252/263 128/219/247 126/221/249
f 128/253/247 129/254/250 127/255/248
f 129/256/250 131/257/252 130/258/251
f 131/259/252 133/260/254 132/261/253
f 133/231/254 136/262/257 135/232/256
f 136/234/257 138/263/264 137/235/258
f 138/263/264 139/264/259 137/265/258
f 139/266/259 141/267/261 140/268/260
f 139/269/259 138/270/265 136/271/257
f 128/245/247 143/272/263 141/273/261
f 128/245/247 141/273/261 139/274/259
f 136/243/257 133/275/254 131/244/252
f 131/244/252 129/276/250 128/245/247
f 128/245/247 139/274/259 136/243/257
f 141/277/261 143/246/263 142/248/262
f 142/251/262 126/278/249 127/279/248
f 142/251/262 127/279/248 130/280/251
f 130/280/251 132/281/253 134/249/255
f 134/249/255 135/282/256 137/250/258
f 137/250/258 140/283/260 142/251/262
f 142/251/262 130/280/251 134/249/255
o Cylinder.002
v -0.320000 0.325927 -0.383870
v -0.020000 0.328870 -0.380927
v -0.320000 0.330463 -0.372919
v -0.020000 0.330463 -0.372919
v -0.320000 0.320000 -0.364332
v -0.320000 0.310144 -0.370918
v -0.020000 0.310144 -0.379082
v -0.320000 0.312457 -0.382543
v -0.020000 0.314073 -0.383870
v -0.320000 0.317919 -0.385463
v -0.020000 0.323023 -0.382298
v -0.320000 0.327298 -0.378023
v -0.320000 0.324389 -0.368432
v -0.020000 0.324389 -0.368432
v -0.020000 0.318459 -0.367252
v -0.320000 0.315611 -0.368432
v -0.020000 0.313432 -0.370611
v -0.320000 0.312252 -0.376541
vn -0.0130 -0.0349 -0.9993
vn -0.0043 0.1230 -0.9924
vn -0.0000 0.2902 -0.9570
vn -0.0000 0.8820 -0.4713
vn 0.0742 -0.4488 -0.8905
vn 0.0787 -0.9014 0.4258
vn -0.0000 0.9952 0.0984
vn -0.7307 0.5603 0.3901
vn 0.0535 0.8400 0.5399
vn -0.8215 0.5697 -0.0249
vn -0.0000 0.8228 0.5684
vn 0.0001 0.8654 0.5010
vn -0.0000 0.4714 0.8819
vn -0.0000 -0.0980 0.9952
vn -0.2388 -0.9681 -0.0763
vn 0.2533 0.0159 -0.9673
vn -0.0887 -0.9206 0.3803
vn -0.7481 -0.6636 0.0042
vn 0.1305 -0.9152 0.3813
vn -0.7491 -0.4723 0.4645
vn 0.0016 -0.8234 -0.5675
vn 0.0138 -0.9725 -0.2323
vn 0.0041 -0.5107 -0.8597
vn -0.2184 -0.4269 -0.8775
vn -0.3023 -0.8756 0.3768
vn -0.0000 -0.9568 -0.2906
vn -0.0916 0.0404 -0.9950
vn -0.0000 0.7728 -0.6346
vn 0.1808 -0.5807 -0.7938
vn -0.0000 0.9952 -0.0981
vn -0.0000 0.8819 0.4714
vn -0.0000 0.0980 0.9952
vn 0.0669 0.9973 -0.0308
vn -0.0000 -0.4713 0.8820
vn -0.0000 -0.9952 0.0983
vt 0.968750 1.000000
vt 0.968750 0.500000
vt 0.937500 0.500000
vt 0.843750 1.000000
vt 0.843750 0.500000
vt 0.812500 0.500000
vt 0.750000 1.000000
vt 0.750000 0.500000
vt 0.718750 0.500000
vt 0.687500 1.000000
vt 0.687500 0.500000
vt 0.656250 0.500000
vt 0.593750 1.000000
vt 0.593750 0.500000
vt 0.562500 0.500000
vt 0.500000 1.000000
vt 0.500000 0.500000
vt 0.468750 0.500000
vt 0.343750 1.000000
vt 0.343750 0.500000
vt 0.312500 0.500000
vt 0.312500 1.000000
vt 0.281250 0.500000
vt 0.218750 1.000000
vt 0.218750 0.500000
vt 0.187500 0.500000
vt 0.062500 1.000000
vt 0.062500 0.500000
vt 0.031250 0.500000
vt 0.718750 1.000000
vt 0.531250 0.500000
vt 0.531250 1.000000
vt 0.875000 1.000000
vt 0.781250 1.000000
vt 0.656250 1.000000
vt 0.437500 1.000000
vt 0.406250 0.500000
vt 0.406250 1.000000
vt 0.281250 1.000000
vt 0.250000 0.500000
vt 0.250000 1.000000
vt 0.125000 1.000000
vt 0.093750 0.500000
vt 0.093750 1.000000
vt 0.031250 1.000000
vt 0.000000 0.500000
vt 0.000000 1.000000
vt 0.812500 1.000000
vt 0.468750 1.000000
s 1
f 154/284/266 153/285/267 144/286/268
f 145/287/269 144/288/270 155/289/271
f 147/290/272 155/291/273 146/292/274
f 147/293/272 146/294/274 156/295/275
f 157/296/276 156/297/277 148/298/278
f 158/299/279 148/300/280 159/301/281
f 160/302/282 159/303/283 149/304/284
f 160/305/282 149/304/284 161/306/285
f 150/307/286 161/308/287 151/309/288
f 152/310/289 151/311/288 153/312/267
f 155/289/271 144/288/270 154/287/290
f 156/294/291 155/292/291 147/313/291
f 159/300/281 148/314/280 157/315/292
f 161/304/269 159/303/269 160/302/269
f 154/316/290 144/288/293 145/287/294
f 145/317/295 155/291/295 147/290/295
f 147/293/296 156/295/277 157/318/276
f 157/315/292 148/300/297 158/299/298
f 158/319/299 159/320/299 160/321/299
f 160/322/300 161/323/287 150/324/286
f 150/325/286 151/326/288 152/327/289
f 152/328/289 153/329/267 154/330/266
f 155/289/271 154/287/290 145/331/294
f 159/301/281 157/299/292 158/332/298
f 146/294/274 155/292/273 156/294/275
f 149/304/284 159/303/283 161/304/285
o Cylinder.003
v -0.000000 0.330668 -0.375000
v -0.000000 0.328870 -0.369073
v -0.320000 0.328870 -0.369073
v -0.320000 0.324082 -0.365144
v -0.000000 0.320000 -0.364332
v -0.320000 0.317919 -0.364537
v -0.000000 0.314073 -0.366130
v -0.320000 0.310144 -0.370918
v -0.000000 0.309537 -0.372919
v -0.000000 0.310144 -0.379082
v -0.320000 0.310144 -0.379082
v -0.000000 0.314073 -0.383870
v -0.320000 0.314073 -0.383870
v -0.320000 0.320000 -0.385668
v -0.000000 0.324082 -0.384856
v -0.320000 0.327543 -0.382543
v -0.000000 0.328870 -0.380927
v -0.320000 0.330463 -0.377081
vn -0.9966 0.0804 -0.0154
vn -0.0128 0.4556 0.8901
vn -0.0075 0.9272 0.3746
vn 0.0349 0.6241 0.7806
vn 0.8821 0.4538 0.1263
vn -0.9143 0.3362 0.2258
vn -0.1147 -0.5701 0.8135
vn 0.0947 -0.9333 0.3465
vn 0.9979 -0.0405 0.0512
vn -0.0789 -0.9954 -0.0535
vn -0.9530 0.0460 -0.2994
vn -0.1108 -0.4809 -0.8697
vn -0.9545 -0.2828 -0.0947
vn -0.0906 0.5285 -0.8441
vn -0.1427 0.9761 -0.1640
vn 0.9700 0.1813 0.1617
vn 0.0560 0.9967 0.0586
vn 0.0001 -0.6345 -0.7729
vn -1.0000 -0.0000 -0.0000
vt 0.937500 1.000000
vt 0.906250 0.500000
vt 0.937500 0.500000
vt 0.843750 1.000000
vt 0.812500 0.500000
vt 0.843750 0.500000
vt 0.750000 1.000000
vt 0.718750 0.500000
vt 0.750000 0.500000
vt 0.593750 1.000000
vt 0.562500 0.500000
vt 0.593750 0.500000
vt 0.531250 1.000000
vt 0.500000 0.500000
vt 0.531250 0.500000
vt 0.375000 1.000000
vt 0.343750 0.500000
vt 0.375000 0.500000
vt 0.281250 1.000000
vt 0.250000 0.500000
vt 0.281250 0.500000
vt 0.125000 1.000000
vt 0.093750 0.500000
vt 0.125000 0.500000
vt 0.158156 0.028269
vt 0.471731 0.158156
vt 0.341844 0.471731
vt 0.031250 1.000000
vt 0.000000 0.500000
vt 0.031250 0.500000
vt 0.796822 0.014612
vt 0.514612 0.203178
vt 0.703178 0.485388
vt 0.968750 1.000000
vt 0.906250 1.000000
vt 0.875000 1.000000
vt 0.875000 0.500000
vt 0.812500 1.000000
vt 0.781250 1.000000
vt 0.781250 0.500000
vt 0.656250 1.000000
vt 0.625000 1.000000
vt 0.625000 0.500000
vt 0.500000 1.000000
vt 0.343750 1.000000
vt 0.312500 1.000000
vt 0.312500 0.500000
vt 0.187500 1.000000
vt 0.156250 1.000000
vt 0.156250 0.500000
vt 0.028269 0.158156
vt 0.050447 0.116663
vt 0.080294 0.080294
vt 0.250000 0.490000
vt 0.158156 0.471731
vt 0.028269 0.341844
vt 0.341844 0.028269
vt 0.471731 0.341844
vt 0.062500 1.000000
vt 0.796822 0.485388
vt 0.883337 0.449553
vt 0.985388 0.296822
vt 0.949553 0.116663
vt 0.616663 0.050447
vt 0.550447 0.383337
s 1
f 164/333/301 163/334/302 162/335/303
f 165/336/304 166/337/305 163/338/302
f 167/339/306 168/340/307 166/341/305
f 169/342/308 170/343/309 168/344/307
f 169/345/308 171/346/310 170/347/309
f 172/348/311 173/349/312 171/350/310
f 175/351/313 176/352/314 173/353/312
f 177/354/315 178/355/316 176/356/314
f 172/357/311 167/358/306 164/359/301
f 179/360/317 162/361/303 178/362/316
f 170/363/309 173/364/312 178/365/316
f 179/366/317 164/333/301 162/335/303
f 164/367/301 165/368/304 163/369/302
f 165/370/304 167/371/306 166/372/305
f 167/373/306 169/374/308 168/375/307
f 169/345/308 172/376/311 171/346/310
f 172/348/311 174/377/318 173/349/312
f 174/377/318 175/378/313 173/379/312
f 175/380/313 177/381/315 176/382/314
f 175/383/313 174/384/319 172/385/311
f 164/359/301 179/386/317 177/387/315
f 164/359/301 177/387/315 175/388/313
f 172/357/311 169/389/308 167/358/306
f 167/358/306 165/390/304 164/359/301
f 164/359/301 175/388/313 172/357/311
f 177/391/315 179/360/317 178/362/316
f 178/365/316 162/392/303 163/393/302
f 178/365/316 163/393/302 166/394/305
f 166/394/305 168/395/307 170/363/309
f 170/363/309 171/396/310 173/364/312
f 173/364/312 176/397/314 178/365/316
f 178/365/316 166/394/305 170/363/309
o Cylinder.004
v -0.002081 0.320000 -0.465463
v -0.002081 -0.320000 -0.465463
v -0.008870 0.320000 -0.460927
v -0.008870 -0.320000 -0.460927
v -0.010668 0.320000 -0.455000
v -0.010668 -0.320000 -0.455000
v -0.008870 0.320000 -0.449073
v -0.008870 -0.320000 -0.449073
v -0.002081 -0.320000 -0.444537
v -0.000000 0.320000 -0.444332
v 0.004082 -0.320000 -0.445144
v 0.005927 0.320000 -0.446130
v 0.009856 0.320000 -0.450918
v 0.009856 -0.320000 -0.450918
v 0.010463 0.320000 -0.457081
v 0.009856 -0.320000 -0.459082
v 0.007543 0.320000 -0.462543
v 0.004082 -0.320000 -0.464856
vn -0.7924 0.1020 -0.6015
vn -0.7124 -0.0706 -0.6983
vn -0.0029 0.9985 -0.0543
vn -0.0447 0.9889 -0.1418
vn -0.1116 -0.9041 0.4126
vn -0.7731 -0.0885 0.6280
vn -0.4885 0.0070 0.8725
vn 0.1461 0.9868 0.0697
vn 0.2031 -0.9791 -0.0135
vn 0.8020 0.3477 0.4857
vn 0.9187 0.0670 0.3893
vn 0.9569 -0.0011 0.2903
vn 0.8819 -0.0000 0.4714
vn 0.1664 0.9306 0.3260
vn 0.2385 -0.9345 0.2643
vn 0.8119 -0.0907 -0.5767
vn 0.0944 -0.9939 -0.0577
vn 0.5033 0.0782 -0.8606
vn 0.3919 -0.8891 0.2366
vn -0.0000 1.0000 -0.0000
vt 0.906250 1.000000
vt 0.875000 0.500000
vt 0.906250 0.500000
vt 0.843750 1.000000
vt 0.812500 0.500000
vt 0.843750 0.500000
vt 0.687500 1.000000
vt 0.656250 0.500000
vt 0.687500 0.500000
vt 0.593750 1.000000
vt 0.562500 0.500000
vt 0.593750 0.500000
vt 0.437500 1.000000
vt 0.406250 0.500000
vt 0.437500 0.500000
vt 0.343750 1.000000
vt 0.312500 0.500000
vt 0.343750 0.500000
vt 0.312500 1.000000
vt 0.281250 0.500000
vt 0.218750 1.000000
vt 0.187500 0.500000
vt 0.218750 0.500000
vt 0.158156 0.028269
vt 0.471731 0.158156
vt 0.341844 0.471731
vt 0.062500 1.000000
vt 0.031250 0.500000
vt 0.062500 0.500000
vt 0.796822 0.014612
vt 0.514612 0.203178
vt 0.703178 0.485388
vt 0.937500 1.000000
vt 0.781250 1.000000
vt 0.750000 1.000000
vt 0.750000 0.500000
vt 0.656250 1.000000
vt 0.562500 1.000000
vt 0.468750 1.000000
vt 0.375000 1.000000
vt 0.281250 1.000000
vt 0.250000 1.000000
vt 0.250000 0.500000
vt 0.156250 1.000000
vt 0.125000 1.000000
vt 0.125000 0.500000
vt 0.341844 0.028269
vt 0.419706 0.080294
vt 0.158156 0.471731
vt 0.028269 0.341844
vt 0.028269 0.158156
vt 0.471731 0.341844
vt 0.031250 1.000000
vt 0.550447 0.116663
vt 0.528269 0.158156
vt 0.883337 0.449553
vt 0.949553 0.383337
vt 0.985388 0.296822
vt 0.949553 0.116663
vt 0.616663 0.050447
vt 0.550447 0.383337
s 1
f 183/398/320 182/399/321 180/400/322
f 183/401/320 184/402/323 182/403/321
f 185/404/324 186/405/325 184/406/323
f 187/407/326 189/408/327 186/409/325
f 190/410/328 191/411/329 189/412/327
f 193/413/330 192/414/331 191/415/332
f 193/416/330 194/417/333 192/414/331
f 195/418/334 196/419/335 194/420/333
f 190/421/328 185/422/324 181/423/336
f 197/424/337 180/425/322 196/426/335
f 189/427/327 194/428/333 180/429/322
f 181/430/336 183/398/320 180/400/322
f 183/431/320 185/432/324 184/433/323
f 185/404/324 187/434/326 186/405/325
f 187/407/326 188/435/338 189/408/327
f 188/436/338 190/410/328 189/412/327
f 190/437/328 193/413/330 191/415/329
f 193/438/330 195/439/334 194/440/333
f 195/441/334 197/442/337 196/443/335
f 188/444/338 187/445/326 185/422/324
f 181/423/336 197/446/337 195/447/334
f 195/447/334 193/448/330 190/421/328
f 190/421/328 188/444/338 185/422/324
f 185/422/324 183/449/320 181/423/336
f 181/423/336 195/447/334 190/421/328
f 197/424/337 181/450/336 180/425/322
f 191/451/329 192/452/339 194/428/333
f 180/453/322 182/454/321 184/455/323
f 184/455/323 186/456/325 189/427/327
f 189/427/327 191/457/329 194/428/333
f 194/428/333 196/458/335 180/429/322
f 180/429/322 184/455/323 189/427/327
o Plane
v 0.001210 -0.321754 -1.097381
v 0.001210 -0.321754 -0.457381
v 0.001210 0.318246 -1.097381
v 0.001210 0.318246 -0.457381
v -0.001290 0.318246 -1.097381
v -0.001290 -0.321754 -1.097381
v -0.001290 -0.321754 -0.457381
v -0.001290 0.318246 -0.457381
v 0.003710 0.318246 -1.097381
v 0.003710 -0.321754 -1.097381
v 0.003710 -0.321754 -0.457381
v 0.003710 0.318246 -0.457381
v -0.001290 -0.202069 -0.892849
v -0.001290 -0.214243 -0.891650
v -0.001290 -0.189895 -0.891650
v -0.001290 -0.236737 -0.882333
v -0.001290 -0.167401 -0.882333
v -0.001290 -0.225948 -0.888099
v -0.001290 -0.178190 -0.888099
v -0.001290 -0.253953 -0.865117
v -0.001290 -0.150185 -0.865117
v -0.001290 -0.263270 -0.842623
v -0.001290 -0.140868 -0.842623
v -0.001290 -0.259719 -0.854328
v -0.001290 -0.144419 -0.854328
v -0.001290 -0.264469 -0.830449
v -0.001290 -0.246192 -0.874572
v -0.001290 -0.157946 -0.874572
v -0.001290 -0.263270 -0.818275
v -0.001290 -0.140868 -0.818275
v -0.001290 -0.253953 -0.795781
v -0.001290 -0.150185 -0.795781
v -0.001290 -0.259719 -0.806570
v -0.001290 -0.144419 -0.806570
v -0.001290 -0.236737 -0.778565
v -0.001290 -0.167401 -0.778565
v -0.001290 -0.202069 -0.768049
v -0.001290 -0.214243 -0.769248
v -0.001290 -0.189895 -0.769248
v -0.001290 -0.225948 -0.772799
v -0.001290 -0.178190 -0.772799
v -0.001290 -0.246192 -0.786325
v -0.001290 -0.157946 -0.786325
v -0.001290 -0.139669 -0.830449
v 0.003710 -0.202069 -0.892849
v 0.003710 -0.214243 -0.891650
v 0.003710 -0.189895 -0.891650
v 0.003710 -0.236737 -0.882333
v 0.003710 -0.167401 -0.882333
v 0.003710 -0.225948 -0.888099
v 0.003710 -0.178190 -0.888099
v 0.003710 -0.253953 -0.865117
v 0.003710 -0.150185 -0.865117
v 0.003710 -0.263270 -0.842623
v 0.003710 -0.140868 -0.842623
v 0.003710 -0.259719 -0.854328
v 0.003710 -0.144419 -0.854328
v 0.003710 -0.264469 -0.830449
v 0.003710 -0.246192 -0.874572
v 0.003710 -0.157946 -0.874572
v 0.003710 -0.263270 -0.818275
v 0.003710 -0.140868 -0.818275
v 0.003710 -0.253953 -0.795781
v 0.003710 -0.150185 -0.795781
v 0.003710 -0.259719 -0.806570
v 0.003710 -0.144419 -0.806570
v 0.003710 -0.236737 -0.778565
v 0.003710 -0.167401 -0.778565
v 0.003710 -0.202069 -0.768049
v 0.003710 -0.214243 -0.769248
v 0.003710 -0.189895 -0.769248
v 0.003710 -0.225948 -0.772799
v 0.003710 -0.178190 -0.772799
v 0.003710 -0.246192 -0.786325
v 0.003710 -0.157946 -0.786325
v 0.003710 -0.139669 -0.830449
v -0.001290 0.156500 -0.541507
v -0.001290 0.179483 -0.513503
v -0.001290 0.170027 -0.521263
v -0.001290 0.162267 -0.530719
v -0.001290 0.214150 -0.502986
v -0.001290 0.226324 -0.504185
v -0.001290 0.190271 -0.507736
v -0.001290 0.201977 -0.504185
v -0.001290 0.214150 -0.627786
v -0.001290 0.201977 -0.626587
v -0.001290 0.226324 -0.626587
v -0.001290 0.179483 -0.617270
v -0.001290 0.248818 -0.617270
v -0.001290 0.170027 -0.609510
v -0.001290 0.190271 -0.623036
v -0.001290 0.238030 -0.623036
v -0.001290 0.258274 -0.609510
v -0.001290 0.266034 -0.600054
v -0.001290 0.275351 -0.577560
v -0.001290 0.271801 -0.589266
v -0.001290 0.271801 -0.541507
v -0.001290 0.275351 -0.553213
v -0.001290 0.258274 -0.521263
v -0.001290 0.266034 -0.530719
v -0.001290 0.276550 -0.565386
v -0.001290 0.152949 -0.553213
v -0.001290 0.238030 -0.507736
v -0.001290 0.151750 -0.565386
v -0.001290 0.162267 -0.600054
v -0.001290 0.152949 -0.577560
v -0.001290 0.154079 -0.581283
v -0.001290 0.156500 -0.589266
v -0.001290 0.248818 -0.513503
v 0.003710 0.214150 -0.627786
v 0.003710 0.201977 -0.626587
v 0.003710 0.226324 -0.626587
v 0.003710 0.179483 -0.617270
v 0.003710 0.248818 -0.617270
v 0.003710 0.170027 -0.609510
v 0.003710 0.190271 -0.623036
v 0.003710 0.238030 -0.623036
v 0.003710 0.258274 -0.609510
v 0.003710 0.266034 -0.600054
v 0.003710 0.275351 -0.577560
v 0.003710 0.271801 -0.589266
v 0.003710 0.271801 -0.541507
v 0.003710 0.275351 -0.553213
v 0.003710 0.258274 -0.521263
v 0.003710 0.266034 -0.530719
v 0.003710 0.276550 -0.565386
v 0.003710 0.156500 -0.541507
v 0.003710 0.179483 -0.513503
v 0.003710 0.170027 -0.521263
v 0.003710 0.162267 -0.530719
v 0.003710 0.214150 -0.502986
v 0.003710 0.226324 -0.504185
v 0.003710 0.190271 -0.507736
v 0.003710 0.201977 -0.504185
v 0.003710 0.152949 -0.553213
v 0.003710 0.238030 -0.507736
v 0.003710 0.151750 -0.565386
v 0.003710 0.162267 -0.600054
v 0.003710 0.152949 -0.577560
v 0.003710 0.154079 -0.581283
v 0.003710 0.248818 -0.513503
v 0.003710 0.156500 -0.589266
v -0.001290 0.020603 -0.635649
v -0.001290 0.029195 -0.631057
v -0.001290 0.036726 -0.624876
v -0.001290 0.011279 -0.638478
v -0.001290 0.042907 -0.617344
v -0.001290 0.047614 -0.608376
v -0.001290 0.047500 -0.608752
v -0.001290 0.001583 -0.639433
v -0.001290 0.049864 -0.600959
v -0.001290 -0.008113 -0.638478
v -0.001290 0.050328 -0.599429
v -0.001290 -0.026029 -0.631057
v -0.001290 -0.017436 -0.635649
v -0.001290 -0.033560 -0.624876
v -0.001290 -0.044334 -0.608752
v -0.001290 -0.039741 -0.617344
v -0.001290 -0.047162 -0.580037
v -0.001290 0.050328 -0.580037
v -0.001290 -0.048117 -0.589733
v -0.001290 0.051283 -0.589733
v -0.001290 -0.047162 -0.599429
v -0.001290 0.042907 -0.562121
v -0.001290 -0.033560 -0.554589
v -0.001290 -0.039741 -0.562121
v -0.001290 0.036726 -0.554589
v -0.001290 -0.017436 -0.543816
v -0.001290 0.020603 -0.543816
v -0.001290 0.001583 -0.540033
v -0.001290 -0.008113 -0.540988
v -0.001290 0.011279 -0.540988
v -0.001290 -0.026029 -0.548409
v -0.001290 0.029195 -0.548409
v -0.001290 0.047500 -0.570713
v -0.001290 -0.044334 -0.570713
v 0.003710 0.001583 -0.639433
v 0.003710 -0.008113 -0.638478
v 0.003710 0.011279 -0.638478
v 0.003710 -0.017436 -0.635649
v 0.003710 0.029195 -0.631057
v 0.003710 -0.026029 -0.631057
v 0.003710 0.020603 -0.635649
v 0.003710 -0.033560 -0.624876
v 0.003710 -0.044334 -0.608752
v 0.003710 0.047500 -0.608752
v 0.003710 -0.039741 -0.617344
v 0.003710 0.042907 -0.617344
v 0.003710 -0.047162 -0.599429
v 0.003710 0.036726 -0.624876
v 0.003710 0.051283 -0.589733
v 0.003710 -0.048117 -0.589733
v 0.003710 -0.044334 -0.570713
v 0.003710 0.047500 -0.570713
v 0.003710 -0.047162 -0.580037
v 0.003710 0.050328 -0.580037
v 0.003710 -0.033560 -0.554589
v 0.003710 0.036726 -0.554589
v 0.003710 -0.008113 -0.540988
v 0.003710 -0.026029 -0.548409
v 0.003710 -0.017436 -0.543816
v 0.003710 -0.039741 -0.562121
v 0.003710 0.029831 -0.548930
v 0.003710 0.042907 -0.562121
v 0.003710 0.050328 -0.599429
v 0.003710 0.029195 -0.548409
v 0.003710 0.001583 -0.540033
v 0.003710 0.020603 -0.543816
v 0.003710 0.011279 -0.540988
v -0.001290 0.009647 -1.014678
v -0.001290 -0.000049 -1.013723
v -0.001290 0.019343 -1.013723
v -0.001290 -0.009372 -1.010895
v -0.001290 0.028667 -1.010895
v -0.001290 -0.017965 -1.006302
v -0.001290 0.037259 -1.006302
v -0.001290 -0.025496 -1.000121
v -0.001290 0.044790 -1.000121
v -0.001290 -0.036270 -0.983998
v -0.001290 -0.040053 -0.964978
v -0.001290 -0.039098 -0.974674
v -0.001290 -0.031677 -0.992590
v -0.001290 0.050971 -0.992590
v -0.001290 -0.039098 -0.955282
v -0.001290 0.055564 -0.983998
v -0.001290 -0.036270 -0.945959
v -0.001290 -0.031677 -0.937366
v -0.001290 -0.033606 -0.940977
v -0.001290 -0.029475 -0.934683
v -0.001290 0.058392 -0.974674
v -0.001290 -0.025496 -0.929835
v -0.001290 0.059347 -0.964978
v -0.001290 -0.017965 -0.923654
v -0.001290 0.058392 -0.955282
v -0.001290 -0.009372 -0.919061
v -0.001290 0.055564 -0.945959
v -0.001290 -0.000049 -0.916233
v -0.001290 0.050971 -0.937366
v -0.001290 0.019343 -0.916233
v -0.001290 0.009647 -0.915278
v -0.001290 0.044790 -0.929835
v -0.001290 0.037259 -0.923654
v -0.001290 0.028667 -0.919061
v 0.003710 0.009647 -1.014678
v 0.003710 -0.000049 -1.013723
v 0.003710 0.019343 -1.013723
v 0.003710 -0.009372 -1.010895
v 0.003710 0.037259 -1.006302
v 0.003710 -0.017965 -1.006302
v 0.003710 0.028667 -1.010895
v 0.003710 -0.031677 -0.992590
v 0.003710 -0.025496 -1.000121
v 0.003710 -0.039098 -0.974674
v 0.003710 -0.040053 -0.964978
v 0.003710 -0.036270 -0.983998
v 0.003710 0.044790 -1.000121
v 0.003710 0.050971 -0.992590
v 0.003710 -0.039098 -0.955282
v 0.003710 0.055564 -0.983998
v 0.003710 -0.036270 -0.945959
v 0.003710 -0.031677 -0.937366
v 0.003710 -0.033595 -0.940955
v 0.003710 -0.029475 -0.934683
v 0.003710 0.058392 -0.974674
v 0.003710 -0.025496 -0.929835
v 0.003710 0.059347 -0.964978
v 0.003710 -0.017965 -0.923654
v 0.003710 0.058392 -0.955282
v 0.003710 -0.009372 -0.919061
v 0.003710 0.055564 -0.945959
v 0.003710 -0.000049 -0.916233
v 0.003710 0.050971 -0.937366
v 0.003710 0.019343 -0.916233
v 0.003710 0.009647 -0.915278
v 0.003710 0.044790 -0.929835
v 0.003710 0.037259 -0.923654
v 0.003710 0.028667 -0.919061
vn -0.0000 1.0000 -0.0000
vn -1.0000 -0.0000 -0.0000
vn -0.0000 -1.0000 -0.0000
vn -0.0000 -0.0000 1.0000
vn -0.0000 -0.0000 -1.0000
vn 1.0000 -0.0000 -0.0000
vn -0.0000 -0.9952 -0.0980
vn -0.0000 -0.9569 -0.2903
vn -0.0000 -0.8819 -0.4714
vn -0.0000 -0.7730 -0.6344
vn -0.0000 -0.6344 -0.7730
vn -0.0000 -0.4714 -0.8819
vn -0.0000 -0.2903 -0.9569
vn -0.0000 -0.0980 -0.9952
vn -0.0000 0.0980 -0.9952
vn -0.0000 0.2903 -0.9569
vn -0.0000 0.4714 -0.8819
vn -0.0000 0.6344 -0.7730
vn -0.0000 0.7730 -0.6344
vn -0.0000 0.8819 -0.4714
vn -0.0000 0.9569 -0.2903
vn -0.0000 0.9952 -0.0980
vn -0.0000 0.9952 0.0980
vn -0.0000 0.9569 0.2903
vn -0.0000 0.8819 0.4714
vn -0.0000 0.7730 0.6344
vn -0.0000 0.6344 0.7730
vn -0.0000 0.4714 0.8819
vn -0.0000 0.2903 0.9569
vn -0.0000 0.0980 0.9952
vn -0.0000 -0.0980 0.9952
vn -0.0000 -0.2903 0.9569
vn -0.0000 -0.4714 0.8819
vn -0.0000 -0.6344 0.7730
vn -0.0000 -0.7730 0.6344
vn -0.0000 -0.8819 0.4714
vn -0.0000 -0.9569 0.2903
vn -0.0000 -0.9952 0.0980
vt 1.000000 1.000000
vt 0.000000 1.000000
vt 0.000000 0.000000
vt 1.000000 0.000000
vt 0.417081 0.089508
vt 0.250023 0.582383
vt 0.261791 0.572726
vt 0.250023 0.453246
vt 0.348138 0.255951
vt 0.254215 0.456686
vt 0.900185 0.768408
vt 0.864946 0.534932
vt 0.869365 0.520364
vt 0.775659 0.580653
vt 0.868553 0.747272
vt 0.764070 0.577138
vt 0.793930 0.747272
vt 0.278624 0.488097
vt 0.283043 0.502664
vt 0.244415 0.450249
vt 0.250023 0.453246
vt 0.362913 0.268076
vt 0.808351 0.429050
vt 0.822918 0.433469
vt 0.806403 0.743489
vt 0.836344 0.569783
vt 0.822918 0.576959
vt 0.968750 0.718686
vt 1.000000 0.717436
vt 0.968750 0.717436
vt 0.937500 0.718686
vt 0.937500 0.717436
vt 0.906250 0.718686
vt 0.906250 0.717436
vt 0.875000 0.718686
vt 0.875000 0.717436
vt 0.843750 0.717436
vt 0.843750 0.718686
vt 0.812500 0.717436
vt 0.812500 0.718686
vt 0.781250 0.717436
vt 0.781250 0.718686
vt 0.750000 0.717436
vt 0.750000 0.718686
vt 0.718750 0.717436
vt 0.718750 0.718686
vt 0.687500 0.717436
vt 0.687500 0.718686
vt 0.656250 0.717436
vt 0.656250 0.718686
vt 0.625000 0.717436
vt 0.625000 0.718686
vt 0.593750 0.717436
vt 0.593750 0.718686
vt 0.562500 0.717436
vt 0.562500 0.718686
vt 0.531250 0.717436
vt 0.531250 0.718686
vt 0.500000 0.717436
vt 0.500000 0.718686
vt 0.468750 0.717436
vt 0.468750 0.718686
vt 0.437500 0.717436
vt 0.437500 0.718686
vt 0.406250 0.717436
vt 0.406250 0.718686
vt 0.375000 0.717436
vt 0.375000 0.718686
vt 0.343750 0.718686
vt 0.343750 0.717436
vt 0.312500 0.718686
vt 0.312500 0.717436
vt 0.281250 0.718686
vt 0.281250 0.717436
vt 0.250000 0.718686
vt 0.250000 0.717436
vt 0.218750 0.718686
vt 0.218750 0.717436
vt 0.187500 0.718686
vt 0.187500 0.717436
vt 0.156250 0.718686
vt 0.156250 0.717436
vt 0.125000 0.718686
vt 0.125000 0.717436
vt 0.093750 0.718686
vt 0.093750 0.717436
vt 0.062500 0.718686
vt 0.062500 0.717436
vt 0.031250 0.718686
vt 0.031250 0.717436
vt 0.000000 0.718686
vt 0.000000 0.717436
vt 0.937500 0.718686
vt 0.906250 0.718686
vt 0.906250 0.717436
vt 0.875000 0.718686
vt 0.875000 0.717436
vt 0.687500 0.717436
vt 0.625000 0.718686
vt 0.562500 0.718686
vt 0.531250 0.718686
vt 0.500000 0.718686
vt 0.468750 0.717436
vt 0.458810 0.717436
vt 0.458810 0.718686
vt 0.437500 0.718686
vt 0.375000 0.718686
vt 0.312500 0.718686
vt 0.312500 0.717436
vt 0.156250 0.718686
vt 0.125000 0.718686
vt 0.125000 0.717436
vt 0.093750 0.717436
vt 0.031250 0.718686
vt 0.968750 0.710080
vt 1.000000 0.708830
vt 0.968750 0.708830
vt 0.937500 0.710080
vt 0.937500 0.708830
vt 0.906250 0.710080
vt 0.906250 0.708830
vt 0.875000 0.710080
vt 0.875000 0.708830
vt 0.843750 0.710080
vt 0.846388 0.708830
vt 0.812500 0.708830
vt 0.812500 0.710080
vt 0.781250 0.708830
vt 0.781250 0.710080
vt 0.750000 0.708830
vt 0.750000 0.710080
vt 0.718750 0.708830
vt 0.718750 0.710080
vt 0.687500 0.708830
vt 0.687500 0.710080
vt 0.656250 0.708830
vt 0.656250 0.710080
vt 0.625000 0.708830
vt 0.625000 0.710080
vt 0.593750 0.708830
vt 0.593750 0.710080
vt 0.562500 0.708830
vt 0.562500 0.710080
vt 0.531250 0.708830
vt 0.531250 0.710080
vt 0.500000 0.708830
vt 0.500000 0.710080
vt 0.468750 0.708830
vt 0.468750 0.710080
vt 0.437500 0.708830
vt 0.437500 0.710080
vt 0.406250 0.708830
vt 0.406250 0.710080
vt 0.375000 0.708830
vt 0.375000 0.710080
vt 0.343750 0.710080
vt 0.343750 0.708830
vt 0.312500 0.710080
vt 0.312500 0.708830
vt 0.281250 0.710080
vt 0.281250 0.708830
vt 0.250000 0.710080
vt 0.250000 0.708830
vt 0.218750 0.710080
vt 0.218750 0.708830
vt 0.187500 0.710080
vt 0.187500 0.708830
vt 0.156250 0.710080
vt 0.156250 0.708830
vt 0.125000 0.710080
vt 0.125000 0.708830
vt 0.093750 0.710080
vt 0.093750 0.708830
vt 0.062500 0.710080
vt 0.062500 0.708830
vt 0.031250 0.708830
vt 0.036379 0.710080
vt 0.061241 0.710080
vt 0.000000 0.710080
vt 0.000000 0.708830
vt 0.937500 0.710080
vt 0.937500 0.708830
vt 0.843750 0.708830
vt 0.656250 0.710080
vt 0.604882 0.710080
vt 0.604882 0.708830
vt 0.580620 0.710080
vt 0.580698 0.708830
vt 0.375000 0.710080
vt 0.031250 0.710080
vt 0.336013 0.132840
vt 0.327003 0.149696
vt 0.507160 0.149696
vt 0.498150 0.132840
vt 0.486024 0.118065
vt 0.348138 0.118065
vt 0.362913 0.105940
vt 0.471249 0.105940
vt 0.454393 0.096930
vt 0.379770 0.096930
vt 0.398060 0.091381
vt 0.436103 0.091381
vt 0.885410 0.918419
vt 0.900185 0.906294
vt 0.321455 0.167987
vt 0.319581 0.187008
vt 0.868553 0.927429
vt 0.850263 0.932977
vt 0.321455 0.206029
vt 0.327003 0.224319
vt 0.831242 0.934851
vt 0.812221 0.932978
vt 0.336013 0.241176
vt 0.244382 0.450231
vt 0.236597 0.446069
vt 0.793930 0.927429
vt 0.222029 0.441650
vt 0.777074 0.918419
vt 0.762299 0.906294
vt 0.206879 0.440158
vt 0.191729 0.441651
vt 0.750174 0.891519
vt 0.741163 0.874662
vt 0.177162 0.446069
vt 0.163736 0.453246
vt 0.735615 0.856372
vt 0.733742 0.837351
vt 0.151968 0.462903
vt 0.142311 0.474671
vt 0.735615 0.818329
vt 0.741164 0.800039
vt 0.135134 0.488097
vt 0.130715 0.502665
vt 0.750173 0.783183
vt 0.762299 0.768408
vt 0.129223 0.517815
vt 0.777074 0.756283
vt 0.471249 0.268076
vt 0.806403 0.743489
vt 0.130715 0.532964
vt 0.135134 0.547532
vt 0.454393 0.277086
vt 0.142311 0.560958
vt 0.151968 0.572726
vt 0.362913 0.268076
vt 0.379770 0.277086
vt 0.261791 0.462903
vt 0.398060 0.282634
vt 0.271448 0.474671
vt 0.417081 0.284508
vt 0.278624 0.488097
vt 0.436103 0.282634
vt 0.283044 0.502665
vt 0.163736 0.582383
vt 0.177162 0.589560
vt 0.284536 0.517815
vt 0.191729 0.593979
vt 0.206879 0.595471
vt 0.283043 0.532964
vt 0.278624 0.547532
vt 0.222029 0.593979
vt 0.236597 0.589559
vt 0.271448 0.560958
vt 0.763483 0.576959
vt 0.850263 0.741724
vt 0.750057 0.569783
vt 0.831242 0.739851
vt 0.738289 0.560126
vt 0.812220 0.741724
vt 0.728632 0.548358
vt 0.486024 0.255951
vt 0.498150 0.241176
vt 0.721455 0.534932
vt 0.507160 0.224319
vt 0.717037 0.520364
vt 0.512708 0.206029
vt 0.715544 0.505214
vt 0.514581 0.187008
vt 0.717036 0.490064
vt 0.512708 0.167987
vt 0.721456 0.475497
vt 0.912310 0.891519
vt 0.921320 0.874662
vt 0.728632 0.462071
vt 0.738289 0.450303
vt 0.926868 0.856372
vt 0.928742 0.837351
vt 0.750057 0.440646
vt 0.926868 0.818330
vt 0.763483 0.433469
vt 0.778051 0.429050
vt 0.921320 0.800039
vt 0.912310 0.783183
vt 0.793201 0.427558
vt 0.808350 0.429050
vt 0.885410 0.756282
vt 0.778051 0.581378
vt 0.822918 0.433469
vt 0.836344 0.440645
vt 0.793201 0.582871
vt 0.808351 0.581378
vt 0.848112 0.450303
vt 0.857769 0.462071
vt 0.822918 0.576959
vt 0.836344 0.569783
vt 0.864946 0.475497
vt 0.869365 0.490064
vt 0.848112 0.560126
vt 0.857769 0.548358
vt 0.870857 0.505214
vt 0.348138 0.255951
vt 0.236597 0.446070
vt 0.222029 0.441650
vt 0.206879 0.440158
vt 0.191729 0.441650
vt 0.900184 0.906294
vt 0.868553 0.927429
vt 0.177162 0.446069
vt 0.850263 0.932977
vt 0.831242 0.934851
vt 0.163736 0.453246
vt 0.151968 0.462903
vt 0.812220 0.932977
vt 0.142311 0.474671
vt 0.135134 0.488097
vt 0.793930 0.927429
vt 0.777074 0.918419
vt 0.130715 0.502665
vt 0.129223 0.517814
vt 0.762299 0.906294
vt 0.750174 0.891519
vt 0.130715 0.532964
vt 0.741163 0.874662
vt 0.735615 0.856372
vt 0.135134 0.547532
vt 0.142311 0.560958
vt 0.733742 0.837351
vt 0.735615 0.818329
vt 0.163736 0.582383
vt 0.741164 0.800039
vt 0.750174 0.783183
vt 0.177162 0.589560
vt 0.191729 0.593979
vt 0.762299 0.768408
vt 0.777074 0.756283
vt 0.206879 0.595471
vt 0.222029 0.593979
vt 0.454393 0.277086
vt 0.236597 0.589559
vt 0.436103 0.282634
vt 0.417081 0.284508
vt 0.250023 0.582383
vt 0.261791 0.572726
vt 0.254215 0.456686
vt 0.271448 0.560958
vt 0.278624 0.547532
vt 0.261791 0.462903
vt 0.283043 0.532964
vt 0.271448 0.474671
vt 0.912310 0.891519
vt 0.921320 0.874663
vt 0.926868 0.856372
vt 0.512708 0.206029
vt 0.928742 0.837351
vt 0.926868 0.818329
vt 0.921320 0.800039
vt 0.793201 0.582871
vt 0.778051 0.581378
vt 0.763483 0.576959
vt 0.912310 0.783183
vt 0.750057 0.569783
vt 0.738289 0.560126
vt 0.868554 0.747273
vt 0.728632 0.548358
vt 0.850263 0.741724
vt 0.856955 0.549351
vt 0.812221 0.741724
vt 0.831242 0.739851
vt 0.721456 0.534932
vt 0.717036 0.520364
vt 0.857769 0.548358
vt 0.864945 0.534932
vt 0.715544 0.505214
vt 0.717036 0.490064
vt 0.869365 0.520364
vt 0.721456 0.475497
vt 0.728632 0.462071
vt 0.870857 0.505214
vt 0.869365 0.490064
vt 0.738289 0.450303
vt 0.864946 0.475497
vt 0.857770 0.462071
vt 0.750057 0.440646
vt 0.763483 0.433469
vt 0.848112 0.450303
vt 0.836344 0.440645
vt 0.778051 0.429050
vt 0.808351 0.581378
vt 0.848112 0.560126
vt 0.498150 0.132840
vt 0.348138 0.118065
vt 0.486024 0.118065
vt 0.471249 0.105940
vt 0.362913 0.105940
vt 0.379770 0.096930
vt 0.398060 0.091381
vt 1.000000 0.718686
vt 1.000000 0.718686
vt 1.000000 0.710080
vt 0.593750 0.710080
s 0
f 201/459/340 206/460/340 200/460/340
f 203/461/341 204/462/341 223/463/341
f 202/460/341 435/464/341 438/465/341
f 424/466/341 225/467/341 426/468/341
f 276/469/341 366/470/341 369/471/341
f 348/472/341 274/473/341 345/474/341
f 200/460/340 205/459/340 201/459/340
f 199/462/342 203/461/342 198/461/342
f 201/459/343 204/462/343 199/462/343
f 198/461/344 202/460/344 200/460/344
f 339/475/345 466/476/345 468/477/345
f 459/478/345 458/479/345 250/480/345
f 208/462/345 392/481/345 390/482/345
f 337/483/345 401/484/345 391/485/345
f 208/462/345 207/461/345 255/463/345
f 198/461/342 208/462/342 199/462/342
f 199/462/343 209/459/343 201/459/343
f 200/460/344 207/461/344 198/461/344
f 227/486/346 273/487/346 259/488/346
f 231/489/347 259/488/347 263/490/347
f 229/491/348 263/490/348 261/492/348
f 240/493/349 261/492/349 272/494/349
f 240/493/350 265/495/350 233/496/350
f 233/496/351 270/497/351 238/498/351
f 238/498/352 268/499/352 236/500/352
f 236/500/353 266/501/353 234/502/353
f 234/502/354 267/503/354 235/504/354
f 235/504/355 269/505/355 237/506/355
f 237/506/356 264/507/356 232/508/356
f 232/508/357 271/509/357 239/510/357
f 239/510/358 260/511/358 228/512/358
f 228/512/359 262/513/359 230/514/359
f 230/514/360 258/515/360 226/516/360
f 226/516/361 255/517/361 223/518/361
f 223/518/362 251/519/362 219/520/362
f 219/520/363 253/521/363 221/522/363
f 221/522/364 249/523/364 217/524/364
f 217/524/365 256/525/365 224/526/365
f 213/527/366 256/525/366 245/528/366
f 215/529/367 245/528/367 247/530/367
f 211/531/368 247/530/368 243/532/368
f 210/533/369 243/532/369 242/534/369
f 212/535/370 242/534/370 244/536/370
f 216/537/371 244/536/371 248/538/371
f 214/539/372 248/538/372 246/540/372
f 225/541/373 246/540/373 257/542/373
f 218/543/374 257/542/374 250/544/374
f 222/545/375 250/544/375 254/546/375
f 220/547/376 254/546/376 252/548/376
f 241/549/377 252/548/377 273/550/377
f 295/486/346 323/487/346 320/488/346
f 294/551/347 320/488/347 319/490/347
f 297/552/348 319/490/348 322/553/348
f 296/554/349 322/553/349 321/555/349
f 296/554/350 338/495/350 306/496/350
f 306/496/351 333/497/351 300/498/351
f 300/498/352 329/499/352 279/500/352
f 279/500/353 328/501/353 278/502/353
f 278/502/354 331/503/354 281/504/354
f 281/504/355 330/556/355 280/506/355
f 280/506/356 325/507/356 275/508/356
f 275/508/357 326/509/357 276/557/357
f 276/557/358 327/511/358 277/512/358
f 277/512/359 324/513/359 274/558/359
f 274/558/360 332/515/360 299/559/360
f 301/560/361 332/515/361 334/517/361
f 303/520/362 334/517/362 336/561/362
f 337/562/363 304/563/363 336/561/363
f 305/564/364 335/523/364 302/524/364
f 302/524/365 312/525/365 287/565/365
f 285/527/366 312/525/366 310/528/366
f 288/566/367 310/528/367 313/567/367
f 283/531/368 313/567/368 308/532/368
f 282/533/369 308/532/369 307/534/369
f 284/535/370 307/534/370 309/536/370
f 289/537/371 309/536/371 314/538/371
f 286/568/372 314/538/372 311/540/372
f 290/569/373 311/540/373 315/570/373
f 291/543/374 315/570/374 316/571/374
f 293/545/375 316/571/375 318/546/375
f 292/572/376 318/546/376 317/548/376
f 298/549/377 317/548/377 323/550/377
f 357/573/346 388/574/346 393/575/346
f 372/576/347 393/575/347 391/577/347
f 361/578/348 391/577/348 401/579/348
f 364/580/349 401/579/349 395/581/349
f 371/582/350 395/581/350 400/583/350
f 371/582/351 405/584/351 366/585/351
f 366/585/352 406/586/352 369/587/352
f 369/587/353 404/588/353 367/589/353
f 367/589/354 396/590/354 368/591/354
f 368/591/355 398/592/355 365/593/355
f 365/593/356 397/594/356 370/595/356
f 370/595/357 394/596/357 362/597/357
f 362/597/358 399/598/358 363/599/358
f 363/599/359 390/600/359 373/601/359
f 373/601/360 392/602/360 356/603/360
f 356/603/361 389/604/361 358/605/361
f 358/605/362 386/606/362 360/607/362
f 360/607/363 382/608/363 354/609/363
f 354/609/364 384/610/364 355/611/364
f 355/611/365 381/612/365 353/613/365
f 351/614/366 381/612/366 379/615/366
f 352/616/367 379/615/367 377/617/367
f 349/618/368 377/617/368 375/619/368
f 347/620/369 375/619/369 374/621/369
f 343/622/370 374/621/370 376/623/370
f 340/624/371 376/623/371 380/625/371
f 341/626/372 380/625/372 378/627/372
f 342/628/373 378/627/373 387/629/373
f 344/630/374 387/629/374 385/631/374
f 346/632/375 385/631/375 383/633/375
f 402/634/376 348/635/376 345/636/376
f 359/637/377 402/634/377 388/638/377
f 431/573/346 463/574/346 465/575/346
f 433/639/347 465/575/347 467/640/347
f 435/578/348 467/640/348 469/579/348
f 438/580/349 469/579/349 472/581/349
f 438/580/350 473/641/350 439/582/350
f 439/582/351 474/584/351 440/585/351
f 440/585/352 470/586/352 436/587/352
f 436/587/353 471/588/353 437/589/353
f 437/589/354 468/590/354 434/591/354
f 434/591/355 466/592/355 432/593/355
f 432/593/356 464/594/356 430/642/356
f 430/642/357 462/596/357 428/597/357
f 426/643/358 462/596/358 460/644/358
f 425/645/359 458/598/359 459/646/359
f 423/601/360 455/602/360 421/603/360
f 421/603/361 451/604/361 417/605/361
f 417/605/362 450/606/362 418/607/362
f 418/607/363 452/608/363 416/609/363
f 416/609/364 448/610/364 419/611/364
f 419/611/365 449/612/365 414/647/365
f 412/614/366 449/612/366 446/615/366
f 410/616/367 446/615/367 444/617/367
f 408/618/368 444/617/368 442/619/368
f 407/620/369 442/619/369 441/621/369
f 409/622/370 441/621/370 443/623/370
f 411/624/371 443/623/371 447/625/371
f 413/626/372 447/625/372 445/627/372
f 415/628/373 445/627/373 453/629/373
f 420/630/374 453/629/374 454/631/374
f 422/632/375 454/631/375 456/633/375
f 427/648/376 456/633/376 461/634/376
f 429/637/377 461/634/377 463/638/377
f 201/459/340 209/459/340 206/460/340
f 213/649/341 215/650/341 203/461/341
f 204/462/341 237/651/341 232/652/341
f 204/462/341 232/652/341 239/653/341
f 224/654/341 213/649/341 203/461/341
f 217/655/341 224/654/341 203/461/341
f 204/462/341 239/653/341 228/656/341
f 204/462/341 228/656/341 230/657/341
f 221/658/341 217/655/341 203/461/341
f 219/659/341 221/658/341 203/461/341
f 204/462/341 230/657/341 226/660/341
f 223/463/341 219/659/341 203/461/341
f 204/462/341 226/660/341 223/463/341
f 297/661/341 296/662/341 205/459/341
f 203/461/341 215/650/341 211/663/341
f 203/461/341 211/663/341 210/664/341
f 294/665/341 297/661/341 205/459/341
f 295/666/341 294/665/341 205/459/341
f 203/461/341 210/664/341 212/667/341
f 203/461/341 212/667/341 216/668/341
f 298/669/341 295/666/341 205/459/341
f 292/670/341 298/669/341 205/459/341
f 203/461/341 216/668/341 214/671/341
f 214/671/341 225/467/341 425/672/341
f 214/671/341 425/672/341 423/673/341
f 292/670/341 205/459/341 202/460/341
f 293/674/341 292/670/341 202/460/341
f 203/461/341 214/671/341 423/673/341
f 203/461/341 423/673/341 421/675/341
f 291/676/341 293/674/341 202/460/341
f 290/677/341 291/676/341 202/460/341
f 203/461/341 421/675/341 417/678/341
f 203/461/341 417/678/341 418/679/341
f 286/680/341 290/677/341 202/460/341
f 289/681/341 286/680/341 202/460/341
f 203/461/341 418/679/341 416/682/341
f 203/461/341 416/682/341 419/683/341
f 284/684/341 289/681/341 202/460/341
f 282/685/341 284/684/341 202/460/341
f 203/461/341 419/683/341 414/686/341
f 203/461/341 414/686/341 412/687/341
f 283/688/341 282/685/341 202/460/341
f 288/689/341 283/688/341 202/460/341
f 203/461/341 412/687/341 410/690/341
f 203/461/341 410/690/341 408/691/341
f 285/692/341 288/689/341 202/460/341
f 287/693/341 285/692/341 202/460/341
f 202/460/341 203/461/341 408/691/341
f 202/460/341 408/691/341 407/694/341
f 302/695/341 287/693/341 202/460/341
f 229/696/341 304/697/341 305/475/341
f 305/475/341 302/695/341 202/460/341
f 202/460/341 407/694/341 409/698/341
f 202/460/341 409/698/341 411/699/341
f 229/696/341 305/475/341 202/460/341
f 231/700/341 229/696/341 202/460/341
f 202/460/341 411/699/341 413/701/341
f 202/460/341 413/701/341 415/702/341
f 426/468/341 218/703/341 222/704/341
f 428/705/341 426/468/341 222/704/341
f 428/705/341 222/704/341 220/706/341
f 430/707/341 428/705/341 220/706/341
f 430/707/341 220/706/341 241/708/341
f 432/709/341 430/707/341 241/708/341
f 432/709/341 241/708/341 227/710/341
f 434/711/341 432/709/341 227/710/341
f 202/460/341 415/702/341 420/712/341
f 202/460/341 420/712/341 422/713/341
f 434/711/341 227/710/341 231/700/341
f 437/714/341 434/711/341 231/700/341
f 202/460/341 422/713/341 427/715/341
f 202/460/341 427/715/341 429/716/341
f 436/717/341 437/714/341 231/700/341
f 440/718/341 436/717/341 231/700/341
f 202/460/341 429/716/341 431/719/341
f 202/460/341 431/719/341 433/720/341
f 439/721/341 440/718/341 231/700/341
f 439/721/341 231/700/341 202/460/341
f 202/460/341 433/720/341 435/464/341
f 438/465/341 439/721/341 202/460/341
f 424/466/341 425/672/341 225/467/341
f 225/467/341 218/703/341 426/468/341
f 346/722/341 345/474/341 274/473/341
f 346/722/341 274/473/341 299/723/341
f 344/724/341 346/722/341 299/723/341
f 344/724/341 299/723/341 301/725/341
f 342/726/341 344/724/341 301/725/341
f 303/727/341 304/697/341 229/696/341
f 342/726/341 301/725/341 303/727/341
f 341/728/341 342/726/341 303/727/341
f 303/727/341 229/696/341 240/729/341
f 303/727/341 240/729/341 233/730/341
f 340/731/341 341/728/341 303/727/341
f 340/731/341 303/727/341 233/730/341
f 340/731/341 233/730/341 238/732/341
f 343/733/341 340/731/341 238/732/341
f 343/733/341 238/732/341 236/734/341
f 347/735/341 343/733/341 236/734/341
f 347/735/341 236/734/341 234/736/341
f 349/737/341 347/735/341 234/736/341
f 235/738/341 237/651/341 204/462/341
f 349/737/341 234/736/341 235/738/341
f 352/739/341 349/737/341 235/738/341
f 205/459/341 296/662/341 306/740/341
f 205/459/341 306/740/341 300/741/341
f 351/742/341 352/739/341 235/738/341
f 353/743/341 351/742/341 235/738/341
f 205/459/341 300/741/341 279/744/341
f 205/459/341 279/744/341 278/745/341
f 353/743/341 235/738/341 204/462/341
f 355/746/341 353/743/341 204/462/341
f 204/462/341 205/459/341 278/745/341
f 204/462/341 278/745/341 281/747/341
f 354/748/341 355/746/341 204/462/341
f 360/749/341 354/748/341 204/462/341
f 204/462/341 281/747/341 280/750/341
f 204/462/341 280/750/341 275/751/341
f 358/752/341 360/749/341 204/462/341
f 356/753/341 358/752/341 204/462/341
f 204/462/341 275/751/341 276/469/341
f 276/469/341 277/754/341 348/472/341
f 276/469/341 348/472/341 350/755/341
f 373/756/341 356/753/341 204/462/341
f 363/757/341 373/756/341 204/462/341
f 276/469/341 350/755/341 359/758/341
f 276/469/341 359/758/341 357/759/341
f 362/760/341 363/757/341 204/462/341
f 370/761/341 362/760/341 204/462/341
f 276/469/341 357/759/341 372/762/341
f 276/469/341 372/762/341 361/763/341
f 365/764/341 370/761/341 204/462/341
f 368/765/341 365/764/341 204/462/341
f 276/469/341 361/763/341 364/766/341
f 276/469/341 364/766/341 371/767/341
f 368/765/341 204/462/341 276/469/341
f 367/768/341 368/765/341 276/469/341
f 276/469/341 371/767/341 366/470/341
f 369/471/341 367/768/341 276/469/341
f 348/472/341 277/754/341 274/473/341
f 200/460/340 202/460/340 205/459/340
f 199/462/342 204/462/342 203/461/342
f 201/459/343 205/459/343 204/462/343
f 198/461/344 203/461/344 202/460/344
f 459/478/345 257/769/345 246/671/345
f 459/478/345 246/671/345 248/668/345
f 457/770/345 459/478/345 248/668/345
f 457/770/345 248/668/345 244/667/345
f 455/771/345 457/770/345 244/667/345
f 455/771/345 244/667/345 242/664/345
f 451/772/345 455/771/345 242/664/345
f 243/663/345 247/650/345 207/461/345
f 451/772/345 242/664/345 243/663/345
f 450/773/345 451/772/345 243/663/345
f 209/459/345 321/774/345 322/661/345
f 209/459/345 322/661/345 319/775/345
f 450/773/345 243/663/345 207/461/345
f 452/776/345 450/773/345 207/461/345
f 209/459/345 319/775/345 320/777/345
f 209/459/345 320/777/345 323/778/345
f 448/779/345 452/776/345 207/461/345
f 449/780/345 448/779/345 207/461/345
f 206/460/345 209/459/345 323/778/345
f 206/460/345 323/778/345 317/781/345
f 446/782/345 449/780/345 207/461/345
f 444/783/345 446/782/345 207/461/345
f 206/460/345 317/781/345 318/784/345
f 206/460/345 318/784/345 316/785/345
f 442/786/345 444/783/345 207/461/345
f 441/787/345 442/786/345 207/461/345
f 206/460/345 316/785/345 315/788/345
f 206/460/345 315/788/345 311/789/345
f 441/787/345 207/461/345 206/460/345
f 443/790/345 441/787/345 206/460/345
f 206/460/345 311/789/345 314/791/345
f 206/460/345 314/791/345 309/792/345
f 447/793/345 443/790/345 206/460/345
f 445/794/345 447/793/345 206/460/345
f 206/460/345 309/792/345 307/795/345
f 206/460/345 307/795/345 308/796/345
f 453/702/345 445/794/345 206/460/345
f 454/797/345 453/702/345 206/460/345
f 206/460/345 308/796/345 313/798/345
f 206/460/345 313/798/345 310/799/345
f 456/800/345 454/797/345 206/460/345
f 461/801/345 456/800/345 206/460/345
f 206/460/345 310/799/345 312/802/345
f 206/460/345 312/802/345 335/803/345
f 463/804/345 461/801/345 206/460/345
f 465/805/345 463/804/345 206/460/345
f 206/460/345 335/803/345 339/475/345
f 339/475/345 337/483/345 261/696/345
f 339/475/345 261/696/345 263/806/345
f 465/805/345 206/460/345 339/475/345
f 467/807/345 465/805/345 339/475/345
f 339/475/345 263/806/345 259/808/345
f 339/475/345 259/808/345 273/809/345
f 469/810/345 467/807/345 339/475/345
f 472/811/345 469/810/345 339/475/345
f 339/475/345 273/809/345 252/706/345
f 254/704/345 250/480/345 460/812/345
f 339/475/345 252/706/345 254/704/345
f 473/813/345 472/811/345 339/475/345
f 474/814/345 473/813/345 339/475/345
f 339/475/345 254/704/345 460/812/345
f 339/475/345 460/812/345 462/815/345
f 470/816/345 474/814/345 339/475/345
f 471/714/345 470/816/345 339/475/345
f 339/475/345 462/815/345 464/817/345
f 339/475/345 464/817/345 466/476/345
f 468/477/345 471/714/345 339/475/345
f 250/480/345 257/769/345 459/478/345
f 458/479/345 460/812/345 250/480/345
f 338/818/345 321/774/345 209/459/345
f 208/462/345 269/651/345 267/738/345
f 208/462/345 267/738/345 266/736/345
f 333/819/345 338/818/345 209/459/345
f 329/820/345 333/819/345 209/459/345
f 208/462/345 266/736/345 268/821/345
f 208/462/345 268/821/345 270/732/345
f 328/822/345 329/820/345 209/459/345
f 331/823/345 328/822/345 209/459/345
f 208/462/345 270/732/345 265/730/345
f 272/729/345 261/696/345 337/483/345
f 208/462/345 265/730/345 272/729/345
f 331/823/345 209/459/345 208/462/345
f 330/824/345 331/823/345 208/462/345
f 337/483/345 388/825/345 402/826/345
f 337/483/345 402/826/345 383/827/345
f 325/828/345 330/824/345 208/462/345
f 326/469/345 325/828/345 208/462/345
f 337/483/345 383/827/345 385/829/345
f 337/483/345 385/829/345 387/830/345
f 327/754/345 326/469/345 208/462/345
f 324/831/345 327/754/345 208/462/345
f 272/729/345 337/483/345 387/830/345
f 272/729/345 387/830/345 378/832/345
f 332/833/345 324/831/345 208/462/345
f 400/834/345 336/835/345 334/836/345
f 334/836/345 332/833/345 208/462/345
f 272/729/345 378/832/345 380/837/345
f 272/729/345 380/837/345 376/838/345
f 403/839/345 400/834/345 334/836/345
f 405/840/345 403/839/345 334/836/345
f 272/729/345 376/838/345 374/841/345
f 272/729/345 374/841/345 375/842/345
f 406/843/345 405/840/345 334/836/345
f 406/843/345 334/836/345 208/462/345
f 272/729/345 375/842/345 377/844/345
f 272/729/345 377/844/345 379/845/345
f 404/846/345 406/843/345 208/462/345
f 396/847/345 404/846/345 208/462/345
f 208/462/345 272/729/345 379/845/345
f 208/462/345 379/845/345 381/848/345
f 398/849/345 396/847/345 208/462/345
f 397/850/345 398/849/345 208/462/345
f 208/462/345 381/848/345 384/851/345
f 208/462/345 384/851/345 382/852/345
f 394/853/345 397/850/345 208/462/345
f 399/854/345 394/853/345 208/462/345
f 208/462/345 382/852/345 386/855/345
f 208/462/345 386/855/345 389/752/345
f 390/482/345 399/854/345 208/462/345
f 208/462/345 389/752/345 392/481/345
f 393/856/345 388/825/345 337/483/345
f 337/483/345 336/835/345 400/834/345
f 337/483/345 400/834/345 395/857/345
f 391/485/345 393/856/345 337/483/345
f 337/483/345 395/857/345 401/484/345
f 264/858/345 269/651/345 208/462/345
f 207/461/345 247/650/345 245/649/345
f 207/461/345 245/649/345 256/859/345
f 271/860/345 264/858/345 208/462/345
f 260/861/345 271/860/345 208/462/345
f 207/461/345 256/859/345 249/862/345
f 207/461/345 249/862/345 253/863/345
f 262/657/345 260/861/345 208/462/345
f 258/660/345 262/657/345 208/462/345
f 207/461/345 253/863/345 251/864/345
f 255/463/345 258/660/345 208/462/345
f 207/461/345 251/864/345 255/463/345
f 198/461/342 207/461/342 208/462/342
f 199/462/343 208/462/343 209/459/343
f 200/460/344 206/460/344 207/461/344
f 227/486/346 241/865/346 273/487/346
f 231/489/347 227/486/347 259/488/347
f 229/491/348 231/489/348 263/490/348
f 240/493/349 229/491/349 261/492/349
f 240/493/350 272/494/350 265/495/350
f 233/496/351 265/495/351 270/497/351
f 238/498/352 270/497/352 268/499/352
f 236/500/353 268/499/353 266/501/353
f 234/502/354 266/501/354 267/503/354
f 235/504/355 267/503/355 269/505/355
f 237/506/356 269/505/356 264/507/356
f 232/508/357 264/507/357 271/509/357
f 239/510/358 271/509/358 260/511/358
f 228/512/359 260/511/359 262/513/359
f 230/514/360 262/513/360 258/515/360
f 226/516/361 258/515/361 255/517/361
f 223/518/362 255/517/362 251/519/362
f 219/520/363 251/519/363 253/521/363
f 221/522/364 253/521/364 249/523/364
f 217/524/365 249/523/365 256/525/365
f 213/527/366 224/526/366 256/525/366
f 215/529/367 213/527/367 245/528/367
f 211/531/368 215/529/368 247/530/368
f 210/533/369 211/531/369 243/532/369
f 212/535/370 210/533/370 242/534/370
f 216/537/371 212/535/371 244/536/371
f 214/539/372 216/537/372 248/538/372
f 225/541/373 214/539/373 246/540/373
f 218/543/374 225/541/374 257/542/374
f 222/545/375 218/543/375 250/544/375
f 220/547/376 222/545/376 254/546/376
f 241/549/377 220/547/377 252/548/377
f 295/486/346 298/866/346 323/487/346
f 294/551/347 295/486/347 320/488/347
f 297/552/348 294/551/348 319/490/348
f 296/554/349 297/552/349 322/553/349
f 296/554/350 321/555/350 338/495/350
f 306/496/351 338/495/351 333/497/351
f 300/498/352 333/497/352 329/499/352
f 279/500/353 329/499/353 328/501/353
f 278/502/354 328/501/354 331/503/354
f 281/504/355 331/503/355 330/556/355
f 280/506/356 330/556/356 325/507/356
f 275/508/357 325/507/357 326/509/357
f 276/557/358 326/509/358 327/511/358
f 277/512/359 327/511/359 324/513/359
f 274/558/360 324/513/360 332/515/360
f 301/560/361 299/559/361 332/515/361
f 303/520/362 301/560/362 334/517/362
f 337/562/363 339/521/363 305/564/363
f 304/563/363 303/520/363 336/561/363
f 337/562/363 305/564/363 304/563/363
f 305/564/364 339/521/364 335/523/364
f 302/524/365 335/523/365 312/525/365
f 285/527/366 287/565/366 312/525/366
f 288/566/367 285/527/367 310/528/367
f 283/531/368 288/566/368 313/567/368
f 282/533/369 283/531/369 308/532/369
f 284/535/370 282/533/370 307/534/370
f 289/537/371 284/535/371 309/536/371
f 286/568/372 289/537/372 314/538/372
f 290/569/373 286/568/373 311/540/373
f 291/543/374 290/569/374 315/570/374
f 293/545/375 291/543/375 316/571/375
f 292/572/376 293/545/376 318/546/376
f 298/549/377 292/572/377 317/548/377
f 357/573/346 359/867/346 388/574/346
f 372/576/347 357/573/347 393/575/347
f 361/578/348 372/576/348 391/577/348
f 364/580/349 361/578/349 401/579/349
f 400/583/350 403/641/350 371/582/350
f 371/582/350 364/580/350 395/581/350
f 371/582/351 403/641/351 405/584/351
f 366/585/352 405/584/352 406/586/352
f 369/587/353 406/586/353 404/588/353
f 367/589/354 404/588/354 396/590/354
f 368/591/355 396/590/355 398/592/355
f 365/593/356 398/592/356 397/594/356
f 370/595/357 397/594/357 394/596/357
f 362/597/358 394/596/358 399/598/358
f 363/599/359 399/598/359 390/600/359
f 373/601/360 390/600/360 392/602/360
f 356/603/361 392/602/361 389/604/361
f 358/605/362 389/604/362 386/606/362
f 360/607/363 386/606/363 382/608/363
f 354/609/364 382/608/364 384/610/364
f 355/611/365 384/610/365 381/612/365
f 351/614/366 353/613/366 381/612/366
f 352/616/367 351/614/367 379/615/367
f 349/618/368 352/616/368 377/617/368
f 347/620/369 349/618/369 375/619/369
f 343/622/370 347/620/370 374/621/370
f 340/624/371 343/622/371 376/623/371
f 341/626/372 340/624/372 380/625/372
f 342/628/373 341/626/373 378/627/373
f 344/630/374 342/628/374 387/629/374
f 346/632/375 344/630/375 385/631/375
f 346/632/376 383/633/376 402/634/376
f 402/634/376 350/648/376 348/635/376
f 345/636/376 346/632/376 402/634/376
f 359/637/377 350/648/377 402/634/377
f 431/573/346 429/867/346 463/574/346
f 433/639/347 431/573/347 465/575/347
f 435/578/348 433/639/348 467/640/348
f 438/580/349 435/578/349 469/579/349
f 438/580/350 472/581/350 473/641/350
f 439/582/351 473/641/351 474/584/351
f 440/585/352 474/584/352 470/586/352
f 436/587/353 470/586/353 471/588/353
f 437/589/354 471/588/354 468/590/354
f 434/591/355 468/590/355 466/592/355
f 432/593/356 466/592/356 464/594/356
f 430/642/357 464/594/357 462/596/357
f 458/598/358 424/868/358 426/643/358
f 426/643/358 428/597/358 462/596/358
f 460/644/358 458/598/358 426/643/358
f 457/600/359 423/601/359 425/645/359
f 425/645/359 424/868/359 458/598/359
f 459/646/359 457/600/359 425/645/359
f 423/601/360 457/600/360 455/602/360
f 421/603/361 455/602/361 451/604/361
f 417/605/362 451/604/362 450/606/362
f 418/607/363 450/606/363 452/608/363
f 416/609/364 452/608/364 448/610/364
f 419/611/365 448/610/365 449/612/365
f 412/614/366 414/647/366 449/612/366
f 410/616/367 412/614/367 446/615/367
f 408/618/368 410/616/368 444/617/368
f 407/620/369 408/618/369 442/619/369
f 409/622/370 407/620/370 441/621/370
f 411/624/371 409/622/371 443/623/371
f 413/626/372 411/624/372 447/625/372
f 415/628/373 413/626/373 445/627/373
f 420/630/374 415/628/374 453/629/374
f 422/632/375 420/630/375 454/631/375
f 427/648/376 422/632/376 456/633/376
f 429/637/377 427/648/377 461/634/377
