# Blender 5.1.2
# www.blender.org
o Floor
v -24.999996 11.353807 2.133607
v 25.000006 11.353790 2.133595
v -25.000004 -11.353790 2.133605
v 24.999998 -11.353807 2.133593
vn -0.0000 -0.0000 -1.0000
vt 1.000000 0.000000
vt 0.000000 1.000000
vt 0.000000 0.000000
vt 1.000000 1.000000
s 1
f 2/1/1 3/2/1 1/3/1
f 2/1/1 4/4/1 3/2/1
o Pool
v -24.999996 11.353807 0.000007
v 25.000006 11.353790 -0.000005
v -25.000004 -11.353790 0.000005
v 24.999998 -11.353807 -0.000007
v -24.999996 11.353807 2.146307
v 25.000006 11.353790 2.146295
v -25.000004 -11.353790 2.146305
v 24.999998 -11.353807 2.146293
v -25.152397 11.423020 0.000007
v 25.152403 11.423003 -0.000005
v -25.152405 -11.423005 0.000005
v 25.152395 -11.423022 -0.000007
v -25.152395 11.423019 2.286007
v 25.152403 11.423002 2.285995
v -25.152403 -11.423005 2.286005
v 25.152395 -11.423022 2.285993
vn -0.0000 -0.0000 -1.0000
vn -0.0000 1.0000 -0.0000
vn -0.0000 -1.0000 -0.0000
vn -1.0000 -0.0000 -0.0000
vn 1.0000 -0.0000 -0.0000
vn -0.0000 -0.0000 1.0000
vt 1.000000 0.000000
vt 0.000000 1.000000
vt 0.000000 0.000000
vt 1.000000 1.000000
s 1
f 10/5/2 11/6/2 9/7/2
f 7/6/3 12/8/3 8/8/3
f 6/5/4 9/7/4 5/7/4
f 6/5/5 12/8/5 10/5/5
f 5/7/6 11/6/6 7/6/6
f 19/6/7 18/5/7 17/7/7
f 20/8/4 15/6/4 16/8/4
f 17/7/3 14/5/3 13/7/3
f 18/5/6 16/8/6 14/5/6
f 19/6/5 13/7/5 15/6/5
f 7/6/2 13/7/2 5/7/2
f 5/7/2 14/5/2 6/5/2
f 6/5/2 16/8/2 8/8/2
f 8/8/2 15/6/2 7/6/2
f 10/5/2 12/8/2 11/6/2
f 7/6/3 11/6/3 12/8/3
f 6/5/4 10/5/4 9/7/4
f 6/5/5 8/8/5 12/8/5
f 5/7/6 9/7/6 11/6/6
f 19/6/7 20/8/7 18/5/7
f 20/8/4 19/6/4 15/6/4
f 17/7/3 18/5/3 14/5/3
f 18/5/6 20/8/6 16/8/6
f 19/6/5 17/7/5 13/7/5
f 7/6/2 15/6/2 13/7/2
f 5/7/2 13/7/2 14/5/2
f 6/5/2 14/5/2 16/8/2
f 8/8/2 16/8/2 15/6/2
