# Blender 4.5.4 LTS
# www.blender.org
o Cube.001
v 0.038100 -1.529409 0.776405
v 0.038100 -1.529144 0.152255
v 0.038100 -1.454840 0.152287
v 0.038100 -1.455104 0.776437
v -0.038100 -1.454840 0.152287
v -0.038100 -1.455104 0.776437
v -0.038100 -1.529144 0.152255
v -0.038100 -1.529409 0.776405
vn 1.0000 -0.0000 -0.0000
vn -0.0000 1.0000 0.0004
vn -1.0000 -0.0000 -0.0000
vn -0.0000 -1.0000 -0.0004
vn -0.0000 -0.0004 1.0000
vn -0.0000 0.0004 -1.0000
vt 0.375000 0.000000
vt 0.625000 0.250000
vt 0.375000 0.250000
vt 0.375000 0.500000
vt 0.625000 0.500000
vt 0.375000 0.750000
vt 0.625000 0.750000
vt 0.375000 1.000000
vt 0.125000 0.750000
vt 0.125000 0.500000
vt 0.875000 0.500000
vt 0.625000 0.000000
vt 0.625000 1.000000
vt 0.875000 0.750000
s 1
f 1/1/1 3/2/1 4/3/1
f 3/2/2 6/4/2 4/3/2
f 5/5/3 8/6/3 6/4/3
f 7/7/4 1/8/4 8/6/4
f 6/4/5 1/9/5 4/10/5
f 3/11/6 7/7/6 5/5/6
f 1/1/1 2/12/1 3/2/1
f 3/2/2 5/5/2 6/4/2
f 5/5/3 7/7/3 8/6/3
f 7/7/4 2/13/4 1/8/4
f 6/4/5 8/6/5 1/9/5
f 3/11/6 2/14/6 7/7/6
o Cube.004
v 0.038100 1.507595 0.772728
v 0.038100 1.507331 1.396878
v 0.038100 1.433027 1.396846
v 0.038100 1.433290 0.772696
v -0.038100 1.433027 1.396846
v -0.038100 1.433290 0.772696
v -0.038100 1.507331 1.396878
v -0.038100 1.507595 0.772728
vn 1.0000 -0.0000 -0.0000
vn -0.0000 -1.0000 -0.0004
vn -1.0000 -0.0000 -0.0000
vn -0.0000 1.0000 0.0004
vn -0.0000 0.0004 -1.0000
vn -0.0000 -0.0004 1.0000
vt 0.375000 0.000000
vt 0.625000 0.250000
vt 0.375000 0.250000
vt 0.375000 0.500000
vt 0.625000 0.500000
vt 0.375000 0.750000
vt 0.625000 0.750000
vt 0.375000 1.000000
vt 0.125000 0.750000
vt 0.125000 0.500000
vt 0.875000 0.500000
vt 0.625000 0.000000
vt 0.625000 1.000000
vt 0.875000 0.750000
s 1
f 9/15/7 11/16/7 12/17/7
f 11/16/8 14/18/8 12/17/8
f 13/19/9 16/20/9 14/18/9
f 15/21/10 9/22/10 16/20/10
f 14/18/11 9/23/11 12/24/11
f 11/25/12 15/21/12 13/19/12
f 9/15/7 10/26/7 11/16/7
f 11/16/8 13/19/8 14/18/8
f 13/19/9 15/21/9 16/20/9
f 15/21/10 10/27/10 9/22/10
f 14/18/11 16/20/11 9/23/11
f 11/25/12 10/28/12 15/21/12
