# Blender 4.5.4 LTS
# www.blender.org
o Cylinder
v -0.000000 -1.512158 -0.010252
v 0.002793 -1.511883 -0.010252
v 0.002793 -1.512539 1.545432
v 0.000000 -1.512814 1.545432
v 0.005479 -1.511068 -0.010251
v 0.005479 -1.511724 1.545433
v 0.007955 -1.509745 -0.010251
v 0.007955 -1.510401 1.545433
v 0.010124 -1.507965 -0.010250
v 0.010124 -1.508621 1.545434
v 0.011905 -1.505795 -0.010249
v 0.011905 -1.506451 1.545435
v 0.013228 -1.503320 -0.010248
v 0.013228 -1.503976 1.545436
v 0.014043 -1.500634 -0.010247
v 0.014043 -1.501290 1.545437
v 0.014318 -1.497840 -0.010246
v 0.014318 -1.498496 1.545438
v 0.014043 -1.495047 -0.010244
v 0.014043 -1.495703 1.545439
v 0.013228 -1.492361 -0.010243
v 0.013228 -1.493017 1.545441
v 0.011905 -1.489886 -0.010242
v 0.011905 -1.490542 1.545442
v 0.010124 -1.487716 -0.010241
v 0.010124 -1.488372 1.545443
v 0.007955 -1.485936 -0.010241
v 0.007955 -1.486592 1.545443
v 0.005479 -1.484612 -0.010240
v 0.005479 -1.485268 1.545444
v 0.002793 -1.483798 -0.010240
v 0.002793 -1.484454 1.545444
v -0.000000 -1.483523 -0.010240
v 0.000000 -1.484179 1.545444
v -0.002793 -1.483798 -0.010240
v -0.002793 -1.484454 1.545444
v -0.005479 -1.484612 -0.010240
v -0.005479 -1.485268 1.545444
v -0.007955 -1.485936 -0.010241
v -0.007955 -1.486592 1.545443
v -0.010124 -1.487716 -0.010241
v -0.010124 -1.488372 1.545443
v -0.011905 -1.489886 -0.010242
v -0.011905 -1.490542 1.545442
v -0.013228 -1.492361 -0.010243
v -0.013228 -1.493017 1.545441
v -0.014043 -1.495047 -0.010244
v -0.014043 -1.495703 1.545439
v -0.014318 -1.497840 -0.010246
v -0.014318 -1.498496 1.545438
v -0.014043 -1.500634 -0.010247
v -0.014043 -1.501290 1.545437
v -0.013228 -1.503320 -0.010248
v -0.013228 -1.503976 1.545436
v -0.011905 -1.505795 -0.010249
v -0.011905 -1.506451 1.545435
v -0.010124 -1.507965 -0.010250
v -0.010124 -1.508621 1.545434
v -0.007955 -1.509745 -0.010251
v -0.007955 -1.510401 1.545433
v -0.005479 -1.511068 -0.010251
v -0.005479 -1.511724 1.545433
v -0.002793 -1.512539 1.545432
v -0.002793 -1.511883 -0.010252
vn 0.0980 -0.9952 -0.0004
vn 0.2904 -0.9569 -0.0004
vn 0.4713 -0.8820 -0.0004
vn 0.6344 -0.7730 -0.0003
vn 0.7730 -0.6344 -0.0003
vn 0.8819 -0.4714 -0.0002
vn 0.9569 -0.2904 -0.0001
vn 0.9952 -0.0980 -0.0000
vn 0.9952 0.0980 -0.0000
vn 0.9569 0.2904 0.0001
vn 0.8819 0.4714 0.0002
vn 0.7730 0.6344 0.0003
vn 0.6344 0.7730 0.0003
vn 0.4716 0.8818 0.0004
vn 0.2900 0.9570 0.0004
vn 0.0980 0.9952 0.0004
vn -0.0980 0.9952 0.0004
vn -0.2900 0.9570 0.0004
vn -0.4716 0.8818 0.0004
vn -0.6344 0.7730 0.0003
vn -0.7730 0.6344 0.0003
vn -0.8819 0.4714 0.0002
vn -0.9569 0.2904 0.0001
vn -0.9952 0.0980 -0.0000
vn -0.9952 -0.0980 -0.0000
vn -0.9569 -0.2904 -0.0001
vn -0.8819 -0.4714 -0.0002
vn -0.7730 -0.6344 -0.0003
vn -0.6344 -0.7730 -0.0003
vn -0.4713 -0.8820 -0.0004
vn -0.0000 -0.0004 1.0000
vn -0.0000 -0.0005 1.0000
vn -0.2904 -0.9569 -0.0004
vn -0.0980 -0.9952 -0.0004
vn -0.0000 0.0004 -1.0000
vn 0.0003 -0.0019 1.0000
vn -0.0001 -0.0001 1.0000
vn 0.0003 -0.0015 1.0000
vn -0.0001 -0.0004 1.0000
vn -0.0003 -0.0004 1.0000
vn -0.0002 -0.0003 1.0000
vn 0.0024 -0.0001 1.0000
vn -0.0003 -0.0006 1.0000
vn 0.0006 -0.0002 1.0000
vn -0.0001 -0.0005 1.0000
vn 0.0009 0.0013 1.0000
vn -0.0001 -0.0000 1.0000
vn 0.0002 -0.0000 1.0000
vn -0.0009 0.0013 1.0000
vn 0.0001 -0.0005 1.0000
vn -0.0006 -0.0002 1.0000
vn 0.0003 -0.0006 1.0000
vn -0.0024 -0.0001 1.0000
vn 0.0001 -0.0003 1.0000
vn 0.0003 -0.0004 1.0000
vn 0.0001 -0.0004 1.0000
vn -0.0003 -0.0015 1.0000
vn 0.0001 -0.0001 1.0000
vn -0.0003 -0.0019 1.0000
vn -0.0000 -0.0000 -1.0000
vn -0.0009 -0.0016 -1.0000
vn -0.0001 0.0004 -1.0000
vn -0.0003 0.0003 -1.0000
vn -0.0002 0.0003 -1.0000
vn -0.0001 0.0003 -1.0000
vn 0.0018 0.0005 -1.0000
vn -0.0003 0.0005 -1.0000
vn 0.0001 0.0003 -1.0000
vn -0.0001 0.0005 -1.0000
vn -0.0012 0.0014 -1.0000
vn 0.0001 0.0002 -1.0000
vn -0.0005 0.0017 -1.0000
vn -0.0000 0.0005 -1.0000
vn 0.0005 0.0017 -1.0000
vn 0.0012 0.0014 -1.0000
vn 0.0002 0.0005 -1.0000
vn -0.0018 0.0005 -1.0000
vn -0.0004 0.0005 -1.0000
vn 0.0003 0.0003 -1.0000
vn 0.0009 -0.0016 -1.0000
vt 1.000000 0.500000
vt 0.968750 1.000000
vt 1.000000 1.000000
vt 0.937500 0.500000
vt 0.968750 0.500000
vt 0.906250 1.000000
vt 0.937500 1.000000
vt 0.875000 0.500000
vt 0.906250 0.500000
vt 0.843750 0.500000
vt 0.875000 1.000000
vt 0.812500 0.500000
vt 0.843750 1.000000
vt 0.781250 0.500000
vt 0.812500 1.000000
vt 0.750000 1.000000
vt 0.781250 1.000000
vt 0.718750 0.500000
vt 0.750000 0.500000
vt 0.687500 0.500000
vt 0.718750 1.000000
vt 0.656250 0.500000
vt 0.687500 1.000000
vt 0.625000 0.500000
vt 0.656250 1.000000
vt 0.593750 1.000000
vt 0.625000 1.000000
vt 0.562500 0.500000
vt 0.593750 0.500000
vt 0.531250 1.000000
vt 0.562500 1.000000
vt 0.500000 0.500000
vt 0.531250 0.500000
vt 0.468750 0.500000
vt 0.500000 1.000000
vt 0.437500 0.500000
vt 0.468750 1.000000
vt 0.406250 1.000000
vt 0.437500 1.000000
vt 0.375000 0.500000
vt 0.406250 0.500000
vt 0.343750 0.500000
vt 0.375000 1.000000
vt 0.312500 0.500000
vt 0.343750 1.000000
vt 0.281250 1.000000
vt 0.312500 1.000000
vt 0.281250 0.500000
vt 0.250000 1.000000
vt 0.218750 0.500000
vt 0.250000 0.500000
vt 0.187500 0.500000
vt 0.218750 1.000000
vt 0.156250 0.500000
vt 0.187500 1.000000
vt 0.125000 0.500000
vt 0.156250 1.000000
vt 0.093750 1.000000
vt 0.125000 1.000000
vt 0.062500 0.500000
vt 0.093750 0.500000
vt 0.250000 0.010000
vt 0.010000 0.250000
vt 0.250000 0.490000
vt 0.031250 1.000000
vt 0.062500 1.000000
vt 0.000000 0.500000
vt 0.031250 0.500000
vt 0.703178 0.014612
vt 0.985388 0.203178
vt 0.796822 0.485388
vt 0.296822 0.485388
vt 0.341844 0.471731
vt 0.383337 0.449553
vt 0.419706 0.419706
vt 0.449553 0.383337
vt 0.471731 0.341844
vt 0.485388 0.296822
vt 0.490000 0.250000
vt 0.485388 0.203178
vt 0.471731 0.158156
vt 0.449553 0.116663
vt 0.419706 0.080294
vt 0.383337 0.050447
vt 0.341844 0.028269
vt 0.296822 0.014612
vt 0.203178 0.014612
vt 0.158156 0.028269
vt 0.116663 0.050447
vt 0.080294 0.080294
vt 0.050447 0.116663
vt 0.028269 0.158156
vt 0.014612 0.203178
vt 0.014612 0.296822
vt 0.028269 0.341844
vt 0.050447 0.383337
vt 0.080294 0.419706
vt 0.116663 0.449553
vt 0.158156 0.471731
vt 0.203178 0.485388
vt 0.000000 1.000000
vt 0.750000 0.490000
vt 0.703178 0.485388
vt 0.658156 0.471731
vt 0.616663 0.449553
vt 0.580294 0.419706
vt 0.550447 0.383337
vt 0.528269 0.341844
vt 0.514612 0.296822
vt 0.510000 0.250000
vt 0.514612 0.203178
vt 0.528269 0.158156
vt 0.550447 0.116663
vt 0.580294 0.080294
vt 0.616663 0.050447
vt 0.658156 0.028269
vt 0.750000 0.010000
vt 0.796822 0.014612
vt 0.841844 0.028269
vt 0.883337 0.050447
vt 0.919706 0.080294
vt 0.949553 0.116663
vt 0.971731 0.158156
vt 0.990000 0.250000
vt 0.985388 0.296822
vt 0.971731 0.341844
vt 0.949553 0.383337
vt 0.919706 0.419706
vt 0.883337 0.449553
vt 0.841844 0.471731
s 1
f 1/1/1 3/2/1 4/3/1
f 5/4/2 3/2/2 2/5/2
f 5/4/3 8/6/3 6/7/3
f 9/8/4 8/6/4 7/9/4
f 11/10/5 10/11/5 9/8/5
f 13/12/6 12/13/6 11/10/6
f 15/14/7 14/15/7 13/12/7
f 15/14/8 18/16/8 16/17/8
f 19/18/9 18/16/9 17/19/9
f 21/20/10 20/21/10 19/18/10
f 23/22/11 22/23/11 21/20/11
f 25/24/12 24/25/12 23/22/12
f 25/24/13 28/26/13 26/27/13
f 29/28/14 28/26/14 27/29/14
f 29/28/15 32/30/15 30/31/15
f 33/32/16 32/30/16 31/33/16
f 35/34/17 34/35/17 33/32/17
f 37/36/18 36/37/18 35/34/18
f 37/36/19 40/38/19 38/39/19
f 41/40/20 40/38/20 39/41/20
f 43/42/21 42/43/21 41/40/21
f 45/44/22 44/45/22 43/42/22
f 45/44/23 48/46/23 46/47/23
f 47/48/24 50/49/24 48/46/24
f 51/50/25 50/49/25 49/51/25
f 53/52/26 52/53/26 51/50/26
f 55/54/27 54/55/27 53/52/27
f 57/56/28 56/57/28 55/54/28
f 57/56/29 60/58/29 58/59/29
f 61/60/30 60/58/30 59/61/30
f 34/62/31 50/63/31 4/64/32
f 61/60/33 63/65/33 62/66/33
f 1/67/34 63/65/34 64/68/34
f 35/69/35 19/70/35 2/71/35
f 1/1/1 2/5/1 3/2/1
f 5/4/2 6/7/2 3/2/2
f 5/4/3 7/9/3 8/6/3
f 9/8/4 10/11/4 8/6/4
f 11/10/5 12/13/5 10/11/5
f 13/12/6 14/15/6 12/13/6
f 15/14/7 16/17/7 14/15/7
f 15/14/8 17/19/8 18/16/8
f 19/18/9 20/21/9 18/16/9
f 21/20/10 22/23/10 20/21/10
f 23/22/11 24/25/11 22/23/11
f 25/24/12 26/27/12 24/25/12
f 25/24/13 27/29/13 28/26/13
f 29/28/14 30/31/14 28/26/14
f 29/28/15 31/33/15 32/30/15
f 33/32/16 34/35/16 32/30/16
f 35/34/17 36/37/17 34/35/17
f 37/36/18 38/39/18 36/37/18
f 37/36/19 39/41/19 40/38/19
f 41/40/20 42/43/20 40/38/20
f 43/42/21 44/45/21 42/43/21
f 45/44/22 46/47/22 44/45/22
f 45/44/23 47/48/23 48/46/23
f 47/48/24 49/51/24 50/49/24
f 51/50/25 52/53/25 50/49/25
f 53/52/26 54/55/26 52/53/26
f 55/54/27 56/57/27 54/55/27
f 57/56/28 58/59/28 56/57/28
f 57/56/29 59/61/29 60/58/29
f 61/60/30 62/66/30 60/58/30
f 4/64/32 3/72/36 6/73/37
f 6/73/37 8/74/38 10/75/39
f 10/75/39 12/76/40 14/77/41
f 14/77/41 16/78/31 18/79/31
f 18/79/31 20/80/42 22/81/43
f 22/81/43 24/82/44 26/83/45
f 26/83/45 28/84/46 30/85/31
f 30/85/31 32/86/47 34/62/31
f 34/62/31 36/87/48 38/88/31
f 38/88/31 40/89/49 42/90/50
f 42/90/50 44/91/51 46/92/52
f 46/92/52 48/93/53 50/63/31
f 50/63/31 52/94/31 54/95/54
f 54/95/54 56/96/55 58/97/56
f 58/97/56 60/98/57 62/99/58
f 62/99/58 63/100/59 4/64/32
f 4/64/32 6/73/37 10/75/39
f 10/75/39 14/77/41 18/79/31
f 18/79/31 22/81/43 26/83/45
f 26/83/45 30/85/31 34/62/31
f 34/62/31 38/88/31 42/90/50
f 42/90/50 46/92/52 50/63/31
f 50/63/31 54/95/54 58/97/56
f 58/97/56 62/99/58 4/64/32
f 4/64/32 10/75/39 18/79/31
f 18/79/31 26/83/45 34/62/31
f 34/62/31 42/90/50 50/63/31
f 50/63/31 58/97/56 4/64/32
f 4/64/32 18/79/31 34/62/31
f 61/60/33 64/68/33 63/65/33
f 1/67/34 4/101/34 63/65/34
f 2/71/35 1/102/60 64/103/35
f 64/103/35 61/104/61 59/105/62
f 59/105/62 57/106/63 55/107/64
f 55/107/64 53/108/65 51/109/35
f 51/109/35 49/110/66 47/111/67
f 47/111/67 45/112/68 43/113/69
f 43/113/69 41/114/70 39/115/71
f 39/115/71 37/116/72 35/69/35
f 35/69/35 33/117/60 31/118/73
f 31/118/73 29/119/74 27/120/35
f 27/120/35 25/121/75 23/122/76
f 23/122/76 21/123/65 19/70/35
f 19/70/35 17/124/77 15/125/78
f 15/125/78 13/126/68 11/127/73
f 11/127/73 9/128/79 7/129/73
f 7/129/73 5/130/80 2/71/35
f 2/71/35 64/103/35 59/105/62
f 59/105/62 55/107/64 51/109/35
f 51/109/35 47/111/67 43/113/69
f 43/113/69 39/115/71 35/69/35
f 35/69/35 31/118/73 27/120/35
f 27/120/35 23/122/76 19/70/35
f 19/70/35 15/125/78 11/127/73
f 11/127/73 7/129/73 2/71/35
f 2/71/35 59/105/62 51/109/35
f 51/109/35 43/113/69 35/69/35
f 35/69/35 27/120/35 19/70/35
f 19/70/35 11/127/73 2/71/35
f 2/71/35 51/109/35 35/69/35
o Cylinder.001
v -0.000000 1.468525 -0.008995
v 0.002793 1.468800 -0.008995
v 0.002793 1.468144 1.546689
v 0.000000 1.467869 1.546689
v 0.005479 1.469614 -0.008994
v 0.005479 1.468958 1.546690
v 0.007955 1.470938 -0.008994
v 0.007955 1.470282 1.546690
v 0.010124 1.472718 -0.008993
v 0.010124 1.472062 1.546691
v 0.011905 1.474888 -0.008992
v 0.011905 1.474232 1.546692
v 0.013228 1.477363 -0.008991
v 0.013228 1.476707 1.546693
v 0.014043 1.480049 -0.008990
v 0.014043 1.479393 1.546694
v 0.014318 1.482842 -0.008989
v 0.014318 1.482186 1.546695
v 0.014043 1.485636 -0.008988
v 0.014043 1.484980 1.546696
v 0.013228 1.488322 -0.008986
v 0.013228 1.487666 1.546697
v 0.011905 1.490797 -0.008985
v 0.011905 1.490141 1.546698
v 0.010124 1.492967 -0.008984
v 0.010124 1.492311 1.546699
v 0.007955 1.494747 -0.008984
v 0.007955 1.494091 1.546700
v 0.005479 1.496070 -0.008983
v 0.005479 1.495414 1.546701
v 0.002793 1.496885 -0.008983
v 0.002793 1.496229 1.546701
v -0.000000 1.497160 -0.008983
v 0.000000 1.496504 1.546701
v -0.002793 1.496885 -0.008983
v -0.002793 1.496229 1.546701
v -0.005479 1.496070 -0.008983
v -0.005479 1.495414 1.546701
v -0.007955 1.494747 -0.008984
v -0.007955 1.494091 1.546700
v -0.010124 1.492967 -0.008984
v -0.010124 1.492311 1.546699
v -0.011905 1.490797 -0.008985
v -0.011905 1.490141 1.546698
v -0.013228 1.488322 -0.008986
v -0.013228 1.487666 1.546697
v -0.014043 1.485636 -0.008988
v -0.014043 1.484980 1.546696
v -0.014318 1.482842 -0.008989
v -0.014318 1.482186 1.546695
v -0.014043 1.480049 -0.008990
v -0.014043 1.479393 1.546694
v -0.013228 1.477363 -0.008991
v -0.013228 1.476707 1.546693
v -0.011905 1.474888 -0.008992
v -0.011905 1.474232 1.546692
v -0.010124 1.472718 -0.008993
v -0.010124 1.472062 1.546691
v -0.007955 1.470938 -0.008994
v -0.007955 1.470282 1.546690
v -0.005479 1.469614 -0.008994
v -0.005479 1.468958 1.546690
v -0.002793 1.468144 1.546689
v -0.002793 1.468800 -0.008995
vn 0.0980 -0.9952 -0.0004
vn 0.2901 -0.9570 -0.0004
vn 0.2900 -0.9570 -0.0004
vn 0.4715 -0.8818 -0.0004
vn 0.6344 -0.7730 -0.0003
vn 0.7730 -0.6344 -0.0003
vn 0.8819 -0.4714 -0.0002
vn 0.9569 -0.2904 -0.0001
vn 0.9952 -0.0980 -0.0000
vn 0.9952 0.0980 -0.0000
vn 0.9569 0.2904 0.0001
vn 0.8819 0.4714 0.0002
vn 0.7730 0.6344 0.0003
vn 0.6344 0.7730 0.0003
vn 0.4713 0.8820 0.0004
vn 0.2903 0.9569 0.0004
vn 0.2904 0.9569 0.0004
vn 0.0980 0.9952 0.0004
vn -0.0980 0.9952 0.0004
vn -0.2903 0.9569 0.0004
vn -0.2904 0.9569 0.0004
vn -0.4713 0.8820 0.0004
vn -0.6344 0.7730 0.0003
vn -0.7730 0.6344 0.0003
vn -0.8819 0.4714 0.0002
vn -0.9569 0.2904 0.0001
vn -0.9952 0.0980 -0.0000
vn -0.9952 -0.0980 -0.0000
vn -0.9569 -0.2904 -0.0001
vn -0.8819 -0.4714 -0.0002
vn -0.7730 -0.6344 -0.0003
vn -0.6344 -0.7730 -0.0003
vn -0.4715 -0.8818 -0.0004
vn -0.0000 -0.0004 1.0000
vn -0.0000 -0.0005 1.0000
vn -0.2901 -0.9570 -0.0004
vn -0.2900 -0.9570 -0.0004
vn -0.0980 -0.9952 -0.0004
vn -0.0000 0.0004 -1.0000
vn 0.0001 0.0005 -1.0000
vn -0.0000 0.0003 -1.0000
vn 0.0002 -0.0017 1.0000
vn -0.0001 -0.0002 1.0000
vn 0.0009 -0.0015 1.0000
vn -0.0003 -0.0002 1.0000
vn -0.0000 -0.0003 1.0000
vn -0.0006 -0.0003 1.0000
vn 0.0004 -0.0003 1.0000
vn 0.0003 -0.0002 1.0000
vn 0.0006 -0.0002 1.0000
vn -0.0002 -0.0008 1.0000
vn 0.0002 -0.0000 1.0000
vn -0.0002 -0.0000 1.0000
vn 0.0002 -0.0008 1.0000
vn -0.0006 -0.0002 1.0000
vn -0.0003 -0.0003 1.0000
vn 0.0006 -0.0003 1.0000
vn -0.0009 -0.0015 1.0000
vn 0.0001 -0.0002 1.0000
vn -0.0002 -0.0017 1.0000
vn -0.0000 -0.0000 -1.0000
vn -0.0009 -0.0016 -1.0000
vn -0.0001 0.0004 -1.0000
vn -0.0003 0.0003 -1.0000
vn -0.0002 0.0003 -1.0000
vn -0.0001 0.0003 -1.0000
vn 0.0005 0.0004 -1.0000
vn -0.0015 0.0012 -1.0000
vn -0.0001 0.0005 -1.0000
vn -0.0012 0.0014 -1.0000
vn 0.0001 0.0002 -1.0000
vn -0.0005 0.0017 -1.0000
vn -0.0000 0.0005 -1.0000
vn 0.0005 0.0017 -1.0000
vn 0.0012 0.0014 -1.0000
vn 0.0006 0.0008 -1.0000
vn 0.0015 0.0012 -1.0000
vn 0.0001 0.0004 -1.0000
vn 0.0001 0.0003 -1.0000
vn 0.0003 0.0003 -1.0000
vn 0.0009 -0.0016 -1.0000
vt 0.968750 0.500000
vt 1.000000 1.000000
vt 1.000000 0.500000
vt 0.937500 0.500000
vt 0.968750 1.000000
vt 0.906250 1.000000
vt 0.937500 1.000000
vt 0.875000 0.500000
vt 0.906250 0.500000
vt 0.843750 0.500000
vt 0.875000 1.000000
vt 0.812500 0.500000
vt 0.843750 1.000000
vt 0.781250 0.500000
vt 0.812500 1.000000
vt 0.750000 1.000000
vt 0.781250 1.000000
vt 0.750000 0.500000
vt 0.718750 1.000000
vt 0.687500 0.500000
vt 0.718750 0.500000
vt 0.656250 0.500000
vt 0.687500 1.000000
vt 0.625000 0.500000
vt 0.656250 1.000000
vt 0.593750 1.000000
vt 0.625000 1.000000
vt 0.562500 0.500000
vt 0.593750 0.500000
vt 0.531250 1.000000
vt 0.562500 1.000000
vt 0.531250 0.500000
vt 0.500000 1.000000
vt 0.468750 0.500000
vt 0.500000 0.500000
vt 0.437500 0.500000
vt 0.468750 1.000000
vt 0.406250 1.000000
vt 0.437500 1.000000
vt 0.375000 0.500000
vt 0.406250 0.500000
vt 0.343750 1.000000
vt 0.375000 1.000000
vt 0.312500 0.500000
vt 0.343750 0.500000
vt 0.281250 1.000000
vt 0.312500 1.000000
vt 0.250000 0.500000
vt 0.281250 0.500000
vt 0.218750 0.500000
vt 0.250000 1.000000
vt 0.187500 0.500000
vt 0.218750 1.000000
vt 0.156250 0.500000
vt 0.187500 1.000000
vt 0.125000 0.500000
vt 0.156250 1.000000
vt 0.093750 1.000000
vt 0.125000 1.000000
vt 0.062500 0.500000
vt 0.093750 0.500000
vt 0.250000 0.010000
vt 0.010000 0.250000
vt 0.250000 0.490000
vt 0.031250 1.000000
vt 0.062500 1.000000
vt 0.000000 0.500000
vt 0.031250 0.500000
vt 0.703178 0.014612
vt 0.985388 0.203178
vt 0.796822 0.485388
vt 0.296822 0.485388
vt 0.341844 0.471731
vt 0.383337 0.449553
vt 0.419706 0.419706
vt 0.449553 0.383337
vt 0.471731 0.341844
vt 0.485388 0.296822
vt 0.490000 0.250000
vt 0.485388 0.203178
vt 0.471731 0.158156
vt 0.449553 0.116663
vt 0.419706 0.080294
vt 0.383337 0.050447
vt 0.341844 0.028269
vt 0.296822 0.014612
vt 0.203178 0.014612
vt 0.158156 0.028269
vt 0.116663 0.050447
vt 0.080294 0.080294
vt 0.050447 0.116663
vt 0.028269 0.158156
vt 0.014612 0.203178
vt 0.014612 0.296822
vt 0.028269 0.341844
vt 0.050447 0.383337
vt 0.080294 0.419706
vt 0.116663 0.449553
vt 0.158156 0.471731
vt 0.203178 0.485388
vt 0.000000 1.000000
vt 0.750000 0.490000
vt 0.703178 0.485388
vt 0.658156 0.471731
vt 0.616663 0.449553
vt 0.580294 0.419706
vt 0.550447 0.383337
vt 0.528269 0.341844
vt 0.514612 0.296822
vt 0.510000 0.250000
vt 0.514612 0.203178
vt 0.528269 0.158156
vt 0.550447 0.116663
vt 0.580294 0.080294
vt 0.616663 0.050447
vt 0.658156 0.028269
vt 0.750000 0.010000
vt 0.796822 0.014612
vt 0.841844 0.028269
vt 0.883337 0.050447
vt 0.919706 0.080294
vt 0.949553 0.116663
vt 0.971731 0.158156
vt 0.990000 0.250000
vt 0.985388 0.296822
vt 0.971731 0.341844
vt 0.949553 0.383337
vt 0.919706 0.419706
vt 0.883337 0.449553
vt 0.841844 0.471731
s 1
f 66/131/81 68/132/81 65/133/81
f 69/134/82 67/135/83 66/131/82
f 69/134/84 72/136/84 70/137/84
f 73/138/85 72/136/85 71/139/85
f 75/140/86 74/141/86 73/138/86
f 77/142/87 76/143/87 75/140/87
f 79/144/88 78/145/88 77/142/88
f 79/144/89 82/146/89 80/147/89
f 81/148/90 84/149/90 82/146/90
f 85/150/91 84/149/91 83/151/91
f 87/152/92 86/153/92 85/150/92
f 89/154/93 88/155/93 87/152/93
f 89/154/94 92/156/94 90/157/94
f 93/158/95 92/156/95 91/159/95
f 93/158/96 96/160/97 94/161/97
f 95/162/98 98/163/98 96/160/98
f 99/164/99 98/163/99 97/165/99
f 101/166/100 100/167/101 99/164/100
f 101/166/102 104/168/102 102/169/102
f 105/170/103 104/168/103 103/171/103
f 105/170/104 108/172/104 106/173/104
f 109/174/105 108/172/105 107/175/105
f 109/174/106 112/176/106 110/177/106
f 113/178/107 112/176/107 111/179/107
f 115/180/108 114/181/108 113/178/108
f 117/182/109 116/183/109 115/180/109
f 119/184/110 118/185/110 117/182/110
f 121/186/111 120/187/111 119/184/111
f 121/186/112 124/188/112 122/189/112
f 125/190/113 124/188/113 123/191/113
f 98/192/114 114/193/114 68/194/115
f 125/190/116 127/195/117 126/196/117
f 65/197/118 127/195/118 128/198/118
f 99/199/119 83/200/120 66/201/121
f 66/131/81 67/135/81 68/132/81
f 69/134/82 70/137/83 67/135/83
f 69/134/84 71/139/84 72/136/84
f 73/138/85 74/141/85 72/136/85
f 75/140/86 76/143/86 74/141/86
f 77/142/87 78/145/87 76/143/87
f 79/144/88 80/147/88 78/145/88
f 79/144/89 81/148/89 82/146/89
f 81/148/90 83/151/90 84/149/90
f 85/150/91 86/153/91 84/149/91
f 87/152/92 88/155/92 86/153/92
f 89/154/93 90/157/93 88/155/93
f 89/154/94 91/159/94 92/156/94
f 93/158/95 94/161/95 92/156/95
f 93/158/96 95/162/96 96/160/97
f 95/162/98 97/165/98 98/163/98
f 99/164/99 100/167/99 98/163/99
f 101/166/100 102/169/101 100/167/101
f 101/166/102 103/171/102 104/168/102
f 105/170/103 106/173/103 104/168/103
f 105/170/104 107/175/104 108/172/104
f 109/174/105 110/177/105 108/172/105
f 109/174/106 111/179/106 112/176/106
f 113/178/107 114/181/107 112/176/107
f 115/180/108 116/183/108 114/181/108
f 117/182/109 118/185/109 116/183/109
f 119/184/110 120/187/110 118/185/110
f 121/186/111 122/189/111 120/187/111
f 121/186/112 123/191/112 124/188/112
f 125/190/113 126/196/113 124/188/113
f 68/194/115 67/202/122 70/203/123
f 70/203/123 72/204/124 74/205/114
f 74/205/114 76/206/125 78/207/126
f 78/207/126 80/208/126 82/209/114
f 82/209/114 84/210/127 86/211/128
f 86/211/128 88/212/129 90/213/114
f 90/213/114 92/214/130 94/215/131
f 94/215/131 96/216/132 98/192/114
f 98/192/114 100/217/133 102/218/134
f 102/218/134 104/219/135 106/220/114
f 106/220/114 108/221/125 110/222/136
f 110/222/136 112/223/137 114/193/114
f 114/193/114 116/224/126 118/225/126
f 118/225/126 120/226/129 122/227/114
f 122/227/114 124/228/138 126/229/139
f 126/229/139 127/230/140 68/194/115
f 68/194/115 70/203/123 74/205/114
f 74/205/114 78/207/126 82/209/114
f 82/209/114 86/211/128 90/213/114
f 90/213/114 94/215/131 98/192/114
f 98/192/114 102/218/134 106/220/114
f 106/220/114 110/222/136 114/193/114
f 114/193/114 118/225/126 122/227/114
f 122/227/114 126/229/139 68/194/115
f 68/194/115 74/205/114 82/209/114
f 82/209/114 90/213/114 98/192/114
f 98/192/114 106/220/114 114/193/114
f 114/193/114 122/227/114 68/194/115
f 68/194/115 82/209/114 98/192/114
f 125/190/116 128/198/116 127/195/117
f 65/197/118 68/231/118 127/195/118
f 66/201/121 65/232/141 128/233/119
f 128/233/119 125/234/142 123/235/143
f 123/235/143 121/236/144 119/237/145
f 119/237/145 117/238/146 115/239/119
f 115/239/119 113/240/119 111/241/147
f 111/241/147 109/242/148 107/243/149
f 107/243/149 105/244/150 103/245/151
f 103/245/151 101/246/152 99/199/119
f 99/199/119 97/247/141 95/248/153
f 95/248/153 93/249/154 91/250/120
f 91/250/120 89/251/155 87/252/156
f 87/252/156 85/253/157 83/200/120
f 83/200/120 81/254/119 79/255/158
f 79/255/158 77/256/159 75/257/158
f 75/257/158 73/258/160 71/259/153
f 71/259/153 69/260/161 66/201/121
f 66/201/121 128/233/119 123/235/143
f 123/235/143 119/237/145 115/239/119
f 115/239/119 111/241/147 107/243/149
f 107/243/149 103/245/151 99/199/119
f 99/199/119 95/248/153 91/250/120
f 91/250/120 87/252/156 83/200/120
f 83/200/120 79/255/158 75/257/158
f 75/257/158 71/259/153 66/201/121
f 66/201/121 123/235/143 115/239/119
f 115/239/119 107/243/149 99/199/119
f 99/199/119 91/250/120 83/200/120
f 83/200/120 75/257/158 66/201/121
f 66/201/121 115/239/119 99/199/119
o Cylinder.002
v -0.000000 1.533540 -0.029433
v 0.002793 1.533539 -0.029158
v 0.002793 -1.555776 -0.030461
v -0.000000 -1.555776 -0.030736
v 0.005479 1.533539 -0.028343
v 0.005479 -1.555777 -0.029646
v 0.007955 1.533539 -0.027020
v 0.007955 -1.555777 -0.028323
v 0.010124 1.533538 -0.025240
v 0.010124 -1.555778 -0.026543
v 0.011905 1.533537 -0.023070
v 0.011905 -1.555779 -0.024373
v 0.013228 1.533536 -0.020595
v 0.013228 -1.555780 -0.021898
v 0.014043 1.533535 -0.017909
v 0.014043 -1.555781 -0.019212
v 0.014318 1.533534 -0.015115
v 0.014318 -1.555782 -0.016419
v 0.014043 1.533532 -0.012322
v 0.014043 -1.555783 -0.013625
v 0.013228 1.533531 -0.009636
v 0.013228 -1.555785 -0.010939
v 0.011905 1.533530 -0.007161
v 0.011905 -1.555786 -0.008464
v 0.010124 1.533529 -0.004991
v 0.010124 -1.555786 -0.006294
v 0.007955 1.533529 -0.003211
v 0.007955 -1.555787 -0.004514
v 0.005479 1.533528 -0.001888
v 0.005479 -1.555788 -0.003191
v 0.002793 1.533528 -0.001073
v 0.002793 -1.555788 -0.002376
v -0.000000 1.533527 -0.000798
v -0.000000 -1.555788 -0.002101
v -0.002793 1.533528 -0.001073
v -0.002793 -1.555788 -0.002376
v -0.005479 1.533528 -0.001888
v -0.005479 -1.555788 -0.003191
v -0.007955 1.533529 -0.003211
v -0.007955 -1.555787 -0.004514
v -0.010124 1.533529 -0.004991
v -0.010124 -1.555786 -0.006294
v -0.011905 1.533530 -0.007161
v -0.011905 -1.555786 -0.008464
v -0.013228 1.533531 -0.009636
v -0.013228 -1.555785 -0.010939
v -0.014043 1.533532 -0.012322
v -0.014043 -1.555783 -0.013625
v -0.014318 1.533534 -0.015115
v -0.014318 -1.555782 -0.016419
v -0.014043 1.533535 -0.017909
v -0.014043 -1.555781 -0.019212
v -0.013228 1.533536 -0.020595
v -0.013228 -1.555780 -0.021898
v -0.011905 1.533537 -0.023070
v -0.011905 -1.555779 -0.024373
v -0.010124 1.533538 -0.025240
v -0.010124 -1.555778 -0.026543
v -0.007955 1.533539 -0.027020
v -0.007955 -1.555777 -0.028323
v -0.005479 1.533539 -0.028343
v -0.005479 -1.555777 -0.029646
v -0.002793 -1.555776 -0.030461
v -0.002793 1.533539 -0.029158
vn 0.0980 0.0004 -0.9952
vn 0.2904 0.0004 -0.9569
vn 0.4713 0.0004 -0.8820
vn 0.6344 0.0003 -0.7730
vn 0.7730 0.0003 -0.6344
vn 0.8819 0.0002 -0.4714
vn 0.9569 0.0001 -0.2904
vn 0.9952 -0.0000 -0.0980
vn 0.9952 -0.0000 0.0980
vn 0.9569 -0.0001 0.2904
vn 0.8819 -0.0002 0.4714
vn 0.7730 -0.0003 0.6344
vn 0.6344 -0.0003 0.7730
vn 0.4713 -0.0004 0.8820
vn 0.2904 -0.0004 0.9569
vn 0.0980 -0.0004 0.9952
vn -0.0980 -0.0004 0.9952
vn -0.2904 -0.0004 0.9569
vn -0.4713 -0.0004 0.8820
vn -0.6344 -0.0003 0.7730
vn -0.7730 -0.0003 0.6344
vn -0.8819 -0.0002 0.4714
vn -0.9569 -0.0001 0.2904
vn -0.9952 -0.0000 0.0980
vn -0.9952 -0.0000 -0.0980
vn -0.9569 0.0001 -0.2904
vn -0.8819 0.0002 -0.4714
vn -0.7730 0.0003 -0.6344
vn -0.6344 0.0003 -0.7730
vn -0.4713 0.0004 -0.8820
vn -0.0000 -1.0000 -0.0005
vn -0.0000 -1.0000 -0.0004
vn -0.2904 0.0004 -0.9569
vn -0.0980 0.0004 -0.9952
vn -0.0000 1.0000 0.0005
vn -0.0001 1.0000 0.0004
vn 0.0002 -1.0000 -0.0018
vn -0.0001 -1.0000 -0.0004
vn 0.0009 -1.0000 -0.0018
vn -0.0000 -1.0000 -0.0003
vn -0.0002 -1.0000 -0.0003
vn -0.0001 -1.0000 -0.0003
vn 0.0016 -1.0000 -0.0002
vn -0.0006 -1.0000 -0.0007
vn -0.0015 -1.0000 -0.0012
vn -0.0001 -1.0000 -0.0005
vn 0.0004 -1.0000 -0.0000
vn -0.0002 -1.0000 -0.0009
vn -0.0000 -1.0000 -0.0000
vn 0.0002 -1.0000 -0.0008
vn -0.0004 -1.0000 -0.0000
vn 0.0001 -1.0000 -0.0005
vn 0.0015 -1.0000 -0.0012
vn 0.0006 -1.0000 -0.0007
vn -0.0016 -1.0000 -0.0002
vn 0.0001 -1.0000 -0.0003
vn 0.0002 -1.0000 -0.0003
vn -0.0009 -1.0000 -0.0018
vn 0.0001 -1.0000 -0.0004
vn -0.0002 -1.0000 -0.0018
vn -0.0000 1.0000 0.0036
vn -0.0000 1.0000 0.0001
vn -0.0000 1.0000 0.0003
vn 0.0001 1.0000 0.0005
vn -0.0004 1.0000 -0.0000
vn -0.0002 1.0000 0.0003
vn -0.0003 1.0000 0.0002
vn -0.0000 1.0000 0.0004
vn 0.0020 1.0000 0.0005
vn -0.0003 1.0000 0.0005
vn -0.0001 1.0000 0.0006
vn -0.0001 1.0000 0.0005
vn -0.0011 1.0000 0.0012
vn 0.0001 1.0000 0.0001
vn -0.0006 1.0000 0.0024
vn -0.0000 1.0000 0.0006
vn 0.0006 1.0000 0.0021
vn 0.0011 1.0000 0.0012
vn 0.0003 1.0000 0.0005
vn -0.0020 1.0000 0.0005
vn -0.0004 1.0000 0.0005
vn 0.0003 1.0000 -0.0000
vn 0.0004 1.0000 -0.0000
vn -0.0003 1.0000 0.0009
vn -0.0000 1.0000 -0.0000
vt 0.968750 0.500000
vt 1.000000 1.000000
vt 1.000000 0.500000
vt 0.937500 0.500000
vt 0.968750 1.000000
vt 0.906250 1.000000
vt 0.937500 1.000000
vt 0.875000 0.500000
vt 0.906250 0.500000
vt 0.843750 0.500000
vt 0.875000 1.000000
vt 0.812500 0.500000
vt 0.843750 1.000000
vt 0.781250 1.000000
vt 0.812500 1.000000
vt 0.781250 0.500000
vt 0.750000 1.000000
vt 0.718750 0.500000
vt 0.750000 0.500000
vt 0.687500 0.500000
vt 0.718750 1.000000
vt 0.656250 0.500000
vt 0.687500 1.000000
vt 0.625000 1.000000
vt 0.656250 1.000000
vt 0.625000 0.500000
vt 0.593750 1.000000
vt 0.562500 0.500000
vt 0.593750 0.500000
vt 0.531250 1.000000
vt 0.562500 1.000000
vt 0.500000 0.500000
vt 0.531250 0.500000
vt 0.468750 1.000000
vt 0.500000 1.000000
vt 0.437500 0.500000
vt 0.468750 0.500000
vt 0.406250 1.000000
vt 0.437500 1.000000
vt 0.375000 0.500000
vt 0.406250 0.500000
vt 0.343750 0.500000
vt 0.375000 1.000000
vt 0.312500 0.500000
vt 0.343750 1.000000
vt 0.281250 1.000000
vt 0.312500 1.000000
vt 0.281250 0.500000
vt 0.250000 1.000000
vt 0.218750 0.500000
vt 0.250000 0.500000
vt 0.187500 0.500000
vt 0.218750 1.000000
vt 0.156250 0.500000
vt 0.187500 1.000000
vt 0.125000 0.500000
vt 0.156250 1.000000
vt 0.093750 1.000000
vt 0.125000 1.000000
vt 0.062500 0.500000
vt 0.093750 0.500000
vt 0.250000 0.010000
vt 0.010000 0.250000
vt 0.250000 0.490000
vt 0.031250 1.000000
vt 0.062500 1.000000
vt 0.031250 0.500000
vt 0.000000 1.000000
vt 0.703178 0.014612
vt 0.985388 0.203178
vt 0.796822 0.485388
vt 0.296822 0.485388
vt 0.341844 0.471731
vt 0.383337 0.449553
vt 0.419706 0.419706
vt 0.449553 0.383337
vt 0.471731 0.341844
vt 0.485388 0.296822
vt 0.490000 0.250000
vt 0.485388 0.203178
vt 0.471731 0.158156
vt 0.449553 0.116663
vt 0.419706 0.080294
vt 0.383337 0.050447
vt 0.341844 0.028269
vt 0.296822 0.014612
vt 0.203178 0.014612
vt 0.158156 0.028269
vt 0.116663 0.050447
vt 0.080294 0.080294
vt 0.050447 0.116663
vt 0.028269 0.158156
vt 0.014612 0.203178
vt 0.014612 0.296822
vt 0.028269 0.341844
vt 0.050447 0.383337
vt 0.080294 0.419706
vt 0.116663 0.449553
vt 0.158156 0.471731
vt 0.203178 0.485388
vt 0.000000 0.500000
vt 0.750000 0.490000
vt 0.703178 0.485388
vt 0.658156 0.471731
vt 0.616663 0.449553
vt 0.580294 0.419706
vt 0.550447 0.383337
vt 0.528269 0.341844
vt 0.514612 0.296822
vt 0.510000 0.250000
vt 0.514612 0.203178
vt 0.528269 0.158156
vt 0.550447 0.116663
vt 0.580294 0.080294
vt 0.616663 0.050447
vt 0.658156 0.028269
vt 0.750000 0.010000
vt 0.796822 0.014612
vt 0.841844 0.028269
vt 0.883337 0.050447
vt 0.919706 0.080294
vt 0.949553 0.116663
vt 0.971731 0.158156
vt 0.990000 0.250000
vt 0.985388 0.296822
vt 0.971731 0.341844
vt 0.949553 0.383337
vt 0.919706 0.419706
vt 0.883337 0.449553
vt 0.841844 0.471731
s 1
f 130/261/162 132/262/162 129/263/162
f 133/264/163 131/265/163 130/261/163
f 133/264/164 136/266/164 134/267/164
f 137/268/165 136/266/165 135/269/165
f 139/270/166 138/271/166 137/268/166
f 141/272/167 140/273/167 139/270/167
f 141/272/168 144/274/168 142/275/168
f 143/276/169 146/277/169 144/274/169
f 147/278/170 146/277/170 145/279/170
f 149/280/171 148/281/171 147/278/171
f 151/282/172 150/283/172 149/280/172
f 151/282/173 154/284/173 152/285/173
f 153/286/174 156/287/174 154/284/174
f 157/288/175 156/287/175 155/289/175
f 157/288/176 160/290/176 158/291/176
f 161/292/177 160/290/177 159/293/177
f 161/292/178 164/294/178 162/295/178
f 165/296/179 164/294/179 163/297/179
f 165/296/180 168/298/180 166/299/180
f 169/300/181 168/298/181 167/301/181
f 171/302/182 170/303/182 169/300/182
f 173/304/183 172/305/183 171/302/183
f 173/304/184 176/306/184 174/307/184
f 175/308/185 178/309/185 176/306/185
f 179/310/186 178/309/186 177/311/186
f 181/312/187 180/313/187 179/310/187
f 183/314/188 182/315/188 181/312/188
f 185/316/189 184/317/189 183/314/189
f 185/316/190 188/318/190 186/319/190
f 189/320/191 188/318/191 187/321/191
f 162/322/192 178/323/193 132/324/192
f 189/320/194 191/325/194 190/326/194
f 192/327/195 132/328/195 191/325/195
f 163/329/196 147/330/197 130/331/196
f 130/261/162 131/265/162 132/262/162
f 133/264/163 134/267/163 131/265/163
f 133/264/164 135/269/164 136/266/164
f 137/268/165 138/271/165 136/266/165
f 139/270/166 140/273/166 138/271/166
f 141/272/167 142/275/167 140/273/167
f 141/272/168 143/276/168 144/274/168
f 143/276/169 145/279/169 146/277/169
f 147/278/170 148/281/170 146/277/170
f 149/280/171 150/283/171 148/281/171
f 151/282/172 152/285/172 150/283/172
f 151/282/173 153/286/173 154/284/173
f 153/286/174 155/289/174 156/287/174
f 157/288/175 158/291/175 156/287/175
f 157/288/176 159/293/176 160/290/176
f 161/292/177 162/295/177 160/290/177
f 161/292/178 163/297/178 164/294/178
f 165/296/179 166/299/179 164/294/179
f 165/296/180 167/301/180 168/298/180
f 169/300/181 170/303/181 168/298/181
f 171/302/182 172/305/182 170/303/182
f 173/304/183 174/307/183 172/305/183
f 173/304/184 175/308/184 176/306/184
f 175/308/185 177/311/185 178/309/185
f 179/310/186 180/313/186 178/309/186
f 181/312/187 182/315/187 180/313/187
f 183/314/188 184/317/188 182/315/188
f 185/316/189 186/319/189 184/317/189
f 185/316/190 187/321/190 188/318/190
f 189/320/191 190/326/191 188/318/191
f 132/324/192 131/332/198 134/333/199
f 134/333/199 136/334/200 138/335/193
f 138/335/193 140/336/201 142/337/202
f 142/337/202 144/338/203 146/339/193
f 146/339/193 148/340/204 150/341/205
f 150/341/205 152/342/206 154/343/207
f 154/343/207 156/344/208 158/345/209
f 158/345/209 160/346/210 162/322/192
f 162/322/192 164/347/210 166/348/211
f 166/348/211 168/349/212 170/350/213
f 170/350/213 172/351/214 174/352/215
f 174/352/215 176/353/216 178/323/193
f 178/323/193 180/354/217 182/355/218
f 182/355/218 184/356/201 186/357/193
f 186/357/193 188/358/219 190/359/220
f 190/359/220 191/360/221 132/324/192
f 132/324/192 134/333/199 138/335/193
f 138/335/193 142/337/202 146/339/193
f 146/339/193 150/341/205 154/343/207
f 154/343/207 158/345/209 162/322/192
f 162/322/192 166/348/211 170/350/213
f 170/350/213 174/352/215 178/323/193
f 178/323/193 182/355/218 186/357/193
f 186/357/193 190/359/220 132/324/192
f 132/324/192 138/335/193 146/339/193
f 146/339/193 154/343/207 162/322/192
f 162/322/192 170/350/213 178/323/193
f 178/323/193 186/357/193 132/324/192
f 132/324/192 146/339/193 162/322/192
f 189/320/194 192/327/194 191/325/194
f 192/327/195 129/361/195 132/328/195
f 130/331/196 129/362/222 192/363/223
f 192/363/223 189/364/224 187/365/225
f 187/365/225 185/366/226 183/367/227
f 183/367/227 181/368/228 179/369/229
f 179/369/229 177/370/230 175/371/231
f 175/371/231 173/372/232 171/373/233
f 171/373/233 169/374/234 167/375/235
f 167/375/235 165/376/236 163/329/196
f 163/329/196 161/377/222 159/378/237
f 159/378/237 157/379/238 155/380/229
f 155/380/229 153/381/239 151/382/240
f 151/382/240 149/383/225 147/330/197
f 147/330/197 145/384/241 143/385/242
f 143/385/242 141/386/243 139/387/233
f 139/387/233 137/388/244 135/389/245
f 135/389/245 133/390/246 130/331/196
f 130/331/196 192/363/223 187/365/225
f 187/365/225 183/367/227 179/369/229
f 179/369/229 175/371/231 171/373/233
f 171/373/233 167/375/235 163/329/196
f 163/329/196 159/378/237 155/380/229
f 155/380/229 151/382/240 147/330/197
f 147/330/197 143/385/242 139/387/233
f 139/387/233 135/389/245 130/331/196
f 130/331/196 187/365/225 179/369/229
f 179/369/229 171/373/233 163/329/196
f 163/329/196 155/380/229 147/330/197
f 147/330/197 139/387/233 130/331/196
f 130/331/196 179/369/229 163/329/196
o Cylinder.003
v -0.000000 1.358056 -0.038362
v 0.004521 1.358056 -0.037917
v 0.004521 -1.380285 -0.039072
v -0.000000 -1.380284 -0.039518
v 0.008868 1.358055 -0.036598
v 0.008868 -1.380285 -0.037754
v 0.012874 1.358055 -0.034457
v 0.012874 -1.380286 -0.035612
v 0.016386 1.358053 -0.031575
v 0.016386 -1.380287 -0.032730
v 0.019268 1.358052 -0.028064
v 0.019268 -1.380289 -0.029219
v 0.021409 1.358050 -0.024057
v 0.021409 -1.380291 -0.025212
v 0.022728 1.358048 -0.019710
v 0.022728 -1.380292 -0.020865
v 0.023173 1.358047 -0.015189
v 0.023173 -1.380294 -0.016345
v 0.022728 1.358045 -0.010669
v 0.022728 -1.380296 -0.011824
v 0.021409 1.358043 -0.006322
v 0.021409 -1.380298 -0.007477
v 0.019268 1.358041 -0.002315
v 0.019268 -1.380300 -0.003470
v 0.016386 1.358040 0.001196
v 0.016386 -1.380301 0.000041
v 0.012874 1.358038 0.004078
v 0.012874 -1.380302 0.002923
v 0.008868 1.358037 0.006220
v 0.008868 -1.380303 0.005064
v 0.004521 1.358037 0.007538
v 0.004521 -1.380304 0.006383
v 0.000000 1.358037 0.007984
v 0.000000 -1.380304 0.006828
v -0.004521 1.358037 0.007538
v -0.004521 -1.380304 0.006383
v -0.008868 1.358037 0.006220
v -0.008868 -1.380303 0.005064
v -0.012874 1.358038 0.004078
v -0.012874 -1.380302 0.002923
v -0.016386 1.358040 0.001196
v -0.016386 -1.380301 0.000041
v -0.019268 1.358041 -0.002315
v -0.019268 -1.380300 -0.003470
v -0.021409 1.358043 -0.006322
v -0.021409 -1.380298 -0.007477
v -0.022728 1.358045 -0.010669
v -0.022728 -1.380296 -0.011824
v -0.023173 1.358047 -0.015189
v -0.023173 -1.380294 -0.016345
v -0.022728 1.358048 -0.019710
v -0.022728 -1.380292 -0.020865
v -0.021409 1.358050 -0.024057
v -0.021409 -1.380291 -0.025212
v -0.019268 1.358052 -0.028064
v -0.019268 -1.380289 -0.029219
v -0.016386 1.358053 -0.031575
v -0.016386 -1.380287 -0.032730
v -0.012874 1.358055 -0.034457
v -0.012874 -1.380286 -0.035612
v -0.008868 1.358055 -0.036598
v -0.008868 -1.380285 -0.037754
v -0.004521 -1.380285 -0.039072
v -0.004521 1.358056 -0.037917
vn 0.0980 0.0004 -0.9952
vn 0.0982 0.0004 -0.9952
vn 0.2904 0.0004 -0.9569
vn 0.2902 0.0004 -0.9570
vn 0.4714 0.0004 -0.8819
vn 0.4715 0.0004 -0.8819
vn 0.6344 0.0003 -0.7730
vn 0.7729 0.0003 -0.6345
vn 0.8820 0.0002 -0.4713
vn 0.9569 0.0001 -0.2904
vn 0.9952 -0.0000 -0.0980
vn 0.9952 -0.0000 0.0980
vn 0.9569 -0.0001 0.2904
vn 0.8820 -0.0002 0.4713
vn 0.7729 -0.0003 0.6345
vn 0.6344 -0.0003 0.7730
vn 0.4715 -0.0004 0.8819
vn 0.4714 -0.0004 0.8819
vn 0.2902 -0.0004 0.9570
vn 0.2904 -0.0004 0.9569
vn 0.0982 -0.0004 0.9952
vn 0.0980 -0.0004 0.9952
vn -0.0982 -0.0004 0.9952
vn -0.0980 -0.0004 0.9952
vn -0.2902 -0.0004 0.9570
vn -0.2904 -0.0004 0.9569
vn -0.4715 -0.0004 0.8819
vn -0.4714 -0.0004 0.8819
vn -0.6344 -0.0003 0.7730
vn -0.7729 -0.0003 0.6345
vn -0.8820 -0.0002 0.4713
vn -0.9569 -0.0001 0.2904
vn -0.9952 -0.0000 0.0980
vn -0.9952 -0.0000 -0.0980
vn -0.9569 0.0001 -0.2904
vn -0.8820 0.0002 -0.4713
vn -0.7729 0.0003 -0.6345
vn -0.6344 0.0003 -0.7730
vn -0.4714 0.0004 -0.8819
vn -0.4715 0.0004 -0.8819
vn -0.0000 -1.0000 -0.0004
vn -0.0000 -1.0000 -0.0003
vn -0.2904 0.0004 -0.9569
vn -0.2902 0.0004 -0.9570
vn -0.0980 0.0004 -0.9952
vn -0.0982 0.0004 -0.9952
vn -0.0000 1.0000 0.0004
vn -0.0004 -1.0000 0.0014
vn -0.0001 -1.0000 -0.0003
vn -0.0001 -1.0000 0.0002
vn -0.0001 -1.0000 -0.0004
vn -0.0003 -1.0000 -0.0003
vn 0.0009 -1.0000 -0.0005
vn 0.0001 -1.0000 -0.0004
vn -0.0001 -1.0000 -0.0005
vn -0.0008 -1.0000 -0.0009
vn 0.0003 -1.0000 -0.0002
vn -0.0001 -1.0000 -0.0009
vn 0.0001 -1.0000 -0.0009
vn -0.0003 -1.0000 -0.0002
vn 0.0008 -1.0000 -0.0009
vn 0.0001 -1.0000 -0.0005
vn -0.0009 -1.0000 -0.0005
vn 0.0003 -1.0000 -0.0003
vn 0.0001 -1.0000 -0.0002
vn 0.0001 -1.0000 0.0002
vn 0.0001 -1.0000 -0.0003
vn 0.0004 -1.0000 0.0014
vn -0.0000 1.0000 -0.0000
vn -0.0000 1.0000 0.0001
vn -0.0005 1.0000 -0.0009
vn -0.0011 1.0000 -0.0005
vn -0.0002 1.0000 0.0005
vn 0.0001 1.0000 0.0004
vn 0.0012 1.0000 0.0003
vn 0.0004 1.0000 0.0003
vn -0.0000 1.0000 0.0005
vn 0.0010 1.0000 -0.0007
vn -0.0001 1.0000 0.0006
vn -0.0003 1.0000 0.0012
vn -0.0000 1.0000 0.0003
vn 0.0003 1.0000 0.0012
vn -0.0010 1.0000 -0.0007
vn -0.0001 1.0000 0.0005
vn -0.0012 1.0000 0.0003
vn 0.0003 1.0000 0.0004
vn 0.0002 1.0000 0.0005
vn 0.0011 1.0000 -0.0005
vn 0.0005 1.0000 -0.0009
vt 0.968750 0.500000
vt 1.000000 1.000000
vt 1.000000 0.500000
vt 0.937500 0.500000
vt 0.968750 1.000000
vt 0.906250 1.000000
vt 0.937500 1.000000
vt 0.875000 0.500000
vt 0.906250 0.500000
vt 0.843750 1.000000
vt 0.875000 1.000000
vt 0.812500 0.500000
vt 0.843750 0.500000
vt 0.781250 1.000000
vt 0.812500 1.000000
vt 0.781250 0.500000
vt 0.750000 1.000000
vt 0.718750 0.500000
vt 0.750000 0.500000
vt 0.687500 0.500000
vt 0.718750 1.000000
vt 0.656250 0.500000
vt 0.687500 1.000000
vt 0.625000 1.000000
vt 0.656250 1.000000
vt 0.593750 0.500000
vt 0.625000 0.500000
vt 0.562500 0.500000
vt 0.593750 1.000000
vt 0.531250 1.000000
vt 0.562500 1.000000
vt 0.531250 0.500000
vt 0.500000 1.000000
vt 0.468750 0.500000
vt 0.500000 0.500000
vt 0.437500 0.500000
vt 0.468750 1.000000
vt 0.406250 0.500000
vt 0.437500 1.000000
vt 0.375000 1.000000
vt 0.406250 1.000000
vt 0.343750 0.500000
vt 0.375000 0.500000
vt 0.312500 1.000000
vt 0.343750 1.000000
vt 0.281250 0.500000
vt 0.312500 0.500000
vt 0.250000 0.500000
vt 0.281250 1.000000
vt 0.218750 0.500000
vt 0.250000 1.000000
vt 0.187500 0.500000
vt 0.218750 1.000000
vt 0.156250 1.000000
vt 0.187500 1.000000
vt 0.125000 0.500000
vt 0.156250 0.500000
vt 0.093750 1.000000
vt 0.125000 1.000000
vt 0.062500 0.500000
vt 0.093750 0.500000
vt 0.250000 0.010000
vt 0.010000 0.250000
vt 0.250000 0.490000
vt 0.031250 0.500000
vt 0.062500 1.000000
vt 0.000000 1.000000
vt 0.031250 1.000000
vt 0.703178 0.014612
vt 0.985388 0.203178
vt 0.796822 0.485388
vt 0.296822 0.485388
vt 0.341844 0.471731
vt 0.383337 0.449553
vt 0.419706 0.419706
vt 0.449553 0.383337
vt 0.471731 0.341844
vt 0.485388 0.296822
vt 0.490000 0.250000
vt 0.485388 0.203178
vt 0.471731 0.158156
vt 0.449553 0.116663
vt 0.419706 0.080294
vt 0.383337 0.050447
vt 0.341844 0.028269
vt 0.296822 0.014612
vt 0.203178 0.014612
vt 0.158156 0.028269
vt 0.116663 0.050447
vt 0.080294 0.080294
vt 0.050447 0.116663
vt 0.028269 0.158156
vt 0.014612 0.203178
vt 0.014612 0.296822
vt 0.028269 0.341844
vt 0.050447 0.383337
vt 0.080294 0.419706
vt 0.116663 0.449553
vt 0.158156 0.471731
vt 0.203178 0.485388
vt 0.000000 0.500000
vt 0.750000 0.490000
vt 0.703178 0.485388
vt 0.658156 0.471731
vt 0.616663 0.449553
vt 0.580294 0.419706
vt 0.550447 0.383337
vt 0.528269 0.341844
vt 0.514612 0.296822
vt 0.510000 0.250000
vt 0.514612 0.203178
vt 0.528269 0.158156
vt 0.550447 0.116663
vt 0.580294 0.080294
vt 0.616663 0.050447
vt 0.658156 0.028269
vt 0.750000 0.010000
vt 0.796822 0.014612
vt 0.841844 0.028269
vt 0.883337 0.050447
vt 0.919706 0.080294
vt 0.949553 0.116663
vt 0.971731 0.158156
vt 0.990000 0.250000
vt 0.985388 0.296822
vt 0.971731 0.341844
vt 0.949553 0.383337
vt 0.919706 0.419706
vt 0.883337 0.449553
vt 0.841844 0.471731
s 1
f 194/391/247 196/392/248 193/393/247
f 197/394/249 195/395/250 194/391/249
f 197/394/251 200/396/252 198/397/252
f 201/398/253 200/396/253 199/399/253
f 201/398/254 204/400/254 202/401/254
f 205/402/255 204/400/255 203/403/255
f 205/402/256 208/404/256 206/405/256
f 207/406/257 210/407/257 208/404/257
f 211/408/258 210/407/258 209/409/258
f 213/410/259 212/411/259 211/408/259
f 215/412/260 214/413/260 213/410/260
f 215/412/261 218/414/261 216/415/261
f 219/416/262 218/414/262 217/417/262
f 221/418/263 220/419/264 219/416/263
f 221/418/265 224/420/266 222/421/266
f 223/422/267 226/423/268 224/420/268
f 227/424/269 226/423/270 225/425/269
f 229/426/271 228/427/272 227/424/271
f 231/428/273 230/429/274 229/426/273
f 231/428/275 234/430/275 232/431/275
f 235/432/276 234/430/276 233/433/276
f 235/432/277 238/434/277 236/435/277
f 239/436/278 238/434/278 237/437/278
f 241/438/279 240/439/279 239/436/279
f 243/440/280 242/441/280 241/438/280
f 245/442/281 244/443/281 243/440/281
f 245/442/282 248/444/282 246/445/282
f 249/446/283 248/444/283 247/447/283
f 249/446/284 252/448/284 250/449/284
f 253/450/285 252/448/286 251/451/285
f 226/452/287 242/453/287 196/454/288
f 256/455/289 254/456/290 253/450/289
f 256/455/291 196/457/292 255/458/292
f 227/459/293 211/460/293 194/461/293
f 194/391/247 195/395/248 196/392/248
f 197/394/249 198/397/250 195/395/250
f 197/394/251 199/399/251 200/396/252
f 201/398/253 202/401/253 200/396/253
f 201/398/254 203/403/254 204/400/254
f 205/402/255 206/405/255 204/400/255
f 205/402/256 207/406/256 208/404/256
f 207/406/257 209/409/257 210/407/257
f 211/408/258 212/411/258 210/407/258
f 213/410/259 214/413/259 212/411/259
f 215/412/260 216/415/260 214/413/260
f 215/412/261 217/417/261 218/414/261
f 219/416/262 220/419/262 218/414/262
f 221/418/263 222/421/264 220/419/264
f 221/418/265 223/422/265 224/420/266
f 223/422/267 225/425/267 226/423/268
f 227/424/269 228/427/270 226/423/270
f 229/426/271 230/429/272 228/427/272
f 231/428/273 232/431/274 230/429/274
f 231/428/275 233/433/275 234/430/275
f 235/432/276 236/435/276 234/430/276
f 235/432/277 237/437/277 238/434/277
f 239/436/278 240/439/278 238/434/278
f 241/438/279 242/441/279 240/439/279
f 243/440/280 244/443/280 242/441/280
f 245/442/281 246/445/281 244/443/281
f 245/442/282 247/447/282 248/444/282
f 249/446/283 250/449/283 248/444/283
f 249/446/284 251/451/284 252/448/284
f 253/450/285 254/456/286 252/448/286
f 196/454/288 195/462/294 198/463/295
f 198/463/295 200/464/296 202/465/297
f 202/465/297 204/466/295 206/467/298
f 206/467/298 208/468/299 210/469/287
f 210/469/287 212/470/300 214/471/301
f 214/471/301 216/472/302 218/473/287
f 218/473/287 220/474/303 222/475/287
f 222/475/287 224/476/304 226/452/287
f 226/452/287 228/477/305 230/478/287
f 230/478/287 232/479/306 234/480/287
f 234/480/287 236/481/307 238/482/308
f 238/482/308 240/483/297 242/453/287
f 242/453/287 244/484/309 246/485/310
f 246/485/310 248/486/311 250/487/300
f 250/487/300 252/488/312 254/489/313
f 254/489/313 255/490/314 196/454/288
f 196/454/288 198/463/295 202/465/297
f 202/465/297 206/467/298 210/469/287
f 210/469/287 214/471/301 218/473/287
f 218/473/287 222/475/287 226/452/287
f 226/452/287 230/478/287 234/480/287
f 234/480/287 238/482/308 242/453/287
f 242/453/287 246/485/310 250/487/300
f 250/487/300 254/489/313 196/454/288
f 196/454/288 202/465/297 210/469/287
f 210/469/287 218/473/287 226/452/287
f 226/452/287 234/480/287 242/453/287
f 242/453/287 250/487/300 196/454/288
f 196/454/288 210/469/287 226/452/287
f 256/455/289 255/458/290 254/456/290
f 256/455/291 193/491/291 196/457/292
f 194/461/293 193/492/315 256/493/316
f 256/493/316 253/494/317 251/495/293
f 251/495/293 249/496/318 247/497/293
f 247/497/293 245/498/319 243/499/320
f 243/499/320 241/500/321 239/501/322
f 239/501/322 237/502/323 235/503/320
f 235/503/320 233/504/324 231/505/325
f 231/505/325 229/506/326 227/459/293
f 227/459/293 225/507/315 223/508/327
f 223/508/327 221/509/328 219/510/323
f 219/510/323 217/511/329 215/512/330
f 215/512/330 213/513/323 211/460/293
f 211/460/293 209/514/331 207/515/332
f 207/515/332 205/516/333 203/517/320
f 203/517/320 201/518/334 199/519/330
f 199/519/330 197/520/335 194/461/293
f 194/461/293 256/493/316 251/495/293
f 251/495/293 247/497/293 243/499/320
f 243/499/320 239/501/322 235/503/320
f 235/503/320 231/505/325 227/459/293
f 227/459/293 223/508/327 219/510/323
f 219/510/323 215/512/330 211/460/293
f 211/460/293 207/515/332 203/517/320
f 203/517/320 199/519/330 194/461/293
f 194/461/293 251/495/293 243/499/320
f 243/499/320 235/503/320 227/459/293
f 227/459/293 219/510/323 211/460/293
f 211/460/293 203/517/320 194/461/293
f 194/461/293 243/499/320 227/459/293
o Cylinder.004
v -0.000000 -1.562728 -0.052624
v 0.002932 -1.562439 -0.052624
v 0.002932 -1.562469 0.019781
v 0.000000 -1.562758 0.019781
v 0.005752 -1.561584 -0.052623
v 0.005752 -1.561615 0.019782
v 0.008350 -1.560195 -0.052623
v 0.008350 -1.560225 0.019782
v 0.010628 -1.558326 -0.052622
v 0.010628 -1.558356 0.019783
v 0.012497 -1.556048 -0.052621
v 0.012497 -1.556078 0.019784
v 0.013886 -1.553450 -0.052620
v 0.013886 -1.553481 0.019785
v 0.014741 -1.550630 -0.052619
v 0.014741 -1.550660 0.019786
v 0.015030 -1.547698 -0.052618
v 0.015030 -1.547728 0.019787
v 0.014741 -1.544766 -0.052616
v 0.014741 -1.544796 0.019789
v 0.013886 -1.541946 -0.052615
v 0.013886 -1.541976 0.019790
v 0.012497 -1.539348 -0.052614
v 0.012497 -1.539378 0.019791
v 0.010628 -1.537070 -0.052613
v 0.010628 -1.537100 0.019792
v 0.008350 -1.535201 -0.052612
v 0.008350 -1.535231 0.019793
v 0.005752 -1.533812 -0.052612
v 0.005752 -1.533842 0.019793
v 0.002932 -1.532957 -0.052611
v 0.002932 -1.532987 0.019794
v -0.000000 -1.532668 -0.052611
v 0.000000 -1.532699 0.019794
v -0.002932 -1.532957 -0.052611
v -0.002932 -1.532987 0.019794
v -0.005752 -1.533812 -0.052612
v -0.005752 -1.533842 0.019793
v -0.008350 -1.535201 -0.052612
v -0.008350 -1.535231 0.019793
v -0.010628 -1.537070 -0.052613
v -0.010628 -1.537100 0.019792
v -0.012497 -1.539348 -0.052614
v -0.012497 -1.539378 0.019791
v -0.013886 -1.541946 -0.052615
v -0.013886 -1.541976 0.019790
v -0.014741 -1.544766 -0.052616
v -0.014741 -1.544796 0.019789
v -0.015030 -1.547698 -0.052618
v -0.015030 -1.547728 0.019787
v -0.014741 -1.550630 -0.052619
v -0.014741 -1.550660 0.019786
v -0.013886 -1.553450 -0.052620
v -0.013886 -1.553481 0.019785
v -0.012497 -1.556048 -0.052621
v -0.012497 -1.556078 0.019784
v -0.010628 -1.558326 -0.052622
v -0.010628 -1.558356 0.019783
v -0.008350 -1.560195 -0.052623
v -0.008350 -1.560225 0.019782
v -0.005752 -1.561584 -0.052623
v -0.005752 -1.561615 0.019782
v -0.002932 -1.562469 0.019781
v -0.002932 -1.562439 -0.052624
vn 0.0981 -0.9952 -0.0004
vn 0.2901 -0.9570 -0.0004
vn 0.2899 -0.9571 -0.0004
vn 0.4715 -0.8819 -0.0004
vn 0.4717 -0.8817 -0.0004
vn 0.6343 -0.7731 -0.0003
vn 0.7731 -0.6343 -0.0003
vn 0.8819 -0.4715 -0.0002
vn 0.8818 -0.4716 -0.0002
vn 0.9570 -0.2901 -0.0001
vn 0.9952 -0.0981 -0.0000
vn 0.9952 0.0981 -0.0000
vn 0.9570 0.2902 0.0001
vn 0.9570 0.2901 0.0001
vn 0.8819 0.4715 0.0002
vn 0.7731 0.6343 0.0003
vn 0.6343 0.7731 0.0003
vn 0.4715 0.8819 0.0004
vn 0.2902 0.9570 0.0004
vn 0.2901 0.9570 0.0004
vn 0.0981 0.9952 0.0004
vn 0.0978 0.9952 0.0004
vn -0.0981 0.9952 0.0004
vn -0.0978 0.9952 0.0004
vn -0.2902 0.9570 0.0004
vn -0.2901 0.9570 0.0004
vn -0.4715 0.8819 0.0004
vn -0.6343 0.7731 0.0003
vn -0.7731 0.6343 0.0003
vn -0.8819 0.4715 0.0002
vn -0.9570 0.2902 0.0001
vn -0.9570 0.2901 0.0001
vn -0.9952 0.0981 -0.0000
vn -0.9952 -0.0981 -0.0000
vn -0.9570 -0.2901 -0.0001
vn -0.8819 -0.4715 -0.0002
vn -0.8818 -0.4716 -0.0002
vn -0.7731 -0.6343 -0.0003
vn -0.6343 -0.7731 -0.0003
vn -0.4715 -0.8819 -0.0004
vn -0.4717 -0.8817 -0.0004
vn -0.0000 -0.0005 1.0000
vn 0.0001 -0.0004 1.0000
vn -0.2901 -0.9570 -0.0004
vn -0.2899 -0.9571 -0.0004
vn -0.2898 -0.9571 -0.0004
vn -0.0981 -0.9952 -0.0004
vn -0.0000 0.0004 -1.0000
vn -0.0001 0.0004 -1.0000
vn 0.2898 -0.9571 -0.0004
vn 0.0002 -0.0017 1.0000
vn -0.0001 -0.0002 1.0000
vn 0.0008 -0.0015 1.0000
vn -0.0000 -0.0004 1.0000
vn -0.0002 -0.0003 1.0000
vn -0.0001 -0.0003 1.0000
vn -0.0001 -0.0004 1.0000
vn -0.0016 -0.0008 1.0000
vn -0.0003 -0.0006 1.0000
vn 0.0002 -0.0003 1.0000
vn -0.0008 -0.0015 1.0000
vn 0.0001 -0.0002 1.0000
vn -0.0002 -0.0017 1.0000
vn 0.0003 -0.0006 1.0000
vn 0.0016 -0.0008 1.0000
vn 0.0001 -0.0003 1.0000
vn -0.0000 -0.0000 -1.0000
vn -0.0008 -0.0015 -1.0000
vn -0.0001 0.0003 -1.0000
vn -0.0002 0.0002 -1.0000
vn -0.0002 0.0003 -1.0000
vn 0.0017 0.0005 -1.0000
vn -0.0003 0.0005 -1.0000
vn 0.0001 0.0003 -1.0000
vn 0.0003 0.0002 -1.0000
vn 0.0008 -0.0015 -1.0000
vn -0.0003 0.0002 -1.0000
vn -0.0017 0.0005 -1.0000
vn -0.0004 0.0005 -1.0000
vn 0.0002 0.0002 -1.0000
vt 1.000000 0.500000
vt 0.968750 1.000000
vt 1.000000 1.000000
vt 0.937500 0.500000
vt 0.968750 0.500000
vt 0.906250 1.000000
vt 0.937500 1.000000
vt 0.875000 0.500000
vt 0.906250 0.500000
vt 0.843750 0.500000
vt 0.875000 1.000000
vt 0.812500 1.000000
vt 0.843750 1.000000
vt 0.812500 0.500000
vt 0.781250 1.000000
vt 0.781250 0.500000
vt 0.750000 1.000000
vt 0.718750 0.500000
vt 0.750000 0.500000
vt 0.687500 1.000000
vt 0.718750 1.000000
vt 0.687500 0.500000
vt 0.656250 1.000000
vt 0.625000 0.500000
vt 0.656250 0.500000
vt 0.593750 0.500000
vt 0.625000 1.000000
vt 0.562500 1.000000
vt 0.593750 1.000000
vt 0.531250 0.500000
vt 0.562500 0.500000
vt 0.500000 1.000000
vt 0.531250 1.000000
vt 0.468750 0.500000
vt 0.500000 0.500000
vt 0.437500 1.000000
vt 0.468750 1.000000
vt 0.406250 0.500000
vt 0.437500 0.500000
vt 0.375000 1.000000
vt 0.406250 1.000000
vt 0.375000 0.500000
vt 0.343750 1.000000
vt 0.312500 0.500000
vt 0.343750 0.500000
vt 0.281250 0.500000
vt 0.312500 1.000000
vt 0.250000 1.000000
vt 0.281250 1.000000
vt 0.218750 0.500000
vt 0.250000 0.500000
vt 0.187500 0.500000
vt 0.218750 1.000000
vt 0.156250 0.500000
vt 0.187500 1.000000
vt 0.125000 1.000000
vt 0.156250 1.000000
vt 0.125000 0.500000
vt 0.093750 1.000000
vt 0.062500 0.500000
vt 0.093750 0.500000
vt 0.250000 0.010000
vt 0.010000 0.250000
vt 0.250000 0.490000
vt 0.031250 1.000000
vt 0.062500 1.000000
vt 0.000000 0.500000
vt 0.031250 0.500000
vt 0.703178 0.014612
vt 0.985388 0.203178
vt 0.796822 0.485388
vt 0.296822 0.485388
vt 0.341844 0.471731
vt 0.383337 0.449553
vt 0.419706 0.419706
vt 0.449553 0.383337
vt 0.471731 0.341844
vt 0.485388 0.296822
vt 0.490000 0.250000
vt 0.485388 0.203178
vt 0.471731 0.158156
vt 0.449553 0.116663
vt 0.419706 0.080294
vt 0.383337 0.050447
vt 0.341844 0.028269
vt 0.296822 0.014612
vt 0.203178 0.014612
vt 0.158156 0.028269
vt 0.116663 0.050447
vt 0.080294 0.080294
vt 0.050447 0.116663
vt 0.028269 0.158156
vt 0.014612 0.203178
vt 0.014612 0.296822
vt 0.028269 0.341844
vt 0.050447 0.383337
vt 0.080294 0.419706
vt 0.116663 0.449553
vt 0.158156 0.471731
vt 0.203178 0.485388
vt 0.000000 1.000000
vt 0.750000 0.490000
vt 0.703178 0.485388
vt 0.658156 0.471731
vt 0.616663 0.449553
vt 0.580294 0.419706
vt 0.550447 0.383337
vt 0.528269 0.341844
vt 0.514612 0.296822
vt 0.510000 0.250000
vt 0.514612 0.203178
vt 0.528269 0.158156
vt 0.550447 0.116663
vt 0.580294 0.080294
vt 0.616663 0.050447
vt 0.658156 0.028269
vt 0.750000 0.010000
vt 0.796822 0.014612
vt 0.841844 0.028269
vt 0.883337 0.050447
vt 0.919706 0.080294
vt 0.949553 0.116663
vt 0.971731 0.158156
vt 0.990000 0.250000
vt 0.985388 0.296822
vt 0.971731 0.341844
vt 0.949553 0.383337
vt 0.919706 0.419706
vt 0.883337 0.449553
vt 0.841844 0.471731
s 1
f 257/521/336 259/522/336 260/523/336
f 261/524/337 259/522/338 258/525/337
f 261/524/339 264/526/340 262/527/340
f 265/528/341 264/526/341 263/529/341
f 267/530/342 266/531/342 265/528/342
f 267/530/343 270/532/344 268/533/344
f 269/534/345 272/535/345 270/532/345
f 271/536/346 274/537/346 272/535/346
f 275/538/347 274/537/347 273/539/347
f 275/538/348 278/540/349 276/541/349
f 277/542/350 280/543/350 278/540/350
f 281/544/351 280/543/351 279/545/351
f 283/546/352 282/547/352 281/544/352
f 283/546/353 286/548/353 284/549/353
f 287/550/354 286/548/355 285/551/354
f 287/550/356 290/552/357 288/553/357
f 291/554/358 290/552/359 289/555/358
f 291/554/360 294/556/361 292/557/361
f 295/558/362 294/556/362 293/559/362
f 295/558/363 298/560/363 296/561/363
f 297/562/364 300/563/364 298/560/364
f 301/564/365 300/563/365 299/565/365
f 303/566/366 302/567/367 301/564/366
f 303/566/368 306/568/368 304/569/368
f 307/570/369 306/568/369 305/571/369
f 309/572/370 308/573/370 307/570/370
f 311/574/371 310/575/372 309/572/371
f 311/574/373 314/576/373 312/577/373
f 313/578/374 316/579/374 314/576/374
f 317/580/375 316/579/376 315/581/375
f 290/582/377 306/583/378 260/584/377
f 317/580/379 319/585/380 318/586/381
f 257/587/382 319/585/382 320/588/382
f 291/589/383 275/590/384 258/591/383
f 257/521/336 258/525/336 259/522/336
f 261/524/337 262/527/385 259/522/338
f 261/524/339 263/529/339 264/526/340
f 265/528/341 266/531/341 264/526/341
f 267/530/342 268/533/342 266/531/342
f 267/530/343 269/534/343 270/532/344
f 269/534/345 271/536/345 272/535/345
f 271/536/346 273/539/346 274/537/346
f 275/538/347 276/541/347 274/537/347
f 275/538/348 277/542/348 278/540/349
f 277/542/350 279/545/350 280/543/350
f 281/544/351 282/547/351 280/543/351
f 283/546/352 284/549/352 282/547/352
f 283/546/353 285/551/353 286/548/353
f 287/550/354 288/553/355 286/548/355
f 287/550/356 289/555/356 290/552/357
f 291/554/358 292/557/359 290/552/359
f 291/554/360 293/559/360 294/556/361
f 295/558/362 296/561/362 294/556/362
f 295/558/363 297/562/363 298/560/363
f 297/562/364 299/565/364 300/563/364
f 301/564/365 302/567/365 300/563/365
f 303/566/366 304/569/367 302/567/367
f 303/566/368 305/571/368 306/568/368
f 307/570/369 308/573/369 306/568/369
f 309/572/370 310/575/370 308/573/370
f 311/574/371 312/577/372 310/575/372
f 311/574/373 313/578/373 314/576/373
f 313/578/374 315/581/374 316/579/374
f 317/580/375 318/586/376 316/579/376
f 260/584/377 259/592/386 262/593/387
f 262/593/387 264/594/388 266/595/389
f 266/595/389 268/596/390 270/597/391
f 270/597/391 272/598/391 274/599/392
f 274/599/392 276/600/393 278/601/394
f 278/601/394 280/602/395 282/603/377
f 282/603/377 284/604/396 286/605/397
f 286/605/397 288/606/398 290/582/377
f 290/582/377 292/607/386 294/608/387
f 294/608/387 296/609/388 298/610/377
f 298/610/377 300/611/390 302/612/399
f 302/612/399 304/613/400 306/583/378
f 306/583/378 308/614/401 310/615/401
f 310/615/401 312/616/395 314/617/389
f 314/617/389 316/618/396 318/619/397
f 318/619/397 319/620/398 260/584/377
f 260/584/377 262/593/387 266/595/389
f 266/595/389 270/597/391 274/599/392
f 274/599/392 278/601/394 282/603/377
f 282/603/377 286/605/397 290/582/377
f 290/582/377 294/608/387 298/610/377
f 298/610/377 302/612/399 306/583/378
f 306/583/378 310/615/401 314/617/389
f 314/617/389 318/619/397 260/584/377
f 260/584/377 266/595/389 274/599/392
f 274/599/392 282/603/377 290/582/377
f 290/582/377 298/610/377 306/583/378
f 306/583/378 314/617/389 260/584/377
f 260/584/377 274/599/392 290/582/377
f 317/580/379 320/588/379 319/585/380
f 257/587/382 260/621/382 319/585/382
f 258/591/383 257/622/402 320/623/383
f 320/623/383 317/624/403 315/625/404
f 315/625/404 313/626/405 311/627/406
f 311/627/406 309/628/404 307/629/383
f 307/629/383 305/630/407 303/631/408
f 303/631/408 301/632/409 299/633/383
f 299/633/383 297/634/410 295/635/383
f 295/635/383 293/636/411 291/589/383
f 291/589/383 289/637/402 287/638/383
f 287/638/383 285/639/403 283/640/404
f 283/640/404 281/641/412 279/642/406
f 279/642/406 277/643/404 275/590/384
f 275/590/384 273/644/413 271/645/414
f 271/645/414 269/646/409 267/647/383
f 267/647/383 265/648/415 263/649/383
f 263/649/383 261/650/411 258/591/383
f 258/591/383 320/623/383 315/625/404
f 315/625/404 311/627/406 307/629/383
f 307/629/383 303/631/408 299/633/383
f 299/633/383 295/635/383 291/589/383
f 291/589/383 287/638/383 283/640/404
f 283/640/404 279/642/406 275/590/384
f 275/590/384 271/645/414 267/647/383
f 267/647/383 263/649/383 258/591/383
f 258/591/383 315/625/404 307/629/383
f 307/629/383 299/633/383 291/589/383
f 291/589/383 283/640/404 275/590/384
f 275/590/384 267/647/383 258/591/383
f 258/591/383 307/629/383 291/589/383
o Cylinder.005
v -0.000000 1.515470 -0.051326
v 0.002932 1.515758 -0.051326
v 0.002932 1.515727 0.021079
v 0.000000 1.515439 0.021079
v 0.005752 1.516614 -0.051325
v 0.005752 1.516583 0.021080
v 0.008350 1.518003 -0.051325
v 0.008350 1.517972 0.021080
v 0.010628 1.519872 -0.051324
v 0.010628 1.519841 0.021081
v 0.012497 1.522149 -0.051323
v 0.012497 1.522118 0.021082
v 0.013886 1.524748 -0.051322
v 0.013886 1.524717 0.021083
v 0.014741 1.527567 -0.051321
v 0.014741 1.527536 0.021084
v 0.015030 1.530499 -0.051320
v 0.015030 1.530468 0.021085
v 0.014741 1.533432 -0.051318
v 0.014741 1.533401 0.021087
v 0.013886 1.536251 -0.051317
v 0.013886 1.536220 0.021088
v 0.012497 1.538850 -0.051316
v 0.012497 1.538819 0.021089
v 0.010628 1.541127 -0.051315
v 0.010628 1.541096 0.021090
v 0.008350 1.542996 -0.051314
v 0.008350 1.542965 0.021091
v 0.005752 1.544385 -0.051314
v 0.005752 1.544354 0.021091
v 0.002932 1.545240 -0.051313
v 0.002932 1.545209 0.021092
v -0.000000 1.545529 -0.051313
v 0.000000 1.545498 0.021092
v -0.002932 1.545240 -0.051313
v -0.002932 1.545209 0.021092
v -0.005752 1.544385 -0.051314
v -0.005752 1.544354 0.021091
v -0.008350 1.542996 -0.051314
v -0.008350 1.542965 0.021091
v -0.010628 1.541127 -0.051315
v -0.010628 1.541096 0.021090
v -0.012497 1.538850 -0.051316
v -0.012497 1.538819 0.021089
v -0.013886 1.536251 -0.051317
v -0.013886 1.536220 0.021088
v -0.014741 1.533432 -0.051318
v -0.014741 1.533401 0.021087
v -0.015030 1.530499 -0.051320
v -0.015030 1.530468 0.021085
v -0.014741 1.527567 -0.051321
v -0.014741 1.527536 0.021084
v -0.013886 1.524748 -0.051322
v -0.013886 1.524717 0.021083
v -0.012497 1.522149 -0.051323
v -0.012497 1.522118 0.021082
v -0.010628 1.519872 -0.051324
v -0.010628 1.519841 0.021081
v -0.008350 1.518003 -0.051325
v -0.008350 1.517972 0.021080
v -0.005752 1.516614 -0.051325
v -0.005752 1.516583 0.021080
v -0.002932 1.515727 0.021079
v -0.002932 1.515758 -0.051326
vn 0.0978 -0.9952 -0.0004
vn 0.2904 -0.9569 -0.0004
vn 0.4715 -0.8819 -0.0004
vn 0.6343 -0.7731 -0.0003
vn 0.7730 -0.6345 -0.0003
vn 0.8819 -0.4713 -0.0002
vn 0.9570 -0.2902 -0.0001
vn 0.9952 -0.0981 -0.0000
vn 0.9952 0.0981 -0.0000
vn 0.9570 0.2902 0.0001
vn 0.8819 0.4713 0.0002
vn 0.7730 0.6345 0.0003
vn 0.6343 0.7731 0.0003
vn 0.4715 0.8819 0.0004
vn 0.2902 0.9570 0.0004
vn 0.0981 0.9952 0.0004
vn -0.0981 0.9952 0.0004
vn -0.2902 0.9570 0.0004
vn -0.4715 0.8819 0.0004
vn -0.6343 0.7731 0.0003
vn -0.7730 0.6345 0.0003
vn -0.8819 0.4713 0.0002
vn -0.9570 0.2902 0.0001
vn -0.9952 0.0981 -0.0000
vn -0.9952 -0.0981 -0.0000
vn -0.9570 -0.2902 -0.0001
vn -0.8819 -0.4713 -0.0002
vn -0.7730 -0.6345 -0.0003
vn -0.6343 -0.7731 -0.0003
vn -0.4715 -0.8819 -0.0004
vn -0.0000 -0.0005 1.0000
vn 0.0001 -0.0004 1.0000
vn -0.2904 -0.9569 -0.0004
vn -0.0978 -0.9952 -0.0004
vn -0.0000 0.0004 -1.0000
vn -0.0001 0.0004 -1.0000
vn 0.0002 -0.0017 1.0000
vn -0.0001 -0.0002 1.0000
vn 0.0008 -0.0015 1.0000
vn -0.0000 -0.0004 1.0000
vn -0.0002 -0.0003 1.0000
vn -0.0001 -0.0003 1.0000
vn -0.0001 -0.0004 1.0000
vn -0.0016 -0.0008 1.0000
vn -0.0003 -0.0006 1.0000
vn 0.0002 -0.0003 1.0000
vn -0.0008 -0.0015 1.0000
vn 0.0001 -0.0002 1.0000
vn -0.0002 -0.0017 1.0000
vn 0.0003 -0.0006 1.0000
vn 0.0016 -0.0008 1.0000
vn 0.0001 -0.0003 1.0000
vn -0.0000 -0.0000 -1.0000
vn -0.0008 -0.0015 -1.0000
vn -0.0001 0.0003 -1.0000
vn -0.0002 0.0002 -1.0000
vn -0.0002 0.0003 -1.0000
vn 0.0017 0.0005 -1.0000
vn -0.0003 0.0005 -1.0000
vn 0.0001 0.0003 -1.0000
vn 0.0002 0.0002 -1.0000
vn 0.0008 -0.0015 -1.0000
vn -0.0017 0.0005 -1.0000
vn -0.0004 0.0005 -1.0000
vt 1.000000 0.500000
vt 0.968750 1.000000
vt 1.000000 1.000000
vt 0.937500 0.500000
vt 0.968750 0.500000
vt 0.906250 1.000000
vt 0.937500 1.000000
vt 0.875000 0.500000
vt 0.906250 0.500000
vt 0.843750 0.500000
vt 0.875000 1.000000
vt 0.812500 1.000000
vt 0.843750 1.000000
vt 0.812500 0.500000
vt 0.781250 1.000000
vt 0.781250 0.500000
vt 0.750000 1.000000
vt 0.718750 0.500000
vt 0.750000 0.500000
vt 0.687500 1.000000
vt 0.718750 1.000000
vt 0.687500 0.500000
vt 0.656250 1.000000
vt 0.625000 0.500000
vt 0.656250 0.500000
vt 0.593750 0.500000
vt 0.625000 1.000000
vt 0.562500 1.000000
vt 0.593750 1.000000
vt 0.531250 0.500000
vt 0.562500 0.500000
vt 0.500000 1.000000
vt 0.531250 1.000000
vt 0.468750 0.500000
vt 0.500000 0.500000
vt 0.437500 1.000000
vt 0.468750 1.000000
vt 0.406250 0.500000
vt 0.437500 0.500000
vt 0.375000 1.000000
vt 0.406250 1.000000
vt 0.375000 0.500000
vt 0.343750 1.000000
vt 0.312500 0.500000
vt 0.343750 0.500000
vt 0.281250 0.500000
vt 0.312500 1.000000
vt 0.250000 1.000000
vt 0.281250 1.000000
vt 0.218750 0.500000
vt 0.250000 0.500000
vt 0.187500 0.500000
vt 0.218750 1.000000
vt 0.156250 0.500000
vt 0.187500 1.000000
vt 0.125000 1.000000
vt 0.156250 1.000000
vt 0.125000 0.500000
vt 0.093750 1.000000
vt 0.062500 0.500000
vt 0.093750 0.500000
vt 0.250000 0.010000
vt 0.010000 0.250000
vt 0.250000 0.490000
vt 0.031250 1.000000
vt 0.062500 1.000000
vt 0.000000 0.500000
vt 0.031250 0.500000
vt 0.703178 0.014612
vt 0.985388 0.203178
vt 0.796822 0.485388
vt 0.296822 0.485388
vt 0.341844 0.471731
vt 0.383337 0.449553
vt 0.419706 0.419706
vt 0.449553 0.383337
vt 0.471731 0.341844
vt 0.485388 0.296822
vt 0.490000 0.250000
vt 0.485388 0.203178
vt 0.471731 0.158156
vt 0.449553 0.116663
vt 0.419706 0.080294
vt 0.383337 0.050447
vt 0.341844 0.028269
vt 0.296822 0.014612
vt 0.203178 0.014612
vt 0.158156 0.028269
vt 0.116663 0.050447
vt 0.080294 0.080294
vt 0.050447 0.116663
vt 0.028269 0.158156
vt 0.014612 0.203178
vt 0.014612 0.296822
vt 0.028269 0.341844
vt 0.050447 0.383337
vt 0.080294 0.419706
vt 0.116663 0.449553
vt 0.158156 0.471731
vt 0.203178 0.485388
vt 0.000000 1.000000
vt 0.750000 0.490000
vt 0.703178 0.485388
vt 0.658156 0.471731
vt 0.616663 0.449553
vt 0.580294 0.419706
vt 0.550447 0.383337
vt 0.528269 0.341844
vt 0.514612 0.296822
vt 0.510000 0.250000
vt 0.514612 0.203178
vt 0.528269 0.158156
vt 0.550447 0.116663
vt 0.580294 0.080294
vt 0.616663 0.050447
vt 0.658156 0.028269
vt 0.750000 0.010000
vt 0.796822 0.014612
vt 0.841844 0.028269
vt 0.883337 0.050447
vt 0.919706 0.080294
vt 0.949553 0.116663
vt 0.971731 0.158156
vt 0.990000 0.250000
vt 0.985388 0.296822
vt 0.971731 0.341844
vt 0.949553 0.383337
vt 0.919706 0.419706
vt 0.883337 0.449553
vt 0.841844 0.471731
s 1
f 321/651/416 323/652/416 324/653/416
f 325/654/417 323/652/417 322/655/417
f 325/654/418 328/656/418 326/657/418
f 329/658/419 328/656/419 327/659/419
f 331/660/420 330/661/420 329/658/420
f 331/660/421 334/662/421 332/663/421
f 333/664/422 336/665/422 334/662/422
f 335/666/423 338/667/423 336/665/423
f 339/668/424 338/667/424 337/669/424
f 339/668/425 342/670/425 340/671/425
f 341/672/426 344/673/426 342/670/426
f 345/674/427 344/673/427 343/675/427
f 347/676/428 346/677/428 345/674/428
f 347/676/429 350/678/429 348/679/429
f 351/680/430 350/678/430 349/681/430
f 351/680/431 354/682/431 352/683/431
f 355/684/432 354/682/432 353/685/432
f 355/684/433 358/686/433 356/687/433
f 359/688/434 358/686/434 357/689/434
f 359/688/435 362/690/435 360/691/435
f 361/692/436 364/693/436 362/690/436
f 365/694/437 364/693/437 363/695/437
f 367/696/438 366/697/438 365/694/438
f 367/696/439 370/698/439 368/699/439
f 371/700/440 370/698/440 369/701/440
f 373/702/441 372/703/441 371/700/441
f 375/704/442 374/705/442 373/702/442
f 375/704/443 378/706/443 376/707/443
f 377/708/444 380/709/444 378/706/444
f 381/710/445 380/709/445 379/711/445
f 354/712/446 370/713/447 324/714/446
f 381/710/448 383/715/448 382/716/448
f 321/717/449 383/715/449 384/718/449
f 355/719/450 339/720/451 322/721/450
f 321/651/416 322/655/416 323/652/416
f 325/654/417 326/657/417 323/652/417
f 325/654/418 327/659/418 328/656/418
f 329/658/419 330/661/419 328/656/419
f 331/660/420 332/663/420 330/661/420
f 331/660/421 333/664/421 334/662/421
f 333/664/422 335/666/422 336/665/422
f 335/666/423 337/669/423 338/667/423
f 339/668/424 340/671/424 338/667/424
f 339/668/425 341/672/425 342/670/425
f 341/672/426 343/675/426 344/673/426
f 345/674/427 346/677/427 344/673/427
f 347/676/428 348/679/428 346/677/428
f 347/676/429 349/681/429 350/678/429
f 351/680/430 352/683/430 350/678/430
f 351/680/431 353/685/431 354/682/431
f 355/684/432 356/687/432 354/682/432
f 355/684/433 357/689/433 358/686/433
f 359/688/434 360/691/434 358/686/434
f 359/688/435 361/692/435 362/690/435
f 361/692/436 363/695/436 364/693/436
f 365/694/437 366/697/437 364/693/437
f 367/696/438 368/699/438 366/697/438
f 367/696/439 369/701/439 370/698/439
f 371/700/440 372/703/440 370/698/440
f 373/702/441 374/705/441 372/703/441
f 375/704/442 376/707/442 374/705/442
f 375/704/443 377/708/443 378/706/443
f 377/708/444 379/711/444 380/709/444
f 381/710/445 382/716/445 380/709/445
f 324/714/446 323/722/452 326/723/453
f 326/723/453 328/724/454 330/725/455
f 330/725/455 332/726/456 334/727/457
f 334/727/457 336/728/457 338/729/458
f 338/729/458 340/730/459 342/731/460
f 342/731/460 344/732/461 346/733/446
f 346/733/446 348/734/462 350/735/463
f 350/735/463 352/736/464 354/712/446
f 354/712/446 356/737/452 358/738/453
f 358/738/453 360/739/454 362/740/446
f 362/740/446 364/741/456 366/742/465
f 366/742/465 368/743/466 370/713/447
f 370/713/447 372/744/467 374/745/467
f 374/745/467 376/746/461 378/747/455
f 378/747/455 380/748/462 382/749/463
f 382/749/463 383/750/464 324/714/446
f 324/714/446 326/723/453 330/725/455
f 330/725/455 334/727/457 338/729/458
f 338/729/458 342/731/460 346/733/446
f 346/733/446 350/735/463 354/712/446
f 354/712/446 358/738/453 362/740/446
f 362/740/446 366/742/465 370/713/447
f 370/713/447 374/745/467 378/747/455
f 378/747/455 382/749/463 324/714/446
f 324/714/446 330/725/455 338/729/458
f 338/729/458 346/733/446 354/712/446
f 354/712/446 362/740/446 370/713/447
f 370/713/447 378/747/455 324/714/446
f 324/714/446 338/729/458 354/712/446
f 381/710/448 384/718/448 383/715/448
f 321/717/449 324/751/449 383/715/449
f 322/721/450 321/752/468 384/753/450
f 384/753/450 381/754/469 379/755/470
f 379/755/470 377/756/471 375/757/472
f 375/757/472 373/758/470 371/759/450
f 371/759/450 369/760/473 367/761/474
f 367/761/474 365/762/475 363/763/450
f 363/763/450 361/764/476 359/765/450
f 359/765/450 357/766/477 355/719/450
f 355/719/450 353/767/468 351/768/450
f 351/768/450 349/769/469 347/770/470
f 347/770/470 345/771/471 343/772/472
f 343/772/472 341/773/470 339/720/451
f 339/720/451 337/774/478 335/775/479
f 335/775/479 333/776/475 331/777/450
f 331/777/450 329/778/476 327/779/450
f 327/779/450 325/780/477 322/721/450
f 322/721/450 384/753/450 379/755/470
f 379/755/470 375/757/472 371/759/450
f 371/759/450 367/761/474 363/763/450
f 363/763/450 359/765/450 355/719/450
f 355/719/450 351/768/450 347/770/470
f 347/770/470 343/772/472 339/720/451
f 339/720/451 335/775/479 331/777/450
f 331/777/450 327/779/450 322/721/450
f 322/721/450 379/755/470 371/759/450
f 371/759/450 363/763/450 355/719/450
f 355/719/450 347/770/470 339/720/451
f 339/720/451 331/777/450 322/721/450
f 322/721/450 371/759/450 355/719/450
