# Blender 5.1.2
# www.blender.org
mtllib red_part.mtl
o Cube.002
v 0.038100 1.507855 0.157498
v 0.038100 1.507594 0.773724
v 0.038100 1.433290 0.773692
v 0.038100 1.433550 0.157467
v -0.038100 1.433290 0.773692
v -0.038100 1.433550 0.157467
v -0.038100 1.507594 0.773724
v -0.038100 1.507855 0.157498
vn 1.0000 -0.0000 -0.0000
vn -0.0000 -1.0000 -0.0004
vn -1.0000 -0.0000 -0.0000
vn -0.0000 1.0000 0.0004
vn -0.0000 0.0004 -1.0000
vn -0.0000 -0.0004 1.0000
vt 0.375000 0.000000
vt 0.625000 0.250000
vt 0.375000 0.250000
vt 0.375000 0.500000
vt 0.625000 0.500000
vt 0.375000 0.750000
vt 0.625000 0.750000
vt 0.375000 1.000000
vt 0.125000 0.750000
vt 0.125000 0.500000
vt 0.875000 0.500000
vt 0.625000 0.000000
vt 0.625000 1.000000
vt 0.875000 0.750000
s 1
f 1/1/1 3/2/1 4/3/1
f 3/2/2 6/4/2 4/3/2
f 5/5/3 8/6/3 6/4/3
f 7/7/4 1/8/4 8/6/4
f 6/4/5 1/9/5 4/10/5
f 3/11/6 7/7/6 5/5/6
f 1/1/1 2/12/1 3/2/1
f 3/2/2 5/5/2 6/4/2
f 5/5/3 7/7/3 8/6/3
f 7/7/4 2/13/4 1/8/4
f 6/4/5 8/6/5 1/9/5
f 3/11/6 2/14/6 7/7/6
o Cube.003
v 0.038100 -1.529668 1.391635
v 0.038100 -1.529407 0.775409
v 0.038100 -1.455103 0.775441
v 0.038100 -1.455363 1.391666
v -0.038100 -1.455103 0.775441
v -0.038100 -1.455363 1.391666
v -0.038100 -1.529407 0.775409
v -0.038100 -1.529668 1.391635
vn 1.0000 -0.0000 -0.0000
vn -0.0000 1.0000 0.0004
vn -1.0000 -0.0000 -0.0000
vn -0.0000 -1.0000 -0.0004
vn -0.0000 -0.0004 1.0000
vn -0.0000 0.0004 -1.0000
vt 0.375000 0.000000
vt 0.625000 0.250000
vt 0.375000 0.250000
vt 0.375000 0.500000
vt 0.625000 0.500000
vt 0.375000 0.750000
vt 0.625000 0.750000
vt 0.375000 1.000000
vt 0.125000 0.750000
vt 0.125000 0.500000
vt 0.875000 0.500000
vt 0.625000 0.000000
vt 0.625000 1.000000
vt 0.875000 0.750000
s 1
f 9/15/7 11/16/7 12/17/7
f 11/16/8 14/18/8 12/17/8
f 13/19/9 16/20/9 14/18/9
f 15/21/10 9/22/10 16/20/10
f 14/18/11 9/23/11 12/24/11
f 11/25/12 15/21/12 13/19/12
f 9/15/7 10/26/7 11/16/7
f 11/16/8 13/19/8 14/18/8
f 13/19/9 15/21/9 16/20/9
f 15/21/10 10/27/10 9/22/10
f 14/18/11 16/20/11 9/23/11
f 11/25/12 10/28/12 15/21/12
o Cube.005
v 0.025400 -0.025535 0.625319
v 0.025400 -0.025264 -0.015670
v 0.025400 0.025536 -0.015649
v 0.025400 0.025265 0.625340
v -0.025400 0.025536 -0.015649
v -0.025400 0.025265 0.625340
v -0.025400 -0.025264 -0.015670
v -0.025400 -0.025535 0.625319
vn 1.0000 -0.0000 -0.0000
vn -0.0000 1.0000 0.0004
vn -1.0000 -0.0000 -0.0000
vn -0.0000 -1.0000 -0.0004
vn -0.0000 -0.0004 1.0000
vn -0.0000 0.0004 -1.0000
vt 0.625000 0.000000
vt 0.375000 0.250000
vt 0.375000 0.000000
vt 0.625000 0.250000
vt 0.375000 0.500000
vt 0.625000 0.750000
vt 0.375000 0.750000
vt 0.375000 1.000000
vt 0.125000 0.750000
vt 0.125000 0.500000
vt 0.875000 0.500000
vt 0.625000 0.500000
vt 0.625000 1.000000
vt 0.875000 0.750000
s 1
f 18/29/13 20/30/13 17/31/13
f 19/32/14 22/33/14 20/30/14
f 22/33/15 23/34/15 24/35/15
f 23/34/16 17/36/16 24/35/16
f 22/33/17 17/37/17 20/38/17
f 19/39/18 23/34/18 21/40/18
f 18/29/13 19/32/13 20/30/13
f 19/32/14 21/40/14 22/33/14
f 22/33/15 21/40/15 23/34/15
f 23/34/16 18/41/16 17/36/16
f 22/33/17 24/35/17 17/37/17
f 19/39/18 18/42/18 23/34/18
