# Blender 4.5.4 LTS
# www.blender.org
o Cylinder
v 0.000000 -0.309332 0.000000
v -0.000000 -0.309332 -1.080000
v -0.005927 -0.311130 0.000000
v -0.005927 -0.311130 -1.080000
v -0.009856 -0.315918 0.000000
v -0.009856 -0.315918 -1.080000
v -0.010463 -0.322081 0.000000
v -0.010463 -0.322081 -1.080000
v -0.007543 -0.327543 0.000000
v -0.007543 -0.327543 -1.080000
v -0.002081 -0.330463 0.000000
v -0.002081 -0.330463 -1.080000
v 0.004082 -0.329856 -0.000000
v 0.005927 -0.328870 -1.080000
v 0.008870 -0.325927 -0.000000
v 0.009856 -0.324082 -1.080000
v 0.010463 -0.317919 -0.000000
v 0.010463 -0.317919 -1.080000
v 0.005927 -0.311130 -0.000000
v 0.005927 -0.311130 -1.080000
v -0.000000 -0.300000 -1.105668
v -0.002081 0.300000 -1.105463
v -0.005927 -0.300000 -1.103870
v -0.007543 0.300000 -1.102543
v -0.010463 0.300000 -1.097081
v -0.010463 -0.300000 -1.097081
v -0.009856 -0.300000 -1.090917
v -0.008870 0.300000 -1.089073
v -0.005927 -0.300000 -1.086130
v -0.004082 0.300000 -1.085144
v -0.000000 -0.300000 -1.084332
v 0.002081 0.300000 -1.084537
v 0.007543 -0.300000 -1.087457
v 0.008870 0.300000 -1.089073
v 0.010463 -0.300000 -1.092919
v 0.009856 0.300000 -1.099082
v 0.009856 -0.300000 -1.099082
v 0.005927 0.300000 -1.103870
v 0.005927 -0.300000 -1.103870
v 0.004082 -0.311065 -1.085368
v 0.007543 -0.307129 -1.087504
v 0.009856 -0.314939 -1.089333
v 0.010463 -0.307230 -1.092965
v 0.009856 -0.323711 -1.087517
v 0.009856 -0.318398 -1.097222
v 0.009856 -0.313257 -1.098843
v 0.009856 -0.307344 -1.099128
v 0.008870 -0.323715 -1.094147
v 0.005927 -0.328444 -1.088242
v 0.005927 -0.320916 -1.101294
v 0.005927 -0.314035 -1.103567
v 0.005927 -0.307433 -1.103915
v 0.004082 -0.327160 -1.096037
v -0.000000 -0.330221 -1.088515
v -0.000000 -0.321862 -1.102823
v -0.000000 -0.314328 -1.105341
v -0.000000 -0.307466 -1.105712
v -0.002081 -0.327692 -1.096329
v -0.005927 -0.328444 -1.088242
v -0.005927 -0.320916 -1.101294
v -0.005927 -0.314035 -1.103567
v -0.005927 -0.307433 -1.103915
v -0.008870 -0.323715 -1.094147
v -0.009856 -0.323711 -1.087517
v -0.009856 -0.313257 -1.098843
v -0.010463 -0.317345 -1.095520
v -0.010463 -0.307307 -1.097127
v -0.010463 -0.316694 -1.090295
v -0.010463 -0.312254 -1.092761
v -0.009856 -0.307193 -1.090965
v -0.007543 -0.311905 -1.087668
v -0.005927 -0.307104 -1.086178
v -0.002081 -0.310891 -1.084491
v -0.002081 0.330463 0.000000
v -0.002081 0.330463 -1.080000
v -0.007543 0.327543 0.000000
v -0.007543 0.327543 -1.080000
v -0.010463 0.322081 0.000000
v -0.010463 0.322081 -1.080000
v -0.009856 0.315918 0.000000
v -0.009856 0.315918 -1.080000
v -0.005927 0.311130 0.000000
v -0.005927 0.311130 -1.080000
v 0.000000 0.309332 0.000000
v -0.000000 0.309332 -1.080000
v 0.005927 0.311130 -0.000000
v 0.005927 0.311130 -1.080000
v 0.009856 0.315918 -0.000000
v 0.009856 0.315918 -1.080000
v 0.009856 0.324082 -0.000000
v 0.009856 0.324082 -1.080000
v 0.004082 0.329856 -0.000000
v 0.004082 0.329856 -1.080000
v -0.002081 0.327692 -1.096329
v -0.004082 0.307451 -1.104901
v -0.004082 0.314196 -1.104540
v -0.005927 0.320916 -1.101294
v -0.005927 0.328444 -1.088242
v -0.008870 0.307378 -1.100972
v -0.009856 0.318398 -1.097222
v -0.009856 0.322098 -1.093260
v -0.009856 0.323711 -1.087517
v -0.010463 0.312931 -1.096868
v -0.010668 0.307269 -1.095046
v -0.009856 0.311929 -1.090787
v -0.008870 0.307159 -1.089121
v -0.008870 0.313818 -1.086000
v -0.004082 0.307086 -1.085192
v 0.002081 0.309334 -1.085313
v 0.008870 0.311629 -1.088967
v 0.010463 0.316694 -1.090295
v 0.010668 0.312593 -1.094815
v 0.010463 0.307307 -1.097127
v 0.009856 0.318398 -1.097222
v 0.009856 0.323711 -1.087517
v 0.008870 0.313557 -1.100663
v 0.008870 0.323715 -1.094147
v 0.007543 0.307408 -1.102588
v 0.005927 0.320916 -1.101294
v 0.005927 0.328444 -1.088242
v 0.004082 0.314196 -1.104540
v 0.004082 0.327160 -1.096037
v 0.002081 0.307462 -1.105508
v -0.000000 0.330221 -1.088515
v -0.000000 0.321862 -1.102823
vn -0.0980 0.9952 -0.0000
vn -0.0981 0.9952 -0.0000
vn -0.0984 0.9951 -0.0000
vn -0.6349 0.7726 0.0001
vn -0.6420 0.7665 0.0182
vn 0.2016 0.0472 0.9783
vn -0.8338 0.5518 -0.0175
vn -0.0899 0.2374 0.9672
vn -0.8294 -0.5540 -0.0716
vn -0.5735 -0.8168 -0.0624
vn -0.3727 -0.9279 -0.0000
vn 0.1500 -0.0906 0.9845
vn 0.2205 -0.9754 -0.0003
vn 0.5350 -0.8426 -0.0623
vn 0.8044 -0.5941 -0.0005
vn 0.9198 0.2534 0.2995
vn 0.9823 0.1871 -0.0011
vn 0.9753 0.1939 -0.1058
vn 0.1122 -0.0482 0.9925
vn 0.1286 0.9917 -0.0000
vn 0.0984 0.9951 -0.0000
vn -0.2689 0.0039 -0.9632
vn -0.4296 0.0052 -0.9030
vn 0.1327 0.0169 -0.9910
vn -0.8091 0.0334 -0.5867
vn -0.9654 -0.0013 0.2607
vn -0.8551 0.0135 0.5183
vn -0.1767 -0.1330 0.9752
vn -0.0511 0.0002 0.9987
vn -0.4744 0.0075 0.8803
vn 0.5222 0.0599 0.8507
vn 0.2566 -0.1640 0.9525
vn 0.8801 -0.0672 0.4700
vn 0.9952 0.0003 0.0978
vn 0.9995 0.0297 -0.0048
vn 0.9952 0.0003 0.0980
vn 0.9992 -0.0010 -0.0400
vn 0.7957 0.0275 -0.6051
vn 0.3377 0.0043 -0.9412
vn -0.7121 -0.0024 0.7021
vn -0.6344 -0.0051 0.7730
vn -0.6326 -0.0025 0.7745
vn -0.7579 0.0001 0.6524
vn -0.9135 -0.3828 -0.1375
vn -0.1740 0.0058 -0.9847
vn 0.7707 0.0039 -0.6372
vn 0.3450 0.0056 -0.9386
vn 0.8264 0.0013 -0.5631
vn 0.9992 0.0162 -0.0373
vn 0.9711 0.0478 0.2338
vn 0.9568 -0.0015 0.2906
vn 0.9571 -0.0666 0.2819
vn 0.1059 -0.0124 0.9943
vn 0.1597 -0.0159 0.9870
vn 0.2903 -0.0065 0.9569
vn -0.3210 0.0094 0.9470
vn 0.2881 0.0246 0.9573
vn 0.2898 0.0237 0.9568
vn 0.2877 0.0251 0.9574
vn 0.2166 0.9756 0.0353
vn 0.6409 0.7635 0.0797
vn 0.4618 0.8870 0.0015
vn 0.7023 0.7111 0.0327
vn 0.7710 0.6362 0.0270
vn 0.9811 -0.0452 0.1882
vn 0.9978 0.0230 -0.0629
vn 0.9960 -0.0241 -0.0857
vn 0.9675 0.1386 0.2117
vn 0.9712 -0.2370 -0.0248
vn 0.9892 -0.1090 0.0984
vn 0.9538 -0.2993 -0.0247
vn 0.8357 -0.0278 -0.5485
vn 0.7654 -0.0323 -0.6428
vn 0.8294 -0.1724 -0.5314
vn 0.7539 -0.2024 -0.6250
vn 0.9799 -0.0904 -0.1777
vn 0.9721 -0.0774 -0.2214
vn 0.8747 -0.3538 -0.3312
vn 0.8813 -0.4719 -0.0235
vn 0.8612 -0.5076 -0.0261
vn 0.8043 -0.5935 -0.0303
vn 0.7896 -0.5860 -0.1820
vn 0.6186 -0.7591 -0.2027
vn 0.3438 -0.0537 -0.9375
vn 0.3434 -0.0503 -0.9378
vn 0.3385 -0.2981 -0.8925
vn 0.3374 -0.2973 -0.8932
vn 0.6734 -0.5418 -0.5030
vn 0.6974 -0.5156 -0.4977
vn 0.4584 -0.6477 -0.6085
vn 0.4693 -0.8819 -0.0460
vn 0.3217 -0.9043 -0.2808
vn 0.0980 -0.9720 -0.2136
vn -0.1806 -0.0530 -0.9821
vn -0.3024 -0.1788 -0.9363
vn -0.1427 -0.3119 -0.9393
vn -0.2262 -0.3079 -0.9241
vn -0.1745 -0.9283 -0.3282
vn -0.1916 -0.9813 0.0165
vn 0.1066 -0.9895 -0.0972
vn -0.4358 -0.8997 -0.0264
vn -0.2553 -0.7361 -0.6269
vn 0.0978 -0.6743 -0.7319
vn -0.5947 -0.6408 -0.4855
vn -0.6302 -0.2414 -0.7380
vn -0.7372 -0.0775 -0.6712
vn -0.7725 -0.6342 -0.0320
vn -0.8253 -0.5628 -0.0468
vn -0.8804 -0.4566 -0.1282
vn -0.9031 -0.4267 -0.0481
vn -0.9803 -0.1961 0.0253
vn -0.9951 -0.0953 -0.0251
vn -0.8820 0.2913 0.3705
vn -0.9780 0.2078 0.0171
vn -0.9165 0.3771 0.1335
vn -0.5131 0.8029 0.3035
vn -0.5254 0.0402 0.8499
vn -0.6932 0.7189 -0.0517
vn -0.6235 0.7779 0.0777
vn -0.7230 0.2211 0.6545
vn 0.0963 0.9954 0.0001
vn -0.2999 0.9538 0.0182
vn 0.2687 0.1185 0.9559
vn -0.4730 0.8811 -0.0000
vn -0.1405 0.6759 0.7235
vn -0.8766 0.4812 0.0083
vn -0.9702 -0.2217 -0.0982
vn -0.1614 -0.9869 -0.0000
vn 0.0711 -0.0844 0.9939
vn 0.1716 -0.9832 -0.0624
vn 0.3926 -0.9197 -0.0000
vn 0.8733 -0.4864 0.0287
vn 0.8374 -0.5466 -0.0000
vn 0.1475 0.1593 0.9761
vn 0.9988 -0.0211 -0.0434
vn 0.9822 -0.1738 0.0713
vn 0.8332 0.5465 -0.0849
vn 0.7601 0.6498 -0.0068
vn 0.6612 0.7502 -0.0000
vn 0.7213 0.6865 -0.0920
vn 0.6933 0.7197 -0.0366
vn 0.4692 0.8819 -0.0460
vn 0.9854 0.1690 -0.0217
vn 0.8808 0.4728 -0.0238
vn 0.9985 0.0392 0.0389
vn 0.9888 -0.1062 -0.1046
vn 0.7143 -0.6963 -0.0706
vn 0.9190 -0.2505 0.3044
vn 0.1675 -0.9838 -0.0632
vn 0.2565 -0.7013 0.6651
vn -0.4222 -0.8986 -0.1197
vn -0.9822 -0.1849 0.0327
vn -0.6157 -0.3739 0.6936
vn -0.7052 0.7083 0.0304
vn -0.9995 0.0292 0.0086
vn -0.4734 0.8782 -0.0686
vn 0.0932 0.9929 -0.0740
vn -0.2495 0.9677 -0.0372
vn -0.0010 -0.0154 -0.9999
vn -0.5854 -0.2126 -0.7824
vn 0.0183 0.0419 -0.9990
vn -0.6391 -0.0177 -0.7689
vn -0.3124 0.9286 -0.2003
vn -0.9066 0.3671 0.2081
vn -0.9897 -0.1343 -0.0490
vn -0.4215 0.4121 -0.8078
vn -0.6533 0.4386 -0.6171
vn -0.2649 0.5747 -0.7743
vn -0.7925 0.0835 -0.6041
vn -0.5564 -0.0145 -0.8308
vn -0.8836 0.0356 0.4668
vn -0.8575 -0.0908 0.5065
vn -0.8886 0.1013 -0.4474
vn 0.9758 0.0142 0.2180
vn 0.9948 -0.0747 0.0690
vn 0.9996 -0.0242 0.0108
vn 0.9948 -0.0284 0.0977
vn 0.9530 0.2986 -0.0503
vn 0.9951 0.0046 -0.0986
vn 0.9999 0.0162 0.0057
vn 0.9569 -0.0018 -0.2903
vn 0.9814 0.1140 -0.1542
vn 0.9797 0.1368 -0.1468
vn 0.8747 0.3538 -0.3312
vn 0.9752 0.0629 -0.2121
vn 0.9784 0.0689 -0.1950
vn 0.8759 0.1481 -0.4592
vn 0.7899 0.5869 -0.1776
vn 0.6187 0.7590 -0.2028
vn 0.9128 0.0164 -0.4081
vn 0.9211 0.0266 -0.3885
vn 0.7709 0.0328 -0.6361
vn 0.8137 -0.0074 -0.5813
vn 0.4697 -0.0059 -0.8828
vn 0.6970 0.5157 -0.4982
vn 0.6733 0.5418 -0.5031
vn 0.4585 0.6477 -0.6085
vn 0.6801 0.2241 -0.6980
vn 0.6216 0.3055 -0.7213
vn 0.2821 0.3015 -0.9108
vn 0.3213 0.9044 -0.2809
vn 0.0857 0.9892 -0.1188
vn 0.4521 0.0343 -0.8913
vn -0.1115 0.9937 0.0116
vn -0.4713 0.8820 -0.0000
vn 0.9182 -0.3962 0.0017
vn -0.4712 -0.0060 0.8820
vn -0.0000 -0.0000 1.0000
vn 0.9142 -0.0060 0.4052
vn 0.2897 0.9558 -0.0499
vn 0.1614 0.9857 -0.0477
vn 0.0980 0.9945 0.0378
vn 0.6410 0.7634 0.0797
vn 0.7730 0.6260 0.1031
vn 0.7729 0.6260 0.1031
vn 0.7729 0.6261 0.1032
vn 0.8817 0.4713 0.0200
vn 0.9949 -0.0742 -0.0686
vn 0.8816 -0.4715 -0.0233
vn 0.7628 -0.4721 -0.4419
vn 0.1569 -0.7222 -0.6736
vn 0.2817 -0.6994 -0.6569
vn 0.1761 -0.9830 -0.0513
vn 0.2899 -0.9558 -0.0499
vn -0.7640 -0.2006 -0.6133
vn -0.9732 0.1446 -0.1787
vn -0.9810 -0.1904 -0.0383
vn -0.8808 -0.4728 -0.0238
vn -0.9538 0.2220 0.2026
vn -0.8807 0.4732 0.0209
vn 0.7724 0.6343 -0.0320
vn -0.9951 -0.0985 0.0046
vn -0.4714 -0.0053 -0.8819
vn -0.2644 0.6624 -0.7009
vn -0.2411 0.3269 -0.9138
vn -0.8819 -0.0028 -0.4715
vn -0.6059 0.0204 0.7953
vn 0.9949 0.0743 -0.0686
vn 0.9951 0.0276 -0.0949
vn 0.9569 0.0133 -0.2901
vn 0.7629 0.4720 -0.4418
vn 0.7698 0.1956 -0.6076
vn 0.6340 0.0398 -0.7723
vn 0.4971 0.0216 -0.8674
vn 0.2815 0.6995 -0.6569
vn 0.1568 0.7222 -0.6737
vt 1.000000 1.000000
vt 0.968750 0.500000
vt 1.000000 0.500000
vt 0.906250 1.000000
vt 0.875000 0.500000
vt 0.906250 0.500000
vt 0.812500 1.000000
vt 0.781250 0.500000
vt 0.812500 0.500000
vt 0.656250 1.000000
vt 0.625000 0.500000
vt 0.656250 0.500000
vt 0.562500 1.000000
vt 0.531250 0.500000
vt 0.562500 0.500000
vt 0.468750 1.000000
vt 0.437500 0.500000
vt 0.468750 0.500000
vt 0.375000 1.000000
vt 0.343750 0.500000
vt 0.375000 0.500000
vt 0.281250 1.000000
vt 0.250000 0.500000
vt 0.281250 0.500000
vt 0.187500 1.000000
vt 0.156250 0.500000
vt 0.187500 0.500000
vt 0.031250 1.000000
vt 0.000000 0.500000
vt 0.031250 0.500000
vt 0.796822 0.014612
vt 0.514612 0.203178
vt 0.703178 0.485388
vt 0.968750 1.000000
vt 0.937500 0.500000
vt 0.875000 1.000000
vt 0.843750 0.500000
vt 0.718750 1.000000
vt 0.687500 0.500000
vt 0.718750 0.500000
vt 0.593750 1.000000
vt 0.593750 0.500000
vt 0.500000 1.000000
vt 0.500000 0.500000
vt 0.437500 1.000000
vt 0.406250 0.500000
vt 0.062500 1.000000
vt 0.062500 0.500000
vt 0.625000 1.000000
vt 0.645833 1.000000
vt 0.708333 1.000000
vt 0.687500 1.000000
vt 0.843750 1.000000
vt 0.895833 1.000000
vt 0.145833 1.000000
vt 0.125000 1.000000
vt 0.156250 1.000000
vt 0.208333 1.000000
vt 0.250000 1.000000
vt 0.270833 1.000000
vt 0.291667 1.000000
vt 0.395833 1.000000
vt 0.416667 1.000000
vt 0.531250 1.000000
vt 0.583333 1.000000
vt 0.322917 1.000000
vt 0.312500 1.000000
vt 0.104167 1.000000
vt 0.166667 1.000000
vt 0.260417 1.000000
vt 0.229167 1.000000
vt 0.218750 1.000000
vt 0.343750 1.000000
vt 0.333333 1.000000
vt 0.197917 1.000000
vt 0.354167 1.000000
vt 0.916667 1.000000
vt 0.822917 1.000000
vt 0.833333 1.000000
vt 0.750000 1.000000
vt 0.677083 1.000000
vt 0.604167 1.000000
vt 0.697917 1.000000
vt 0.802083 1.000000
vt 0.791667 1.000000
vt 0.781250 1.000000
vt 0.729167 1.000000
vt 0.666667 1.000000
vt 0.854167 1.000000
vt 0.937500 1.000000
vt 0.750000 0.500000
vt 0.312500 0.500000
vt 0.218750 0.500000
vt 0.125000 0.500000
vt 0.093750 0.916667
vt 0.062500 0.916667
vt 0.187500 0.916667
vt 0.156250 0.916667
vt 0.250000 0.916667
vt 0.218750 0.916667
vt 0.312500 0.916667
vt 0.281250 0.916667
vt 0.406250 1.000000
vt 0.437500 0.916667
vt 0.406250 0.916667
vt 0.500000 0.916667
vt 0.468750 0.916667
vt 0.656250 0.916667
vt 0.750000 0.916667
vt 0.843750 0.916667
vt 0.937500 0.916667
vt 0.937500 0.583333
vt 0.906250 0.666667
vt 0.906250 0.583333
vt 0.906250 0.916667
vt 0.875000 0.833333
vt 0.875000 0.916667
vt 0.906250 0.833333
vt 0.875000 0.750000
vt 0.843750 0.750000
vt 0.875000 0.666667
vt 0.843750 0.666667
vt 0.843750 0.583333
vt 0.812500 0.666667
vt 0.812500 0.583333
vt 0.718750 0.833333
vt 0.718750 0.916667
vt 0.687500 0.583333
vt 0.562500 0.583333
vt 0.500000 0.583333
vt 0.468750 0.583333
vt 0.406250 0.583333
vt 0.375000 0.583333
vt 0.312500 0.583333
vt 0.281250 0.583333
vt 0.250000 0.833333
vt 0.281250 0.750000
vt 0.250000 0.750000
vt 0.250000 0.666667
vt 0.281250 0.666667
vt 0.250000 0.583333
vt 0.218750 0.833333
vt 0.218750 0.583333
vt 0.218750 0.666667
vt 0.187500 0.583333
vt 0.156250 0.833333
vt 0.187500 0.750000
vt 0.156250 0.750000
vt 0.156250 0.666667
vt 0.125000 0.916667
vt 0.125000 0.833333
vt 0.125000 0.583333
vt 0.125000 0.666667
vt 0.093750 0.500000
vt 0.093750 0.583333
vt 0.062500 0.833333
vt 0.093750 0.750000
vt 0.062500 0.750000
vt 0.062500 0.666667
vt 0.031250 0.916667
vt 0.031250 0.833333
vt 0.031250 0.666667
vt 0.000000 0.583333
vt 0.000000 0.666667
vt 0.031250 0.583333
vt 1.000000 0.916667
vt 0.968750 0.833333
vt 0.968750 0.916667
vt 0.000000 1.000000
vt 0.750000 0.490000
vt 0.796822 0.485388
vt 0.883337 0.449553
vt 0.949553 0.383337
vt 0.985388 0.296822
vt 0.949553 0.116663
vt 0.883337 0.050447
vt 0.514612 0.296822
vt 0.550447 0.383337
vt 0.616663 0.050447
vt 0.093750 1.000000
vt 0.083333 1.000000
vt 0.302083 1.000000
vt 0.770833 1.000000
vt 0.760417 1.000000
vt 0.739583 1.000000
vt 0.703178 0.014612
vt 0.616663 0.449553
vt 0.343750 0.916667
vt 0.593750 0.916667
vt 0.562500 0.916667
vt 0.906250 0.750000
vt 0.875000 0.583333
vt 0.812500 0.833333
vt 0.812500 0.750000
vt 0.781250 0.750000
vt 0.750000 0.833333
vt 0.750000 0.750000
vt 0.718750 0.750000
vt 0.687500 0.666667
vt 0.718750 0.666667
vt 0.718750 0.583333
vt 0.656250 0.666667
vt 0.656250 0.583333
vt 0.593750 0.750000
vt 0.625000 0.750000
vt 0.625000 0.666667
vt 0.562500 0.666667
vt 0.593750 0.666667
vt 0.593750 0.583333
vt 0.437500 0.583333
vt 0.187500 0.833333
vt 0.093750 0.833333
vt 0.062500 0.583333
vt 0.031250 0.750000
vt 1.000000 0.833333
vt 1.000000 0.750000
vt 0.968750 0.750000
vt 1.000000 0.666667
s 1
f 2/1/1 3/2/2 1/3/3
f 4/4/4 5/5/5 3/6/6
f 6/7/7 7/8/8 5/9/5
f 8/10/9 9/11/10 7/12/8
f 10/13/11 11/14/12 9/15/10
f 12/16/13 13/17/14 11/18/12
f 14/19/15 15/20/16 13/21/14
f 18/22/17 17/23/18 15/24/16
f 18/25/17 19/26/19 17/27/18
f 20/28/20 1/29/21 19/30/19
f 11/31/12 15/32/16 19/33/19
f 23/34/22 24/35/23 22/2/24
f 23/36/22 25/37/25 24/5/23
f 26/38/26 28/39/27 25/40/25
f 29/41/28 30/15/29 28/42/30
f 31/43/31 32/18/32 30/44/29
f 31/45/31 34/46/33 32/17/32
f 35/22/34 36/23/35 34/24/36
f 37/25/37 38/26/38 36/27/35
f 21/47/39 22/30/24 38/48/38
f 27/49/40 72/50/41 29/41/42
f 26/38/26 70/51/43 27/52/40
f 23/36/22 67/7/44 26/53/26
f 21/1/39 62/54/45 23/34/22
f 21/47/39 52/55/46 57/56/47
f 39/57/48 47/58/49 52/25/46
f 37/59/37 43/60/50 47/59/49
f 35/22/51 41/61/52 43/60/50
f 31/45/53 40/62/54 41/19/55
f 31/16/53 73/63/56 40/62/54
f 29/64/28 73/65/56 31/43/53
f 41/19/57 73/66/58 40/67/59
f 73/68/60 20/47/61 41/56/62
f 41/55/62 20/56/61 40/69/63
f 40/69/63 20/57/61 42/25/64
f 47/59/49 42/70/65 46/59/66
f 46/59/66 42/59/65 45/59/67
f 42/71/68 18/59/69 44/59/70
f 42/59/68 44/60/70 48/70/71
f 52/25/72 46/71/66 51/72/73
f 51/72/74 45/59/67 50/59/75
f 45/59/76 48/22/77 50/59/78
f 44/61/79 14/73/80 49/67/81
f 48/22/71 49/74/82 53/61/83
f 57/56/84 51/75/73 56/25/85
f 56/25/86 50/59/75 55/59/87
f 50/59/88 53/67/89 55/59/90
f 49/76/81 14/45/80 54/19/91
f 53/67/83 54/62/92 58/66/93
f 57/77/84 61/78/94 62/54/95
f 56/79/86 60/80/96 61/78/97
f 58/81/93 54/65/92 59/82/98
f 59/49/99 12/64/100 10/13/101
f 60/80/102 58/52/103 63/83/104
f 61/84/97 60/80/96 65/85/105
f 62/79/95 65/86/106 67/7/44
f 59/52/99 10/49/101 8/10/107
f 63/87/108 59/52/98 64/51/109
f 66/80/110 64/87/111 68/80/112
f 67/87/44 69/87/113 70/51/43
f 68/85/114 8/86/9 6/7/7
f 69/86/113 68/85/115 71/7/116
f 70/88/43 71/83/116 72/50/117
f 71/89/116 6/36/118 4/4/119
f 72/50/117 71/52/116 73/49/120
f 71/36/116 4/4/119 73/90/120
f 75/34/121 76/35/122 74/2/123
f 77/36/124 78/37/125 76/5/122
f 79/86/126 80/91/127 78/8/125
f 83/49/128 82/42/129 80/11/127
f 83/64/128 84/44/130 82/14/129
f 85/45/131 86/46/132 84/17/130
f 87/73/133 88/92/134 86/20/132
f 89/59/135 90/93/136 88/23/134
f 91/57/137 92/94/138 90/26/136
f 93/47/139 74/30/123 92/48/138
f 82/31/129 88/32/134 74/33/123
f 93/47/140 120/95/141 124/96/142
f 91/57/137 115/97/143 120/98/144
f 91/72/137 111/99/145 115/100/143
f 89/22/135 110/101/146 111/102/145
f 87/103/147 109/104/148 110/105/146
f 85/16/149 108/106/150 109/107/148
f 83/64/151 108/106/150 85/43/149
f 81/52/152 107/108/153 83/10/151
f 79/86/126 102/109/154 81/80/155
f 77/36/156 102/110/154 79/53/126
f 75/34/157 98/111/158 77/90/156
f 95/112/159 22/2/24 24/35/23
f 96/113/160 95/112/161 99/114/162
f 98/115/163 101/116/164 102/117/165
f 94/118/166 100/119/167 101/116/164
f 100/120/167 96/121/168 103/122/169
f 99/123/170 24/5/23 25/37/25
f 103/124/169 99/123/162 104/125/171
f 102/109/165 105/126/172 107/127/153
f 104/128/173 25/40/25 28/39/27
f 108/129/150 28/42/30 30/15/29
f 108/130/150 32/18/32 109/131/148
f 109/132/148 34/21/33 110/133/146
f 110/134/146 34/24/33 113/135/174
f 111/136/145 110/137/146 114/138/175
f 110/137/146 112/139/176 114/138/177
f 110/140/146 113/141/174 112/139/176
f 115/100/143 111/136/145 117/142/178
f 112/139/176 113/143/174 116/144/179
f 113/143/180 36/27/35 118/145/181
f 117/146/182 114/147/183 119/148/184
f 114/147/185 116/149/186 119/148/187
f 120/150/188 117/146/178 122/151/189
f 116/149/190 118/152/191 121/153/192
f 118/152/193 38/154/38 123/155/194
f 122/156/195 119/157/196 125/158/197
f 119/157/198 121/159/199 125/158/200
f 124/160/201 122/156/189 94/161/202
f 121/162/203 95/163/161 96/164/160
f 123/165/194 22/29/24 95/163/159
f 124/166/201 94/167/202 98/168/163
f 2/1/1 73/34/204 3/2/2
f 73/90/204 4/4/205 3/6/2
f 4/4/4 6/36/7 5/5/5
f 6/7/7 8/86/9 7/8/8
f 8/10/9 10/49/11 9/11/10
f 10/13/11 12/64/13 11/14/12
f 12/16/13 14/45/15 13/17/14
f 14/73/15 16/67/206 15/92/16
f 16/67/206 18/22/69 15/24/16
f 18/25/17 20/57/20 19/26/19
f 29/41/28 72/50/207 73/49/56
f 20/28/20 2/169/21 1/29/21
f 19/33/19 1/170/208 3/171/6
f 3/172/6 5/173/5 7/174/8
f 7/175/8 9/176/10 11/31/12
f 15/32/16 17/177/18 19/178/19
f 19/33/19 3/172/6 7/174/8
f 11/31/12 13/179/14 15/32/16
f 19/33/19 7/174/8 11/31/12
f 21/1/39 23/34/22 22/2/24
f 23/36/22 26/53/26 25/37/25
f 26/38/26 27/52/40 28/39/27
f 27/49/40 29/41/42 28/42/27
f 29/64/28 31/43/53 30/44/29
f 31/45/31 33/103/209 34/46/33
f 33/67/209 35/22/51 34/24/33
f 35/22/34 37/59/37 36/23/35
f 37/25/37 39/57/48 38/26/38
f 39/180/48 21/47/39 38/48/38
f 75/28/157 93/47/210 124/96/211
f 27/49/40 70/88/43 72/50/41
f 26/38/26 67/87/44 70/51/43
f 23/36/22 62/79/45 67/7/44
f 21/1/39 57/77/47 62/54/45
f 21/47/39 39/180/48 52/55/46
f 39/57/48 37/25/37 47/58/49
f 37/59/37 35/22/34 43/60/50
f 35/22/51 33/67/209 41/61/52
f 33/103/209 31/45/31 41/19/52
f 73/181/60 2/169/212 20/28/213
f 41/58/214 40/69/215 42/25/216
f 42/25/68 20/57/217 18/25/69
f 43/60/50 41/61/52 42/60/65
f 47/59/49 43/60/50 42/70/65
f 45/59/76 42/59/218 48/70/77
f 44/60/70 18/22/69 16/67/206
f 52/25/72 47/58/49 46/71/66
f 51/72/74 46/71/66 45/59/67
f 48/60/71 44/61/70 49/67/82
f 44/61/79 16/67/219 14/73/80
f 50/59/88 48/22/220 53/61/89
f 57/56/84 52/55/72 51/75/73
f 56/25/86 51/75/74 50/59/75
f 53/182/83 49/76/82 54/19/92
f 55/59/221 53/67/222 58/66/103
f 54/19/223 14/45/224 12/16/100
f 57/77/84 56/79/85 61/78/94
f 56/79/86 55/80/87 60/80/96
f 60/80/102 55/80/221 58/88/103
f 59/82/99 54/65/223 12/43/100
f 63/83/108 58/52/93 59/49/98
f 62/89/95 61/84/94 65/85/106
f 65/85/106 60/80/225 66/80/226
f 66/80/110 60/80/102 63/51/104
f 64/51/227 59/52/228 8/10/9
f 67/85/44 65/183/106 66/184/226
f 66/185/110 63/87/104 64/51/111
f 68/80/114 64/87/227 8/38/9
f 67/80/44 66/80/226 69/185/113
f 69/80/113 66/80/229 68/184/115
f 71/7/116 68/85/230 6/7/118
f 70/52/43 69/38/113 71/51/116
f 75/34/121 77/90/124 76/35/122
f 77/36/124 79/53/126 78/37/125
f 79/86/126 81/80/155 80/91/127
f 81/52/155 83/10/128 80/12/127
f 83/64/128 85/43/131 84/44/130
f 85/45/131 87/103/133 86/46/132
f 87/73/133 89/67/135 88/92/134
f 89/59/135 91/72/137 90/93/136
f 91/57/137 93/56/139 92/94/138
f 93/47/139 75/28/121 74/30/123
f 82/31/129 84/186/130 86/179/132
f 90/178/136 92/187/138 74/33/123
f 74/33/123 76/172/122 78/174/125
f 78/174/125 80/175/127 82/31/129
f 82/31/129 86/179/132 88/32/134
f 88/32/134 90/178/136 74/33/123
f 74/33/123 78/174/125 82/31/129
f 93/56/140 91/57/231 120/98/141
f 91/72/137 89/59/135 111/99/145
f 89/67/135 87/73/147 110/188/146
f 87/103/147 85/45/149 109/104/148
f 83/41/151 107/189/153 108/190/150
f 81/80/152 102/109/232 107/127/153
f 77/4/156 98/115/158 102/117/154
f 75/1/157 124/166/211 98/168/158
f 99/114/170 95/112/233 24/35/23
f 98/115/163 94/118/202 101/116/164
f 94/118/166 97/191/234 100/119/167
f 100/119/167 97/191/235 96/113/168
f 103/122/169 96/121/160 99/192/162
f 104/125/173 99/123/236 25/37/25
f 101/193/164 100/194/167 103/195/169
f 102/109/165 101/196/164 105/126/172
f 101/196/164 103/197/169 105/198/172
f 105/199/172 103/200/169 104/201/171
f 106/202/237 105/199/172 104/128/171
f 106/203/237 104/128/171 28/39/30
f 107/204/153 105/205/172 106/206/237
f 108/207/150 107/208/153 106/209/237
f 108/129/150 106/209/237 28/42/30
f 108/130/150 30/44/29 32/18/32
f 109/210/148 32/17/32 34/46/33
f 113/135/180 34/24/36 36/23/35
f 117/142/182 111/136/238 114/138/183
f 114/138/185 112/139/239 116/144/186
f 116/144/190 113/143/240 118/145/191
f 120/98/188 115/97/143 117/211/178
f 118/145/193 36/27/35 38/26/38
f 122/151/195 117/146/241 119/148/196
f 119/148/198 116/149/242 121/153/199
f 121/153/203 118/152/243 123/155/244
f 124/96/201 120/95/188 122/212/189
f 94/161/166 122/156/245 125/158/246
f 123/213/194 38/48/38 22/30/24
f 125/214/200 121/162/199 96/164/168
f 121/162/203 123/165/244 95/163/161
f 94/215/166 125/216/246 97/217/234
f 97/217/235 125/216/200 96/218/168
o Cylinder.001
v -0.000000 -0.309332 -0.375000
v -0.000000 -0.311130 -0.369073
v -0.320000 -0.311130 -0.369073
v -0.320000 -0.315918 -0.365144
v -0.000000 -0.320000 -0.364332
v -0.320000 -0.322081 -0.364537
v -0.000000 -0.325927 -0.366130
v -0.320000 -0.329856 -0.370918
v -0.000000 -0.330463 -0.372919
v -0.000000 -0.329856 -0.379082
v -0.320000 -0.329856 -0.379082
v -0.000000 -0.325927 -0.383870
v -0.320000 -0.325927 -0.383870
v -0.320000 -0.320000 -0.385668
v -0.000000 -0.315918 -0.384856
v -0.320000 -0.312457 -0.382543
v -0.000000 -0.311130 -0.380927
v -0.320000 -0.309537 -0.377081
vn -0.9966 0.0804 -0.0154
vn -0.0128 0.4556 0.8901
vn -0.0075 0.9272 0.3746
vn 0.0349 0.6241 0.7806
vn 0.8821 0.4538 0.1263
vn -0.9144 0.3361 0.2257
vn -0.1147 -0.5701 0.8135
vn 0.0947 -0.9333 0.3465
vn 0.9979 -0.0405 0.0512
vn -0.0789 -0.9954 -0.0535
vn -0.9530 0.0460 -0.2994
vn -0.1108 -0.4824 -0.8689
vn -0.9545 -0.2828 -0.0947
vn -0.0906 0.5285 -0.8441
vn -0.1427 0.9761 -0.1640
vn 0.9700 0.1813 0.1617
vn 0.0560 0.9967 0.0586
vn -0.0000 -0.6345 -0.7729
vn -1.0000 -0.0000 -0.0000
vt 0.937500 1.000000
vt 0.906250 0.500000
vt 0.937500 0.500000
vt 0.843750 1.000000
vt 0.812500 0.500000
vt 0.843750 0.500000
vt 0.750000 1.000000
vt 0.718750 0.500000
vt 0.750000 0.500000
vt 0.593750 1.000000
vt 0.562500 0.500000
vt 0.593750 0.500000
vt 0.531250 1.000000
vt 0.500000 0.500000
vt 0.531250 0.500000
vt 0.375000 1.000000
vt 0.343750 0.500000
vt 0.375000 0.500000
vt 0.281250 1.000000
vt 0.250000 0.500000
vt 0.281250 0.500000
vt 0.125000 1.000000
vt 0.093750 0.500000
vt 0.125000 0.500000
vt 0.158156 0.028269
vt 0.471731 0.158156
vt 0.341844 0.471731
vt 0.031250 1.000000
vt 0.000000 0.500000
vt 0.031250 0.500000
vt 0.796822 0.014612
vt 0.514612 0.203178
vt 0.703178 0.485388
vt 0.968750 1.000000
vt 0.906250 1.000000
vt 0.875000 1.000000
vt 0.875000 0.500000
vt 0.812500 1.000000
vt 0.781250 1.000000
vt 0.781250 0.500000
vt 0.656250 1.000000
vt 0.625000 1.000000
vt 0.625000 0.500000
vt 0.500000 1.000000
vt 0.343750 1.000000
vt 0.312500 1.000000
vt 0.312500 0.500000
vt 0.187500 1.000000
vt 0.156250 1.000000
vt 0.156250 0.500000
vt 0.028269 0.158156
vt 0.050447 0.116663
vt 0.080294 0.080294
vt 0.250000 0.490000
vt 0.158156 0.471731
vt 0.028269 0.341844
vt 0.341844 0.028269
vt 0.471731 0.341844
vt 0.062500 1.000000
vt 0.796822 0.485388
vt 0.883337 0.449553
vt 0.985388 0.296822
vt 0.949553 0.116663
vt 0.616663 0.050447
vt 0.550447 0.383337
s 1
f 128/219/247 127/220/248 126/221/249
f 129/222/250 130/223/251 127/224/248
f 131/225/252 132/226/253 130/227/251
f 133/228/254 134/229/255 132/230/253
f 133/231/254 135/232/256 134/233/255
f 136/234/257 137/235/258 135/236/256
f 139/237/259 140/238/260 137/239/258
f 141/240/261 142/241/262 140/242/260
f 136/243/257 131/244/252 128/245/247
f 143/246/263 126/247/249 142/248/262
f 134/249/255 137/250/258 142/251/262
f 143/252/263 128/219/247 126/221/249
f 128/253/247 129/254/250 127/255/248
f 129/256/250 131/257/252 130/258/251
f 131/259/252 133/260/254 132/261/253
f 133/231/254 136/262/257 135/232/256
f 136/234/257 138/263/264 137/235/258
f 138/263/264 139/264/259 137/265/258
f 139/266/259 141/267/261 140/268/260
f 139/269/259 138/270/265 136/271/257
f 128/245/247 143/272/263 141/273/261
f 128/245/247 141/273/261 139/274/259
f 136/243/257 133/275/254 131/244/252
f 131/244/252 129/276/250 128/245/247
f 128/245/247 139/274/259 136/243/257
f 141/277/261 143/246/263 142/248/262
f 142/251/262 126/278/249 127/279/248
f 142/251/262 127/279/248 130/280/251
f 130/280/251 132/281/253 134/249/255
f 134/249/255 135/282/256 137/250/258
f 137/250/258 140/283/260 142/251/262
f 142/251/262 130/280/251 134/249/255
o Cylinder.002
v -0.000000 0.330668 -0.375000
v -0.000000 0.328870 -0.369073
v -0.320000 0.328870 -0.369073
v -0.320000 0.324082 -0.365144
v -0.000000 0.320000 -0.364332
v -0.320000 0.317919 -0.364537
v -0.000000 0.314073 -0.366130
v -0.320000 0.310144 -0.370918
v -0.000000 0.309537 -0.372919
v -0.000000 0.310144 -0.379082
v -0.320000 0.310144 -0.379082
v -0.000000 0.314073 -0.383870
v -0.320000 0.314073 -0.383870
v -0.320000 0.320000 -0.385668
v -0.000000 0.324082 -0.384856
v -0.320000 0.327543 -0.382543
v -0.000000 0.328870 -0.380927
v -0.320000 0.330463 -0.377081
vn -0.9966 0.0804 -0.0154
vn -0.0128 0.4556 0.8901
vn -0.0075 0.9272 0.3746
vn 0.0349 0.6241 0.7806
vn 0.8821 0.4538 0.1263
vn -0.9143 0.3362 0.2258
vn -0.1147 -0.5701 0.8135
vn 0.0947 -0.9333 0.3465
vn 0.9979 -0.0405 0.0512
vn -0.0789 -0.9954 -0.0535
vn -0.9530 0.0460 -0.2994
vn -0.1108 -0.4809 -0.8697
vn -0.9545 -0.2828 -0.0947
vn -0.0906 0.5285 -0.8441
vn -0.1427 0.9761 -0.1640
vn 0.9700 0.1813 0.1617
vn 0.0560 0.9967 0.0586
vn 0.0001 -0.6345 -0.7729
vn -1.0000 -0.0000 -0.0000
vt 0.937500 1.000000
vt 0.906250 0.500000
vt 0.937500 0.500000
vt 0.843750 1.000000
vt 0.812500 0.500000
vt 0.843750 0.500000
vt 0.750000 1.000000
vt 0.718750 0.500000
vt 0.750000 0.500000
vt 0.593750 1.000000
vt 0.562500 0.500000
vt 0.593750 0.500000
vt 0.531250 1.000000
vt 0.500000 0.500000
vt 0.531250 0.500000
vt 0.375000 1.000000
vt 0.343750 0.500000
vt 0.375000 0.500000
vt 0.281250 1.000000
vt 0.250000 0.500000
vt 0.281250 0.500000
vt 0.125000 1.000000
vt 0.093750 0.500000
vt 0.125000 0.500000
vt 0.158156 0.028269
vt 0.471731 0.158156
vt 0.341844 0.471731
vt 0.031250 1.000000
vt 0.000000 0.500000
vt 0.031250 0.500000
vt 0.796822 0.014612
vt 0.514612 0.203178
vt 0.703178 0.485388
vt 0.968750 1.000000
vt 0.906250 1.000000
vt 0.875000 1.000000
vt 0.875000 0.500000
vt 0.812500 1.000000
vt 0.781250 1.000000
vt 0.781250 0.500000
vt 0.656250 1.000000
vt 0.625000 1.000000
vt 0.625000 0.500000
vt 0.500000 1.000000
vt 0.343750 1.000000
vt 0.312500 1.000000
vt 0.312500 0.500000
vt 0.187500 1.000000
vt 0.156250 1.000000
vt 0.156250 0.500000
vt 0.028269 0.158156
vt 0.050447 0.116663
vt 0.080294 0.080294
vt 0.250000 0.490000
vt 0.158156 0.471731
vt 0.028269 0.341844
vt 0.341844 0.028269
vt 0.471731 0.341844
vt 0.062500 1.000000
vt 0.796822 0.485388
vt 0.883337 0.449553
vt 0.985388 0.296822
vt 0.949553 0.116663
vt 0.616663 0.050447
vt 0.550447 0.383337
s 1
f 146/284/266 145/285/267 144/286/268
f 147/287/269 148/288/270 145/289/267
f 149/290/271 150/291/272 148/292/270
f 151/293/273 152/294/274 150/295/272
f 151/296/273 153/297/275 152/298/274
f 154/299/276 155/300/277 153/301/275
f 157/302/278 158/303/279 155/304/277
f 159/305/280 160/306/281 158/307/279
f 154/308/276 149/309/271 146/310/266
f 161/311/282 144/312/268 160/313/281
f 152/314/274 155/315/277 160/316/281
f 161/317/282 146/284/266 144/286/268
f 146/318/266 147/319/269 145/320/267
f 147/321/269 149/322/271 148/323/270
f 149/324/271 151/325/273 150/326/272
f 151/296/273 154/327/276 153/297/275
f 154/299/276 156/328/283 155/300/277
f 156/328/283 157/329/278 155/330/277
f 157/331/278 159/332/280 158/333/279
f 157/334/278 156/335/284 154/336/276
f 146/310/266 161/337/282 159/338/280
f 146/310/266 159/338/280 157/339/278
f 154/308/276 151/340/273 149/309/271
f 149/309/271 147/341/269 146/310/266
f 146/310/266 157/339/278 154/308/276
f 159/342/280 161/311/282 160/313/281
f 160/316/281 144/343/268 145/344/267
f 160/316/281 145/344/267 148/345/270
f 148/345/270 150/346/272 152/314/274
f 152/314/274 153/347/275 155/315/277
f 155/315/277 158/348/279 160/316/281
f 160/316/281 148/345/270 152/314/274
o Cylinder.003
v -0.002081 0.320000 -0.465463
v -0.002081 -0.320000 -0.465463
v -0.008870 0.320000 -0.460927
v -0.008870 -0.320000 -0.460927
v -0.010668 0.320000 -0.455000
v -0.010668 -0.320000 -0.455000
v -0.008870 0.320000 -0.449073
v -0.008870 -0.320000 -0.449073
v -0.002081 -0.320000 -0.444537
v -0.000000 0.320000 -0.444332
v 0.004082 -0.320000 -0.445144
v 0.005927 0.320000 -0.446130
v 0.009856 0.320000 -0.450918
v 0.009856 -0.320000 -0.450918
v 0.010463 0.320000 -0.457081
v 0.009856 -0.320000 -0.459082
v 0.007543 0.320000 -0.462543
v 0.004082 -0.320000 -0.464856
vn -0.7924 0.1020 -0.6015
vn -0.7124 -0.0706 -0.6983
vn -0.0029 0.9985 -0.0543
vn -0.0447 0.9889 -0.1418
vn -0.1116 -0.9041 0.4126
vn -0.7731 -0.0885 0.6280
vn -0.4885 0.0070 0.8725
vn 0.1461 0.9868 0.0697
vn 0.2031 -0.9791 -0.0135
vn 0.8020 0.3477 0.4857
vn 0.9187 0.0670 0.3893
vn 0.9569 -0.0011 0.2903
vn 0.8819 -0.0000 0.4714
vn 0.1664 0.9306 0.3260
vn 0.2385 -0.9345 0.2643
vn 0.8119 -0.0907 -0.5767
vn 0.0944 -0.9939 -0.0577
vn 0.5033 0.0782 -0.8606
vn 0.3919 -0.8891 0.2365
vn -0.0000 1.0000 -0.0000
vt 0.906250 1.000000
vt 0.875000 0.500000
vt 0.906250 0.500000
vt 0.843750 1.000000
vt 0.812500 0.500000
vt 0.843750 0.500000
vt 0.687500 1.000000
vt 0.656250 0.500000
vt 0.687500 0.500000
vt 0.593750 1.000000
vt 0.562500 0.500000
vt 0.593750 0.500000
vt 0.437500 1.000000
vt 0.406250 0.500000
vt 0.437500 0.500000
vt 0.343750 1.000000
vt 0.312500 0.500000
vt 0.343750 0.500000
vt 0.312500 1.000000
vt 0.281250 0.500000
vt 0.218750 1.000000
vt 0.187500 0.500000
vt 0.218750 0.500000
vt 0.158156 0.028269
vt 0.471731 0.158156
vt 0.341844 0.471731
vt 0.062500 1.000000
vt 0.031250 0.500000
vt 0.062500 0.500000
vt 0.796822 0.014612
vt 0.514612 0.203178
vt 0.703178 0.485388
vt 0.937500 1.000000
vt 0.781250 1.000000
vt 0.750000 1.000000
vt 0.750000 0.500000
vt 0.656250 1.000000
vt 0.562500 1.000000
vt 0.468750 1.000000
vt 0.375000 1.000000
vt 0.281250 1.000000
vt 0.250000 1.000000
vt 0.250000 0.500000
vt 0.156250 1.000000
vt 0.125000 1.000000
vt 0.125000 0.500000
vt 0.341844 0.028269
vt 0.419706 0.080294
vt 0.158156 0.471731
vt 0.028269 0.341844
vt 0.028269 0.158156
vt 0.471731 0.341844
vt 0.031250 1.000000
vt 0.550447 0.116663
vt 0.528269 0.158156
vt 0.883337 0.449553
vt 0.949553 0.383337
vt 0.985388 0.296822
vt 0.949553 0.116663
vt 0.616663 0.050447
vt 0.550447 0.383337
s 1
f 165/349/285 164/350/286 162/351/287
f 165/352/285 166/353/288 164/354/286
f 167/355/289 168/356/290 166/357/288
f 169/358/291 171/359/292 168/360/290
f 172/361/293 173/362/294 171/363/292
f 175/364/295 174/365/296 173/366/297
f 175/367/295 176/368/298 174/365/296
f 177/369/299 178/370/300 176/371/298
f 172/372/293 167/373/289 163/374/301
f 179/375/302 162/376/287 178/377/300
f 171/378/292 176/379/298 162/380/287
f 163/381/301 165/349/285 162/351/287
f 165/382/285 167/383/289 166/384/288
f 167/355/289 169/385/291 168/356/290
f 169/358/291 170/386/303 171/359/292
f 170/387/303 172/361/293 171/363/292
f 172/388/293 175/364/295 173/366/294
f 175/389/295 177/390/299 176/391/298
f 177/392/299 179/393/302 178/394/300
f 170/395/303 169/396/291 167/373/289
f 163/374/301 179/397/302 177/398/299
f 177/398/299 175/399/295 172/372/293
f 172/372/293 170/395/303 167/373/289
f 167/373/289 165/400/285 163/374/301
f 163/374/301 177/398/299 172/372/293
f 179/375/302 163/401/301 162/376/287
f 173/402/294 174/403/304 176/379/298
f 162/404/287 164/405/286 166/406/288
f 166/406/288 168/407/290 171/378/292
f 171/378/292 173/408/294 176/379/298
f 176/379/298 178/409/300 162/380/287
f 162/380/287 166/406/288 171/378/292
o Plane
v -0.000000 -0.320000 -1.095000
v 0.000000 -0.320000 -0.455000
v -0.000000 0.320000 -1.095000
v 0.000000 0.320000 -0.455000
v -0.002500 -0.320000 -1.095000
v -0.002500 -0.320000 -0.455000
v -0.002500 0.320000 -1.095000
v -0.002500 0.320000 -0.455000
v 0.002500 -0.320000 -1.095000
v 0.002500 -0.320000 -0.455000
v 0.002500 0.320000 -1.095000
v 0.002500 0.320000 -0.455000
v -0.000000 0.178520 -0.979050
v 0.002500 0.178520 -0.979050
v -0.000000 0.179500 -0.989000
v 0.002500 0.179500 -0.989000
v -0.000000 0.178520 -0.998950
v 0.002500 0.178520 -0.998950
v -0.000000 0.175618 -1.008517
v 0.002500 0.175618 -1.008517
v -0.000000 0.175618 -0.969483
v 0.002500 0.175618 -0.969483
v -0.000000 0.170905 -0.960666
v 0.002500 0.170905 -0.960666
v -0.000000 0.170905 -1.017334
v 0.002500 0.170905 -1.017334
v -0.000000 0.164562 -0.952937
v 0.002500 0.164562 -0.952937
v -0.000000 0.164562 -1.025062
v 0.002500 0.164562 -1.025062
v -0.000000 0.156834 -0.946595
v 0.002500 0.156834 -0.946595
v -0.000000 0.156834 -1.031405
v 0.002500 0.156834 -1.031405
v -0.000000 0.138450 -0.938980
v 0.002500 0.138450 -0.938980
v -0.000000 0.148017 -0.941882
v 0.002500 0.148017 -0.941882
v -0.000000 0.148017 -1.036118
v 0.002500 0.148017 -1.036118
v -0.000000 0.138450 -1.039020
v 0.002500 0.138450 -1.039020
v -0.000000 0.128500 -0.938000
v 0.002500 0.128500 -0.938000
v -0.000000 0.118550 -0.938980
v 0.002500 0.118550 -0.938980
v -0.000000 0.108983 -0.941882
v 0.002500 0.108983 -0.941882
v -0.000000 0.100166 -0.946595
v 0.002500 0.100166 -0.946595
v -0.000000 0.092438 -0.952937
v 0.002500 0.092438 -0.952937
v -0.000000 0.086095 -0.960666
v 0.002500 0.086095 -0.960666
v -0.000000 0.081382 -0.969483
v 0.002500 0.081382 -0.969483
v -0.000000 0.078480 -0.979050
v 0.002500 0.078480 -0.979050
v -0.000000 0.077500 -0.989000
v 0.002500 0.077500 -0.989000
v -0.000000 0.078480 -0.998950
v 0.002500 0.078480 -0.998950
v -0.000000 0.081382 -1.008517
v 0.002500 0.081382 -1.008517
v -0.000000 0.086095 -1.017334
v 0.002500 0.086095 -1.017334
v -0.000000 0.108983 -1.036118
v 0.002500 0.108983 -1.036118
v -0.000000 0.100166 -1.031405
v 0.002500 0.100166 -1.031405
v -0.000000 0.092438 -1.025062
v 0.002500 0.092438 -1.025062
v -0.000000 0.128500 -1.040000
v 0.002500 0.128500 -1.040000
v -0.000000 0.118550 -1.039020
v 0.002500 0.118550 -1.039020
v 0.000000 0.069020 -0.727050
v 0.002500 0.069020 -0.727050
v 0.000000 0.070000 -0.737000
v 0.002500 0.070000 -0.737000
v 0.000000 0.069020 -0.746950
v 0.002500 0.069020 -0.746950
v 0.000000 0.066118 -0.756517
v 0.002500 0.066118 -0.756517
v 0.000000 0.066118 -0.717483
v 0.002500 0.066118 -0.717483
v 0.000000 0.061405 -0.708666
v 0.002500 0.061405 -0.708666
v 0.000000 0.061405 -0.765334
v 0.002500 0.061405 -0.765334
v 0.000000 0.055062 -0.700938
v 0.002500 0.055062 -0.700938
v 0.000000 0.055062 -0.773062
v 0.002500 0.055062 -0.773062
v 0.000000 0.047334 -0.694595
v 0.002500 0.047334 -0.694595
v 0.000000 0.047334 -0.779405
v 0.002500 0.047334 -0.779405
v 0.000000 0.028950 -0.686980
v 0.002500 0.028950 -0.686980
v 0.000000 0.038517 -0.689882
v 0.002500 0.038517 -0.689882
v 0.000000 0.038517 -0.784118
v 0.002500 0.038517 -0.784118
v -0.000000 0.028950 -0.787020
v 0.002500 0.028950 -0.787020
v 0.000000 0.019000 -0.686000
v 0.002500 0.019000 -0.686000
v 0.000000 0.009050 -0.686980
v 0.002500 0.009050 -0.686980
v 0.000000 -0.000517 -0.689882
v 0.002500 -0.000517 -0.689882
v 0.000000 -0.009334 -0.694595
v 0.002500 -0.009334 -0.694595
v 0.000000 -0.017062 -0.700938
v 0.002500 -0.017062 -0.700938
v 0.000000 -0.023405 -0.708666
v 0.002500 -0.023405 -0.708666
v 0.000000 -0.028118 -0.717483
v 0.002500 -0.028118 -0.717483
v 0.000000 -0.031020 -0.727050
v 0.002500 -0.031020 -0.727050
v 0.000000 -0.032000 -0.737000
v 0.002500 -0.032000 -0.737000
v 0.000000 -0.031020 -0.746950
v 0.002500 -0.031020 -0.746950
v 0.000000 -0.028118 -0.756517
v 0.002500 -0.028118 -0.756517
v 0.000000 -0.023405 -0.765334
v 0.002500 -0.023405 -0.765334
v 0.000000 -0.000517 -0.784118
v 0.002500 -0.000517 -0.784118
v 0.000000 -0.009334 -0.779405
v 0.002500 -0.009334 -0.779405
v 0.000000 -0.017062 -0.773062
v 0.002500 -0.017062 -0.773062
v -0.000000 0.019000 -0.788000
v 0.002500 0.019000 -0.788000
v -0.000000 0.009050 -0.787020
v 0.002500 0.009050 -0.787020
vn 1.0000 -0.0000 -0.0000
vn -0.0000 -1.0000 -0.0000
vn -0.0000 -0.0000 1.0000
vn -0.0000 -0.0000 -1.0000
vn -0.0000 1.0000 -0.0000
vn -1.0000 -0.0000 -0.0000
vn -0.0000 0.0980 -0.9952
vn -0.0000 0.6344 -0.7730
vn -0.0000 0.4714 -0.8819
vn -0.0000 -0.0980 0.9952
vn -0.0000 -0.2903 -0.9569
vn -0.0000 -0.0980 -0.9952
vn -0.0000 -0.6344 -0.7730
vn -0.0000 -0.9952 0.0980
vn -0.0000 0.9952 0.0980
vn -0.0000 -0.4714 0.8819
vn -0.0000 0.9952 -0.0980
vn -0.0000 -0.9569 0.2903
vn -0.0000 -0.7730 -0.6344
vn -0.0000 0.8819 0.4714
vn -0.0000 -0.8819 -0.4714
vn -0.0000 0.7730 -0.6344
vn -0.0000 -0.7730 0.6344
vn -0.0000 -0.2903 0.9569
vn -0.0000 0.7730 0.6344
vn -0.0000 0.8819 -0.4714
vn -0.0000 0.4714 0.8819
vn -0.0000 -0.9952 -0.0980
vn -0.0000 -0.4714 -0.8819
vn -0.0000 0.0980 0.9952
vn -0.0000 0.2903 -0.9569
vn -0.0000 0.9569 0.2903
vn -0.0000 -0.8819 0.4714
vn -0.0000 0.2903 0.9569
vn -0.0000 -0.9569 -0.2903
vn -0.0000 0.9569 -0.2903
vn -0.0000 -0.6344 0.7730
vn -0.0000 0.6344 0.7730
vt 0.243781 0.685235
vt 0.481219 0.514141
vt 0.485753 0.499192
vt 0.000000 1.000000
vt 1.000000 1.000000
vt 1.000000 0.000000
vt 0.000000 0.000000
vt 0.481219 0.514141
vt 0.479688 0.529688
vt 0.239247 0.670286
vt 0.718750 0.750000
vt 0.750000 0.625000
vt 0.718750 0.625000
vt 0.165625 0.780469
vt 0.150079 0.778938
vt 0.625000 0.750000
vt 0.656250 0.625000
vt 0.625000 0.625000
vt 0.656250 0.750000
vt 0.687500 0.625000
vt 0.218750 0.750000
vt 0.250000 0.625000
vt 0.218750 0.625000
vt 0.781250 0.750000
vt 0.812500 0.625000
vt 0.781250 0.625000
vt 0.750000 0.750000
vt 0.843750 0.750000
vt 0.875000 0.625000
vt 0.843750 0.625000
vt 0.000000 0.750000
vt 0.031250 0.625000
vt 0.000000 0.625000
vt 0.468750 0.750000
vt 0.500000 0.625000
vt 0.468750 0.625000
vt 0.156250 0.750000
vt 0.187500 0.625000
vt 0.156250 0.625000
vt 0.500000 0.750000
vt 0.531250 0.625000
vt 0.031250 0.750000
vt 0.062500 0.625000
vt 0.875000 0.750000
vt 0.906250 0.625000
vt 0.406250 0.750000
vt 0.437500 0.625000
vt 0.406250 0.625000
vt 0.906250 0.750000
vt 0.937500 0.625000
vt 0.593750 0.750000
vt 0.593750 0.625000
vt 0.093750 0.625000
vt 0.125000 0.750000
vt 0.125000 0.625000
vt 0.187500 0.750000
vt 0.375000 0.750000
vt 0.375000 0.625000
vt 0.562500 0.750000
vt 0.562500 0.625000
vt 0.312500 0.750000
vt 0.343750 0.625000
vt 0.312500 0.625000
vt 0.968750 0.625000
vt 1.000000 0.750000
vt 1.000000 0.625000
vt 0.812500 0.750000
vt 0.250000 0.750000
vt 0.281250 0.625000
vt 0.687500 0.750000
vt 0.437500 0.750000
vt 0.062500 0.750000
vt 0.281250 0.750000
vt 0.968750 0.750000
vt 0.531250 0.750000
vt 0.181171 0.778938
vt 0.196120 0.774403
vt 0.343750 0.750000
vt 0.718750 0.750000
vt 0.750000 0.625000
vt 0.718750 0.625000
vt 0.543829 0.607844
vt 0.528880 0.603309
vt 0.625000 0.750000
vt 0.656250 0.625000
vt 0.625000 0.625000
vt 0.656250 0.750000
vt 0.687500 0.625000
vt 0.218750 0.625000
vt 0.250000 0.750000
vt 0.250000 0.625000
vt 0.781250 0.750000
vt 0.812500 0.625000
vt 0.781250 0.625000
vt 0.750000 0.750000
vt 0.843750 0.625000
vt 0.875000 0.750000
vt 0.875000 0.625000
vt 0.000000 0.750000
vt 0.031250 0.625000
vt 0.000000 0.625000
vt 0.468750 0.750000
vt 0.500000 0.625000
vt 0.468750 0.625000
vt 0.156250 0.750000
vt 0.187500 0.625000
vt 0.156250 0.625000
vt 0.500000 0.750000
vt 0.531250 0.625000
vt 0.031250 0.750000
vt 0.062500 0.625000
vt 0.906250 0.750000
vt 0.906250 0.625000
vt 0.406250 0.750000
vt 0.437500 0.625000
vt 0.406250 0.625000
vt 0.937500 0.625000
vt 0.593750 0.750000
vt 0.593750 0.625000
vt 0.093750 0.625000
vt 0.125000 0.750000
vt 0.125000 0.625000
vt 0.187500 0.750000
vt 0.375000 0.750000
vt 0.375000 0.625000
vt 0.562500 0.750000
vt 0.562500 0.625000
vt 0.312500 0.750000
vt 0.343750 0.625000
vt 0.312500 0.625000
vt 0.968750 0.750000
vt 1.000000 0.625000
vt 0.968750 0.625000
vt 0.843750 0.750000
vt 0.281250 0.625000
vt 0.687500 0.750000
vt 0.437500 0.750000
vt 0.093750 0.750000
vt 0.281250 0.750000
vt 0.937500 0.750000
vt 0.531250 0.750000
vt 0.559375 0.609375
vt 0.574921 0.607844
vt 0.343750 0.750000
vt 0.085938 0.700781
vt 0.087469 0.685235
vt 0.639063 0.529687
vt 0.637531 0.514141
vt 0.092003 0.670286
vt 0.099367 0.656509
vt 0.632997 0.499192
vt 0.625633 0.485416
vt 0.109277 0.644434
vt 0.121353 0.634524
vt 0.615723 0.473340
vt 0.603647 0.463430
vt 0.135130 0.627160
vt 0.589870 0.456066
vt 0.574921 0.451531
vt 0.150079 0.622625
vt 0.165625 0.621094
vt 0.559375 0.450000
vt 0.543829 0.451531
vt 0.181171 0.622625
vt 0.196120 0.627160
vt 0.528880 0.456066
vt 0.515103 0.463430
vt 0.209897 0.634524
vt 0.221973 0.644434
vt 0.503027 0.473340
vt 0.231883 0.656509
vt 0.493117 0.485416
vt 0.245313 0.700781
vt 0.639062 0.529688
vt 0.637532 0.514141
vt 0.632997 0.499193
vt 0.625633 0.485415
vt 0.092003 0.670286
vt 0.099367 0.656509
vt 0.615722 0.473340
vt 0.603647 0.463430
vt 0.150079 0.622625
vt 0.574921 0.451531
vt 0.559375 0.450000
vt 0.181171 0.622625
vt 0.543829 0.451531
vt 0.528880 0.456066
vt 0.196120 0.627160
vt 0.515103 0.463430
vt 0.503028 0.473340
vt 0.221973 0.644434
vt 0.231883 0.656509
vt 0.493117 0.485416
vt 0.485753 0.499192
vt 0.245312 0.700781
vt 0.243781 0.716328
vt 0.239247 0.731276
vt 0.087469 0.716328
vt 0.092003 0.731276
vt 0.231883 0.745053
vt 0.221973 0.757129
vt 0.099367 0.745053
vt 0.109277 0.757129
vt 0.209897 0.767039
vt 0.121353 0.767039
vt 0.135130 0.774403
vt 0.196120 0.774403
vt 0.181171 0.778938
vt 0.937500 0.750000
vt 0.093750 0.750000
vt 0.231883 0.745053
vt 0.121353 0.767039
vt 0.209897 0.767039
vt 0.637531 0.545234
vt 0.632997 0.560183
vt 0.481219 0.545234
vt 0.485753 0.560183
vt 0.625633 0.573959
vt 0.615723 0.586035
vt 0.493117 0.573960
vt 0.503027 0.586035
vt 0.603647 0.595945
vt 0.589870 0.603309
vt 0.515103 0.595945
vt 0.574921 0.607844
vt 0.218750 0.750000
vt 0.812500 0.750000
vt 0.062500 0.750000
vt 1.000000 0.750000
vt 0.481219 0.545234
vt 0.485753 0.560183
vt 0.637531 0.545234
vt 0.632997 0.560183
vt 0.493117 0.573960
vt 0.503027 0.586035
vt 0.625633 0.573959
vt 0.615722 0.586035
vt 0.515103 0.595945
vt 0.603647 0.595945
vt 0.589870 0.603309
vt 0.528880 0.603309
vt 0.543829 0.607844
s 0
f 224/410/305 318/411/305 310/412/305
f 186/413/306 191/414/306 187/414/306
f 181/415/306 184/416/306 180/416/306
f 183/414/307 185/415/307 181/415/307
f 180/416/308 186/413/308 182/413/308
f 182/413/309 187/414/309 183/414/309
f 319/417/310 317/418/310 227/419/310
f 185/415/309 188/416/309 184/416/309
f 187/414/308 189/415/308 185/415/308
f 184/416/307 190/413/307 186/413/307
f 224/420/311 223/421/311 225/422/311
f 194/423/305 196/424/305 182/413/305
f 230/425/312 229/426/312 231/427/312
f 228/428/313 227/429/313 229/426/313
f 220/430/314 253/431/314 221/432/314
f 214/433/315 217/434/315 215/435/315
f 222/436/316 215/435/316 223/421/316
f 210/437/317 207/438/317 211/439/317
f 194/440/318 197/441/318 195/442/318
f 240/443/319 239/444/319 241/445/319
f 212/446/320 219/447/320 213/448/320
f 238/449/321 237/450/321 239/444/321
f 196/451/322 199/452/322 197/441/322
f 206/453/323 203/454/323 207/438/323
f 244/455/324 243/456/324 245/457/324
f 202/458/325 201/459/325 203/454/325
f 232/460/326 231/427/326 233/461/326
f 205/462/327 208/463/327 209/464/327
f 218/465/328 221/432/328 219/447/328
f 250/466/329 245/457/329 251/467/329
f 234/468/330 233/461/330 235/469/330
f 246/470/331 249/471/331 247/472/331
f 193/473/332 194/474/332 195/475/332
f 216/476/333 211/439/333 217/434/333
f 252/477/334 255/478/334 253/431/334
f 226/479/335 225/422/335 227/429/335
f 242/480/336 241/445/336 243/456/336
f 198/481/337 205/462/337 199/452/337
f 254/482/338 247/472/338 255/478/338
f 201/459/339 192/483/339 193/473/339
f 236/484/340 235/469/340 237/450/340
f 208/463/341 213/448/341 209/464/341
f 190/413/310 193/485/310 201/486/310
f 248/487/342 251/467/342 249/471/342
f 288/488/311 287/489/311 289/490/311
f 183/414/305 260/491/305 262/492/305
f 294/493/312 293/494/312 295/495/312
f 292/496/313 291/497/313 293/494/313
f 285/498/314 316/499/314 317/500/314
f 278/501/315 281/502/315 279/503/315
f 286/504/316 279/503/316 287/489/316
f 275/505/317 270/506/317 271/507/317
f 258/508/318 261/509/318 259/510/318
f 304/511/319 303/512/319 305/513/319
f 276/514/320 283/515/320 277/516/320
f 302/517/321 301/518/321 303/512/321
f 260/519/322 263/520/322 261/509/322
f 271/507/323 266/521/323 267/522/323
f 308/523/324 307/524/324 309/525/324
f 266/521/325 265/526/325 267/522/325
f 296/527/326 295/495/326 297/528/326
f 269/529/327 272/530/327 273/531/327
f 282/532/328 285/498/328 283/515/328
f 314/533/329 309/525/329 315/534/329
f 298/535/330 297/528/330 299/536/330
f 310/537/331 313/538/331 311/539/331
f 256/540/332 259/541/332 257/542/332
f 281/502/333 274/543/333 275/505/333
f 316/499/334 319/544/334 317/500/334
f 290/545/335 289/490/335 291/497/335
f 306/546/336 305/513/336 307/524/336
f 263/520/337 268/547/337 269/529/337
f 318/548/338 311/539/338 319/544/338
f 264/549/339 257/542/339 265/526/339
f 300/550/340 299/536/340 301/518/340
f 272/530/341 277/516/341 273/531/341
f 259/551/310 257/552/310 191/414/310
f 312/553/342 315/534/342 313/538/342
f 180/416/305 182/413/305 252/554/305
f 180/416/305 252/554/305 254/555/305
f 286/556/305 183/414/305 181/415/305
f 288/557/305 286/556/305 181/415/305
f 180/416/305 254/555/305 246/558/305
f 180/416/305 246/558/305 248/559/305
f 290/560/305 288/557/305 181/415/305
f 292/561/305 290/560/305 181/415/305
f 180/416/305 248/559/305 250/562/305
f 180/416/305 250/562/305 244/563/305
f 294/564/305 292/561/305 181/415/305
f 296/565/305 294/564/305 181/415/305
f 181/415/305 180/416/305 244/563/305
f 181/415/305 244/563/305 242/566/305
f 298/567/305 296/565/305 181/415/305
f 300/568/305 298/567/305 181/415/305
f 181/415/305 242/566/305 240/569/305
f 181/415/305 240/569/305 238/570/305
f 302/571/305 300/568/305 181/415/305
f 304/572/305 302/571/305 181/415/305
f 181/415/305 238/570/305 236/573/305
f 181/415/305 236/573/305 234/574/305
f 306/575/305 304/572/305 181/415/305
f 308/576/305 306/575/305 181/415/305
f 181/415/305 234/574/305 232/577/305
f 181/415/305 232/577/305 230/578/305
f 314/579/305 308/576/305 181/415/305
f 314/579/305 181/415/305 230/578/305
f 314/579/305 230/578/305 228/580/305
f 312/581/305 314/579/305 228/580/305
f 312/581/305 228/580/305 226/419/305
f 310/412/305 312/581/305 226/419/305
f 224/410/305 222/582/305 316/418/305
f 310/412/305 226/419/305 224/410/305
f 224/410/305 316/418/305 318/411/305
f 186/413/306 190/413/306 191/414/306
f 181/415/306 185/415/306 184/416/306
f 183/414/307 187/414/307 185/415/307
f 180/416/308 184/416/308 186/413/308
f 182/413/309 186/413/309 187/414/309
f 189/415/310 191/414/310 287/583/310
f 189/415/310 287/583/310 289/584/310
f 253/554/310 190/413/310 188/416/310
f 255/555/310 253/554/310 188/416/310
f 189/415/310 289/584/310 291/585/310
f 189/415/310 291/585/310 293/586/310
f 247/587/310 255/555/310 188/416/310
f 249/588/310 247/587/310 188/416/310
f 189/415/310 293/586/310 295/589/310
f 189/415/310 295/589/310 297/590/310
f 251/562/310 249/588/310 188/416/310
f 245/563/310 251/562/310 188/416/310
f 188/416/310 189/415/310 297/590/310
f 188/416/310 297/590/310 299/567/310
f 243/566/310 245/563/310 188/416/310
f 241/591/310 243/566/310 188/416/310
f 188/416/310 299/567/310 301/592/310
f 188/416/310 301/592/310 303/593/310
f 239/570/310 241/591/310 188/416/310
f 237/594/310 239/570/310 188/416/310
f 188/416/310 303/593/310 305/595/310
f 188/416/310 305/595/310 307/596/310
f 235/597/310 237/594/310 188/416/310
f 233/577/310 235/597/310 188/416/310
f 188/416/310 307/596/310 309/598/310
f 188/416/310 309/598/310 315/599/310
f 231/600/310 233/577/310 188/416/310
f 229/601/310 231/600/310 188/416/310
f 188/416/310 315/599/310 313/602/310
f 188/416/310 313/602/310 311/603/310
f 227/419/310 229/601/310 188/416/310
f 317/418/310 223/604/310 225/410/310
f 227/419/310 188/416/310 311/603/310
f 317/418/310 225/410/310 227/419/310
f 227/419/310 311/603/310 319/417/310
f 185/415/309 189/415/309 188/416/309
f 187/414/308 191/414/308 189/415/308
f 184/416/307 188/416/307 190/413/307
f 224/420/311 222/436/311 223/421/311
f 183/414/305 222/582/305 214/605/305
f 183/414/305 214/605/305 216/606/305
f 220/607/305 252/554/305 182/413/305
f 218/608/305 220/607/305 182/413/305
f 183/414/305 216/606/305 210/609/305
f 183/414/305 210/609/305 206/610/305
f 212/611/305 218/608/305 182/413/305
f 208/612/305 212/611/305 182/413/305
f 182/413/305 183/414/305 206/610/305
f 182/413/305 206/610/305 202/613/305
f 204/614/305 208/612/305 182/413/305
f 198/615/305 204/614/305 182/413/305
f 182/413/305 202/613/305 200/616/305
f 182/413/305 200/616/305 192/617/305
f 196/424/305 198/615/305 182/413/305
f 182/413/305 192/617/305 194/423/305
f 230/425/312 228/428/312 229/426/312
f 228/428/313 226/479/313 227/429/313
f 220/430/314 252/477/314 253/431/314
f 214/433/315 216/476/315 217/434/315
f 222/436/316 214/433/316 215/435/316
f 210/437/317 206/453/317 207/438/317
f 194/440/318 196/451/318 197/441/318
f 240/443/319 238/449/319 239/444/319
f 212/446/320 218/465/320 219/447/320
f 238/449/321 236/484/321 237/450/321
f 196/451/322 198/481/322 199/452/322
f 206/453/323 202/458/323 203/454/323
f 244/455/324 242/480/324 243/456/324
f 202/458/325 200/618/325 201/459/325
f 232/460/326 230/425/326 231/427/326
f 205/462/327 204/619/327 208/463/327
f 218/465/328 220/430/328 221/432/328
f 250/466/329 244/455/329 245/457/329
f 234/468/330 232/460/330 233/461/330
f 246/470/331 248/487/331 249/471/331
f 193/473/332 192/483/332 194/474/332
f 216/476/333 210/437/333 211/439/333
f 252/477/334 254/482/334 255/478/334
f 226/479/335 224/420/335 225/422/335
f 242/480/336 240/443/336 241/445/336
f 198/481/337 204/619/337 205/462/337
f 254/482/338 246/470/338 247/472/338
f 201/459/339 200/618/339 192/483/339
f 236/484/340 234/468/340 235/469/340
f 208/463/341 212/446/341 213/448/341
f 190/413/310 253/554/310 221/607/310
f 190/413/310 221/607/310 219/608/310
f 215/605/310 223/604/310 191/414/310
f 217/606/310 215/605/310 191/414/310
f 190/413/310 219/608/310 213/611/310
f 190/413/310 213/611/310 209/612/310
f 211/620/310 217/606/310 191/414/310
f 207/610/310 211/620/310 191/414/310
f 190/413/310 209/612/310 205/621/310
f 190/413/310 205/621/310 199/615/310
f 207/610/310 191/414/310 190/413/310
f 203/622/310 207/610/310 190/413/310
f 190/413/310 199/615/310 197/424/310
f 190/413/310 197/424/310 195/423/310
f 201/486/310 203/622/310 190/413/310
f 190/413/310 195/423/310 193/485/310
f 248/487/342 250/466/342 251/467/342
f 288/488/311 286/504/311 287/489/311
f 183/414/305 286/556/305 278/623/305
f 183/414/305 278/623/305 280/624/305
f 284/625/305 316/418/305 222/582/305
f 282/626/305 284/625/305 222/582/305
f 183/414/305 280/624/305 274/627/305
f 183/414/305 274/627/305 270/628/305
f 276/629/305 282/626/305 222/582/305
f 272/630/305 276/629/305 222/582/305
f 183/414/305 270/628/305 266/631/305
f 183/414/305 266/631/305 264/632/305
f 272/630/305 222/582/305 183/414/305
f 268/633/305 272/630/305 183/414/305
f 183/414/305 264/632/305 256/634/305
f 183/414/305 256/634/305 258/551/305
f 262/492/305 268/633/305 183/414/305
f 183/414/305 258/551/305 260/491/305
f 294/493/312 292/496/312 293/494/312
f 292/496/313 290/545/313 291/497/313
f 285/498/314 284/635/314 316/499/314
f 278/501/315 280/636/315 281/502/315
f 286/504/316 278/501/316 279/503/316
f 275/505/317 274/543/317 270/506/317
f 258/508/318 260/519/318 261/509/318
f 304/511/319 302/517/319 303/512/319
f 276/514/320 282/532/320 283/515/320
f 302/517/321 300/550/321 301/518/321
f 260/519/322 262/637/322 263/520/322
f 271/507/323 270/506/323 266/521/323
f 308/523/324 306/546/324 307/524/324
f 266/521/325 264/549/325 265/526/325
f 296/527/326 294/493/326 295/495/326
f 269/529/327 268/547/327 272/530/327
f 282/532/328 284/635/328 285/498/328
f 314/533/329 308/523/329 309/525/329
f 298/535/330 296/527/330 297/528/330
f 310/537/331 312/553/331 313/538/331
f 256/540/332 258/638/332 259/541/332
f 281/502/333 280/636/333 274/543/333
f 316/499/334 318/548/334 319/544/334
f 290/545/335 288/488/335 289/490/335
f 306/546/336 304/511/336 305/513/336
f 263/520/337 262/637/337 268/547/337
f 318/548/338 310/537/338 311/539/338
f 264/549/339 256/540/339 257/542/339
f 300/550/340 298/535/340 299/536/340
f 272/530/341 276/514/341 277/516/341
f 223/604/310 317/418/310 285/639/310
f 223/604/310 285/639/310 283/640/310
f 279/641/310 287/583/310 191/414/310
f 281/642/310 279/641/310 191/414/310
f 223/604/310 283/640/310 277/643/310
f 223/604/310 277/643/310 273/644/310
f 275/645/310 281/642/310 191/414/310
f 271/646/310 275/645/310 191/414/310
f 191/414/310 223/604/310 273/644/310
f 191/414/310 273/644/310 269/647/310
f 267/648/310 271/646/310 191/414/310
f 265/649/310 267/648/310 191/414/310
f 191/414/310 269/647/310 263/650/310
f 191/414/310 263/650/310 261/651/310
f 257/552/310 265/649/310 191/414/310
f 191/414/310 261/651/310 259/551/310
f 312/553/342 314/533/342 315/534/342
