# Blender 4.5.4 LTS
# www.blender.org
o Object.095
v -0.336856 0.342150 -0.025303
v -0.337337 0.338601 -0.025303
v -0.337500 0.335000 -0.025303
v -0.337458 0.336807 -0.022540
v -0.337500 0.335000 -0.022540
v -0.285674 0.414676 -0.027303
v -0.288012 0.412850 -0.027303
v 0.286737 0.414120 -0.027303
v 0.287639 0.413324 -0.027303
v 0.285096 0.414856 -0.027303
v 0.337458 0.336807 -0.025303
v 0.337500 0.335000 -0.022540
v 0.336854 0.342159 -0.025303
v 0.337136 0.340382 -0.025303
v 0.334943 -0.349071 -0.025303
v 0.334274 -0.350735 -0.025303
v 0.336056 -0.345648 -0.025303
v 0.336856 -0.342150 -0.025303
v 0.337337 -0.338601 -0.025303
v 0.337458 -0.336807 -0.025303
v 0.337458 -0.336807 -0.022540
v 0.286739 -0.414118 -0.027303
v 0.287640 -0.413323 -0.027303
v -0.287212 -0.413749 -0.027303
v -0.287639 -0.413324 -0.027303
v -0.285096 -0.414856 -0.027303
v -0.284506 -0.414964 -0.027303
v -0.337458 -0.336807 -0.025303
v -0.337500 -0.335000 -0.022540
v -0.337136 -0.340382 -0.025303
v -0.337337 -0.338601 -0.025303
v -0.334937 -0.349085 -0.025303
v 0.287212 0.413749 -0.027303
v 0.334848 0.342009 -0.027303
v 0.334483 0.343728 -0.027303
v 0.329764 0.355074 -0.027303
v 0.330659 0.353561 -0.027303
v 0.332238 0.350403 -0.027303
v 0.332914 0.348777 -0.027303
v 0.328797 0.356551 -0.027303
v 0.284506 -0.414964 -0.027303
v 0.287214 -0.413748 -0.027303
v 0.285674 -0.414676 -0.027303
v 0.288012 -0.412850 -0.027303
v 0.285099 -0.414855 -0.027303
v -0.286737 -0.414120 -0.027303
v -0.285672 -0.414677 -0.027303
v -0.334483 -0.343728 -0.027303
v -0.335458 -0.336772 -0.027303
v -0.334038 -0.345435 -0.027303
v -0.335132 -0.340276 -0.027303
v -0.332238 -0.350403 -0.027303
v -0.330652 0.353571 -0.027303
v -0.331481 0.352009 -0.027303
v -0.328790 0.356562 -0.027303
v -0.284506 0.414964 -0.027303
v -0.286739 0.414118 -0.027303
v -0.287214 0.413748 -0.027303
v -0.287640 0.413323 -0.027303
v -0.285099 0.414855 -0.027303
v 0.284506 0.414964 -0.027303
v 0.285672 0.414677 -0.027303
v -0.335132 0.340276 -0.027303
v -0.333512 0.347128 -0.027303
v -0.334479 0.343747 -0.027303
v -0.334035 0.345449 -0.027303
v -0.334846 0.342019 -0.027303
v 0.332230 -0.350420 -0.027303
v 0.334035 -0.345449 -0.027303
v -0.335458 0.336772 -0.027303
v 0.335132 -0.340276 -0.027303
v 0.335458 -0.336772 -0.027303
v 0.337458 0.336807 -0.022540
v -0.337458 -0.336807 -0.022540
v 0.337500 -0.335000 -0.022540
v -0.329754 0.355091 -0.027303
v -0.332908 0.348793 -0.027303
v -0.332230 0.350420 -0.027303
v -0.337136 0.340382 -0.025303
v -0.335335 0.338530 -0.027303
v -0.337458 0.336807 -0.025303
v -0.337500 -0.335000 -0.025303
v -0.335335 -0.338530 -0.027303
v -0.336052 -0.345665 -0.025303
v -0.336854 -0.342159 -0.025303
v -0.334266 -0.350754 -0.025303
v -0.332914 -0.348777 -0.027303
v -0.335536 -0.347381 -0.025303
v -0.333513 -0.347126 -0.027303
v -0.330659 -0.353561 -0.027303
v -0.328797 -0.356551 -0.027303
v -0.329764 -0.355074 -0.027303
v 0.330652 -0.353571 -0.027303
v 0.329754 -0.355091 -0.027303
v 0.328790 -0.356562 -0.027303
v 0.333512 -0.347128 -0.027303
v 0.332908 -0.348793 -0.027303
v 0.335536 -0.347378 -0.025303
v 0.334479 -0.343747 -0.027303
v 0.337136 -0.340382 -0.025303
v 0.335335 -0.338530 -0.027303
v 0.337500 -0.335000 -0.025303
v 0.335458 0.336772 -0.027303
v 0.335335 0.338530 -0.027303
v 0.337337 0.338601 -0.025303
v 0.335132 0.340276 -0.027303
v 0.334038 0.345435 -0.027303
v 0.333513 0.347126 -0.027303
v 0.331483 0.352003 -0.027303
v 0.337500 0.335000 -0.025303
v -0.331906 -0.367342 -0.019797
v -0.331906 -0.366328 -0.020942
v -0.331906 -0.365067 -0.021813
v -0.331906 -0.364606 -0.022031
v -0.331906 -0.464897 0.180660
v -0.331906 0.451501 0.066215
v -0.331906 0.441851 0.048850
v -0.331906 0.438366 0.043249
v -0.331906 0.436573 0.040483
v -0.331906 0.430980 0.032310
v -0.331906 0.429035 0.029617
v -0.331906 0.427061 0.026951
v -0.331906 0.420959 0.019123
v -0.331906 0.407954 0.004224
v -0.331906 0.405682 0.001839
v -0.331906 0.403381 -0.000517
v -0.331906 0.401050 -0.002846
v -0.331906 0.398689 -0.005147
v -0.331906 0.396298 -0.007419
v -0.331906 0.393878 -0.009664
v -0.331906 0.388948 -0.014068
v -0.331906 0.455818 0.075122
v -0.331906 0.458508 0.081142
v -0.331906 0.462269 0.090309
v -0.331906 0.463449 0.093401
v -0.331906 0.465700 0.099640
v -0.331906 0.466771 0.102787
v -0.331906 0.469719 0.112231
v -0.331906 0.470622 0.115401
v -0.331906 0.471487 0.118583
v -0.331906 0.472313 0.121778
v -0.331906 0.473100 0.124987
v -0.331906 0.477503 0.147727
v -0.331906 0.479906 0.170707
v -0.331906 0.480089 0.174018
v -0.331906 0.480332 0.180660
v -0.331906 0.378732 -0.022540
v -0.331906 0.425057 0.024313
v -0.331906 0.464593 0.096511
v -0.331906 0.418866 0.016569
v -0.331906 0.410196 0.006637
v -0.331906 0.414590 0.011547
v -0.331906 -0.366696 -0.020589
v -0.331906 -0.365931 -0.021266
v -0.331906 -0.367036 -0.020205
v -0.331906 0.432887 0.035023
v -0.331906 0.468776 0.109074
v -0.331906 0.474557 0.131441
v -0.331906 0.475859 0.137946
v -0.331906 0.459798 0.084179
v -0.331906 -0.461517 0.158435
v -0.331906 0.479421 0.164107
v -0.331906 0.478775 0.157534
v -0.331906 -0.463608 0.164810
v -0.331906 -0.462466 0.160937
v -0.331906 -0.463909 0.166114
v -0.331906 -0.463267 0.163512
v -0.331906 -0.464713 0.171400
v -0.331906 -0.460986 0.157205
v -0.331906 0.443543 0.051685
v -0.331906 0.445201 0.054544
v -0.331906 0.440125 0.046037
v -0.331906 0.434747 0.037741
v -0.331906 0.448418 0.060333
v -0.331906 0.412408 0.009078
v -0.331906 -0.367853 -0.018912
v -0.331906 -0.367616 -0.019364
v -0.331906 0.386439 -0.016228
v -0.331906 0.391428 -0.011880
v -0.331906 0.381331 -0.020464
v -0.331906 0.476452 0.141218
v -0.331906 0.478391 0.154258
v -0.331906 0.452982 0.069176
v -0.328731 -0.463904 0.166095
v -0.328731 -0.464168 0.167418
v -0.331906 -0.464897 0.175435
v -0.331906 -0.459809 0.154785
v -0.331906 -0.462011 0.159678
v -0.331906 -0.462887 0.162221
v -0.328731 -0.463602 0.164785
v -0.331906 -0.464170 0.167426
v -0.331906 -0.464391 0.168744
v -0.331906 -0.464814 0.172738
v -0.138390 0.271727 -0.028015
v 0.137322 0.273196 -0.028015
v 0.137828 0.272828 -0.028015
v 0.138032 0.272590 -0.028015
v 0.138390 0.271727 -0.028015
v 0.138316 0.272032 -0.028015
v 0.136727 0.273390 -0.028015
v -0.137828 0.272828 -0.028015
v -0.137322 0.273196 -0.028015
v -0.136727 0.273390 -0.028015
v -0.138032 0.272590 -0.028015
v -0.138316 0.272032 -0.028015
v 0.331906 -0.367616 -0.019364
v 0.331906 -0.366696 -0.020589
v 0.331906 -0.366328 -0.020942
v 0.331906 -0.365931 -0.021266
v 0.331906 -0.464897 0.180660
v 0.331906 0.448418 0.060333
v 0.331906 0.434747 0.037741
v 0.331906 0.432887 0.035023
v 0.331906 0.427061 0.026951
v 0.331906 0.420959 0.019123
v 0.331906 0.410196 0.006637
v 0.331906 0.398689 -0.005147
v 0.331906 0.393878 -0.009663
v 0.331906 0.391428 -0.011880
v 0.331906 0.458508 0.081142
v 0.331906 0.459798 0.084179
v 0.331906 0.462269 0.090309
v 0.331906 0.463449 0.093401
v 0.331906 0.465700 0.099640
v 0.331906 0.471487 0.118583
v 0.331906 0.472313 0.121779
v 0.331906 0.473100 0.124987
v 0.331906 0.477503 0.147727
v 0.331906 0.479421 0.164107
v 0.331906 0.480089 0.174018
v 0.331906 0.466771 0.102787
v 0.331906 0.445201 0.054545
v 0.331906 0.443543 0.051685
v 0.331906 0.455818 0.075122
v 0.331906 0.436573 0.040483
v 0.331906 0.430980 0.032310
v 0.331906 0.418866 0.016569
v 0.331906 0.407954 0.004224
v 0.331906 -0.367342 -0.019797
v 0.331906 -0.367853 -0.018912
v 0.331906 -0.365067 -0.021813
v 0.331906 -0.364606 -0.022031
v 0.331906 0.480332 0.180660
v 0.331906 0.474557 0.131441
v 0.331906 0.468776 0.109074
v 0.331906 0.469719 0.112231
v 0.331906 0.464593 0.096511
v 0.331906 -0.459162 0.153596
v 0.331906 -0.460975 0.157181
v 0.331906 0.405682 0.001839
v 0.331906 -0.463904 0.166095
v 0.331906 0.441851 0.048850
v 0.331906 0.401050 -0.002846
v 0.331906 0.414590 0.011547
v 0.331906 0.412408 0.009078
v 0.331906 0.403381 -0.000517
v 0.331906 0.396298 -0.007419
v 0.331906 0.438366 0.043249
v 0.331906 0.440125 0.046037
v 0.331906 0.425057 0.024314
v 0.331906 0.429035 0.029617
v 0.331906 -0.462882 0.162205
v 0.331906 -0.464713 0.171400
v 0.331906 0.478775 0.157534
v 0.331906 0.451501 0.066215
v 0.331906 0.388948 -0.014068
v 0.331906 0.386439 -0.016228
v 0.331906 0.378732 -0.022540
v 0.331906 0.381331 -0.020464
v 0.331906 -0.367036 -0.020205
v 0.331906 0.470622 0.115401
v 0.331906 0.475859 0.137946
v 0.331906 0.476452 0.141218
v 0.331906 0.478391 0.154258
v 0.331906 0.479906 0.170707
v 0.331906 0.452982 0.069176
v 0.331906 -0.464897 0.175435
v 0.331906 -0.460407 0.155968
v 0.331906 -0.461508 0.158413
v 0.331906 -0.463602 0.164785
v 0.331906 -0.464168 0.167418
v 0.331906 -0.464814 0.172738
v 0.137322 -0.073196 -0.028015
v 0.136727 -0.073390 -0.028015
v 0.137828 -0.072828 -0.028015
v 0.138316 -0.072032 -0.028015
v -0.136727 -0.073390 -0.028015
v 0.138196 -0.072322 -0.028015
v 0.138390 -0.071727 -0.028015
v -0.137828 -0.072828 -0.028015
v -0.138196 -0.072322 -0.028015
v -0.138316 -0.072032 -0.028015
v -0.138390 -0.071727 -0.028015
v -0.137322 -0.073196 -0.028015
vn 0.3871 0.0360 -0.9213
vn 0.7045 0.0634 -0.7069
vn 0.3598 0.0249 -0.9327
vn 0.9997 0.0232 -0.0000
vn -0.7069 -0.0164 -0.7072
vn -0.0000 0.9952 -0.0978
vn -0.2784 0.9092 -0.3094
vn -0.0000 0.9467 -0.3222
vn -0.8354 0.5204 -0.1771
vn -0.3190 -0.1147 -0.9408
vn -0.0019 -0.0008 -1.0000
vn -0.5350 -0.2078 -0.8189
vn -0.0033 -0.0002 -1.0000
vn 0.7037 -0.0655 -0.7075
vn 0.7027 -0.0801 -0.7070
vn 0.7019 -0.0816 -0.7076
vn -0.0036 -0.0000 -1.0000
vn -0.9976 -0.0673 -0.0158
vn -0.9897 -0.1388 -0.0346
vn -0.9976 -0.0668 -0.0154
vn -0.9980 -0.0623 -0.0124
vn -0.8430 -0.5304 -0.0889
vn -0.3282 -0.9316 -0.1562
vn -0.9983 -0.0582 -0.0098
vn -0.9986 -0.0532 -0.0065
vn -0.9988 -0.0491 -0.0037
vn -0.9990 -0.0455 -0.0014
vn -0.9991 -0.0433 -0.0000
vn -0.9996 -0.0232 0.0127
vn -0.9998 -0.0189 -0.0101
vn 0.9996 -0.0000 0.0275
vn 1.0000 -0.0000 -0.0000
vn -0.7069 0.0164 -0.7071
vn -0.0017 -0.0009 -1.0000
vn -0.0027 -0.0007 -1.0000
vn -0.0006 -0.0002 -1.0000
vn -0.0029 -0.0005 -1.0000
vn -0.0031 -0.0004 -1.0000
vn -0.0000 -0.0000 -1.0000
vn 0.0011 0.0009 -1.0000
vn 0.0018 0.0015 -1.0000
vn 0.7027 0.0801 -0.7070
vn 0.4043 0.0470 -0.9134
vn 0.7053 -0.0487 -0.7072
vn 0.8870 -0.0699 -0.4564
vn -0.0035 0.0002 -1.0000
vn -0.9300 -0.1053 -0.3521
vn -0.7963 -0.5554 -0.2398
vn -0.8731 -0.0985 -0.4775
vn -0.9932 -0.1081 -0.0430
vn -0.9948 -0.0956 -0.0345
vn -0.9959 -0.0861 -0.0282
vn -0.9967 -0.0784 -0.0231
vn -0.6835 -0.7060 -0.1855
vn -0.0372 -0.9665 -0.2539
vn -0.0001 -0.9694 -0.2455
vn -0.7059 0.0476 -0.7067
vn 0.0001 -0.9744 -0.2247
vn 0.0002 -0.9862 -0.1653
vn -0.6880 -0.1293 -0.7141
vn 0.0195 -0.9925 -0.1204
vn -0.0000 0.9973 -0.0733
vn -0.0000 0.9275 -0.3739
vn -0.0000 -0.9995 -0.0308
vn -1.0000 -0.0000 -0.0000
vn -0.9997 0.0232 0.0063
vn -0.9997 0.0232 -0.0000
vn -0.9997 0.0232 0.0109
vn -1.0000 0.0011 -0.0031
vn -0.9993 0.0386 -0.0000
vn -0.9992 0.0408 -0.0015
vn -0.3355 0.9406 -0.0520
vn -0.8366 0.5470 -0.0302
vn -0.9991 0.0419 -0.0023
vn -0.9991 0.0431 -0.0032
vn -0.9990 0.0447 -0.0044
vn -0.3223 0.9402 -0.1102
vn -0.8371 0.5433 -0.0637
vn -0.9989 0.0460 -0.0054
vn -0.9989 0.0473 -0.0064
vn -0.9988 0.0492 -0.0079
vn -0.3087 0.9359 -0.1696
vn -0.8373 0.5380 -0.0975
vn -0.9987 0.0506 -0.0092
vn -0.9986 0.0521 -0.0104
vn -0.9985 0.0542 -0.0122
vn -0.2962 0.9276 -0.2275
vn -0.6851 0.7064 -0.1778
vn -0.9982 0.0574 -0.0153
vn -0.6846 0.7046 -0.1867
vn -0.6841 0.7027 -0.1954
vn -0.8364 0.5272 -0.1502
vn -0.9980 0.0604 -0.0180
vn -0.9979 0.0622 -0.0198
vn -0.9977 0.0641 -0.0218
vn -0.9976 0.0654 -0.0231
vn -0.9975 0.0668 -0.0246
vn -0.2718 0.8991 -0.3431
vn -0.8342 0.5152 -0.1966
vn -0.9973 0.0681 -0.0260
vn -0.9971 0.0702 -0.0283
vn -0.9974 0.0673 -0.0250
vn 0.0024 -0.0009 -1.0000
vn 0.0013 -0.0011 -1.0000
vn 0.0022 0.0003 -1.0000
vn -0.0025 -0.0008 -1.0000
vn -0.0029 -0.0013 -1.0000
vn 0.6879 -0.1294 -0.7142
vn 0.6960 -0.1592 -0.7001
vn -0.0035 0.0004 -1.0000
vn -0.4864 0.0681 -0.8711
vn -0.3824 0.0725 -0.9212
vn -0.0033 0.0008 -1.0000
vn -0.1973 0.0436 -0.9794
vn -0.6780 -0.2039 -0.7062
vn -0.9849 -0.1563 -0.0750
vn -0.9837 -0.1615 -0.0786
vn -0.8517 -0.4812 -0.2077
vn 0.2462 0.1023 -0.9638
vn 0.0030 0.0015 -1.0000
vn -0.9969 0.0725 -0.0308
vn -0.9966 0.0748 -0.0334
vn -0.9963 0.0781 -0.0372
vn -0.9959 0.0806 -0.0403
vn -0.9956 0.0833 -0.0436
vn -0.9951 0.0868 -0.0483
vn -0.7240 0.5967 -0.3461
vn -0.7841 0.5369 -0.3114
vn -0.9946 0.0896 -0.0520
vn -0.9943 0.0916 -0.0546
vn -0.9940 0.0935 -0.0574
vn -0.9936 0.0955 -0.0602
vn -0.7132 0.5882 -0.3813
vn -0.8090 0.4933 -0.3198
vn -0.9932 0.0975 -0.0632
vn -0.9928 0.0995 -0.0663
vn -0.7074 0.5833 -0.3992
vn -0.8193 0.4732 -0.3238
vn -0.9924 0.1017 -0.0696
vn -0.9919 0.1039 -0.0730
vn -0.7052 0.5748 -0.4151
vn -0.8071 0.4777 -0.3470
vn -0.9912 0.1071 -0.0784
vn -0.8319 0.4460 -0.3302
vn -0.9904 0.1103 -0.0838
vn -0.9900 0.1117 -0.0863
vn -0.5543 -0.7641 -0.3299
vn -0.5808 -0.7437 -0.3310
vn -0.4390 -0.8392 -0.3209
vn -0.4767 -0.8169 -0.3247
vn -0.3807 -0.8697 -0.3143
vn -0.2752 -0.9135 -0.2995
vn -0.2830 -0.9108 -0.3007
vn -0.1219 -0.6657 -0.7362
vn -0.0935 -0.5106 -0.8547
vn -0.1728 -0.9438 -0.2818
vn -0.1572 -0.9474 -0.2788
vn -0.0004 -0.0019 -1.0000
vn -0.0012 0.0038 -1.0000
vn -0.0000 -0.9908 -0.1356
vn -0.9997 -0.0001 0.0232
vn -0.9997 -0.0000 -0.0232
vn 0.6851 0.7064 -0.1778
vn 0.9985 -0.0549 -0.0075
vn 0.9988 -0.0491 -0.0037
vn 0.9990 -0.0455 -0.0014
vn 0.9996 -0.0285 -0.0000
vn 0.9994 -0.0357 -0.0000
vn 0.9991 -0.0433 -0.0000
vn 0.9996 -0.0232 0.0127
vn -0.0000 0.9582 -0.2862
vn 0.8373 0.5380 -0.0975
vn -0.0000 0.9985 -0.0552
vn -0.0000 -1.0000 -0.0000
vn -0.0000 0.9872 -0.1594
vn -0.0000 -0.9807 -0.1957
vn -0.0000 0.9909 -0.1347
vn 0.8371 0.5433 -0.0637
vn -0.9997 -0.0232 -0.0000
vn 0.8707 0.4729 -0.1348
vn 0.6246 0.7549 -0.1999
vn 0.0001 -0.9808 -0.1952
vn -0.0000 0.9385 -0.3452
vn 0.1505 0.9524 -0.2651
vn -0.0000 0.9755 -0.2202
vn -0.0000 0.9993 -0.0366
vn -0.0000 -0.0000 1.0000
vn -0.0000 -0.9744 -0.2246
vn -0.0000 0.9427 -0.3335
vn -0.0000 0.9527 -0.3038
vn -0.0000 -0.9972 -0.0752
vn -0.6831 -0.1781 -0.7083
vn -0.0489 0.9193 -0.3905
vn -0.0000 0.9278 -0.3731
vn -0.2806 -0.1729 -0.9441
vn -0.1539 -0.0922 -0.9838
vn -0.0018 -0.0013 -1.0000
vn -0.0021 0.0001 -1.0000
vn -0.0021 -0.0011 -1.0000
vn -0.0023 -0.0010 -1.0000
vn 0.6740 -0.2100 -0.7083
vn 0.6735 -0.2097 -0.7088
vn 0.6747 -0.2093 -0.7078
vn 0.6668 -0.2364 -0.7068
vn 0.6656 -0.2393 -0.7070
vn 0.6681 -0.2346 -0.7061
vn -0.9652 -0.2208 -0.1404
vn -0.9699 -0.2151 -0.1139
vn -0.8689 -0.2613 -0.4203
vn -0.8732 -0.2606 -0.4117
vn -0.9193 -0.2488 -0.3048
vn -0.9374 -0.2411 -0.2514
vn -0.8858 -0.3475 -0.3077
vn -0.7531 -0.4926 -0.4361
vn -0.9500 -0.2337 -0.2069
vn -0.9591 -0.2266 -0.1699
vn -0.9655 -0.2200 -0.1393
vn -0.9038 -0.3791 -0.1988
vn -0.8153 -0.5128 -0.2689
vn -0.9705 -0.2136 -0.1120
vn 0.0006 -0.0018 -1.0000
vn -0.6971 0.1206 -0.7068
vn -0.6928 0.1471 -0.7060
vn -0.5332 0.1532 -0.8320
vn -0.3076 0.0815 -0.9480
vn -0.3358 0.1046 -0.9361
vn -0.0032 0.0012 -1.0000
vn 0.6971 0.1142 -0.7078
vn -0.0031 0.0015 -1.0000
vn -0.7059 -0.6260 -0.3314
vn -0.3635 -0.3652 -0.8570
vn -0.4609 -0.4631 -0.7571
vn -0.6653 -0.6685 -0.3324
vn -0.6499 -0.6834 -0.3324
vn -0.9894 0.1137 -0.0898
vn -0.9885 0.1170 -0.0959
vn -0.9874 0.1206 -0.1027
vn -0.6758 0.5523 -0.4881
vn -0.8178 0.4297 -0.3828
vn -0.9858 0.1250 -0.1119
vn -0.8592 0.3791 -0.3436
vn -0.9845 0.1283 -0.1192
vn -0.6659 0.5401 -0.5146
vn -0.8173 0.4154 -0.3993
vn -0.9810 0.1356 -0.1384
vn -0.8167 0.4110 -0.4051
vn -0.8158 0.4067 -0.4111
vn -0.8147 0.4026 -0.4174
vn -0.8134 0.3985 -0.4237
vn -0.8768 0.3270 -0.3525
vn -0.9776 0.1412 -0.1561
vn -0.9765 0.1425 -0.1616
vn -0.9755 0.1436 -0.1669
vn -0.9738 0.1450 -0.1749
vn -0.9568 0.1515 -0.2481
vn -0.0942 0.9089 -0.4062
vn -0.0690 0.3756 -0.9242
vn -0.1263 0.6873 -0.7153
vn -0.1632 0.8881 -0.4298
vn -0.1504 0.8923 -0.4256
vn -0.1900 0.8781 -0.4392
vn -0.2279 0.8624 -0.4520
vn -0.2632 0.8456 -0.4645
vn -0.2721 0.8411 -0.4674
vn -0.3022 0.8246 -0.4782
vn -0.3214 0.8131 -0.4853
vn -0.3391 0.8018 -0.4920
vn -0.3560 0.7903 -0.4986
vn -0.3715 0.7791 -0.5050
vn -0.3860 0.7678 -0.5113
vn -0.3999 0.7564 -0.5176
vn -0.3974 0.7585 -0.5164
vn -0.4131 0.7451 -0.5237
vn -0.4309 0.7283 -0.5328
vn -0.4461 0.7127 -0.5414
vn -0.4600 0.6969 -0.5502
vn -0.0015 -0.0015 -1.0000
vn -0.0012 -0.0016 -1.0000
vn 0.0012 -0.0016 -1.0000
vn 0.0033 0.0009 -1.0000
vn 0.0028 -0.0004 -1.0000
vn 0.0004 -0.0019 -1.0000
vn 0.1868 -0.7795 -0.5979
vn 0.0938 -0.5107 -0.8546
vn 0.2290 -0.9286 -0.2919
vn 0.1004 -0.9583 -0.2675
vn 0.9969 -0.0752 -0.0210
vn 0.8808 -0.0594 -0.4697
vn 0.9976 -0.0673 -0.0158
vn 0.9976 -0.0668 -0.0154
vn 0.9980 -0.0623 -0.0124
vn -0.7059 -0.0476 -0.7067
vn 0.7069 -0.0164 -0.7072
vn -0.0000 0.9806 -0.1963
vn 0.9997 -0.0232 -0.0000
vn 0.9997 0.0232 0.0109
vn 0.9993 0.0386 -0.0000
vn 0.9992 0.0408 -0.0015
vn 0.9991 0.0419 -0.0023
vn 0.9991 0.0431 -0.0032
vn 0.9990 0.0447 -0.0044
vn 0.9989 0.0460 -0.0054
vn 0.3223 0.9402 -0.1102
vn 0.9989 0.0473 -0.0064
vn 0.9988 0.0492 -0.0079
vn 0.9987 0.0506 -0.0092
vn 0.3087 0.9359 -0.1696
vn 0.9986 0.0521 -0.0104
vn 0.9985 0.0542 -0.0122
vn 0.9983 0.0563 -0.0142
vn 0.2962 0.9276 -0.2276
vn 0.9982 0.0580 -0.0158
vn 0.9981 0.0597 -0.0174
vn 0.9980 0.0603 -0.0180
vn 0.9979 0.0622 -0.0198
vn 0.9977 0.0641 -0.0218
vn 0.9976 0.0654 -0.0231
vn 0.9975 0.0667 -0.0246
vn 0.9973 0.0681 -0.0260
vn 0.8342 0.5152 -0.1966
vn 0.2718 0.8991 -0.3431
vn 0.9971 0.0702 -0.0283
vn 0.6896 0.6665 -0.2831
vn 0.0489 0.9193 -0.3905
vn 0.7411 0.6179 -0.2625
vn 0.9974 0.0673 -0.0250
vn 0.9969 0.0725 -0.0308
vn -0.0000 0.0050 -1.0000
vn -0.0008 0.0042 -1.0000
vn -0.5159 -0.3229 -0.7934
vn -0.3403 -0.2213 -0.9139
vn -0.4764 -0.3453 -0.8086
vn -0.4760 -0.3467 -0.8082
vn -0.5874 -0.2937 -0.7542
vn -0.5883 -0.2937 -0.7534
vn -0.0028 0.0021 -1.0000
vn -0.6497 -0.2778 -0.7076
vn -0.6490 -0.2786 -0.7079
vn -0.7731 -0.2717 -0.5731
vn -0.6870 -0.2758 -0.6722
vn -0.6862 -0.2759 -0.6730
vn -0.7155 -0.2987 -0.6316
vn -0.5349 -0.3612 -0.7638
vn -0.7717 -0.2719 -0.5750
vn -0.7063 -0.6270 -0.3287
vn -0.5005 -0.3701 -0.7826
vn -0.5668 -0.4407 -0.6961
vn -0.6163 -0.4979 -0.6101
vn -0.6426 -0.5304 -0.5530
vn -0.6645 -0.5595 -0.4954
vn -0.6821 -0.5850 -0.4388
vn -0.6957 -0.6070 -0.3841
vn -0.9725 0.1453 -0.1819
vn -0.2569 0.1683 -0.9517
vn -0.2795 0.1651 -0.9458
vn -0.1899 0.1008 -0.9766
vn -0.0843 0.0448 -0.9954
vn -0.3059 0.1623 -0.9381
vn -0.3391 0.1598 -0.9271
vn -0.3795 0.1579 -0.9116
vn -0.3784 0.1589 -0.9119
vn -0.3786 0.1578 -0.9120
vn -0.4297 0.1559 -0.8894
vn -0.4967 0.5417 -0.6781
vn -0.2703 0.3407 -0.9005
vn -0.2806 0.2813 -0.9177
vn -0.4060 0.4070 -0.8182
vn -0.2630 0.2068 -0.9424
vn -0.2375 0.1720 -0.9560
vn -0.0030 0.0016 -1.0000
vn -0.0030 0.0017 -1.0000
vn -0.0029 0.0019 -1.0000
vn 0.0022 0.0028 -1.0000
vn -0.4713 0.6822 -0.5590
vn -0.4817 0.6672 -0.5681
vn -0.4922 0.6486 -0.5806
vn -0.4985 0.6351 -0.5900
vn -0.1725 0.2210 -0.9599
vn -0.5088 0.5775 -0.6385
vn -0.5076 0.5700 -0.6461
vn -0.5059 0.5628 -0.6537
vn -0.5022 0.5520 -0.6656
vn 0.0017 0.0033 -1.0000
vn 0.0028 0.0021 -1.0000
vn 0.1152 0.0755 -0.9905
vn -0.0006 -0.0018 -1.0000
vn 0.2835 -0.9106 -0.3008
vn 0.3842 -0.8680 -0.3145
vn 0.9948 -0.0959 -0.0347
vn -0.7023 -0.0808 -0.7073
vn -0.7019 -0.0816 -0.7076
vn 0.9927 -0.1120 -0.0456
vn 0.0033 -0.0002 -1.0000
vn 0.0036 -0.0000 -1.0000
vn -0.6997 -0.0000 -0.7144
vn 0.7069 0.0164 -0.7071
vn 0.7059 0.0476 -0.7067
vn 0.9966 0.0748 -0.0334
vn 0.0942 0.9089 -0.4062
vn 0.0008 0.0042 -1.0000
vn 0.1626 0.8883 -0.4295
vn -0.7023 0.0808 -0.7073
vn -0.7011 0.0949 -0.7068
vn 0.9900 0.1117 -0.0863
vn 0.9904 0.1103 -0.0838
vn 0.9909 0.1082 -0.0801
vn 0.8278 0.4548 -0.3285
vn 0.7052 0.5748 -0.4151
vn 0.9914 0.1060 -0.0766
vn 0.9919 0.1039 -0.0730
vn 0.8193 0.4732 -0.3238
vn 0.7074 0.5833 -0.3992
vn 0.9924 0.1017 -0.0696
vn 0.9928 0.0995 -0.0663
vn 0.8090 0.4933 -0.3198
vn 0.7899 0.5179 -0.3284
vn 0.9939 0.0936 -0.0576
vn 0.7853 0.5269 -0.3249
vn 0.7805 0.5362 -0.3215
vn 0.7750 0.5461 -0.3181
vn 0.7240 0.5968 -0.3460
vn 0.9951 0.0869 -0.0483
vn 0.9956 0.0833 -0.0436
vn 0.7435 0.5981 -0.2991
vn 0.7334 0.6080 -0.3041
vn 0.9959 0.0806 -0.0403
vn 0.9963 0.0781 -0.0372
vn -0.0021 0.0029 -1.0000
vn -0.0027 0.0022 -1.0000
vn -0.6625 -0.2493 -0.7063
vn 0.4396 -0.8389 -0.3210
vn 0.5798 -0.7445 -0.3310
vn 0.5562 -0.7627 -0.3300
vn 0.9908 -0.1245 -0.0538
vn 0.2825 -0.1723 -0.9437
vn 0.0018 -0.0013 -1.0000
vn 0.9868 -0.1468 -0.0688
vn 0.9849 -0.1560 -0.0749
vn 0.0031 -0.0004 -1.0000
vn 0.0029 -0.0005 -1.0000
vn 0.0027 -0.0007 -1.0000
vn 0.0035 0.0003 -1.0000
vn 0.1504 0.8923 -0.4256
vn 0.6997 -0.0000 -0.7144
vn 0.0012 0.0038 -1.0000
vn 0.1900 0.8781 -0.4392
vn 0.2279 0.8624 -0.4520
vn 0.2628 0.8458 -0.4643
vn 0.9564 0.1516 -0.2495
vn 0.6399 0.4796 -0.6005
vn 0.9561 0.1517 -0.2506
vn 0.9738 0.1451 -0.1749
vn 0.8828 0.3064 -0.3560
vn 0.6444 0.4989 -0.5795
vn 0.9755 0.1436 -0.1669
vn 0.9765 0.1425 -0.1616
vn 0.8790 0.3200 -0.3536
vn 0.6490 0.5104 -0.5641
vn 0.9776 0.1412 -0.1560
vn 0.9787 0.1397 -0.1507
vn 0.9797 0.1381 -0.1454
vn 0.9807 0.1363 -0.1399
vn 0.8696 0.3490 -0.3493
vn 0.8167 0.4110 -0.4051
vn 0.9827 0.1325 -0.1296
vn 0.8176 0.4151 -0.3990
vn 0.6659 0.5402 -0.5146
vn 0.9845 0.1283 -0.1192
vn 0.9854 0.1261 -0.1143
vn 0.8563 0.3870 -0.3420
vn 0.6758 0.5523 -0.4881
vn 0.9862 0.1239 -0.1095
vn 0.9874 0.1206 -0.1027
vn 0.9885 0.1170 -0.0959
vn 0.9894 0.1137 -0.0898
vn 0.4600 0.6969 -0.5502
vn 0.4463 0.7125 -0.5415
vn 0.4360 0.7233 -0.5355
vn 0.4255 0.7336 -0.5299
vn 0.4131 0.7451 -0.5237
vn 0.3969 0.7589 -0.5162
vn 0.3999 0.7564 -0.5176
vn 0.3860 0.7678 -0.5113
vn 0.3404 0.8007 -0.4929
vn 0.2723 0.8410 -0.4675
vn 0.0017 -0.0013 -1.0000
vn 0.0015 -0.0015 -1.0000
vn 0.6661 -0.6676 -0.3324
vn 0.6216 -0.7095 -0.3322
vn -0.0000 -0.0021 -1.0000
vn 0.9720 -0.2082 -0.1093
vn 0.9699 -0.2151 -0.1139
vn 0.9652 -0.2208 -0.1402
vn 0.7008 -0.6317 -0.3315
vn 0.0025 -0.0008 -1.0000
vn -0.9996 -0.0000 0.0275
vn 0.3003 0.0638 -0.9517
vn 0.3723 0.0791 -0.9247
vn 0.0034 0.0007 -1.0000
vn 0.0034 0.0006 -1.0000
vn 0.6928 0.1471 -0.7059
vn 0.6928 0.1471 -0.7060
vn 0.8875 0.2876 -0.3600
vn 0.4967 0.5417 -0.6781
vn 0.5022 0.5520 -0.6656
vn 0.5059 0.5628 -0.6537
vn 0.5076 0.5700 -0.6461
vn 0.5088 0.5776 -0.6384
vn 0.5092 0.5852 -0.6311
vn 0.5091 0.5929 -0.6239
vn 0.5083 0.6011 -0.6167
vn 0.5058 0.6134 -0.6066
vn 0.4982 0.6378 -0.5874
vn 0.5019 0.6263 -0.5966
vn 0.4985 0.6351 -0.5901
vn 0.4945 0.6441 -0.5836
vn 0.4898 0.6533 -0.5774
vn 0.4817 0.6672 -0.5681
vn 0.4713 0.6822 -0.5590
vn 0.0011 -0.0012 -1.0000
vn 0.0023 -0.0010 -1.0000
vn 0.0021 -0.0011 -1.0000
vn 0.1538 -0.0927 -0.9837
vn 0.5160 -0.3229 -0.7934
vn 0.3387 -0.2212 -0.9145
vn 0.4766 -0.3453 -0.8085
vn 0.7151 -0.2985 -0.6321
vn 0.5351 -0.3611 -0.7637
vn 0.5007 -0.3700 -0.7825
vn 0.5668 -0.4407 -0.6961
vn 0.8548 -0.3281 -0.4020
vn 0.8053 -0.3924 -0.4445
vn 0.6299 -0.5148 -0.5816
vn 0.7237 -0.4777 -0.4980
vn 0.6643 -0.5597 -0.4955
vn 0.5927 -0.4662 -0.6568
vn 0.8944 -0.3578 -0.2683
vn 0.7777 -0.5030 -0.3771
vn 0.6821 -0.5850 -0.4387
vn 0.6957 -0.6070 -0.3841
vn 0.7063 -0.6270 -0.3287
vn 0.7059 -0.6260 -0.3314
vn 0.9705 -0.2136 -0.1120
vn 0.9655 -0.2200 -0.1392
vn 0.9591 -0.2266 -0.1699
vn 0.9500 -0.2337 -0.2069
vn 0.9291 -0.2449 -0.2772
vn 0.8733 -0.2606 -0.4116
vn 0.8691 -0.2612 -0.4201
vn 0.8694 -0.2611 -0.4195
vn -0.6551 -0.2657 -0.7072
vn 0.0031 0.0015 -1.0000
vn -0.0031 0.0013 -1.0000
vn -0.0021 0.0019 -1.0000
vn 0.0032 0.0012 -1.0000
vn 0.3379 0.1039 -0.9354
vn 0.0747 0.0242 -0.9969
vn 0.0033 0.0010 -1.0000
vn 0.5824 0.1519 -0.7986
vn 0.5814 0.1516 -0.7994
vn 0.0024 0.0025 -1.0000
vn 0.6574 -0.2643 -0.7057
vn 0.6582 -0.2647 -0.7048
vn 0.4960 0.1540 -0.8545
vn 0.4297 0.1559 -0.8894
vn 0.0801 0.0333 -0.9962
vn 0.3794 0.1577 -0.9117
vn 0.3388 0.1599 -0.9272
vn 0.3068 0.1623 -0.9378
vn 0.0863 0.0511 -0.9950
vn 0.1424 0.0861 -0.9861
vn 0.2672 0.1669 -0.9491
vn 0.2373 0.1720 -0.9561
vn 0.4081 0.4100 -0.8157
vn -0.0000 -0.9694 -0.2455
vn 0.6496 -0.2778 -0.7077
vn 0.5867 -0.2938 -0.7546
vn 0.6863 -0.2759 -0.6730
vn 0.6891 -0.2759 -0.6701
vn 0.7754 -0.2716 -0.5701
vn 0.7752 -0.2722 -0.5700
vn 0.0030 0.0016 -1.0000
vn -0.7050 0.0493 -0.7075
vn 0.0002 -0.9744 -0.2249
vn -0.6991 -0.1110 -0.7064
vn -0.0000 -0.9995 -0.0307
vn 0.0031 -0.0018 -1.0000
vn 0.6991 -0.1107 -0.7064
vn 0.6832 -0.1782 -0.7081
vn -0.6740 -0.2093 -0.7084
vn -0.6748 -0.2086 -0.7079
vn -0.0017 0.0032 -1.0000
vn -0.9997 -0.0232 -0.0001
vn 0.0004 -0.9807 -0.1957
vn -0.0000 -0.9972 -0.0753
vn -0.6960 -0.1592 -0.7002
vn 0.6784 -0.2039 -0.7058
vn 0.6783 -0.2033 -0.7061
vn 0.6642 -0.2399 -0.7080
vn 0.6991 0.1110 -0.7064
vn 0.0009 -0.0017 -1.0000
vn 0.0033 0.0008 -1.0000
vn -0.7050 -0.0493 -0.7075
vn -0.0026 0.0023 -1.0000
vn 0.0021 0.0029 -1.0000
vn -0.7031 0.0793 -0.7066
vn -0.6682 -0.2349 -0.7059
vn -0.0009 -0.0017 -1.0000
vn -0.6517 -0.2709 -0.7084
vn -0.0030 0.0015 -1.0000
vn 0.6514 -0.2714 -0.7085
vn 0.6515 -0.2725 -0.7080
s 1
f 104//1 105//2 103//3
s 0
f 12//4 11//4 73//4
f 49//5 28//5 82//5
f 162//6 264//6 163//6
s 1
f 137//7 224//8 136//9
f 89//10 291//11 87//12
s 0
f 293//13 83//13 49//13
s 1
f 101//14 100//15 71//16
s 0
f 70//17 194//17 293//17
f 70//17 293//17 49//17
s 1
f 31//18 164//19 28//18
f 164//19 166//20 28//18
s 0
f 166//21 191//21 28//21
s 1
f 191//22 192//23 28//24
s 0
f 192//25 168//25 28//25
f 168//26 193//26 28//26
f 193//27 186//27 28//27
f 186//28 115//28 74//28
f 186//28 74//28 28//28
f 74//29 115//29 29//30
f 210//31 12//31 243//31
f 75//32 110//32 12//32
f 81//33 70//33 3//33
s 1
f 292//34 48//35 293//36
s 0
f 48//37 51//37 293//37
f 51//38 83//38 293//38
f 194//39 205//39 204//39
s 1
f 194//39 204//39 201//39
s 0
f 194//39 201//39 202//39
f 194//39 202//39 203//39
f 194//39 203//39 200//39
f 194//39 200//39 195//39
f 194//39 195//39 196//39
s 1
f 194//39 196//40 197//41
s 0
f 194//39 197//39 199//39
f 194//39 199//39 198//39
f 194//39 198//39 289//39
f 194//39 289//39 286//39
f 194//39 286//39 288//39
f 194//39 288//39 285//39
f 194//39 285//39 283//39
f 194//39 283//39 284//39
f 194//39 284//39 287//39
f 194//39 287//39 294//39
f 194//39 294//39 290//39
f 194//39 290//39 291//39
s 1
f 194//39 291//11 292//34
f 194//39 292//34 293//36
f 14//42 104//1 106//43
f 72//44 19//45 101//14
s 0
f 80//46 194//46 70//46
s 1
f 30//47 161//48 31//49
s 0
f 161//50 188//50 31//50
f 188//51 165//51 31//51
f 165//52 189//52 31//52
f 189//53 167//53 31//53
s 1
f 167//54 164//19 31//18
f 167//54 27//55 164//19
s 0
f 27//56 190//56 164//56
f 2//57 70//57 81//57
f 184//58 164//58 190//58
s 1
f 185//59 192//23 191//22
s 0
f 85//60 51//60 48//60
f 185//61 168//61 192//61
f 144//62 229//62 162//62
f 134//63 221//63 160//63
f 193//64 277//64 186//64
s 1
f 3//65 4//66 81//67
f 146//68 4//66 5//69
s 0
f 4//70 146//70 81//70
f 146//71 145//71 81//71
s 1
f 145//72 144//73 81//74
s 0
f 144//75 162//75 81//75
f 162//76 163//76 81//76
s 1
f 163//77 182//78 81//79
s 0
f 182//80 143//80 81//80
f 143//81 181//81 81//81
s 1
f 181//82 159//83 81//84
s 0
f 159//85 158//85 81//85
f 158//86 142//86 81//86
s 1
f 142//87 141//88 81//89
f 141//88 140//90 81//89
f 140//90 139//91 81//89
f 139//91 138//92 81//89
s 0
f 138//93 157//93 81//93
f 157//94 137//94 81//94
s 1
f 137//7 136//9 81//95
s 0
f 136//96 149//96 81//96
f 149//97 135//97 81//97
s 1
f 135//98 134//99 81//100
s 0
f 134//101 160//101 81//101
f 160//102 2//102 81//102
f 288//103 96//104 97//105
f 89//106 50//106 292//107
s 1
f 50//35 48//35 292//34
s 0
f 71//108 18//108 99//108
f 17//109 99//109 18//109
f 80//110 63//110 194//110
s 1
f 63//111 67//112 194//113
f 67//112 65//114 194//113
s 0
f 50//115 88//115 84//115
f 85//116 187//116 30//116
f 187//117 169//117 30//117
s 1
f 169//118 161//48 30//47
f 38//119 199//120 197//120
s 0
f 160//121 133//121 2//121
f 133//122 132//122 2//122
f 132//123 183//123 2//123
f 183//124 116//124 2//124
f 116//125 174//125 2//125
f 174//126 171//126 2//126
s 1
f 171//127 170//128 2//129
s 0
f 170//130 117//130 2//130
f 117//131 172//131 2//131
f 172//132 118//132 2//132
s 1
f 118//133 119//134 2//135
s 0
f 119//136 173//136 2//136
s 1
f 173//137 156//138 2//139
s 0
f 156//140 120//140 2//140
s 1
f 120//141 121//142 2//143
f 121//142 122//144 2//143
s 0
f 122//145 148//145 2//145
f 148//146 79//146 2//146
s 1
f 169//118 24//147 161//48
s 0
f 24//148 46//148 161//148
f 46//149 47//149 161//149
f 47//150 188//150 161//150
f 47//151 165//151 188//151
f 47//152 189//152 165//152
f 47//153 26//153 189//153
s 1
f 26//154 27//155 189//156
s 0
f 27//157 167//157 189//157
s 1
f 26//154 287//158 27//155
s 0
f 202//159 6//159 203//159
f 263//160 185//160 281//160
f 82//65 5//161 3//162
s 1
f 142//87 226//163 141//88
s 0
f 281//164 20//164 263//164
f 20//165 282//165 263//165
f 20//166 277//166 282//166
s 1
f 20//167 21//168 210//169
s 0
f 20//169 210//169 277//169
f 21//170 75//170 210//170
f 138//171 245//171 157//171
s 1
f 181//82 272//172 159//83
f 145//72 275//173 144//73
s 0
f 186//174 210//174 115//174
f 143//175 273//175 181//175
s 1
f 184//176 281//176 185//176
s 0
f 182//177 228//177 143//177
s 1
f 163//77 274//178 182//78
f 82//179 74//179 29//65
f 139//91 246//180 138//92
f 141//88 225//181 140//90
s 0
f 166//182 185//182 191//182
f 149//183 223//183 135//183
s 1
f 140//90 271//184 139//91
s 0
f 158//185 227//185 142//185
f 146//186 230//186 145//186
f 115//187 243//187 146//187
f 190//188 251//188 184//188
f 136//189 247//189 149//189
f 157//190 231//190 137//190
f 168//191 282//191 193//191
f 84//192 48//192 50//192
f 56//193 133//193 160//193
f 160//194 61//194 56//194
s 1
f 92//195 90//196 291//197
s 0
f 90//198 52//199 291//199
f 52//200 87//200 291//200
f 69//201 98//202 96//203
s 1
f 15//204 96//205 98//206
s 0
f 84//207 176//207 85//207
f 176//208 187//208 85//208
s 1
f 88//209 113//209 84//209
s 0
f 113//210 154//210 84//210
f 154//211 112//211 84//211
f 112//212 153//212 84//212
s 1
f 153//213 155//214 84//215
s 0
f 155//216 111//216 84//216
f 111//217 177//217 84//217
s 1
f 177//218 176//219 84//220
s 0
f 45//221 283//221 43//221
s 1
f 1//222 65//114 67//112
s 0
f 1//223 147//223 65//223
s 1
f 147//224 66//225 65//114
f 66//225 64//226 205//113
s 0
f 64//227 77//227 205//227
f 13//228 106//228 34//228
f 78//229 54//229 204//229
f 176//230 25//230 187//230
s 1
f 25//231 24//232 187//233
s 0
f 24//234 169//234 187//234
f 148//235 123//235 79//235
f 123//236 150//236 79//236
f 150//237 152//237 79//237
s 1
f 152//238 175//239 79//240
f 175//239 151//241 79//240
s 0
f 151//242 124//242 79//242
s 1
f 124//243 125//244 79//245
f 125//244 126//246 79//245
f 126//246 127//247 79//245
f 127//247 128//248 79//245
f 128//248 129//249 79//245
f 129//249 130//250 79//245
s 0
f 130//251 179//251 79//251
f 179//252 131//252 79//252
f 131//253 178//253 79//253
f 178//254 180//254 79//254
f 180//255 1//255 79//255
f 56//256 132//256 133//256
s 1
f 56//257 60//258 132//259
s 0
f 60//260 183//260 132//260
f 60//261 116//261 183//261
f 60//262 174//262 116//262
f 60//263 6//263 174//263
f 6//264 171//264 174//264
s 1
f 6//265 170//128 171//127
s 0
f 6//266 117//266 170//266
f 6//267 172//267 117//267
f 6//268 118//268 172//268
s 1
f 6//269 119//134 118//133
s 0
f 6//270 173//270 119//270
s 1
f 6//271 156//138 173//137
s 0
f 6//272 57//272 156//272
f 57//273 120//273 156//273
s 1
f 57//274 121//142 120//141
f 57//274 122//144 121//142
s 0
f 57//275 148//275 122//275
f 57//276 123//276 148//276
s 1
f 25//231 290//277 24//232
s 0
f 290//278 46//278 24//278
f 22//279 283//279 285//279
f 35//280 199//280 107//281
s 1
f 284//282 45//283 41//284
f 45//283 262//285 41//284
s 0
f 262//286 280//286 41//286
f 262//287 19//287 280//287
s 1
f 19//45 20//288 280//289
s 0
f 20//290 251//290 280//290
f 20//291 281//291 251//291
f 49//292 31//292 28//292
f 72//293 102//293 20//293
f 159//294 244//294 158//294
s 1
f 20//167 75//295 21//168
s 0
f 12//296 73//296 243//296
f 73//297 11//297 243//297
f 11//298 230//298 243//298
f 11//299 275//299 230//299
f 11//300 229//300 275//300
f 11//301 264//301 229//301
s 1
f 11//302 274//178 264//303
s 0
f 11//304 228//304 274//304
f 11//305 273//305 228//305
s 1
f 11//306 272//172 273//307
s 0
f 11//308 244//308 272//308
f 11//309 227//309 244//309
s 1
f 11//310 226//163 227//311
f 11//310 225//181 226//163
s 0
f 11//312 271//312 225//312
s 1
f 11//313 246//180 271//184
f 11//313 245//314 246//180
s 0
f 11//315 231//315 245//315
f 11//316 224//316 231//316
f 11//317 247//317 224//317
f 11//318 223//318 247//318
s 1
f 11//319 222//320 223//321
s 0
f 11//322 221//322 222//322
s 1
f 220//323 61//324 221//325
s 0
f 11//326 105//326 221//326
s 1
f 105//327 220//323 221//325
s 0
f 61//328 200//328 203//328
f 61//328 203//328 56//328
s 1
f 203//329 60//258 56//257
s 0
f 25//197 91//197 290//197
s 1
f 114//330 92//195 91//331
s 0
f 25//332 114//332 91//333
s 1
f 114//330 90//196 92//195
s 0
f 114//334 52//334 90//335
f 7//336 204//336 55//336
f 114//337 86//338 52//337
f 32//339 113//339 88//339
f 86//340 114//341 32//341
s 1
f 114//342 113//343 32//344
f 177//218 25//345 176//219
f 114//342 25//346 113//343
s 0
f 25//347 154//347 113//347
f 25//348 112//348 154//348
f 25//349 153//349 112//349
s 1
f 25//350 155//214 153//213
s 0
f 25//351 111//351 155//351
f 25//352 177//352 111//352
f 180//353 147//353 1//353
s 1
f 147//224 64//226 66//225
s 0
f 55//354 76//354 147//354
f 76//355 53//355 147//355
s 1
f 53//356 54//357 147//358
s 0
f 54//359 78//359 147//359
s 1
f 78//360 77//361 147//362
s 0
f 77//363 64//363 147//363
f 180//364 58//364 147//364
s 1
f 58//365 59//366 147//367
s 0
f 59//368 7//368 147//368
f 7//369 55//369 147//369
s 1
f 54//357 53//356 204//370
s 0
f 53//371 76//371 204//371
f 76//372 55//372 204//372
f 196//373 8//373 33//373
f 57//374 150//374 123//374
f 57//375 152//375 150//375
s 1
f 57//376 175//239 152//238
f 57//376 151//241 175//239
s 0
f 57//377 124//377 151//377
s 1
f 57//378 125//244 124//243
f 57//378 58//365 125//244
f 58//365 126//246 125//244
f 58//365 127//247 126//246
f 58//365 128//248 127//247
f 58//365 129//249 128//248
f 58//365 130//250 129//249
s 0
f 58//379 179//379 130//379
f 58//380 131//380 179//380
f 58//381 178//381 131//381
f 58//382 180//382 178//382
f 195//383 62//383 8//383
f 203//159 6//159 60//159
s 1
f 197//41 9//384 40//385
s 0
f 26//386 294//386 287//386
s 1
f 43//387 262//285 45//283
s 0
f 43//388 279//388 262//388
f 279//389 19//389 262//389
s 1
f 30//47 83//390 51//391
s 0
f 279//392 100//392 19//392
f 101//393 289//393 72//393
f 289//394 198//394 103//394
f 289//394 103//394 72//394
f 82//395 70//395 49//395
s 1
f 135//98 222//320 134//99
s 0
f 110//396 103//396 11//396
s 1
f 103//3 105//2 11//397
s 0
f 105//398 234//398 220//398
f 234//399 61//399 220//399
f 10//400 200//400 61//400
f 234//401 10//401 61//401
s 1
f 80//402 79//403 63//111
s 0
f 14//404 260//404 105//404
f 260//405 214//405 105//405
f 214//406 261//406 105//406
s 1
f 261//407 236//408 105//409
s 0
f 236//410 213//410 105//410
s 1
f 213//411 212//412 105//413
s 0
f 212//414 235//414 105//414
s 1
f 235//415 258//416 105//417
f 258//416 259//418 105//417
f 259//418 252//419 105//417
f 252//419 233//420 105//417
f 233//420 232//421 105//417
s 0
f 232//422 211//422 105//422
f 211//423 265//423 105//423
s 1
f 265//424 276//425 105//426
s 0
f 276//427 234//427 105//427
s 1
f 201//428 59//366 58//365
s 0
f 201//429 7//429 59//429
s 1
f 32//430 89//10 87//12
s 0
f 22//431 279//431 43//431
f 22//432 42//432 279//432
f 42//433 249//433 279//433
f 249//434 100//434 279//434
s 1
f 94//435 285//436 288//436
s 0
f 249//437 278//437 100//437
f 278//438 18//438 100//438
f 71//439 289//439 101//439
f 71//440 99//440 289//440
f 99//441 286//441 289//441
s 1
f 198//442 104//1 103//3
s 0
f 276//443 10//443 234//443
f 72//444 110//444 102//444
f 62//445 200//445 10//445
s 1
f 276//425 265//424 10//446
s 0
f 265//447 211//447 10//447
f 211//448 62//448 10//448
s 1
f 198//442 106//43 104//1
f 1//222 63//111 79//403
f 13//449 269//450 14//451
s 0
f 269//452 267//452 14//452
s 1
f 267//453 266//454 14//455
s 0
f 266//456 219//456 14//456
s 1
f 219//457 218//458 14//459
s 0
f 218//460 257//460 14//460
f 257//461 217//461 14//461
f 217//462 253//462 14//462
s 1
f 253//463 256//464 14//465
f 256//464 250//466 14//465
f 250//466 238//467 14//465
s 0
f 238//468 216//468 14//468
f 216//469 255//469 14//469
s 1
f 255//470 254//471 14//472
s 0
f 254//473 237//473 14//473
f 237//474 215//474 14//474
f 215//475 260//475 14//475
f 215//476 8//476 260//476
f 8//477 214//477 260//477
f 8//478 261//478 214//478
s 1
f 8//479 236//408 261//407
s 0
f 8//480 213//480 236//480
f 8//481 62//481 213//481
s 1
f 62//482 212//412 213//411
s 0
f 62//483 235//483 212//483
s 1
f 62//484 258//416 235//415
f 62//484 259//418 258//416
f 62//484 252//419 259//418
f 62//484 233//420 252//419
f 62//484 232//421 233//420
s 0
f 62//485 211//485 232//485
s 1
f 92//195 290//197 91//331
s 0
f 95//436 44//436 285//436
f 44//486 23//486 285//486
f 23//487 42//487 285//487
f 42//279 22//279 285//279
f 23//488 278//488 42//488
f 278//489 249//489 42//489
f 27//490 284//490 41//490
f 278//491 248//491 18//491
f 248//492 240//492 18//492
f 240//493 17//493 18//493
f 23//494 248//494 278//494
f 69//441 286//441 99//441
f 69//495 96//495 286//495
f 5//496 115//496 146//496
s 1
f 205//113 65//114 66//225
f 35//497 34//498 198//499
s 0
f 34//500 106//500 198//500
s 1
f 201//428 57//378 202//428
f 34//498 35//497 13//501
s 0
f 35//502 268//502 13//502
s 1
f 268//503 269//450 13//449
f 268//503 33//504 269//450
s 0
f 33//505 267//505 269//505
s 1
f 33//506 266//454 267//453
s 0
f 33//507 219//507 266//507
s 1
f 33//508 218//458 219//457
s 0
f 33//509 257//509 218//509
f 33//510 217//510 257//510
f 33//511 253//511 217//511
s 1
f 33//512 256//464 253//463
f 33//512 250//466 256//464
s 0
f 33//513 8//513 250//513
s 1
f 8//514 238//467 250//466
s 0
f 8//515 216//515 238//515
f 8//516 255//516 216//516
s 1
f 8//517 254//471 255//470
s 0
f 8//518 237//518 254//518
f 8//519 215//519 237//519
f 97//520 68//521 288//521
f 68//522 93//522 288//522
s 1
f 93//523 94//435 288//436
f 94//435 242//524 95//525
s 0
f 242//526 44//526 95//526
s 1
f 242//527 241//528 44//529
s 0
f 241//530 209//530 44//530
s 1
f 209//531 208//532 44//533
f 208//532 207//534 44//533
s 0
f 207//535 270//535 44//535
f 270//536 23//536 44//536
s 1
f 270//537 239//538 23//539
s 0
f 239//540 206//540 23//540
f 206//541 240//541 23//541
f 240//542 248//542 23//542
f 294//278 46//278 290//278
f 240//543 206//543 17//543
f 206//544 239//544 17//544
s 1
f 239//538 270//537 17//545
s 0
f 270//546 207//546 17//546
s 1
f 207//534 208//532 17//547
f 208//532 209//531 17//547
s 0
f 209//548 241//548 17//548
f 241//549 98//550 17//549
s 1
f 87//12 86//551 32//430
s 0
f 197//552 109//552 38//552
f 78//553 205//553 77//554
f 39//555 108//555 199//555
s 1
f 108//556 107//557 199//558
s 0
f 107//559 268//560 35//560
f 33//561 9//561 196//561
f 16//562 97//563 15//562
s 1
f 107//557 108//556 268//564
s 0
f 108//565 39//565 268//565
s 1
f 39//566 38//119 268//567
s 0
f 38//568 109//568 268//568
f 109//569 37//569 268//569
s 1
f 37//570 36//571 268//572
f 36//571 40//385 268//572
s 0
f 40//573 9//573 268//573
f 9//574 33//574 268//574
f 190//575 41//575 280//575
f 16//576 242//576 68//576
f 242//577 93//577 68//577
s 1
f 242//524 94//435 93//523
f 16//578 15//579 242//527
f 15//579 241//528 242//527
s 0
f 15//580 98//581 241//580
s 1
f 40//385 36//571 197//41
f 36//571 37//570 197//41
s 0
f 37//582 109//582 197//582
f 12//4 110//4 11//4
f 162//6 229//6 264//6
s 1
f 137//7 231//8 224//8
f 89//10 292//34 291//11
f 101//14 19//45 100//15
s 0
f 210//31 75//31 12//31
f 75//32 102//32 110//32
s 1
f 14//42 105//2 104//1
f 72//44 20//288 19//45
s 0
f 2//583 80//583 70//583
f 184//584 166//584 164//584
f 85//585 30//585 51//585
f 144//62 275//62 229//62
f 134//63 222//63 221//63
f 193//586 282//586 277//586
s 1
f 3//65 5//69 4//66
s 0
f 288//521 286//521 96//587
f 71//588 100//588 18//588
f 17//589 69//589 99//589
f 50//590 89//591 88//590
s 1
f 38//119 39//566 199//120
s 0
f 202//592 57//592 6//592
f 263//160 168//160 185//160
f 82//65 29//65 5//593
s 1
f 142//87 227//311 226//163
s 0
f 138//171 246//171 245//171
s 1
f 181//82 273//307 272//172
f 145//72 230//173 275//173
s 0
f 186//174 277//174 210//174
f 143//175 228//175 273//175
s 1
f 184//176 251//176 281//176
s 0
f 182//177 274//177 228//177
s 1
f 163//77 264//303 274//178
f 82//179 28//179 74//179
f 139//91 271//184 246//180
f 141//88 226//163 225//181
s 0
f 166//594 184//594 185//594
f 149//183 247//183 223//183
s 1
f 140//90 225//181 271//184
s 0
f 158//185 244//185 227//185
f 146//186 243//186 230//186
f 115//187 210//187 243//187
f 190//188 280//188 251//188
f 136//189 224//189 247//189
f 157//190 245//190 231//190
f 168//595 263//595 282//595
f 84//596 85//596 48//596
f 160//194 221//194 61//194
f 69//597 17//597 98//598
s 1
f 15//204 97//599 96//205
s 0
f 45//221 284//221 283//221
f 13//600 14//600 106//600
f 22//601 43//601 283//601
f 35//602 198//602 199//602
f 49//603 83//603 31//603
f 159//294 272//294 244//294
s 1
f 20//167 102//295 75//295
s 0
f 7//604 201//604 204//604
f 196//605 195//605 8//605
f 195//445 200//445 62//445
s 1
f 197//41 196//40 9//384
s 0
f 26//386 47//386 294//386
s 1
f 30//47 31//49 83//390
s 0
f 82//395 3//395 70//395
s 1
f 135//98 223//321 222//320
f 80//402 2//606 79//403
f 32//430 88//607 89//10
f 94//435 95//525 285//436
s 0
f 72//444 103//444 110//444
s 1
f 1//222 67//112 63//111
f 92//195 291//197 290//197
s 0
f 27//490 287//490 284//490
f 5//496 29//496 115//496
s 1
f 205//113 194//113 65//114
f 201//428 58//365 57//378
s 0
f 294//608 47//608 46//608
s 1
f 87//12 52//609 86//551
s 0
f 78//610 204//610 205//610
f 16//611 68//611 97//612
f 190//575 27//575 41//575
