# Blender 4.5.4 LTS
# www.blender.org
o Object.123
v 0.109442 0.370980 -0.148189
v -0.079139 0.370980 -0.117881
v -0.109447 0.370980 -0.148189
v -0.109447 0.370980 -0.306467
v -0.179906 0.341141 -0.232430
v -0.178907 0.341141 -0.234275
v -0.177619 0.341141 -0.235930
v -0.180587 0.341141 -0.230446
v -0.180932 0.341141 -0.226280
v 0.177622 0.341140 -0.235929
v 0.180582 0.341140 -0.224210
v 0.180932 0.341140 -0.228376
v -0.000000 0.341140 -0.357504
v -0.039712 0.341140 -0.351299
v 0.177622 0.335070 -0.235929
v 0.180582 0.335070 -0.230445
v 0.180932 0.335070 -0.228376
v 0.180932 0.335070 -0.226279
v 0.180582 0.335070 -0.224210
v -0.180932 0.335070 -0.226280
v -0.180587 0.335070 -0.224211
v -0.180932 0.335070 -0.228377
v -0.178907 0.335070 -0.234275
v -0.177619 0.335070 -0.235930
v 0.079142 0.370980 -0.117881
v 0.020096 0.341140 -0.355943
v 0.020096 0.334997 -0.355943
v 0.039711 0.341140 -0.351299
v -0.020097 0.341140 -0.355943
v -0.180932 0.341141 -0.228377
v -0.180587 0.341141 -0.224211
v -0.180587 0.335070 -0.230446
v -0.179906 0.335070 -0.232430
v 0.180582 0.341140 -0.230445
v 0.179902 0.335070 -0.232429
v 0.179902 0.341140 -0.232429
v 0.178902 0.335070 -0.234274
v 0.178902 0.341140 -0.234274
v 0.180932 0.341140 -0.226279
v -0.079139 0.370980 -0.336776
v 0.079142 0.370980 -0.336776
v 0.109442 0.370980 -0.306466
v 0.039711 0.334997 -0.351299
v -0.000000 0.334997 -0.357504
v -0.020097 0.334997 -0.355943
v -0.039712 0.334997 -0.351299
v 0.107952 0.369921 -0.027303
v -0.107950 0.369922 -0.027303
v -0.005597 0.286737 -0.347846
v -0.079139 0.286737 -0.336776
v -0.020588 0.286737 -0.108451
v 0.013101 0.286737 -0.107392
v 0.120512 0.286736 -0.232925
v 0.119932 0.286736 -0.240429
v -0.009383 0.286737 -0.107044
v 0.118892 0.286736 -0.247838
v -0.013137 0.286737 -0.107398
v -0.120517 0.286737 -0.221731
v 0.001912 0.286737 -0.347962
v 0.005652 0.286737 -0.347846
v -0.119931 0.286737 -0.240465
v -0.016811 0.286737 -0.346801
v -0.020511 0.286737 -0.346220
v 0.013136 0.286737 -0.347259
v 0.009382 0.286737 -0.347613
v -0.119937 0.286737 -0.214226
v -0.119472 0.286737 -0.210518
v -0.120285 0.286737 -0.236711
v -0.001837 0.286737 -0.347962
v 0.119932 0.286736 -0.214192
v 0.118882 0.286736 -0.206740
v 0.001837 0.286737 -0.106696
v 0.020510 0.286737 -0.108437
v 0.079142 0.286736 -0.117881
v 0.109442 0.286736 -0.148189
v 0.109442 0.286736 -0.306466
v 0.100352 0.305908 -0.315564
v 0.079142 0.286736 -0.336776
v 0.016876 0.286737 -0.346789
v 0.020587 0.286737 -0.346207
v -0.009367 0.286737 -0.347613
v -0.013102 0.286737 -0.347265
v -0.109447 0.286737 -0.306467
v -0.120633 0.286737 -0.225492
v -0.118878 0.286737 -0.247916
v -0.119461 0.286737 -0.244206
v -0.120517 0.286737 -0.232981
v -0.120633 0.286737 -0.229241
v -0.120285 0.286737 -0.217962
v -0.118892 0.286737 -0.206818
v -0.109447 0.286737 -0.148189
v -0.079139 0.286737 -0.117881
v -0.001913 0.286737 -0.106696
v -0.005653 0.286737 -0.106812
v -0.016877 0.286737 -0.107868
v 0.005596 0.286737 -0.106812
v 0.009366 0.286737 -0.107044
v 0.016811 0.286737 -0.107857
v -0.120650 0.334997 -0.027303
v -0.120650 0.329917 -0.027303
v 0.120652 0.334996 -0.027303
v 0.120652 0.329916 -0.027303
v 0.120632 0.286736 -0.229165
v 0.120282 0.286736 -0.236695
v 0.119472 0.286736 -0.244139
v 0.120632 0.286736 -0.225415
v 0.120512 0.286736 -0.221676
v 0.120282 0.286736 -0.217946
v 0.119462 0.286736 -0.210451
v -0.099290 0.305230 -0.316625
v -0.099290 0.308884 -0.316625
v -0.089406 0.305243 -0.326509
v -0.089406 0.308871 -0.326509
v 0.088662 0.305423 -0.327255
v 0.088662 0.308689 -0.327255
v 0.100352 0.308205 -0.315564
vn -0.9864 -0.0000 0.1645
vn -1.0000 -0.0000 -0.0000
vn 0.7071 0.0001 -0.7071
vn 0.0307 -0.7685 -0.6391
vn 0.0102 -0.7694 -0.6387
vn -0.0261 -0.1248 -0.9918
vn -0.0101 -0.7694 -0.6387
vn -0.0464 -0.2097 -0.9767
vn 0.0500 -0.7678 -0.6387
vn 0.0769 -0.1861 -0.9795
vn 0.0774 -0.0000 -0.9970
vn 0.0696 0.4380 -0.8963
vn -0.0696 0.4380 -0.8963
vn -0.0000 0.5705 -0.8213
vn 0.1517 -0.2036 -0.9672
vn 0.0626 -0.9147 -0.3992
vn 0.1520 -0.1940 -0.9692
vn 0.1224 -0.1928 -0.9736
vn 0.0915 -0.2245 -0.9702
vn 0.8295 0.4402 -0.3437
vn 0.8332 -0.2275 -0.5041
vn 0.8052 0.3336 -0.4902
vn 0.2291 -0.1040 -0.9678
vn 0.1560 -0.1938 -0.9686
vn -0.0000 -1.0000 -0.0000
vn 0.0001 -1.0000 -0.0009
vn 0.2603 -0.9655 -0.0000
vn 0.3345 -0.9424 0.0054
vn 0.3345 -0.9423 0.0160
vn 0.4310 -0.9020 0.0264
vn -0.0003 -1.0000 -0.0001
vn 0.0167 -0.9623 0.2716
vn 0.0092 -0.9888 0.1491
vn -0.0007 -1.0000 -0.0000
vn -0.0044 -0.9901 0.1405
vn -0.0091 -0.9563 0.2921
vn -0.0137 -0.9894 0.1448
vn -0.0251 -0.9636 0.2661
vn -0.3914 -0.9189 0.0491
vn -0.2999 -0.9532 0.0376
vn -0.4299 -0.9029 -0.0000
vn -0.3344 -0.9424 -0.0053
vn -0.2590 -0.9658 -0.0080
vn -0.4553 -0.8893 -0.0429
vn -0.2415 -0.9701 -0.0228
vn -0.4737 -0.8775 -0.0744
vn -0.2244 -0.9739 -0.0353
vn -0.1494 -0.2703 -0.9511
vn -0.0644 -0.9098 -0.4100
vn -0.0000 -1.0000 0.0001
vn -0.0901 -0.2411 -0.9663
vn -0.0501 -0.7612 -0.6466
vn -0.0000 -1.0000 -0.0001
vn -0.1432 -0.0648 -0.9876
vn -0.1218 -0.1927 -0.9737
vn -0.1522 -0.1939 -0.9691
vn -0.1560 -0.1938 -0.9686
vn -0.2291 -0.1040 -0.9678
vn -0.2300 -0.0617 -0.9712
vn 0.2304 -0.0000 -0.9731
vn 0.2292 0.1030 -0.9679
vn -0.7071 -0.0000 -0.7071
vn 0.7072 -0.0000 -0.7071
vn 0.7071 -0.0000 -0.7071
vn 0.3456 -0.0000 -0.9384
vn 0.2302 0.0375 -0.9724
vn 0.2272 0.1668 -0.9595
vn -0.0000 1.0000 -0.0000
vn -0.0023 1.0000 0.0023
vn -0.0064 1.0000 0.0064
vn -0.2272 0.1668 -0.9595
vn -0.3457 -0.0000 -0.9384
vn -0.3456 -0.0000 -0.9384
vn -0.0000 0.9999 0.0117
vn 0.3852 0.9228 -0.0000
vn 0.4544 0.8875 -0.0769
vn 0.9237 0.2159 -0.3166
vn 0.5974 0.7576 -0.2631
vn 0.7432 0.3400 -0.5762
vn 0.7440 0.3397 -0.5754
vn -0.7191 -0.0000 -0.6950
vn 0.7072 -0.0001 -0.7070
vn 0.7028 0.0006 -0.7114
vn 0.7074 -0.0000 -0.7068
vn -0.0000 -0.0000 1.0000
vn -0.6254 -0.7803 -0.0006
vn -0.6254 -0.7803 -0.0000
vn -0.7072 -0.0000 -0.7071
vn -0.7706 0.2158 -0.5997
vn -0.8025 0.3339 -0.4945
vn -0.6567 0.6632 -0.3589
vn -0.8295 0.4401 -0.3438
vn -0.9236 0.2156 -0.3170
vn -0.4533 0.8881 -0.0756
vn -0.3852 0.9228 -0.0000
vn 0.7721 -0.2177 -0.5971
vn 0.9094 -0.0687 -0.4103
vn 0.7698 -0.4831 -0.4172
vn 0.7093 -0.6616 -0.2431
vn 0.6347 -0.7653 -0.1074
vn 0.6311 -0.7690 -0.1017
vn -0.6310 -0.7691 -0.1016
vn -0.6336 -0.7664 -0.1056
vn -0.9283 -0.1917 -0.3186
vn -0.8802 -0.3163 -0.3538
vn -0.7095 -0.6613 -0.2435
vn -0.7697 -0.4836 -0.4167
vn -0.8311 -0.0273 -0.5555
vn -0.7820 -0.1341 -0.6086
vn -0.7713 -0.2118 -0.6003
vn 0.3972 0.9177 0.0129
vn 0.0089 0.9999 0.0089
vn -0.2304 -0.0000 -0.9731
vn -0.1544 -0.0000 -0.9880
vn -0.0774 -0.0000 -0.9970
vn 0.7910 -0.0000 -0.6118
vn 1.0000 -0.0000 -0.0000
vn 0.9860 -0.0000 -0.1668
vn -0.9864 -0.0000 -0.1645
vn -0.3972 0.9176 0.0129
vn -0.0089 0.9999 0.0089
vn -0.9567 -0.0000 0.2912
vn 0.6255 -0.7800 -0.0200
vn 0.6260 -0.7789 -0.0382
vn 0.6271 -0.7767 -0.0588
vn 0.6286 -0.7738 -0.0779
vn 0.6307 -0.7697 -0.0989
vn -0.6307 -0.7697 -0.0991
vn -0.6286 -0.7737 -0.0790
vn -0.6271 -0.7767 -0.0591
vn -0.6260 -0.7788 -0.0389
vn 0.6255 -0.7802 0.0017
vn 0.9010 0.3276 0.2844
vn 0.5877 0.8029 0.0994
vn 0.7190 -0.0000 -0.6950
vn 0.9860 -0.0000 0.1668
vn -0.5832 0.8065 0.0972
vn -0.9010 0.3276 0.2845
vn 0.6347 -0.7653 0.1074
vn 0.6311 -0.7690 0.1017
vn 0.6307 -0.7698 0.0986
vn 0.6287 -0.7737 0.0790
vn 0.6271 -0.7768 0.0585
vn 0.6271 -0.7767 0.0588
vn -0.6255 -0.7800 0.0193
vn -0.6260 -0.7789 0.0385
vn -0.6271 -0.7768 0.0584
vn -0.6287 -0.7737 0.0788
vn -0.6307 -0.7697 0.0989
vn -0.6310 -0.7691 0.1017
vn -0.6336 -0.7664 0.1056
vn 0.9567 -0.0000 0.2912
vn 0.6820 -0.7064 0.1891
vn 0.2968 -0.9077 0.2967
vn -0.6821 -0.7064 0.1891
vn -0.2967 -0.9077 0.2967
vn -0.0000 -0.8785 0.4778
vn 0.0142 -0.8872 0.4612
vn 0.0148 -0.8870 0.4616
vn 0.0275 -0.8946 0.4461
vn 0.0402 -0.9011 0.4318
vn 0.0524 -0.9067 0.4184
vn 0.0637 -0.9115 0.4064
vn 0.0652 -0.9120 0.4049
vn -0.0652 -0.9120 0.4049
vn -0.0638 -0.9115 0.4063
vn -0.0526 -0.9068 0.4183
vn -0.0407 -0.9013 0.4313
vn -0.0277 -0.8947 0.4458
vn -0.0143 -0.8872 0.4611
vn 0.7072 -0.0000 -0.7070
vn -0.7191 -0.0000 -0.6949
vn 0.9460 -0.0000 -0.3242
vn 0.6254 -0.7803 -0.0000
s 0
f 9//1 21//1 31//1
f 30//2 20//2 9//2
f 115//3 42//3 116//3
s 1
f 60//4 59//5 44//6
f 59//5 69//7 44//6
f 69//7 49//8 44//6
f 65//9 44//6 27//10
s 0
f 44//11 26//11 27//11
f 41//12 26//12 13//12
f 29//13 40//13 13//13
f 40//14 41//14 13//14
s 1
f 80//15 79//16 27//17
s 0
f 79//18 64//18 27//18
s 1
f 64//19 65//9 27//10
f 36//20 37//21 38//22
s 0
f 43//23 78//23 27//23
f 78//24 80//24 27//24
s 1
f 64//25 79//16 80//15
s 0
f 64//26 80//26 78//26
f 64//25 78//25 76//25
f 64//25 76//25 56//25
f 64//25 56//25 105//25
f 64//25 105//25 54//25
f 64//25 54//25 104//25
f 64//25 104//25 53//25
f 64//25 53//25 103//25
s 1
f 64//25 103//27 106//28
f 64//25 106//28 107//29
f 64//25 107//29 108//30
s 0
f 64//25 108//31 70//25
f 64//25 70//25 109//25
f 64//25 109//25 71//25
f 64//25 71//25 75//25
f 64//25 75//25 74//25
f 64//25 74//25 73//25
f 64//25 73//25 98//25
f 64//25 98//25 52//25
f 64//25 52//25 97//25
s 1
f 64//25 97//32 96//33
s 0
f 64//25 96//34 72//25
f 64//25 72//25 93//25
s 1
f 64//25 93//35 94//36
s 0
f 64//25 94//25 55//25
s 1
f 64//25 55//37 57//38
s 0
f 64//25 57//25 95//25
f 64//25 95//25 51//25
f 64//25 51//25 92//25
f 64//25 92//25 91//25
f 64//25 91//25 90//25
f 64//25 90//25 67//25
s 1
f 64//25 67//39 66//40
s 0
f 64//25 66//25 89//25
f 64//25 89//25 58//25
f 64//25 58//25 84//25
s 1
f 64//25 84//41 88//42
f 64//25 88//42 87//43
s 0
f 64//25 87//25 68//25
s 1
f 64//25 68//44 61//45
s 0
f 64//25 61//25 86//25
s 1
f 64//25 86//46 85//47
s 0
f 64//25 85//25 83//25
f 64//25 83//25 50//25
f 64//25 50//25 63//25
s 1
f 64//25 63//48 62//49
s 0
f 64//50 62//50 82//50
s 1
f 64//50 82//51 81//52
s 0
f 64//53 81//53 49//53
s 1
f 64//19 49//8 69//7
f 64//19 69//7 59//5
f 64//19 59//5 60//4
f 64//19 60//4 65//9
f 82//51 45//54 81//52
s 0
f 82//55 62//55 45//55
s 1
f 62//49 63//48 45//56
s 0
f 63//57 50//57 45//57
s 1
f 50//58 46//59 45//54
f 27//60 28//61 43//60
s 0
f 4//62 113//62 111//62
f 115//63 114//63 78//63
f 115//64 78//64 41//64
f 78//65 43//65 28//65
f 78//65 28//65 41//65
s 1
f 28//61 26//66 41//67
s 0
f 40//68 4//68 3//68
s 1
f 40//68 3//69 2//70
s 0
f 40//68 2//68 25//68
f 40//68 25//68 1//68
f 40//68 1//68 42//68
s 1
f 40//68 42//68 41//68
s 0
f 14//71 40//71 29//71
f 14//72 46//72 50//72
f 14//73 50//73 40//73
f 50//62 112//62 113//62
f 50//62 113//62 40//62
f 47//74 2//74 48//74
f 112//62 83//62 110//62
f 1//75 39//75 12//75
f 1//75 12//75 42//75
f 12//76 34//76 42//76
s 1
f 34//77 36//20 42//78
f 36//20 38//22 42//78
s 0
f 38//79 10//80 42//80
f 4//81 24//81 7//81
s 1
f 76//82 77//83 116//84
s 0
f 76//84 116//84 42//84
f 102//85 48//85 100//85
s 1
f 22//86 84//41 20//87
s 0
f 110//62 83//62 4//62
f 110//88 4//88 111//88
s 1
f 76//82 114//82 77//83
f 7//89 6//90 4//91
f 6//90 5//92 4//91
f 5//92 8//93 4//91
s 0
f 8//94 30//94 4//94
f 30//95 9//95 3//95
f 30//95 3//95 4//95
f 15//96 37//96 76//96
s 1
f 37//21 35//97 76//98
s 0
f 35//99 16//99 76//99
s 1
f 16//100 17//100 76//100
s 0
f 17//101 56//101 76//101
f 85//102 22//102 83//102
f 22//103 32//103 83//103
s 1
f 32//104 33//105 83//106
s 0
f 33//107 23//107 83//107
s 1
f 23//108 24//109 83//110
s 0
f 47//111 39//111 1//111
f 25//112 47//112 1//112
s 1
f 45//54 14//113 29//114
f 44//6 29//114 13//115
f 38//22 15//116 10//116
f 34//77 35//97 36//20
f 5//92 32//104 8//93
s 0
f 12//117 18//117 17//117
f 113//62 110//62 111//62
s 1
f 6//90 33//105 5//92
s 0
f 12//118 16//118 34//118
f 8//119 22//119 30//119
f 9//120 48//120 3//120
s 1
f 48//121 2//70 3//69
s 0
f 99//122 21//122 100//122
f 103//123 53//123 17//123
f 53//124 104//124 17//124
f 104//125 54//125 17//125
f 54//126 105//126 17//126
f 105//127 56//127 17//127
s 1
f 86//46 22//128 85//47
s 0
f 86//129 61//129 22//129
s 1
f 61//45 68//44 22//130
s 0
f 68//131 87//131 22//131
s 1
f 87//43 88//42 22//86
f 103//27 18//132 106//28
s 0
f 101//133 11//133 47//133
f 11//134 39//134 47//134
f 42//135 15//135 76//135
f 48//85 99//85 100//85
s 1
f 81//52 44//6 49//8
s 0
f 48//85 101//85 47//85
s 1
f 7//89 23//108 6//90
s 0
f 39//136 19//136 18//136
f 31//137 48//137 9//137
f 31//138 99//138 48//138
s 1
f 19//139 75//139 18//139
s 0
f 75//140 71//140 18//140
f 71//141 109//141 18//141
f 109//142 70//142 18//142
f 70//143 108//144 18//143
s 1
f 108//30 107//29 18//132
f 107//29 106//28 18//132
s 0
f 84//145 58//145 20//145
f 58//146 89//146 20//146
f 89//147 66//147 20//147
s 1
f 66//40 67//39 20//148
s 0
f 67//149 90//149 20//149
f 90//150 91//150 20//150
s 1
f 91//151 21//151 20//151
s 0
f 115//64 77//64 114//64
f 101//152 19//152 11//152
f 102//153 75//153 19//153
f 102//154 74//154 75//154
f 91//155 100//155 21//155
f 92//156 100//156 91//156
f 100//157 93//157 72//157
f 100//157 72//157 102//157
f 72//158 96//159 102//158
s 1
f 96//33 97//32 102//160
s 0
f 97//161 52//161 102//161
f 52//162 98//162 102//162
f 98//163 73//163 102//163
f 73//164 74//164 102//164
f 92//165 51//165 100//165
f 51//166 95//166 100//166
f 95//167 57//167 100//167
s 1
f 57//38 55//37 100//168
s 0
f 55//169 94//169 100//169
s 1
f 94//36 93//35 100//170
s 0
f 9//1 20//1 21//1
f 30//2 22//2 20//2
f 115//171 41//171 42//171
s 1
f 65//9 60//4 44//6
s 0
f 44//11 13//11 26//11
s 1
f 36//20 35//97 37//21
f 27//60 26//66 28//61
s 0
f 4//62 40//62 113//62
f 47//74 25//74 2//74
f 112//62 50//62 83//62
f 4//172 83//172 24//172
f 102//85 101//85 48//85
s 1
f 22//86 88//42 84//41
f 76//82 78//82 114//82
f 45//54 46//59 14//113
f 44//6 45//54 29//114
f 38//22 37//21 15//116
f 34//77 16//173 35//97
f 5//92 33//105 32//104
s 0
f 12//117 39//117 18//117
f 113//62 112//62 110//62
s 1
f 6//90 23//108 33//105
s 0
f 12//118 17//118 16//118
f 8//119 32//119 22//119
f 99//122 31//122 21//122
s 1
f 103//27 17//174 18//132
s 0
f 42//135 10//135 15//135
s 1
f 81//52 45//54 44//6
f 7//89 24//109 23//108
s 0
f 39//136 11//136 19//136
f 115//64 116//64 77//64
f 101//152 102//152 19//152
