# Blender 5.0.0
# www.blender.org
o Object.123
v 0.108032 0.370413 -0.027443
v -0.108011 0.370415 -0.027339
v -0.087353 0.373852 -0.331722
v -0.182395 0.337870 -0.229669
v 0.182396 0.337870 -0.229652
v -0.000012 0.339603 -0.359884
v 0.086827 0.375769 -0.331857
v -0.070892 0.286055 -0.347003
v 0.113238 0.284587 -0.307133
v 0.093676 0.286643 -0.107314
v -0.119869 0.286131 -0.167616
v -0.121006 0.330058 -0.027212
v 0.121016 0.330057 -0.027236
vn -0.4236 0.6787 -0.5999
vn -0.0110 0.9846 -0.1742
vn -0.0075 0.6237 -0.7816
vn 0.4968 -0.6921 -0.5236
vn -0.3339 -0.6385 -0.6934
vn 0.1091 -0.2491 -0.9623
vn -0.0040 -1.0000 0.0052
vn -0.4775 -0.8770 0.0531
vn 0.5815 0.1802 -0.7933
vn -0.3883 0.6582 0.6450
vn -0.0040 0.6262 0.7797
vn 0.8394 0.4927 0.2294
vn 0.9892 0.0989 -0.1080
vn 0.0004 0.0050 1.0000
vn -0.7042 0.0728 0.7063
vn -0.9817 0.0970 -0.1638
vn 0.7571 -0.4644 0.4594
vn 0.3607 -0.8864 0.2903
vn -0.0617 -0.9368 0.3444
vn -0.0816 -0.9514 0.2970
s 1
f 3//1 7//2 6//3
f 9//4 8//5 6//6
f 8//5 9//4 10//7
f 8//5 10//7 11//8
f 9//4 6//6 7//9
f 3//1 2//10 1//11
f 3//1 1//11 7//2
f 6//6 8//5 3//1
f 1//12 5//13 7//9
f 13//14 2//10 12//15
f 4//16 2//10 3//1
f 11//8 4//16 8//5
f 13//17 5//13 1//12
f 7//9 5//13 9//4
f 2//10 13//14 1//11
f 4//16 12//15 2//10
f 10//18 9//4 5//13
f 13//17 10//18 5//13
f 11//8 12//15 4//16
f 12//19 10//18 13//17
f 11//20 10//18 12//19
f 3//1 8//5 4//16
