# Blender 5.1.2
# www.blender.org
o Plane
v 0.001210 -0.321754 -1.097381
v 0.001210 -0.321754 -0.457381
v 0.001210 0.318246 -1.097381
v 0.001210 0.318246 -0.457381
v -0.001290 0.318246 -1.097381
v -0.001290 -0.321754 -1.097381
v -0.001290 -0.321754 -0.457381
v -0.001290 0.318246 -0.457381
v 0.003710 0.318246 -1.097381
v 0.003710 -0.321754 -1.097381
v 0.003710 -0.321754 -0.457381
v 0.003710 0.318246 -0.457381
v -0.001290 -0.202069 -0.892849
v -0.001290 -0.214243 -0.891650
v -0.001290 -0.189895 -0.891650
v -0.001290 -0.236737 -0.882333
v -0.001290 -0.167401 -0.882333
v -0.001290 -0.225948 -0.888099
v -0.001290 -0.178190 -0.888099
v -0.001290 -0.253953 -0.865117
v -0.001290 -0.150185 -0.865117
v -0.001290 -0.263270 -0.842623
v -0.001290 -0.140868 -0.842623
v -0.001290 -0.259719 -0.854328
v -0.001290 -0.144419 -0.854328
v -0.001290 -0.264469 -0.830449
v -0.001290 -0.246192 -0.874572
v -0.001290 -0.157946 -0.874572
v -0.001290 -0.263270 -0.818275
v -0.001290 -0.140868 -0.818275
v -0.001290 -0.253953 -0.795781
v -0.001290 -0.150185 -0.795781
v -0.001290 -0.259719 -0.806570
v -0.001290 -0.144419 -0.806570
v -0.001290 -0.236737 -0.778565
v -0.001290 -0.167401 -0.778565
v -0.001290 -0.202069 -0.768049
v -0.001290 -0.214243 -0.769248
v -0.001290 -0.189895 -0.769248
v -0.001290 -0.225948 -0.772799
v -0.001290 -0.178190 -0.772799
v -0.001290 -0.246192 -0.786325
v -0.001290 -0.157946 -0.786325
v -0.001290 -0.139669 -0.830449
v 0.003710 -0.202069 -0.892849
v 0.003710 -0.214243 -0.891650
v 0.003710 -0.189895 -0.891650
v 0.003710 -0.236737 -0.882333
v 0.003710 -0.167401 -0.882333
v 0.003710 -0.225948 -0.888099
v 0.003710 -0.178190 -0.888099
v 0.003710 -0.253953 -0.865117
v 0.003710 -0.150185 -0.865117
v 0.003710 -0.263270 -0.842623
v 0.003710 -0.140868 -0.842623
v 0.003710 -0.259719 -0.854328
v 0.003710 -0.144419 -0.854328
v 0.003710 -0.264469 -0.830449
v 0.003710 -0.246192 -0.874572
v 0.003710 -0.157946 -0.874572
v 0.003710 -0.263270 -0.818275
v 0.003710 -0.140868 -0.818275
v 0.003710 -0.253953 -0.795781
v 0.003710 -0.150185 -0.795781
v 0.003710 -0.259719 -0.806570
v 0.003710 -0.144419 -0.806570
v 0.003710 -0.236737 -0.778565
v 0.003710 -0.167401 -0.778565
v 0.003710 -0.202069 -0.768049
v 0.003710 -0.214243 -0.769248
v 0.003710 -0.189895 -0.769248
v 0.003710 -0.225948 -0.772799
v 0.003710 -0.178190 -0.772799
v 0.003710 -0.246192 -0.786325
v 0.003710 -0.157946 -0.786325
v 0.003710 -0.139669 -0.830449
v -0.001290 0.156500 -0.541507
v -0.001290 0.179483 -0.513503
v -0.001290 0.170027 -0.521263
v -0.001290 0.162267 -0.530719
v -0.001290 0.214150 -0.502986
v -0.001290 0.226324 -0.504185
v -0.001290 0.190271 -0.507736
v -0.001290 0.201977 -0.504185
v -0.001290 0.214150 -0.627786
v -0.001290 0.201977 -0.626587
v -0.001290 0.226324 -0.626587
v -0.001290 0.179483 -0.617270
v -0.001290 0.248818 -0.617270
v -0.001290 0.170027 -0.609510
v -0.001290 0.190271 -0.623036
v -0.001290 0.238030 -0.623036
v -0.001290 0.258274 -0.609510
v -0.001290 0.266034 -0.600054
v -0.001290 0.275351 -0.577560
v -0.001290 0.271801 -0.589266
v -0.001290 0.271801 -0.541507
v -0.001290 0.275351 -0.553213
v -0.001290 0.258274 -0.521263
v -0.001290 0.266034 -0.530719
v -0.001290 0.276550 -0.565386
v -0.001290 0.152949 -0.553213
v -0.001290 0.238030 -0.507736
v -0.001290 0.151750 -0.565386
v -0.001290 0.162267 -0.600054
v -0.001290 0.152949 -0.577560
v -0.001290 0.154079 -0.581283
v -0.001290 0.156500 -0.589266
v -0.001290 0.248818 -0.513503
v 0.003710 0.214150 -0.627786
v 0.003710 0.201977 -0.626587
v 0.003710 0.226324 -0.626587
v 0.003710 0.179483 -0.617270
v 0.003710 0.248818 -0.617270
v 0.003710 0.170027 -0.609510
v 0.003710 0.190271 -0.623036
v 0.003710 0.238030 -0.623036
v 0.003710 0.258274 -0.609510
v 0.003710 0.266034 -0.600054
v 0.003710 0.275351 -0.577560
v 0.003710 0.271801 -0.589266
v 0.003710 0.271801 -0.541507
v 0.003710 0.275351 -0.553213
v 0.003710 0.258274 -0.521263
v 0.003710 0.266034 -0.530719
v 0.003710 0.276550 -0.565386
v 0.003710 0.156500 -0.541507
v 0.003710 0.179483 -0.513503
v 0.003710 0.170027 -0.521263
v 0.003710 0.162267 -0.530719
v 0.003710 0.214150 -0.502986
v 0.003710 0.226324 -0.504185
v 0.003710 0.190271 -0.507736
v 0.003710 0.201977 -0.504185
v 0.003710 0.152949 -0.553213
v 0.003710 0.238030 -0.507736
v 0.003710 0.151750 -0.565386
v 0.003710 0.162267 -0.600054
v 0.003710 0.152949 -0.577560
v 0.003710 0.154079 -0.581283
v 0.003710 0.248818 -0.513503
v 0.003710 0.156500 -0.589266
v -0.001290 0.020603 -0.635649
v -0.001290 0.029195 -0.631057
v -0.001290 0.036726 -0.624876
v -0.001290 0.011279 -0.638478
v -0.001290 0.042907 -0.617344
v -0.001290 0.047614 -0.608376
v -0.001290 0.047500 -0.608752
v -0.001290 0.001583 -0.639433
v -0.001290 0.049864 -0.600959
v -0.001290 -0.008113 -0.638478
v -0.001290 0.050328 -0.599429
v -0.001290 -0.026029 -0.631057
v -0.001290 -0.017436 -0.635649
v -0.001290 -0.033560 -0.624876
v -0.001290 -0.044334 -0.608752
v -0.001290 -0.039741 -0.617344
v -0.001290 -0.047162 -0.580037
v -0.001290 0.050328 -0.580037
v -0.001290 -0.048117 -0.589733
v -0.001290 0.051283 -0.589733
v -0.001290 -0.047162 -0.599429
v -0.001290 0.042907 -0.562121
v -0.001290 -0.033560 -0.554589
v -0.001290 -0.039741 -0.562121
v -0.001290 0.036726 -0.554589
v -0.001290 -0.017436 -0.543816
v -0.001290 0.020603 -0.543816
v -0.001290 0.001583 -0.540033
v -0.001290 -0.008113 -0.540988
v -0.001290 0.011279 -0.540988
v -0.001290 -0.026029 -0.548409
v -0.001290 0.029195 -0.548409
v -0.001290 0.047500 -0.570713
v -0.001290 -0.044334 -0.570713
v 0.003710 0.001583 -0.639433
v 0.003710 -0.008113 -0.638478
v 0.003710 0.011279 -0.638478
v 0.003710 -0.017436 -0.635649
v 0.003710 0.029195 -0.631057
v 0.003710 -0.026029 -0.631057
v 0.003710 0.020603 -0.635649
v 0.003710 -0.033560 -0.624876
v 0.003710 -0.044334 -0.608752
v 0.003710 0.047500 -0.608752
v 0.003710 -0.039741 -0.617344
v 0.003710 0.042907 -0.617344
v 0.003710 -0.047162 -0.599429
v 0.003710 0.036726 -0.624876
v 0.003710 0.051283 -0.589733
v 0.003710 -0.048117 -0.589733
v 0.003710 -0.044334 -0.570713
v 0.003710 0.047500 -0.570713
v 0.003710 -0.047162 -0.580037
v 0.003710 0.050328 -0.580037
v 0.003710 -0.033560 -0.554589
v 0.003710 0.036726 -0.554589
v 0.003710 -0.008113 -0.540988
v 0.003710 -0.026029 -0.548409
v 0.003710 -0.017436 -0.543816
v 0.003710 -0.039741 -0.562121
v 0.003710 0.029831 -0.548930
v 0.003710 0.042907 -0.562121
v 0.003710 0.050328 -0.599429
v 0.003710 0.029195 -0.548409
v 0.003710 0.001583 -0.540033
v 0.003710 0.020603 -0.543816
v 0.003710 0.011279 -0.540988
v -0.001290 0.009647 -1.014678
v -0.001290 -0.000049 -1.013723
v -0.001290 0.019343 -1.013723
v -0.001290 -0.009372 -1.010895
v -0.001290 0.028667 -1.010895
v -0.001290 -0.017965 -1.006302
v -0.001290 0.037259 -1.006302
v -0.001290 -0.025496 -1.000121
v -0.001290 0.044790 -1.000121
v -0.001290 -0.036270 -0.983998
v -0.001290 -0.040053 -0.964978
v -0.001290 -0.039098 -0.974674
v -0.001290 -0.031677 -0.992590
v -0.001290 0.050971 -0.992590
v -0.001290 -0.039098 -0.955282
v -0.001290 0.055564 -0.983998
v -0.001290 -0.036270 -0.945959
v -0.001290 -0.031677 -0.937366
v -0.001290 -0.033606 -0.940977
v -0.001290 -0.029475 -0.934683
v -0.001290 0.058392 -0.974674
v -0.001290 -0.025496 -0.929835
v -0.001290 0.059347 -0.964978
v -0.001290 -0.017965 -0.923654
v -0.001290 0.058392 -0.955282
v -0.001290 -0.009372 -0.919061
v -0.001290 0.055564 -0.945959
v -0.001290 -0.000049 -0.916233
v -0.001290 0.050971 -0.937366
v -0.001290 0.019343 -0.916233
v -0.001290 0.009647 -0.915278
v -0.001290 0.044790 -0.929835
v -0.001290 0.037259 -0.923654
v -0.001290 0.028667 -0.919061
v 0.003710 0.009647 -1.014678
v 0.003710 -0.000049 -1.013723
v 0.003710 0.019343 -1.013723
v 0.003710 -0.009372 -1.010895
v 0.003710 0.037259 -1.006302
v 0.003710 -0.017965 -1.006302
v 0.003710 0.028667 -1.010895
v 0.003710 -0.031677 -0.992590
v 0.003710 -0.025496 -1.000121
v 0.003710 -0.039098 -0.974674
v 0.003710 -0.040053 -0.964978
v 0.003710 -0.036270 -0.983998
v 0.003710 0.044790 -1.000121
v 0.003710 0.050971 -0.992590
v 0.003710 -0.039098 -0.955282
v 0.003710 0.055564 -0.983998
v 0.003710 -0.036270 -0.945959
v 0.003710 -0.031677 -0.937366
v 0.003710 -0.033595 -0.940955
v 0.003710 -0.029475 -0.934683
v 0.003710 0.058392 -0.974674
v 0.003710 -0.025496 -0.929835
v 0.003710 0.059347 -0.964978
v 0.003710 -0.017965 -0.923654
v 0.003710 0.058392 -0.955282
v 0.003710 -0.009372 -0.919061
v 0.003710 0.055564 -0.945959
v 0.003710 -0.000049 -0.916233
v 0.003710 0.050971 -0.937366
v 0.003710 0.019343 -0.916233
v 0.003710 0.009647 -0.915278
v 0.003710 0.044790 -0.929835
v 0.003710 0.037259 -0.923654
v 0.003710 0.028667 -0.919061
vn -0.0000 1.0000 -0.0000
vn -1.0000 -0.0000 -0.0000
vn -0.0000 -1.0000 -0.0000
vn -0.0000 -0.0000 1.0000
vn -0.0000 -0.0000 -1.0000
vn 1.0000 -0.0000 -0.0000
vn -0.0000 -0.9952 -0.0980
vn -0.0000 -0.9569 -0.2903
vn -0.0000 -0.8819 -0.4713
vn -0.0000 -0.7730 -0.6344
vn -0.0000 -0.6344 -0.7730
vn -0.0000 -0.4713 -0.8820
vn -0.0000 -0.2903 -0.9569
vn -0.0000 -0.0980 -0.9952
vn -0.0000 0.0980 -0.9952
vn -0.0000 0.2903 -0.9569
vn -0.0000 0.4713 -0.8820
vn -0.0000 0.6344 -0.7730
vn -0.0000 0.7730 -0.6344
vn -0.0000 0.8819 -0.4713
vn -0.0000 0.9569 -0.2903
vn -0.0000 0.9952 -0.0980
vn -0.0000 0.9952 0.0980
vn -0.0000 0.9569 0.2903
vn -0.0000 0.8820 0.4713
vn -0.0000 0.7729 0.6345
vn -0.0000 0.6345 0.7730
vn -0.0000 0.4713 0.8819
vn -0.0000 0.2903 0.9569
vn -0.0000 0.0980 0.9952
vn -0.0000 -0.0980 0.9952
vn -0.0000 -0.2903 0.9569
vn -0.0000 -0.4713 0.8819
vn -0.0000 -0.6345 0.7730
vn -0.0000 -0.7729 0.6345
vn -0.0000 -0.7730 0.6345
vn -0.0000 -0.8820 0.4713
vn -0.0000 -0.9569 0.2903
vn -0.0000 -0.9952 0.0980
vn -0.0000 -0.9570 -0.2902
vn -0.0000 -0.8819 -0.4714
vn -0.0000 -0.4714 -0.8819
vn -0.0000 0.4714 -0.8819
vn -0.0000 0.8819 -0.4714
vn -0.0000 0.9569 0.2904
vn -0.0000 0.8819 0.4714
vn -0.0000 0.7730 0.6344
vn -0.0000 0.6344 0.7730
vn -0.0000 0.4714 0.8819
vn -0.0000 -0.4714 0.8819
vn -0.0000 -0.6344 0.7730
vn -0.0000 -0.7730 0.6344
vn -0.0000 -0.8819 0.4714
vn -0.0000 -0.9570 0.2902
vn 0.0001 -0.6343 -0.7731
vn -0.0000 -0.6345 -0.7730
vn -0.0000 -0.2902 -0.9570
vn -0.0000 0.9570 -0.2902
vn -0.0000 0.4713 0.8820
vn -0.0000 0.2904 0.9569
vn 0.0001 -0.9570 0.2902
vn 0.0001 0.8819 -0.4714
vn -0.0001 0.8818 -0.4715
vn -0.0000 0.9570 0.2902
vn -0.0000 -0.2902 0.9570
vn -0.0000 0.4713 -0.8819
vn -0.0000 0.7730 0.6345
vn 0.0001 0.8819 -0.4715
vn -0.0000 0.8821 -0.4711
vn -0.0000 0.8818 -0.4716
vt 1.000000 1.000000
vt 0.000000 1.000000
vt 0.000000 0.000000
vt 1.000000 0.000000
vt 0.417081 0.089508
vt 0.250023 0.582383
vt 0.261791 0.572726
vt 0.250023 0.453246
vt 0.348138 0.255951
vt 0.254215 0.456686
vt 0.900185 0.768408
vt 0.864946 0.534932
vt 0.869365 0.520364
vt 0.775659 0.580653
vt 0.868553 0.747272
vt 0.764070 0.577138
vt 0.793930 0.747272
vt 0.278624 0.488097
vt 0.283043 0.502664
vt 0.244415 0.450249
vt 0.362913 0.268076
vt 0.808351 0.429050
vt 0.822918 0.433469
vt 0.806403 0.743489
vt 0.836344 0.569783
vt 0.822918 0.576959
vt 0.968750 0.718686
vt 1.000000 0.717436
vt 0.968750 0.717436
vt 0.937500 0.718686
vt 0.937500 0.717436
vt 0.906250 0.718686
vt 0.906250 0.717436
vt 0.875000 0.718686
vt 0.875000 0.717436
vt 0.843750 0.717436
vt 0.843750 0.718686
vt 0.812500 0.717436
vt 0.812500 0.718686
vt 0.781250 0.717436
vt 0.781250 0.718686
vt 0.750000 0.717436
vt 0.750000 0.718686
vt 0.718750 0.717436
vt 0.718750 0.718686
vt 0.687500 0.717436
vt 0.687500 0.718686
vt 0.656250 0.717436
vt 0.656250 0.718686
vt 0.625000 0.717436
vt 0.625000 0.718686
vt 0.593750 0.717436
vt 0.593750 0.718686
vt 0.562500 0.717436
vt 0.562500 0.718686
vt 0.531250 0.717436
vt 0.531250 0.718686
vt 0.500000 0.717436
vt 0.500000 0.718686
vt 0.468750 0.717436
vt 0.468750 0.718686
vt 0.437500 0.717436
vt 0.437500 0.718686
vt 0.406250 0.717436
vt 0.406250 0.718686
vt 0.375000 0.717436
vt 0.375000 0.718686
vt 0.343750 0.718686
vt 0.343750 0.717436
vt 0.312500 0.718686
vt 0.312500 0.717436
vt 0.281250 0.718686
vt 0.281250 0.717436
vt 0.250000 0.718686
vt 0.250000 0.717436
vt 0.218750 0.718686
vt 0.218750 0.717436
vt 0.187500 0.718686
vt 0.187500 0.717436
vt 0.156250 0.718686
vt 0.156250 0.717436
vt 0.125000 0.718686
vt 0.125000 0.717436
vt 0.093750 0.718686
vt 0.093750 0.717436
vt 0.062500 0.718686
vt 0.062500 0.717436
vt 0.031250 0.718686
vt 0.031250 0.717436
vt 0.000000 0.718686
vt 0.000000 0.717436
vt 0.458810 0.717436
vt 0.458810 0.718686
vt 0.968750 0.710080
vt 1.000000 0.708830
vt 0.968750 0.708830
vt 0.937500 0.710080
vt 0.937500 0.708830
vt 0.906250 0.710080
vt 0.906250 0.708830
vt 0.875000 0.710080
vt 0.875000 0.708830
vt 0.843750 0.710080
vt 0.846388 0.708830
vt 0.812500 0.708830
vt 0.812500 0.710080
vt 0.781250 0.708830
vt 0.781250 0.710080
vt 0.750000 0.708830
vt 0.750000 0.710080
vt 0.718750 0.708830
vt 0.718750 0.710080
vt 0.687500 0.708830
vt 0.687500 0.710080
vt 0.656250 0.708830
vt 0.656250 0.710080
vt 0.625000 0.708830
vt 0.625000 0.710080
vt 0.593750 0.708830
vt 0.593750 0.710080
vt 0.562500 0.708830
vt 0.562500 0.710080
vt 0.531250 0.708830
vt 0.531250 0.710080
vt 0.500000 0.708830
vt 0.500000 0.710080
vt 0.468750 0.708830
vt 0.468750 0.710080
vt 0.437500 0.708830
vt 0.437500 0.710080
vt 0.406250 0.708830
vt 0.406250 0.710080
vt 0.375000 0.708830
vt 0.375000 0.710080
vt 0.343750 0.710080
vt 0.343750 0.708830
vt 0.312500 0.710080
vt 0.312500 0.708830
vt 0.281250 0.710080
vt 0.281250 0.708830
vt 0.250000 0.710080
vt 0.250000 0.708830
vt 0.218750 0.710080
vt 0.218750 0.708830
vt 0.187500 0.710080
vt 0.187500 0.708830
vt 0.156250 0.710080
vt 0.156250 0.708830
vt 0.125000 0.710080
vt 0.125000 0.708830
vt 0.093750 0.710080
vt 0.093750 0.708830
vt 0.062500 0.710080
vt 0.062500 0.708830
vt 0.031250 0.708830
vt 0.036379 0.710080
vt 0.061241 0.710080
vt 0.000000 0.710080
vt 0.000000 0.708830
vt 0.843750 0.708830
vt 0.604882 0.710080
vt 0.604882 0.708830
vt 0.580620 0.710080
vt 0.580698 0.708830
vt 0.031250 0.710080
vt 0.336013 0.132840
vt 0.327003 0.149696
vt 0.507160 0.149696
vt 0.498150 0.132840
vt 0.486024 0.118065
vt 0.348138 0.118065
vt 0.362913 0.105940
vt 0.471249 0.105940
vt 0.454393 0.096930
vt 0.379770 0.096930
vt 0.398060 0.091381
vt 0.436103 0.091381
vt 0.885410 0.918419
vt 0.900185 0.906294
vt 0.321455 0.167987
vt 0.319581 0.187008
vt 0.868553 0.927429
vt 0.850263 0.932977
vt 0.321455 0.206029
vt 0.327003 0.224319
vt 0.831242 0.934851
vt 0.812221 0.932978
vt 0.336013 0.241176
vt 0.244382 0.450231
vt 0.236597 0.446069
vt 0.793930 0.927429
vt 0.222029 0.441650
vt 0.777074 0.918419
vt 0.762299 0.906294
vt 0.206879 0.440158
vt 0.191729 0.441651
vt 0.750174 0.891519
vt 0.741163 0.874662
vt 0.177162 0.446069
vt 0.163736 0.453246
vt 0.735615 0.856372
vt 0.733742 0.837351
vt 0.151968 0.462903
vt 0.142311 0.474671
vt 0.735615 0.818329
vt 0.741164 0.800039
vt 0.135134 0.488097
vt 0.130715 0.502665
vt 0.750173 0.783183
vt 0.762299 0.768408
vt 0.129223 0.517815
vt 0.777074 0.756283
vt 0.471249 0.268076
vt 0.130715 0.532964
vt 0.135134 0.547532
vt 0.454393 0.277086
vt 0.142311 0.560958
vt 0.151968 0.572726
vt 0.379770 0.277086
vt 0.261791 0.462903
vt 0.398060 0.282634
vt 0.271448 0.474671
vt 0.417081 0.284508
vt 0.436103 0.282634
vt 0.283044 0.502665
vt 0.163736 0.582383
vt 0.177162 0.589560
vt 0.284536 0.517815
vt 0.191729 0.593979
vt 0.206879 0.595471
vt 0.283043 0.532964
vt 0.278624 0.547532
vt 0.222029 0.593979
vt 0.236597 0.589559
vt 0.271448 0.560958
vt 0.763483 0.576959
vt 0.850263 0.741724
vt 0.750057 0.569783
vt 0.831242 0.739851
vt 0.738289 0.560126
vt 0.812220 0.741724
vt 0.728632 0.548358
vt 0.486024 0.255951
vt 0.498150 0.241176
vt 0.721455 0.534932
vt 0.507160 0.224319
vt 0.717037 0.520364
vt 0.512708 0.206029
vt 0.715544 0.505214
vt 0.514581 0.187008
vt 0.717036 0.490064
vt 0.512708 0.167987
vt 0.721456 0.475497
vt 0.912310 0.891519
vt 0.921320 0.874662
vt 0.728632 0.462071
vt 0.738289 0.450303
vt 0.926868 0.856372
vt 0.928742 0.837351
vt 0.750057 0.440646
vt 0.926868 0.818330
vt 0.763483 0.433469
vt 0.778051 0.429050
vt 0.921320 0.800039
vt 0.912310 0.783183
vt 0.793201 0.427558
vt 0.808350 0.429050
vt 0.885410 0.756282
vt 0.778051 0.581378
vt 0.836344 0.440645
vt 0.793201 0.582871
vt 0.808351 0.581378
vt 0.848112 0.450303
vt 0.857769 0.462071
vt 0.864946 0.475497
vt 0.869365 0.490064
vt 0.848112 0.560126
vt 0.857769 0.548358
vt 0.870857 0.505214
vt 0.236597 0.446070
vt 0.191729 0.441650
vt 0.900184 0.906294
vt 0.812220 0.932977
vt 0.129223 0.517814
vt 0.750174 0.783183
vt 0.921320 0.874663
vt 0.926868 0.818329
vt 0.868554 0.747273
vt 0.856955 0.549351
vt 0.812221 0.741724
vt 0.721456 0.534932
vt 0.717036 0.520364
vt 0.864945 0.534932
vt 0.857770 0.462071
vt 1.000000 0.718686
vt 1.000000 0.710080
s 1
f 4/1/1 9/2/1 3/2/1
f 6/3/2 7/4/2 26/5/2
f 5/2/2 238/6/2 241/7/2
f 227/8/2 28/9/2 229/10/2
f 79/11/2 169/12/2 172/13/2
f 151/14/2 77/15/2 148/16/2
f 3/2/1 8/1/1 4/1/1
f 2/4/3 6/3/3 1/3/3
f 4/1/4 7/4/4 2/4/4
f 1/3/5 5/2/5 3/2/5
f 142/17/6 269/18/6 271/19/6
f 262/20/6 261/8/6 53/21/6
f 11/4/6 195/22/6 193/23/6
f 140/24/6 204/25/6 194/26/6
f 11/4/6 10/3/6 58/5/6
f 1/3/3 11/4/3 2/4/3
f 2/4/4 12/1/4 4/1/4
f 3/2/5 10/3/5 1/3/5
f 30/27/7 76/28/7 62/29/7
f 34/30/8 62/29/8 66/31/8
f 32/32/9 66/31/9 64/33/9
f 43/34/10 64/33/10 75/35/10
f 43/34/11 68/36/11 36/37/11
f 36/37/12 73/38/12 41/39/12
f 41/39/13 71/40/13 39/41/13
f 39/41/14 69/42/14 37/43/14
f 37/43/15 70/44/15 38/45/15
f 38/45/16 72/46/16 40/47/16
f 40/47/17 67/48/17 35/49/17
f 35/49/18 74/50/18 42/51/18
f 42/51/19 63/52/19 31/53/19
f 31/53/20 65/54/20 33/55/20
f 33/55/21 61/56/21 29/57/21
f 29/57/22 58/58/22 26/59/22
f 26/59/23 54/60/23 22/61/23
f 22/61/24 56/62/24 24/63/24
f 24/63/25 52/64/25 20/65/25
f 20/65/26 59/66/26 27/67/26
f 16/68/27 59/66/27 48/69/27
f 18/70/28 48/69/28 50/71/28
f 14/72/29 50/71/29 46/73/29
f 13/74/30 46/73/30 45/75/30
f 15/76/31 45/75/31 47/77/31
f 19/78/32 47/77/32 51/79/32
f 17/80/33 51/79/33 49/81/33
f 28/82/34 49/81/34 60/83/34
f 21/84/35 60/83/36 53/85/35
f 25/86/37 53/85/37 57/87/37
f 23/88/38 57/87/38 55/89/38
f 44/90/39 55/89/39 76/91/39
f 98/27/7 126/28/7 123/29/7
f 97/30/40 123/29/40 122/31/40
f 100/32/41 122/31/41 125/33/41
f 99/34/10 125/33/10 124/35/10
f 99/34/11 141/36/11 109/37/11
f 109/37/42 136/38/42 103/39/42
f 103/39/13 132/40/13 82/41/13
f 82/41/14 131/42/14 81/43/14
f 81/43/15 134/44/15 84/45/15
f 84/45/16 133/46/16 83/47/16
f 83/47/43 128/48/43 78/49/43
f 78/49/18 129/50/18 79/51/18
f 79/51/19 130/52/19 80/53/19
f 80/53/44 127/54/44 77/55/44
f 77/55/21 135/56/21 102/57/21
f 104/59/22 135/56/22 137/58/22
f 106/61/23 137/58/23 139/60/23
f 140/92/24 107/93/24 139/60/45
f 108/63/46 138/64/46 105/65/46
f 105/65/47 115/66/47 90/67/47
f 88/68/48 115/66/48 113/69/48
f 91/70/49 113/69/49 116/71/49
f 86/72/29 116/71/29 111/73/29
f 85/74/30 111/73/30 110/75/30
f 87/76/31 110/75/31 112/77/31
f 92/78/32 112/77/32 117/79/32
f 89/80/50 117/79/50 114/81/50
f 93/82/51 114/81/51 118/83/51
f 94/84/52 118/83/52 119/85/52
f 96/86/53 119/85/53 121/87/53
f 95/88/54 121/87/54 120/89/54
f 101/90/39 120/89/39 126/91/39
f 160/94/7 191/95/7 196/96/7
f 175/97/40 196/96/40 194/98/40
f 164/99/41 194/98/41 204/100/41
f 167/101/10 204/100/10 198/102/10
f 174/103/55 198/102/11 203/104/56
f 174/103/42 208/105/42 169/106/42
f 169/106/57 209/107/57 172/108/57
f 172/108/14 207/109/14 170/110/14
f 170/110/15 199/111/15 171/112/15
f 171/112/16 201/113/16 168/114/16
f 168/114/43 200/115/43 173/116/43
f 173/116/18 197/117/18 165/118/18
f 165/118/19 202/119/19 166/120/19
f 166/120/44 193/121/44 176/122/44
f 176/122/58 195/123/58 159/124/58
f 159/124/22 192/125/22 161/126/22
f 161/126/23 189/127/23 163/128/23
f 163/128/24 185/129/24 157/130/24
f 157/130/46 187/131/46 158/132/46
f 158/132/47 184/133/47 156/134/47
f 154/135/48 184/133/48 182/136/48
f 155/137/59 182/136/59 180/138/59
f 152/139/60 180/138/60 178/140/60
f 150/141/30 178/140/30 177/142/30
f 146/143/31 177/142/31 179/144/31
f 143/145/32 179/144/32 183/146/32
f 144/147/50 183/146/50 181/148/50
f 145/149/51 181/148/51 190/150/51
f 147/151/52 190/150/52 188/152/52
f 149/153/53 188/152/53 186/154/53
f 205/155/38 151/156/38 148/157/61
f 162/158/39 205/155/39 191/159/39
f 234/94/7 266/95/7 268/96/7
f 236/97/8 268/96/8 270/98/8
f 238/99/41 270/98/41 272/100/41
f 241/101/10 272/100/10 275/102/10
f 241/101/11 276/160/11 242/103/11
f 242/103/42 277/105/42 243/106/42
f 243/106/57 273/107/57 239/108/57
f 239/108/14 274/109/14 240/110/14
f 240/110/15 271/111/15 237/112/15
f 237/112/16 269/113/16 235/114/16
f 235/114/43 267/115/43 233/116/43
f 233/116/18 265/117/18 231/118/18
f 229/161/19 265/117/19 263/162/19
f 228/163/62 261/119/63 262/164/62
f 226/122/21 258/123/21 224/124/21
f 224/124/22 254/125/22 220/126/22
f 220/126/23 253/127/23 221/128/23
f 221/128/64 255/129/64 219/130/64
f 219/130/46 251/131/46 222/132/46
f 222/132/47 252/133/47 217/134/47
f 215/135/48 252/133/48 249/136/48
f 213/137/49 249/136/49 247/138/49
f 211/139/29 247/138/29 245/140/29
f 210/141/30 245/140/30 244/142/30
f 212/143/31 244/142/31 246/144/31
f 214/145/65 246/144/65 250/146/65
f 216/147/50 250/146/50 248/148/50
f 218/149/51 248/148/51 256/150/51
f 223/151/52 256/150/52 257/152/52
f 225/153/53 257/152/53 259/154/53
f 230/165/54 259/154/54 264/155/54
f 232/158/39 264/155/39 266/159/39
f 4/1/1 12/1/1 9/2/1
f 16/166/2 18/167/2 6/3/2
f 7/4/2 40/168/2 35/169/2
f 7/4/2 35/169/2 42/170/2
f 27/171/2 16/166/2 6/3/2
f 20/172/2 27/171/2 6/3/2
f 7/4/2 42/170/2 31/173/2
f 7/4/2 31/173/2 33/174/2
f 24/175/2 20/172/2 6/3/2
f 22/176/2 24/175/2 6/3/2
f 7/4/2 33/174/2 29/177/2
f 26/5/2 22/176/2 6/3/2
f 7/4/2 29/177/2 26/5/2
f 100/178/2 99/179/2 8/1/2
f 6/3/2 18/167/2 14/180/2
f 6/3/2 14/180/2 13/181/2
f 97/182/2 100/178/2 8/1/2
f 98/183/2 97/182/2 8/1/2
f 6/3/2 13/181/2 15/184/2
f 6/3/2 15/184/2 19/185/2
f 101/186/2 98/183/2 8/1/2
f 95/187/2 101/186/2 8/1/2
f 6/3/2 19/185/2 17/188/2
f 17/188/2 28/9/2 228/189/2
f 17/188/2 228/189/2 226/190/2
f 95/187/2 8/1/2 5/2/2
f 96/191/2 95/187/2 5/2/2
f 6/3/2 17/188/2 226/190/2
f 6/3/2 226/190/2 224/192/2
f 94/193/2 96/191/2 5/2/2
f 93/194/2 94/193/2 5/2/2
f 6/3/2 224/192/2 220/195/2
f 6/3/2 220/195/2 221/196/2
f 89/197/2 93/194/2 5/2/2
f 92/198/2 89/197/2 5/2/2
f 6/3/2 221/196/2 219/199/2
f 6/3/2 219/199/2 222/200/2
f 87/201/2 92/198/2 5/2/2
f 85/202/2 87/201/2 5/2/2
f 6/3/2 222/200/2 217/203/2
f 6/3/2 217/203/2 215/204/2
f 86/205/2 85/202/2 5/2/2
f 91/206/2 86/205/2 5/2/2
f 6/3/2 215/204/2 213/207/2
f 6/3/2 213/207/2 211/208/2
f 88/209/2 91/206/2 5/2/2
f 90/210/2 88/209/2 5/2/2
f 5/2/2 6/3/2 211/208/2
f 5/2/2 211/208/2 210/211/2
f 105/212/2 90/210/2 5/2/2
f 32/213/2 107/24/2 108/17/2
f 108/17/2 105/212/2 5/2/2
f 5/2/2 210/211/2 212/214/2
f 5/2/2 212/214/2 214/215/2
f 32/213/2 108/17/2 5/2/2
f 34/216/2 32/213/2 5/2/2
f 5/2/2 214/215/2 216/217/2
f 5/2/2 216/217/2 218/218/2
f 229/10/2 21/21/2 25/219/2
f 231/220/2 229/10/2 25/219/2
f 231/220/2 25/219/2 23/221/2
f 233/222/2 231/220/2 23/221/2
f 233/222/2 23/221/2 44/223/2
f 235/18/2 233/222/2 44/223/2
f 235/18/2 44/223/2 30/224/2
f 237/225/2 235/18/2 30/224/2
f 5/2/2 218/218/2 223/226/2
f 5/2/2 223/226/2 225/227/2
f 237/225/2 30/224/2 34/216/2
f 240/228/2 237/225/2 34/216/2
f 5/2/2 225/227/2 230/229/2
f 5/2/2 230/229/2 232/230/2
f 239/231/2 240/228/2 34/216/2
f 243/232/2 239/231/2 34/216/2
f 5/2/2 232/230/2 234/233/2
f 5/2/2 234/233/2 236/234/2
f 242/235/2 243/232/2 34/216/2
f 242/235/2 34/216/2 5/2/2
f 5/2/2 236/234/2 238/6/2
f 241/7/2 242/235/2 5/2/2
f 227/8/2 228/189/2 28/9/2
f 28/9/2 21/21/2 229/10/2
f 149/236/2 148/16/2 77/15/2
f 149/236/2 77/15/2 102/237/2
f 147/238/2 149/236/2 102/237/2
f 147/238/2 102/237/2 104/239/2
f 145/240/2 147/238/2 104/239/2
f 106/241/2 107/24/2 32/213/2
f 145/240/2 104/239/2 106/241/2
f 144/242/2 145/240/2 106/241/2
f 106/241/2 32/213/2 43/243/2
f 106/241/2 43/243/2 36/244/2
f 143/245/2 144/242/2 106/241/2
f 143/245/2 106/241/2 36/244/2
f 143/245/2 36/244/2 41/246/2
f 146/247/2 143/245/2 41/246/2
f 146/247/2 41/246/2 39/248/2
f 150/249/2 146/247/2 39/248/2
f 150/249/2 39/248/2 37/250/2
f 152/251/2 150/249/2 37/250/2
f 38/252/2 40/168/2 7/4/2
f 152/251/2 37/250/2 38/252/2
f 155/253/2 152/251/2 38/252/2
f 8/1/2 99/179/2 109/254/2
f 8/1/2 109/254/2 103/255/2
f 154/256/2 155/253/2 38/252/2
f 156/257/2 154/256/2 38/252/2
f 8/1/2 103/255/2 82/258/2
f 8/1/2 82/258/2 81/259/2
f 156/257/2 38/252/2 7/4/2
f 158/260/2 156/257/2 7/4/2
f 7/4/2 8/1/2 81/259/2
f 7/4/2 81/259/2 84/261/2
f 157/262/2 158/260/2 7/4/2
f 163/263/2 157/262/2 7/4/2
f 7/4/2 84/261/2 83/264/2
f 7/4/2 83/264/2 78/265/2
f 161/266/2 163/263/2 7/4/2
f 159/267/2 161/266/2 7/4/2
f 7/4/2 78/265/2 79/11/2
f 79/11/2 80/268/2 151/14/2
f 79/11/2 151/14/2 153/269/2
f 176/23/2 159/267/2 7/4/2
f 166/270/2 176/23/2 7/4/2
f 79/11/2 153/269/2 162/271/2
f 79/11/2 162/271/2 160/272/2
f 165/273/2 166/270/2 7/4/2
f 173/274/2 165/273/2 7/4/2
f 79/11/2 160/272/2 175/26/2
f 79/11/2 175/26/2 164/25/2
f 168/275/2 173/274/2 7/4/2
f 171/276/2 168/275/2 7/4/2
f 79/11/2 164/25/2 167/277/2
f 79/11/2 167/277/2 174/278/2
f 171/276/2 7/4/2 79/11/2
f 170/279/2 171/276/2 79/11/2
f 79/11/2 174/278/2 169/12/2
f 172/13/2 170/279/2 79/11/2
f 151/14/2 80/268/2 77/15/2
f 3/2/1 5/2/1 8/1/1
f 2/4/3 7/4/3 6/3/3
f 4/1/4 8/1/4 7/4/4
f 1/3/5 6/3/5 5/2/5
f 262/20/6 60/9/6 49/188/6
f 262/20/6 49/188/6 51/185/6
f 260/280/6 262/20/6 51/185/6
f 260/280/6 51/185/6 47/184/6
f 258/192/6 260/280/6 47/184/6
f 258/192/6 47/184/6 45/181/6
f 254/195/6 258/192/6 45/181/6
f 46/180/6 50/167/6 10/3/6
f 254/195/6 45/181/6 46/180/6
f 253/281/6 254/195/6 46/180/6
f 12/1/6 124/282/6 125/178/6
f 12/1/6 125/178/6 122/182/6
f 253/281/6 46/180/6 10/3/6
f 255/199/6 253/281/6 10/3/6
f 12/1/6 122/182/6 123/183/6
f 12/1/6 123/183/6 126/186/6
f 251/200/6 255/199/6 10/3/6
f 252/203/6 251/200/6 10/3/6
f 9/2/6 12/1/6 126/186/6
f 9/2/6 126/186/6 120/283/6
f 249/204/6 252/203/6 10/3/6
f 247/207/6 249/204/6 10/3/6
f 9/2/6 120/283/6 121/191/6
f 9/2/6 121/191/6 119/193/6
f 245/208/6 247/207/6 10/3/6
f 244/284/6 245/208/6 10/3/6
f 9/2/6 119/193/6 118/194/6
f 9/2/6 118/194/6 114/197/6
f 244/284/6 10/3/6 9/2/6
f 246/214/6 244/284/6 9/2/6
f 9/2/6 114/197/6 117/198/6
f 9/2/6 117/198/6 112/201/6
f 250/215/6 246/214/6 9/2/6
f 248/217/6 250/215/6 9/2/6
f 9/2/6 112/201/6 110/202/6
f 9/2/6 110/202/6 111/205/6
f 256/218/6 248/217/6 9/2/6
f 257/226/6 256/218/6 9/2/6
f 9/2/6 111/205/6 116/206/6
f 9/2/6 116/206/6 113/285/6
f 259/227/6 257/226/6 9/2/6
f 264/229/6 259/227/6 9/2/6
f 9/2/6 113/285/6 115/210/6
f 9/2/6 115/210/6 138/212/6
f 266/230/6 264/229/6 9/2/6
f 268/233/6 266/230/6 9/2/6
f 9/2/6 138/212/6 142/17/6
f 142/17/6 140/24/6 64/213/6
f 142/17/6 64/213/6 66/216/6
f 268/233/6 9/2/6 142/17/6
f 270/234/6 268/233/6 142/17/6
f 142/17/6 66/216/6 62/224/6
f 142/17/6 62/224/6 76/223/6
f 272/6/6 270/234/6 142/17/6
f 275/7/6 272/6/6 142/17/6
f 142/17/6 76/223/6 55/221/6
f 57/219/6 53/21/6 263/10/6
f 142/17/6 55/221/6 57/219/6
f 276/235/6 275/7/6 142/17/6
f 277/232/6 276/235/6 142/17/6
f 142/17/6 57/219/6 263/10/6
f 142/17/6 263/10/6 265/220/6
f 273/231/6 277/232/6 142/17/6
f 274/228/6 273/231/6 142/17/6
f 142/17/6 265/220/6 267/222/6
f 142/17/6 267/222/6 269/18/6
f 271/19/6 274/228/6 142/17/6
f 53/21/6 60/9/6 262/20/6
f 261/8/6 263/10/6 53/21/6
f 141/254/6 124/282/6 12/1/6
f 11/4/6 72/168/6 70/252/6
f 11/4/6 70/252/6 69/250/6
f 136/286/6 141/254/6 12/1/6
f 132/258/6 136/286/6 12/1/6
f 11/4/6 69/250/6 71/248/6
f 11/4/6 71/248/6 73/246/6
f 131/259/6 132/258/6 12/1/6
f 134/287/6 131/259/6 12/1/6
f 11/4/6 73/246/6 68/244/6
f 75/243/6 64/213/6 140/24/6
f 11/4/6 68/244/6 75/243/6
f 134/287/6 12/1/6 11/4/6
f 133/264/6 134/287/6 11/4/6
f 140/24/6 191/271/6 205/269/6
f 140/24/6 205/269/6 186/236/6
f 128/265/6 133/264/6 11/4/6
f 129/11/6 128/265/6 11/4/6
f 140/24/6 186/236/6 188/238/6
f 140/24/6 188/238/6 190/240/6
f 130/268/6 129/11/6 11/4/6
f 127/288/6 130/268/6 11/4/6
f 75/243/6 140/24/6 190/240/6
f 75/243/6 190/240/6 181/242/6
f 135/237/6 127/288/6 11/4/6
f 203/289/6 139/290/6 137/239/6
f 137/239/6 135/237/6 11/4/6
f 75/243/6 181/242/6 183/291/6
f 75/243/6 183/291/6 179/292/6
f 206/278/6 203/289/6 137/239/6
f 208/293/6 206/278/6 137/239/6
f 75/243/6 179/292/6 177/249/6
f 75/243/6 177/249/6 178/251/6
f 209/13/6 208/293/6 137/239/6
f 209/13/6 137/239/6 11/4/6
f 75/243/6 178/251/6 180/253/6
f 75/243/6 180/253/6 182/256/6
f 207/279/6 209/13/6 11/4/6
f 199/276/6 207/279/6 11/4/6
f 11/4/6 75/243/6 182/256/6
f 11/4/6 182/256/6 184/257/6
f 201/275/6 199/276/6 11/4/6
f 200/294/6 201/275/6 11/4/6
f 11/4/6 184/257/6 187/260/6
f 11/4/6 187/260/6 185/262/6
f 197/273/6 200/294/6 11/4/6
f 202/270/6 197/273/6 11/4/6
f 11/4/6 185/262/6 189/263/6
f 11/4/6 189/263/6 192/266/6
f 193/23/6 202/270/6 11/4/6
f 11/4/6 192/266/6 195/22/6
f 196/272/6 191/271/6 140/24/6
f 140/24/6 139/290/6 203/289/6
f 140/24/6 203/289/6 198/277/6
f 194/26/6 196/272/6 140/24/6
f 140/24/6 198/277/6 204/25/6
f 67/169/6 72/168/6 11/4/6
f 10/3/6 50/167/6 48/166/6
f 10/3/6 48/166/6 59/171/6
f 74/170/6 67/169/6 11/4/6
f 63/173/6 74/170/6 11/4/6
f 10/3/6 59/171/6 52/172/6
f 10/3/6 52/172/6 56/175/6
f 65/174/6 63/173/6 11/4/6
f 61/177/6 65/174/6 11/4/6
f 10/3/6 56/175/6 54/176/6
f 58/5/6 61/177/6 11/4/6
f 10/3/6 54/176/6 58/5/6
f 1/3/3 10/3/3 11/4/3
f 2/4/4 11/4/4 12/1/4
f 3/2/5 9/2/5 10/3/5
f 30/27/7 44/295/7 76/28/7
f 34/30/8 30/27/8 62/29/8
f 32/32/9 34/30/9 66/31/9
f 43/34/10 32/32/10 64/33/10
f 43/34/11 75/35/11 68/36/11
f 36/37/12 68/36/12 73/38/12
f 41/39/13 73/38/13 71/40/13
f 39/41/14 71/40/14 69/42/14
f 37/43/15 69/42/15 70/44/15
f 38/45/16 70/44/16 72/46/16
f 40/47/17 72/46/66 67/48/17
f 35/49/18 67/48/18 74/50/18
f 42/51/19 74/50/19 63/52/19
f 31/53/20 63/52/20 65/54/20
f 33/55/21 65/54/21 61/56/21
f 29/57/22 61/56/22 58/58/22
f 26/59/23 58/58/23 54/60/23
f 22/61/24 54/60/24 56/62/24
f 24/63/25 56/62/25 52/64/25
f 20/65/26 52/64/67 59/66/26
f 16/68/27 27/67/27 59/66/27
f 18/70/28 16/68/28 48/69/28
f 14/72/29 18/70/29 50/71/29
f 13/74/30 14/72/30 46/73/30
f 15/76/31 13/74/31 45/75/31
f 19/78/32 15/76/32 47/77/32
f 17/80/33 19/78/33 51/79/33
f 28/82/34 17/80/34 49/81/34
f 21/84/35 28/82/36 60/83/36
f 25/86/37 21/84/37 53/85/37
f 23/88/38 25/86/38 57/87/38
f 44/90/39 23/88/39 55/89/39
f 98/27/7 101/295/7 126/28/7
f 97/30/40 98/27/40 123/29/40
f 100/32/41 97/30/41 122/31/41
f 99/34/10 100/32/10 125/33/10
f 99/34/11 124/35/11 141/36/11
f 109/37/42 141/36/42 136/38/42
f 103/39/13 136/38/13 132/40/13
f 82/41/14 132/40/14 131/42/14
f 81/43/15 131/42/15 134/44/15
f 84/45/16 134/44/16 133/46/16
f 83/47/43 133/46/43 128/48/43
f 78/49/18 128/48/18 129/50/18
f 79/51/19 129/50/19 130/52/19
f 80/53/44 130/52/44 127/54/44
f 77/55/21 127/54/21 135/56/21
f 104/59/22 102/57/22 135/56/22
f 106/61/23 104/59/23 137/58/23
f 140/92/24 142/62/64 108/63/64
f 107/93/24 106/61/45 139/60/45
f 140/92/24 108/63/64 107/93/24
f 108/63/46 142/62/46 138/64/46
f 105/65/47 138/64/47 115/66/47
f 88/68/48 90/67/48 115/66/48
f 91/70/49 88/68/49 113/69/49
f 86/72/29 91/70/29 116/71/29
f 85/74/30 86/72/30 111/73/30
f 87/76/31 85/74/31 110/75/31
f 92/78/32 87/76/32 112/77/32
f 89/80/50 92/78/50 117/79/50
f 93/82/51 89/80/51 114/81/51
f 94/84/52 93/82/52 118/83/52
f 96/86/53 94/84/53 119/85/53
f 95/88/54 96/86/54 121/87/54
f 101/90/39 95/88/39 120/89/39
f 160/94/7 162/296/7 191/95/7
f 175/97/40 160/94/40 196/96/40
f 164/99/41 175/97/41 194/98/41
f 167/101/10 164/99/10 204/100/10
f 203/104/56 206/160/11 174/103/55
f 174/103/55 167/101/11 198/102/11
f 174/103/42 206/160/42 208/105/42
f 169/106/57 208/105/57 209/107/57
f 172/108/14 209/107/14 207/109/14
f 170/110/15 207/109/15 199/111/15
f 171/112/16 199/111/16 201/113/16
f 168/114/43 201/113/43 200/115/43
f 173/116/18 200/115/18 197/117/18
f 165/118/19 197/117/19 202/119/19
f 166/120/44 202/119/44 193/121/44
f 176/122/58 193/121/58 195/123/58
f 159/124/22 195/123/22 192/125/22
f 161/126/23 192/125/23 189/127/23
f 163/128/24 189/127/24 185/129/24
f 157/130/46 185/129/46 187/131/46
f 158/132/47 187/131/47 184/133/47
f 154/135/48 156/134/48 184/133/48
f 155/137/59 154/135/59 182/136/59
f 152/139/60 155/137/60 180/138/60
f 150/141/30 152/139/30 178/140/30
f 146/143/31 150/141/31 177/142/31
f 143/145/32 146/143/32 179/144/32
f 144/147/50 143/145/50 183/146/50
f 145/149/51 144/147/51 181/148/51
f 147/151/52 145/149/52 190/150/52
f 149/153/53 147/151/53 188/152/53
f 149/153/54 186/154/38 205/155/38
f 205/155/38 153/165/54 151/156/38
f 148/157/61 149/153/54 205/155/38
f 162/158/39 153/165/39 205/155/39
f 234/94/7 232/296/7 266/95/7
f 236/97/8 234/94/8 268/96/8
f 238/99/41 236/97/41 270/98/41
f 241/101/10 238/99/10 272/100/10
f 241/101/11 275/102/11 276/160/11
f 242/103/42 276/160/42 277/105/42
f 243/106/57 277/105/57 273/107/57
f 239/108/14 273/107/14 274/109/14
f 240/110/15 274/109/15 271/111/15
f 237/112/16 271/111/16 269/113/16
f 235/114/43 269/113/43 267/115/43
f 233/116/18 267/115/18 265/117/18
f 261/119/19 227/120/19 229/161/19
f 229/161/19 231/118/19 265/117/19
f 263/162/19 261/119/19 229/161/19
f 260/121/68 226/122/69 228/163/62
f 228/163/62 227/120/70 261/119/63
f 262/164/62 260/121/68 228/163/62
f 226/122/21 260/121/21 258/123/21
f 224/124/22 258/123/22 254/125/22
f 220/126/23 254/125/23 253/127/23
f 221/128/64 253/127/64 255/129/64
f 219/130/46 255/129/46 251/131/46
f 222/132/47 251/131/47 252/133/47
f 215/135/48 217/134/48 252/133/48
f 213/137/49 215/135/49 249/136/49
f 211/139/29 213/137/29 247/138/29
f 210/141/30 211/139/30 245/140/30
f 212/143/31 210/141/31 244/142/31
f 214/145/65 212/143/65 246/144/65
f 216/147/50 214/145/50 250/146/50
f 218/149/51 216/147/51 248/148/51
f 223/151/52 218/149/52 256/150/52
f 225/153/53 223/151/53 257/152/53
f 230/165/54 225/153/54 259/154/54
f 232/158/39 230/165/39 264/155/39
