# Blender 5.1.2
# www.blender.org
o Plane
v 0.002500 -0.299137 -1.077378
v 0.002500 -0.299137 -0.477378
v 0.002500 0.300863 -1.077378
v 0.002500 0.300863 -0.477378
v -0.000000 0.300863 -1.077378
v -0.000000 -0.299137 -1.077378
v -0.000000 -0.299137 -0.477378
v -0.000000 0.300863 -0.477378
v 0.005000 0.300863 -1.077378
v 0.005000 -0.299137 -1.077378
v 0.005000 -0.299137 -0.477378
v 0.005000 0.300863 -0.477378
v -0.000000 0.009647 -1.014678
v -0.000000 -0.000049 -1.013723
v -0.000000 0.019343 -1.013723
v -0.000000 -0.009372 -1.010895
v -0.000000 0.037259 -1.006302
v -0.000000 -0.017965 -1.006302
v -0.000000 0.028667 -1.010895
v -0.000000 -0.025496 -1.000121
v -0.000000 0.050971 -0.992590
v -0.000000 -0.039098 -0.974674
v -0.000000 -0.036270 -0.983998
v -0.000000 0.058392 -0.974674
v -0.000000 -0.031677 -0.992590
v -0.000000 0.055564 -0.983998
v -0.000000 0.044790 -1.000121
v -0.000000 -0.039098 -0.955282
v -0.000000 0.058392 -0.955282
v -0.000000 -0.031677 -0.937366
v -0.000000 0.050971 -0.937366
v -0.000000 -0.036270 -0.945959
v -0.000000 0.055564 -0.945959
v -0.000000 -0.017965 -0.923654
v -0.000000 0.037259 -0.923654
v -0.000000 0.009647 -0.915278
v -0.000000 0.019343 -0.916233
v -0.000000 -0.000049 -0.916233
v -0.000000 0.028667 -0.919061
v -0.000000 -0.009372 -0.919061
v -0.000000 0.044790 -0.929835
v -0.000000 -0.025496 -0.929835
v -0.000000 -0.040053 -0.964978
v -0.000000 0.059347 -0.964978
v 0.005000 0.009647 -1.014678
v 0.005000 -0.000049 -1.013723
v 0.005000 0.019343 -1.013723
v 0.005000 -0.009372 -1.010895
v 0.005000 0.037259 -1.006302
v 0.005000 -0.017965 -1.006302
v 0.005000 0.028667 -1.010895
v 0.005000 -0.025496 -1.000121
v 0.005000 0.050971 -0.992590
v 0.005000 -0.039098 -0.974674
v 0.005000 -0.036270 -0.983998
v 0.005000 0.058392 -0.974674
v 0.005000 -0.031677 -0.992590
v 0.005000 0.055564 -0.983998
v 0.005000 0.044790 -1.000121
v 0.005000 -0.039098 -0.955282
v 0.005000 0.058392 -0.955282
v 0.005000 -0.031677 -0.937366
v 0.005000 0.050971 -0.937366
v 0.005000 -0.036270 -0.945959
v 0.005000 0.055564 -0.945959
v 0.005000 -0.017965 -0.923654
v 0.005000 0.037259 -0.923654
v 0.005000 0.009647 -0.915278
v 0.005000 0.019343 -0.916233
v 0.005000 -0.000049 -0.916233
v 0.005000 0.028667 -0.919061
v 0.005000 -0.009372 -0.919061
v 0.005000 0.044790 -0.929835
v 0.005000 -0.025496 -0.929835
v 0.005000 -0.040053 -0.964978
v 0.005000 0.059347 -0.964978
v -0.000000 -0.202069 -0.892849
v -0.000000 -0.214243 -0.891650
v -0.000000 -0.189895 -0.891650
v -0.000000 -0.236737 -0.882333
v -0.000000 -0.167401 -0.882333
v -0.000000 -0.225948 -0.888099
v -0.000000 -0.178190 -0.888099
v -0.000000 -0.253953 -0.865117
v -0.000000 -0.150185 -0.865117
v -0.000000 -0.263270 -0.842623
v -0.000000 -0.140868 -0.842623
v -0.000000 -0.259719 -0.854328
v -0.000000 -0.144419 -0.854328
v -0.000000 -0.264469 -0.830449
v -0.000000 -0.246192 -0.874572
v -0.000000 -0.157945 -0.874572
v -0.000000 -0.263270 -0.818275
v -0.000000 -0.140868 -0.818275
v -0.000000 -0.253953 -0.795781
v -0.000000 -0.150185 -0.795781
v -0.000000 -0.259719 -0.806569
v -0.000000 -0.144419 -0.806569
v -0.000000 -0.236737 -0.778565
v -0.000000 -0.167401 -0.778565
v -0.000000 -0.202069 -0.768049
v -0.000000 -0.214243 -0.769248
v -0.000000 -0.189895 -0.769248
v -0.000000 -0.225948 -0.772799
v -0.000000 -0.178190 -0.772799
v -0.000000 -0.246192 -0.786325
v -0.000000 -0.157945 -0.786325
v -0.000000 -0.139669 -0.830449
v 0.005000 -0.202069 -0.892849
v 0.005000 -0.214243 -0.891650
v 0.005000 -0.189895 -0.891650
v 0.005000 -0.225948 -0.888099
v 0.005000 -0.167401 -0.882333
v 0.005000 -0.236737 -0.882333
v 0.005000 -0.178190 -0.888099
v 0.005000 -0.246192 -0.874572
v 0.005000 -0.150185 -0.865117
v 0.005000 -0.263270 -0.842623
v 0.005000 -0.259719 -0.854328
v 0.005000 -0.140868 -0.842623
v 0.005000 -0.253953 -0.865117
v 0.005000 -0.144419 -0.854328
v 0.005000 -0.157945 -0.874572
v 0.005000 -0.263270 -0.818275
v 0.005000 -0.140868 -0.818275
v 0.005000 -0.253953 -0.795781
v 0.005000 -0.150185 -0.795781
v 0.005000 -0.259719 -0.806569
v 0.005000 -0.144419 -0.806569
v 0.005000 -0.236737 -0.778565
v 0.005000 -0.167401 -0.778565
v 0.005000 -0.202069 -0.768049
v 0.005000 -0.189895 -0.769248
v 0.005000 -0.214243 -0.769248
v 0.005000 -0.178190 -0.772799
v 0.005000 -0.225948 -0.772799
v 0.005000 -0.157945 -0.786325
v 0.005000 -0.264469 -0.830449
v 0.005000 -0.246192 -0.786325
v 0.005000 -0.139669 -0.830449
v -0.000000 0.001583 -0.639433
v -0.000000 -0.008113 -0.638478
v -0.000000 0.011279 -0.638478
v -0.000000 -0.026029 -0.631057
v -0.000000 0.029195 -0.631057
v -0.000000 -0.017436 -0.635649
v -0.000000 0.020603 -0.635649
v -0.000000 -0.039741 -0.617344
v -0.000000 0.042907 -0.617344
v -0.000000 -0.047162 -0.599429
v -0.000000 0.050328 -0.599429
v -0.000000 -0.044334 -0.608752
v -0.000000 0.047500 -0.608752
v -0.000000 -0.033560 -0.624876
v -0.000000 0.036726 -0.624876
v -0.000000 -0.047162 -0.580037
v -0.000000 0.050328 -0.580037
v -0.000000 -0.039741 -0.562121
v -0.000000 0.042907 -0.562121
v -0.000000 -0.044334 -0.570713
v -0.000000 0.047500 -0.570713
v -0.000000 -0.026029 -0.548409
v -0.000000 0.029195 -0.548409
v -0.000000 0.001583 -0.540033
v -0.000000 -0.008113 -0.540988
v -0.000000 0.011279 -0.540988
v -0.000000 -0.017436 -0.543816
v -0.000000 0.020603 -0.543816
v -0.000000 -0.033560 -0.554589
v -0.000000 0.036726 -0.554589
v -0.000000 0.051283 -0.589733
v -0.000000 -0.048117 -0.589733
v 0.005000 0.001583 -0.639433
v 0.005000 -0.008113 -0.638478
v 0.005000 0.011279 -0.638478
v 0.005000 -0.026029 -0.631057
v 0.005000 0.029195 -0.631057
v 0.005000 -0.017436 -0.635649
v 0.005000 0.020603 -0.635649
v 0.005000 -0.039741 -0.617344
v 0.005000 0.042907 -0.617344
v 0.005000 -0.047162 -0.599429
v 0.005000 0.050328 -0.599429
v 0.005000 -0.044334 -0.608752
v 0.005000 0.047500 -0.608752
v 0.005000 -0.033560 -0.624876
v 0.005000 0.036726 -0.624876
v 0.005000 -0.047162 -0.580037
v 0.005000 0.050328 -0.580037
v 0.005000 -0.039741 -0.562121
v 0.005000 0.042907 -0.562121
v 0.005000 -0.044334 -0.570713
v 0.005000 0.047500 -0.570713
v 0.005000 -0.026029 -0.548409
v 0.005000 0.029195 -0.548409
v 0.005000 0.001583 -0.540033
v 0.005000 -0.008113 -0.540988
v 0.005000 0.011279 -0.540988
v 0.005000 -0.017436 -0.543816
v 0.005000 0.020603 -0.543816
v 0.005000 -0.033560 -0.554589
v 0.005000 0.036726 -0.554589
v 0.005000 0.051283 -0.589733
v 0.005000 -0.048117 -0.589733
v -0.000000 0.170027 -0.521263
v -0.000000 0.164953 -0.527445
v -0.000000 0.226324 -0.504185
v -0.000000 0.227294 -0.504480
v -0.000000 0.179483 -0.513503
v -0.000000 0.214150 -0.502986
v -0.000000 0.190271 -0.507736
v -0.000000 0.201977 -0.504185
v -0.000000 0.162267 -0.530719
v -0.000000 0.238030 -0.623036
v -0.000000 0.248818 -0.617270
v -0.000000 0.258274 -0.609510
v -0.000000 0.266034 -0.600054
v -0.000000 0.271801 -0.589266
v -0.000000 0.275351 -0.577560
v -0.000000 0.275351 -0.553213
v -0.000000 0.271801 -0.541507
v -0.000000 0.276550 -0.565386
v -0.000000 0.156500 -0.541507
v -0.000000 0.238030 -0.507736
v -0.000000 0.226324 -0.626587
v -0.000000 0.152949 -0.553213
v -0.000000 0.214150 -0.627786
v -0.000000 0.201977 -0.626587
v -0.000000 0.190271 -0.623036
v -0.000000 0.179483 -0.617270
v -0.000000 0.162267 -0.600054
v -0.000000 0.170027 -0.609510
v -0.000000 0.151750 -0.565386
v -0.000000 0.152949 -0.577560
v -0.000000 0.258274 -0.521263
v -0.000000 0.248818 -0.513503
v -0.000000 0.266034 -0.530719
v -0.000000 0.156500 -0.589266
v 0.005000 0.214150 -0.627786
v 0.005000 0.201977 -0.626587
v 0.005000 0.226324 -0.626587
v 0.005000 0.190271 -0.623036
v 0.005000 0.179483 -0.617270
v 0.005000 0.238030 -0.623036
v 0.005000 0.248818 -0.617270
v 0.005000 0.170027 -0.609510
v 0.005000 0.258274 -0.609510
v 0.005000 0.156500 -0.589266
v 0.005000 0.271801 -0.589266
v 0.005000 0.162267 -0.600054
v 0.005000 0.266034 -0.600054
v 0.005000 0.151750 -0.565386
v 0.005000 0.152949 -0.577560
v 0.005000 0.152949 -0.553213
v 0.005000 0.275351 -0.553213
v 0.005000 0.156500 -0.541507
v 0.005000 0.276550 -0.565386
v 0.005000 0.162267 -0.530719
v 0.005000 0.164953 -0.527445
v 0.005000 0.266034 -0.530719
v 0.005000 0.248818 -0.513503
v 0.005000 0.227294 -0.504480
v 0.005000 0.238030 -0.507736
v 0.005000 0.258274 -0.521263
v 0.005000 0.271801 -0.541507
v 0.005000 0.275351 -0.577560
v 0.005000 0.170027 -0.521263
v 0.005000 0.226324 -0.504185
v 0.005000 0.179483 -0.513503
v 0.005000 0.214150 -0.502986
v 0.005000 0.190271 -0.507736
v 0.005000 0.201977 -0.504185
vn -0.0000 -0.0000 1.0000
vn -1.0000 -0.0000 -0.0000
vn -0.0000 1.0000 -0.0000
vn -0.0000 -1.0000 -0.0000
vn -0.0000 -0.0000 -1.0000
vn 1.0000 -0.0000 -0.0000
vn -0.0000 -0.9952 -0.0980
vn -0.0000 -0.9569 -0.2903
vn -0.0000 -0.8819 -0.4714
vn -0.0000 -0.7730 -0.6344
vn -0.0000 -0.6344 -0.7730
vn -0.0000 -0.4714 -0.8819
vn -0.0000 -0.2902 -0.9570
vn -0.0000 -0.0980 -0.9952
vn -0.0000 0.0980 -0.9952
vn -0.0000 0.2903 -0.9569
vn -0.0000 0.4714 -0.8819
vn -0.0000 0.6344 -0.7730
vn -0.0000 0.7730 -0.6344
vn -0.0000 0.8819 -0.4714
vn -0.0000 0.9569 -0.2903
vn -0.0000 0.9952 -0.0980
vn -0.0000 0.9952 0.0980
vn -0.0000 0.9570 0.2902
vn -0.0000 0.8819 0.4714
vn -0.0000 0.7730 0.6344
vn -0.0000 0.6344 0.7730
vn -0.0000 0.4714 0.8819
vn -0.0000 0.2903 0.9569
vn -0.0000 0.0980 0.9952
vn -0.0000 -0.0980 0.9952
vn -0.0000 -0.2902 0.9570
vn -0.0000 -0.4714 0.8819
vn -0.0000 -0.6344 0.7730
vn -0.0000 -0.7730 0.6344
vn -0.0000 -0.8819 0.4714
vn -0.0000 -0.9570 0.2902
vn -0.0000 -0.9952 0.0980
vn -0.0000 -0.4713 -0.8820
vn -0.0000 -0.2903 -0.9569
vn -0.0000 0.4713 -0.8820
vn -0.0000 0.9569 0.2903
vn -0.0000 0.8820 0.4713
vn -0.0000 0.7729 0.6345
vn -0.0000 0.6345 0.7730
vn -0.0000 0.4713 0.8819
vn -0.0000 -0.2903 0.9569
vn -0.0000 -0.4713 0.8819
vn -0.0000 -0.8820 0.4713
vn -0.0000 -0.9569 0.2903
vn -0.0000 -0.9570 -0.2902
vn -0.0000 0.9570 -0.2902
vn -0.0000 0.4713 0.8820
vn -0.0000 0.2904 0.9569
vn -0.0000 -0.2906 -0.9568
vn -0.0000 0.4713 -0.8819
vn -0.0000 0.7730 0.6345
vn -0.0000 -0.2904 -0.9569
vn -0.0000 0.7731 -0.6343
vt 1.000000 0.000000
vt 1.000000 1.000000
vt 0.893984 0.485040
vt 0.955321 0.835190
vt 0.187333 0.431807
vt 0.451348 0.257864
vt 0.469328 0.248253
vt 0.000000 0.000000
vt 0.411548 0.057780
vt 0.000000 1.000000
vt 0.104500 0.514640
vt 0.315465 0.201579
vt 0.309547 0.182069
vt 0.893118 0.951562
vt 0.873609 0.957481
vt 0.889270 0.532899
vt 0.881616 0.547220
vt 0.926859 0.781940
vt 0.968750 0.709758
vt 1.000000 0.708508
vt 0.968750 0.708508
vt 0.937500 0.709758
vt 0.937500 0.708508
vt 0.906250 0.709758
vt 0.906250 0.708508
vt 0.875000 0.709758
vt 0.875000 0.708508
vt 0.843750 0.708508
vt 0.843750 0.709758
vt 0.812500 0.708508
vt 0.812500 0.709758
vt 0.781250 0.708508
vt 0.781250 0.709758
vt 0.750000 0.708508
vt 0.750000 0.709758
vt 0.718750 0.708508
vt 0.718750 0.709758
vt 0.687500 0.708508
vt 0.687500 0.709758
vt 0.656250 0.708508
vt 0.656250 0.709758
vt 0.625000 0.708508
vt 0.625000 0.709758
vt 0.593750 0.708508
vt 0.593750 0.709758
vt 0.562500 0.708508
vt 0.562500 0.709758
vt 0.531250 0.708508
vt 0.531250 0.709758
vt 0.500000 0.708508
vt 0.500000 0.709758
vt 0.468750 0.708508
vt 0.468750 0.709758
vt 0.437500 0.708508
vt 0.437500 0.709758
vt 0.406250 0.708508
vt 0.406250 0.709758
vt 0.375000 0.708508
vt 0.375000 0.709758
vt 0.343750 0.709758
vt 0.343750 0.708508
vt 0.312500 0.709758
vt 0.312500 0.708508
vt 0.281250 0.709758
vt 0.281250 0.708508
vt 0.250000 0.709758
vt 0.250000 0.708508
vt 0.218750 0.709758
vt 0.218750 0.708508
vt 0.187500 0.709758
vt 0.187500 0.708508
vt 0.156250 0.709758
vt 0.156250 0.708508
vt 0.125000 0.709758
vt 0.125000 0.708508
vt 0.093750 0.709758
vt 0.093750 0.708508
vt 0.062500 0.709758
vt 0.062500 0.708508
vt 0.031250 0.709758
vt 0.031250 0.708508
vt 0.000000 0.709758
vt 0.000000 0.708508
vt 0.968750 0.718363
vt 1.000000 0.717113
vt 0.968750 0.717113
vt 0.937500 0.718363
vt 0.937500 0.717113
vt 0.906250 0.718363
vt 0.906250 0.717113
vt 0.875000 0.718363
vt 0.875000 0.717113
vt 0.843750 0.717113
vt 0.843750 0.718363
vt 0.812500 0.717113
vt 0.812500 0.718363
vt 0.781250 0.717113
vt 0.781250 0.718363
vt 0.750000 0.717113
vt 0.750000 0.718363
vt 0.718750 0.717113
vt 0.718750 0.718363
vt 0.687500 0.717113
vt 0.687500 0.718363
vt 0.656250 0.717113
vt 0.656250 0.718363
vt 0.625000 0.717113
vt 0.625000 0.718363
vt 0.593750 0.717113
vt 0.593750 0.718363
vt 0.562500 0.717113
vt 0.562500 0.718363
vt 0.531250 0.717113
vt 0.531250 0.718363
vt 0.500000 0.717113
vt 0.500000 0.718363
vt 0.468750 0.717113
vt 0.468750 0.718363
vt 0.437500 0.717113
vt 0.437500 0.718363
vt 0.406250 0.717113
vt 0.406250 0.718363
vt 0.375000 0.717113
vt 0.375000 0.718363
vt 0.343750 0.718363
vt 0.343750 0.717113
vt 0.312500 0.718363
vt 0.312500 0.717113
vt 0.281250 0.718363
vt 0.281250 0.717113
vt 0.250000 0.718363
vt 0.250000 0.717113
vt 0.218750 0.718363
vt 0.218750 0.717113
vt 0.187500 0.718363
vt 0.187500 0.717113
vt 0.156250 0.718363
vt 0.156250 0.717113
vt 0.125000 0.718363
vt 0.125000 0.717113
vt 0.093750 0.718363
vt 0.093750 0.717113
vt 0.062500 0.718363
vt 0.062500 0.717113
vt 0.031250 0.718363
vt 0.031250 0.717113
vt 0.000000 0.718363
vt 0.000000 0.717113
vt 0.783840 0.717113
vt 0.783840 0.718363
vt 0.604569 0.718363
vt 0.604569 0.717113
vt 0.916555 0.773484
vt 0.844441 0.577728
vt 0.858762 0.570074
vt 0.871314 0.559772
vt 0.939792 0.797700
vt 0.949403 0.815680
vt 0.893984 0.517360
vt 0.895576 0.501200
vt 0.954831 0.877386
vt 0.955321 0.875768
vt 0.858762 0.432327
vt 0.844441 0.424672
vt 0.871314 0.442628
vt 0.957319 0.855479
vt 0.881616 0.455180
vt 0.889270 0.469501
vt 0.949403 0.895278
vt 0.155634 0.591168
vt 0.171173 0.595882
vt 0.187333 0.597474
vt 0.939793 0.913258
vt 0.926858 0.929018
vt 0.203493 0.595882
vt 0.219032 0.591168
vt 0.911099 0.941952
vt 0.893118 0.951563
vt 0.233353 0.583514
vt 0.245905 0.573213
vt 0.853320 0.959480
vt 0.256206 0.560660
vt 0.833030 0.957481
vt 0.813521 0.951563
vt 0.795540 0.941952
vt 0.779780 0.929018
vt 0.263861 0.546339
vt 0.766847 0.913258
vt 0.268575 0.530800
vt 0.757236 0.895278
vt 0.270166 0.514640
vt 0.751318 0.875769
vt 0.268575 0.498480
vt 0.749320 0.855479
vt 0.263861 0.482942
vt 0.751318 0.835189
vt 0.256206 0.468621
vt 0.757236 0.815680
vt 0.245905 0.456068
vt 0.766846 0.797700
vt 0.233353 0.445767
vt 0.779780 0.781940
vt 0.795540 0.769006
vt 0.813520 0.759396
vt 0.833030 0.753477
vt 0.853320 0.751479
vt 0.219032 0.438112
vt 0.873609 0.753477
vt 0.893118 0.759395
vt 0.911098 0.769006
vt 0.828902 0.582442
vt 0.812742 0.584034
vt 0.796582 0.582442
vt 0.781043 0.577728
vt 0.203493 0.433399
vt 0.766723 0.570073
vt 0.754170 0.559772
vt 0.743869 0.547220
vt 0.736214 0.532899
vt 0.731501 0.517360
vt 0.729909 0.501200
vt 0.731501 0.485040
vt 0.736214 0.469501
vt 0.171173 0.433399
vt 0.155634 0.438112
vt 0.743869 0.455181
vt 0.315465 0.121981
vt 0.309547 0.141491
vt 0.307548 0.161780
vt 0.754170 0.442628
vt 0.766723 0.432327
vt 0.781043 0.424672
vt 0.796583 0.419959
vt 0.325076 0.219559
vt 0.812742 0.418367
vt 0.828902 0.419959
vt 0.515549 0.161780
vt 0.513550 0.141491
vt 0.513550 0.182069
vt 0.338009 0.235319
vt 0.353769 0.248253
vt 0.507632 0.201579
vt 0.498021 0.219559
vt 0.371749 0.257864
vt 0.391259 0.263782
vt 0.485087 0.235319
vt 0.411548 0.265780
vt 0.431838 0.263782
vt 0.325076 0.104001
vt 0.507632 0.121981
vt 0.498021 0.104001
vt 0.338009 0.088241
vt 0.353769 0.075307
vt 0.485088 0.088241
vt 0.469328 0.075307
vt 0.371749 0.065697
vt 0.391259 0.059778
vt 0.451348 0.065697
vt 0.431838 0.059778
vt 0.141313 0.583514
vt 0.141313 0.445767
vt 0.128761 0.456068
vt 0.128761 0.573212
vt 0.118460 0.560660
vt 0.118460 0.468621
vt 0.110805 0.482942
vt 0.110805 0.546339
vt 0.106091 0.530800
vt 0.106091 0.498480
vt 0.911099 0.769006
vt 0.844442 0.577728
vt 0.893119 0.759396
vt 0.812742 0.584033
vt 0.766723 0.570074
vt 0.813521 0.759396
vt 0.795541 0.769006
vt 0.779781 0.781940
vt 0.766847 0.797700
vt 0.751318 0.835190
vt 0.796582 0.419958
vt 0.485087 0.088241
vt 0.451348 0.257863
vt 0.411549 0.265780
vt 0.766847 0.913259
vt 0.371749 0.257863
vt 0.268575 0.530801
vt 0.939792 0.913258
vt 0.926859 0.929018
vt 0.853319 0.959479
vt 0.955321 0.875769
vt 0.881616 0.455181
vt 0.939793 0.797700
vt 1.000000 0.709758
vt 1.000000 0.718363
s 1
f 2/1/1 12/2/1 4/2/1
f 165/3/2 7/1/2 212/4/2
f 43/5/2 98/6/2 96/7/2
f 6/8/2 7/1/2 90/9/2
f 5/10/2 6/8/2 13/11/2
f 3/10/3 8/2/3 4/2/3
f 2/1/4 6/8/4 1/8/4
f 4/2/1 7/1/1 2/1/1
f 1/8/5 5/10/5 3/10/5
f 10/8/6 9/10/6 45/11/6
f 10/8/6 115/12/6 111/13/6
f 12/2/6 265/14/6 255/15/6
f 200/16/6 195/17/6 267/18/6
f 3/10/5 10/8/5 1/8/5
f 4/2/3 9/10/3 3/10/3
f 1/8/4 11/1/4 2/1/4
f 29/19/7 76/20/7 61/21/7
f 33/22/8 61/21/8 65/23/8
f 31/24/9 65/23/9 63/25/9
f 41/26/10 63/25/10 73/27/10
f 41/26/11 67/28/11 35/29/11
f 35/29/12 71/30/12 39/31/12
f 39/31/13 69/32/13 37/33/13
f 37/33/14 68/34/14 36/35/14
f 36/35/15 70/36/15 38/37/15
f 38/37/16 72/38/16 40/39/16
f 40/39/17 66/40/17 34/41/17
f 34/41/18 74/42/18 42/43/18
f 42/43/19 62/44/19 30/45/19
f 30/45/20 64/46/20 32/47/20
f 32/47/21 60/48/21 28/49/21
f 28/49/22 75/50/22 43/51/22
f 43/51/23 54/52/23 22/53/23
f 22/53/24 55/54/24 23/55/24
f 23/55/25 57/56/25 25/57/25
f 25/57/26 52/58/26 20/59/26
f 18/60/27 52/58/27 50/61/27
f 16/62/28 50/61/28 48/63/28
f 14/64/29 48/63/29 46/65/29
f 13/66/30 46/65/30 45/67/30
f 15/68/31 45/67/31 47/69/31
f 19/70/32 47/69/32 51/71/32
f 17/72/33 51/71/33 49/73/33
f 27/74/34 49/73/34 59/75/34
f 21/76/35 59/75/35 53/77/35
f 26/78/36 53/77/36 58/79/36
f 24/80/37 58/79/37 56/81/37
f 44/82/38 56/81/38 76/83/38
f 94/84/7 140/85/7 125/86/7
f 98/87/8 125/86/8 129/88/8
f 96/89/9 129/88/9 127/90/9
f 107/91/10 127/90/10 137/92/10
f 107/91/11 131/93/11 100/94/11
f 100/94/39 135/95/39 105/96/39
f 105/96/40 133/97/40 103/98/40
f 103/98/14 132/99/14 101/100/14
f 101/100/15 134/101/15 102/102/15
f 102/102/16 136/103/16 104/104/16
f 104/104/41 130/105/41 99/106/41
f 99/106/18 139/107/18 106/108/18
f 106/108/19 126/109/19 95/110/19
f 95/110/20 128/111/20 97/112/20
f 97/112/21 124/113/21 93/114/21
f 93/114/22 138/115/22 90/116/22
f 90/116/23 118/117/23 86/118/23
f 86/118/42 119/119/42 88/120/42
f 88/120/43 121/121/43 84/122/43
f 84/122/44 116/123/44 91/124/44
f 80/125/45 116/123/45 114/126/45
f 82/127/46 114/126/46 112/128/46
f 78/129/29 112/128/29 110/130/29
f 77/131/30 110/130/30 109/132/30
f 79/133/31 109/132/31 111/134/31
f 83/135/47 111/134/47 115/136/47
f 81/137/48 115/136/48 113/138/48
f 92/139/34 113/138/34 123/140/34
f 85/141/35 123/140/35 117/142/35
f 89/143/49 117/142/49 122/144/49
f 87/145/50 122/144/50 120/146/50
f 108/147/38 120/146/38 140/148/38
f 157/19/7 203/20/7 189/21/7
f 161/22/51 189/21/51 193/23/51
f 159/24/9 193/23/9 191/25/9
f 170/26/10 191/25/10 202/27/10
f 170/26/11 195/28/11 163/29/11
f 163/29/12 200/30/12 168/31/12
f 168/31/13 198/32/13 166/33/13
f 166/33/14 196/34/14 164/35/14
f 164/35/15 197/36/15 165/37/15
f 165/37/16 199/38/16 167/39/16
f 167/39/17 194/40/17 162/41/17
f 162/41/18 201/42/18 169/43/18
f 169/43/19 190/44/19 158/45/19
f 158/45/20 192/46/20 160/47/20
f 160/47/52 188/48/52 156/49/52
f 156/49/22 204/50/22 172/51/22
f 172/51/23 182/52/23 150/53/23
f 150/53/42 184/54/42 152/55/42
f 152/55/25 180/56/25 148/57/25
f 148/57/26 186/58/26 154/59/26
f 144/60/27 186/58/27 176/61/27
f 146/62/53 176/61/53 178/63/53
f 142/64/54 178/63/54 174/65/54
f 141/66/30 174/65/30 173/67/30
f 143/68/31 173/67/31 175/69/31
f 147/70/47 175/69/47 179/71/47
f 145/72/33 179/71/33 177/73/33
f 155/74/34 177/73/34 187/75/34
f 149/76/35 187/75/35 181/77/35
f 153/78/36 181/77/36 185/79/36
f 151/80/50 185/79/50 183/81/50
f 171/82/38 183/81/38 203/83/38
f 220/84/7 257/85/7 255/86/7
f 221/87/51 255/86/51 265/88/51
f 237/89/9 265/88/9 260/90/9
f 235/91/10 260/90/10 264/92/10
f 235/91/11 261/93/11 236/94/11
f 236/94/12 263/95/12 224/96/12
f 262/149/55 208/150/55 263/95/13
f 207/98/14 270/99/14 210/100/14
f 210/100/15 272/101/15 212/102/15
f 212/102/16 271/103/16 211/104/16
f 211/104/17 269/105/17 209/106/17
f 209/106/18 267/107/18 205/108/18
f 206/151/19 267/107/19 259/152/19
f 213/110/20 256/111/20 223/112/20
f 223/112/21 254/113/21 226/114/21
f 226/114/22 252/115/22 233/116/22
f 233/116/23 253/117/23 234/118/23
f 234/118/42 248/119/42 238/120/42
f 238/120/25 250/121/25 231/122/25
f 231/122/26 246/123/26 232/124/26
f 230/125/27 246/123/27 243/126/27
f 229/127/28 243/126/28 242/128/28
f 228/129/29 242/128/29 240/130/29
f 227/131/30 240/130/30 239/132/30
f 225/133/31 239/132/31 241/134/31
f 214/135/47 241/134/47 244/136/47
f 215/137/33 244/136/33 245/138/33
f 216/139/34 245/138/34 247/140/34
f 217/141/35 247/140/35 251/142/35
f 218/143/36 251/142/36 249/144/36
f 219/145/37 249/144/37 266/146/37
f 222/147/38 266/146/38 257/148/38
f 2/1/1 11/1/1 12/2/1
f 206/153/2 161/154/2 159/155/2
f 206/153/2 159/155/2 170/156/2
f 205/18/2 206/153/2 170/156/2
f 205/18/2 170/156/2 163/17/2
f 209/157/2 205/18/2 163/17/2
f 209/157/2 163/17/2 168/16/2
f 211/158/2 209/157/2 168/16/2
f 211/158/2 168/16/2 166/159/2
f 212/4/2 211/158/2 166/159/2
f 212/4/2 166/159/2 164/160/2
f 212/4/2 164/160/2 165/3/2
f 8/2/2 208/161/2 207/162/2
f 158/163/2 160/164/2 7/1/2
f 169/165/2 158/163/2 7/1/2
f 8/2/2 207/162/2 210/166/2
f 8/2/2 210/166/2 212/4/2
f 162/167/2 169/165/2 7/1/2
f 167/168/2 162/167/2 7/1/2
f 7/1/2 8/2/2 212/4/2
f 165/3/2 167/168/2 7/1/2
f 224/169/2 208/161/2 8/2/2
f 5/10/2 26/170/2 24/171/2
f 5/10/2 24/171/2 44/172/2
f 236/173/2 224/169/2 8/2/2
f 235/174/2 236/173/2 8/2/2
f 5/10/2 44/172/2 29/175/2
f 5/10/2 29/175/2 33/176/2
f 237/177/2 235/174/2 8/2/2
f 221/178/2 237/177/2 8/2/2
f 5/10/2 33/176/2 31/179/2
f 5/10/2 31/179/2 41/180/2
f 220/15/2 221/178/2 8/2/2
f 222/181/2 220/15/2 8/2/2
f 5/10/2 41/180/2 35/182/2
f 222/181/2 8/2/2 5/10/2
f 219/183/2 222/181/2 5/10/2
f 218/184/2 219/183/2 5/10/2
f 217/185/2 218/184/2 5/10/2
f 217/185/2 5/10/2 35/182/2
f 216/186/2 217/185/2 35/182/2
f 216/186/2 35/182/2 39/187/2
f 215/188/2 216/186/2 39/187/2
f 215/188/2 39/187/2 37/189/2
f 214/190/2 215/188/2 37/189/2
f 214/190/2 37/189/2 36/191/2
f 225/192/2 214/190/2 36/191/2
f 225/192/2 36/191/2 38/193/2
f 227/194/2 225/192/2 38/193/2
f 227/194/2 38/193/2 40/195/2
f 228/196/2 227/194/2 40/195/2
f 228/196/2 40/195/2 34/197/2
f 229/198/2 228/196/2 34/197/2
f 229/198/2 34/197/2 42/199/2
f 230/200/2 229/198/2 42/199/2
f 230/200/2 42/199/2 30/201/2
f 232/202/2 230/200/2 30/201/2
f 231/203/2 232/202/2 30/201/2
f 238/204/2 231/203/2 30/201/2
f 234/205/2 238/204/2 30/201/2
f 233/206/2 234/205/2 30/201/2
f 233/206/2 30/201/2 32/207/2
f 226/208/2 233/206/2 32/207/2
f 223/209/2 226/208/2 32/207/2
f 161/154/2 206/153/2 213/210/2
f 161/154/2 213/210/2 223/209/2
f 157/211/2 161/154/2 223/209/2
f 171/212/2 157/211/2 223/209/2
f 151/213/2 171/212/2 223/209/2
f 151/213/2 223/209/2 32/207/2
f 153/214/2 151/213/2 32/207/2
f 153/214/2 32/207/2 28/215/2
f 149/216/2 153/214/2 28/215/2
f 155/217/2 149/216/2 28/215/2
f 145/218/2 155/217/2 28/215/2
f 147/219/2 145/218/2 28/215/2
f 143/220/2 147/219/2 28/215/2
f 141/221/2 143/220/2 28/215/2
f 142/222/2 141/221/2 28/215/2
f 142/222/2 28/215/2 43/5/2
f 146/223/2 142/222/2 43/5/2
f 22/224/2 23/225/2 6/8/2
f 144/226/2 146/223/2 43/5/2
f 43/5/2 22/224/2 6/8/2
f 6/8/2 82/227/2 78/228/2
f 6/8/2 78/228/2 77/229/2
f 154/230/2 144/226/2 43/5/2
f 148/231/2 154/230/2 43/5/2
f 43/5/2 6/8/2 77/229/2
f 43/5/2 77/229/2 79/13/2
f 152/232/2 148/231/2 43/5/2
f 150/233/2 152/232/2 43/5/2
f 43/5/2 79/13/2 83/12/2
f 43/5/2 83/12/2 81/234/2
f 172/235/2 150/233/2 43/5/2
f 7/1/2 160/164/2 156/236/2
f 7/1/2 156/236/2 172/235/2
f 101/237/2 102/238/2 7/1/2
f 103/239/2 101/237/2 7/1/2
f 7/1/2 172/235/2 43/5/2
f 43/5/2 81/234/2 92/240/2
f 43/5/2 92/240/2 85/241/2
f 105/242/2 103/239/2 7/1/2
f 100/243/2 105/242/2 7/1/2
f 43/5/2 85/241/2 89/244/2
f 43/5/2 89/244/2 87/245/2
f 107/246/2 100/243/2 7/1/2
f 96/7/2 107/246/2 7/1/2
f 43/5/2 87/245/2 108/247/2
f 43/5/2 108/247/2 94/248/2
f 96/7/2 7/1/2 43/5/2
f 43/5/2 94/248/2 98/6/2
f 80/249/2 82/227/2 6/8/2
f 7/1/2 102/238/2 104/250/2
f 7/1/2 104/250/2 99/251/2
f 91/252/2 80/249/2 6/8/2
f 84/253/2 91/252/2 6/8/2
f 7/1/2 99/251/2 106/254/2
f 7/1/2 106/254/2 95/255/2
f 88/256/2 84/253/2 6/8/2
f 86/257/2 88/256/2 6/8/2
f 7/1/2 95/255/2 97/258/2
f 7/1/2 97/258/2 93/259/2
f 90/9/2 86/257/2 6/8/2
f 7/1/2 93/259/2 90/9/2
f 21/260/2 26/170/2 5/10/2
f 6/8/2 23/225/2 25/261/2
f 6/8/2 25/261/2 20/262/2
f 27/263/2 21/260/2 5/10/2
f 17/264/2 27/263/2 5/10/2
f 6/8/2 20/262/2 18/265/2
f 6/8/2 18/265/2 16/266/2
f 19/267/2 17/264/2 5/10/2
f 15/268/2 19/267/2 5/10/2
f 6/8/2 16/266/2 14/269/2
f 13/11/2 15/268/2 5/10/2
f 6/8/2 14/269/2 13/11/2
f 3/10/3 5/10/3 8/2/3
f 2/1/4 7/1/4 6/8/4
f 4/2/1 8/2/1 7/1/1
f 1/8/5 6/8/5 5/10/5
f 57/261/6 55/225/6 10/8/6
f 9/10/6 58/170/6 53/260/6
f 9/10/6 53/260/6 59/263/6
f 52/262/6 57/261/6 10/8/6
f 50/265/6 52/262/6 10/8/6
f 9/10/6 59/263/6 49/264/6
f 9/10/6 49/264/6 51/267/6
f 48/266/6 50/265/6 10/8/6
f 46/269/6 48/266/6 10/8/6
f 9/10/6 51/267/6 47/268/6
f 45/11/6 46/269/6 10/8/6
f 9/10/6 47/268/6 45/11/6
f 110/228/6 112/227/6 10/8/6
f 10/8/6 55/225/6 123/240/6
f 10/8/6 123/240/6 113/234/6
f 109/229/6 110/228/6 10/8/6
f 111/13/6 109/229/6 10/8/6
f 10/8/6 113/234/6 115/12/6
f 258/270/6 259/153/6 193/271/6
f 258/270/6 193/271/6 189/211/6
f 256/272/6 258/270/6 189/211/6
f 256/272/6 189/211/6 203/273/6
f 254/208/6 256/272/6 203/273/6
f 254/208/6 203/273/6 183/213/6
f 252/206/6 254/208/6 183/213/6
f 252/206/6 183/213/6 185/214/6
f 253/205/6 252/206/6 185/214/6
f 253/205/6 185/214/6 181/274/6
f 248/275/6 253/205/6 181/274/6
f 248/275/6 181/274/6 187/217/6
f 250/276/6 248/275/6 187/217/6
f 250/276/6 187/217/6 177/218/6
f 246/277/6 250/276/6 177/218/6
f 246/277/6 177/218/6 179/219/6
f 243/278/6 246/277/6 179/219/6
f 243/278/6 179/219/6 175/220/6
f 242/198/6 243/278/6 175/220/6
f 242/198/6 175/220/6 173/221/6
f 240/279/6 242/198/6 173/221/6
f 239/194/6 240/279/6 173/221/6
f 188/236/6 192/164/6 11/1/6
f 10/8/6 112/227/6 114/249/6
f 10/8/6 114/249/6 116/252/6
f 204/235/6 188/236/6 11/1/6
f 182/280/6 204/235/6 11/1/6
f 10/8/6 116/252/6 121/253/6
f 10/8/6 121/253/6 119/256/6
f 184/232/6 182/280/6 11/1/6
f 180/231/6 184/232/6 11/1/6
f 10/8/6 119/256/6 118/257/6
f 10/8/6 118/257/6 138/9/6
f 186/230/6 180/231/6 11/1/6
f 176/226/6 186/230/6 11/1/6
f 11/1/6 10/8/6 138/9/6
f 11/1/6 138/9/6 124/259/6
f 11/1/6 124/259/6 128/258/6
f 11/1/6 128/258/6 126/255/6
f 11/1/6 126/255/6 139/281/6
f 11/1/6 139/281/6 130/251/6
f 176/226/6 11/1/6 130/251/6
f 176/226/6 130/251/6 136/250/6
f 178/223/6 176/226/6 136/250/6
f 178/223/6 136/250/6 134/238/6
f 174/222/6 178/223/6 134/238/6
f 174/222/6 134/238/6 132/237/6
f 173/221/6 174/222/6 132/237/6
f 173/221/6 132/237/6 133/239/6
f 239/194/6 173/221/6 133/239/6
f 239/194/6 133/239/6 135/242/6
f 241/192/6 239/194/6 135/242/6
f 241/192/6 135/242/6 131/243/6
f 244/190/6 241/192/6 131/243/6
f 244/190/6 131/243/6 137/246/6
f 244/190/6 137/246/6 127/7/6
f 244/190/6 127/7/6 129/282/6
f 244/190/6 129/282/6 125/248/6
f 244/190/6 125/248/6 140/283/6
f 245/284/6 244/190/6 140/283/6
f 245/284/6 140/283/6 120/245/6
f 245/284/6 120/245/6 122/285/6
f 117/241/6 123/240/6 55/225/6
f 245/284/6 122/285/6 117/241/6
f 117/241/6 55/225/6 54/224/6
f 117/241/6 54/224/6 75/5/6
f 117/241/6 75/5/6 60/215/6
f 117/241/6 60/215/6 64/207/6
f 117/241/6 64/207/6 62/201/6
f 117/241/6 62/201/6 74/199/6
f 245/284/6 117/241/6 74/199/6
f 245/284/6 74/199/6 66/197/6
f 247/186/6 245/284/6 66/197/6
f 247/186/6 66/197/6 72/195/6
f 247/186/6 72/195/6 70/193/6
f 247/186/6 70/193/6 68/191/6
f 251/185/6 247/186/6 68/191/6
f 251/185/6 68/191/6 69/286/6
f 251/185/6 69/286/6 71/187/6
f 251/185/6 71/187/6 67/182/6
f 251/185/6 67/182/6 73/180/6
f 251/185/6 73/180/6 63/179/6
f 251/185/6 63/179/6 65/176/6
f 251/185/6 65/176/6 61/175/6
f 251/185/6 61/175/6 76/172/6
f 56/171/6 58/170/6 9/10/6
f 251/185/6 76/172/6 56/171/6
f 251/185/6 56/171/6 9/10/6
f 12/2/6 262/161/6 263/169/6
f 12/2/6 263/169/6 261/287/6
f 249/184/6 251/185/6 9/10/6
f 266/183/6 249/184/6 9/10/6
f 12/2/6 261/287/6 264/288/6
f 12/2/6 264/288/6 260/177/6
f 266/183/6 9/10/6 12/2/6
f 257/289/6 266/183/6 12/2/6
f 12/2/6 260/177/6 265/14/6
f 255/15/6 257/289/6 12/2/6
f 268/290/6 262/161/6 12/2/6
f 11/1/6 192/164/6 190/163/6
f 11/1/6 190/163/6 201/165/6
f 270/166/6 268/290/6 12/2/6
f 272/4/6 270/166/6 12/2/6
f 11/1/6 201/165/6 194/291/6
f 11/1/6 194/291/6 199/168/6
f 272/4/6 12/2/6 11/1/6
f 271/158/6 272/4/6 11/1/6
f 11/1/6 199/168/6 197/3/6
f 11/1/6 197/3/6 196/160/6
f 269/292/6 271/158/6 11/1/6
f 193/271/6 259/153/6 267/18/6
f 267/18/6 269/292/6 11/1/6
f 11/1/6 196/160/6 198/159/6
f 267/18/6 11/1/6 198/159/6
f 191/155/6 193/271/6 267/18/6
f 202/156/6 191/155/6 267/18/6
f 267/18/6 198/159/6 200/16/6
f 195/17/6 202/156/6 267/18/6
f 3/10/5 9/10/5 10/8/5
f 4/2/3 12/2/3 9/10/3
f 1/8/4 10/8/4 11/1/4
f 29/19/7 44/293/7 76/20/7
f 33/22/8 29/19/8 61/21/8
f 31/24/9 33/22/9 65/23/9
f 41/26/10 31/24/10 63/25/10
f 41/26/11 73/27/11 67/28/11
f 35/29/12 67/28/12 71/30/12
f 39/31/13 71/30/13 69/32/13
f 37/33/14 69/32/14 68/34/14
f 36/35/15 68/34/15 70/36/15
f 38/37/16 70/36/16 72/38/16
f 40/39/17 72/38/17 66/40/17
f 34/41/18 66/40/18 74/42/18
f 42/43/19 74/42/19 62/44/19
f 30/45/20 62/44/20 64/46/20
f 32/47/21 64/46/21 60/48/21
f 28/49/22 60/48/22 75/50/22
f 43/51/23 75/50/23 54/52/23
f 22/53/24 54/52/24 55/54/24
f 23/55/25 55/54/25 57/56/25
f 25/57/26 57/56/26 52/58/26
f 18/60/27 20/59/27 52/58/27
f 16/62/28 18/60/28 50/61/28
f 14/64/29 16/62/29 48/63/29
f 13/66/30 14/64/30 46/65/30
f 15/68/31 13/66/31 45/67/31
f 19/70/32 15/68/32 47/69/32
f 17/72/33 19/70/33 51/71/33
f 27/74/34 17/72/34 49/73/34
f 21/76/35 27/74/35 59/75/35
f 26/78/36 21/76/36 53/77/36
f 24/80/37 26/78/37 58/79/37
f 44/82/38 24/80/38 56/81/38
f 94/84/7 108/294/7 140/85/7
f 98/87/8 94/84/8 125/86/8
f 96/89/9 98/87/9 129/88/9
f 107/91/10 96/89/10 127/90/10
f 107/91/11 137/92/11 131/93/11
f 100/94/39 131/93/39 135/95/39
f 105/96/40 135/95/40 133/97/40
f 103/98/14 133/97/14 132/99/14
f 101/100/15 132/99/15 134/101/15
f 102/102/16 134/101/16 136/103/16
f 104/104/41 136/103/56 130/105/41
f 99/106/18 130/105/18 139/107/18
f 106/108/19 139/107/19 126/109/19
f 95/110/20 126/109/20 128/111/20
f 97/112/21 128/111/21 124/113/21
f 93/114/22 124/113/22 138/115/22
f 90/116/23 138/115/23 118/117/23
f 86/118/42 118/117/42 119/119/42
f 88/120/43 119/119/43 121/121/43
f 84/122/44 121/121/57 116/123/44
f 80/125/45 91/124/45 116/123/45
f 82/127/46 80/125/46 114/126/46
f 78/129/29 82/127/29 112/128/29
f 77/131/30 78/129/30 110/130/30
f 79/133/31 77/131/31 109/132/31
f 83/135/47 79/133/47 111/134/47
f 81/137/48 83/135/48 115/136/48
f 92/139/34 81/137/34 113/138/34
f 85/141/35 92/139/35 123/140/35
f 89/143/49 85/141/49 117/142/49
f 87/145/50 89/143/50 122/144/50
f 108/147/38 87/145/38 120/146/38
f 157/19/7 171/293/7 203/20/7
f 161/22/51 157/19/51 189/21/51
f 159/24/9 161/22/9 193/23/9
f 170/26/10 159/24/10 191/25/10
f 170/26/11 202/27/11 195/28/11
f 163/29/12 195/28/12 200/30/12
f 168/31/13 200/30/13 198/32/13
f 166/33/14 198/32/14 196/34/14
f 164/35/15 196/34/15 197/36/15
f 165/37/16 197/36/16 199/38/16
f 167/39/17 199/38/17 194/40/17
f 162/41/18 194/40/18 201/42/18
f 169/43/19 201/42/19 190/44/19
f 158/45/20 190/44/20 192/46/20
f 160/47/52 192/46/52 188/48/52
f 156/49/22 188/48/22 204/50/22
f 172/51/23 204/50/23 182/52/23
f 150/53/42 182/52/42 184/54/42
f 152/55/25 184/54/25 180/56/25
f 148/57/26 180/56/26 186/58/26
f 144/60/27 154/59/27 186/58/27
f 146/62/53 144/60/53 176/61/53
f 142/64/54 146/62/54 178/63/54
f 141/66/30 142/64/30 174/65/30
f 143/68/31 141/66/31 173/67/31
f 147/70/47 143/68/47 175/69/47
f 145/72/33 147/70/33 179/71/33
f 155/74/34 145/72/34 177/73/34
f 149/76/35 155/74/35 187/75/35
f 153/78/36 149/76/36 181/77/36
f 151/80/50 153/78/50 185/79/50
f 171/82/38 151/80/38 183/81/38
f 220/84/7 222/294/7 257/85/7
f 221/87/51 220/84/51 255/86/51
f 237/89/9 221/87/9 265/88/9
f 235/91/10 237/89/10 260/90/10
f 235/91/11 264/92/11 261/93/11
f 236/94/12 261/93/12 263/95/12
f 262/149/55 268/97/40 207/98/58
f 208/150/55 224/96/13 263/95/13
f 262/149/55 207/98/58 208/150/55
f 207/98/14 268/97/14 270/99/14
f 210/100/15 270/99/15 272/101/15
f 212/102/16 272/101/16 271/103/16
f 211/104/17 271/103/17 269/105/17
f 209/106/18 269/105/18 267/107/18
f 258/109/59 213/110/59 206/151/19
f 206/151/19 205/108/19 267/107/19
f 259/152/19 258/109/59 206/151/19
f 213/110/20 258/109/20 256/111/20
f 223/112/21 256/111/21 254/113/21
f 226/114/22 254/113/22 252/115/22
f 233/116/23 252/115/23 253/117/23
f 234/118/42 253/117/42 248/119/42
f 238/120/25 248/119/25 250/121/25
f 231/122/26 250/121/26 246/123/26
f 230/125/27 232/124/27 246/123/27
f 229/127/28 230/125/28 243/126/28
f 228/129/29 229/127/29 242/128/29
f 227/131/30 228/129/30 240/130/30
f 225/133/31 227/131/31 239/132/31
f 214/135/47 225/133/47 241/134/47
f 215/137/33 214/135/33 244/136/33
f 216/139/34 215/137/34 245/138/34
f 217/141/35 216/139/35 247/140/35
f 218/143/36 217/141/36 251/142/36
f 219/145/37 218/143/37 249/144/37
f 222/147/38 219/145/38 266/146/38
