# Blender 4.5.3 LTS
# www.blender.org
o woollett_collision
v -24.999996 11.353807 2.146301
v 25.000006 11.353790 2.146301
v 24.999998 -11.353807 2.146299
v -25.000004 -11.353790 2.146299
v 24.999998 -11.353807 -0.000001
v -25.000004 -11.353790 -0.000001
v -24.999996 11.353807 0.000001
v 25.000006 11.353790 0.000001
v -25.152395 11.423019 2.286001
v -25.152403 -11.423005 2.285999
v 25.152395 -11.423022 2.285999
v 25.152403 11.423002 2.286001
v 25.152395 -11.423022 -0.000001
v -25.152405 -11.423005 -0.000001
v -25.152397 11.423020 0.000001
v 25.152403 11.423003 0.000001
v -0.023377 -11.353800 0.007069
v -0.023370 11.353800 0.007072
v 0.029221 11.353800 0.008840
v 0.029214 -11.353800 0.008837
v 0.059702 11.353799 0.057622
v 0.059695 -11.353799 0.057619
v 0.033937 11.353800 0.114286
v 0.033930 -11.353800 0.114283
v -0.028274 11.353799 0.116406
v -0.028282 -11.353799 0.116403
v -0.061075 11.353800 0.063502
v -0.061082 -11.353800 0.063499
v -0.052795 11.353800 0.028223
v -0.052802 -11.353800 0.028220
v 12.374171 -11.353804 0.007069
v 12.374179 11.353796 0.007072
v 12.407514 11.353795 0.051742
v 12.407506 -11.353803 0.051739
v 12.413490 11.353795 0.063502
v 12.413483 -11.353803 0.063499
v 12.379083 11.353797 0.116406
v 12.379075 -11.353805 0.116403
v 12.316872 11.353796 0.114286
v 12.316864 -11.353804 0.114283
v 12.291106 11.353797 0.057622
v 12.291099 -11.353805 0.057619
v 12.321588 11.353796 0.008840
v 12.321580 -11.353804 0.008837
vn -0.0000 -0.0000 -1.0000
vn -0.0000 1.0000 -0.0000
vn -0.0000 -1.0000 -0.0000
vn -1.0000 -0.0000 -0.0000
vn 1.0000 -0.0000 -0.0000
vn -0.0000 -0.0000 1.0000
vn 0.0336 -0.0000 -0.9994
vn 0.8481 -0.0000 -0.5299
vn 0.9103 -0.0000 0.4139
vn 0.0341 -0.0000 0.9994
vn -0.8499 -0.0000 0.5269
vn -0.9735 -0.0000 -0.2285
vn -0.5837 -0.0000 -0.8120
vn -0.0000 1.0000 -0.0001
vn -0.0000 -1.0000 -0.0001
vn 0.8014 -0.0000 -0.5981
vn 0.8915 -0.0000 -0.4531
vn -0.8915 -0.0000 0.4531
vn 0.9154 -0.0000 0.4025
vn -0.0341 -0.0000 0.9994
vn -0.9103 -0.0000 0.4139
vn -0.8481 -0.0000 -0.5299
vn -0.0336 -0.0000 -0.9994
vn 0.0001 -1.0000 -0.0000
vn -0.0000 -1.0000 0.0001
s 0
f 1//1 2//1 3//1
f 1//1 3//1 4//1
f 5//2 6//2 4//2
f 5//2 4//2 3//2
f 7//3 8//3 2//3
f 7//3 2//3 1//3
f 8//4 5//4 3//4
f 8//4 3//4 2//4
f 6//5 7//5 1//5
f 6//5 1//5 4//5
f 9//6 10//6 11//6
f 9//6 11//6 12//6
f 13//3 11//3 10//3
f 13//3 10//3 14//3
f 15//2 9//2 12//2
f 15//2 12//2 16//2
f 16//5 12//5 11//5
f 16//5 11//5 13//5
f 14//4 10//4 9//4
f 14//4 9//4 15//4
f 7//1 6//1 14//1
f 7//1 14//1 15//1
f 8//1 7//1 15//1
f 8//1 15//1 16//1
f 5//1 8//1 16//1
f 5//1 16//1 13//1
f 6//1 5//1 13//1
f 6//1 13//1 14//1
f 17//7 18//7 19//7
f 17//7 19//7 20//7
f 20//8 19//8 21//8
f 20//8 21//8 22//8
f 22//9 21//9 23//9
f 22//9 23//9 24//9
f 24//10 23//10 25//10
f 24//10 25//10 26//10
f 26//11 25//11 27//11
f 26//11 27//11 28//11
f 28//12 27//12 29//12
f 28//12 29//12 30//12
f 30//13 29//13 18//13
f 30//13 18//13 17//13
f 18//2 29//2 27//2
f 19//2 18//2 27//2
f 25//14 23//14 21//14
f 19//2 27//2 25//2
f 25//2 21//2 19//2
f 17//3 20//3 22//3
f 24//3 26//3 28//3
f 28//15 30//15 17//15
f 17//3 22//3 24//3
f 24//3 28//3 17//3
f 31//16 32//16 33//16
f 31//16 33//16 34//16
f 34//17 33//17 35//17
f 34//17 35//17 36//17
f 36//18 35//18 33//18
f 36//18 33//18 34//18
f 34//19 33//19 37//19
f 34//19 37//19 38//19
f 38//20 37//20 39//20
f 38//20 39//20 40//20
f 40//21 39//21 41//21
f 40//21 41//21 42//21
f 42//22 41//22 43//22
f 42//22 43//22 44//22
f 32//2 43//2 41//2
f 39//2 37//2 33//2
f 32//2 41//2 39//2
f 39//2 33//2 32//2
f 44//23 43//23 32//23
f 44//23 32//23 31//23
f 36//2 34//2 38//2
f 31//24 34//24 36//24
f 44//3 31//3 36//3
f 38//25 40//25 42//25
f 44//3 36//3 38//3
f 38//3 42//3 44//3
